<?xml version="1.0" encoding="utf-8"?>
<!-- Generator: Adobe Illustrator 25.0.1, SVG Export Plug-In . SVG Version: 6.00 Build 0)  -->
<svg version="1.1" id="Layer_1" xmlns="http://www.w3.org/2000/svg" xmlns:xlink="http://www.w3.org/1999/xlink" x="0px" y="0px"
	 viewBox="0 0 716 763" style="enable-background:new 0 0 716 763;" xml:space="preserve">
<style type="text/css">
	.st0{opacity:0.1;fill:#48BA13;}
	.st1{fill:url(#SVGID_1_);}
	.st2{fill:#F5F5F5;}
	.st3{fill:#FFFFFF;}
	.st4{fill:url(#SVGID_2_);}
	.st5{fill:url(#SVGID_3_);}
	.st6{fill:url(#SVGID_4_);}
	.st7{fill:#FF5252;}
	.st8{fill:#FFFF00;}
	.st9{fill:#69F0AE;}
	.st10{fill:url(#SVGID_5_);}
	.st11{fill:#48BA13;}
	.st12{fill:none;stroke:#FFFFFF;stroke-linecap:round;stroke-linejoin:round;stroke-dasharray:0,4;}
	.st13{fill:none;stroke:#FFFFFF;stroke-linecap:round;stroke-linejoin:round;}
	.st14{opacity:0.3;fill:none;stroke:#FFFFFF;stroke-linecap:round;stroke-linejoin:round;enable-background:new    ;}
	.st15{opacity:0.2;fill:#FFFFFF;enable-background:new    ;}
	.st16{fill:#6C63FF;}
	.st17{opacity:0.5;fill:#FFFFFF;enable-background:new    ;}
	.st18{fill:url(#SVGID_6_);}
	.st19{fill:url(#SVGID_7_);}
	.st20{fill:url(#SVGID_8_);}
	.st21{fill:#46543C;}
	.st22{fill:url(#SVGID_9_);}
	.st23{fill:url(#SVGID_10_);}
	.st24{fill:url(#SVGID_11_);}
	.st25{fill:url(#SVGID_12_);}
	.st26{fill:#E0E0E0;}
	.st27{fill:#2F2E41;}
	.st28{fill:#F4DABE;}
	.st29{opacity:0.2;enable-background:new    ;}
	.st30{fill:#FFC914;}
	.st31{opacity:0.1;fill:#48BA13;enable-background:new    ;}
</style>
<path class="st0" d="M716.3,767.3c0,0-470-47.6-513-121.6s43-219-125-245s-30-234,100-235s254-130,363-150s173.4-7.5,173.4-7.5
	L716.3,767.3z"/>
<linearGradient id="SVGID_1_" gradientUnits="userSpaceOnUse" x1="257.4917" y1="312.341" x2="257.4917" y2="544.554" gradientTransform="matrix(1 0 0 -1 0 764)">
	<stop  offset="0" style="stop-color:#808080;stop-opacity:0.25"/>
	<stop  offset="0.5351" style="stop-color:#808080;stop-opacity:0.12"/>
	<stop  offset="1" style="stop-color:#808080;stop-opacity:0.1"/>
</linearGradient>
<rect x="58.2" y="219.4" class="st1" width="398.5" height="232.2"/>
<rect x="63.6" y="223.3" class="st2" width="388.6" height="11.9"/>
<rect x="63.6" y="235.2" class="st3" width="388.6" height="210.4"/>
<linearGradient id="SVGID_2_" gradientUnits="userSpaceOnUse" x1="72.4877" y1="531.6022" x2="72.4877" y2="538.3463" gradientTransform="matrix(1 0 0 -1 0 764)">
	<stop  offset="0" style="stop-color:#808080;stop-opacity:0.25"/>
	<stop  offset="0.5351" style="stop-color:#808080;stop-opacity:0.12"/>
	<stop  offset="1" style="stop-color:#808080;stop-opacity:0.1"/>
</linearGradient>
<circle class="st4" cx="72.5" cy="229" r="3.4"/>
<linearGradient id="SVGID_3_" gradientUnits="userSpaceOnUse" x1="80.1515" y1="531.6022" x2="80.1515" y2="538.3463" gradientTransform="matrix(1 0 0 -1 0 764)">
	<stop  offset="0" style="stop-color:#808080;stop-opacity:0.25"/>
	<stop  offset="0.5351" style="stop-color:#808080;stop-opacity:0.12"/>
	<stop  offset="1" style="stop-color:#808080;stop-opacity:0.1"/>
</linearGradient>
<circle class="st5" cx="80.2" cy="229" r="3.4"/>
<linearGradient id="SVGID_4_" gradientUnits="userSpaceOnUse" x1="87.8153" y1="531.6022" x2="87.8153" y2="538.3463" gradientTransform="matrix(1 0 0 -1 0 764)">
	<stop  offset="0" style="stop-color:#808080;stop-opacity:0.25"/>
	<stop  offset="0.5351" style="stop-color:#808080;stop-opacity:0.12"/>
	<stop  offset="1" style="stop-color:#808080;stop-opacity:0.1"/>
</linearGradient>
<circle class="st6" cx="87.8" cy="229" r="3.4"/>
<circle class="st7" cx="72.5" cy="229" r="2.8"/>
<circle class="st8" cx="80.1" cy="229" r="2.8"/>
<circle class="st9" cx="87.7" cy="229" r="2.8"/>
<linearGradient id="SVGID_5_" gradientUnits="userSpaceOnUse" x1="261.6866" y1="399.154" x2="261.6866" y2="512.2748" gradientTransform="matrix(1 0 0 -1 0 764)">
	<stop  offset="0" style="stop-color:#808080;stop-opacity:0.25"/>
	<stop  offset="0.5351" style="stop-color:#808080;stop-opacity:0.12"/>
	<stop  offset="1" style="stop-color:#808080;stop-opacity:0.1"/>
</linearGradient>
<rect x="147.4" y="251.7" class="st10" width="228.6" height="113.1"/>
<rect x="149.8" y="254.1" class="st11" width="223.9" height="107.2"/>
<line class="st12" x1="161.7" y1="268.4" x2="161.7" y2="345.8"/>
<line class="st13" x1="161.1" y1="351.2" x2="358.7" y2="351.2"/>
<line class="st14" x1="183.7" y1="272.6" x2="337.3" y2="272.6"/>
<line class="st14" x1="183.7" y1="290.4" x2="337.3" y2="290.4"/>
<line class="st14" x1="183.7" y1="308.3" x2="337.3" y2="308.3"/>
<line class="st14" x1="183.7" y1="326.1" x2="337.3" y2="326.1"/>
<path class="st15" d="M193.8,351.2v-42.9c0,0-3.6-18.5,32.7-17.9c33-4.7,33-18.3,33-18.3s30.4-3.3,31.9,29
	c0.2,5.4,2.9,10.4,7.3,13.6c12.5,8.8,23.4-8.8,28.4-24.3v60.7H193.8z"/>
<circle class="st16" cx="223.6" cy="289.8" r="4.8"/>
<circle class="st17" cx="223.6" cy="289.8" r="4.8"/>
<linearGradient id="SVGID_6_" gradientUnits="userSpaceOnUse" x1="193.8142" y1="449.1653" x2="193.8142" y2="461.0728" gradientTransform="matrix(1 0 0 -1 0 764)">
	<stop  offset="0" style="stop-color:#808080;stop-opacity:0.25"/>
	<stop  offset="0.5351" style="stop-color:#808080;stop-opacity:0.12"/>
	<stop  offset="1" style="stop-color:#808080;stop-opacity:0.1"/>
</linearGradient>
<circle class="st18" cx="193.8" cy="308.9" r="6"/>
<linearGradient id="SVGID_7_" gradientUnits="userSpaceOnUse" x1="259.7858" y1="485.0297" x2="259.7858" y2="496.9372" gradientTransform="matrix(1 0 0 -1 0 764)">
	<stop  offset="0" style="stop-color:#808080;stop-opacity:0.25"/>
	<stop  offset="0.5351" style="stop-color:#808080;stop-opacity:0.12"/>
	<stop  offset="1" style="stop-color:#808080;stop-opacity:0.1"/>
</linearGradient>
<circle class="st19" cx="259.8" cy="273" r="6"/>
<linearGradient id="SVGID_8_" gradientUnits="userSpaceOnUse" x1="327.1776" y1="465.8358" x2="327.1776" y2="477.7432" gradientTransform="matrix(1 0 0 -1 0 764)">
	<stop  offset="0" style="stop-color:#808080;stop-opacity:0.25"/>
	<stop  offset="0.5351" style="stop-color:#808080;stop-opacity:0.12"/>
	<stop  offset="1" style="stop-color:#808080;stop-opacity:0.1"/>
</linearGradient>
<circle class="st20" cx="327.2" cy="292.2" r="6"/>
<circle class="st21" cx="193.8" cy="308.9" r="4.8"/>
<circle class="st21" cx="259.8" cy="273" r="4.8"/>
<circle class="st16" cx="292.6" cy="308.9" r="4.8"/>
<circle class="st17" cx="292.6" cy="308.9" r="4.8"/>
<circle class="st21" cx="327.2" cy="292.2" r="4.8"/>
<linearGradient id="SVGID_9_" gradientUnits="userSpaceOnUse" x1="261.6866" y1="378.6328" x2="261.6866" y2="385.9739" gradientTransform="matrix(1 0 0 -1 0 764)">
	<stop  offset="0" style="stop-color:#808080;stop-opacity:0.25"/>
	<stop  offset="0.5351" style="stop-color:#808080;stop-opacity:0.12"/>
	<stop  offset="1" style="stop-color:#808080;stop-opacity:0.1"/>
</linearGradient>
<rect x="148.4" y="378" class="st22" width="226.5" height="7.3"/>
<linearGradient id="SVGID_10_" gradientUnits="userSpaceOnUse" x1="261.6866" y1="368.1455" x2="261.6866" y2="375.4866" gradientTransform="matrix(1 0 0 -1 0 764)">
	<stop  offset="0" style="stop-color:#808080;stop-opacity:0.25"/>
	<stop  offset="0.5351" style="stop-color:#808080;stop-opacity:0.12"/>
	<stop  offset="1" style="stop-color:#808080;stop-opacity:0.1"/>
</linearGradient>
<rect x="148.4" y="388.5" class="st23" width="226.5" height="7.3"/>
<linearGradient id="SVGID_11_" gradientUnits="userSpaceOnUse" x1="261.6866" y1="357.6582" x2="261.6866" y2="364.9993" gradientTransform="matrix(1 0 0 -1 0 764)">
	<stop  offset="0" style="stop-color:#808080;stop-opacity:0.25"/>
	<stop  offset="0.5351" style="stop-color:#808080;stop-opacity:0.12"/>
	<stop  offset="1" style="stop-color:#808080;stop-opacity:0.1"/>
</linearGradient>
<rect x="148.4" y="399" class="st24" width="226.5" height="7.3"/>
<linearGradient id="SVGID_12_" gradientUnits="userSpaceOnUse" x1="261.6866" y1="347.1709" x2="261.6866" y2="354.512" gradientTransform="matrix(1 0 0 -1 0 764)">
	<stop  offset="0" style="stop-color:#808080;stop-opacity:0.25"/>
	<stop  offset="0.5351" style="stop-color:#808080;stop-opacity:0.12"/>
	<stop  offset="1" style="stop-color:#808080;stop-opacity:0.1"/>
</linearGradient>
<rect x="148.4" y="409.5" class="st25" width="226.5" height="7.3"/>
<rect x="149.5" y="379.1" class="st26" width="224.4" height="5.2"/>
<rect x="149.5" y="389.6" class="st26" width="224.4" height="5.2"/>
<rect x="149.5" y="400" class="st26" width="224.4" height="5.2"/>
<rect x="149.5" y="410.5" class="st26" width="224.4" height="5.2"/>
<path class="st27" d="M495.8,244.4c0,0,1.1,3.8-5.3,7.2c-6.5,3.4-8.4,16.3-0.8,20.1c7.6,3.8,9.9,8.7,6.1,12.2
	c-3.8,3.4-10.6,12.5-1.5,14.8s10.3,6.8,7.6,8.7s6.1-3.4,6.1-3.4s1.5,9.1,9.5,6.8c8-2.3,30.4-45.6,19-51.7
	C525,253.2,495.8,244.4,495.8,244.4z"/>
<polygon class="st28" points="525.2,566.6 522.7,589.6 533.4,596.2 543.3,594.6 538.4,566.6 "/>
<circle class="st28" cx="517" cy="266.8" r="23.1"/>
<path class="st28" d="M509.2,278c0,0-2.1,35-4.5,35c-2.5,0,28.8-1.6,28.8-1.6s-13.2-23.1-6.6-30.5C533.4,273.4,509.2,278,509.2,278z
	"/>
<polygon class="st27" points="543.3,462.8 532.6,504 540.9,574 521.9,572.3 514.5,462.8 "/>
<polygon class="st29" points="543.3,462.8 532.6,504 540.9,574 521.9,572.3 514.5,462.8 "/>
<path class="st27" d="M526.9,585.5c0,0-0.8-4.9-9.1,0c-8.2,4.9-42.8,20.6-24.7,23.9c18.1,3.3,55.2-4.1,55.2-6.6
	c0-2.5,0.8-18.1-2.5-16.5C542.5,588,531.8,598.7,526.9,585.5z"/>
<path class="st28" d="M537.6,579.8c0,0,13.2,20.6,14,26.4c0.8,5.8,13.2-13.2,13.2-13.2l-11.5-21.4L537.6,579.8z"/>
<path class="st27" d="M493.9,466.1l14.8,49.4c0,0,26.4,70,28,69.2c1.6-0.8,21.4-5.8,22.2-8.2c0.8-2.5-24.7-69.2-24.7-69.2l-3.3-42.8
	L493.9,466.1z"/>
<path class="st27" d="M567.2,589.6c-4.6-0.3-8.9,2.3-10.7,6.6c-3.3,7.4-7.4,8.2-8.2,9.1c-0.8,0.8,2.5,18.1,0,19.8
	c-2.5,1.6-4.9,18.9,3.3,18.9s21.4-9.1,20.6-10.7c-0.8-1.6-0.8-13.2,1.6-18.1c2.5-4.9,6.6-13.2,0-18.1
	C567.2,592.1,567.2,589.6,567.2,589.6z"/>
<path class="st21" d="M489,389.5l-1.6,14.8c0,0-12.4,12.4-16.5,27.2c-4.1,14.8-37.9,39.5-28,42.8c9.9,3.3,21.4,4.9,50.2,0
	c28.8-4.9,74.1,5.8,74.1-21.4c0,0,5.8-7.4,9.9,3.3c2.9,7.3,6.2,14.5,9.9,21.4c0,0,9.9-17.3,6.6-24.7c-3.3-7.4,0-6.6-4.1-14.8
	c-4.1-8.2-24.7-38.7-32.9-40.4c-8.2-1.6-23.9-23.1-23.1-25.5C534.3,369.8,489,389.5,489,389.5z"/>
<path class="st30" d="M533.4,297.3c0,0-33.8,7.4-35.4,12.4c-0.9,2.8-5.2,7.9-8.8,11.9c-6.1,6.6-10.1,14.8-11.6,23.6
	c-0.9,5.3,2.8,10,4.4,16c4.9,18.1,8.6,13.6,3.7,26.8c-4.9,13.2,24.7,18.1,36.2,12.4c11.5-5.8,24.3-39.9,24.3-44.1
	c0-4.1,11.1-50.6,2.1-53.9C539.2,299,533.4,297.3,533.4,297.3z"/>
<path class="st28" d="M486.5,336.8l-9.9,43.6l-32.5,14.4c0,0-24.7-5.8-25.5,3.3c-0.5,5.9,28,8.2,28,8.2l47.3-18.5l10.7-40.4
	L486.5,336.8z"/>
<path class="st30" d="M498,320.4c0,0-20.6,12.4-15.6,18.9c4.9,6.6,17.3,17.3,20.6,17.3s5.8-19.8,5.8-25.5
	C508.7,325.3,498,320.4,498,320.4z"/>
<path class="st27" d="M518.6,236.9c0,0,1.3,4.2-5.9,8c-7.2,3.8-9.3,18.1-0.8,22.3c8.4,4.2,10.9,9.7,6.7,13.5
	c-4.2,3.8-11.8,13.9-1.7,16.4c10.1,2.5,11.4,7.6,8.4,9.7c-2.9,2.1,6.7-3.8,6.7-3.8s1.7,10.1,10.5,7.6s17.7-48.4,7.8-60.3
	C541.3,239.3,518.6,236.9,518.6,236.9z"/>
<path class="st27" d="M515.9,232.6c0-6.2,18.5-1.7,26.4,6.9c5.5,6,13.8,14.9,6.8,21.3c-7,6.3,12,14.6,17,17.1
	c5.1,2.5,15.1,10.2,6,15.4c-9,5.2-8.9,10.4-5.5,11.6c3.4,1.2-7.5-1.8-7.5-1.8s1.1,10.2-8.1,10.1s-35.6-50.6-29.3-64.6
	C527.7,235.4,515.9,232.6,515.9,232.6z"/>
<path class="st27" d="M519.9,231.2c-24.7-1.5-27.1,17.1-27.1,17.1c0.2,10.7,17.2,5.5,22,7.1c5.7-4.1,16.7-11.9,24.6-17.5
	C533.7,233.9,526.9,231.6,519.9,231.2z"/>
<ellipse class="st31" cx="539.6" cy="622.2" rx="104.4" ry="31.2"/>
<path class="st11" d="M162.5,602.8c0,0,37.2-2.2,32.9,23.9c0,0,0.9,4.6-3.3,6.7c0,0-0.1-1.9-3.8-1.3c-1.3,0.2-2.7,0.3-4,0.2
	c-1.8-0.1-3.6-0.8-4.9-2l0,0c0,0-10.5-4.3-14.5-21.4c0,0-3-3.7-2.9-4.7l6.3,2.7c0,0-2.1,4.5-0.5,8.3c0,0,0.2-8.1,1.4-7.9
	c0.2,0,3.3,1.5,3.3,1.5s-3.7,7.9-0.9,13.6c0,0-1.1-9.7,2.1-13.1l4.4,2.6c0,0-4.3,8.2-1.4,14.8c0,0-0.8-10.2,2.3-14.2l4,3.1
	c0,0-4.1,8-1.6,13.6c0,0,0.3-11.9,2.4-12.8c0,0,3.5,3.1,4,4.4c0,0-2.8,5.8-1.1,8.9c0,0,1.1-7.9,1.9-8c0,0,3.5,5.2,3.9,8.8
	c0,0-0.2-5.3-3-9.3c0,0,3.4,0.6,5.4,2.8c0,0-0.5-3.7-6.2-4c0,0-2.9-4-3.7-4.2c0,0,5.6-0.5,9.1,1c0,0-3-3.5-10.1-1.9l-4-3.2
	c0,0,7.4-1,10.6,0.1c0,0-3.6-3.1-11.6-0.8l-4.3-2.6c0,0,6.3-1.4,10.1-0.9c0,0-4-2.1-11.4,0.2l-3.1-1.4c0,0,4.6-0.9,6-1.1
	c1.4-0.1,1.4-0.5,1.4-0.5c-2.9-0.5-6-0.2-8.7,1C169,605.6,162.4,603.3,162.5,602.8z"/>
<ellipse class="st31" cx="188.2" cy="635.7" rx="26.4" ry="4.5"/>
<path class="st11" d="M112.6,585.3c0,0,21-1.3,18.5,13.5c0.3,1.5-0.5,3.1-1.9,3.8c0,0,0-1.1-2.2-0.7c-0.8,0.1-1.5,0.2-2.3,0.1
	c-1-0.1-2-0.5-2.8-1.1l0,0c0,0-5.9-2.4-8.2-12.1c0,0-1.7-2.1-1.6-2.6l3.6,1.5c0,0-1.2,2.6-0.3,4.7c0,0,0.1-4.6,0.8-4.5
	c0.1,0,1.8,0.9,1.8,0.9s-2.1,4.5-0.5,7.7c0,0-0.6-5.5,1.2-7.4l2.5,1.5c0,0-2.4,4.6-0.8,8.4c0,0-0.4-5.8,1.3-8l2.3,1.8
	c0,0-2.3,4.5-0.9,7.6c0,0,0.2-6.7,1.4-7.2c0,0,2,1.7,2.3,2.5c0,0-1.5,3.3-0.6,5c0,0,0.6-4.5,1.1-4.5c0,0,2,3,2.2,5
	c-0.1-1.9-0.7-3.7-1.7-5.3c1.1,0.2,2.2,0.7,3,1.5c0,0-0.3-2.1-3.5-2.3c0,0-1.6-2.2-2.1-2.4c0,0,3.2-0.3,5.1,0.6c0,0-1.7-2-5.7-1.1
	l-2.2-1.8c0,0,4.2-0.6,6,0.1c0,0-2-1.7-6.6-0.5l-2.4-1.5c1.9-0.4,3.8-0.6,5.7-0.5c0,0-2.2-1.2-6.4,0.1l-1.7-0.8c0,0,2.6-0.5,3.4-0.6
	c0.8-0.1,0.8-0.3,0.8-0.3c-1.7-0.3-3.4-0.1-4.9,0.5C116.2,586.9,112.6,585.5,112.6,585.3z"/>
<ellipse class="st31" cx="127.1" cy="603.8" rx="14.9" ry="2.5"/>
<path class="st11" d="M659.3,599.4c0,0,25.4-1.5,22.4,16.2c0.3,1.8-0.6,3.7-2.3,4.6c0,0,0-1.3-2.6-0.9c-0.9,0.2-1.8,0.2-2.8,0.1
	c-1.2-0.1-2.4-0.6-3.4-1.4l0,0c0,0-7.1-2.9-9.9-14.6c0,0-2.1-2.5-2-3.2l4.3,1.8c0,0-1.5,3.1-0.3,5.7c0,0,0.1-5.5,1-5.4
	c0.2,0,2.2,1.1,2.2,1.1s-2.5,5.4-0.6,9.3c0,0-0.7-6.6,1.4-8.9l3,1.8c0,0-2.9,5.6-0.9,10.1c0,0-0.5-6.9,1.5-9.7l2.7,2.1
	c0,0-2.8,5.5-1.1,9.3c0,0,0.2-8.1,1.7-8.7c0,0,2.4,2.1,2.7,3c0,0-1.9,4-0.7,6.1c0,0,0.7-5.4,1.3-5.4c0,0,2.4,3.6,2.6,6
	c-0.1-2.3-0.8-4.5-2-6.4c1.4,0.3,2.6,0.9,3.6,1.9c0,0-0.4-2.5-4.2-2.7c0,0-2-2.7-2.5-2.9c0,0,3.9-0.3,6.2,0.7c0,0-2.1-2.4-6.9-1.3
	l-2.7-2.2c0,0,5.1-0.7,7.2,0.1c0,0-2.5-2.1-7.9-0.6l-2.9-1.8c0,0,4.3-0.9,6.9-0.6c0,0-2.7-1.5-7.7,0.1l-2.1-0.9c0,0,3.2-0.6,4.1-0.7
	c0.9-0.1,1-0.4,1-0.4c-2-0.3-4.1-0.1-5.9,0.7C663.7,601.4,659.2,599.7,659.3,599.4z"/>
<ellipse class="st31" cx="676.7" cy="621.8" rx="17.9" ry="3"/>
<circle class="st30" cx="223.6" cy="289.8" r="6"/>
<circle class="st30" cx="292.6" cy="308.9" r="6"/>
</svg>
