<?xml version="1.0" encoding="utf-8"?>
<!-- Generator: Adobe Illustrator 25.0.1, SVG Export Plug-In . SVG Version: 6.00 Build 0)  -->
<svg version="1.1" id="Layer_1" xmlns="http://www.w3.org/2000/svg" xmlns:xlink="http://www.w3.org/1999/xlink" x="0px" y="0px"
	 viewBox="0 0 716 763" style="enable-background:new 0 0 716 763;" xml:space="preserve">
<style type="text/css">
	.st0{opacity:0.1;fill:#48BA13;}
	.st1{opacity:0.1;}
	.st2{fill:#48BA13;}
	.st3{opacity:0.1;fill:#48BA13;enable-background:new    ;}
	.st4{fill:url(#SVGID_1_);}
	.st5{fill:#4C4981;}
	.st6{opacity:0.1;enable-background:new    ;}
	.st7{fill:#FFCC94;}
	.st8{fill:#1A1A1A;}
	.st9{fill:#FFC914;}
	.st10{fill:#333333;}
	.st11{fill:#3A3768;}
	.st12{fill:url(#SVGID_2_);}
	.st13{fill:#E6E8EC;}
	.st14{fill:none;stroke:#48BA13;stroke-width:3;stroke-miterlimit:10;}
</style>
<path class="st0" d="M716.5,767.3c0,0-470-47.6-513-121.6s43-219-125-245s-30-234,100-235s254-130,363-150s173.4-7.5,173.4-7.5
	L716.5,767.3z"/>
<g>
	<g class="st1">
		<circle class="st2" cx="308.5" cy="569.3" r="73.9"/>
	</g>
	<g>
		<ellipse class="st3" cx="548.4" cy="653.4" rx="60.1" ry="5.9"/>
		<path class="st2" d="M273.5,619.6c0,0,28.3-1.7,24.9,18.1c0,0,0.7,3.5-2.5,5.1c0,0,0-1.5-2.9-1c-1,0.2-2,0.2-3.1,0.2
			c-1.4-0.1-2.7-0.6-3.8-1.6l0,0c0,0-7.9-3.3-11-16.3c0,0-2.3-2.8-2.2-3.6l4.8,2c0,0-1.6,3.4-0.3,6.3c0,0,0.2-6.2,1.1-6
			c0.2,0,2.5,1.2,2.5,1.2s-2.8,6-0.7,10.3c0,0-0.8-7.4,1.6-9.9l3.4,2c0,0-3.3,6.2-1.1,11.2c0,0-0.6-7.7,1.8-10.8l3,2.3
			c0,0-3.1,6.1-1.2,10.3c0,0,0.2-9,1.9-9.7c0,0,2.7,2.3,3.1,3.3c0,0-2.1,4.4-0.8,6.8c0,0,0.8-6,1.5-6c0,0,2.6,4,2.9,6.7
			c0,0-0.1-4.1-2.3-7.1c0,0,2.6,0.4,4.1,2.1c0,0-0.4-2.8-4.7-3.1c0,0-2.2-3-2.8-3.2c0,0,4.3-0.4,6.9,0.8c0,0-2.3-2.7-7.7-1.5l-3-2.4
			c0,0,5.6-0.8,8,0.1c0,0-2.7-2.3-8.8-0.6l-3.3-2c0,0,4.8-1,7.7-0.7c0,0-3-1.6-8.6,0.1l-2.3-1c0,0,3.5-0.7,4.5-0.8
			c1-0.1,1.1-0.4,1.1-0.4c-2.2-0.4-4.5-0.1-6.6,0.7C278.3,621.7,273.4,619.9,273.5,619.6z"/>
		<ellipse class="st3" cx="292.9" cy="644.5" rx="20" ry="3.4"/>
		<path class="st2" d="M235.6,606.2c0,0,15.9-1,14.1,10.2c0.2,1.2-0.4,2.3-1.4,2.9c0,0,0-0.8-1.6-0.5c-0.6,0.1-1.2,0.1-1.7,0.1
			c-0.8,0-1.5-0.4-2.1-0.9l0,0c0,0-4.5-1.9-6.2-9.2c0,0-1.3-1.6-1.2-2l2.7,1.2c0,0-0.9,1.9-0.2,3.6c0,0,0.1-3.5,0.6-3.4
			c0.1,0,1.4,0.7,1.4,0.7s-1.6,3.4-0.4,5.9c0,0-0.5-4.2,0.9-5.6l1.9,1.1c0,0-1.8,3.5-0.6,6.3c0,0-0.3-4.4,1-6.1l1.7,1.3
			c0,0-1.8,3.4-0.7,5.8c0,0,0.1-5.1,1-5.5c0,0,1.5,1.3,1.7,1.9c0,0-1.2,2.5-0.5,3.8c0,0,0.5-3.4,0.8-3.4c0,0,1.5,2.2,1.6,3.8
			c-0.1-1.4-0.5-2.8-1.3-4c0.9,0.2,1.7,0.6,2.3,1.2c0,0-0.2-1.6-2.7-1.7c0,0-1.2-1.7-1.6-1.8c0,0,2.4-0.2,3.9,0.4
			c0,0-1.3-1.5-4.3-0.8L243,610c0,0,3.2-0.4,4.5,0c0,0-1.6-1.3-5-0.4l-1.8-1.1c1.4-0.3,2.9-0.4,4.3-0.4c0,0-1.7-0.9-4.9,0.1
			l-1.3-0.6c0,0,2-0.4,2.6-0.5s0.6-0.2,0.6-0.2c-1.3-0.2-2.5-0.1-3.7,0.4C238.3,607.5,235.6,606.4,235.6,606.2z"/>
		<ellipse class="st3" cx="246.6" cy="620.3" rx="11.3" ry="1.9"/>
		<path class="st2" d="M627.6,617c0,0,19.2-1.2,17,12.3c0.2,1.4-0.5,2.8-1.7,3.5c0,0,0-1-2-0.7c-0.7,0.1-1.4,0.2-2.1,0.1
			c-0.9-0.1-1.8-0.4-2.6-1.1l0,0c0,0-5.4-2.2-7.5-11.1c0,0-1.6-1.9-1.5-2.4l3.2,1.4c0,0-1.1,2.3-0.2,4.3c0,0,0.1-4.2,0.7-4.1
			c0.1,0,1.7,0.8,1.7,0.8s-1.9,4.1-0.5,7c0,0-0.5-5,1.1-6.7l2.3,1.3c0,0-2.2,4.2-0.7,7.7c0,0-0.4-5.3,1.2-7.3l2.1,1.6
			c0,0-2.1,4.2-0.8,7c0,0,0.2-6.1,1.3-6.6c0,0,1.8,1.6,2.1,2.3c0,0-1.4,3-0.5,4.6c0,0,0.5-4.1,1-4.1c0,0,1.8,2.7,2,4.6
			c-0.1-1.7-0.6-3.4-1.6-4.8c1,0.2,2,0.7,2.8,1.4c0,0-0.3-1.9-3.2-2.1c0,0-1.5-2.1-1.9-2.2c0,0,2.9-0.2,4.7,0.5c0,0-1.6-1.8-5.2-1
			l-2-1.7c0,0,3.8-0.5,5.5,0.1c0,0-1.9-1.6-6-0.4l-2.2-1.3c0,0,3.3-0.7,5.2-0.5c0,0-2.1-1.1-5.9,0.1l-1.6-0.7c0,0,2.4-0.5,3.1-0.5
			s0.7-0.3,0.7-0.3c-1.5-0.3-3.1-0.1-4.5,0.5C630.9,618.4,627.5,617.2,627.6,617z"/>
		<ellipse class="st3" cx="640.8" cy="633.9" rx="13.6" ry="2.3"/>
		
			<linearGradient id="SVGID_1_" gradientUnits="userSpaceOnUse" x1="636.8624" y1="75.8487" x2="636.8624" y2="350.229" gradientTransform="matrix(1 0 0 -1 -98.04 732.39)">
			<stop  offset="0" style="stop-color:#808080;stop-opacity:0.25"/>
			<stop  offset="0.54" style="stop-color:#808080;stop-opacity:0.12"/>
			<stop  offset="1" style="stop-color:#808080;stop-opacity:0.1"/>
		</linearGradient>
		<path class="st4" d="M608.4,474.8c-0.4-2.1-0.6-4.1-0.6-6.2c0-2.5-3.4-4.7-3.4-4.7s-2.1-4.9-3.5-5.6c-1.4-0.7-5.7-7.1-5.7-7.1
			c0-1.3-0.5-2.5-1.3-3.4c-1.3-1.7-2.5-3.5-3.6-5.4l0,0c-0.6-0.7-0.3-1.2-1.2-5.4c0-0.2-0.1-0.4-0.2-0.6c0-0.1-0.1-0.2-0.1-0.3
			c1.9-1.9,2.5-4.7,1.7-7.3c-0.2-0.5-0.4-0.9-0.8-1.3c-1-0.8-2.6-0.5-3.6-1.2l1.1-4.8c0.3-1.2,0.4-2.7-0.6-3.3
			c-0.4-0.2-0.8-0.3-1.2-0.4c-1.8-0.6-2.8-2.4-3.2-4.2c-0.4-1.7-0.6-3.5-0.4-5.3c0.2-1.7,0.7-3.3,0.9-5.1c0.3-3.2-0.4-6.3-2.1-9
			c-0.7-1.1-1.7-2.1-2.8-2.7c-1.1-0.5-2.3-0.6-3.4-1.2c-2.2-1.4-2.1-4.7-3.8-6.6c-1.7-1.9-4.8-1.9-7.4-1.2c-2.5,0.6-5.1,1.8-7.7,1.5
			c-1.7-0.2-3.2-0.9-4.9-1.1c-0.5,0-1,0-1.4,0.1v-0.1c-1.2,0.2-2.4,0.9-2.7,2.1c-0.1,0.3-0.1,0.6-0.1,0.9c0,0.7,0.2,1.4,0.2,2.1
			c0,0.5-0.1,1-0.5,1.4c-0.3,0.4-0.8,0.5-1.2,0.9c-0.3,0.3-0.4,0.7-0.4,1.1c0,1,1.3,2,2.2,2.4h0c-0.2,0.2-0.5,0.5-0.7,0.7
			c-2.5,2.8-3.9,6.5-3.9,10.2c0,6.2,3.8,11.8,9.5,14.3l-0.1,0.4c-0.2,0.8-0.5,1.5-0.9,2.2c-1.2-0.4-2.6-0.3-3.7,0.4
			c-1.7,1.2-4.9,1.1-5.8,0.9c-0.9-0.2-10-1.4-10.7-1.1c-0.7,0.3-2.2-1-3.1,0.7s-1.4,2.7-2.3,3.1s-2.6,1.8-2.4,2.1
			c0.2,0.3-2.4,2-2.4,2s-2.3,2.3-3.6,2.7c-1.3,0.3-4.1,2.1-4.1,2.1l-3.2,2.5c0,0-2.4,0.4-1.7-1.3c0.7-1.7-1.3-3.7-1.3-3.7
			s-4.1-8.3-4.1-10c0-1.7-3.3-9-3.3-9l-0.4,0l-0.2-0.5c-0.6-1.7-1.4-3.8-2-5.1c-1.2-2.4-1.9-2.6-1.9-2.6s-14.1-10.6-23.3-7.4
			c-9.2,3.2,16.7,12.8,19,13.8c0.8,0.4,1.4,1.5,1.8,2.8c-2.1,1-3.8,2.6-5,4.5c0,0,5.6,12.4,5.7,15.5s3.9,11.7,3.9,11.7
			s1.4,6.4,8.9,6c0,0,10.3,1.9,12.6,0c2.3-1.9,4.3-3.4,5.4-3.6c0.8-0.3,1.5-0.8,2-1.4c0,0-3.4,21.5-5.1,23.4s-16.5,26-11.2,30.4
			c4.2,3.3,8.7,6.2,13.3,8.8c0.5,0.2,1.8-2,3.7-3.6c0,0.4,0,0.8,0,1.2c0,8.6,1.2,21.7,2.7,24.6c2.3,4.3,1.4,12.6,1.4,12.6
			c1.2,0.6,2.6,0.9,3.9,0.9c0.1,0.3,0.2,0.6,0.2,0.9c1.3,4.8,3.4,12.3,4.4,14.3c1.6,3,2.8,12.6,2.8,12.6s0.9,9.4,0.6,10.7
			c-0.1,0.5,0.5,4.4,1.4,9.4l0,0c-0.6,6.7-1.7,19.7-1.9,24.4l0,0c0,0.1,0,0.2,0,0.3v0.1c0,0.1,0,0.1,0,0.2c0,0.1,0,0.2,0,0.3l0,0
			c0,0.3,0,0.6,0,0.9c0.1,0.4,0,0.9-0.1,1.3c-0.4,1.3-0.9,2.6-1.6,3.8c-0.3,0.6-0.5,1.2-0.7,1.8c-0.6,0.3-1.3,0.9-1.7,2.4
			c-0.7,2.8-1.8,10.5-1.8,10.5s-0.4,4.7-1.3,5.8s-1.8,7.8,4.4,8.7s8.9-3.3,8.9-3.3l-0.2-18.8v0c0.1-0.2,0.2-0.3,0.3-0.5v0
			c0-0.1,0.1-0.2,0.1-0.3l0.1-0.1l0.1-0.2c0,0,0-0.1,0-0.1c0.6-1.8,0.8-3.7,0.5-5.6v-0.1V624c0,0,0-0.1,0-0.1v-0.3c0,0,0-0.1,0-0.1
			c0-0.1,0-0.3,0-0.4c0-0.2,0,0,0-0.1l0-0.2v-0.1c0-0.1,0-0.2,0-0.2c0,0,0,0,0-0.1c0.1-0.3,0.1-0.6,0.2-0.8v-0.1l0.1-0.3l0,0
			c0.1-0.3,0.2-0.6,0.3-0.9v-0.1c0-0.1,0.1-0.2,0.1-0.3v0c0.1-0.3,0.2-0.6,0.3-0.8l0-0.1l0.1-0.2l0-0.1l0.2-0.5l0,0l1.7,5.3
			c0,0,0.9,3.9,0.4,4.9c-0.5,0.9,0.6,4.8,1.3,4.9l-0.7,4.9c-0.4,2.7-0.6,5.4-0.7,8.1c0,0.3-0.1,0.6-0.1,0.8
			c-0.5,2.5,0.7,6.4,0.7,6.4c5.7,6.8,12.6,0.5,12.6,0.5s0.8-3.6,0-4.3c-0.8-0.7-0.4-3.3-0.4-3.3s0.4-6.4,0.4-11
			c0.1-4.7-3.8-8.8-3.8-8.8l-0.2,0.2c-0.7-1.8-1.5-4-1.3-4.9c0.3-1.7-0.8-19.1-0.8-19.1c0.4-4.7,0.5-9.4,0.3-14.1l0,0
			c0.1-0.8,0.2-1.6,0.3-2.3c0.4-3.7,0.8-7,0.9-8.6l0,0v-0.2c0-0.5,0.1-0.8,0-0.9c0-0.6,0-1.3,0.1-2c0.1-2,0.5-4.3,0.5-4.3l1.5-9.3
			c0,0,1.2-4.5,2.8-7l0.2-0.3l0,0c0.1-0.1,0.1-0.2,0.2-0.4l0-0.1c0.1-0.1,0.1-0.3,0.2-0.4l0-0.1c0.2-0.5,0.5-1,0.7-1.6
			c0,0,0-0.1,0.1-0.1l0.2-0.4c0-0.1,0-0.1,0.1-0.2c0-0.1,0.1-0.3,0.2-0.4c0-0.1,0.1-0.1,0.1-0.2c0.1-0.2,0.2-0.4,0.2-0.5l0.1-0.3
			c0.1-0.1,0.1-0.3,0.2-0.4l0.1-0.4c0-0.1,0.1-0.2,0.1-0.3l0.2-0.4c0-0.1,0.1-0.1,0.1-0.2c0.4-1,0.8-2.1,1.2-3l0,0
			c0.1-0.3,0.2-0.6,0.3-0.8c3.7,0.2,6.3,0.4,6.3,0.4s1.2-8.4,0.8-13.9c-0.2-3.8,0.5-8.5,0.9-11.1c0.1-0.3,0.1-0.5,0.1-0.8l0.1,0.1
			c1.8,1.4,3.1-3.3,3.1-3.3s-0.5-4.4-1.2-9.8l-0.1-0.5c1,0.2,2.1,0.4,3.2,0.5c0,0,0.6-0.1,1.4-0.2c2.2,1.3,4.6,2.3,7,3.2l3.9-7.1
			c0.7-1.5,1.6-2.9,2.5-4.2c1.2-1.4,5.3-6,5.2-6.9c-0.1-0.9,1.4-5.8,2.8-8C607.9,479.6,608.5,475.2,608.4,474.8z M592.3,480.3
			c-1.5,0.6-3,4.2-3.1,5.3c-0.1,1.1-1.7,5.8-3.3,6.4c-1.5,0.5-4.5,3.2-4.9,3.7c-0.5,0-1,0.1-1.6,0.2c-0.6-4.5-1.3-8.3-1.7-9
			c-1.2-2.2,1.3-9,1.3-9s0.2-7,1.8-8.6c1.5-1.7,1.2-5.8,1.2-5.8s0.4-1.7,0.5-2.5c0.1-0.8,2.2,0,2.2,0l0,0c0,0,3.9,2.1,4.5,5.4
			c0.6,3.2,4.9,8.8,4.9,8.8s-0.7,1.9,0,2.9C594.6,478.9,593.8,479.6,592.3,480.3z"/>
		<path class="st5" d="M487.2,418.9c2.4-4,7.1-6.2,11.7-5.5v8.4h-5.1l-4-1L487.2,418.9z"/>
		<path class="st6" d="M487.2,418.9c2.4-4,7.1-6.2,11.7-5.5v8.4h-5.1l-4-1L487.2,418.9z"/>
		<path class="st7" d="M499.3,415.6L493,420c0,0-0.1-0.9-0.2-2.1c-0.3-2.3-1-5.7-2.5-6.3c-2.3-1-27.8-10.6-18.7-13.8
			s22.9,7.3,22.9,7.3s0.7,0.2,1.9,2.6c0.6,1.2,1.4,3.4,2,5.1C498.9,414.4,499.3,415.6,499.3,415.6z"/>
		<polygon class="st5" points="549.1,422.4 549.8,422 551.8,424.3 550.2,427.8 547.4,426.7 548,423.9 		"/>
		<path class="st8" d="M539.6,625.8c0,0-1.8-0.2-2.5,2.6s-1.8,10.5-1.8,10.5s-0.4,4.7-1.3,5.8c-0.9,1.1-1.7,7.8,4.4,8.7
			s8.7-3.3,8.7-3.3l-0.2-18.8L539.6,625.8z"/>
		<path class="st8" d="M560.9,626.6c0,0,3.8,4.1,3.8,8.7s-0.4,11-0.4,11s-0.4,2.6,0.4,3.3s0,4.3,0,4.3s-6.7,6.2-12.4-0.5
			c0,0-1.1-3.9-0.6-6.4c0.5-2.5,1.7-13.7,1.7-13.7L560.9,626.6z"/>
		<path class="st7" d="M570.4,541c0,0-3.9,10.8-5.5,13.3c-1.7,2.5-2.8,7-2.8,7l-1.5,9.2c-0.3,2.1-0.5,4.1-0.5,6.2
			c0.1,2.1-3.7,32.4-3.7,32.4l-6,7.7c0,0-2.6,5.4-2.2,7.6s-0.3,5.8-1.2,6.9c0,0-0.1,7-0.4,8.6c-0.2,1.6,0.8,6,0,6.8
			s-11.3,0.4-11.6-0.9c-0.3-1.3,1.3-7.5,1.3-7.5l0.9-6c0,0,1.9-3.3,1.4-4.4c-0.4-1.1,0.8-3.6,0.9-3.8c0.1-0.2,2-3.7,1.7-5.1
			c-0.4-1.4,2.3-30.3,2.3-30.3l7.4-51.8L570.4,541z"/>
		<path class="st6" d="M570.4,541c0,0-0.6,1.6-1.4,3.8c-1.3,3.4-3.1,8-4.1,9.6c-1.6,2.5-2.8,7-2.8,7l-1.5,9.2
			c-0.3,2.1-0.5,4.1-0.5,6.2c0,0.8-0.6,6-1.3,12.1c-1.1,9.2-2.5,20.3-2.5,20.3l-6,7.7c0,0-0.3,0.6-0.7,1.5c-0.8,1.8-1.8,4.6-1.5,6.1
			c0.4,2.2-0.3,5.8-1.2,6.9c0,0-0.1,7-0.4,8.6c-0.2,1.6,0.8,6,0,6.8s-11.3,0.4-11.6-0.9c-0.3-1.3,1.3-7.5,1.3-7.5l0.9-6
			c0,0,1.9-3.3,1.4-4.4c-0.4-1.1,0.8-3.6,0.9-3.8s2-3.7,1.7-5.1c-0.3-1,1.2-18,1.8-26c0.2-2.5,0.4-4.2,0.4-4.2l6.3-44.5l0.5-3.6
			l0.5-3.6L570.4,541z"/>
		<path class="st7" d="M563.9,648.7c0.1,0.8-10.1,1.9-11.6,1.1c-1.5-0.9,0-11.5,0-11.5l0.7-4.9c-0.7-0.1-1.8-3.9-1.3-4.9
			c0.5-0.9-0.4-4.9-0.4-4.9l-1.7-5.3l-1-3.2c-1.7-3.7-4.1-14.2-5.6-22.1c-0.9-4.9-1.6-8.8-1.4-9.3c0.4-1.3-0.6-10.7-0.6-10.7
			s-1.2-9.5-2.7-12.5c-1-2-3.1-9.5-4.4-14.3c-0.6-2.5-1.1-4.3-1.1-4.3s10.8-0.9,17.4-1.2c3-0.1,5.1-0.2,4.9,0.1s-0.3,1.6-0.3,3.5
			c0,4.9,0.7,13.6,1.4,15.9c1,3.2,2,12.9,1.6,13.8c-0.4,0.9-0.3,7.2-0.3,7.2c0.7,2.5,1.2,5.1,1.3,7.8c0.2,4.7,0.1,9.3-0.2,14
			c0,0,1.1,17.4,0.8,19s2.3,6.8,2.3,7.8c0,1,0.7,7.8,0.7,7.8S563.9,647.9,563.9,648.7z"/>
		<path class="st7" d="M569.6,439.5l-1.2,1.3l-0.8,0.9l-4.7,5l-12.1,1.4l-6.4-1.7l-1.6-0.4c0,0,0-3.2,0.3-7.1c0.4-5,1.4-11,3.7-12.7
			c1.2-0.9,2.1-2.1,2.7-3.4c0.5-0.9,0.9-1.9,1.2-2.9c0-0.1,0.1-0.3,0.1-0.4c0.5-1.7,0.9-3.5,1.1-5.3c0,0,1.5-0.9,3.7-1.9
			c5.6-2.6,15.3-6.2,11.9,1.9c-0.5,1.2-0.9,2.4-1.3,3.6c-0.1,0.2-0.1,0.4-0.1,0.5c-1.1,4.5-0.4,7.2,0.5,8.7l0,0
			c0.1,0.3,0.3,0.5,0.5,0.7c0.2,0.3,0.5,0.6,0.8,0.8l1.4,8.8l0.1,0.7L569.6,439.5z"/>
		<path class="st6" d="M567.5,414.6C566.9,416.1,567.8,413.3,567.5,414.6c-2.6,1.8-8.6,7-11.9,7c-2.3,0-3-0.4-4.9-1.3
			c0.6-1.9,1-3.8,1.3-5.7C551.9,414.6,572.2,403.4,567.5,414.6z"/>
		<path class="st7" d="M572.7,405.2c0,8-6,14.7-14,15.5c-0.5,0.1-1.1,0.1-1.6,0.1c-8.6,0-15.6-7-15.6-15.6c0-8.6,7-15.6,15.6-15.6
			C565.7,389.6,572.7,396.5,572.7,405.2L572.7,405.2z"/>
		<path class="st6" d="M574.9,474.4l-2.2,5.8c0,0-1.8,0.1-4.6,0.2c-9.5,0.3-30.5,0.7-31.5-1.8c-0.2-0.6-0.3-1.3-0.3-1.9
			c-0.1-3.7,1.6-9.5,1.6-9.5s1-11.5,1-12s-0.9-8.5-0.9-8.5l1.7-6.4l4.8-3.4c0,0,2.1,3.3,3.4,3.6c1.3,0.3,3,1.9,3,1.9
			s4.2,2.6,5.6,1.1c1.4-1.4,12-7.7,12-7.7l5.6,6.2L574.9,474.4z"/>
		<path class="st9" d="M574.9,475.3l-2.2,5.8c0,0-1.8,0.1-4.6,0.2h-0.3c-1.2,0-2.6,0.1-4.1,0.1c-7.6,0.2-18,0.2-23.5-0.6
			c-2-0.3-3.4-0.7-3.6-1.3c-0.1-0.3-0.2-0.7-0.3-1.1c0-0.3-0.1-0.6-0.1-0.9c-0.1-3.7,1.6-9.5,1.6-9.5s1-11.5,1-12
			c0-0.5-0.9-8.5-0.9-8.5l1.7-6.4l3.3-2.3l1.5-1.1c0.5,0.8,1.1,1.5,1.6,2.2c0.5,0.6,1.1,1.1,1.8,1.4c1.3,0.3,3,1.9,3,1.9
			s4.2,2.6,5.6,1.1c1-1.1,7.5-5,10.5-6.8c0.9-0.6,1.5-0.9,1.5-0.9l0.7,0.8l4.8,5.3L574.9,475.3z"/>
		<path class="st6" d="M499.3,415.6L493,420c0,0-0.1-0.9-0.2-2.1c3.1-1.3,5-4.2,5.5-5.1C498.9,414.4,499.3,415.6,499.3,415.6z"/>
		<path class="st10" d="M521.2,430.5l-1.4-0.4c0,0-2.2,2.3-3.5,2.7c-1.3,0.3-4,2.1-4,2.1l-3.2,2.5c0,0-2.3,0.4-1.6-1.3
			c0.7-1.7-1.3-3.7-1.3-3.7s-4-8.2-4-10s-3.3-8.9-3.3-8.9s-4.2,8.1-11.7,5.5c0,0,5.5,12.4,5.7,15.5s3.8,11.7,3.8,11.7s1.4,6.4,8.7,6
			c0,0,10.2,1.9,12.4,0s4.2-3.4,5.3-3.6c1-0.2,2-1.4,2-1.4v-8.5L521.2,430.5z"/>
		<path class="st6" d="M508.4,438.6c0,0,1.8,6.7,0.6,7.4L508.4,438.6z"/>
		<path class="st6" d="M568,481.2c-9.5,0.3-30.5,0.7-31.5-1.8c-0.2-0.6-0.3-1.3-0.3-1.9l31.1,1.6L568,481.2z"/>
		<path class="st6" d="M570.4,541c0,0-0.6,1.6-1.4,3.8c-4-0.2-9.2-0.5-14.2-0.5c-1.8,0-3.5,0-5.1,0.1c-3.5,0.1-6.4,0.4-8.3,0.9
			c-2.4,0.7-4.9,1.1-7.4,1c-0.6-2.5-1.1-4.3-1.1-4.3s10.8-0.9,17.4-1.2l0.5-3.6L570.4,541z"/>
		<path class="st8" d="M578.7,514.8l-1.2,2.6c0,0-0.2,0.8-0.4,2c-0.5,2.6-1.2,7.4-0.9,11.1c0.4,5.5-0.8,13.9-0.8,13.9
			s-26.4-2.2-34.1,0s-11.5,0-11.5,0s0.9-8.3-1.4-12.6c-1.6-2.9-2.7-16-2.7-24.6c0-4,0.2-7,0.7-7.6c1.6-1.9,8.3-21.3,8.3-21.3
			l1.5,0.1l4.1,0.2l23.3,1.2l3.7,0.2l0.4,1.2L578.7,514.8z"/>
		<path class="st5" d="M590.3,506.2l0.2,2.3c0,0-11.5-3.8-11-8.4c0.6-4.6,0-4.1,0-4.1l9.3,0.8L590.3,506.2z"/>
		<path class="st6" d="M590.3,506.2l0.2,2.3c0,0-11.5-3.8-11-8.4c0.6-4.6,0-4.1,0-4.1l9.3,0.8L590.3,506.2z"/>
		<path class="st6" d="M516.1,440.4c1.2,1,2.6,1.7,4.1,2.1c-0.4-0.1-0.8-0.3-1.2-0.6c-0.8-0.6-1.6-1.2-2.4-1.8
			c-0.6-0.5-1.4-1.3-2.2-1.5C514.9,439.2,515.5,439.9,516.1,440.4z"/>
		<path class="st6" d="M516.3,443.4c0.4,0.4,0.7,0.9,0.9,1.4c0.4,1.5,0.3,3-0.1,4.4l-1.9-4.5c-0.3-0.8-0.6-1.5-1-2.2
			c-0.2-0.3-1.2-1.6-1.1-1.9C513.5,439.9,516,443,516.3,443.4z"/>
		<path class="st6" d="M567.9,468.1c1.3-0.2,2.4-0.7,3.4-1.6c-1.9,0.2-3.7,1-5.6,1.4c-1.7,0.4-3.6,0.2-5.2-0.5
			C562.7,468.5,565.6,468.6,567.9,468.1z"/>
		<path class="st6" d="M562.5,455c-0.3,0.1-0.7,0-1-0.2c-1.4-0.8-2.8-1.7-4.2-2.6c-1.4-0.9-3-1.8-4.1-2.9
			C556.1,451.9,558.7,454.1,562.5,455z"/>
		<path class="st6" d="M566.5,470.2c0.8,0,1.5,0,2.2-0.2c0.7-0.2,1.4-0.6,1.8-1.2c-0.3-0.1-0.5,0-0.8,0.1c-2.3,1-4.8,1.3-7.2,0.9
			C563.8,470.3,565.3,470.2,566.5,470.2z"/>
		<path class="st6" d="M553,503.5c-1.5,0.4-3,0.7-4.6,0.9c-1.2,0.1-2.4,0-3.6-0.1l-5.9-0.4l-2.9-0.2c-0.3,0-1.8,0-1.1-0.7
			c0.4-0.3,2.3-0.1,2.8-0.1c1,0,1.9,0,2.9-0.1c1.9,0,3.9,0,5.8,0.1C548.7,503.1,550.8,503.2,553,503.5z"/>
		<path class="st6" d="M546.2,506.4c-1,0-2.3,0.6-3.3,0.7c-1.1,0.1-2.3,0.2-3.5,0.1c-2.3-0.1-4.5-0.5-6.7-1.4
			C537.2,506,541.7,506.2,546.2,506.4z"/>
		<path class="st6" d="M533.6,509.4c0.4,0.1,0.9,0.2,1.3,0.4c2.5,0.7,5.1,0.1,7.6-0.5c-0.6,0.9-1.8,1.3-2.9,1.6
			c-1.8,0.5-3.8,0.5-5.6,0.2c-0.6-0.1-2.1-0.3-2.3-0.9C531.2,509.2,533.1,509.3,533.6,509.4z"/>
		<path class="st6" d="M547.5,514.1c0.7,0.2,1.5,0.3,2.2,0.6c2.8,0.7,5.7-0.3,8.5-0.9c3.4-0.8,6.8-1.1,10.2-0.9
			c-0.6,0-1.6,0.5-2.2,0.7c-0.8,0.2-1.6,0.5-2.4,0.7c-1.6,0.4-3.2,0.7-4.8,0.9c-3.3,0.5-6.5,0.6-9.8,0.4c-1.5-0.1-4.1,0.1-5.4-0.7
			C544.9,514.2,546.2,513.9,547.5,514.1z"/>
		<path class="st6" d="M548.5,425.7c0,0,0.1,6.6-0.9,9.6c-0.3,0.9-0.9,2.7-1.4,4.6c-0.6,2.1-1.3,4.6-1.8,6.4s-0.9,3.2-0.9,3.2
			s-2.4,19.7-3,29.1c0,0.2,0,0.3,0,0.5c0,0.5-0.1,1.1-0.2,1.6c-1.4,9.3-9.4,23.7-12.1,24.8c-0.8,0.4-1.6,0.9-2.3,1.6
			c0-4,0.2-7,0.7-7.6c1.6-1.9,8.3-21.3,8.3-21.3l1.5,0.1c0-0.3-0.1-0.6-0.1-0.9c-0.1-3.7,1.6-9.5,1.6-9.5s1-11.5,1-12
			c0-0.5-0.9-8.5-0.9-8.5l1.7-6.4l3.3-2.3c0.4-5,1.4-11,3.7-12.7c1.2-0.9,2.1-2.1,2.7-3.4c0.5,0.1-0.4-0.3-0.4-0.3L548.5,425.7z"/>
		<path class="st10" d="M549.8,422c-1.2-0.4-2.5-0.3-3.6,0.4c-1.7,1.2-4.9,1.1-5.7,0.9c-0.9-0.2-9.8-1.4-10.5-1.1s-2.1-1-3.1,0.7
			s-1.4,2.6-2.3,3.1c-0.9,0.4-2.6,1.8-2.3,2.1s-2.3,2-2.3,2l5.2,17c0,0-3.4,21.5-5,23.3c-1.6,1.9-16.3,26-11,30.3
			c4.1,3.3,8.5,6.2,13.1,8.8c0.6,0.3,2.6-3.6,5.5-4.8c2.9-1.2,11.7-17.3,12.3-26.5c0.6-9.2,3.1-29.6,3.1-29.6s3.1-11.2,4.2-14.2
			c1.1-3,0.9-9.6,0.9-9.6L549.8,422z"/>
		<path class="st6" d="M578.7,514.8l-1.2,2.6c0,0-0.2,0.8-0.4,2c-0.2,0-0.4-0.1-0.6-0.3c-1.8-1.4-12.3-12.2-12.8-21.8
			c-0.4-7.1-0.2-13.2-0.1-15.9c0-0.9,0.1-1.4,0.1-1.5l0,0c0,0,8.2-9.9,7.2-13.4c-0.9-3.5-3.1-22.3-3.1-22.3l-0.3-2.5l-0.5-4.2
			l-1.3-10.1l1.3,0.3c0.2,0.3,0.5,0.6,0.8,0.8l1.4,8.8l4.8,5.3l0.8,32.4l-2.2,5.8c0,0-1.8,0.1-4.6,0.2h-0.3L578.7,514.8z"/>
		<path class="st10" d="M583.3,461.2c0,0-2-0.8-2.1,0c-0.1,0.8-0.5,2.5-0.5,2.5s0.4,4.2-1.2,5.8c-1.5,1.6-1.8,8.6-1.8,8.6
			s-2.4,6.9-1.3,9c0.4,0.8,1.1,4.7,1.7,9.4c0.4,2.9,0.8,6.1,1.2,9.1c0.7,5.3,1.1,9.8,1.1,9.8s-1.3,4.7-3.1,3.3
			c-1.8-1.4-12.3-12.2-12.8-21.8c-0.4-6.7-0.2-12.6-0.1-15.5c0-1.2,0.1-1.9,0.1-1.9s8.2-9.9,7.2-13.4c-0.9-3.5-3.1-22.3-3.1-22.3
			l-0.4-2.9l-0.4-3.1l-0.1-0.7l-1.3-10l0,0c0.2,0.1,8.3,1.9,9.3,2.9c1.1,1.1,7.6,2.6,7.6,2.6c2,0.5,3.6,2.1,4.1,4.2
			c0.1,0.2,0.1,0.4,0.2,0.6c0.9,4.2,0.6,4.7,1.2,5.4C589.4,443.5,583.3,461.2,583.3,461.2z"/>
		<path class="st6" d="M579.3,505.6c-2.9-0.6-7.3-1.9-7.2-4.9c0.1-2.8,3.4-3.8,6-4.2C578.6,499.4,579,502.6,579.3,505.6z"/>
		<path class="st7" d="M588.4,504.1c-0.1,0.3-0.6,0.5-1.3,0.7c-1.6,0.4-3.2,0.6-4.8,0.8c0,0-10-0.8-9.8-5.3c0.1-3.2,4.6-4.1,7.1-4.3
			c0.6-0.1,1.1-0.1,1.7-0.1C581.4,495.9,588.8,503.2,588.4,504.1z"/>
		<path class="st6" d="M588.4,504.1c-0.1,0.3-0.6,0.5-1.3,0.7c-2.6-3.5-6.2-7.9-8-8.3l0.5-0.5c0.6-0.1,1.1-0.1,1.7-0.1
			C581.4,495.9,588.8,503.2,588.4,504.1z"/>
		<path class="st10" d="M585.9,442.3l2.9,0.4c1.1,1.9,2.2,3.7,3.5,5.4c0.8,1,1.2,2.2,1.3,3.4c0,0,4.3,6.4,5.7,7.1
			c1.4,0.7,3.4,5.6,3.4,5.6s3.4,2.2,3.4,4.7c0.1,2.1,0.3,4.2,0.6,6.2c0.1,0.4-0.5,4.8-1.9,7s-2.9,7.1-2.8,8c0.1,0.9-4,5.4-5.2,6.9
			c-1,1.3-1.8,2.8-2.5,4.2l-3.8,7.2c0,0-8-11.8-11-12.5c0,0,3.3-3.2,4.9-3.7c1.6-0.6,3.2-5.3,3.3-6.4c0.1-1.1,1.5-4.7,3-5.3
			c1.5-0.6,2.3-1.3,1.7-2.3c-0.6-1,0-2.9,0-2.9s-4.2-5.6-4.8-8.8c-0.6-3.2-4.4-5.4-4.4-5.4l-2.2-5.4L585.9,442.3z"/>
		<path class="st6" d="M596.6,469c1.6-1.4,3.7-2.1,5.8-2.2c-1.4,0.2-2.8,0.5-3.8,1.5c-0.4,0.4-0.7,0.9-1,1.3c-0.3,0.5-3.1,4-3.5,3.4
			C593.3,472.3,596,469.5,596.6,469z"/>
		<path class="st6" d="M590.1,465.6c0.9-0.1,1.7-0.6,2-1.4c0.3-0.8,0.6-1.7,0.6-2.5c0.2-1.5,0.5-2.9,0.9-4.4
			c0.2-0.6,0.2-1.2-0.1-1.8c-0.2-0.5-0.4-0.9-0.6-1.3c-0.5,0.6-0.7,2-0.9,2.7c-0.3,1-0.5,2-0.7,2.9
			C591.1,460.4,590.1,465.6,590.1,465.6z"/>
		<path class="st6" d="M587.5,436.7c-0.3,0.4-0.6,0.7-1,1c-1.2,0.9-2.7,1.7-2.9,3.2c0,0.5,0,1-0.2,1.4c-0.4,0.6-1.3,0.6-2,0.5
			c-0.6-0.1-1.2-0.3-1.7-0.6c-0.8-0.7-0.8-1.8-1.4-2.7c-0.7-0.9-1.8-1.3-2.9-1.3c-1.1,0-2.2,0.2-3.3,0.3c-0.7,0-1.4,0-2.1-0.1
			c-0.2,0-0.5-0.1-0.7-0.1c-0.5-0.1-1-0.3-1.4-0.5c-0.2-0.1-0.5-0.2-0.7-0.3c-0.7-0.4-1.4-0.8-2-1.4c-1.1-1-2-2.3-1.9-3.8
			c0.1-0.9,0.5-1.7,0.6-2.6c0.4-2.5-1.2-4.9-3.1-6.7c-0.7-0.7-1.5-1.4-2.2-2.1c-1.1-1-2-2.3-2.6-3.7c-0.5-1.5-0.6-3.1-0.5-4.7
			c0.2-1.6,0.2-3.2,0.1-4.8c-0.5-5.7-5.4-10.1-10.3-12.4l-0.2-0.1c5.7-6.5,15.5-7.2,22-1.5c6.5,5.7,7.2,15.5,1.5,22
			c-0.8,0.9-1.6,1.7-2.5,2.3c-0.1,0.2-0.1,0.4-0.1,0.5c-1.1,4.5-0.4,7.2,0.5,8.7l0,0c0.2,0.1,8.3,1.9,9.3,2.9
			c1.1,1.1,7.6,2.6,7.6,2.6C585.5,433.1,587,434.7,587.5,436.7z"/>
		<path class="st8" d="M544.2,390.8c0.3-0.4,0.8-0.6,1.1-0.9c1-1.1,0-2.9,0.4-4.4c0.4-1.6,2.4-2.3,4-2.1s3.2,0.9,4.8,1.1
			c2.6,0.3,5-0.8,7.5-1.5s5.5-0.7,7.2,1.2s1.6,5.2,3.7,6.6c1,0.6,2.2,0.7,3.3,1.2c1.2,0.6,2.1,1.5,2.8,2.7c1.7,2.7,2.4,5.8,2.1,9
			c-0.2,1.7-0.7,3.3-0.9,5c-0.2,1.8-0.1,3.5,0.4,5.3c0.5,1.8,1.4,3.7,3.2,4.2c0.4,0.1,0.8,0.2,1.2,0.4c1,0.6,0.9,2.1,0.6,3.3l-1,4.8
			c1,0.8,2.6,0.4,3.5,1.2c0.4,0.3,0.7,0.8,0.8,1.3c1,2.8,0.1,5.8-2.1,7.7c-1.2,0.9-2.7,1.7-2.9,3.2c0,0.5,0,1-0.2,1.4
			c-0.4,0.6-1.3,0.6-2,0.5c-0.6-0.1-1.2-0.3-1.7-0.6c-0.8-0.7-0.8-1.8-1.4-2.7c-0.7-0.9-1.8-1.3-2.9-1.3c-1.1,0-2.2,0.2-3.3,0.3
			c-2.5,0.1-5-0.8-6.9-2.5c-1.1-1-2-2.3-1.9-3.8c0.1-0.9,0.5-1.7,0.6-2.6c0.4-2.5-1.2-4.9-3.1-6.7s-4-3.5-4.8-5.9
			c-1.1-3,0-6.3-0.3-9.5c-0.5-5.7-5.4-10.1-10.3-12.4C544.8,393.6,542.9,392.2,544.2,390.8z"/>
		<path class="st6" d="M582.5,440c-0.8-0.7-0.8-1.8-1.4-2.7c-0.7-0.9-1.8-1.3-2.9-1.3c-1.1,0-2.2,0.2-3.3,0.3
			c-2.5,0.1-5-0.8-6.9-2.5c-1.1-1-2-2.3-1.9-3.8c0.1-0.9,0.5-1.7,0.6-2.6c0.4-2.5-1.2-4.9-3.1-6.7c-1.8-1.8-4-3.5-4.8-5.9
			c-1.1-3,0-6.3-0.3-9.5c-0.5-5.7-5.4-10.1-10.3-12.4c-1.1-0.6-3-2-1.7-3.4c0.3-0.4,0.8-0.6,1.1-0.9c1-1.1,0-2.9,0.4-4.3
			c0.1-0.3,0.2-0.6,0.4-0.8c-1.2,0.2-2.3,0.9-2.6,2.1c-0.4,1.5,0.6,3.2-0.4,4.4c-0.3,0.4-0.8,0.5-1.1,0.9c-1.3,1.4,0.6,2.9,1.7,3.4
			c4.9,2.4,9.7,6.7,10.3,12.4c0.3,3.2-0.8,6.5,0.3,9.5c0.9,2.4,3,4.1,4.8,5.9c1.8,1.8,3.5,4.2,3.1,6.7c-0.2,0.9-0.4,1.7-0.6,2.6
			c-0.1,1.5,0.8,2.8,1.9,3.8c1.9,1.7,4.4,2.6,6.9,2.5c1.1-0.1,2.2-0.3,3.3-0.3c1.1,0,2.2,0.4,2.9,1.3c0.6,0.8,0.6,2,1.4,2.7
			c0.5,0.4,1.1,0.6,1.7,0.6c0.7,0.1,1.7,0.2,2-0.5c0.1-0.3,0.2-0.6,0.2-0.8C583.5,440.5,582.9,440.3,582.5,440z"/>
		<path class="st3" d="M295.2,393.3h-10.4V383h10.4V393.3z M295,377.8h-10.1c0-16,15.2-15.1,15.2-25.2c0-5.6-4.6-10.1-10.1-10
			c0,0,0,0,0,0c-5.6,0.1-10,4.6-10.1,10.2h-10.1c0.1-11.2,9.3-20.2,20.5-20c10.9,0.1,19.8,8.9,20,19.9
			C310.2,365.2,295,366.7,295,377.8L295,377.8z"/>
		<path class="st3" d="M374.3,465h-10.4v-10.3h10.4V465z M374.1,449.4H364c0-16,15.2-15.1,15.2-25.2c0-5.6-4.6-10.1-10.1-10
			c0,0,0,0,0,0c-5.6,0.1-10.1,4.6-10.2,10.2h-10.1c0.1-11.2,9.3-20.2,20.5-20c10.9,0.1,19.8,8.9,20,19.9
			C389.3,436.9,374.1,438.4,374.1,449.4z"/>
		<path class="st3" d="M364.4,547.1h-7.6v-7.4h7.6V547.1z M364.3,535.8h-7.3c0-11.6,11-10.9,11-18.2c0-4-3.3-7.3-7.3-7.3h0
			c-4,0.1-7.3,3.4-7.3,7.4h-7.3c0-8.1,6.5-14.7,14.6-14.7c8.1,0,14.7,6.5,14.7,14.6C375.3,526.7,364.3,527.8,364.3,535.8z"/>
		<path class="st3" d="M551.7,348.6h-4.3v-4.2h4.3V348.6z M551.7,342.2h-4.2c0-6.5,6.2-6.2,6.2-10.3c0-2.3-1.8-4.1-4.1-4.1
			c0,0,0,0,0,0c-2.3,0-4.1,1.9-4.2,4.2h-4.2c0.1-4.6,3.9-8.2,8.5-8.1c4.4,0.1,8,3.6,8.1,8.1C557.9,337.1,551.7,337.7,551.7,342.2z"
			/>
		<path class="st3" d="M617.2,540.3h-4.3v-4.2h4.3V540.3z M617.1,534H613c0-6.6,6.2-6.2,6.2-10.3c0-2.3-1.9-4.1-4.2-4.1
			c-2.3,0-4.1,1.9-4.2,4.2h-4.2c0.1-4.6,3.9-8.2,8.5-8.1c4.4,0.1,8,3.6,8.1,8.1C623.4,528.8,617.1,529.4,617.1,534L617.1,534z"/>
	</g>
	<g>
		<path class="st11" d="M480.9,356.7h2c0.6,0,1.1,0.5,1.1,1.1v31.5c0,0.6-0.5,1.1-1.1,1.1h-2c-0.6,0-1.1-0.5-1.1-1.1v-31.5
			C479.9,357.2,480.4,356.7,480.9,356.7z"/>
		<path class="st11" d="M363.7,293.9h100.4c9.9,0,17.9,8,17.9,17.9v241.1c0,9.9-8,17.9-17.9,17.9H363.7c-9.9,0-17.9-8-17.9-17.9
			V311.8C345.8,301.9,353.8,293.9,363.7,293.9z"/>
		
			<radialGradient id="SVGID_2_" cx="413.9486" cy="432.3455" r="107.9307" gradientTransform="matrix(1 0 0 1.863 0 -373.096)" gradientUnits="userSpaceOnUse">
			<stop  offset="0" style="stop-color:#FFFFFF"/>
			<stop  offset="0.1222" style="stop-color:#FCFEFB"/>
			<stop  offset="0.2519" style="stop-color:#F2FAEE"/>
			<stop  offset="0.3851" style="stop-color:#E1F4D9"/>
			<stop  offset="0.5208" style="stop-color:#CAEBBB"/>
			<stop  offset="0.6585" style="stop-color:#ACE095"/>
			<stop  offset="0.7976" style="stop-color:#88D266"/>
			<stop  offset="0.9354" style="stop-color:#5EC22F"/>
			<stop  offset="1" style="stop-color:#48BA13"/>
		</radialGradient>
		<path class="st12" d="M462.9,301.1h-15.6v1.9c0,4.9-4,8.9-8.9,8.9c0,0,0,0,0,0h-49.7c-4.9,0-8.9-4-8.9-8.9c0,0,0,0,0,0v-1.9H365
			c-6,0-10.8,4.8-10.8,10.8l0,0v240.9c0,6,4.8,10.8,10.8,10.8h97.8c6,0,10.8-4.8,10.8-10.8V311.9
			C473.7,305.9,468.9,301.1,462.9,301.1C462.9,301.1,462.9,301.1,462.9,301.1z"/>
		<path class="st13" d="M402.6,302.1H418c1,0,1.8,0.8,1.8,1.8v0.3c0,1-0.8,1.8-1.8,1.8h-15.5c-1,0-1.8-0.8-1.8-1.8v-0.3
			C400.8,302.9,401.6,302.1,402.6,302.1z"/>
		<circle class="st13" cx="424.9" cy="304.1" r="2.2"/>
		<path class="st2" d="M419.8,466.1h-11.6v-11.4h11.6L419.8,466.1z M419.6,448.9h-11.3c0-17.8,16.9-16.7,16.9-28
			c0-6.2-5.1-11.2-11.3-11.2c-6.2,0-11.3,5.3-11.3,11.3h-11.3c0-12.4,10-22.5,22.4-22.5c0,0,0.1,0,0.1,0c12.4,0,22.5,9.9,22.5,22.3
			C436.5,435,419.6,436.6,419.6,448.9L419.6,448.9z"/>
		<g>
			<polyline class="st14" points="386.9,382.3 363.9,382.3 363.9,407.9 			"/>
			<polyline class="st14" points="363.9,461.9 363.9,482.4 386.9,482.4 			"/>
		</g>
		<g>
			<polyline class="st14" points="464,407.9 464,382.3 440.9,382.3 			"/>
			<polyline class="st14" points="440.9,482.4 464,482.4 464,461.9 			"/>
		</g>
	</g>
</g>
</svg>
