<?xml version="1.0" encoding="utf-8"?>
<!-- Generator: Adobe Illustrator 25.0.1, SVG Export Plug-In . SVG Version: 6.00 Build 0)  -->
<svg version="1.1" id="Layer_1" xmlns="http://www.w3.org/2000/svg" xmlns:xlink="http://www.w3.org/1999/xlink" x="0px" y="0px"
	 viewBox="0 0 42 49" style="enable-background:new 0 0 42 49;" xml:space="preserve">
<style type="text/css">
	.st0{opacity:0.5;fill:#39B54A;enable-background:new    ;}
	.st1{opacity:0.5;fill:#48BA13;enable-background:new    ;}
	.st2{fill:#FFFFFF;}
	.st3{fill:none;stroke:#48BA13;stroke-miterlimit:10;}
</style>
<g>
	<path class="st0" d="M38.7,23.1c0,10.6-8.6,19.2-19.2,19.2c-10.6,0-19.2-8.6-19.2-19.2c0-0.2,0-0.5,0-0.7
		C0.6,11.7,9.5,3.5,20.2,3.8C30.5,4.2,38.7,12.7,38.7,23.1z"/>
	<path class="st1" d="M36.9,30.6c0,0.2,0,0.5,0,0.7c-4.5,9.6-16,13.7-25.6,9.2c-6.7-3.2-11-10-11-17.4c0-0.2,0-0.5,0-0.7
		c4.5-9.6,16-13.7,25.6-9.2C32.6,16.3,36.8,23.1,36.9,30.6L36.9,30.6z"/>
	<g>
		<polygon class="st2" points="6.6,18.9 10.6,15.9 16.2,23.3 38,5.4 41.2,9.3 15.3,30.5 		"/>
		<polygon class="st3" points="6.6,18.9 10.6,15.9 16.2,23.3 38,5.4 41.2,9.3 15.3,30.5 		"/>
	</g>
</g>
</svg>
