<?xml version="1.0" encoding="utf-8"?>
<!-- Generator: Adobe Illustrator 25.0.1, SVG Export Plug-In . SVG Version: 6.00 Build 0)  -->
<svg version="1.1" id="Layer_1" xmlns="http://www.w3.org/2000/svg" xmlns:xlink="http://www.w3.org/1999/xlink" x="0px" y="0px"
	 viewBox="0 0 235 50" style="enable-background:new 0 0 235 50;" xml:space="preserve">
<style type="text/css">
	.st0{fill-rule:evenodd;clip-rule:evenodd;fill:#999999;}
	.st1{fill-rule:evenodd;clip-rule:evenodd;fill:#B3B3B3;}
	.st2{fill-rule:evenodd;clip-rule:evenodd;fill:#FFFFFF;}
</style>
<g transform="matrix(.7 0 0 .70556149 .000412 -.361392)">
	<g>
		<path class="st0" d="M-0.6,11.7c0,0,17-0.9,30-9.9c13,9,30,9.9,30,9.9v24.7c0,26.5-30,34.7-30,34.7s-30-8.2-30-34.7L-0.6,11.7z"/>
		<path class="st0" d="M93.8,49.6H83.1c-0.1-2.1-0.3-4.2-0.3-6.4v-6.6v-2.1v-6.5c0-2.2,0.2-4.3,0.2-6.5l4.7-0.5v-2.2H72.2v2.2
			l4.4,0.5c0.1,2.2,0.1,4.4,0.1,6.5v6.5v2.1v6.5c0,2.2,0,4.3-0.1,6.5l-4.4,0.5v2.4h26.2l0.5-9.9h-3.6L93.8,49.6z"/>
		<path class="st0" d="M118.4,37.2c-0.4,0.5-1.3,0.9-2.5,0.9h-7.7c0.1-1.6,0.4-2.9,0.8-4c0.4-1.1,0.9-2,1.5-2.6
			c0.6-0.6,1.2-1.1,1.9-1.4c0.7-0.3,1.3-0.4,2-0.4c1.3,0,2.4,0.5,3.2,1.5c0.9,1,1.3,2.3,1.3,3.9C119.1,35.9,118.9,36.7,118.4,37.2
			 M121.7,30c-0.9-0.9-2-1.6-3.2-2.1c-1.2-0.5-2.6-0.7-4.1-0.7c-1.7,0-3.3,0.3-4.8,1c-1.5,0.6-2.8,1.6-3.9,2.7
			c-1.1,1.2-2,2.5-2.6,4.2c-0.6,1.6-0.9,3.4-0.9,5.3c0,2,0.3,3.8,0.8,5.4c0.6,1.6,1.4,2.9,2.4,4c1,1.1,2.3,2,3.7,2.5
			c1.4,0.6,3.1,0.9,4.9,0.9c2.5,0,4.6-0.6,6.4-1.7c1.8-1.1,3.1-2.7,3.8-4.8l-1.5-0.9c-0.9,1.2-1.8,2.1-2.8,2.7c-1,0.7-2.3,1-3.9,1
			c-2.3,0-4.1-0.8-5.6-2.4c-1.4-1.6-2.2-3.8-2.3-7.1h16c0.1-0.4,0.2-0.7,0.3-1.2c0.1-0.5,0.1-0.9,0.1-1.4c0-1.6-0.2-3-0.7-4.3
			C123.3,31.9,122.6,30.9,121.7,30"/>
		<path class="st0" d="M141.5,40c-0.8,1.1-1.9,1.7-3.4,1.7c-1.4,0-2.5-0.6-3.3-1.7c-0.8-1.1-1.2-2.6-1.2-4.5c0-1.9,0.4-3.4,1.2-4.5
			c0.8-1.1,1.9-1.7,3.4-1.7c1.4,0,2.5,0.6,3.3,1.7c0.8,1.1,1.2,2.6,1.2,4.5C142.7,37.4,142.3,38.9,141.5,40z M134.8,52.8
			c0.5,0.1,1,0.1,1.5,0.1h5.6c0.9,0,1.6,0.1,2.2,0.3c0.6,0.2,1,0.4,1.4,0.7c0.4,0.3,0.6,0.6,0.8,1c0.2,0.4,0.2,0.7,0.2,1.1
			c0,1.3-0.7,2.3-2.1,3.2c-1.4,0.9-3.5,1.4-6.2,1.4c-1.8,0-3.3-0.3-4.4-1c-1.1-0.6-1.7-1.8-1.7-3.4c0-0.6,0.1-1.3,0.3-1.8
			c0.2-0.6,0.5-1.1,0.9-1.7C133.9,52.7,134.3,52.7,134.8,52.8z M144.9,29.2c-1.7-1.3-4-2-6.7-2c-1.4,0-2.7,0.2-3.9,0.6
			c-1.2,0.4-2.2,0.9-3.1,1.7c-0.9,0.7-1.5,1.6-2,2.6c-0.5,1-0.7,2.2-0.7,3.5c0,1.6,0.4,3.1,1.1,4.2c0.7,1.2,1.7,2.1,3,2.9
			c-1.1,0.8-1.9,1.6-2.6,2.4c-0.6,0.8-0.9,1.8-0.9,2.8c0,0.8,0.2,1.6,0.6,2.3c0.4,0.7,1.1,1.3,2.1,1.8c-1.6,0.8-2.8,1.7-3.6,2.6
			c-0.8,0.9-1.1,1.9-1.1,2.9c0,1.6,0.8,3,2.5,4c1.7,1,4.3,1.5,8,1.5c2.3,0,4.3-0.2,6.1-0.7c1.7-0.5,3.2-1.2,4.3-2
			c1.1-0.8,2-1.8,2.6-2.8c0.6-1.1,0.8-2.2,0.8-3.4c0-1.9-0.7-3.4-2.1-4.5c-1.4-1.1-3.7-1.6-6.9-1.6h-5.4c-1.2,0-2.1-0.2-2.6-0.6
			c-0.5-0.4-0.8-1-0.8-1.7c0-0.4,0.1-0.8,0.2-1.1c0.2-0.3,0.3-0.7,0.6-1.1c0.6,0.2,1.2,0.3,1.8,0.4c0.6,0.1,1.3,0.1,2,0.1
			c1.4,0,2.7-0.2,3.9-0.6c1.2-0.4,2.2-0.9,3.1-1.7c0.9-0.7,1.5-1.6,2-2.6c0.5-1,0.7-2.3,0.7-3.6c0-1.6-0.4-3.1-1.1-4.4h4.8v-3.3
			l-0.7-0.5L144.9,29.2L144.9,29.2z"/>
		<path class="st0" d="M168,47.5c-0.8,0.8-1.8,1.3-2.5,1.6c-0.6,0.3-1.3,0.4-1.9,0.4c-1.2,0-2.2-0.4-2.9-1.1
			c-0.3-0.3-0.5-0.7-0.7-1.1c-0.2-0.4-0.3-1-0.3-1.6c0-0.9,0.3-1.8,0.9-2.7c0.6-0.9,1.8-1.7,3.6-2.4c0.5-0.2,1-0.4,1.7-0.6
			c0.7-0.2,1.3-0.5,2.2-0.7L168,47.5z M177,49c-0.2,0.3-0.5,0.5-0.8,0.7c-0.3,0.2-0.6,0.3-1,0.3c-1,0-1.5-0.8-1.5-2.4V36.8
			c0-3.5-0.7-6-2-7.5c-1.3-1.4-3.5-2.1-6.4-2.1c-3,0-5.4,0.6-7.2,1.9c-1.8,1.2-2.9,2.9-3.3,4.8c0.1,0.7,0.4,1.3,0.9,1.7
			c0.5,0.4,1.1,0.7,1.8,0.7c1.7,0,2.8-1.1,3.2-3.2l0.7-3.3c0.4-0.1,0.7-0.1,1.1-0.2c0.4,0,0.7-0.1,1-0.1c1.7,0,2.8,0.4,3.5,1.3
			c0.7,0.9,1,2.5,1,4.8v1.4c-0.8,0.3-1.8,0.5-2.7,0.8c-0.9,0.3-1.7,0.5-2.3,0.7c-1.8,0.6-3.3,1.3-4.5,1.9c-1.2,0.6-2.1,1.3-2.8,2
			c-0.7,0.7-1.1,1.4-1.4,2.1c-0.2,0.7-0.4,1.5-0.4,2.2c0,2,0.7,3.6,2,4.7c1.3,1.1,3,1.6,4.9,1.6c0.8,0,1.5-0.1,2.1-0.2
			c0.6-0.2,1.3-0.4,1.8-0.7c0.6-0.3,1.1-0.7,1.7-1.2c0.6-0.5,1.2-1,1.8-1.6c0.3,1.1,0.9,1.9,1.7,2.5c0.9,0.6,2,0.9,3.4,0.9
			c1.1,0,2-0.2,2.8-0.7c0.8-0.4,1.5-1.3,2.1-2.6l-1.2-1L177,49z"/>
		<path class="st0" d="M189.9,45.7c0-1.3-0.1-2.7-0.1-4V23l0.3-7.3l-0.6-0.4l-9.1,2.3v1.9l4.1,0.5v21.6c0,1.3-0.1,2.7-0.1,4
			c0,1.3,0,2.7,0,4l-3.5,0.7v2.1h12.7v-2.1l-3.5-0.7C190,48.4,189.9,47.1,189.9,45.7"/>
		<path class="st0" d="M218.6,37.3c-0.8-0.9-1.7-1.6-2.9-2.4c-1.2-0.7-2.7-1.4-4.5-2.1l-2.4-0.9c-1.8-0.7-3.2-1.5-4.2-2.3
			c-1-0.9-1.5-2.1-1.5-3.6c0-0.9,0.2-1.7,0.5-2.4c0.3-0.7,0.8-1.3,1.4-1.7c0.6-0.5,1.3-0.8,2-1c0.8-0.2,1.6-0.4,2.6-0.4
			c1.4,0,2.7,0.3,4,0.9l1.1,6h3.7l0.4-6.8c-1.2-0.9-2.6-1.5-4.1-2c-1.5-0.5-3.2-0.7-5-0.7c-1.8,0-3.4,0.2-4.9,0.7
			c-1.5,0.5-2.7,1.1-3.8,2c-1,0.9-1.9,1.9-2.4,3.1c-0.6,1.2-0.9,2.5-0.9,4c0,2.6,0.8,4.7,2.5,6.4c1.7,1.7,3.9,3.1,6.8,4.2l2.3,0.8
			c1,0.4,1.9,0.8,2.6,1.1c0.7,0.4,1.3,0.8,1.8,1.2c0.5,0.4,0.8,0.9,1,1.5c0.2,0.5,0.3,1.2,0.3,1.9c0,1.8-0.7,3.3-2,4.3
			c-1.3,1-3.1,1.5-5.4,1.5c-1.1,0-2-0.1-2.8-0.3c-0.8-0.2-1.6-0.6-2.4-1l-1-6.2h-3.7l-0.3,7.5c1.3,0.8,2.9,1.5,4.7,2
			c1.8,0.5,3.7,0.8,5.7,0.8c1.9,0,3.6-0.2,5.2-0.7c1.6-0.5,2.9-1.2,4-2.1c1.1-0.9,2-2,2.6-3.2c0.6-1.2,0.9-2.6,0.9-4.1
			c0-1.1-0.2-2.1-0.5-3C219.9,39.1,219.4,38.2,218.6,37.3"/>
		<path class="st0" d="M247.8,45.6v-3.9v-5.3c0-3.2-0.6-5.6-1.7-7c-1.2-1.4-2.9-2.2-5.2-2.2c-1.7,0-3.2,0.4-4.5,1.1
			c-1.4,0.8-2.9,1.9-4.1,3.4V23l0.1-7.3l-0.8-0.4l-9.2,2.3v1.9l4.1,0.5v21.6v3.9c0,1.5,0.1,2.8,0.1,4.1l-3.4,0.7v2.1h12.3v-2.1
			l-3.2-0.7c0-1.3-0.1-2.6-0.1-4.1v-3.9v-7.4c1.2-1.1,2.2-1.9,3.3-2.4c1-0.5,2.1-0.8,3.2-0.8c1.3,0,2.2,0.5,2.7,1.4
			c0.5,0.9,0.7,2.4,0.7,4.6v4.7v3.9c0,1.5,0.1,2.8,0.1,4.1l-3.4,0.7v2.1h12.3v-2.1l-3.2-0.7C247.8,48.5,247.8,47.1,247.8,45.6"/>
		<path class="st0" d="M263.4,45.6v-3.9v-6.9l0.1-7.1l-0.7-0.5l-8.9,3.2v1.9l3.7,0.5c0,1,0,2,0,2.9c0,0.9,0,2.1,0,3.5v2.6v3.9
			c0,1.5,0.1,2.8,0.1,4.1l-3.4,0.7v2.1h12.3v-2.1l-3.2-0.7C263.4,48.5,263.4,47.1,263.4,45.6"/>
		<path class="st0" d="M285,37.2c-0.4,0.5-1.3,0.9-2.5,0.9h-7.7c0.1-1.6,0.4-2.9,0.8-4c0.4-1.1,0.9-2,1.5-2.6
			c0.6-0.6,1.2-1.1,1.9-1.4c0.7-0.3,1.3-0.4,2-0.4c1.3,0,2.4,0.5,3.2,1.5c0.9,1,1.3,2.3,1.3,3.9C285.7,35.9,285.4,36.7,285,37.2
			 M288.3,30c-0.9-0.9-2-1.6-3.2-2.1c-1.2-0.5-2.6-0.7-4.1-0.7c-1.7,0-3.3,0.3-4.8,1c-1.5,0.6-2.8,1.6-3.9,2.7
			c-1.1,1.2-2,2.5-2.6,4.2c-0.6,1.6-0.9,3.4-0.9,5.3c0,2,0.3,3.8,0.8,5.4c0.6,1.6,1.4,2.9,2.4,4c1,1.1,2.3,2,3.7,2.5
			c1.4,0.6,3.1,0.9,4.9,0.9c2.5,0,4.6-0.6,6.4-1.7c1.8-1.1,3.1-2.7,3.8-4.8l-1.5-0.9c-0.9,1.2-1.8,2.1-2.8,2.7c-1,0.7-2.3,1-3.9,1
			c-2.3,0-4.1-0.8-5.6-2.4c-1.4-1.6-2.2-3.8-2.3-7.1h16c0.1-0.4,0.2-0.7,0.3-1.2c0.1-0.5,0.1-0.9,0.1-1.4c0-1.6-0.2-3-0.7-4.3
			C289.9,31.9,289.2,30.9,288.3,30"/>
		<path class="st0" d="M302.6,45.7c0-1.3-0.1-2.7-0.1-4V23l0.3-7.3l-0.7-0.4l-9.1,2.3v1.9l4.1,0.5v21.6c0,1.3,0,2.7-0.1,4
			c0,1.3,0,2.7-0.1,4l-3.6,0.7v2.1h12.7v-2.1l-3.5-0.7C302.7,48.4,302.6,47.1,302.6,45.7"/>
		<path class="st0" d="M325.5,47.6c-1.6,1.4-3.4,2.1-5.1,2.1c-1.8,0-3.3-0.8-4.4-2.3c-1.2-1.6-1.7-3.9-1.7-7.2
			c0-1.6,0.2-3.1,0.5-4.3c0.3-1.2,0.8-2.2,1.4-3c0.6-0.8,1.3-1.4,2-1.8c0.8-0.4,1.5-0.6,2.4-0.6c1.5,0,3.3,0.7,4.9,2.1L325.5,47.6z
			 M331.3,49.7V23l0.2-7.3l-0.6-0.4l-9.1,2.3v1.9l4.1,0.5v10.1c-2.1-2-4.1-3.1-6.8-3.1c-1.5,0-3,0.3-4.3,0.9
			c-1.3,0.6-2.5,1.5-3.5,2.7c-1,1.2-1.7,2.6-2.3,4.2c-0.6,1.6-0.8,3.4-0.8,5.4c0,2,0.3,3.8,0.8,5.4c0.5,1.6,1.2,2.9,2.1,4
			c0.9,1.1,2,2,3.2,2.5c1.3,0.6,2.6,0.9,4.1,0.9c1.6,0,2.9-0.3,4.1-0.9c1.2-0.6,2.2-1.4,3.2-2.5l0.5,3.2l8.7-0.5v-2L331.3,49.7z"/>
		<path class="st0" d="M260.4,21.6c1.7,0,3.1-1.4,3.1-3.1c0-1.7-1.4-3.1-3.1-3.1c-1.7,0-3.1,1.4-3.1,3.1
			C257.3,20.2,258.7,21.6,260.4,21.6"/>
	</g>
	<path class="st1" d="M29.3,5.7c-10,6.4-22.1,7.7-26.9,8.4v22.2c0,10,4.4,18.2,13,24.6c5.3,3.9,12,5.9,14,6.6"/>
	<path class="st2" d="M27.3,48.3h2V20.6h-2V48.3z M23.4,48.3h2V20.6l-2,0L23.4,48.3z M40.5,41.4l-2.1,6.9h-7V20.6l4-1v-2h-9.8h-8.1
		l0,2l4,1v27.8l-4,1v2H44l0.5-9.9H40.5z"/>
</g>
</svg>
