<?xml version="1.0" encoding="utf-8"?>
<!-- Generator: Adobe Illustrator 25.0.1, SVG Export Plug-In . SVG Version: 6.00 Build 0)  -->
<svg version="1.1" id="Layer_1" xmlns="http://www.w3.org/2000/svg" xmlns:xlink="http://www.w3.org/1999/xlink" x="0px" y="0px"
	 viewBox="0 0 88 100" style="enable-background:new 0 0 88 100;" xml:space="preserve">
<style type="text/css">
	.st0{fill:#48BA13;}
</style>
<g>
	<g>
		<g>
			<path class="st0" d="M85.7,0H23.2c-0.6,0-1.1,0.2-1.5,0.7L0.8,23.6C0.5,24,0.3,24.5,0.3,25V98c0,1.2,0.9,2.1,2.1,2.1h83.3
				c1.2,0,2.1-0.9,2.1-2.1V2.1C87.8,1,86.9,0,85.7,0z M23.2,5.2V23H7.1L23.2,5.2z M83.6,95.9H4.5V27.1h20.8c1.2,0,2.1-0.9,2.1-2.1
				V4.2h56.2V95.9z"/>
		</g>
	</g>
	<g>
		<g>
			<path class="st0" d="M76.9,53.1c-0.7-0.5-1.1-1.4-1-2.3c0.1-0.6,0.1-1.3,0-1.9c-0.5-3.6-3.9-6.2-7.5-5.6c-0.9,0.1-1.8-0.2-2.3-1
				c-0.4-0.5-0.8-1-1.3-1.3c-2.9-2.2-7.1-1.6-9.3,1.3c-0.5,0.7-1.4,1.1-2.3,1c-0.6-0.1-1.3-0.1-1.9,0c-3.6,0.5-6.2,3.9-5.6,7.5
				c0.1,0.9-0.2,1.8-1,2.3c-0.5,0.4-1,0.8-1.3,1.3c-2.2,2.9-1.6,7.1,1.3,9.3c0.7,0.5,1.1,1.4,1,2.3c-0.1,0.6-0.1,1.3,0,1.9
				c0.5,3.6,3.9,6.2,7.5,5.6c0.9-0.1,1.8,0.2,2.3,1c1.3,1.7,3.2,2.7,5.3,2.7c2.1,0,4.1-1,5.3-2.7c0.5-0.7,1.4-1.1,2.3-1
				c0.6,0.1,1.3,0.1,1.9,0c3.6-0.5,6.2-3.9,5.6-7.5c-0.1-0.9,0.2-1.8,1-2.3c0.5-0.4,1-0.8,1.3-1.3C80.4,59.5,79.8,55.3,76.9,53.1z
				 M74.4,60.5c-1.9,1.5-2.9,3.9-2.6,6.3c0,0.2,0,0.5,0,0.7c-0.2,1.4-1.4,2.3-2.8,2.1c-2.4-0.3-4.8,0.6-6.3,2.6
				c-0.1,0.1-0.2,0.3-0.4,0.4c-1.1,0.9-2.7,0.7-3.6-0.4c-1.3-1.7-3.2-2.7-5.3-2.7l0,0c-0.3,0-0.6,0-0.9,0.1c-0.2,0-0.5,0-0.7,0
				c-1.4-0.2-2.3-1.4-2.1-2.8c0.3-2.4-0.7-4.8-2.6-6.3c-0.2-0.1-0.4-0.3-0.5-0.5c-0.8-1.1-0.6-2.7,0.5-3.5c1.9-1.5,2.9-3.9,2.6-6.3
				c-0.1-0.8,0.1-1.6,0.7-2.1c0.6-0.6,1.3-0.8,2.1-0.7c2.4,0.3,4.8-0.7,6.3-2.6c0.1-0.1,0.2-0.3,0.4-0.4c1.1-0.9,2.7-0.7,3.6,0.4
				c1.5,1.9,3.9,2.9,6.3,2.6c0.2,0,0.5,0,0.7,0c1.4,0.2,2.3,1.5,2.1,2.8c-0.3,2.4,0.7,4.8,2.6,6.3c0.2,0.1,0.4,0.3,0.5,0.5
				C75.7,58.1,75.5,59.6,74.4,60.5z"/>
		</g>
	</g>
	<g>
		<g>
			<path class="st0" d="M64.9,73v12.8l-3-2c-0.7-0.5-1.6-0.5-2.3,0l-3,2V73h-4.2v16.7c0,0.4,0.1,0.8,0.3,1.2c0.6,1,1.9,1.2,2.9,0.6
				l5.1-3.4l5.1,3.4c0.3,0.2,0.7,0.3,1.2,0.3c1.2,0,2.1-0.9,2.1-2.1V73L64.9,73L64.9,73z"/>
		</g>
	</g>
	<g>
		<g>
			<path class="st0" d="M54.5,58.4h-4.2c0,5.8,4.7,10.4,10.4,10.4v-4.2C57.3,64.6,54.5,61.8,54.5,58.4z"/>
		</g>
	</g>
	<g>
		<g>
			<path class="st0" d="M60.7,48v4.2c3.5,0,6.2,2.8,6.2,6.2h4.2C71.1,52.6,66.5,48,60.7,48z"/>
		</g>
	</g>
	<g>
		<g>
			<rect x="58.6" y="56.3" class="st0" width="4.2" height="4.2"/>
		</g>
	</g>
	<g>
		<g>
			<path class="st0" d="M77.4,8.4H33.6c-1.2,0-2.1,0.9-2.1,2.1V25h4.2V12.5h39.6V25h4.2V10.5C79.5,9.3,78.5,8.4,77.4,8.4z"/>
		</g>
	</g>
	<g>
		<g>
			<rect x="39.9" y="25.1" class="st0" width="14.6" height="4.2"/>
		</g>
	</g>
	<g>
		<g>
			<rect x="58.6" y="25.1" class="st0" width="4.2" height="4.2"/>
		</g>
	</g>
	<g>
		<g>
			<rect x="67" y="25.1" class="st0" width="4.2" height="4.2"/>
		</g>
	</g>
	<g>
		<g>
			<rect x="46.1" y="16.7" class="st0" width="18.8" height="4.2"/>
		</g>
	</g>
	<g>
		<g>
			<rect x="10.7" y="35.5" class="st0" width="25" height="4.2"/>
		</g>
	</g>
	<g>
		<g>
			<rect x="10.7" y="43.8" class="st0" width="12.5" height="4.2"/>
		</g>
	</g>
	<g>
		<g>
			<rect x="27.4" y="43.8" class="st0" width="4.2" height="4.2"/>
		</g>
	</g>
	<g>
		<g>
			<rect x="10.7" y="52.1" class="st0" width="4.2" height="4.2"/>
		</g>
	</g>
	<g>
		<g>
			<rect x="19.1" y="52.1" class="st0" width="12.5" height="4.2"/>
		</g>
	</g>
	<g>
		<g>
			<rect x="10.7" y="60.5" class="st0" width="4.2" height="4.2"/>
		</g>
	</g>
	<g>
		<g>
			<rect x="19.1" y="60.5" class="st0" width="4.2" height="4.2"/>
		</g>
	</g>
	<g>
		<g>
			<rect x="27.4" y="60.5" class="st0" width="4.2" height="4.2"/>
		</g>
	</g>
	<g>
		<g>
			<path class="st0" d="M39.9,68.8H10.7c-1.2,0-2.1,0.9-2.1,2.1v16.7h4.2V73h25v14.6H42V70.9C42,69.7,41,68.8,39.9,68.8z"/>
		</g>
	</g>
	<g>
		<g>
			<rect x="17" y="77.1" class="st0" width="4.2" height="4.2"/>
		</g>
	</g>
	<g>
		<g>
			<rect x="25.3" y="77.1" class="st0" width="8.3" height="4.2"/>
		</g>
	</g>
</g>
</svg>
