<?xml version="1.0" encoding="utf-8"?>
<!-- Generator: Adobe Illustrator 25.0.1, SVG Export Plug-In . SVG Version: 6.00 Build 0)  -->
<svg version="1.1" id="Layer_1" xmlns="http://www.w3.org/2000/svg" xmlns:xlink="http://www.w3.org/1999/xlink" x="0px" y="0px"
	 viewBox="0 0 103 103" style="enable-background:new 0 0 103 103;" xml:space="preserve">
<style type="text/css">
	.st0{fill:#48BA13;}
</style>
<g>
	<g>
		<g>
			<path class="st0" d="M103.1,39.8c0,0,0-0.1,0-0.1c0-0.1,0-0.2-0.1-0.4c0-0.1-0.1-0.2-0.1-0.3c0-0.1-0.1-0.2-0.2-0.3
				c-0.1-0.1-0.1-0.2-0.2-0.3c0,0,0-0.1-0.1-0.1L86,25.6V12.3c0-2.8-2.3-5.2-5.2-5.2H62.2l-7.4-5.8c-1.8-1.4-4.4-1.4-6.3,0l-7.5,5.8
				H22.4c-2.8,0-5.1,2.3-5.1,5.2v13.3L0.8,38.5c0,0,0,0.1-0.1,0.1c-0.1,0.1-0.2,0.2-0.2,0.3c-0.1,0.1-0.1,0.2-0.2,0.3
				c0,0.1-0.1,0.2-0.1,0.3c0,0.1-0.1,0.2-0.1,0.3c0,0,0,0.1,0,0.1v58.4c0,0.6,0.1,1.1,0.3,1.6c-0.4,0.6-0.4,1.4,0,1.9
				s1.2,0.8,1.8,0.6c0.9,0.6,1.9,1,3,1H98c1.1,0,2.1-0.3,3-1c0.1,0,0.3,0.1,0.5,0.1c0.6,0,1.2-0.3,1.5-0.9c0.3-0.6,0.3-1.2-0.1-1.7
				c0.2-0.5,0.3-1.1,0.3-1.6L103.1,39.8L103.1,39.8z M50.6,4.1c0.6-0.5,1.4-0.5,2,0l4,3.1h-10L50.6,4.1z M5.7,99.9L50.6,65
				c0.6-0.5,1.4-0.5,2,0l44.9,34.9H5.7z M99.7,97.2L54.8,62.3c-1.8-1.4-4.4-1.4-6.3,0L3.6,97.2V42.4l28.1,21.8
				c0.7,0.6,1.8,0.4,2.4-0.3c0.6-0.7,0.4-1.8-0.3-2.4L5.2,39.4L17.3,30v13.3c0,0.9,0.8,1.7,1.7,1.7c0.9,0,1.7-0.8,1.7-1.7V12.3
				c0-0.9,0.8-1.7,1.7-1.7h58.4c0.9,0,1.7,0.8,1.7,1.7v30.9c0,0.9,0.8,1.7,1.7,1.7c0.9,0,1.7-0.8,1.7-1.7V30L98,39.4L69.4,61.6
				c-0.7,0.6-0.9,1.7-0.3,2.4c0.6,0.7,1.7,0.9,2.4,0.3l28.2-21.9V97.2z"/>
			<path class="st0" d="M34.5,22.6h34.3c0.9,0,1.7-0.8,1.7-1.7c0-0.9-0.8-1.7-1.7-1.7H34.5c-0.9,0-1.7,0.8-1.7,1.7
				C32.7,21.9,33.5,22.6,34.5,22.6z"/>
			<path class="st0" d="M70.5,31.2c0-0.9-0.8-1.7-1.7-1.7H34.5c-0.9,0-1.7,0.8-1.7,1.7c0,0.9,0.8,1.7,1.7,1.7h34.3
				C69.7,32.9,70.5,32.2,70.5,31.2z"/>
			<path class="st0" d="M70.5,41.5c0-0.9-0.8-1.7-1.7-1.7H53.3c-0.9,0-1.7,0.8-1.7,1.7c0,0.9,0.8,1.7,1.7,1.7h15.4
				C69.7,43.2,70.5,42.5,70.5,41.5z"/>
		</g>
	</g>
</g>
</svg>
