<?xml version="1.0" encoding="utf-8"?>
<!-- Generator: Adobe Illustrator 25.0.1, SVG Export Plug-In . SVG Version: 6.00 Build 0)  -->
<svg version="1.1" id="Layer_1" xmlns="http://www.w3.org/2000/svg" xmlns:xlink="http://www.w3.org/1999/xlink" x="0px" y="0px"
	 viewBox="0 0 24 21" style="enable-background:new 0 0 24 21;" xml:space="preserve">
<style type="text/css">
	.st0{fill:#48BA13;}
</style>
<g>
	<path class="st0" d="M23.9,3.7C23.6,1.6,21.9,0,19.7,0H5C2.6,0,0.7,2,0.7,4.3l0,12.9c0.3,2.1,2.1,3.7,4.2,3.7h14.7
		c2.4,0,4.3-1.9,4.3-4.3L23.9,3.7z M5,19.6c-1.7,0-3.1-1.4-3.1-3.1V4.3c0-0.8,0.3-1.6,0.9-2.2C3.4,1.6,4.2,1.3,5,1.3h14.7
		c1.7,0,3.1,1.4,3.1,3.1v12.2c0,0.8-0.3,1.6-0.9,2.2c-0.6,0.6-1.3,0.9-2.2,0.9H5z"/>
	<g>
		<g>
			<path class="st0" d="M3.8,2.5c-0.3,0-0.6,0.3-0.6,0.6v2.4h1.2V3.7h1.8V2.5H3.8z"/>
		</g>
	</g>
	<g>
		<g>
			<rect x="3.2" y="6.8" class="st0" width="1.2" height="1.2"/>
		</g>
	</g>
	<g>
		<g>
			<path class="st0" d="M15.7,9.3l-4.9-2.4c-0.1,0-0.2-0.1-0.3-0.1c-0.3,0-0.6,0.3-0.6,0.6v4.9c0,0.3,0.3,0.6,0.6,0.6
				c0.1,0,0.2,0,0.3-0.1l4.9-2.4c0.1-0.1,0.2-0.2,0.3-0.3C16.1,9.8,16,9.4,15.7,9.3z"/>
		</g>
	</g>
	<g>
		<g>
			<rect x="9.3" y="15.3" class="st0" width="8.6" height="1.2"/>
		</g>
	</g>
	<g>
		<g>
			<rect x="19.1" y="15.3" class="st0" width="1.2" height="1.2"/>
		</g>
	</g>
</g>
</svg>
