<?xml version="1.0" encoding="utf-8"?>
<!-- Generator: Adobe Illustrator 25.0.1, SVG Export Plug-In . SVG Version: 6.00 Build 0)  -->
<svg version="1.1" id="Layer_1" xmlns="http://www.w3.org/2000/svg" xmlns:xlink="http://www.w3.org/1999/xlink" x="0px" y="0px"
	 viewBox="0 0 75 75" style="enable-background:new 0 0 75 75;" xml:space="preserve">
<style type="text/css">
	.st0{fill:#48BA13;}
</style>
<g>
	<path class="st0" d="M8,24.7h4.8v2.4H8V24.7z"/>
	<path class="st0" d="M71.2,19.9c2,0,3.6-1.6,3.6-3.6V4.4c0-2-1.6-3.6-3.6-3.6H54.5c-2,0-3.6,1.6-3.6,3.6v11.9c0,2,1.6,3.6,3.6,3.6
		h3.6v2.4h-2.4v2.4h6v11.9h-4.9c-1-0.9-2.1-1.6-3.4-2c0-0.1,0-0.2,0-0.4c0-5.3-4.3-9.5-9.5-9.5c-3.3,0-6.3,1.7-8,4.4
		c-1.2-0.6-2.5-0.8-3.9-0.8c-4,0-7.5,2.5-8.9,6.2c-0.9,0.2-1.8,0.5-2.5,1h-8.8v-3.6h4.8c2,0,3.6-1.6,3.6-3.6V4.4
		c0-2-1.6-3.6-3.6-3.6H4.4c-2,0-3.6,1.6-3.6,3.6v23.9c0,2,1.6,3.6,3.6,3.6h4.8v6h8.7c-0.5,0.7-0.9,1.5-1.2,2.4h-5.1v13.1H6.8
		c-2,0-3.6,1.6-3.6,3.6v10.7H0.8v3.6c0,2,1.6,3.6,3.6,3.6h19.1c2,0,3.6-1.6,3.6-3.6v-3.6h-2.4V56.9c0-2-1.6-3.6-3.6-3.6h-7.2V42.6
		h2.4c0,4.6,3.7,8.4,8.4,8.4h26.3c4.2,0,7.7-3.1,8.3-7.2h4.9v9.5h-8.4v21.5h19.1V53.3h-8.4V41.4h-7.3c-0.1-0.8-0.4-1.6-0.7-2.4h5.6
		V24.7h6v-2.4h-2.4v-2.4H71.2z M17.5,19.9H3.2V8h14.3V19.9z M4.4,3.2h11.9c0.7,0,1.2,0.5,1.2,1.2v1.2H3.2V4.4
		C3.2,3.7,3.7,3.2,4.4,3.2z M3.2,28.2v-6h14.3v6c0,0.7-0.5,1.2-1.2,1.2H4.4C3.7,29.4,3.2,28.9,3.2,28.2z M24.7,71.2
		c0,0.7-0.5,1.2-1.2,1.2H4.4c-0.7,0-1.2-0.5-1.2-1.2V70h21.5V71.2z M22.3,56.9v10.7H5.6V56.9c0-0.7,0.5-1.2,1.2-1.2h14.3
		C21.8,55.7,22.3,56.2,22.3,56.9z M58.1,72.4v-7.2h14.3v7.2H58.1z M72.4,62.9H58.1v-7.2h14.3V62.9z M50.9,48.5H24.7
		c-3.3,0-6-2.7-6-6c0-3,2.3-5.6,5.3-5.9l0.8-0.1l0.2-0.8c0.9-3,3.7-5.2,6.9-5.2c1.3,0,2.6,0.4,3.7,1.1l1.1,0.7l0.6-1.2
		c1.2-2.5,3.7-4.1,6.5-4.1c3.9,0,7.2,3.2,7.2,7.2c0,0.3,0,0.7-0.1,1.1l-0.2,1.2l1.2,0.2c2.9,0.4,5.1,3,5.1,5.9
		C56.9,45.9,54.2,48.5,50.9,48.5z M54.5,3.2h16.7c0.7,0,1.2,0.5,1.2,1.2v8.4H53.3V4.4C53.3,3.7,53.9,3.2,54.5,3.2z M53.3,16.3v-1.2
		h19.1v1.2c0,0.7-0.5,1.2-1.2,1.2H54.5C53.9,17.5,53.3,17,53.3,16.3z M65.3,22.3h-4.8v-2.4h4.8V22.3z"/>
	<path class="st0" d="M60.5,58.1h2.4v2.4h-2.4V58.1z"/>
	<path class="st0" d="M67.6,67.6H70V70h-2.4V67.6z"/>
	<path class="st0" d="M65.3,58.1H70v2.4h-4.8V58.1z"/>
	<path class="st0" d="M60.5,67.6h4.8V70h-4.8V67.6z"/>
</g>
</svg>
