<?xml version="1.0" encoding="utf-8"?>
<!-- Generator: Adobe Illustrator 25.0.1, SVG Export Plug-In . SVG Version: 6.00 Build 0)  -->
<svg version="1.1" id="Layer_1" xmlns="http://www.w3.org/2000/svg" xmlns:xlink="http://www.w3.org/1999/xlink" x="0px" y="0px"
	 viewBox="0 0 36 30" style="enable-background:new 0 0 36 30;" xml:space="preserve">
<style type="text/css">
	.st0{fill:#FFFFFF;}
</style>
<path class="st0" d="M27.4,11.6h-8.5v3.1c0,2.2-1.8,4-4,4s-4-1.8-4-4V7.9l-3.7,2.2c-1.1,0.6-1.7,1.8-1.7,3.1v2.7l-4.5,2.6
	c-0.9,0.5-1.2,1.6-0.7,2.5l4.5,7.8c0.5,0.9,1.6,1.2,2.5,0.7L13,26h7.7c2,0,3.6-1.6,3.6-3.6h0.9c1,0,1.8-0.8,1.8-1.8V17h0.4
	c0.7,0,1.3-0.6,1.3-1.3V13C28.8,12.2,28.2,11.6,27.4,11.6z M35.7,9.5l-4.5-7.8c-0.5-0.9-1.6-1.2-2.5-0.7L23,4.4h-5.7
	c-0.7,0-1.3,0.2-1.9,0.5l-1.9,1.2c-0.5,0.3-0.8,0.9-0.8,1.5v7.1c0,1.2,1,2.2,2.2,2.2s2.2-1,2.2-2.2V9.8h10.3c1.7,0,3.1,1.4,3.1,3.1
	v1.6l4.5-2.6C35.9,11.5,36.2,10.4,35.7,9.5z"/>
</svg>
