<?xml version="1.0" encoding="utf-8"?>
<!-- Generator: Adobe Illustrator 25.0.1, SVG Export Plug-In . SVG Version: 6.00 Build 0)  -->
<svg version="1.1" id="Layer_1" xmlns="http://www.w3.org/2000/svg" xmlns:xlink="http://www.w3.org/1999/xlink" x="0px" y="0px"
	 viewBox="0 0 100 100" style="enable-background:new 0 0 100 100;" xml:space="preserve">
<style type="text/css">
	.st0{fill:#48BA13;}
</style>
<g>
	<g>
		<g>
			<path class="st0" d="M98,68.8h-5.3c-0.2-0.6-0.5-1.2-0.8-1.8l3.7-3.7c0.8-0.8,0.8-2.1,0-2.9l-5.9-5.9c-0.8-0.8-2.1-0.8-2.9,0
				l-3.7,3.7c-0.6-0.3-1.2-0.5-1.8-0.8v-5.3c0-1.2-0.9-2.1-2.1-2.1h-8.3c-1.2,0-2.1,0.9-2.1,2.1v5.3c-0.6,0.2-1.2,0.5-1.8,0.8
				l-3.7-3.7c-0.8-0.8-2.1-0.8-2.9,0l-5.9,5.9c-0.8,0.8-0.8,2.1,0,2.9l3.7,3.7c-0.3,0.6-0.5,1.2-0.8,1.8h-5.3
				c-1.2,0-2.1,0.9-2.1,2.1v8.3c0,1.2,0.9,2.1,2.1,2.1h5.3c0.2,0.6,0.5,1.2,0.8,1.8l-3.7,3.7c-0.8,0.8-0.8,2.1,0,2.9l5.9,5.9
				c0.8,0.8,2.1,0.8,2.9,0L67,92c0.6,0.3,1.2,0.5,1.8,0.8V98c0,1.2,0.9,2.1,2.1,2.1h8.3c1.2,0,2.1-0.9,2.1-2.1v-5.3
				c0.6-0.2,1.2-0.5,1.8-0.8l3.7,3.7c0.8,0.8,2.1,0.8,2.9,0l5.9-5.9c0.8-0.8,0.8-2.1,0-2.9L92,83.1c0.3-0.6,0.5-1.2,0.8-1.8H98
				c1.2,0,2.1-0.9,2.1-2.1v-8.3C100.1,69.7,99.1,68.8,98,68.8z M95.9,77.1h-4.7c-0.9,0-1.8,0.6-2,1.6c-0.3,1.3-0.9,2.6-1.6,3.7
				c-0.5,0.8-0.4,1.9,0.3,2.5l3.3,3.3l-2.9,2.9L85,87.9c-0.7-0.7-1.7-0.8-2.5-0.3c-1.2,0.7-2.4,1.2-3.8,1.6c-0.9,0.2-1.6,1.1-1.6,2
				v4.7H73l0-4.7c0-0.9-0.6-1.8-1.6-2c-1.3-0.3-2.6-0.9-3.7-1.6c-0.8-0.5-1.9-0.4-2.5,0.3l-3.3,3.3l-2.9-2.9l3.3-3.3
				c0.7-0.7,0.8-1.7,0.3-2.5c-0.7-1.2-1.2-2.4-1.6-3.8c-0.2-0.9-1.1-1.6-2-1.6h-4.7V73h4.7c0.9,0,1.8-0.6,2-1.6
				c0.3-1.3,0.9-2.6,1.6-3.7c0.5-0.8,0.4-1.9-0.3-2.5l-3.3-3.3l2.9-2.9l3.3,3.3c0.7,0.7,1.7,0.8,2.5,0.3c1.2-0.7,2.4-1.2,3.7-1.6
				c0.9-0.2,1.6-1.1,1.6-2v-4.7h4.2v4.7c0,0.9,0.6,1.8,1.6,2c1.3,0.3,2.6,0.9,3.7,1.6c0.8,0.5,1.9,0.4,2.5-0.3l3.3-3.3l2.9,2.9
				l-3.3,3.3c-0.7,0.7-0.8,1.7-0.3,2.5c0.7,1.2,1.2,2.4,1.6,3.8c0.2,0.9,1.1,1.6,2,1.6h4.7L95.9,77.1L95.9,77.1z"/>
		</g>
	</g>
	<g>
		<g>
			<path class="st0" d="M75.1,66.7c-4.6,0-8.3,3.7-8.3,8.3s3.7,8.3,8.3,8.3c4.6,0,8.3-3.7,8.3-8.3C83.4,70.4,79.7,66.7,75.1,66.7z
				 M75.1,79.2c-2.3,0-4.2-1.9-4.2-4.2s1.9-4.2,4.2-4.2s4.2,1.9,4.2,4.2S77.4,79.2,75.1,79.2z"/>
		</g>
	</g>
	<g>
		<g>
			<path class="st0" d="M89.6,0H10.5C4.7,0.1,0.1,4.7,0.1,10.5v79.2c0,5.8,4.7,10.4,10.4,10.4h45.8v-4.2H10.5
				c-3.5,0-6.2-2.8-6.2-6.2V10.5C4.2,7,7,4.2,10.5,4.2h79.2c3.5,0,6.2,2.8,6.2,6.2V50h4.2V10.5C100,4.7,95.4,0.1,89.6,0z"/>
		</g>
	</g>
	<g>
		<g>
			<rect x="8.4" y="16.7" class="st0" width="83.3" height="4.2"/>
		</g>
	</g>
	<g>
		<g>
			<rect x="10.5" y="8.4" class="st0" width="4.2" height="4.2"/>
		</g>
	</g>
	<g>
		<g>
			<rect x="18.8" y="8.4" class="st0" width="4.2" height="4.2"/>
		</g>
	</g>
	<g>
		<g>
			<rect x="85.5" y="8.4" class="st0" width="4.2" height="4.2"/>
		</g>
	</g>
	<g>
		<g>
			<rect x="33.4" y="25" class="st0" width="4.2" height="66.7"/>
		</g>
	</g>
	<g>
		<g>
			<path class="st0" d="M85.5,31.3H48c-2.3,0-4.2,1.9-4.2,4.2v4.2c0,2.3,1.9,4.2,4.2,4.2h37.5c2.3,0,4.2-1.9,4.2-4.2v-4.2
				C89.6,33.2,87.8,31.3,85.5,31.3z M85.5,39.6H48v-4.2h37.5V39.6z"/>
		</g>
	</g>
	<g>
		<g>
			<rect x="43.8" y="48" class="st0" width="4.2" height="4.2"/>
		</g>
	</g>
	<g>
		<g>
			<rect x="43.8" y="56.3" class="st0" width="4.2" height="4.2"/>
		</g>
	</g>
	<g>
		<g>
			<rect x="52.1" y="48" class="st0" width="4.2" height="4.2"/>
		</g>
	</g>
	<g>
		<g>
			<rect x="12.6" y="35.5" class="st0" width="10.4" height="4.2"/>
		</g>
	</g>
	<g>
		<g>
			<rect x="12.6" y="45.9" class="st0" width="10.4" height="4.2"/>
		</g>
	</g>
	<g>
		<g>
			<rect x="12.6" y="56.3" class="st0" width="10.4" height="4.2"/>
		</g>
	</g>
	<g>
		<g>
			<rect x="12.6" y="66.7" class="st0" width="10.4" height="4.2"/>
		</g>
	</g>
	<g>
		<g>
			<rect x="12.6" y="77.1" class="st0" width="10.4" height="4.2"/>
		</g>
	</g>
</g>
</svg>
