<?xml version="1.0" encoding="utf-8"?>
<!-- Generator: Adobe Illustrator 25.0.1, SVG Export Plug-In . SVG Version: 6.00 Build 0)  -->
<svg version="1.1" id="Layer_1" xmlns="http://www.w3.org/2000/svg" xmlns:xlink="http://www.w3.org/1999/xlink" x="0px" y="0px"
	 viewBox="0 0 75 75" style="enable-background:new 0 0 75 75;" xml:space="preserve">
<style type="text/css">
	.st0{fill:#48BA13;}
</style>
<g>
	<g>
		<g>
			<rect x="17.5" y="67.6" class="st0" width="9.5" height="2.4"/>
		</g>
		<g>
			<path class="st0" d="M43.8,15.1V6.8c0-3.3-2.7-6-6-6h-31c-3.3,0-6,2.7-6,6v62.1c0,3.3,2.7,6,6,6h31c3.3,0,6-2.7,6-6V58.1h31v-43
				H43.8z M3.2,6.8c0-2,1.6-3.6,3.6-3.6h31c2,0,3.6,1.6,3.6,3.6V8H3.2V6.8z M41.4,68.8c0,2-1.6,3.6-3.6,3.6h-31
				c-2,0-3.6-1.6-3.6-3.6v-3.6h38.2V68.8z M41.4,62.9H3.2V10.3h38.2v4.8h-17v43h17V62.9z M41.1,24.7v-2.4h7.2v11.9h-2.4v-9.5H41.1z
				 M38.7,17.5v11.9H26.8V17.5H38.7z M26.8,43.8h11.9v11.9H26.8V43.8z M72.4,55.7H41.1V41.4H26.8v-9.5h14.3v-4.8h2.4v9.5h7.2V19.9
				h-9.5v-2.4h17v2.4H53v7.2h5.1v4.8h14.3V55.7z M58.1,22.3v2.4h-2.7v-2.4H58.1z M72.4,29.4H60.5V17.5h11.9V29.4z"/>
		</g>
		<g>
			<path class="st0" d="M36.3,19.9h-7.2v7.2h7.2V19.9z M33.9,24.7h-2.4v-2.4h2.4V24.7z"/>
		</g>
		<g>
			<path class="st0" d="M70,19.9h-7.2v7.2H70V19.9z M67.6,24.7h-2.4v-2.4h2.4V24.7z"/>
		</g>
		<g>
			<path class="st0" d="M29.2,53.3h7.2v-7.2h-7.2V53.3z M31.5,48.5h2.4v2.4h-2.4V48.5z"/>
		</g>
		<g>
			<path class="st0" d="M58.1,43.8h4.8v9.5H70V36.6H58.1V43.8z M60.5,39h7.2v11.9h-2.4v-9.5h-4.8V39z"/>
		</g>
		<g>
			<path class="st0" d="M43.5,53.3h7.2v-7.2h-7.2V53.3z M45.9,48.5h2.4v2.4h-2.4V48.5z"/>
		</g>
		<g>
			<rect x="29.2" y="36.6" class="st0" width="11.9" height="2.4"/>
		</g>
		<g>
			<path class="st0" d="M55.4,39h-7.2v7.2h7.2V39z M53,43.8h-2.4v-2.4H53V43.8z"/>
		</g>
		<g>
			<rect x="43.5" y="39" class="st0" width="2.4" height="4.8"/>
		</g>
		<g>
			<path class="st0" d="M12.3,32.5c0-0.5-0.4-1-1-1H8.9c-0.6,0-1,0.5-1,1v15.8c0,0.5-0.4,1-1,1H6c-0.5,0-0.8,0.4-0.5,0.9l4.1,7.2
				c0.3,0.5,0.7,0.5,1,0l4.1-7.2c0.3-0.5,0-0.9-0.5-0.9h-0.9c-0.6,0-1-0.5-1-1V32.5z"/>
		</g>
		<g>
			<path class="st0" d="M12.9,23.1c-0.3,0.5,0,0.9,0.5,0.9h0.9c0.5,0,1,0.4,1,1v15.8c0,0.5,0.4,1,1,1h2.3c0.6,0,1-0.5,1-1V25
				c0-0.6,0.5-1,1-1h0.9c0.6,0,0.8-0.4,0.5-0.9L18,16c-0.3-0.5-0.7-0.5-1,0L12.9,23.1z"/>
		</g>
	</g>
</g>
</svg>
