<?xml version="1.0" encoding="utf-8"?>
<!-- Generator: Adobe Illustrator 25.0.1, SVG Export Plug-In . SVG Version: 6.00 Build 0)  -->
<svg version="1.1" id="Layer_1" xmlns="http://www.w3.org/2000/svg" xmlns:xlink="http://www.w3.org/1999/xlink" x="0px" y="0px"
	 viewBox="0 0 75 75" style="enable-background:new 0 0 75 75;" xml:space="preserve">
<style type="text/css">
	.st0{fill:#48BA13;}
</style>
<g>
	<g>
		<g>
			<path class="st0" d="M73.4,31h-9.2c-0.8,0-1.4,0.6-1.4,1.4v7.3c0,0.8,0.6,1.4,1.4,1.4c0.8,0,1.4-0.6,1.4-1.4v-5.9h6.4v38h-3.2
				h-3.2V50.6c0-0.8-0.6-1.4-1.4-1.4c-0.8,0-1.4,0.6-1.4,1.4v21.4h-2.9V42c0-0.8-0.6-1.4-1.4-1.4h-9.2c-0.8,0-1.4,0.6-1.4,1.4v29.9
				h-2.9V52.1c0-0.8-0.6-1.4-1.4-1.4h-9.2c-0.8,0-1.4,0.6-1.4,1.4v19.8h-2.9V60.4c0-0.8-0.6-1.4-1.4-1.4H19c-0.8,0-1.4,0.6-1.4,1.4
				v11.5H5.1c-0.8,0-1.4-0.6-1.4-1.4V5.1c0-0.8,0.6-1.4,1.4-1.4h37.3v9.5c0,2.4,1.9,4.3,4.3,4.3h9.5v17.8c0,0.8,0.6,1.4,1.4,1.4
				c0.8,0,1.4-0.6,1.4-1.4V16.1c0-0.4-0.2-0.8-0.4-1L44.9,1.2c-0.3-0.3-0.6-0.4-1-0.4H5.1c-2.4,0-4.3,1.9-4.3,4.3v65.3
				c0,2.4,1.9,4.3,4.3,4.3h68.2c0.8,0,1.4-0.6,1.4-1.4V32.4C74.8,31.6,74.2,31,73.4,31z M45.3,5.7l8.9,8.9h-7.5
				c-0.8,0-1.4-0.6-1.4-1.4V5.7z M26.8,71.9h-6.4V61.8h6.4V71.9z M41.9,71.9h-6.4V53.6h6.4V71.9z M56.9,71.9h-6.4V43.4h6.4V71.9z"/>
		</g>
	</g>
	<g>
		<g>
			<path class="st0" d="M65.1,43.8c-0.3-0.3-0.6-0.4-1-0.4c-0.4,0-0.8,0.2-1,0.4c-0.3,0.3-0.4,0.6-0.4,1c0,0.4,0.2,0.8,0.4,1
				c0.3,0.3,0.6,0.4,1,0.4c0.4,0,0.8-0.2,1-0.4c0.3-0.3,0.4-0.6,0.4-1C65.6,44.5,65.4,44.1,65.1,43.8z"/>
		</g>
	</g>
	<g>
		<g>
			<path class="st0" d="M21.8,8.7c-0.8,0-1.4,0.6-1.4,1.4v2.6C13.8,13.5,8.6,19.1,8.6,26c0,7.3,6,13.3,13.3,13.3
				c6.8,0,12.5-5.2,13.2-11.8h2.6c0.8,0,1.4-0.6,1.4-1.4C39.1,16.5,31.4,8.7,21.8,8.7z M21.8,36.4c-5.7,0-10.4-4.7-10.4-10.4
				c0-5.2,3.9-9.6,9-10.3V26c0,0.8,0.6,1.4,1.4,1.4h10.3C31.4,32.5,27.1,36.4,21.8,36.4z M23.3,24.5L23.3,24.5V11.7
				c6.8,0.7,12.2,6.1,12.9,12.9H23.3z"/>
		</g>
	</g>
	<g>
		<g>
			<path class="st0" d="M37.7,43.3H10.1c-0.8,0-1.4,0.6-1.4,1.4c0,0.8,0.6,1.4,1.4,1.4h27.6c0.8,0,1.4-0.6,1.4-1.4
				C39.1,44,38.5,43.3,37.7,43.3z"/>
		</g>
	</g>
	<g>
		<g>
			<path class="st0" d="M19.3,50.3h-9.2c-0.8,0-1.4,0.6-1.4,1.4c0,0.8,0.6,1.4,1.4,1.4h9.2c0.8,0,1.4-0.6,1.4-1.4
				C20.8,50.9,20.1,50.3,19.3,50.3z"/>
		</g>
	</g>
	<g>
		<g>
			<path class="st0" d="M27.6,50.7c-0.3-0.3-0.6-0.4-1-0.4c-0.4,0-0.8,0.2-1,0.4c-0.3,0.3-0.4,0.6-0.4,1c0,0.4,0.2,0.8,0.4,1
				c0.3,0.3,0.6,0.4,1,0.4c0.4,0,0.8-0.2,1-0.4c0.3-0.3,0.4-0.6,0.4-1C28,51.4,27.8,51,27.6,50.7z"/>
		</g>
	</g>
</g>
</svg>
