<?xml version="1.0" encoding="utf-8"?>
<!-- Generator: Adobe Illustrator 25.0.1, SVG Export Plug-In . SVG Version: 6.00 Build 0)  -->
<svg version="1.1" id="Layer_1" xmlns="http://www.w3.org/2000/svg" xmlns:xlink="http://www.w3.org/1999/xlink" x="0px" y="0px"
	 viewBox="0 0 43 40" style="enable-background:new 0 0 43 40;" xml:space="preserve">
<style type="text/css">
	.st0{opacity:0.5;fill:#CCCCCC;enable-background:new    ;}
	.st1{opacity:0.5;fill:#B3B3B3;enable-background:new    ;}
	.st2{fill:#FFFFFF;}
	.st3{fill:none;stroke:#CCCCCC;stroke-miterlimit:10;}
</style>
<g>
	<path class="st0" d="M39,19.3c0,10.6-8.6,19.2-19.2,19.2c-10.6,0-19.2-8.6-19.2-19.2c0-0.2,0-0.5,0-0.7C0.9,7.9,9.8-0.4,20.4,0
		C30.8,0.4,39,8.9,39,19.3z"/>
	<path class="st1" d="M37.1,26.8c0,0.2,0,0.5,0,0.7c-4.5,9.6-16,13.7-25.6,9.2c-6.7-3.2-11-10-11-17.4c0-0.2,0-0.5,0-0.7
		C5,8.9,16.5,4.8,26.1,9.4C32.8,12.5,37.1,19.3,37.1,26.8L37.1,26.8z"/>
	<g>
		<polygon class="st2" points="6.9,15.1 10.9,12.1 16.4,19.5 38.3,1.6 41.5,5.5 15.6,26.7 		"/>
		<polygon class="st3" points="6.9,15.1 10.9,12.1 16.4,19.5 38.3,1.6 41.5,5.5 15.6,26.7 		"/>
	</g>
</g>
</svg>
