<?xml version="1.0" encoding="utf-8"?>
<!-- Generator: Adobe Illustrator 25.0.1, SVG Export Plug-In . SVG Version: 6.00 Build 0)  -->
<svg version="1.1" id="Layer_1" xmlns="http://www.w3.org/2000/svg" xmlns:xlink="http://www.w3.org/1999/xlink" x="0px" y="0px"
	 viewBox="0 0 190 75" style="enable-background:new 0 0 190 75;" xml:space="preserve">
<style type="text/css">
	.st0{fill:#999999;}
</style>
<g id="layer1" transform="translate(-225,-473.34125)">
	<g id="g11978" transform="matrix(1.696107,0,0,1.696107,-581.02544,-1190.5984)">
		<g id="g2647" transform="matrix(1.25,0,0,-1.25,475.22088,1007.4466)">
			<path id="path2649" class="st0" d="M1,7.5c0-0.4,0.2-0.8,0.6-1C2.2,6.2,2.9,6.4,3.3,7c3.7,6.6,10.2,11,17.6,11
				c6.4,0,13-4,17.2-9.9C35.8,5,33.1,2.6,30.3,1c0.7,1.2,1.2,2.5,1.2,4c0,5.5-4.8,9.9-10.7,9.9c-7,0-12.7-5.5-12.7-12.3
				C8.2-6,15.3-13,24.6-13.9l0.1,0c0.6,0,1.1,0.5,1.2,1.1c0.1,0.7-0.4,1.2-1.1,1.3c-8.1,0.8-14.3,6.8-14.3,14.2
				c0,5.5,4.6,9.9,10.3,9.9c4.6,0,8.3-3.4,8.3-7.5c0-3.2-2.9-5.9-5.9-5.9c-3.1,0-5.5,2.1-5.5,4.7c0,1.7,1.4,3.2,3.2,3.2
				c1.4,0,2.5-1,2.7-2.3c0.1-0.6,0.7-1.1,1.4-1c0.6,0.1,1.1,0.7,1,1.4c-0.4,2.4-2.5,4.3-5.1,4.3c-3.1,0-5.5-2.5-5.5-5.5
				c0-3.9,3.5-7.1,7.9-7.1c6.1,0,13.1,4.5,17.6,11.5c-4.6,7.3-12.3,12.3-20,12.3c-8.3,0-15.5-4.9-19.6-12.3C1.1,7.9,1,7.7,1,7.5"/>
		</g>
		<g id="g2651" transform="matrix(1.25,0,0,-1.25,569.739,984.66935)">
			<path id="path2653" class="st0" d="M-27.6,0.6v-7.1c0-0.7-0.5-1.1-1.1-1.1h0c-0.6,0-1.1,0.3-1.1,1.1v7.1h-1.9
				c-0.5,0-0.8,0.3-0.8,0.7v0c0,0.5,0.3,0.7,0.8,0.7h6c0.5,0,0.8-0.3,0.8-0.7v0c0-0.5-0.3-0.7-0.8-0.7H-27.6z"/>
		</g>
		<g id="g2655" transform="matrix(1.25,0,0,-1.25,581.05538,999.1771)">
			<path id="path2657" class="st0" d="M-31,5c0-0.6-0.4-1-1-1h0c-0.6,0-1,0.3-1,1v5.4c0,0.7,0.3,1,1,1h0c0.7,0,1-0.4,1-1.4V5z
				 M-32,11.9c-0.6,0-1.1,0.5-1.1,1.1c0,0.6,0.5,1.1,1.1,1.1c0.6,0,1.1-0.5,1.1-1.1C-30.9,12.4-31.4,11.9-32,11.9"/>
		</g>
		<g id="g2659" transform="matrix(1.25,0,0,-1.25,588.4925,990.16123)">
			<path id="path2661" class="st0" d="M-33.2,2.3v-4.5c0-0.6-0.4-1-1-1h0c-0.6,0-1,0.3-1,1v5.4c0,0.7,0.3,1,1,1h0
				c0.5,0,0.8-0.2,1-0.9c0.6,0.5,1.6,0.9,2.6,0.9c0.7,0,1.4-0.2,1.7-0.9c0.7,0.6,1.7,0.9,2.7,0.9c1,0,1.9-0.5,1.9-2v-4.4
				c0-0.6-0.4-1-1-1h0c-0.6,0-1,0.3-1,1v3.9c0,0.7-0.2,0.9-0.8,0.9c-0.6,0-1.1-0.2-1.5-0.3v-4.5c0-0.6-0.4-1-1-1h0c-0.6,0-1,0.3-1,1
				v3.9c0,0.7-0.2,0.9-0.8,0.9C-32.3,2.6-32.8,2.5-33.2,2.3"/>
		</g>
		<g id="g2663" transform="matrix(1.25,0,0,-1.25,612.84688,992.2156)">
			<path id="path2665" class="st0" d="M-40.6,2.9h2.7c0,1.3-0.5,1.7-1.3,1.7C-39.9,4.6-40.4,4.3-40.6,2.9 M-40.6,1.7
				c0.1-1.4,0.8-1.8,1.9-1.8c1.2,0,1.5,0.6,2,0.6c0.4,0,0.6-0.2,0.6-0.7v0c0-0.4-0.2-0.7-0.6-0.9C-37.3-1.4-38-1.6-39-1.6
				c-2.4,0-3.7,1.4-3.7,3.7c0,2.3,1.5,3.8,3.5,3.8c2.2,0,3.2-1.4,3.2-3.3c0-0.6-0.3-0.9-1-0.9H-40.6z"/>
		</g>
		<g id="g2667" transform="matrix(1.25,0,0,-1.25,579.93225,1006.9135)">
			<path id="path2669" class="st0" d="M-30.6,7.4c0.1,0.6,0.5,0.9,0.9,0.9h0c0.7,0,1-0.5,0.9-1.2l-1.8-7.4c-0.2-0.9-0.7-1.2-1.4-1.2
				h-0.1c-0.7,0-1.2,0.3-1.4,1.3l-1.2,5.1h0l-1.2-5.2c-0.2-0.9-0.7-1.2-1.4-1.2h-0.1c-0.7,0-1.2,0.3-1.4,1.2l-1.7,7.2
				c-0.2,0.8,0.2,1.4,0.9,1.4h0.1c0.5,0,0.9-0.3,1.1-1l1.3-6.1h0l1.4,6c0.2,0.7,0.5,1.1,1.1,1.1h0c0.6,0,1-0.3,1.1-1.1l1.5-6h0
				L-30.6,7.4z"/>
		</g>
		<g id="g2671" transform="matrix(1.25,0,0,-1.25,592.72975,1021.1996)">
			<path id="path2673" class="st0" d="M-34.5,11.7v1.4c-0.3,0.1-0.7,0.1-1,0.1c-0.8,0-1.3-0.3-1.3-1c0-0.7,0.5-1,1.1-1
				C-35.3,11.1-34.8,11.4-34.5,11.7 M-34.4,10.7c-0.5-0.6-1.2-0.8-2.1-0.8c-1.4,0-2.3,0.7-2.3,2.2c0,1.5,1.2,2.3,2.9,2.3
				c0.6,0,1-0.1,1.4-0.2v0.7c0,0.7-0.4,1-1.3,1c-1.1,0-1.3-0.6-1.9-0.6c-0.4,0-0.6,0.3-0.6,0.7v0c0,0.4,0.2,0.7,0.7,0.9
				c0.5,0.2,1.2,0.4,2.1,0.4c2,0,3-0.7,3-2.3v-4.1c0-0.7-0.2-1-0.9-1h0C-33.9,9.9-34.2,10.1-34.4,10.7"/>
		</g>
		<g id="g2675" transform="matrix(1.25,0,0,-1.25,603.96413,1011.9063)">
			<path id="path2677" class="st0" d="M-37.9,8.9c0.5,0.5,1.3,1,1.8,1c0.4,0,0.7-0.2,0.7-0.8v0c0-0.6-0.3-0.9-0.9-0.9
				C-37,8-37.5,7.9-37.9,7.8V3.4c0-0.6-0.4-1-1-1h0c-0.6,0-1,0.3-1,1v5.4c0,0.7,0.3,1,1,1h0C-38.4,9.8-38,9.5-37.9,8.9"/>
		</g>
		<g id="g2679" transform="matrix(1.25,0,0,-1.25,615.31075,1013.8211)">
			<path id="path2681" class="st0" d="M-41.3,9.5V5c0-0.6-0.4-1-1-1h0c-0.6,0-1,0.3-1,1v5.4c0,0.7,0.3,1,1,1h0c0.5,0,0.8-0.2,1-0.9
				c0.7,0.5,1.7,0.9,2.7,0.9c1,0,1.9-0.4,1.9-2V5c0-0.6-0.4-1-1-1h0c-0.6,0-1,0.3-1,1v3.9c0,0.7-0.3,0.9-0.9,0.9
				C-40.3,9.8-40.9,9.6-41.3,9.5"/>
		</g>
		<g id="g2683" transform="matrix(1.25,0,0,-1.25,631.12363,1015.8721)">
			<path id="path2685" class="st0" d="M-46.1,10.1h2.7c0,1.3-0.5,1.7-1.3,1.7C-45.4,11.8-46,11.4-46.1,10.1 M-46.1,8.9
				c0.1-1.4,0.8-1.8,1.9-1.8c1.2,0,1.5,0.6,2,0.6c0.4,0,0.6-0.2,0.6-0.7v0c0-0.4-0.2-0.7-0.6-0.9c-0.5-0.3-1.2-0.4-2.3-0.4
				c-2.4,0-3.7,1.4-3.7,3.7c0,2.3,1.5,3.8,3.5,3.8c2.2,0,3.2-1.4,3.2-3.3c0-0.6-0.3-0.9-1-0.9H-46.1z"/>
		</g>
		<g id="g2687" transform="matrix(1.25,0,0,-1.25,646.99025,1011.9063)">
			<path id="path2689" class="st0" d="M-50.9,8.9c0.5,0.5,1.3,1,1.8,1c0.4,0,0.7-0.2,0.7-0.8v0c0-0.6-0.3-0.9-0.9-0.9
				C-50,8-50.5,7.9-50.9,7.8V3.4c0-0.6-0.4-1-1-1h0c-0.6,0-1,0.3-1,1v5.4c0,0.7,0.3,1,1,1h0C-51.4,9.8-51.1,9.5-50.9,8.9"/>
		</g>
		<g id="g2691" transform="matrix(1.25,0,0,-1.25,569.26513,1048.5759)">
			<path id="path2693" class="st0" d="M-27.4,20c-2.8,0-4.6,1.8-4.6,4.9c0,3.1,2,5,4.8,5c0.9,0,1.5-0.1,2.1-0.4
				c0.5-0.2,0.8-0.6,0.8-1.1v0c0-0.5-0.3-0.8-0.7-0.8c-0.6,0-1,0.7-2.2,0.7c-1.6,0-2.5-1.2-2.5-3.3c0-2.3,0.8-3.5,2.5-3.5
				c1.5,0,1.7,1,2.3,1c0.4,0,0.7-0.3,0.7-0.8v-0.1c0-0.5-0.3-0.9-0.9-1.2C-25.7,20.2-26.6,20-27.4,20"/>
		</g>
		<g id="g2695" transform="matrix(1.25,0,0,-1.25,586.35525,1044.8568)">
			<path id="path2697" class="st0" d="M-32.6,18.8v1.4c-0.3,0.1-0.7,0.1-1,0.1c-0.8,0-1.3-0.3-1.3-1c0-0.7,0.5-1,1.1-1
				C-33.3,18.3-32.9,18.5-32.6,18.8 M-32.5,17.8c-0.5-0.6-1.2-0.8-2.1-0.8c-1.4,0-2.3,0.7-2.3,2.2c0,1.5,1.2,2.3,2.9,2.3
				c0.6,0,1-0.1,1.4-0.2V22c0,0.7-0.4,1-1.3,1c-1.1,0-1.3-0.6-1.9-0.6c-0.4,0-0.6,0.3-0.6,0.7v0c0,0.4,0.2,0.7,0.7,0.9
				c0.5,0.2,1.2,0.4,2.1,0.4c2,0,3-0.7,3-2.3v-4.1c0-0.7-0.2-1-0.9-1h0C-32,17-32.3,17.3-32.5,17.8"/>
		</g>
		<g id="g2699" transform="matrix(1.25,0,0,-1.25,597.70013,1037.396)">
			<path id="path2701" class="st0" d="M-36,16.6v-3.7c0.3-0.3,0.7-0.4,1.3-0.4c0.8,0,1.6,0.4,1.6,2.2c0,1.9-0.7,2.3-1.6,2.3
				C-35.1,17-35.6,16.8-36,16.6 M-36,19.4v-1.7c0.5,0.5,1.3,0.8,2.2,0.8c1.4,0,2.8-0.9,2.8-3.6c0-2.8-1.5-3.8-3.1-3.8
				c-0.9,0-1.6,0.3-2.1,0.7c-0.2-0.4-0.6-0.7-0.9-0.7h0c-0.6,0-0.9,0.3-0.9,1v7.8c0,0.7,0.3,1,1,1h0C-36.3,20.9-36,20.4-36,19.4"/>
		</g>
		<g id="g2703" transform="matrix(1.25,0,0,-1.25,614.42863,1031.6796)">
			<path id="path2705" class="st0" d="M-41.1,14.9V7.5c0-0.6-0.4-1-1-1h0c-0.6,0-1,0.3-1,1v7.8c0,0.7,0.3,1,1,1h0
				C-41.4,16.3-41.1,15.9-41.1,14.9"/>
		</g>
		<g id="g2707" transform="matrix(1.25,0,0,-1.25,621.2255,1039.5301)">
			<path id="path2709" class="st0" d="M-43.1,17.2h2.7c0,1.3-0.5,1.7-1.3,1.7C-42.4,18.9-43,18.6-43.1,17.2 M-43.2,16
				c0.1-1.4,0.8-1.9,1.9-1.9c1.2,0,1.5,0.6,2,0.6c0.4,0,0.6-0.2,0.6-0.7v0c0-0.4-0.2-0.7-0.6-0.9c-0.5-0.3-1.2-0.4-2.3-0.4
				c-2.4,0-3.7,1.4-3.7,3.7c0,2.3,1.5,3.8,3.5,3.8c2.2,0,3.2-1.4,3.2-3.3c0-0.6-0.3-0.9-1-0.9H-43.2z"/>
		</g>
		<g id="g2711" transform="matrix(1.25,0,0,-1.25,635.32125,1036.3649)">
			<path id="path2713" class="st0" d="M-47.4,16.3h0.2c0.2,0,0.2,0.1,0.2,0.2c0,0.1-0.1,0.2-0.2,0.2h-0.2V16.3z M-46.6,15.7
				c0.1-0.1,0-0.3-0.2-0.3h0c-0.1,0-0.2,0.1-0.2,0.2l-0.2,0.4h-0.2v-0.4c0-0.1-0.1-0.2-0.2-0.2h0c-0.1,0-0.2,0.1-0.2,0.2v1.1
				c0,0.2,0.1,0.3,0.3,0.3h0.4c0.4,0,0.6-0.2,0.6-0.5c0-0.2-0.1-0.3-0.3-0.4L-46.6,15.7z M-47.2,15c0.7,0,1.2,0.4,1.2,1.2
				c0,0.8-0.5,1.2-1.2,1.2c-0.7,0-1.2-0.4-1.2-1.2C-48.4,15.4-47.9,15-47.2,15 M-47.2,14.7c-0.8,0-1.5,0.6-1.5,1.5
				c0,0.9,0.7,1.5,1.5,1.5c0.8,0,1.5-0.6,1.5-1.5C-45.7,15.3-46.4,14.7-47.2,14.7"/>
		</g>
	</g>
</g>
</svg>
