<?xml version="1.0" encoding="utf-8"?>
<!-- Generator: Adobe Illustrator 25.0.1, SVG Export Plug-In . SVG Version: 6.00 Build 0)  -->
<svg version="1.1" id="Layer_1" xmlns="http://www.w3.org/2000/svg" xmlns:xlink="http://www.w3.org/1999/xlink" x="0px" y="0px"
	 viewBox="0 0 75 75" style="enable-background:new 0 0 75 75;" xml:space="preserve">
<style type="text/css">
	.st0{fill:#48BA13;}
</style>
<g>
	<g>
		<g>
			<path class="st0" d="M37.8,39.5c-0.3,0-0.6-0.1-0.8-0.3l-4.9-3.8c-2.5-1.9-4.2-4.7-4.7-7.8L26.1,20c-0.1-0.6,0.2-1.1,0.7-1.4
				l3.6-2l1.3,2.4l-2.8,1.5l1.2,6.7c0.4,2.4,1.7,4.6,3.7,6.1l4.1,3.2l4-3.1c2-1.5,3.3-3.7,3.7-6.1l1.2-6.7L43.9,19l1.3-2.4l3.6,2
				c0.5,0.3,0.8,0.9,0.7,1.4l-1.3,7.7c-0.5,3.1-2.2,5.9-4.8,7.8l-4.8,3.7C38.4,39.4,38.1,39.5,37.8,39.5z"/>
		</g>
		<g>
			<path class="st0" d="M37.8,15.7l-4.2,2.3l-1.3-2.4l4.8-2.6c0.2-0.1,0.4-0.2,0.6-0.2c0.2,0,0.4,0.1,0.6,0.2l4.8,2.6L42,17.9
				L37.8,15.7z"/>
		</g>
		<g>
			<path class="st0" d="M37.8,29.9c-0.4,0-0.7-0.1-1-0.4l-3.6-3.6l1.9-1.9l2.6,2.6l5-6l2.1,1.7l-5.9,7.1
				C38.6,29.7,38.2,29.9,37.8,29.9L37.8,29.9z"/>
		</g>
		<g>
			<rect x="36.5" y="31.8" class="st0" width="2.7" height="2.7"/>
		</g>
		<g>
			<rect x="36.5" y="17.9" class="st0" width="2.7" height="2.7"/>
		</g>
		<g>
			<rect x="12.2" y="4.1" class="st0" width="2.7" height="2.7"/>
		</g>
		<g>
			<rect x="16.8" y="4.1" class="st0" width="2.7" height="2.7"/>
		</g>
		<g>
			<rect x="21.4" y="4.1" class="st0" width="2.7" height="2.7"/>
		</g>
		<g>
			<rect x="58.4" y="4.1" class="st0" width="5" height="2.7"/>
		</g>
		<g>
			<rect x="53.8" y="16.8" class="st0" width="7.3" height="2.7"/>
		</g>
		<g>
			<path class="st0" d="M49.4,16.2l3.6-3.6c0.3-0.3,0.6-0.4,1-0.4h7.1v2.7h-6.6l-3.2,3.2L49.4,16.2z"/>
		</g>
		<g>
			<rect x="14.5" y="33" class="st0" width="9.7" height="2.7"/>
		</g>
		<g>
			<path class="st0" d="M14.5,40.3v-2.7h8.9l3.2-3.2l1.9,1.9l-3.6,3.6c-0.3,0.3-0.6,0.4-1,0.4H14.5z"/>
		</g>
		<g>
			<path class="st0" d="M33,54.2v-2.7h4.2l0,0.2c-0.1,0.8-0.2,1.5-0.3,2.3l0,0.2H33z"/>
		</g>
		<g>
			<g>
				<path class="st0" d="M8.9,44.9c-0.7,0-1.4-0.6-1.4-1.4V2c0-0.7,0.6-1.4,1.4-1.4h57.8c0.7,0,1.4,0.6,1.4,1.4v33.7h-2.7V10.2H10.3
					v32h31.9l-0.3,0.3c-0.7,0.7-1.3,1.5-1.8,2.3L40,44.9H8.9z M65.4,7.5V3.3H10.3v4.2H65.4z"/>
			</g>
			<g>
				<path class="st0" d="M67.7,41.8c-0.7-0.7-1.5-1.3-2.3-1.8l-0.1-0.1v-2.3h2.7v4.5L67.7,41.8z"/>
			</g>
		</g>
		<g>
			<g>
				<path class="st0" d="M73.2,58.4c0.2-1.1,0.3-2.2,0.3-3.2c0-2.8-0.6-5.5-1.8-8l-0.1-0.3h0.8V10.2H70V7.5h2.5
					c1.4,0,2.5,1.1,2.5,2.5v46.2c0,1-0.6,1.9-1.5,2.3l-0.3,0.1L73.2,58.4z"/>
			</g>
			<g>
				<path class="st0" d="M20.5,75c-0.7,0-1.4-0.6-1.4-1.4v-2.3c0-2,1.6-3.7,3.7-3.7h3.7l1.6-8.8h-25c-1.4,0-2.5-1.1-2.5-2.5V10
					c0-1.4,1.1-2.5,2.5-2.5h2.5v2.7H3.3v36.6h35.5l-0.1,0.3c-0.4,0.7-0.7,1.5-0.9,2.3l0,0.1H3.3v6.5h33.6l0,0.2
					c0,0.8,0.1,1.5,0.3,2.3l0,0.2h-6.4l-1.6,8.8h12.6l0.1,0.1c0.8,0.8,1.7,1.6,2.6,2.3l0.5,0.4H22.8c-0.5,0-1,0.4-1,1v1h26.8
					c2.1,0.8,4.3,1.2,6.5,1.2c0.4,0,0.7,0,1.1,0l0.2,0v0.2c0,0.8-0.6,1.4-1.4,1.4H20.5z"/>
			</g>
		</g>
		<g>
			<g>
				<path class="st0" d="M55.2,73.9c-10.3,0-18.7-8.4-18.7-18.7s8.4-18.7,18.7-18.7s18.7,8.4,18.7,18.7S65.5,73.9,55.2,73.9z
					 M55.2,39.1c-8.8,0-16,7.2-16,16s7.2,16,16,16s16-7.2,16-16S64,39.1,55.2,39.1z"/>
			</g>
		</g>
		<g>
			<path class="st0" d="M55.1,63.9c-0.3,0-0.5-0.2-0.7-0.5l-4.1-7.2c-0.2-0.3-0.2-0.6-0.1-0.8s0.4-0.4,0.7-0.4h0.9
				c0.4,0,0.8-0.4,0.8-0.8v-6.8c0-0.7,0.5-1.2,1.2-1.2h2.3c0.7,0,1.2,0.5,1.2,1.2v6.8c0,0.4,0.4,0.8,0.8,0.8h0.9
				c0.3,0,0.6,0.1,0.7,0.4s0.1,0.5-0.1,0.8l-4.1,7.2C55.6,63.7,55.4,63.9,55.1,63.9z"/>
		</g>
	</g>
</g>
</svg>
