<?xml version="1.0" encoding="utf-8"?>
<!-- Generator: Adobe Illustrator 25.0.1, SVG Export Plug-In . SVG Version: 6.00 Build 0)  -->
<svg version="1.1" id="Layer_1" xmlns="http://www.w3.org/2000/svg" xmlns:xlink="http://www.w3.org/1999/xlink" x="0px" y="0px"
	 viewBox="0 0 103 103" style="enable-background:new 0 0 103 103;" xml:space="preserve">
<style type="text/css">
	.st0{fill:#48BA13;}
</style>
<g>
	<g>
		<g>
			<path class="st0" d="M80,99.5L69.2,88.7c-0.4-0.4-0.9-0.6-1.4-0.6c0,0,0,0,0,0l-5.8,0c0,0,0,0,0,0c-3.2,0-6.4-0.6-9.4-1.7
				l3.5-2.3c1.4-1,2.4-2.4,2.7-4.1c0.3-1.7-0.1-3.4-1-4.8c-1.2-1.7-3.2-2.7-5.2-2.7c0,0-0.1,0-0.1,0l8-8c2.4-2.4,2.4-6.4,0-8.8
				c-0.6-0.6-1.3-1-2-1.4c0.6-0.9,0.9-2,0.9-3.2c0-1.7-0.6-3.2-1.8-4.4c-1.2-1.2-2.7-1.8-4.4-1.8c-1.1,0-2.2,0.3-3.2,0.9
				c-0.3-0.8-0.8-1.4-1.4-2c-1.2-1.2-2.7-1.8-4.4-1.8s-3.2,0.6-4.4,1.8l-2.9,2.9c-0.3-0.7-0.7-1.3-1.3-1.8c-1.2-1.2-2.7-1.8-4.4-1.8
				s-3.2,0.6-4.4,1.8l-1.3,1.3l-5.2-5.2c-1.5-1.5-1.5-4,0-5.5c1.4-1.4,3.7-1.5,5.2-0.3l5,5c0.4,0.4,0.9,0.6,1.4,0.6
				c0.5,0,1-0.2,1.4-0.6c0.8-0.8,0.8-2.1,0-2.8l-8.7-8.7c-1.5-1.5-1.5-4,0-5.5c1.5-1.5,4-1.5,5.5,0l15.2,15.2
				c0.4,0.4,0.9,0.6,1.4,0.6s1-0.2,1.4-0.6c0.8-0.8,0.8-2.1,0-2.8L36.5,24c-1.2-1.5-1.1-3.8,0.3-5.2c1.5-1.5,4-1.5,5.5,0l4.2,4.2
				c0.8,0.8,2.1,0.8,2.8,0c0.8-0.8,0.8-2.1,0-2.8L45.1,16C42,13,37,13,33.9,16c-1,1-1.7,2.2-2,3.5c-1.3-1-2.9-1.5-4.6-1.5
				c-2.1,0-4.1,0.8-5.6,2.3c-2.8,2.8-3,7.1-0.8,10.2c-1.3,0.3-2.5,1-3.5,2c-2.9,2.9-3.1,7.5-0.5,10.6c-1.3,0.4-2.5,1-3.5,2
				c-3.1,3.1-3.1,8.1,0,11.2l0.9,0.9c-3.4,4.1-5.2,9.2-5.2,14.5l0,3.3l-8.3,8.3c-0.8,0.8-0.8,2.1,0,2.8c0.4,0.4,0.9,0.6,1.4,0.6
				s1-0.2,1.4-0.6l8.8-8.8c0.4-0.4,0.6-0.9,0.6-1.4l0-4.2c0-5,1.9-9.7,5.5-13.2l10-10c0,0,0,0,0,0l1-1c0.4-0.4,1-0.6,1.6-0.6
				s1.1,0.2,1.6,0.6c0.4,0.4,0.6,1,0.6,1.6c0,0.5-0.2,1-0.5,1.4l-2.7,2.7c-0.8,0.8-0.8,2.1,0,2.8c0,0,0,0,0,0c0,0,0,0,0,0
				c0.4,0.4,0.9,0.6,1.4,0.6c0.5,0,1-0.2,1.4-0.6l9.5-9.5c0.4-0.4,1-0.6,1.6-0.6s1.1,0.2,1.6,0.6c0.8,0.8,0.9,2.1,0.2,2.9l-9.7,9.7
				c-0.8,0.8-0.8,2.1,0,2.8c0.4,0.4,0.9,0.6,1.4,0.6c0.5,0,1-0.2,1.4-0.6l12.4-12.5c0.4-0.4,1-0.6,1.6-0.6s1.1,0.2,1.6,0.6
				c0.9,0.9,0.9,2.3,0,3.1L42.1,65.2c-0.8,0.8-0.8,2.1,0,2.8c0.8,0.8,2.1,0.8,2.8,0l9.7-9.7c0.9-0.7,2.1-0.6,2.9,0.2
				c0.9,0.9,0.9,2.3,0,3.1L43.9,75.2c-1,1-1,2.4-0.2,3.5c0.8,1.1,2.3,1.3,3.4,0.6l4.1-2.5c1-0.6,2.4-0.3,3.1,0.6
				c0.4,0.5,0.5,1.1,0.4,1.7c-0.1,0.6-0.5,1.1-1,1.5l-9.5,6.4c-3.1,2.1-6.7,3.2-10.4,3.2c0,0,0,0,0,0l-6.4,0c0,0,0,0,0,0
				c-0.5,0-1,0.2-1.4,0.6l-8.8,8.8c-0.8,0.8-0.8,2.1,0,2.8c0.4,0.4,0.9,0.6,1.4,0.6c0.5,0,1-0.2,1.4-0.6l8.3-8.3l5.6,0c0,0,0,0,0,0
				c4.5,0,8.9-1.3,12.6-3.8l2-1.4c4.2,2,8.8,3.1,13.4,3.1c0,0,0,0,0,0l5,0l10.2,10.2c0.4,0.4,0.9,0.6,1.4,0.6c0.5,0,1-0.2,1.4-0.6
				C80.8,101.6,80.8,100.3,80,99.5z M21.2,50.2C21.2,50.2,21.2,50.2,21.2,50.2l-4.1,4.1l-0.8-0.8c-1.5-1.5-1.5-4,0-5.5
				c1.4-1.4,3.7-1.5,5.2-0.3l1.1,1.1L21.2,50.2z"/>
		</g>
	</g>
	<g>
		<g>
			<path class="st0" d="M102.6,76.9c-0.4-0.4-0.9-0.6-1.4-0.6s-1,0.2-1.4,0.6c-0.4,0.4-0.6,0.9-0.6,1.4c0,0.5,0.2,1,0.6,1.4
				c0.4,0.4,0.9,0.6,1.4,0.6s1-0.2,1.4-0.6c0.4-0.4,0.6-0.9,0.6-1.4C103.2,77.8,103,77.2,102.6,76.9z"/>
		</g>
	</g>
	<g>
		<g>
			<path class="st0" d="M97.2,71.5l-4.8-4.8l0-8.1c0-6.1-1.8-12.1-5.2-17.2l-8.9-13.2c-1.2-1.8-3.1-3-5.2-3.4
				c-2.1-0.4-4.3,0.1-6.1,1.3c-2.9,2-4.1,5.7-3,9l-5.3-5.3C58,29,56.7,29,56,29.8c-0.8,0.8-0.8,2.1,0,2.8l11.3,11.3
				c1,1,2.6,1.1,3.8,0.2c1.2-0.9,1.5-2.5,0.7-3.8l-3.5-5.7c-1.1-1.8-0.6-4.1,1.1-5.3c0.9-0.6,2-0.9,3-0.7c1.1,0.2,2,0.8,2.6,1.7
				l8.9,13.2c3,4.4,4.5,9.6,4.5,14.9l0,9c0,0.5,0.2,1,0.6,1.4l5.4,5.4c0.4,0.4,0.9,0.6,1.4,0.6s1-0.2,1.4-0.6
				C98,73.5,98,72.2,97.2,71.5z"/>
		</g>
	</g>
	<g>
		<g>
			<path class="st0" d="M54.1,25c-0.4-0.4-0.9-0.6-1.4-0.6c-0.5,0-1,0.2-1.4,0.6c-0.4,0.4-0.6,0.9-0.6,1.4c0,0.5,0.2,1,0.6,1.4
				c0.4,0.4,0.9,0.6,1.4,0.6c0.5,0,1-0.2,1.4-0.6c0.4-0.4,0.6-0.9,0.6-1.4C54.7,25.9,54.4,25.4,54.1,25z"/>
		</g>
	</g>
	<g>
		<g>
			<path class="st0" d="M72.7,56.2c0.8-0.8,0.8-2.1,0-2.8c-0.8-0.8-2.1-0.8-2.8,0L69,54.3c-3.8,3.8-3.8,9.9,0,13.6
				c0.4,0.4,0.9,0.6,1.4,0.6s1-0.2,1.4-0.6c0.8-0.8,0.8-2.1,0-2.8c-2.2-2.2-2.2-5.7,0-7.9L72.7,56.2z"/>
		</g>
	</g>
	<g>
		<g>
			<path class="st0" d="M96.2,11c-1.3,0-2.5,0.4-3.6,1c-1.1-0.7-2.3-1-3.6-1c-3.8,0-7,3.2-7,7.1c0,2.2,1.6,4.9,4.9,8.2
				c2.2,2.2,4.4,3.9,4.5,3.9c0.4,0.3,0.8,0.4,1.2,0.4s0.9-0.1,1.2-0.4c0.1-0.1,2.3-1.7,4.5-3.9c3.3-3.3,4.9-5.9,4.9-8.2
				C103.2,14.2,100.1,11,96.2,11z M92.6,26.1c-3.4-2.8-6.6-6.4-6.6-7.9c0-1.7,1.3-3.1,3-3.1c0.8,0,1.6,0.3,2.1,0.9
				c0.4,0.4,0.9,0.6,1.5,0.6s1.1-0.2,1.5-0.6c0.6-0.6,1.3-0.9,2.1-0.9c1.6,0,3,1.4,3,3.1C99.2,19.7,96,23.3,92.6,26.1z"/>
		</g>
	</g>
	<g>
		<g>
			<path class="st0" d="M14.4,0.2c-1.3,0-2.5,0.4-3.6,1c-1.1-0.7-2.3-1-3.6-1c-3.8,0-7,3.2-7,7.1c0,2.2,1.6,4.9,4.9,8.2
				c2.2,2.2,4.4,3.9,4.5,3.9c0.4,0.3,0.8,0.4,1.2,0.4s0.9-0.1,1.2-0.4c0.1-0.1,2.3-1.7,4.5-3.9c3.3-3.3,4.9-5.9,4.9-8.2
				C21.4,3.3,18.3,0.2,14.4,0.2z M10.8,15.2c-3.4-2.8-6.6-6.4-6.6-7.9c0-1.7,1.3-3.1,3-3.1c0.8,0,1.6,0.3,2.1,0.9
				c0.4,0.4,0.9,0.6,1.5,0.6s1.1-0.2,1.5-0.6c0.6-0.6,1.3-0.9,2.1-0.9c1.6,0,3,1.4,3,3.1C17.4,8.8,14.2,12.4,10.8,15.2z"/>
		</g>
	</g>
</g>
</svg>
