<?xml version="1.0" encoding="utf-8"?>
<!-- Generator: Adobe Illustrator 25.0.1, SVG Export Plug-In . SVG Version: 6.00 Build 0)  -->
<svg version="1.1" id="Layer_1" xmlns="http://www.w3.org/2000/svg" xmlns:xlink="http://www.w3.org/1999/xlink" x="0px" y="0px"
	 viewBox="0 0 75 75" style="enable-background:new 0 0 75 75;" xml:space="preserve">
<style type="text/css">
	.st0{fill:#48BA13;}
</style>
<g>
	<g>
		<g>
			<path class="st0" d="M68.6,0.8H22.4c-0.4,0-0.8,0.2-1.1,0.5l-15.4,17c-0.3,0.3-0.4,0.7-0.4,1v54c0,0.9,0.7,1.5,1.5,1.5h61.7
				c0.9,0,1.5-0.7,1.5-1.5V2.3C70.2,1.5,69.5,0.8,68.6,0.8z M22.4,4.6v13.1H10.5L22.4,4.6z M67.1,71.7H8.5V20.8h15.4
				c0.9,0,1.5-0.7,1.5-1.5V3.9h41.6V71.7z"/>
		</g>
	</g>
	<g>
		<g>
			<path class="st0" d="M62.1,40.1c-0.5-0.4-0.8-1.1-0.7-1.7c0.1-0.5,0.1-0.9,0-1.4c-0.4-2.7-2.9-4.6-5.6-4.2
				c-0.7,0.1-1.3-0.2-1.7-0.7c-0.3-0.4-0.6-0.7-1-1c-2.2-1.6-5.3-1.2-6.9,1c-0.4,0.5-1.1,0.8-1.7,0.7c-0.5-0.1-0.9-0.1-1.4,0
				c-2.7,0.4-4.6,2.9-4.2,5.6c0.1,0.7-0.2,1.3-0.7,1.7c-0.4,0.3-0.7,0.6-1,1c-1.6,2.2-1.2,5.3,1,6.9c0.5,0.4,0.8,1.1,0.7,1.7
				c-0.1,0.5-0.1,0.9,0,1.4c0.4,2.7,2.9,4.6,5.6,4.2c0.7-0.1,1.3,0.2,1.7,0.7c0.9,1.2,2.4,2,3.9,2c1.6,0,3-0.7,3.9-2
				c0.4-0.5,1.1-0.8,1.7-0.7c0.5,0.1,0.9,0.1,1.4,0c2.7-0.4,4.6-2.9,4.2-5.6c-0.1-0.7,0.2-1.3,0.7-1.7c0.4-0.3,0.7-0.6,1-1
				C64.7,44.8,64.3,41.7,62.1,40.1z M60.3,45.5c-1.4,1.1-2.2,2.9-1.9,4.6c0,0.2,0,0.3,0,0.5c-0.1,1-1.1,1.7-2.1,1.6
				c-1.8-0.3-3.6,0.5-4.6,1.9c-0.1,0.1-0.2,0.2-0.3,0.3c-0.8,0.7-2,0.5-2.7-0.3c-0.9-1.2-2.4-2-3.9-2l0,0c-0.2,0-0.5,0-0.7,0
				c-0.2,0-0.3,0-0.5,0c-1-0.1-1.7-1.1-1.6-2.1c0.3-1.8-0.5-3.6-1.9-4.6c-0.1-0.1-0.3-0.2-0.4-0.4c-0.6-0.8-0.4-2,0.4-2.6
				c1.4-1.1,2.2-2.9,1.9-4.6c-0.1-0.6,0.1-1.2,0.5-1.6c0.4-0.4,1-0.6,1.6-0.5c1.8,0.3,3.6-0.5,4.6-1.9c0.1-0.1,0.2-0.2,0.3-0.3
				c0.8-0.7,2-0.5,2.7,0.3c1.1,1.4,2.9,2.2,4.6,1.9c0.2,0,0.3,0,0.5,0c1,0.1,1.7,1.1,1.6,2.1c-0.3,1.8,0.5,3.6,1.9,4.6
				c0.1,0.1,0.3,0.2,0.4,0.4C61.2,43.7,61.1,44.9,60.3,45.5z"/>
		</g>
	</g>
	<g>
		<g>
			<path class="st0" d="M53.2,54.8v9.5L51,62.7c-0.5-0.3-1.2-0.3-1.7,0l-2.2,1.5v-9.5H44v12.3c0,0.3,0.1,0.6,0.3,0.9
				c0.5,0.7,1.4,0.9,2.1,0.4l3.8-2.5l3.8,2.5c0.3,0.2,0.6,0.3,0.9,0.3c0.9,0,1.5-0.7,1.5-1.5V54.8L53.2,54.8L53.2,54.8z"/>
		</g>
	</g>
	<g>
		<g>
			<path class="st0" d="M45.5,44h-3.1c0,4.3,3.5,7.7,7.7,7.7v-3.1C47.6,48.6,45.5,46.5,45.5,44z"/>
		</g>
	</g>
	<g>
		<g>
			<path class="st0" d="M50.1,36.3v3.1c2.6,0,4.6,2.1,4.6,4.6h3.1C57.8,39.7,54.4,36.3,50.1,36.3z"/>
		</g>
	</g>
	<g>
		<g>
			<rect x="48.6" y="42.4" class="st0" width="3.1" height="3.1"/>
		</g>
	</g>
	<g>
		<g>
			<path class="st0" d="M62.5,7H30.1c-0.9,0-1.5,0.7-1.5,1.5v10.8h3.1V10h29.3v9.3H64V8.5C64,7.7,63.3,7,62.5,7z"/>
		</g>
	</g>
	<g>
		<g>
			<rect x="34.7" y="19.3" class="st0" width="10.8" height="3.1"/>
		</g>
	</g>
	<g>
		<g>
			<rect x="48.6" y="19.3" class="st0" width="3.1" height="3.1"/>
		</g>
	</g>
	<g>
		<g>
			<rect x="54.8" y="19.3" class="st0" width="3.1" height="3.1"/>
		</g>
	</g>
	<g>
		<g>
			<rect x="39.3" y="13.1" class="st0" width="13.9" height="3.1"/>
		</g>
	</g>
	<g>
		<g>
			<rect x="13.1" y="27" class="st0" width="18.5" height="3.1"/>
		</g>
	</g>
	<g>
		<g>
			<rect x="13.1" y="33.2" class="st0" width="9.3" height="3.1"/>
		</g>
	</g>
	<g>
		<g>
			<rect x="25.5" y="33.2" class="st0" width="3.1" height="3.1"/>
		</g>
	</g>
	<g>
		<g>
			<rect x="13.1" y="39.3" class="st0" width="3.1" height="3.1"/>
		</g>
	</g>
	<g>
		<g>
			<rect x="19.3" y="39.3" class="st0" width="9.2" height="3.1"/>
		</g>
	</g>
	<g>
		<g>
			<rect x="13.1" y="45.5" class="st0" width="3.1" height="3.1"/>
		</g>
	</g>
	<g>
		<g>
			<rect x="19.3" y="45.5" class="st0" width="3.1" height="3.1"/>
		</g>
	</g>
	<g>
		<g>
			<rect x="25.5" y="45.5" class="st0" width="3.1" height="3.1"/>
		</g>
	</g>
	<g>
		<g>
			<path class="st0" d="M34.7,51.7H13.1c-0.9,0-1.5,0.7-1.5,1.5v12.3h3.1V54.8h18.5v10.8h3.1V53.2C36.3,52.4,35.6,51.7,34.7,51.7z"
				/>
		</g>
	</g>
	<g>
		<g>
			<rect x="17.8" y="57.8" class="st0" width="3.1" height="3.1"/>
		</g>
	</g>
	<g>
		<g>
			<rect x="23.9" y="57.8" class="st0" width="6.2" height="3.1"/>
		</g>
	</g>
</g>
</svg>
