<?xml version="1.0" encoding="utf-8"?>
<!-- Generator: Adobe Illustrator 25.0.1, SVG Export Plug-In . SVG Version: 6.00 Build 0)  -->
<svg version="1.1" id="Layer_1" xmlns="http://www.w3.org/2000/svg" xmlns:xlink="http://www.w3.org/1999/xlink" x="0px" y="0px"
	 viewBox="0 0 75 75" style="enable-background:new 0 0 75 75;" xml:space="preserve">
<style type="text/css">
	.st0{fill:#48BA13;}
</style>
<g>
	<g>
		<g>
			<path class="st0" d="M70.2,8.5H56.3v3.1h13.9c0.9,0,1.5,0.7,1.5,1.5v44.7c0,0.9-0.7,1.5-1.5,1.5H5.4c-0.9,0-1.5-0.7-1.5-1.5V13.1
				c0-0.9,0.7-1.5,1.5-1.5h13.9V8.5H5.4c-2.6,0-4.6,2.1-4.6,4.6v44.7c0,2.6,2.1,4.6,4.6,4.6h20.6l-4.6,9.2h-3.7v3.1h40.1v-3.1h-3.7
				l-4.6-9.2h20.6c2.6,0,4.6-2.1,4.6-4.6V13.1C74.8,10.6,72.7,8.5,70.2,8.5z M50.7,71.7H24.9l4.6-9.2h16.6L50.7,71.7z"/>
			<path class="st0" d="M7,48.6v6.2c0,0.9,0.7,1.5,1.5,1.5h6.2v-3.1h-4.6v-4.6L7,48.6L7,48.6z"/>
			<rect x="17.8" y="53.2" class="st0" width="3.1" height="3.1"/>
			<path class="st0" d="M65.6,53.2h-4.6v3.1h6.2c0.9,0,1.5-0.7,1.5-1.5v-6.2h-3.1V53.2z"/>
			<rect x="54.8" y="53.2" class="st0" width="3.1" height="3.1"/>
			<rect x="23.9" y="53.2" class="st0" width="27.8" height="3.1"/>
			<path class="st0" d="M20.8,3.9c0.9,0,1.5,0.7,1.5,1.5v40.1c0,0.9,0.7,1.5,1.5,1.5h27.8c0.9,0,1.5-0.7,1.5-1.5V5.4
				c0-2.6-2.1-4.6-4.6-4.6H19.3v0.3c-1.8,0.7-3.1,2.4-3.1,4.4h3.1C19.3,4.6,20,3.9,20.8,3.9z M48.6,3.9c0.9,0,1.5,0.7,1.5,1.5V44
				H25.5V5.4c0-0.5-0.1-1-0.3-1.5H48.6z"/>
			<path class="st0" d="M37.8,34.7c-1.7,0-3.1-1.4-3.1-3.1h-3.1c0,2.9,2,5.3,4.6,6v1.7h3.1v-1.7c2.7-0.7,4.6-3.1,4.6-6
				c0-3.4-2.8-6.2-6.2-6.2c-1.7,0-3.1-1.4-3.1-3.1s1.4-3.1,3.1-3.1c1.7,0,3.1,1.4,3.1,3.1H44c0-2.9-2-5.3-4.6-6v-1.7h-3.1v1.7
				c-2.7,0.7-4.6,3.1-4.6,6c0,3.4,2.8,6.2,6.2,6.2c1.7,0,3.1,1.4,3.1,3.1C40.9,33.3,39.5,34.7,37.8,34.7z"/>
			<path class="st0" d="M65.6,19.3v26.2h3.1V19.3c0-2.6-2.1-4.6-4.6-4.6h-7.7v3.1H64C64.9,17.8,65.6,18.4,65.6,19.3z"/>
			<path class="st0" d="M19.3,14.7h-7.7C9,14.7,7,16.7,7,19.3v26.2h3.1V19.3c0-0.9,0.7-1.5,1.5-1.5h7.7V14.7z"/>
		</g>
	</g>
</g>
</svg>
