<?xml version="1.0" encoding="utf-8"?>
<!-- Generator: Adobe Illustrator 25.0.1, SVG Export Plug-In . SVG Version: 6.00 Build 0)  -->
<svg version="1.1" id="Layer_1" xmlns="http://www.w3.org/2000/svg" xmlns:xlink="http://www.w3.org/1999/xlink" x="0px" y="0px"
	 viewBox="0 0 275 36" style="enable-background:new 0 0 275 36;" xml:space="preserve">
<style type="text/css">
	.st0{fill:#999999;}
</style>
<path class="st0" d="M20.8,4.2c0-3-2.8-3.7-5.1-3.7V1c1.3,0,2.4,0.4,2.4,1.5c0,0.6-0.4,1.5-1.8,1.5c-1,0-3.3-0.6-4.9-1.2
	C9.6,2,7.8,1.4,6.3,1.4c-3,0-5.1,2.2-5.1,4.8c0,2.2,1.6,3,2.2,3.3l0.1-0.3C3.3,8.8,2.9,8.5,2.9,7.7C2.9,7.1,3.5,6,4.9,6
	c1.3,0,3.1,0.6,5.5,1.3c2.1,0.6,4.3,1,5.5,1.2v4.6l-2.2,1.9v0.1l2.2,1.9v6.4c-1.2,0.7-2.5,0.9-3.7,0.9c-2.2,0-4.2-0.6-5.8-2.4l6.1-3
	V8.8l-7.4,3.3C5.7,10.2,7.3,8.8,9,8L8.8,7.5c-4.5,1.2-8.5,5.3-8.5,10.4c0,5.9,4.9,10.4,10.4,10.4c5.9,0,9.8-4.8,9.8-9.7h-0.3
	c-0.9,1.9-2.2,3.7-3.9,4.6v-6.1l2.4-1.9v-0.1l-2.4-1.9V8.5C18.6,8.5,20.8,7.1,20.8,4.2z M7.9,20.6l-1.8,0.9c-1-1.3-1.6-3.1-1.6-5.6
	c0-1,0-2.2,0.3-3.1l3.1-1.3V20.6z M23.7,24l-1.9,1.5l0.3,0.3l0.9-0.7l3.3,3l4.5-3l-0.1-0.3l-1.2,0.7L27.8,24V13.9L29,13l2.5,2.1v9.1
	c0,5.6-1.2,6.5-3.7,7.4V32c4.2,0.1,8-1.2,8-8.5v-9.8l1.3-1l-0.3-0.3l-1.2,0.9L32,10.2l-4.2,3.1V1.1h-0.3l-5.2,3.6V5
	c0.6,0.3,1.5,0.6,1.5,2.2L23.7,24z M50.9,22.4l-3.7,2.8l-3.7-3v-1.8l7-4.8v-0.1l-3.6-5.3l-7.7,4.2v9.8l-1.5,1.2l0.3,0.3l1.3-1
	l5.1,3.7L51,23C51,23,50.9,22.4,50.9,22.4z M43.4,19.8v-7.3l0.3-0.1l3.3,5.2C47,17.6,43.4,19.8,43.4,19.8z M79.2,2.9
	c0-0.4-0.1-0.9-0.3-1.3h-0.3c-0.4,1.2-1,1.8-2.5,1.8c-1.3,0-2.2-0.7-2.8-1.3L69,6.9l0.3,0.3l1.5-1.3c0.9,0.7,1.6,1.3,3.7,1.5v12.3
	l-8.8-15c-0.7-1.2-1.8-2.8-3.9-2.8c-2.4,0-4.5,2.1-4.2,5.3h0.4c0.1-0.9,0.6-1.9,1.6-1.9c0.7,0,1.5,0.7,1.9,1.5v4.9
	c-2.7,0-4.5,1.2-4.5,3.4c0,1.2,0.6,3,2.4,3.4v-0.3c-0.3-0.3-0.4-0.6-0.4-1c0-0.7,0.6-1.3,1.6-1.3h0.7v6.2c-3.1,0-5.6,1.8-5.6,4.8
	c0,2.8,2.4,4.2,5.1,4v-0.3c-1.6-0.1-2.4-0.9-2.4-1.9c0-1.3,0.9-1.9,2.1-1.9c1.2,0,2.2,0.7,3,1.6l4.3-4.8l-0.3-0.3l-1,1.2
	c-1.6-1.5-2.5-1.9-4.5-2.2V7.4L74,28.2h0.9V7.4C77.2,7.2,79.2,5.4,79.2,2.9z M90.1,22.4l-3.7,2.8l-3.7-3v-1.8l7-4.8v-0.1l-3.6-5.3
	l-7.7,4.2v9.8l-1.5,1.2l0.3,0.3l1.3-1l5.1,3.7l6.7-5.3C90.2,23,90.1,22.4,90.1,22.4z M82.6,19.8v-7.3l0.3-0.1l3.3,5.2L82.6,19.8z
	 M114.3,11.8l-1,0.7l-2.8-2.4l-3.3,3l1.3,1.3v11.1l-3.6-2.2v-9.2l1.2-0.7l-3.4-3.3l-3.3,3l1.3,1.3v10.7l-0.4,0.3l-3.1-2.2v-8.9
	c0-2.1-1-2.7-2.2-3.4c-1-0.7-1.6-1.2-1.6-2.2c0-0.9,0.9-1.3,1.3-1.6V6.8c-1.2,0-4.3,1.2-4.3,4c0,1.5,0.7,2.1,1.5,2.8
	c0.7,0.7,1.5,1.3,1.5,2.7v8.6l-1.6,1.2l0.3,0.3l1.5-1.2l3.4,3l3.7-2.5l4.2,2.5l7.9-4.6v-10l1.9-1.5L114.3,11.8L114.3,11.8z
	 M141.9,3.6L140.4,5l-3.3-3l-4.9,3.6V2.3h-0.4l0.1,24.1c-0.4,0-1.8-0.3-2.8-0.6l-0.3-20.1c0-1.5-1-3.6-3.7-3.6
	c-2.7,0-4.5,2.1-4.5,4.2h0.4c0.1-0.9,0.6-1.6,1.5-1.6s1.6,0.6,1.6,2.5V13c-2.7,0.1-4.3,1.6-4.3,3.6c0,1.2,0.6,3,2.4,3v-0.3
	c-0.6-0.3-0.7-0.7-0.7-1c0-0.9,0.7-1.2,1.9-1.2h0.6v9.2c-2.2,0.7-3.1,2.4-3.1,4.2c0,2.5,1.9,4.3,4.9,4.3c2.1,0,3.9-0.3,5.6-0.7
	c1.5-0.3,3.4-0.7,4.3-0.7c1.2,0,1.6,0.6,1.6,1.3c0,1-0.4,1.5-1,1.6v0.3c2.4-0.4,3.9-1.9,3.9-4.2c0-2.2-2.2-3.6-4.6-3.6
	c-1.2,0-3.7,0.4-5.5,0.7c-2.1,0.4-4.2,0.7-4.8,0.7c-1,0-2.2-0.4-2.2-1.9c0-1.2,1-2.2,3.6-2.2c1.3,0,3,0.1,4.6,0.6
	c1.8,0.4,3.4,0.9,4.9,0.9c2.2,0,4.2-0.7,4.2-3.9V5.4l1.8-1.5L141.9,3.6L141.9,3.6z M135.8,12.7c-0.4,0.4-1,0.9-1.8,0.9
	c-0.7,0-1.5-0.4-1.8-0.9V6.2l1.5-1l2.1,1.9C135.8,7.1,135.8,12.7,135.8,12.7z M135.8,17.2c-0.3-0.3-1-0.7-1.8-0.7
	c-0.7,0-1.5,0.4-1.8,0.7v-3.9c0.3,0.3,1,0.7,1.8,0.7c0.7,0,1.5-0.4,1.8-0.7V17.2z M135.8,24.1c0,1.2-0.7,2.4-2.4,2.4h-1.2v-8.8
	c0.3-0.3,1-0.7,1.8-0.7c0.7,0,1.3,0.4,1.8,0.7C135.8,17.8,135.8,24.1,135.8,24.1z M156.2,13.6l-4.8-3.4l-7.3,4.2V24l-1.5,1.2
	l0.1,0.3l1.2-0.9l4.8,3.6l7.4-4.5V13.6z M148.2,23V12.3l3.7,2.7v10.5L148.2,23z M170.3,10.5H170c-0.4,0.3-0.9,0.6-1.3,0.6
	c-0.6,0-1.3-0.3-1.6-0.7h-0.3l-2.5,2.8l-2.5-2.8l-4.5,3l0.1,0.3l1.2-0.7l1.5,1.6v9.4l-1.9,1.5l0.3,0.3l0.9-0.7l3.6,3l4.6-3.1
	l-0.1-0.3l-1.3,0.7l-1.8-1.5V13.3c0.7,0.7,1.6,1.5,2.7,1.5C169,14.9,170.2,12.9,170.3,10.5L170.3,10.5z M188.1,24.7l-5.1,3.4
	l-6.8-10.4l4.9-7.6h0.3c0.6,0.6,1.5,1.2,2.5,1.2c1,0,1.8-0.6,2.2-1.2h0.3c-0.1,3-2.2,4.8-3.7,4.8s-2.2-0.7-3.1-1.2l-0.4,0.7l7.4,11
	l1.5-0.9V24.7z M171.8,24l-1.9,1.5l0.3,0.3L171,25l3.3,3l4.5-3l-0.3-0.3l-1.2,0.7l-1.5-1.5V1.1h-0.1l-5.3,3.6V5
	c0.6,0.3,1.5,0.4,1.5,2.2C171.8,7.2,171.8,24,171.8,24z M212.8,4.2c0-3-2.8-3.7-5.1-3.7V1c1.3,0,2.4,0.4,2.4,1.5
	c0,0.6-0.4,1.5-1.8,1.5c-1,0-3.3-0.6-4.9-1.2c-1.9-0.6-3.7-1.2-5.2-1.2c-3,0-5.1,2.2-5.1,4.8c0,2.2,1.6,3,2.2,3.3l0.1-0.3
	c-0.4-0.3-0.9-0.6-0.9-1.5c0-0.6,0.6-1.6,2.1-1.6c1.3,0,3.1,0.6,5.5,1.3c2.1,0.6,4.3,1,5.5,1.2v4.6l-2.2,1.9v0.1l2.2,1.9v6.4
	c-1.2,0.7-2.5,0.9-3.7,0.9c-2.2,0-4.2-0.6-5.8-2.4l6.1-3V8.8l-7.4,3.3c0.7-1.9,2.4-3.3,3.9-4.3l-0.1-0.3c-4.5,1.2-8.5,5.2-8.5,10.3
	c0,5.9,4.9,10.4,10.4,10.4c5.9,0,9.8-4.8,9.8-9.7h-0.3c-0.9,1.9-2.2,3.7-3.9,4.6V17l2.4-1.9v-0.1l-2.2-1.9V8.5
	C210.6,8.5,212.8,7.1,212.8,4.2z M199.9,20.6l-1.8,0.9c-1-1.3-1.6-3.1-1.6-5.6c0-1,0.1-2.2,0.4-3.1l3.1-1.3L199.9,20.6z M218,2.8
	h-0.1l-3,2.5v0.1l2.5,2.8h0.3l3-2.5V5.6L218,2.8L218,2.8z M222.5,24.7l-1.2,0.7l-1.5-1.5V13.7l1.5-1l-0.3-0.3l-1,0.9l-2.7-3.1
	l-4.3,3l0.3,0.4l1-0.7l1.3,1.6v9.7l-1.9,1.5l0.1,0.3l1-0.7l3.3,3l4.5-3L222.5,24.7L222.5,24.7z M247.3,24.6l-1,0.7l-1.6-1.5V13.7
	l1.5-1.2l-0.3-0.3l-1.2,1l-3.4-3.1l-4.5,3.1l-3.4-3.1l-4.2,3.1l-2.7-3.1l-4.3,3l0.1,0.4l1-0.7l1.5,1.6v9.7l-1.2,1.2l3.4,2.8l3.3-3
	l-1.3-1.3V13.7l1.3-0.9l2.2,2.1v8.9l-1.2,1.2l3.4,2.8l3.3-3l-1.3-1.3v-9.8l1.2-0.7l2.4,2.1V24l-1,1l3.4,3.1l4.6-3.1L247.3,24.6
	L247.3,24.6z M260.2,22.4l-3.7,2.8l-3.7-3v-1.8l7-4.8v-0.1l-3.6-5.3l-7.7,4.2v10.1l5.2,3.7l6.7-5.3L260.2,22.4z M252.8,19.8v-7.3
	l0.3-0.1l3.3,5.2L252.8,19.8z M273.7,18.5l-2.8-2.2c1.9-1.6,2.7-3.9,2.7-5.3V10h-0.3c-0.3,0.7-0.9,1.5-2.1,1.5s-1.9-0.6-2.7-1.5
	l-6.7,3.7v5.3l2.5,1.9c-2.5,2.2-3,3.7-3,4.9c0,1.5,0.7,2.5,1.9,3l0.1-0.3c-0.3-0.3-0.6-0.4-0.6-1.2c0-0.4,0.6-1.2,1.8-1.2
	c1.5,0,2.4,1,2.8,1.5l6.4-3.9v-5.3C273.9,18.5,273.7,18.5,273.7,18.5z M272.1,14c-1,1.8-3.3,3.6-4.6,4.5l-1.6-1.3V12
	c0.6,1.5,2.2,2.7,3.9,2.7C270.7,14.6,271.3,14.5,272.1,14z M269.6,25.9c-0.7-1.6-2.5-2.8-4.3-2.8c-0.4,0-1.6,0-2.8,0.7
	c0.7-1.2,2.7-3.3,5.2-4.8l1.8,1.5L269.6,25.9L269.6,25.9z"/>
</svg>
