<?xml version="1.0" encoding="utf-8"?>
<!-- Generator: Adobe Illustrator 25.0.1, SVG Export Plug-In . SVG Version: 6.00 Build 0)  -->
<svg version="1.1" id="Layer_1" xmlns="http://www.w3.org/2000/svg" xmlns:xlink="http://www.w3.org/1999/xlink" x="0px" y="0px"
	 viewBox="0 0 103 103" style="enable-background:new 0 0 103 103;" xml:space="preserve">
<style type="text/css">
	.st0{fill:#48BA13;}
</style>
<g id="Page-1">
	<g>
		<path id="Shape" class="st0" d="M94.5,0.1H22.4c-4.7,0-8.6,3.8-8.6,8.6v73.8H3.6c-1.9,0-3.4,1.5-3.4,3.4v8.6
			c0,4.7,3.8,8.6,8.6,8.6h72.1c4.7,0,8.6-3.8,8.6-8.6V20.7h10.3c1.9,0,3.4-1.5,3.4-3.4V8.7C103.1,4,99.3,0.2,94.5,0.1z M15.6,99.7
			H8.7c-2.8,0-5.1-2.3-5.2-5.2V86h68.7v8.6c0,1.9,0.6,3.7,1.7,5.2H15.6z M86,94.6c0,2.8-2.3,5.2-5.2,5.2c-2.8,0-5.2-2.3-5.2-5.2V86
			c0-1.9-1.5-3.4-3.4-3.4H17.3V8.7c0-2.8,2.3-5.1,5.1-5.2h65.3C86.6,5.1,86,6.9,86,8.7V94.6z M99.7,17.3H89.4V8.7
			c0-2.8,2.3-5.2,5.2-5.2s5.2,2.3,5.2,5.2V17.3z"/>
		<path class="st0" d="M25.9,13.9h36.1c0.9,0,1.7-0.8,1.7-1.7s-0.8-1.7-1.7-1.7H25.9c-0.9,0-1.7,0.8-1.7,1.7S24.9,13.9,25.9,13.9z"
			/>
		<path class="st0" d="M70.5,13.9h6.9c0.9,0,1.7-0.8,1.7-1.7s-0.8-1.7-1.7-1.7h-6.9c-0.9,0-1.7,0.8-1.7,1.7S69.6,13.9,70.5,13.9z"/>
		<path class="st0" d="M25.9,34.5H43c0.9,0,1.7-0.8,1.7-1.7c0-0.9-0.8-1.7-1.7-1.7H25.9c-0.9,0-1.7,0.8-1.7,1.7
			C24.2,33.7,24.9,34.5,25.9,34.5z"/>
		<path class="st0" d="M53.3,31h-3.4c-0.9,0-1.7,0.8-1.7,1.7c0,0.9,0.8,1.7,1.7,1.7h3.4c0.9,0,1.7-0.8,1.7-1.7
			C55.1,31.8,54.3,31,53.3,31z"/>
		<path class="st0" d="M53.3,37.9H25.9c-0.9,0-1.7,0.8-1.7,1.7c0,0.9,0.8,1.7,1.7,1.7h27.5c0.9,0,1.7-0.8,1.7-1.7
			C55.1,38.7,54.3,37.9,53.3,37.9z"/>
		<path class="st0" d="M77.4,37.9c-0.9,0-1.7,0.8-1.7,1.7v3.4H61.9V29.3h10.3c0.9,0,1.7-0.8,1.7-1.7c0-0.9-0.8-1.7-1.7-1.7H61.9
			c-1.9,0-3.4,1.5-3.4,3.4v13.7c0,1.9,1.5,3.4,3.4,3.4h13.7c1.9,0,3.4-1.5,3.4-3.4v-3.4c0-0.5-0.2-0.9-0.5-1.2
			C78.3,38.1,77.8,37.9,77.4,37.9z"/>
		<path class="st0" d="M25.9,61.9H43c0.9,0,1.7-0.8,1.7-1.7S44,58.5,43,58.5H25.9c-0.9,0-1.7,0.8-1.7,1.7S24.9,61.9,25.9,61.9z"/>
		<path class="st0" d="M53.3,58.5h-3.4c-0.9,0-1.7,0.8-1.7,1.7s0.8,1.7,1.7,1.7h3.4c0.9,0,1.7-0.8,1.7-1.7S54.3,58.5,53.3,58.5z"/>
		<path class="st0" d="M53.3,65.4H25.9c-0.9,0-1.7,0.8-1.7,1.7s0.8,1.7,1.7,1.7h27.5c0.9,0,1.7-0.8,1.7-1.7S54.3,65.4,53.3,65.4z"/>
		<path class="st0" d="M75.7,53.4H61.9c-1.9,0-3.4,1.5-3.4,3.4v13.7c0,1.9,1.5,3.4,3.4,3.4h13.7c1.9,0,3.4-1.5,3.4-3.4V56.8
			C79.1,54.9,77.5,53.4,75.7,53.4z M61.9,70.5V56.8h13.7l0,13.7H61.9z"/>
		<path class="st0" d="M79.6,26.4l-9.1,9.1l-2.2-2.2c-0.7-0.7-1.7-0.6-2.4,0s-0.7,1.7,0,2.4l3.4,3.4c0.3,0.3,0.8,0.5,1.2,0.5
			s0.9-0.2,1.2-0.5L82,28.8c0.7-0.7,0.6-1.7,0-2.4S80.3,25.8,79.6,26.4L79.6,26.4z"/>
	</g>
</g>
</svg>
