<?xml version="1.0" encoding="utf-8"?>
<!-- Generator: Adobe Illustrator 25.0.1, SVG Export Plug-In . SVG Version: 6.00 Build 0)  -->
<svg version="1.1" id="Layer_1" xmlns="http://www.w3.org/2000/svg" xmlns:xlink="http://www.w3.org/1999/xlink" x="0px" y="0px"
	 viewBox="0 0 18 24" style="enable-background:new 0 0 18 24;" xml:space="preserve">
<style type="text/css">
	.st0{fill:#48BA13;}
</style>
<path class="st0" d="M17.3,4.7l-3.9-3.9c-0.4-0.4-1-0.7-1.6-0.7H2.2C1,0.1,0,1.1,0,2.4v19.4C0,23,1,24,2.2,24h13.5
	c1.2,0,2.2-1,2.2-2.2V6.3C17.9,5.7,17.7,5.1,17.3,4.7z M15.5,6.1H12V2.5L15.5,6.1z M2.2,21.8V2.4h7.5v4.9c0,0.6,0.5,1.1,1.1,1.1h4.9
	v13.5H2.2z M13.9,15.1c-0.6-0.6-2.2-0.4-3-0.3c-0.8-0.5-1.3-1.2-1.7-2.2c0.2-0.8,0.5-1.9,0.3-2.6c-0.2-1.2-1.8-1.1-2-0.3
	c-0.2,0.8,0,1.8,0.3,3.1c-0.5,1.1-1.2,2.6-1.7,3.5c-0.9,0.5-2.2,1.2-2.4,2.2C3.6,19.2,5,21.1,7.3,17c1-0.3,2.2-0.8,3.2-0.9
	c0.9,0.5,1.9,0.8,2.6,0.8C14.3,16.9,14.4,15.6,13.9,15.1z M4.7,18.7c0.2-0.6,1.1-1.4,1.4-1.6C5.2,18.5,4.7,18.8,4.7,18.7z M8.5,9.8
	c0.3,0,0.3,1.5,0.1,1.9C8.4,11.1,8.4,9.8,8.5,9.8z M7.4,16.2c0.5-0.8,0.8-1.7,1.2-2.6c0.4,0.7,0.9,1.3,1.4,1.7
	C8.9,15.5,8.1,15.9,7.4,16.2z M13.5,16c0,0-0.2,0.3-1.7-0.4C13.4,15.5,13.7,15.9,13.5,16z"/>
</svg>
