<?xml version="1.0" encoding="utf-8"?>
<!-- Generator: Adobe Illustrator 25.0.1, SVG Export Plug-In . SVG Version: 6.00 Build 0)  -->
<svg version="1.1" id="Layer_1" xmlns="http://www.w3.org/2000/svg" xmlns:xlink="http://www.w3.org/1999/xlink" x="0px" y="0px"
	 viewBox="0 0 60 70" style="enable-background:new 0 0 60 70;" xml:space="preserve">
<style type="text/css">
	.st0{fill:#E2E5E7;}
	.st1{fill:#B0B7BD;}
	.st2{fill:#CAD1D8;}
	.st3{fill:#F15642;}
	.st4{fill:#FFFFFF;}
</style>
<g>
	<path class="st0" d="M13.2,2.1C10.9,2.1,9,3.9,9,6.2v58.2c0,2.3,1.9,4.2,4.2,4.2h41.5c2.3,0,4.2-1.9,4.2-4.2V18.7L42.3,2.1H13.2z"
		/>
	<path class="st1" d="M46.4,18.7h12.5L42.3,2.1v12.5C42.3,16.8,44.1,18.7,46.4,18.7z"/>
	<polygon class="st2" points="58.9,31.1 46.4,18.7 58.9,18.7 	"/>
	<path class="st3" d="M50.6,56.1c0,1.1-0.9,2.1-2.1,2.1H2.8c-1.1,0-2.1-0.9-2.1-2.1V35.3c0-1.1,0.9-2.1,2.1-2.1h45.7
		c1.1,0,2.1,0.9,2.1,2.1V56.1z"/>
	<g>
		<path class="st4" d="M9.8,41.4c0-0.5,0.4-1.1,1.1-1.1h3.8c2.2,0,4.1,1.4,4.1,4.2c0,2.6-1.9,4.1-4.1,4.1H12v2.2
			c0,0.7-0.5,1.1-1.1,1.1c-0.5,0-1.1-0.4-1.1-1.1V41.4z M12,42.4v4.1h2.8c1.1,0,2-1,2-2c0-1.2-0.9-2.1-2-2.1H12z"/>
		<path class="st4" d="M22.1,51.9c-0.5,0-1.1-0.3-1.1-1v-9.4c0-0.6,0.6-1,1.1-1h3.8c7.6,0,7.4,11.5,0.1,11.5H22.1z M23.2,42.5v7.4
			h2.8c4.5,0,4.7-7.4,0-7.4L23.2,42.5L23.2,42.5z"/>
		<path class="st4" d="M36,42.6v2.6h4.2c0.6,0,1.2,0.6,1.2,1.2c0,0.5-0.6,1-1.2,1H36v3.5c0,0.6-0.4,1-1,1c-0.7,0-1.2-0.4-1.2-1v-9.4
			c0-0.6,0.4-1,1.2-1h5.8c0.7,0,1.2,0.4,1.2,1c0,0.5-0.4,1.1-1.2,1.1L36,42.6L36,42.6z"/>
	</g>
	<path class="st2" d="M48.5,58.2H9v2.1h39.5c1.1,0,2.1-0.9,2.1-2.1v-2.1C50.6,57.2,49.6,58.2,48.5,58.2z"/>
</g>
</svg>
