<?xml version="1.0" encoding="utf-8"?>
<!-- Generator: Adobe Illustrator 25.0.1, SVG Export Plug-In . SVG Version: 6.00 Build 0)  -->
<svg version="1.1" id="Layer_1" xmlns="http://www.w3.org/2000/svg" xmlns:xlink="http://www.w3.org/1999/xlink" x="0px" y="0px"
	 viewBox="0 0 85 103" style="enable-background:new 0 0 85 103;" xml:space="preserve">
<style type="text/css">
	.st0{fill:#48BA13;}
</style>
<g>
	<path class="st0" d="M84.8,18.4c0-1-0.7-1.8-1.7-2l-4.3-0.7c-12.6-2.1-24.7-7.3-35-15c-0.7-0.5-1.7-0.5-2.4,0
		c-10.3,7.7-22.4,12.9-35,15l-4.3,0.7c-1,0.2-1.7,1-1.7,2v15.3c0,20.8,6,40.6,20.7,55.4c10.3,10.3,20.4,13.8,20.9,14
		c0.2,0.1,0.4,0.1,0.6,0.1c0.2,0,0.4,0,0.6-0.1c0.4-0.1,10.6-3.6,20.9-14c14.7-14.8,20.7-34.6,20.7-55.4V18.4z M80.8,33.6
		c0,21.7-6.5,39.4-19.4,52.4C53.2,94.4,44.9,98,42.6,99C40.3,98,32,94.4,23.8,86.1C11,73,4.5,55.4,4.5,33.6V20.1l2.6-0.4
		c12.8-2.1,25-7.3,35.5-14.8c10.5,7.6,22.8,12.7,35.5,14.8l2.6,0.4V33.6z"/>
	<path class="st0" d="M11.3,45.5c0.7-0.3,1.2-1,1.2-1.9c0-1-0.7-1.8-1.7-2c-0.1,0-0.2,0-0.3,0c-1.1,0-2,0.9-2,2s0.9,2,2,2
		C10.8,45.7,11,45.6,11.3,45.5z"/>
	<path class="st0" d="M75.1,23.2C64.1,21,53.2,16.6,43.7,10.4c-0.7-0.4-1.5-0.4-2.2,0C31.9,16.7,21.4,21,10.1,23.2
		c-0.9,0.2-1.6,1-1.6,2c0,0,0,9.9,0,10.5c0,1.1,0.9,2,2,2c0,0,0,0,0,0c1.1,0,2-0.9,2-2c0-0.6,0-8.8,0-8.8
		c10.7-2.3,20.9-6.4,30.1-12.3c9.2,5.8,19.5,10,30.1,12.3v6.9c0,30.1-14.8,49.3-30.1,56.6c-12.6-6-24.2-20.2-28.3-39.2
		C14,50,13,49.3,11.9,49.5c-1.1,0.2-1.8,1.3-1.5,2.4c4.5,21,17.8,36.4,31.5,42.4c0.3,0.1,0.5,0.2,0.8,0.2c0.3,0,0.6-0.1,0.8-0.2
		c17.4-7.8,33.3-28.9,33.3-60.7v-8.5C76.8,24.2,76.1,23.4,75.1,23.2z"/>
	<path class="st0" d="M42.6,49.7c-3.3,0-6,2.7-6,6s2.7,6,6,6s6-2.7,6-6S45.9,49.7,42.6,49.7z M42.6,57.7c-1.1,0-2-0.9-2-2
		c0-1.1,0.9-2,2-2s2,0.9,2,2C44.6,56.8,43.7,57.7,42.6,57.7z"/>
	<path class="st0" d="M42.6,29.6c-5.5,0-10,4.5-10,10v2h-2c-1.1,0-2,0.9-2,2v24.1c0,1.1,0.9,2,2,2h24.1c1.1,0,2-0.9,2-2V43.7
		c0-1.1-0.9-2-2-2h-2v-2C52.7,34.1,48.2,29.6,42.6,29.6z M36.6,39.7c0-3.3,2.7-6,6-6s6,2.7,6,6v2h-12V39.7z M52.7,65.8H32.6V45.7
		h20.1V65.8z"/>
</g>
</svg>
