<?xml version="1.0" encoding="utf-8"?>
<!-- Generator: Adobe Illustrator 25.0.1, SVG Export Plug-In . SVG Version: 6.00 Build 0)  -->
<svg version="1.1" id="Layer_1" xmlns="http://www.w3.org/2000/svg" xmlns:xlink="http://www.w3.org/1999/xlink" x="0px" y="0px"
	 viewBox="0 0 75 75" style="enable-background:new 0 0 75 75;" xml:space="preserve">
<style type="text/css">
	.st0{fill:#48BA13;}
</style>
<g>
	<g>
		<g>
			<path class="st0" d="M74.8,51.7c0-4.3-3.5-7.7-7.7-7.7H56.3v-6c0-2.3-1.6-4.3-3.9-4.7c-0.3,0-0.5-0.1-0.8-0.1
				c-2.6,0-4.6,2.1-4.6,4.6v21.6c0,1.7,0.6,3.3,1.5,4.6h0c-0.9,0-1.5,0.7-1.5,1.5v7.7c0,0.9,0.7,1.5,1.5,1.5h24.7
				c0.9,0,1.5-0.7,1.5-1.5v-7.7c0-0.9-0.7-1.5-1.5-1.5h0c1-1.3,1.5-2.9,1.5-4.6L74.8,51.7L74.8,51.7z M71.7,71.7H50.1v-4.6h4.6h12.3
				h4.6L71.7,71.7L71.7,71.7z M54.8,64c-2.6,0-4.6-2.1-4.6-4.6V37.8c0-0.9,0.7-1.5,1.5-1.5c0.1,0,0.2,0,0.3,0
				c0.8,0.2,1.3,0.9,1.3,1.7v7.5c0,0.9,0.7,1.5,1.5,1.5h12.3c2.6,0,4.6,2.1,4.6,4.6v7.7c0,2.6-2.1,4.6-4.6,4.6H54.8z"/>
			<path class="st0" d="M29.6,49c-2.3-2.3-6-2.3-8.3,0l-6.6,6.6V36.3v-1.5V5.4c0-0.9,0.7-1.5,1.5-1.5h46.2c0.9,0,1.5,0.7,1.5,1.5v37
				h3.1v-37c0-2.6-2.1-4.6-4.6-4.6H16.2c-2.6,0-4.6,2.1-4.6,4.6v27.9C6.4,34,2.4,38.5,2.3,44v21.6c-0.9,0-1.5,0.7-1.5,1.5v6.2
				c0,0.9,0.7,1.5,1.5,1.5h20c0.9,0,1.5-0.7,1.5-1.5v-6.2c0-0.9-0.7-1.5-1.5-1.5h-0.9l6.2-6.2H44v-3.1H30.5C31.9,54,31.6,51,29.6,49
				z M20.8,71.7h-17v-3.1h13.9h3.1L20.8,71.7L20.8,71.7z M5.4,65.5V44c0-3.7,2.6-6.8,6.2-7.6v23c0,0.4,0.2,0.8,0.5,1.1
				c0.6,0.6,1.6,0.6,2.2,0l9.2-9.2c1.1-1,2.8-1,3.9,0c1.1,1.1,1.2,2.9,0.1,4L17.1,65.5H5.4z"/>
			<path class="st0" d="M30.1,14.7v-3.1C30.1,9,28,7,25.5,7h-3.1c-2.6,0-4.6,2.1-4.6,4.6v3.1c0,2.6,2.1,4.6,4.6,4.6h3.1
				C28,19.3,30.1,17.2,30.1,14.7z M27,14.7c0,0.9-0.7,1.5-1.5,1.5h-3.1c-0.9,0-1.5-0.7-1.5-1.5v-3.1c0-0.9,0.7-1.5,1.5-1.5h3.1
				c0.9,0,1.5,0.7,1.5,1.5L27,14.7L27,14.7z"/>
			<path class="st0" d="M40.9,7h-3.1c-2.6,0-4.6,2.1-4.6,4.6v3.1c0,2.6,2.1,4.6,4.6,4.6h3.1c2.6,0,4.6-2.1,4.6-4.6v-3.1
				C45.5,9,43.4,7,40.9,7z M42.4,14.7c0,0.9-0.7,1.5-1.5,1.5h-3.1c-0.9,0-1.5-0.7-1.5-1.5v-3.1c0-0.9,0.7-1.5,1.5-1.5h3.1
				c0.9,0,1.5,0.7,1.5,1.5V14.7z"/>
			<path class="st0" d="M60.9,11.6C60.9,9,58.9,7,56.3,7h-3.1c-2.6,0-4.6,2.1-4.6,4.6v3.1c0,2.6,2.1,4.6,4.6,4.6h3.1
				c2.6,0,4.6-2.1,4.6-4.6V11.6z M57.8,14.7c0,0.9-0.7,1.5-1.5,1.5h-3.1c-0.9,0-1.5-0.7-1.5-1.5v-3.1c0-0.9,0.7-1.5,1.5-1.5h3.1
				c0.9,0,1.5,0.7,1.5,1.5V14.7z"/>
			<path class="st0" d="M25.5,44v-4.9c1.8-0.6,3.1-2.3,3.1-4.4c0-2-1.3-3.7-3.1-4.4v-8h-3.1v8c-1.8,0.6-3.1,2.3-3.1,4.4
				s1.3,3.7,3.1,4.4V44L25.5,44L25.5,44z M23.9,33.2c0.9,0,1.5,0.7,1.5,1.5s-0.7,1.5-1.5,1.5s-1.5-0.7-1.5-1.5
				C22.4,33.9,23.1,33.2,23.9,33.2z"/>
			<path class="st0" d="M40.9,39.6V22.4h-3.1v17.2C36,40.2,34.7,42,34.7,44c0,2.6,2.1,4.6,4.6,4.6S44,46.5,44,44
				C44,42,42.7,40.2,40.9,39.6z M39.3,45.5c-0.9,0-1.5-0.7-1.5-1.5s0.7-1.5,1.5-1.5s1.5,0.7,1.5,1.5C40.9,44.8,40.2,45.5,39.3,45.5z
				"/>
			<rect x="48.6" y="22.4" class="st0" width="12.3" height="3.1"/>
			<rect x="48.6" y="28.5" class="st0" width="12.3" height="3.1"/>
		</g>
	</g>
</g>
</svg>
