<?xml version="1.0" encoding="utf-8"?>
<!-- Generator: Adobe Illustrator 25.0.1, SVG Export Plug-In . SVG Version: 6.00 Build 0)  -->
<svg version="1.1" id="Layer_1" xmlns="http://www.w3.org/2000/svg" xmlns:xlink="http://www.w3.org/1999/xlink" x="0px" y="0px"
	 viewBox="0 0 32 32" style="enable-background:new 0 0 32 32;" xml:space="preserve">
<style type="text/css">
	.st0{fill:#FFFFFF;}
</style>
<path class="st0" d="M22.2,8.1L13,12.3c-0.4,0.2-0.8,0.6-1,1l-4.2,9.2c-0.5,1.1,0.6,2.2,1.7,1.7l9.2-4.2c0.4-0.2,0.8-0.6,1-1
	l4.2-9.2C24.4,8.7,23.3,7.6,22.2,8.1L22.2,8.1z M17.3,17.6c-0.8,0.8-2.1,0.8-2.9,0c-0.8-0.8-0.8-2.1,0-2.9c0.8-0.8,2.1-0.8,2.9,0
	C18.1,15.5,18.1,16.8,17.3,17.6z M15.9,0.3C7.1,0.3,0,7.4,0,16.1S7.1,32,15.9,32s15.9-7.1,15.9-15.9S24.6,0.3,15.9,0.3z M15.9,28.9
	c-7.1,0-12.8-5.7-12.8-12.8S8.8,3.4,15.9,3.4s12.8,5.7,12.8,12.8S22.9,28.9,15.9,28.9z"/>
</svg>
