<?xml version="1.0" encoding="utf-8"?>
<!-- Generator: Adobe Illustrator 25.0.1, SVG Export Plug-In . SVG Version: 6.00 Build 0)  -->
<svg version="1.1" id="Layer_1" xmlns="http://www.w3.org/2000/svg" xmlns:xlink="http://www.w3.org/1999/xlink" x="0px" y="0px"
	 viewBox="0 0 350 237" style="enable-background:new 0 0 350 237;" xml:space="preserve">
<style type="text/css">
	.st0{opacity:0.1;fill:#48BA13;enable-background:new    ;}
	.st1{fill:#48BA13;}
	.st2{fill:#FFFFFF;}
	.st3{opacity:0.2;fill:#48BA13;enable-background:new    ;}
	.st4{fill:url(#SVGID_1_);}
	.st5{fill:#65617D;}
	.st6{opacity:0.1;enable-background:new    ;}
	.st7{fill:#FBBEBE;}
	.st8{fill:#FFC914;}
	.st9{fill:#3F3D56;}
	.st10{fill:#E7EFFD;}
	.st11{opacity:0.2;}
	.st12{opacity:0.2;fill:#FFC914;enable-background:new    ;}
	.st13{fill:url(#SVGID_2_);}
	.st14{opacity:5.000000e-02;enable-background:new    ;}
	.st15{fill:#EE8E9E;}
	.st16{fill:#E3E8F4;}
	.st17{fill:#E6E8EC;}
	.st18{fill:#565387;}
	.st19{opacity:0.1;}
	.st20{fill:#F1F1F1;}
	.st21{fill:#2F2E41;}
	.st22{fill:url(#SVGID_3_);}
	.st23{fill:#BE6F72;}
	.st24{fill:#46543C;}
	.st25{opacity:0.1;fill:#46543C;enable-background:new    ;}
	.st26{fill:#444053;}
	.st27{fill:#F3F5F9;}
	.st28{fill:#67647E;}
	.st29{fill:none;}
</style>
<g>
	<path class="st0" d="M349.5,140.7c0-21.7-9.2-40.8-23.2-52.4c0.2-2.2,0.3-4.4,0.3-6.7c0-35.2-24.2-63.8-54-63.8
		c-9.5,0-18.4,2.9-26.2,8c-21.1-16.2-48.7-26-78.8-26c-49.1,0-91.2,25.9-110,63.1c-1-0.1-2.1-0.1-3.1-0.1c-29.8,0-54,28.5-54,63.8
		c0,12.9,3.3,25,8.9,35v0c0,31.7,25.7,57.4,57.4,57.4h229.7c24.9,0,45-20.2,45-45v0C346.6,164.3,349.5,152.9,349.5,140.7z"/>
	<path class="st1" d="M199.2,202.7c0,0-3.7-2.5-7.5-0.7c0,0,1.1,2.2,5.8,2L199.2,202.7z"/>
	<path class="st1" d="M199.7,202.8c0,0,1.1,4.3-1.7,7.3c0,0-1.7-1.8,0-6.2L199.7,202.8z"/>
	<path class="st1" d="M204.4,198.7c0,0-0.3-3.7-8.6-2.5c0,0,0,2.4,2.9,3.5S202.9,199.9,204.4,198.7z"/>
	<path class="st1" d="M204.9,198.6c0,0,3.5,1.1,0.4,9c0,0-2.3-0.5-2.7-3.6C202.1,200.9,203.3,199.8,204.9,198.6z"/>
	<path class="st1" d="M209.6,193.4c0,0,0.5-6.1-8-5.5c0,0-0.6,5.5,6.5,6.9L209.6,193.4z"/>
	<path class="st1" d="M215.2,186.5c0,0-1.2-6.9-9.7-4.8c0,0,0,6,8.3,6.5L215.2,186.5z"/>
	<path class="st1" d="M219.4,179.4c0,0-2-6.7-10.4-4.7c0,0,2,6,9.8,5.9L219.4,179.4z"/>
	<path class="st1" d="M223.3,172.5c0,0-1.9-7-10.1-4.9c0,0,2.7,6.6,9.5,6.1L223.3,172.5z"/>
	<path class="st1" d="M225.8,165.9c0,0-1.5-8.5-9.1-6.6c0,0,2.2,7.7,8.5,7.9L225.8,165.9z"/>
	<path class="st1" d="M228.1,158c0,0-1.8-8.6-9.4-6.1c0,0,3,8.1,8.9,7.3L228.1,158z"/>
	<path class="st1" d="M229.6,150.6c0,0-2.8-8.6-8.7-8.4c0,0,2.9,9.1,8.3,10.1L229.6,150.6z"/>
	<path class="st1" d="M230.5,143.3c0,0-3.1-10.3-7.9-9.5c0,0,2.1,7.9,7.7,11.1L230.5,143.3z"/>
	<path class="st1" d="M231.1,134.7c0,0-2.9-8.6-7.6-9c0,0,1.9,8.5,7.5,11.2L231.1,134.7z"/>
	<path class="st1" d="M231.6,126.7c0,0-3.6-8.6-6.7-8.8c0,0,1.5,8.5,6.4,10.2L231.6,126.7z"/>
	<path class="st1" d="M232,119.2c0,0-2.2-9.4-5.3-10.1c0,0,0.4,7.7,5,10.8L232,119.2z"/>
	<path class="st1" d="M233.2,109.4c0,0-2.3-7.5-4.9-8.6c0,0,0.5,8.8,4.3,10.4L233.2,109.4z"/>
	<path class="st1" d="M234.2,103l0.5-13.2c0,0-4.8,9.9-0.8,15.5L234.2,103z"/>
	<path class="st1" d="M237.9,89.9c0,0,3.4-9.6,4.3-10.1c0,0-6.7,6.2-6.1,14.3L237.9,89.9z"/>
	<path class="st1" d="M209.8,193.4c0,0,6-0.8,5.9,7.8c0,0-5.5,0.9-7.2-6.2L209.8,193.4z"/>
	<path class="st1" d="M215.5,186.3c0,0,7,0,6.4,8.7c0,0-5.9,1-7.8-7.1L215.5,186.3z"/>
	<path class="st1" d="M219.4,180c0,0,6.3-3,10.4,4.7c0,0-5.9,2.5-11-3.5L219.4,180z"/>
	<path class="st1" d="M223.4,172.6c0,0,6.5-3.2,10.3,4.3c0,0-6.8,2.3-10.8-3.1L223.4,172.6z"/>
	<path class="st1" d="M225.7,166.1c0,0,6.3-6,11.2,0.1c0,0-6.4,4.9-11.5,1.3L225.7,166.1z"/>
	<path class="st1" d="M227.8,157.8c0,0,6.3-6.1,11.2,0.3c0,0-7.1,5-11.5,1L227.8,157.8z"/>
	<path class="st1" d="M229,150.3c0,0,4.8-7.6,10.5-5.9c0,0-5,8.1-10.5,7.7L229,150.3z"/>
	<path class="st1" d="M230.4,143.3c0,0,4.9-9.6,9.5-7.9c0,0-3.5,7.4-9.6,9.6L230.4,143.3z"/>
	<path class="st1" d="M230.7,134.2c0,0,5-7.6,9.7-6.6c0,0-4.1,7.7-10.2,8.8L230.7,134.2z"/>
	<path class="st1" d="M231.1,126.5c0,0,3.9-8.5,7.1-8.6c0,0-1.9,8.4-6.8,10L231.1,126.5z"/>
	<path class="st1" d="M231.9,119c0,0,4.3-8.6,7.6-8.6c0,0-2.2,7.3-7.4,9.4L231.9,119z"/>
	<path class="st1" d="M232.5,109.9c0,0,3.2-7.1,5.9-7.9c0,0-1.6,8.7-5.6,9.8L232.5,109.9z"/>
	<path class="st1" d="M234.6,102.7l7.2-11c0,0-1.9,10.9-8.3,13.1L234.6,102.7z"/>
	<path class="st1" d="M239.6,90.8c0,0,8.4-5.8,8.7-6.7c0,0-4.3,8.1-12.2,9.6L239.6,90.8z"/>
	<path class="st1" d="M240.1,88.2c0,0,9.6-9.3,12.1-9.3c0,0-8,0.4-12.3,8.8L240.1,88.2z"/>
	<path class="st1" d="M232.6,111.3l0.4,0c1.8-14.2,4.5-22.6,7.4-23.6l-0.1-0.3C237.1,88.5,234.5,96.8,232.6,111.3z"/>
	<path class="st1" d="M230,145.2l0.5,0c0.1-1.3,0.2-2.7,0.3-4c0.5-11.7,1.3-22.5,2.3-30.6l-0.3-0.4c-1,8.1-2,19.2-2.5,31
		C230.2,142.6,230.1,143.9,230,145.2z"/>
	<path class="st1" d="M189.3,209.5c0.1,0,9.4-4.2,19.1-14.2c5.7-5.8,10.4-12.5,14-19.8c4.5-9.1,7.2-20.4,8.1-31.3l-0.6,0.3
		c-2.1,24.5-13.2,41.2-22.1,50.3c-9.6,9.9-18.8,14-18.9,14L189.3,209.5z"/>
	<path class="st2" d="M192.6,92.1v115.2c0,3.4-3.3,6.2-7.4,6.2H28.8c-4.1,0-7.4-2.8-7.4-6.2V92.1c0-3.4,3.3-6.9,7.4-6.9h156.4
		C189.3,85.2,192.6,88.7,192.6,92.1z"/>
	<path class="st3" d="M192.6,92.6v18.1H21.4V92.6c0-4.1,3.3-7.4,7.4-7.4c0,0,0,0,0,0h156.4C189.3,85.2,192.6,88.5,192.6,92.6
		C192.6,92.6,192.6,92.6,192.6,92.6z"/>
	<circle class="st2" cx="30.8" cy="97.9" r="4.9"/>
	<circle class="st2" cx="45.2" cy="97.9" r="4.9"/>
	<circle class="st2" cx="59.6" cy="97.9" r="4.9"/>
	
		<linearGradient id="SVGID_1_" gradientUnits="userSpaceOnUse" x1="68.2391" y1="-60.929" x2="68.2391" y2="17.0834" gradientTransform="matrix(1 0 0 -1 -28 175.3557)">
		<stop  offset="0" style="stop-color:#808080;stop-opacity:0.25"/>
		<stop  offset="0.5351" style="stop-color:#808080;stop-opacity:0.12"/>
		<stop  offset="1" style="stop-color:#808080;stop-opacity:0.1"/>
	</linearGradient>
	<path class="st4" d="M62.9,213.4c0,0-4.8,1.2-6.7,3.3c-0.7,0.7-1.6,1.3-2.5,1.6V215c1.1-1.8,2.2-3.9,2.2-3.9c0-0.1,0.4-1.5,0.4-1.5
		c0.9-0.7,0-3.2,0-3.2s0.5-1.6,0.2-1.9c-0.3-0.3,0-1.1,0.2-1.5c0.2-0.3,0.3-0.7,0.2-1.1c0-0.3-0.4-0.8-1-1c-0.6-0.3,0-0.7,0.4-0.8
		s0.5-1.1,0-1.6s0-0.8,0.3-1.4c0.2-0.6-0.8-0.5-0.8-0.5v-5.1l0,0c0,0-0.3-1.7-0.6-4.6c-0.3-2.9-1.4-3.2-1.4-3.2
		c-0.6-0.2-1.2-0.4-1.8-0.7c-0.6-0.3-1.2-0.5-1.9-0.7c-0.8,0-1.6-0.1-2.4-0.3c-0.5-0.2-1.1-0.3-1.7-0.4c-0.1,0-0.1-0.1-0.2-0.1
		c-1.3-0.7-2.4-1.8-3-3.2c0-0.1-0.1-0.1-0.1-0.2c0.3-0.3,0.6-0.7,0.8-1.1l0,0c0,0.1,0,0.1,0,0.2c0,0,0,0,0,0.1c0,0.1,0,0.2,0,0.4
		l0,0l0,0c0.8-1.4,3.1-1.7,3.3-3.3c0-0.1,0-0.1,0-0.2l0,0c0-0.1,0-0.1,0-0.2c0-0.4-0.2-0.9-0.2-1.3c0-0.1,0-0.3,0-0.4l0,0
		c0.1-1.2,1-2.3,1.5-3.5c0.1-0.3,0.2-0.7,0.2-1l0,0c0-0.1,0-0.2,0-0.3c0,0,0-0.1,0-0.1c0-0.1,0-0.1,0-0.2c0-1.3-0.6-2.5-1.6-3.4
		c-0.8-0.7-1.8-1.1-2.4-2c-0.3-0.4-0.4-0.9-0.7-1.3c-0.5-0.8-1.5-1.1-2.4-1.2s-1.9-0.1-2.7-0.4c-0.6-0.2-1.2-0.6-1.8-0.7
		c-1.4-0.4-2.9,0.2-3.7,1.3c-0.3,0.5-0.5,1.1-1,1.4c-0.9,0.8-2.5,0.4-3.3,1.3c-0.4,0.5-0.5,1.2-0.4,1.8l0,0c0,0.1,0,0.1,0,0.2
		c0,0,0,0,0,0.1c0,0,0,0.1,0,0.1c0,0.2,0.1,0.5,0.1,0.7c0,0,0,0.1,0,0.1c0,0.1,0,0.1,0,0.2c0,0.1,0,0.1,0,0.2c0,0.1,0,0.1,0,0.2
		c0,0.1,0,0.1,0,0.2c0.1,1.9-0.3,3.7-1.1,5.4c-0.8,1.5-1.9,2.8-2.1,4.5c0,0.3,0,0.5,0,0.8c0,0,0,0.1,0,0.1c0,0,0,0.1,0,0.1
		c0,0.1,0,0.1,0,0.2c0,0,0,0.1,0,0.1c0,0.1,0,0.1,0,0.2c0,0,0,0,0,0c0.2,1.1,0.6,2.2,0.9,3.4c0.1,0.4,0.1,0.8,0.2,1.3l0,0
		c0,0.1,0,0.3,0,0.4c0,0.2,0,0.4,0,0.6c-0.4,0.1-0.8,0.3-1.2,0.4c-0.7,0.1-2.7,1.9-2.6,2.4c0.1,0.4-0.9,3.6-0.9,3.7l0,0l0,0l0,0
		l-1.7,11.6c0,0-0.9,0.9-0.6,1.4c0.3,0.6-0.1,1.5-0.1,1.5s-1.5,0.7-1.2,1.1s0.2,1.2,0,1.7s-0.6,1.4,0,1.6c0.6,0.2,0.1,2.1,0.1,2.1
		s2.1-0.2,1.9,1c0,0.4,1.5,1.5,2.1,1.9v6c-0.8-0.2-1.7-0.5-2.5-0.8c-1.3-0.6-8.6-1.8-10.2,1.7c-1.6,3.5,2.2,8.1,3.1,8.6
		c0,0,0.9,0.7,1.1,1.1s1.3,0.5,1.3,0.5s1.2,0.6,1.5,0.9c0.2,0.2,2,0.8,4.2,1.2l0,0c0,0-1.7,4,1.1,3.7c2.8-0.3,4.2-1.7,6.2-1.7
		c0.8,0,2.3-0.1,3.8-0.2c0.4,0.1,0.7,0.2,1.1,0.3c0.8,0.3,1.7,0.4,2.6,0.6c0,0,2.2,1.2,3.4,0.9c0.1,0,0.2-0.1,0.3-0.1c0,0,0,0,0,0
		c0.3-0.1,0.5-0.3,0.7-0.6c1.5,0.2,3.2,0.4,3.8,0.6c1.2,0.5,10.1-0.2,10.1-0.2s5.7,0.1,7.4,0.6s1.1-5.1-2-5.7
		c-0.8-0.2-1.6-0.2-2.5-0.2c0.2-0.2,0.4-0.4,0.6-0.7c1.1-0.1,1.8-0.2,1.8-0.2s2.9-1.4,4.5-2.3c1-0.6,2-1.3,2.8-2.2
		c0,0,1.4-0.9,2-1.3c0.6-0.4,0.9-1.5,0.9-1.5C74.4,212,62.9,213.4,62.9,213.4z M50,200.5c0-0.2,0-0.3,0-0.5
		C50.1,200.1,50.1,200.3,50,200.5L50,200.5z M50,204.1c0.1,0.2,0.2,0.3,0.3,0.4c0.3,0.4-0.3,0.6-0.2,1.3c0,0.2,0,0.4,0,0.6h0
		C50.1,205.4,50.1,204.6,50,204.1L50,204.1z"/>
	<path class="st5" d="M24.1,219.9c0,0-2.8-0.6-4.1-1.2s-8.6-1.7-10.2,1.7s2.2,8,3.1,8.5c0.9,0.5,10.2-6.3,10.2-6.3l7.3,3.1l1.4-4.8
		L24.1,219.9z"/>
	<path class="st5" d="M32.3,220.9h21.5c2.8,0,5.1,2.3,5.1,5.1v0.9c0,2.8-2.3,5.1-5.1,5.1H32.3c-2.8,0-5.1-2.3-5.1-5.1v-0.9
		C27.2,223.1,29.5,220.9,32.3,220.9z"/>
	<path class="st6" d="M58.8,226.4c0,3-2.5,5.5-5.5,5.5H32.7c-3,0-5.5-2.5-5.5-5.5c0-3,2.5-5.5,5.5-5.5h20.6
		C56.4,220.9,58.8,223.3,58.8,226.4L58.8,226.4z"/>
	<path class="st7" d="M41.6,226.7c0,0-3.2,0.8-5.8,0.8c-2.6,0-14.7,5-14.7,5s-1.7,4,1.1,3.6s4.2-1.7,6.2-1.7s8.3-0.7,8.3-0.7
		l6.1-4.5L41.6,226.7z"/>
	<path class="st7" d="M43.6,189.2l-5.7,1.1l-0.4,0.1c0,0-4.5-1.2-4.6-1.3c-0.1-0.1-4.2-5.6-4.2-5.6s2.1,0,3.7-0.9
		c0.1,0,0.1-0.1,0.2-0.1c0.7-0.4,1.3-1.1,1.5-1.9c0-0.1,0.1-0.2,0.1-0.3c0.2-0.8,0.2-1.6,0-2.4c-0.5-2.3,0.7-3,2.4-2.9
		c2.5,0.1,5.8,1.6,5.8,1.6c0,0.8,0.2,1.5,0.5,2.3c0,0.1,0.1,0.1,0.1,0.2c0.6,1.4,1.7,2.5,3,3.2c0.1,0,0.1,0.1,0.2,0.1
		c0.2,0.1,0.4,0.2,0.6,0.2C51,184.2,43.6,189.2,43.6,189.2z"/>
	<path class="st6" d="M42.9,179.1c-2.2,2.5-5.9,3.2-8.9,1.5c0.3-0.9,0.3-1.8,0-2.7c-1.3-5.7,8.2-1.3,8.2-1.3
		C42.3,177.5,42.5,178.3,42.9,179.1z"/>
	<path class="st7" d="M44.7,174.1c0,1.3-0.4,2.7-1.1,3.8c-0.2,0.4-0.5,0.7-0.8,1c-1.3,1.4-3,2.2-4.9,2.3c-0.1,0-0.3,0-0.4,0
		c-4,0-7.2-3.2-7.2-7.2c0-4,3.2-7.2,7.2-7.2C41.5,166.9,44.7,170.1,44.7,174.1L44.7,174.1z"/>
	<path class="st6" d="M43.6,189.2l-5.7,1.1l-0.4,0.1c0,0-4.5-1.2-4.6-1.3c-0.1-0.1-4.2-5.6-4.2-5.6s2.1,0,3.7-0.9
		c0.1,0,0.1-0.1,0.2-0.1c1.3,1.3,3,2.1,4.9,2.1c0.3,0,0.7,0,1-0.1c0.8-0.1,1.6-0.2,2.4-0.3c1.5-0.2,3.9-0.6,5.1-2
		c0.1,0,0.1,0.1,0.2,0.1c0.2,0.1,0.4,0.2,0.6,0.2C51,184.2,43.6,189.2,43.6,189.2z"/>
	<path class="st8" d="M50,203.7c0,1.1,0.8,13.4,0.8,13.4H26l0.2-7.8l0.1-6.2l0-2l0.2-7.1l-0.7-0.6l-3.9-3.4l0,0
		c0-0.1,1.1-3.2,0.9-3.7c-0.1-0.4,1.9-2.2,2.6-2.3c0.4-0.1,0.8-0.2,1.2-0.4c1.2-0.4,2.7-1,2.9-0.9c0.2,0.1,2.7-0.1,2.8-0.1h0
		c1.3,1.5,3.1,2.3,5,2.3c0.3,0,0.7,0,1-0.1c0.8-0.1,1.6-0.2,2.4-0.3c1.6-0.2,4.1-0.7,5.3-2.2c0.6,0.1,1.1,0.2,1.7,0.4
		c0.8,0.2,1.6,0.3,2.4,0.3c0.6,0.2,1.3,0.4,1.9,0.7c0.6,0.3,1.2,0.5,1.8,0.7c0,0,1.1,0.3,1.4,3.2c0.3,2.9,0.6,4.5,0.6,4.5l-5.9,5.1
		C50,197.3,50,202.7,50,203.7z"/>
	<polygon class="st7" points="21.9,212.4 22.8,213.7 26.1,214.9 28.3,210.8 26.2,209.4 22.9,208.1 21,209.2 	"/>
	<path class="st5" d="M49.8,219.2c0,0,4.6-0.3,6.5-2.5c1.9-2.1,6.7-3.3,6.7-3.3s11.5-1.3,7,8.8c0,0-0.3,1.1-0.9,1.5
		c-0.6,0.3-2,1.2-2,1.2l-17.7-1.5L49.8,219.2z"/>
	<path class="st6" d="M58.8,226.4c0,1.1-0.3,2.1-0.9,3c-3,0.3-9.6,0.9-10.9,1.3c-1.7,0.5-5.1-0.3-5.5-0.4c0,0,0,0,0,0s-0.7-2-1-3.3
		c-0.1-0.6-0.2-1-0.1-1c0.3-0.1,3-0.8,3-0.4c0,0.4,8.2-3.2,8.2-3.2l0.3,3.2C52.6,226.4,58.8,225,58.8,226.4z"/>
	<path class="st5" d="M67.3,223.7L67,225c-0.8,0.9-1.7,1.6-2.8,2.2c-1.6,0.8-4.5,2.2-4.5,2.2s-10.6,0.9-12.4,1.4
		c-1.8,0.5-5.5-0.4-5.5-0.4s-1.4-4.2-1.1-4.3c0.3-0.1,3-0.8,3-0.4s8.2-3.2,8.2-3.2L67.3,223.7z"/>
	<path class="st7" d="M37.8,234.9c0,0,5.2,0.4,6.4,0.8c1.2,0.5,10.1-0.2,10.1-0.2s5.7,0.1,7.4,0.6s1.1-5-2-5.6
		c-3-0.6-7.3,0.3-7.3,0.3s-4.8-0.6-5.4-0.7s-4.4,0-4.4,0L37.8,234.9z"/>
	<path class="st6" d="M17.3,221.1c0,0,6.9,0.6,8.8,1.7L17.3,221.1z"/>
	<path class="st6" d="M60.3,216.6c0,0-5.4,1.3-7.5,3.2L60.3,216.6z"/>
	<path class="st6" d="M17.7,219.6c0.1,0,3.2,0.4,3.1,0.7C20.8,220.6,17.7,219.6,17.7,219.6z"/>
	<path class="st6" d="M12.9,227.2l0.4,1.5c0.4,0.3,0.8,0.7,1.1,1c0.2,0.3,1.3,0.4,1.3,0.4s1.2,0.5,1.5,0.8s3.5,1.2,6.6,1.6
		c3,0.4,8.7,1.1,9.9,1.5c0.8,0.3,1.7,0.4,2.6,0.5c0,0,2.2,1.2,3.4,0.9s3.2-5.7,3.2-5.7s-7.9-1.8-8.1-2.4s-7.8-3.4-7.8-3.4l-4.5,0.1
		L12.9,227.2z"/>
	<path class="st5" d="M12.6,227.4l0.4,1.5c0.4,0.3,0.8,0.7,1.1,1c0.2,0.3,1.3,0.4,1.3,0.4s1.2,0.5,1.5,0.8c0.3,0.3,3.5,1.2,6.6,1.6
		c3,0.4,8.7,1.1,9.9,1.5c0.8,0.3,1.7,0.4,2.6,0.5c0,0,2.2,1.2,3.4,0.9s3.2-5.7,3.2-5.7s-7.9-1.8-8.1-2.4c-0.2-0.6-11.3-5.1-11.3-5.1
		l-3.5-0.8L12.6,227.4z"/>
	<path class="st8" d="M22.8,189.5l-0.9,0.5l-1.7,11.4c0,0-0.9,0.8-0.6,1.4c0.3,0.5-0.1,1.5-0.1,1.5s-1.5,0.6-1.2,1s0.2,1.1,0,1.6
		c-0.2,0.5-0.6,1.4,0,1.5s0.1,2.1,0.1,2.1s2.1-0.2,1.9,1c-0.1,0.5,2.4,2.1,2.4,2.1s-2.8-5,3.4-4.3l0.5-2.8c0,0,0.5-1.6,0-2.1
		c-0.5-0.5,0.1-2.9,0.1-2.9l0.1-10.3L22.8,189.5z"/>
	<path class="st6" d="M21.5,204.3c0.1,0.2,3.5,0.6,3.7,1.2S21.5,204.3,21.5,204.3z"/>
	<path class="st6" d="M20.4,207.1c0,0,0.5-1.4,1.5-1.2C23,206.2,20.4,207.1,20.4,207.1z"/>
	<path class="st6" d="M19.8,209.2c0,0,0.8-1.9,1.9-1.7C22.8,207.6,19.8,209.2,19.8,209.2z"/>
	<path class="st7" d="M56.3,209.2l-0.3,2.1c0,0-3.6,6.6-4.2,6.7c-0.6,0.1-4.2-4.4-4.2-4.4l-0.9-4.4l3.7-0.7l1.7-1.6
		C51.9,206.8,56.1,207.2,56.3,209.2z"/>
	<path class="st8" d="M54.6,191.2l1.3,0.9v5c0,0,1-0.1,0.8,0.4c-0.2,0.5-0.7,0.8-0.3,1.3s0.3,1.4,0,1.5c-0.4,0.1-1.1,0.5-0.4,0.7
		c0.6,0.2,1,0.7,1,1c0.1,0.4,0,0.8-0.2,1.1c-0.2,0.3-0.5,1.1-0.2,1.4c0.3,0.3-0.2,1.8-0.2,1.8s0.9,2.4,0,3.1c0,0-0.4,1.4-0.4,1.5
		c0,0,0.6-4.8-5.6-2.8c0,0-0.1-1.8-0.2-2.5c0-0.7,0.5-0.9,0.2-1.3s-1.1-1.3-0.7-1.6c0.4-0.2,0.2-0.7,0.1-1c-0.1-0.3-0.7-0.3-0.2-0.8
		c0.5-0.4,0.8-0.8,0.5-1c-0.3-0.2-0.8-0.8-0.4-1.1c0.4-0.3,0.4-4.6,0.4-4.6S51.6,188.1,54.6,191.2z"/>
	<path class="st6" d="M54,199.8c0,0,1.9-0.5,2,0C56,200.3,54,199.8,54,199.8z"/>
	<path class="st6" d="M51.8,201.2c0,0,2.6-0.7,3-0.1C55.1,201.6,51.8,201.2,51.8,201.2z"/>
	<path class="st6" d="M51.2,202.6c0,0,3.9-0.5,4.2,0.3C55.7,203.6,51.2,202.6,51.2,202.6z"/>
	<path class="st6" d="M51.8,204.3c0.1,0,3.8,0.3,3.9,1C55.7,206,51.8,204.3,51.8,204.3z"/>
	<path class="st9" d="M25.7,206.5h24.8c1.8,0,3.2,1.4,3.2,3.2v11.3c0,1.8-1.4,3.2-3.2,3.2H25.7c-1.8,0-3.2-1.4-3.2-3.2v-11.3
		C22.5,208,24,206.5,25.7,206.5z"/>
	<circle class="st10" cx="38.1" cy="215.4" r="1.2"/>
	<path class="st6" d="M27.8,195.7c0,0,3,2.3,5.3,0.5C33.1,196.2,29.2,196.6,27.8,195.7z"/>
	<path class="st6" d="M42.9,196.3c0,0,3,2.3,5.3,0.5C48.2,196.8,44.3,197.2,42.9,196.3z"/>
	<path class="st6" d="M44.7,174.1c0,1.3-0.4,2.7-1.1,3.8c-0.1-2-0.5-4-1.6-5.7c-1-1.5-4-4.2-6.1-3.5c-0.4,0.2-0.8,0.5-0.9,1
		c-0.2,0.8,0.4,1.1,0.8,1.7c0.7,1.1,0.9,2.3,0.7,3.6c0,0.2-0.1,0.3-0.1,0.5c-0.3,1.2-1.1,2.6-0.3,3.6c0.5,0.7,1.7,0.9,1.9,1.8
		c0,0.1,0,0.2,0,0.2c0,0.6-0.5,1.1-0.8,1.7c-0.3,0.7-0.1,1.4,0.2,2c0.3,0.9,0.9,1.8,1,2.7c0.1,0.9-0.2,1.8-0.5,2.7
		c-0.4,0.8-0.6,1.7-0.8,2.5c-0.2,1.7,0.4,3.6-0.7,4.9c-0.1,0.2-0.3,0.3-0.5,0.3c-0.7,0.1-0.6-1.1-1.1-1.5c0.1,0.7,0.1,1.4-0.1,2.1
		c-0.3,0.7-0.9,1.2-1.6,1.1c-0.1-0.5-0.2-1-0.2-1.6c-0.5,0.5-1,0.8-1.7,1c0.2-1.7,0.8-3.3,1.7-4.7c-1.8,0.8-2.8,2.7-3.7,4.4
		c-0.6,1.1-1.2,2.2-1,3.4c0.1,0.5,0.3,1,0.3,1.4s-0.1,1.1-0.6,1.3c-0.4,0.1-0.9,0-1.2-0.4c0,0,0,0,0-0.1c0,0-0.1-0.1-0.1-0.1
		c-0.1-0.1-0.1-0.2-0.1-0.2c-0.1-0.3-0.2-0.6-0.3-0.9l0-0.1c-0.5-2-0.9-4.1-0.5-6.2c0.1-0.8,0.4-1.5,0.3-2.3c0-0.4-0.1-0.9-0.3-1.3
		c-0.4-1.1-1.2-2.2-1.6-3.3c0,0,0,0,0,0c-0.2-0.6-0.3-1.4,0.1-1.9c0.3-0.2,0.5-0.4,0.8-0.6c0.9-0.6,1.3-1.6,1.4-2.7
		c0.1-0.5,0.1-0.9,0.1-1.4c1.2-0.4,2.7-1,2.9-0.9c0.2,0.1,2.7-0.1,2.8-0.1c0.8-0.4,1.4-1.1,1.7-2c0-0.1,0.1-0.2,0.1-0.3
		c-3.5-1.9-4.8-6.2-2.9-9.7c1.9-3.5,6.2-4.8,9.7-2.9C43.3,169,44.7,171.4,44.7,174.1L44.7,174.1z"/>
	<path class="st9" d="M36.4,175.2c-0.3,1.2-1.1,2.6-0.3,3.6c0.5,0.7,1.7,0.9,1.9,1.8c0.1,0.7-0.5,1.3-0.7,1.9
		c-0.6,1.6,0.9,3.1,1.2,4.8c0.3,1.8-1.1,3.4-1.3,5.2c-0.2,1.7,0.4,3.6-0.7,4.9c-0.1,0.2-0.3,0.3-0.5,0.3c-0.7,0.1-0.6-1.1-1.1-1.5
		c0.1,0.7,0.1,1.4-0.1,2.1s-0.9,1.2-1.6,1.1l-0.2-1.6c-0.5,0.5-1,0.8-1.7,1c0.2-1.7,0.8-3.3,1.7-4.7c-1.8,0.8-2.8,2.7-3.7,4.4
		c-0.6,1.1-1.2,2.2-1,3.4c0.1,0.5,0.3,1,0.3,1.4c0,0.5-0.1,1.1-0.6,1.3c-0.4,0.1-0.9,0-1.2-0.4c-0.3-0.4-0.4-0.8-0.5-1.3
		c-0.5-2.1-0.9-4.2-0.6-6.3c0.1-0.8,0.4-1.5,0.3-2.3c-0.1-1.7-1.3-3.1-1.9-4.6c-0.2-0.6-0.3-1.4,0.1-1.9c0.3-0.2,0.5-0.4,0.8-0.6
		c0.9-0.6,1.3-1.6,1.4-2.7c0.2-1.1,0.1-2.2-0.1-3.3c-0.3-1.6-1.2-3.2-1-4.9c0.2-1.6,1.3-3,2.1-4.4c1-1.9,1.3-4,1.1-6.1
		c-0.1-1-0.4-2.1,0.3-2.9c0.8-0.9,2.3-0.5,3.3-1.3c0.4-0.4,0.7-0.9,1-1.4c0.8-1.2,2.3-1.7,3.7-1.3c0.6,0.2,1.2,0.5,1.8,0.7
		c0.9,0.3,1.8,0.2,2.7,0.4c0.9,0.1,1.9,0.4,2.4,1.2c0.3,0.4,0.4,0.9,0.7,1.3c0.5,0.9,1.6,1.3,2.4,2c1.4,1.2,1.9,3.2,1.3,5
		c-0.5,1.3-1.6,2.5-1.5,3.9c0,0.6,0.3,1.1,0.2,1.7c-0.2,1.6-2.5,1.9-3.3,3.3c0.1-2.3-0.4-4.6-1.6-6.5c-1-1.5-4-4.2-6.1-3.5
		c-0.4,0.2-0.8,0.5-0.9,1c-0.2,0.8,0.4,1.1,0.8,1.7C36.5,172.4,36.8,173.8,36.4,175.2z"/>
	<g class="st11">
		<path d="M26.6,183.1c0-0.7,0-1.4-0.2-2.1c-0.3-1.4-0.9-2.8-1-4.2c-0.1,1.6,0.6,3.1,1,4.6C26.6,182,26.6,182.5,26.6,183.1z"/>
		<path d="M32.6,194.4c0.1-0.2,0.2-0.4,0.4-0.7c-1.8,0.8-2.8,2.7-3.7,4.4c-0.5,1-1.1,2.1-1,3.2c0.1-0.9,0.5-1.9,1-2.7
			C30.1,197,31,195.3,32.6,194.4z"/>
		<path d="M28.6,203.4c0,0.4-0.2,0.7-0.6,0.9c-0.4,0.1-0.9,0-1.2-0.4c-0.3-0.4-0.4-0.8-0.5-1.3c-0.4-1.5-0.6-3-0.7-4.5
			c0,1.7,0.3,3.3,0.7,5c0.1,0.5,0.2,0.9,0.5,1.3c0.3,0.4,0.8,0.6,1.2,0.4C28.5,204.5,28.7,204,28.6,203.4
			C28.6,203.4,28.6,203.4,28.6,203.4z"/>
		<path d="M36.6,173.7c0,0.4-0.1,0.7-0.2,1.1c-0.2,0.9-0.7,1.9-0.6,2.8c0.1-0.8,0.4-1.6,0.6-2.3C36.5,174.7,36.6,174.2,36.6,173.7z"
			/>
		<path d="M28.7,167.1c0-0.5,0-1.1-0.1-1.6c-0.1-0.4-0.1-0.8-0.1-1.2c0,0.6,0,1.1,0.1,1.6C28.7,166.3,28.7,166.7,28.7,167.1z"/>
		<path d="M37.9,180.7C37.9,180.7,37.9,180.7,37.9,180.7c-0.1,0.5-0.5,1-0.7,1.5c-0.1,0.3-0.2,0.6-0.1,1c0-0.2,0.1-0.4,0.1-0.5
			C37.5,181.9,38.1,181.4,37.9,180.7z"/>
		<path d="M26.1,194c-0.1-1.7-1.3-3.1-1.9-4.6c-0.1-0.2-0.2-0.5-0.2-0.8c0,0.4,0,0.8,0.2,1.2c0.6,1.5,1.8,2.9,1.9,4.5
			C26.1,194.2,26.1,194.1,26.1,194z"/>
		<path d="M42,171.5c-1-1.5-4-4.2-6.1-3.5c-0.4,0.2-0.8,0.5-0.9,1c0,0.2-0.1,0.4,0,0.5c0,0,0,0,0-0.1c0.1-0.5,0.5-0.8,0.9-1
			c2.1-0.7,5.1,1.9,6.1,3.5c1.1,1.7,1.6,3.8,1.6,5.9C43.6,175.6,43.2,173.3,42,171.5z"/>
		<path d="M46.9,174.7c-0.2,1.6-2.5,1.9-3.3,3.3c0,0.2,0,0.3,0,0.5c0.8-1.4,3.1-1.7,3.3-3.3C46.9,175,46.9,174.8,46.9,174.7
			C46.9,174.7,46.9,174.7,46.9,174.7z"/>
		<path d="M48.2,169.1c-0.5,1.3-1.6,2.5-1.5,3.9c0,0,0,0,0,0.1c0.1-1.2,1-2.3,1.5-3.5c0.2-0.5,0.3-1.1,0.2-1.7
			C48.4,168.3,48.3,168.7,48.2,169.1z"/>
		<path d="M36.4,197c-0.1,0.2-0.3,0.3-0.5,0.3c-0.7,0.1-0.6-1.1-1.1-1.5c0,0.2,0,0.3,0,0.5c0.5,0.4,0.4,1.6,1.1,1.5
			c0.2,0,0.3-0.1,0.5-0.3c0.6-0.7,0.7-1.7,0.6-2.7C37,195.6,36.9,196.4,36.4,197z"/>
		<path d="M34.7,197.9c-0.3,0.7-0.9,1.2-1.6,1.1c-0.1-0.5-0.2-1-0.2-1.6c-0.4,0.4-1,0.8-1.6,1c0,0.2-0.1,0.3-0.1,0.5
			c0.6-0.2,1.2-0.6,1.7-1c0.1,0.5,0.2,1,0.2,1.6c0.7,0.1,1.3-0.4,1.6-1.1c0.2-0.5,0.2-0.9,0.2-1.4C34.9,197.2,34.8,197.5,34.7,197.9
			z"/>
		<path d="M37.1,192.1c-0.1,0.4-0.1,0.8-0.1,1.3c0-0.3,0-0.5,0.1-0.8c0.2-1.7,1.4-3.3,1.3-5C38.3,189.1,37.3,190.6,37.1,192.1z"/>
	</g>
	<path class="st2" d="M225.9,62.7v30c0,1.6-1.5,2.9-3.4,2.9h-72.1c-1.9,0-3.4-1.3-3.4-2.9v-30c0-1.6,1.5-3.2,3.4-3.2h72.1
		C224.4,59.5,225.9,61.2,225.9,62.7z"/>
	<path class="st3" d="M225.9,62.9v8.4H147v-8.4c0-1.9,1.5-3.4,3.4-3.4c0,0,0,0,0,0h72.1C224.4,59.5,225.9,61.1,225.9,62.9
		C225.9,62.9,225.9,62.9,225.9,62.9z"/>
	<circle class="st2" cx="151.3" cy="65.4" r="2.3"/>
	<circle class="st2" cx="157.9" cy="65.4" r="2.3"/>
	<circle class="st2" cx="164.6" cy="65.4" r="2.3"/>
	<circle class="st1" cx="210.4" cy="83.2" r="8.9"/>
	<rect x="153.8" y="77.2" class="st8" width="37.6" height="1.3"/>
	<rect x="153.8" y="80.5" class="st12" width="37.6" height="1.3"/>
	<rect x="153.8" y="83.7" class="st12" width="37.6" height="1.3"/>
	<rect x="153.8" y="86.9" class="st12" width="37.6" height="1.3"/>
	<path class="st1" d="M197.1,137.7c0,0-2.6-0.6-4.4,1.2c0,0,1.1,1,3.7-0.1L197.1,137.7z"/>
	<path class="st1" d="M197.4,137.7c0,0,1.6,2.2,0.6,4.5c0,0-1.4-0.7-1.3-3.5L197.4,137.7z"/>
	<path class="st1" d="M199.2,134.4c0,0-0.9-2-5.4,0.4c0,0,0.5,1.4,2.4,1.4C198,136.2,198.6,135.4,199.2,134.4z"/>
	<path class="st1" d="M199.4,134.2c0,0,2.2-0.1,2.1,5c0,0-1.4,0.2-2.3-1.5C198.3,136.1,198.8,135.2,199.4,134.2z"/>
	<path class="st1" d="M201,130.3c0,0-1-3.5-5.7-1.4c0,0,0.8,3.2,5.2,2.5L201,130.3z"/>
	<path class="st1" d="M202.8,125.2c0,0-2.1-3.7-6.5-0.7c0,0,1.2,3.4,6.1,1.9L202.8,125.2z"/>
	<path class="st1" d="M203.6,120.3c0,0-2.5-3.4-6.9-0.5c0,0,2.4,3,6.8,1.3L203.6,120.3z"/>
	<path class="st1" d="M204.3,115.5c0,0-2.6-3.5-6.7-0.6c0,0,2.9,3.2,6.7,1.4L204.3,115.5z"/>
	<path class="st1" d="M204.4,111.3c0,0-2.6-4.5-6.5-1.8c0,0,2.9,3.9,6.5,2.7L204.4,111.3z"/>
	<path class="st1" d="M204,106.3c0,0-2.8-4.5-6.6-1.4c0,0,3.4,4,6.6,2.2L204,106.3z"/>
	<path class="st1" d="M203.3,101.8c0,0-3.4-4.3-6.7-2.9c0,0,3.5,4.5,6.8,4L203.3,101.8z"/>
	<path class="st1" d="M202.3,97.5c0,0-3.9-5.2-6.5-3.7c0,0,2.9,4,6.7,4.7L202.3,97.5z"/>
	<path class="st1" d="M200.8,92.5c0,0-3.4-4.3-6.2-3.5c0,0,2.9,4.4,6.6,4.7L200.8,92.5z"/>
	<path class="st1" d="M199.4,87.8c0,0-3.8-4.1-5.7-3.6c0,0,2.7,4.5,5.8,4.4L199.4,87.8z"/>
	<path class="st1" d="M198,83.5c0,0-3.2-4.8-5.2-4.6c0,0,1.9,4.2,5.1,5.1L198,83.5z"/>
	<path class="st1" d="M196.6,77.7c0,0-2.9-3.7-4.6-3.8c0,0,2.1,4.9,4.6,5L196.6,77.7z"/>
	<path class="st1" d="M195.8,73.9l-2.5-7.6c0,0-0.6,6.6,2.8,8.9L195.8,73.9z"/>
	<path class="st1" d="M195.1,65.7c0,0-0.1-6.2,0.3-6.6c0,0-2.5,5-0.4,9.4L195.1,65.7z"/>
	<path class="st1" d="M201.1,130.2c0,0,3.3-1.7,5,3.2c0,0-2.9,1.7-5.4-2L201.1,130.2z"/>
	<path class="st1" d="M202.9,125c0,0,4-1.5,5.5,3.6c0,0-3.1,1.8-5.9-2.4L202.9,125z"/>
	<path class="st1" d="M203.7,120.6c0,0,3-3,6.9,0.5c0,0-2.8,2.6-6.9,0.4L203.7,120.6z"/>
	<path class="st1" d="M204.4,115.5c0,0,3-3.2,6.8,0.3c0,0-3.3,2.8-6.8,0.5L204.4,115.5z"/>
	<path class="st1" d="M204.4,111.4c0,0,2.3-4.7,6.4-2.3c0,0-2.6,4.1-6.3,3.2L204.4,111.4z"/>
	<path class="st1" d="M203.8,106.2c0,0,2.3-4.8,6.4-2.2c0,0-2.9,4.3-6.3,3L203.8,106.2z"/>
	<path class="st1" d="M202.9,101.8c0,0,1.1-5.3,4.7-5.6c0,0-1.1,5.6-4.3,6.6L202.9,101.8z"/>
	<path class="st1" d="M202.2,97.5c0,0,0.7-6.5,3.7-6.5c0,0-0.4,4.9-3.4,7.4L202.2,97.5z"/>
	<path class="st1" d="M200.5,92.3c0,0,1.2-5.3,4.1-5.8c0,0-0.7,5.2-3.9,7.2L200.5,92.3z"/>
	<path class="st1" d="M199,87.8c0,0,0.4-5.6,2.2-6.3c0,0,0.7,5.2-1.7,7.1L199,87.8z"/>
	<path class="st1" d="M197.9,83.4c0,0,0.6-5.8,2.5-6.5c0,0,0.3,4.6-2.2,6.9L197.9,83.4z"/>
	<path class="st1" d="M196.3,78.1c0,0,0.3-4.7,1.7-5.7c0,0,0.9,5.2-1.1,6.7L196.3,78.1z"/>
	<path class="st1" d="M196,73.6l1.8-7.8c0,0,1.2,6.5-1.9,9.2L196,73.6z"/>
	<path class="st1" d="M196.3,65.8c0,0,3.5-5.1,3.5-5.7c0,0-0.7,5.5-4.9,8L196.3,65.8z"/>
	<path class="st1" d="M196,64.2c0,0,3.5-7.3,4.9-7.8c0,0-4.4,1.9-5.1,7.6L196,64.2z"/>
	<path class="st1" d="M196.7,78.9l0.2,0c-2-8.4-2.3-13.7-0.8-14.9l-0.1-0.2C194.4,65,194.7,70.3,196.7,78.9z"/>
	<path class="st1" d="M202.4,98.7l0.3-0.1c-0.2-0.8-0.5-1.6-0.7-2.3c-2.2-6.8-4-13-5.2-17.8l-0.3-0.2c1.1,4.8,2.9,11.3,5.1,18.1
		C201.9,97.1,202.1,97.9,202.4,98.7z"/>
	<path class="st1" d="M192.9,143.6c0,0,4.5-4.4,7.8-12.1c2-4.5,3.2-9.3,3.7-14.2c0.6-6.1-0.2-13.1-2-19.4l-0.3,0.3
		c4,14.3,1.2,26.1-1.8,33.1c-3.4,7.6-7.7,11.9-7.8,12L192.9,143.6z"/>
	
		<linearGradient id="SVGID_2_" gradientUnits="userSpaceOnUse" x1="318.995" y1="-57.1092" x2="318.995" y2="24.5976" gradientTransform="matrix(1 0 0 -1 -28 175.3557)">
		<stop  offset="0" style="stop-color:#808080;stop-opacity:0.25"/>
		<stop  offset="0.5351" style="stop-color:#808080;stop-opacity:0.12"/>
		<stop  offset="1" style="stop-color:#808080;stop-opacity:0.1"/>
	</linearGradient>
	<path class="st13" d="M325.3,218.5l-8.4-12.2c0,0-0.2-3-0.7-3.7s-0.1-2.3-0.1-2.3s0.6-0.9,0.1-0.9c-0.5-0.1-0.1-2-0.1-2l0-3.1
		c0,0,0.5-3,0.1-3.7c-0.2-0.4-0.2-0.9,0-1.3c0,0,0.5-1.7,0-2.1s-0.4-3.1-0.2-5.2s-0.8-3.3-0.8-3.6c0-0.3-3.1-3.4-3.1-3.7
		s-2-1.4-3.2-1.7c-1.2-0.3-1.8-0.6-1.7-0.7c0-0.2-1.9-0.8-1.9-0.8s-1.7-0.1-2.3-0.9c-0.6-0.8-2.6-1.1-2.6-1.1c0-0.1,0-0.1,0-0.2
		c0-0.1,0-0.1,0-0.2c0.1-0.2,0.3-0.5,0.4-0.8c0-0.1,0.1-0.2,0.1-0.2c0.7,0,1.4-0.2,1.9-0.6c0.6-0.5,0.9-1.2,0.9-1.9
		c0-0.7-0.1-1.5-0.5-2.1c-0.3-0.7-0.9-1.4-0.7-2.2c0.1-0.3,0.3-0.6,0.4-0.9c0.2-0.6,0.1-1.3-0.3-1.9c-0.3-0.6-0.7-1.1-1-1.6
		c-0.4-0.7-0.7-1.5-0.8-2.3c0-0.4-0.1-0.9-0.3-1.3c-0.2-0.3-0.4-0.5-0.7-0.7c-1.2-0.9-2.7-1.3-4.2-1.3c-1.1,0-2.1,0.3-3.2,0.2
		c-0.6-0.1-1.3-0.3-1.9-0.5c-1.3-0.4-2.8-0.6-4,0.2c-1.2,0.8-1.6,2.2-2.4,3.4c-0.7,1-1.7,1.9-2.2,3c0,0,0,0,0-0.1
		c-0.1,0.3-0.2,0.5-0.3,0.8c-0.2,0.9,0,1.8,0.2,2.6c0.1,0.4,0.3,0.9,0.6,1.2c0.4,0.3,0.9,0.2,1.4,0.3c0,0.1,0,0.1-0.1,0.2
		c-1,4.6,1.7,9.2,6.3,10.5c0,0.1,0,0.2,0,0.2c0,0.2,0,0.5,0,0.7l0,0l0,0c0,0-4-0.8-5-0.3c-1.1,0.6-3.2,1-3.5,1.3
		c-0.3,0.3-1.1,0.1-1.8,1.9c-0.7,1.8-0.8,3.7-1.7,4.6c-0.9,0.9-1.4,1.5-1.4,2.1s0.1,0.8-0.2,1c-0.4,0.2-0.9,1-0.7,1.3
		c0,0,0.2,0.8-0.4,1.2c-0.4,0.3-0.6,0.7-0.6,1.2c0,0-0.2,0.9-0.8,1.1c-0.6,0.2-0.9,1.5-0.9,1.5l-1.8,2.1l-3.5-3.9
		c-0.6-0.6-1.5-0.7-2.1-0.1l-1.7,1.6c-0.7,0.2-1.3,0.5-1.7,1c-0.4,0.4-0.7,0.8-0.9,1.3l-1,0.9c-0.6,0.8-0.7,1.8-0.2,2.7l2.3,2.5l0,0
		c-0.8,0.1-1.6,0.4-2.2,0.9c-3.4,3-3.4,5.7-2.9,7c0.5,1.3,4.8,6.1,4.8,6.1s2.5,3.2,6.1,5l0,0c0,0,0,0,0,0c-0.1,0.1-0.1,0.2-0.2,0.2
		c0,0,0,0-0.1,0.1c0,0,0,0.1-0.1,0.1c0,0,0,0.1-0.1,0.1c0,0,0,0.1,0,0.1c0,0,0,0.1-0.1,0.1c0,0,0,0,0,0.1c0,0-0.1,0.1-0.1,0.2
		c0,0,0,0,0,0.1c0,0.1-0.1,0.1-0.1,0.2c0,0,0,0.1,0,0.1c0,0.1,0,0.1-0.1,0.2c0,0,0,0.1,0,0.1c0,0.1,0,0.1-0.1,0.2c0,0,0,0.1,0,0.1
		c0,0.1,0,0.1,0,0.2c0,0,0,0.1,0,0.1c0,0.1,0,0.2-0.1,0.3c0,0,0,0.1,0,0.1c0,0.1,0,0.1,0,0.2c0,0,0,0.1,0,0.1c0,0.1,0,0.1,0,0.2
		c0,0,0,0.1,0,0.1c0,0.1,0,0.1,0,0.2c0,0,0,0.1,0,0.1c0,0.1,0,0.2,0,0.4c-0.1,4.6,0.2,5.3,0.2,5.3s0.6,1.5,2.1,1.6
		c0.2,0,0.5,0,0.7,0c2.1-0.4,6.9-1.2,8.6-0.9c1,0.2,2.9-0.1,4.3-0.3c0.1,0,0.2,0,0.4-0.1l0.2,0.8l0.8-0.2c0.3,0.1,0.5,0.3,0.7,0.4
		c0.2,0.1,0.3,0.2,0.4,0.2c0.8,2.6,3.9,1.7,3.9,1.7l0.8,0.4l7.6,0.2c0,0,1.6,1,2.7,1.3c0.1,0,0.3,0.1,0.4,0.1c0.7,0.1,1.4,0.1,2.1,0
		c0.6,0,1,0,1,0s-0.1-2.1-0.2-4.4c2.9-0.1,5.5-0.3,7.1-0.6c4.1-0.7,5.8-4.4,6.4-6.4c0.2,0.8,0.3,1.6,0.4,2.5
		c0.2,0.7,0.4,1.4,0.6,2.1c0.2,0.6,0.5,1.1,0.9,1.6c3-1,1.2-2.6,0.6-3.2c-0.6-0.7,0.4-1.2,0.4-1.2s0.8-0.6,0.7-1.1
		c-0.1-0.5-0.1-1.1,2.6-1C325.4,220.7,325.3,218.5,325.3,218.5z M283.7,193.4c0,0.2,0.4,2.6,0.7,3.3c0.1,0.4,0.1,0.9,0.1,1.3
		c-1.6-0.1-3.2-0.2-3.2-0.2c0,0.1,0.1,0.1,0.1,0.2c-0.1,0-0.2,0-0.2-0.1c-0.1,0-0.2-0.1-0.4-0.1L283.7,193.4L283.7,193.4z
		 M277.9,202.6l2.8,0.4l0.2,0c-0.1,0.4-0.1,0.9-0.1,1.3c0,0,0.1,0.1,0.2,0.1c0,0.2-0.1,0.4-0.1,0.7c0,0.2,1.3,0.7,2.8,1.1
		c0,0.1,0,0.2-0.1,0.2l0,0c-1.3-0.7-3.4-1-3.6-1.5c-0.2-0.5-7.2-2.9-7.2-2.9s-0.3-0.1-0.7-0.3l1.8,0.3l0.5-0.1
		C275.5,202.2,276.7,202.4,277.9,202.6L277.9,202.6z"/>
	<path class="st5" d="M316.3,220.2c0,0-1.1,6.6-6.6,7.6c-5.6,1-24.1,0.8-24.1,0.8s-10.6-1.5-14.4-10.5c-3.8-9-6.3-12.5-3-12.7
		s21,6,22,6.1C291.2,211.5,317.3,197.9,316.3,220.2z"/>
	<path class="st14" d="M316.3,220.2c0,0-1.1,6.6-6.6,7.6c-5.6,1-24.1,0.8-24.1,0.8s-10.6-1.5-14.4-10.5c-3.8-9-6.3-12.5-3-12.7
		s21,6,22,6.1C291.2,211.5,317.3,197.9,316.3,220.2z"/>
	<path class="st9" d="M266.6,227.5c0,0,0.6,1.5,2.1,1.6c0.2,0,0.4,0,0.7,0c2-0.4,6.8-1.2,8.5-0.9c1,0.2,2.9-0.1,4.2-0.3
		c0.9-0.2,1.5-0.3,1.5-0.3s-1.6-5.2-1.8-5.4c-0.2-0.2-7-4.3-7-4.3l-5.4-0.4l0,0c-0.7,0.1-1.4,0.5-1.8,1.1c-0.6,0.7-1.1,1.8-1.1,3.7
		C266.4,226.9,266.6,227.5,266.6,227.5z"/>
	<path class="st14" d="M266.6,227.5c0,0,0.6,1.5,2.1,1.6c-0.5-0.7-1-1.4-1.5-2.1l0-3.8c-0.2-2.1,0.6-4.2,2.1-5.6l0,0
		c0,0-2.9,0.2-2.9,4.8S266.6,227.5,266.6,227.5z"/>
	<path class="st6" d="M290.1,219.3l5-3.9l7.9-7.8c0,0-0.9,0-2.2-0.1c-0.3,0.2-1.2,0.9-1.3,1.6c0,1-2.1,0.1-3.2,0.6
		c-1.1,0.5-6.5,7.4-7.4,7.4c-0.9,0-1.7-0.5-2.1,0.2c0,0,0,0,0,0L290.1,219.3z"/>
	<path class="st6" d="M267.5,218.6c0.2,0.1,0.4,0.2,0.5,0.2c3.8,1.6,8.6,5.1,8.9,5.7c0.2,0.4,3,2,5.1,3.3c0.9-0.2,1.5-0.3,1.5-0.3
		s-1.6-5.2-1.8-5.4c-0.2-0.2-7-4.3-7-4.3l-5.4-0.4l0,0C268.7,217.6,268,218,267.5,218.6z"/>
	<path class="st5" d="M256.9,207.4c0.5,1.3,4.8,6.1,4.8,6.1s2.7,3.5,6.5,5.2c3.8,1.6,8.6,5.1,8.9,5.7c0.2,0.4,3.3,2.2,5.4,3.5
		c0.2,0.1,0.3,0.2,0.5,0.3c0.4,0.2,0.8,0.5,1.1,0.6c0.4,0.2,0.6,0.3,0.6,0.3s1.3-1.1,2.6-2.1c1.3-1,2.6-2.1,2.6-2.2
		c0-0.1,0.5-1.4,0.4-1.5c-0.1,0-0.3-0.6-0.8-1.2c-0.5-0.7-1.2-1.3-2-1.6c-1.8-0.8-2.6-2.7-2.6-2.7s-0.2-0.1-0.4-0.3
		c-0.5-0.4-1.1-0.6-1.8-0.8c-0.9-0.1-2.5-1.9-2.5-1.9s-1.1-0.7-1.5-1.6c-0.4-0.9-6.5-5-7-5.4l14.7,9.4l3.5,2.3l5-3.9l7.9-7.8
		c0,0-1.1-0.1-2.6-0.1c-3.9-0.2-10.7-0.4-11.6-0.2c-0.7,0.2-1.4,0.2-2.2,0.1c0,0-2,0.1-3.2-0.6c-1.3-0.7-3.3-1-3.6-1.5
		c-0.2-0.5-7.2-2.9-7.2-2.9s-9.4-5-12.8-2C256.4,203.4,256.4,206.2,256.9,207.4z"/>
	<path class="st15" d="M287.3,178.7l1.2,4l1.6,9.1l5.7,0.4l1.7-2.8l1.7-2.8c0,0,1-3.7,1.8-7.2c0.7-3.1,1.1-6.2,0.4-6.5
		c-0.6-0.3-1.1-1.3-1.3-2.5c0-0.1-0.1-0.3-0.1-0.4c-0.2-1-0.3-1.9-0.4-2.9c0,0-12-0.6-10.4,4.3c0.3,0.8,0.5,1.7,0.5,2.6
		c0,0.2,0,0.4,0,0.7C289.4,176.4,288.6,177.8,287.3,178.7z"/>
	<path class="st16" d="M284.8,178l0.4,6.8l1,5.8l1.1,2.7l1,14.8c0,0,9.4,1.1,11.7,0c0.2-0.1,0.3-0.2,0.4-0.3
		c2.8-4.2,1.9-16.3,1.9-16.3l1.1-7.8l-0.7-4.1l-1.7-0.2l-1.3-0.1c0,0-0.3,0.4-0.7,0.9c-1.2,1.5-3.3,4.5-3.1,5.8
		c0.2,1.7-0.2,3.5-0.9,3.8c-0.7,0.3-1.2,0.7-1.3,0.3s-0.2-0.6-0.1-1.3c0.1-0.7-0.5-2.7-0.5-2.7s-1.1-2.4-1-3.4
		c0.1-1-0.1-2.2-0.4-2.5c-0.3-0.3-0.7-0.5-0.4-1.8c0.4-1.3-1.5-3.7-1.5-3.7L284.8,178z"/>
	<path class="st6" d="M297.2,195.1l0.4,11.7c0,0,0.9,0.5,2.3,1.3c0.2-0.1,0.3-0.2,0.4-0.3c2.8-4.2,1.9-16.3,1.9-16.3l1.1-7.8
		l-0.7-4.1l-1.7-0.2c0.7-3.1,1.1-6.2,0.4-6.5c-0.6-0.3-1.1-1.3-1.3-2.5l0,0l-1.2,8.3c0,0,0.1,0.7,0.1,1.5c0,0.5,0,1-0.1,1.5
		c-0.3,0.7-0.1,2-0.1,2c-0.7,1.2-1.1,3.5-1.2,5.8C297.1,192.3,297.2,195.1,297.2,195.1z"/>
	<path class="st9" d="M299.9,170.2c0,0,2,0.2,2.6,1.1c0.6,0.8,2.3,0.9,2.3,0.9s1.9,0.6,1.8,0.8c0,0.2,0.5,0.4,1.7,0.7
		c1.2,0.3,3.1,1.4,3.1,1.7c0,0.3,3.1,3.3,3.1,3.6c0,0.3,0.9,1.5,0.8,3.6c-0.1,2.1-0.2,4.7,0.2,5.1s0,2.1,0,2.1
		c-0.3,0.4-0.3,0.9,0,1.3c0.4,0.7-0.1,3.6-0.1,3.6l0,3c0,0-0.4,1.9,0.1,2c0.5,0.1-0.1,0.9-0.1,0.9s-0.4,1.6,0.1,2.3
		c0.5,0.7,0.7,3.7,0.7,3.7l8.4,12.2c0,0,0.1,2.2-2.5,2.2s-2.6,0.5-2.5,1c0.1,0.5-0.7,1.1-0.7,1.1s-1.1,0.5-0.4,1.2
		c0.6,0.7,2.4,2.2-0.5,3.2c-0.4-0.5-0.6-1-0.9-1.6c-0.3-0.7-0.5-1.4-0.6-2.1c0,0-0.3-3-0.8-3.4s-0.5-2.3-0.5-2.3s0.8-1.5-0.3-2.2
		c-1.1-0.6-17-9.4-17-9.4l-0.4-11.7c0,0-0.3-8.6,1.4-11.5c0,0-0.2-1.3,0.1-2c0.3-0.7,0-3,0-3L299.9,170.2z"/>
	<path class="st6" d="M289.7,174.9c0,0-3.9-0.8-5-0.3c-1.1,0.5-3.1,1-3.4,1.3c-0.3,0.3-1.1,0.1-1.8,1.9c-0.7,1.8-0.8,3.7-1.7,4.6
		c-0.9,0.9-1.4,1.4-1.4,2.1s0.1,0.8-0.2,1c-0.4,0.2-0.9,1-0.7,1.3c0.2,0.3,8.1,7.2,8.1,7.2s0.4,2.6,0.7,3.3
		c0.4,0.7-0.4,9.8-1.2,10.4c-0.8,0.6,5.3,0.6,5.3,0.6s0.3-6,0.5-6.3c0.2-0.3-0.2-6.7-0.2-6.7s0-5.5,0.5-6.9s0.5-6.3,0.5-6.3
		s0.4-2.9,1-3.6C291.2,177.8,289.7,174.9,289.7,174.9z"/>
	<path class="st9" d="M289.5,174.8c0,0-3.9-0.8-5-0.3c-1.1,0.5-3.1,1-3.4,1.3c-0.3,0.3-1.1,0.1-1.8,1.9c-0.7,1.8-0.8,3.7-1.7,4.6
		c-0.9,0.9-1.4,1.4-1.4,2.1c0,0.6,0.1,0.8-0.2,1s-0.9,1-0.7,1.3c0.2,0.3,8.1,7.2,8.1,7.2s0.4,2.6,0.7,3.3c0.4,0.7-0.4,9.8-1.2,10.4
		c-0.8,0.6,5.3,0.6,5.3,0.6s0.3-6,0.5-6.3c0.2-0.3-0.2-6.7-0.2-6.7s0-5.5,0.5-6.9c0.5-1.4,0.5-6.3,0.5-6.3s0.4-2.9,1-3.6
		C291.1,177.7,289.5,174.8,289.5,174.8z"/>
	<path class="st6" d="M289.1,171.5c0.3,0.8,0.5,1.7,0.5,2.6c4,1.2,8.2-0.5,10.3-4.1c-0.2-1-0.3-1.9-0.4-2.9
		C299.5,167.1,287.4,166.5,289.1,171.5z"/>
	<path class="st15" d="M283.2,165.3c0,4.9,4,8.9,9,8.9c4.9,0,8.9-4,8.9-9s-4-8.9-9-8.9c-4.2,0-7.9,3-8.7,7.1
		C283.2,164,283.2,164.7,283.2,165.3z"/>
	<path class="st9" d="M277.4,186l-2.2,0.7c0,0,0.2,0.8-0.4,1.2c-0.4,0.3-0.6,0.7-0.5,1.2c0,0-0.2,0.9-0.8,1.1
		c-0.5,0.2-0.9,1.5-0.9,1.5l-1.8,2.1c0,0-0.7,0.5-0.5,0.8c0.1,0.3-0.7,0.4-0.7,0.4l0.4,7l3.7,0.7l2.3-0.2l1.9-0.7l1.6-1l0.7-1.9
		l3.3-5L277.4,186z"/>
	<path class="st15" d="M270.1,195.4c0,0-4.8-6.9-8.3-3.2s1.4,9.7,2.6,9.5c1.2-0.2,6.8-0.5,6.8-0.5L270.1,195.4z"/>
	<path class="st9" d="M260.1,181.6l21.4,10.9c0.2,0.1,0.3,0.4,0.2,0.6l-8.4,16.4c-0.1,0.2-0.4,0.3-0.6,0.2l-21.4-10.9
		c-0.2-0.1-0.3-0.4-0.2-0.6l8.4-16.4C259.6,181.5,259.9,181.4,260.1,181.6z"/>
	
		<rect x="258.6" y="185.1" transform="matrix(0.4545 -0.8907 0.8907 0.4545 -28.8948 344.0508)" class="st1" width="15.8" height="21"/>
	<circle class="st17" cx="256.4" cy="190.5" r="0.3"/>
	<circle class="st17" cx="276.6" cy="200.8" r="0.6"/>
	<path class="st15" d="M267,196.8c0,5.2,10.6,6.3,10.6,6.3l2.7,0.4l1.2,0.2l0.5-5c0,0-0.6-0.1-1.3-0.2c-1-0.2-2.4-0.7-2.7-1.2
		C277.7,196.2,267.1,191.7,267,196.8z"/>
	<path class="st6" d="M283.4,163.4c0.2,0,0.5,0.1,0.7,0.3c0.3,0.3,0.3,0.9,0.7,1.1c0.1,0.1,0.3,0.1,0.5,0.1c1-0.1,1.6-1.3,2.6-1.6
		c0.6-0.1,1.2-0.1,1.7,0.2c0.2,0.1,0.4,0.2,0.6,0.4c0.3,0.4,0.1,1.1,0.3,1.6c0.2,0.7,1.1,1,1.8,1.1c0.8,0.1,1.6,0.1,2.1,0.7
		c0.3,0.4,0.5,1,0.4,1.5c0,0.2,0,0.4,0,0.6c0.2,0.6,1.2,0.5,1.5,0c0.2-0.3,0.1-0.6,0.6-0.7c0.3,0,0.7,0,1,0.2
		c0.8,0.3,1.6,0.4,2.5,0.4c2.1-4.5,0.2-9.8-4.3-11.9c-4.5-2.1-9.8-0.2-11.9,4.3C283.7,162.1,283.5,162.8,283.4,163.4L283.4,163.4z"
		/>
	<path class="st9" d="M294.7,169c0-0.2,0-0.4,0-0.6c0.1-0.5,0-1.1-0.4-1.5c-0.5-0.6-1.3-0.6-2.1-0.7c-0.8-0.1-1.6-0.4-1.8-1.1
		c-0.2-0.5,0.1-1.2-0.3-1.6c-0.2-0.2-0.4-0.3-0.6-0.4c-0.5-0.2-1.2-0.3-1.7-0.2c-1,0.3-1.6,1.5-2.6,1.6c-0.2,0-0.3,0-0.5-0.1
		c-0.4-0.2-0.4-0.8-0.7-1.1c-0.5-0.5-1.4-0.2-2-0.6c-0.4-0.2-0.5-0.7-0.6-1.2c-0.2-0.8-0.4-1.7-0.2-2.6c0.3-1.5,1.6-2.5,2.5-3.7
		c0.8-1.2,1.2-2.6,2.4-3.4c1.1-0.8,2.7-0.6,4-0.2c0.6,0.2,1.2,0.4,1.9,0.5c1.1,0.1,2.1-0.2,3.2-0.2c1.5,0,3,0.4,4.2,1.3
		c0.3,0.2,0.5,0.4,0.7,0.7c0.2,0.4,0.3,0.8,0.3,1.2c0.1,0.8,0.4,1.6,0.8,2.3c0.3,0.5,0.7,1,1,1.6c0.3,0.6,0.4,1.2,0.3,1.9
		c-0.1,0.3-0.3,0.6-0.4,0.9c-0.2,0.8,0.3,1.5,0.7,2.2c0.3,0.6,0.5,1.4,0.5,2.1c0,0.7-0.4,1.4-0.9,1.9c-0.6,0.4-1.3,0.6-2,0.6
		c-0.9,0-1.7-0.1-2.5-0.4c-0.3-0.1-0.6-0.2-1-0.2c-0.5,0.1-0.4,0.4-0.6,0.7C296,169.5,294.9,169.6,294.7,169z"/>
	<path class="st6" d="M289.9,219.5l5-3.9l7.9-7.8c0,0-1.1-0.1-2.6-0.1c-0.3,0.3-0.5,0.7-0.6,1.1c0,1-2.1,0.1-3.2,0.6
		c-1.1,0.5-6.5,7.4-7.4,7.4c-0.9,0-1.7-0.5-2.1,0.2c0,0,0,0,0,0c-0.2,0.2-0.4,0.3-0.6,0.4L289.9,219.5z"/>
	<path class="st5" d="M279.7,219.2l2.5,8.1l0.4,1.3l1.2-0.3l2.7-0.7l11.8-3.3c1.5-0.1,2.9-0.5,4.3-1.1c2.2-1.3,4.8-1.8,7.4-1.6
		c1.6,0.1,3.3-0.5,4.8-3.2c0,0,3.3-9.7-5-12.5c-8.3-2.8-8.7,1.5-8.7,1.5s0,0-0.1,0.1c-0.3,0.2-1.2,0.9-1.3,1.6c0,1-2.1,0.1-3.2,0.6
		c-1.1,0.5-6.5,7.4-7.4,7.4c-0.9,0-1.7-0.5-2.1,0.2c0,0,0,0,0,0c-0.3,0.4-1.2,0.5-1.7,0.5c-0.3,0-0.5,0-0.5,0l-0.1,0l-0.6,0.2
		L279.7,219.2z"/>
	<path class="st6" d="M280.4,203.5l1.2,0.2l0.5-5c0,0-0.6-0.1-1.3-0.2C281.1,199.1,280.6,201.8,280.4,203.5z"/>
	<path class="st6" d="M312.4,179.9c0,0,3.6-1.1,2.7,9.3s-7.6,16.9-7.6,16.9s-7.7,3.4-11.2,2.9c-3.5-0.5-6-0.7-6-0.7
		c-1.1-0.6-2.3-0.9-3.5-0.9c-2-0.1-6.1-1.3-6.1-1.7s1-6.1,0.5-6.6c0,0,5.5,0.2,6,0.6c0.5,0.4,1.3,0.1,1.9,0c0.6-0.1,2.4-1.7,5.9-0.3
		c0,0,1.2,0.1,1.7-0.2s1.2-0.1,1.2-0.1c0.3-0.1,0.6-0.2,0.8-0.4c0.1-0.2,1.1,0,1.1,0c0.2,0.1,0.5,0,0.6-0.2c0,0,0-0.1,0-0.1
		c0.1-0.3,0.3-0.6,0.5-0.9c0,0,1.1-5.9,3-8.2c0,0,0.6-0.5,0.4-1.1S307.7,178.7,312.4,179.9z"/>
	<path class="st9" d="M312.3,179.1c0,0,3.6-1.1,2.7,9.3c-0.9,10.3-7.6,16.9-7.6,16.9s-7.7,3.4-11.2,2.9s-6-0.7-6-0.7
		c-1.1-0.6-2.3-0.9-3.5-0.9c-2-0.1-6.1-1.3-6.1-1.7s1-6.1,0.5-6.6c0,0,5.5,0.2,6,0.6c0.5,0.4,1.3,0.1,1.9,0c0.6-0.1,2.4-1.7,5.9-0.3
		c0,0,1.2,0.1,1.7-0.2c0.5-0.3,1.2-0.1,1.2-0.1c0.3-0.1,0.6-0.2,0.8-0.4c0.1-0.2,1.1,0,1.1,0c0.2,0.1,0.5,0,0.6-0.2c0,0,0-0.1,0-0.1
		c0.1-0.3,0.3-0.6,0.5-0.9c0,0,1.1-5.9,3-8.2c0,0,0.6-0.5,0.4-1.1S307.6,177.9,312.3,179.1z"/>
	<path class="st6" d="M284,217.9l5.2,6.2c0,0,0,0,0,0c0-0.1,0.5-1.4,0.4-1.5c-0.1-0.1-1-2-2.8-2.9c-0.9-0.4-1.7-1.1-2.2-2L284,217.9
		z"/>
	<path class="st6" d="M284.1,228.7c0.4,0.2,0.6,0.3,0.6,0.3s1.3-1.1,2.6-2.1c1.3-1,2.6-2.1,2.6-2.2c0-0.1,0.5-1.4,0.4-1.5
		c-0.1,0-0.3-0.6-0.8-1.2c-3.5-1-1.3,1.4-1,1.6c0,0-4.3-1-4.5,3.7C284,227.8,284,228.3,284.1,228.7z"/>
	<path class="st9" d="M288.4,230.7l0.7,0.4l7.5,0.2c0.8,0.5,1.7,0.9,2.7,1.3c0.1,0,0.3,0.1,0.4,0.1c0.7,0.1,1.4,0.1,2.1,0
		c0.6,0,1,0,1,0s-0.4-9.5-0.6-10.5c-0.1-0.5-0.8-0.4-1.4-0.1c-0.5,0.2-0.9,0.4-1.4,0.7c0,0-3.2,0.3-3.7,0.6c-0.5,0.3-2-0.2-2.9,0
		s-2.5-1.1-2.5-1.1c-4.4-1.4-1.9,1.3-1.6,1.4c0,0-4.3-1-4.5,3.7C284.1,231.9,288.4,230.7,288.4,230.7z"/>
	<path class="st18" d="M299.3,227c0.1,2,1.6,4.4,2.5,5.7c0.6,0,1,0,1,0s-0.4-9.5-0.6-10.5c-0.1-0.5-0.8-0.4-1.4-0.1
		C300.1,223.5,299.3,225.4,299.3,227z"/>
	<path class="st6" d="M299.3,227c0.1,2,1.6,4.4,2.5,5.7c0.6,0,1,0,1,0s-0.4-9.5-0.6-10.5c-0.1-0.5-0.8-0.4-1.4-0.1
		C300.1,223.5,299.3,225.4,299.3,227z"/>
	<path class="st14" d="M298,227.3c0.5,1.9,0.5,4,1.3,5.3c0.1,0,0.3,0.1,0.4,0.1c0.7,0.1,1.4,0.1,2.1,0c0.6,0,1,0,1,0
		s-0.4-9.5-0.6-10.5c-0.1-0.5-0.8-0.4-1.4-0.1c-0.5,0.2-0.9,0.4-1.4,0.7C299.5,222.7,297.4,224.9,298,227.3z"/>
	<path class="st6" d="M272,208c0,0,3.7,1.2,6.9,5.5L272,208z"/>
	<g class="st19">
		<path d="M302.5,161.1C302.5,161.1,302.4,161.1,302.5,161.1c-0.1,0.2-0.1,0.3-0.2,0.4C302.3,161.4,302.4,161.2,302.5,161.1z"/>
		<path d="M281.3,159.2c0.1-0.3,0.2-0.5,0.3-0.8c0,0.1,0,0.1-0.1,0.2c-0.2,0.9,0,1.7,0.2,2.6c0.1,0.4,0.3,0.9,0.6,1.2
			c0.6,0.4,1.5,0,2,0.6c0.3,0.3,0.3,0.9,0.7,1.1c0.1,0.1,0.3,0.1,0.5,0.1c1-0.1,1.6-1.3,2.6-1.6c0.6-0.1,1.2-0.1,1.7,0.2
			c0.2,0.1,0.4,0.2,0.6,0.4c0.3,0.4,0.1,1.1,0.3,1.6c0.2,0.7,1.1,1,1.8,1.1c0.8,0.1,1.6,0.1,2.1,0.7c0.3,0.4,0.5,1,0.4,1.5
			c0,0.2,0,0.4,0,0.6c0.2,0.6,1.2,0.5,1.5,0c0.2-0.3,0.1-0.6,0.6-0.7c0.3,0,0.7,0,1,0.2c0.8,0.3,1.7,0.4,2.5,0.4
			c0.7,0,1.4-0.2,2-0.6c0.3-0.2,0.5-0.5,0.6-0.7c-0.1,0.5-0.4,1-0.8,1.3c-0.6,0.4-1.3,0.6-2,0.6c-0.9,0-1.7-0.1-2.5-0.4
			c-0.3-0.1-0.6-0.2-1-0.2c-0.5,0.1-0.4,0.4-0.6,0.7c-0.3,0.5-1.3,0.5-1.5,0c0-0.2,0-0.4,0-0.6c0.1-0.5,0-1.1-0.4-1.5
			c-0.5-0.6-1.3-0.6-2.1-0.7c-0.8-0.1-1.6-0.4-1.8-1.1c-0.2-0.5,0.1-1.2-0.3-1.6c-0.2-0.2-0.4-0.3-0.6-0.4c-0.5-0.2-1.2-0.3-1.7-0.2
			c-1,0.3-1.6,1.5-2.6,1.6c-0.2,0-0.3,0-0.5-0.1c-0.4-0.2-0.4-0.8-0.7-1.1c-0.5-0.5-1.4-0.2-2-0.6c-0.4-0.2-0.5-0.7-0.6-1.2
			C281.2,160.9,281.1,160,281.3,159.2z"/>
	</g>
	<path class="st6" d="M303.1,190.5c-0.7,1-1.5,1.9-2.2,2.9c-0.6,1-1.1,2.2-1,3.4c0.7-0.7,1-1.6,1.4-2.4c0.7-1.4,1.7-2.6,2.6-4
		c0.2-0.3,1.2-1.7,0.7-1.8C304.2,188.6,303.3,190.2,303.1,190.5z"/>
	<ellipse class="st20" cx="95.5" cy="159.8" rx="36.9" ry="34.8"/>
	<path class="st21" d="M151.5,202.4l-30.5-9.1c-6.3,3-13.3,4.6-20.3,4.6c-23.9,0-43.3-17.8-43.3-39.7s19.4-39.7,43.3-39.7
		s43.3,17.8,43.3,39.7c0,11-5.1,21.6-13.9,29.1L151.5,202.4z M120.9,192.6l0.1,0l27,8.1l-19-13.3l0.3-0.3c8.9-7.4,14-17.9,14-28.9
		c0-21.5-19.2-39-42.7-39S58,136.7,58,158.2s19.2,39,42.7,39c7,0,13.9-1.6,20.1-4.6L120.9,192.6z"/>
	<circle class="st1" cx="86.2" cy="160.5" r="3.4"/>
	<circle class="st1" cx="96" cy="160.5" r="3.4"/>
	<circle class="st1" cx="105.7" cy="160.5" r="3.4"/>
	
		<linearGradient id="SVGID_3_" gradientUnits="userSpaceOnUse" x1="-1092.7196" y1="51.2949" x2="-1092.7196" y2="143.3913" gradientTransform="matrix(-1 0 0 -1 -969.8248 175.3557)">
		<stop  offset="0" style="stop-color:#808080;stop-opacity:0.25"/>
		<stop  offset="0.5351" style="stop-color:#808080;stop-opacity:0.12"/>
		<stop  offset="1" style="stop-color:#808080;stop-opacity:0.1"/>
	</linearGradient>
	<path class="st22" d="M80.9,123.2c2.1,1.4,5.3,0.7,5.3,0.7s4.8-2.3,6.2-2.3s4.9-1.4,4.9-1.4l-0.1-0.9l-0.4-2.9
		c2.2,1.7,4.6,1.1,5.8,1c1.3-0.1,8.2-4.2,8.8-4.5c0.2-0.1,0.5-0.4,0.6-0.6h0c0.4-0.7,0.8-1.4,1.2-2.1l0,0c0.4-0.4,0.7-0.7,0.7-0.7
		c0.1-0.4,0.2-0.8,0.4-1.1c0.7-0.1,1.4-0.4,2.1-0.8c0.1-0.1,0.2-0.2,0.3-0.3c0.3-0.3,0.4-0.8,0.4-1.2c0,0,6.7-6.8,5.8-9.6
		c-0.9-2.8,2.2-2.9,2.2-2.9s4.7-2,5.3-3.2c0.4-0.7,3.9-2.4,6.6-3.5c0.1,0,0.2-0.1,0.3-0.1c1,2.2,6.2,0.5,7.3-0.4
		c1.1-1,4.3-1.5,4.3-1.5s0.1-13.1,1.2-14.8c0.5-0.8,0.6-3.4,0.6-5.9c0-0.1,0-0.2,0-0.3c1.4-0.3,4.8-0.9,6.4-1.1c1-0.1,2-0.7,2.8-1.3
		c0.1,0.1,0.1,0.1,0.1,0.1c0.3,0.1,0.6,0.2,0.9,0.1c0.3,0,0.5,0,0.8-0.1c0.6-0.3,2.8-1,3.7-1.3s-0.1-2.7-0.7-3.2
		c-0.6-0.5-1-1.1-0.7-1.3c0.3-0.3-0.8-0.9-1.5-1.1c-0.7-0.1-2.7-1.1-2.7-1.1s-0.7-1.5-2-1.5c-1.2,0-2.8-1.2-2.8-1.2
		c-0.1-0.5-1.4-0.6-1.4-0.6s-4.9-3.8-5.7-3.3c-0.8,0.5-3.1-0.7-3.1-0.7s-2.7,0.3-3.4-0.2l0,0c0-0.2-0.1-0.3-0.2-0.5
		c-0.1-0.5-0.9-1.1-1.5-1.6c0.1-0.3,0.1-0.6,0.1-1c0-0.1,0-0.3,0-0.4c0,0,0,0,0-0.1c0-0.3,0.1-0.6,0.1-0.9c0-0.3,0.1-0.6,0.2-0.9
		c0.1-0.2,0.3-0.3,0.4-0.5c0,0,0.1-0.1,0.1-0.1c0,0,0,0,0,0c0,0,0-0.1,0.1-0.1c0,0,0,0,0,0c0-0.1,0.1-0.2,0.1-0.3c0,0,0,0,0,0
		c0,0,0-0.1,0-0.1l0,0c0-0.4,0-0.8-0.2-1.2c-0.2-0.6-0.5-1.2-0.6-1.9c0-0.3,0-0.7,0-1c-0.2-0.7-0.9-1.2-1.6-1.5
		c-1-0.4-1.5-0.9-2.3-1.5c-0.7-0.5-1.8-0.3-2.7-0.2c-2,0.1-3.9,0.7-5.8,1.3c-0.7,0.2-1.4,0.5-2,1c-0.4,0.3-0.6,0.8-0.7,1.2l0,0l0,0
		c0,0.1,0,0.2,0,0.3c0,0,0,0,0,0c0,0,0,0.1,0,0.1c0,0,0,0,0,0c0,0.1,0,0.1,0,0.2l0,0c0.1,0.2,0.2,0.5,0.3,0.7c0,0.1,0,0.1,0,0.2
		c0,0,0,0,0,0c0,0.1,0,0.1,0,0.2l0,0c0.1,0.6-0.1,1.2-0.2,1.9c0,0.1,0,0.2,0,0.3l0,0l0,0c0,0.4,0,0.7,0.1,1.1l0,0c0,0,0,0.1,0,0.1
		c0,0,0,0,0,0.1c0,0,0,0.1,0,0.1c0,0,0,0,0,0.1c0,0,0,0.1,0,0.1c0,0,0,0.1,0,0.1c0,0,0,0.1,0,0.1c0,0,0,0.1,0,0.1c0,0,0,0,0.1,0.1
		c0,0,0,0.1,0.1,0.1c0,0,0,0,0.1,0.1c0,0,0,0.1,0.1,0.1c0,0,0,0,0.1,0.1c0,0,0.1,0,0.1,0.1c0,0,0,0,0.1,0c0,0,0.1,0,0.1,0.1
		c0,0,0,0,0.1,0c0.1,0,0.1,0.1,0.2,0.1c0.4,0.2,0.9,0.2,1.1,0.6c0.1,0.1,0.1,0.2,0.1,0.3c0,0,0,0,0,0.1V43c0,0.2,0,0.4,0,0.6
		c0,0.1,0,0.2,0,0.3c0,0.1,0,0.2,0.1,0.2c0.3,1.4,1,2.6,2.1,3.5c0,0.1,0,0.2,0.1,0.4c-0.6,0.5-1.3,0.8-2,1c-1.6,0.5-3.9,2.7-3.9,2.7
		s-1.1,8.2-1.4,9.3c-0.3,1-0.5,4.9-0.5,4.9s-0.3,1.6-0.7,2.4c-0.3,0.6-0.2,3,0.6,4.5c-0.1,0.3-0.3,0.6-0.5,0.8
		c-1.6,1.9-6.5,1.8-8.1,1.8c-1.5,0-2,0.9-2,1.1c-3,0.8-12.6,3.6-13.8,4.1c-1.4,0.6-2.1,6.4-2.1,6.4s-2.8,9.7-2.7,11
		s-0.9,4.8-0.9,4.8s0,4-0.5,4.3c0,0,0,0,0,0c-0.5,0.2-0.4,2.1-0.4,2.1s0.3,0.1,0.9,0.2c-0.1,1-0.7,2.4-1.1,3.3
		c-0.2-0.3-0.4-0.4-0.5-0.1c-0.3,0.9-5.4,6.9-6.7,6.9c-0.6,0-1.6,0.5-2.3,1.2C80.1,121.5,79.8,122.4,80.9,123.2z M104.2,88.2
		c5.8,0.5,11.9-0.4,11.9-0.4s-0.5,1.7-0.9,2.4s-1.6,4.5-1.6,5.3s-1.8,7.7-2.4,8c-0.3,0.2-0.5,0.5-0.6,0.9c-0.1,0.3-0.3,0.7-0.4,1
		c0,0.2,0,0.3,0,0.5c-0.4,0.4-0.8,0.8-1.2,1.1l0,0c0,0-2.4,1.3-3.2,2.1s-4.6,1.6-4.6,1.6c-0.9,0.4-1.9,0.9-2.7,1.4
		c-1.2,0.7-2.4,1.6-2.7,2.5c0.1-1.5,0.3-3.3,0.5-4.5c0.1,0,0.1,0,0.2,0c1.9-0.1,1.6-1.9,1.5-2.4c0-0.1,0-0.1,0-0.1
		c1.4-1.5,4.4-12.5,4-13.7c-0.4-1.2,0.3-2.3,0.5-2.3s0.4-1.3,0-2.1C102.4,88.9,104.2,88.2,104.2,88.2L104.2,88.2z M150.9,58.6
		c-0.1,0-0.2,0.1-0.4,0.1c0-0.1,0-0.1,0-0.1S150.6,58.7,150.9,58.6L150.9,58.6z M131.2,48.5c-0.1,0.1-0.1,0.1-0.2,0.2
		c0,0,0,0-0.1,0.1c0-0.1,0-0.3,0-0.4C131,48.5,131.1,48.5,131.2,48.5L131.2,48.5z M124.4,61.5l0,0.4c0,0,0,0.2-0.1,0.6L124.4,61.5z
		 M155.5,57.8l-1.2,0.2c0.2-0.1,0.3-0.1,0.5-0.2c0.1-0.1,0.2-0.1,0.4-0.1c0.2,0,0.3,0,0.4,0.1C155.6,57.8,155.6,57.8,155.5,57.8
		L155.5,57.8z"/>
	<path class="st23" d="M115.5,106.2c0,0-1.4,2.8-1.3,3c0.1,0.2-2.9,2.6-2.9,2.6l-3.3-2.3l0.3-1.6c0,0,3.7-3.3,3.9-3.7
		S115.5,106.2,115.5,106.2z"/>
	<path class="st24" d="M96.9,115.7c2.3,2.2,4.9,1.5,6.2,1.4c1.3-0.1,8-4.2,8.7-4.5c0.2-0.1,0.4-0.4,0.6-0.6h0
		c0.4-0.7,0.8-1.4,1.1-2.1c0,0-2.3,0.6-2.8,0c0,0-0.9-1.1-1.1-1.1s0-2,0-2s-2.4,1.3-3.2,2.1s-4.5,1.6-4.5,1.6
		c-0.9,0.4-1.8,0.9-2.7,1.4C97.4,113,95.6,114.5,96.9,115.7z"/>
	<path class="st25" d="M96.9,115.7c2.3,2.2,4.9,1.5,6.2,1.4c1.3-0.1,8-4.2,8.7-4.5c0.2-0.1,0.4-0.4,0.6-0.6
		c-0.8-0.5-5.9,2.8-7.4,3.4c-1.4,0.6-5.1,0.3-7.1-0.6c-1-0.4,0-1.8,1.3-3C97.4,113,95.6,114.5,96.9,115.7z"/>
	<path class="st23" d="M97.2,108.8c0,0-0.9,7.1-0.7,8.1c0.2,0.9-5.9-3.2-5.9-3.2s2.2-4.5,1.5-5.5C91.4,107.2,97.2,108.8,97.2,108.8z
		"/>
	<path class="st9" d="M91.3,109c0,0,3.9,1.1,6,1c1.9-0.1,1.6-1.9,1.5-2.4c0-0.1,0-0.1,0-0.1c1.3-1.5,4.3-12.4,3.9-13.6
		s0.3-2.3,0.5-2.3c0.2,0,0.4-1.3,0-2.1s1.5-1.4,1.5-1.4c5.7,0.5,11.7-0.4,11.7-0.4s-0.5,1.7-0.9,2.3s-1.5,4.5-1.5,5.3
		c0,0.8-1.8,7.7-2.3,8c-0.3,0.2-0.5,0.5-0.6,0.8c-0.1,0.3-0.3,0.7-0.4,1c0.2,4.5,5.3,2.7,6,2.1c0.4-0.4,0.7-0.9,0.7-1.5
		c0,0,6.6-6.7,5.7-9.5c-0.9-2.8,2.1-2.9,2.1-2.9s4.6-2,5.2-3.2c0.4-0.7,3.8-2.4,6.4-3.5c1.6-0.7,2.9-1.2,2.9-1.2l-1.1-3.9l-0.9-3.1
		l-1.6-0.6l-5.1-1.9l-9.2-1.3l-0.8,0.1l-8.9,1.2c0,0-13,3.7-14.4,4.3c-1.3,0.6-2.1,6.4-2.1,6.4s-2.8,9.6-2.7,10.9
		c0.1,1.3-0.9,4.8-0.9,4.8s0,4-0.5,4.3c0,0,0,0,0,0C91.2,107,91.3,109,91.3,109z"/>
	<path class="st6" d="M104.6,88.2c5.7,0.5,11.7-0.4,11.7-0.4c0.4-1.3,6-4.7,6-4.7C117.7,81.9,104.6,88.2,104.6,88.2z"/>
	<path class="st26" d="M110.7,105.2c0.2,4.5,5.3,2.7,6,2.1c0.1-0.1,0.2-0.2,0.3-0.3c-1.8,0.7-4.9,1.2-5.9-2.9
		C110.9,104.5,110.8,104.9,110.7,105.2z"/>
	<path class="st26" d="M91.3,109c0,0,3.9,1.1,6,1c1.9-0.1,1.6-1.9,1.5-2.4c-2-0.1-5.3-0.2-7.1-0.8c0,0,0,0,0,0
		C91.2,107,91.3,109,91.3,109z"/>
	<path class="st6" d="M110.7,105.2c0.2,4.5,5.3,2.7,6,2.1c0.1-0.1,0.2-0.2,0.3-0.3c-1.8,0.7-4.9,1.2-5.9-2.9
		C110.9,104.5,110.8,104.9,110.7,105.2z"/>
	<path class="st6" d="M91.3,109c0,0,3.9,1.1,6,1c1.9-0.1,1.6-1.9,1.5-2.4c-2-0.1-5.3-0.2-7.1-0.8c0,0,0,0,0,0
		C91.2,107,91.3,109,91.3,109z"/>
	<path class="st24" d="M81.7,122.9c2.1,1.4,5.2,0.7,5.2,0.7s4.7-2.3,6.1-2.3c1.4,0,4.8-1.4,4.8-1.4l-0.1-0.9l-0.6-4.5
		c0,0-5.2-0.1-5.4-0.6c0,0-0.9-2.3-1.3-1.4c-0.3,0.8-5.3,6.8-6.6,6.8c-0.6,0-1.6,0.5-2.3,1.2C81,121.2,80.7,122.1,81.7,122.9z"/>
	<path class="st6" d="M99.6,83.5c0,0,4.3,2.7,3.1,3.3C101.6,87.5,99.6,83.5,99.6,83.5z"/>
	<path class="st6" d="M97.8,88.8c0,0,3.7,3.5,2.3,3.6S97.8,88.8,97.8,88.8z"/>
	<path class="st6" d="M93.8,100c0,0,1.9,3.6,1.2,4.2C94.3,104.8,93.8,100,93.8,100z"/>
	<path class="st6" d="M114.7,103.6c-0.7,0.7,6.3-2.2,4.7-2.3S114.7,103.6,114.7,103.6z"/>
	<path class="st23" d="M128.7,53.7c0,0,0.1,0,0.2,0c0.8-0.1,3.8-0.6,6.5-1.2c0.7-0.1,1.3-0.3,1.9-0.4c2.1-0.5,3.4-1.1,2.6-1.6
		c-1.2-0.6-1.8-1.8-2.1-2.8c0-0.1-0.1-0.2-0.1-0.3c-0.1-0.5-0.2-1-0.3-1.5c0,0-7.5-2.7-6.1,0c0.7,1.3,0.2,2.4-0.4,3.1
		c-0.5,0.5-1,0.9-1.6,1.2L128.7,53.7z"/>
	<path class="st6" d="M136.7,51.7c0,0-2.7,1.9-5.4,0.3c-2.7-1.6-6.3,14.1-6.3,14.1l-3.7,9.2c0,0-2.4,2,0.6,2.9
		c3,0.9,9.7-0.9,11.4,1.7c1.7,2.5,4.9,2.9,5.2,2.9c0.3,0,1.6-9.5,1.6-9.5l0.3-13.8L136.7,51.7z"/>
	<path class="st27" d="M121.9,77.6c3,0.9,9.7-0.9,11.4,1.7c0.7,1,1.7,1.8,2.9,2.3c0.7,0.3,1.5,0.5,2.4,0.6c0,0,0.1-0.2,0.2-0.5
		c0.5-1.9,1.4-9,1.4-9l0.3-13.8l-3.2-6.9l-0.4-0.9c-0.4,0.3-0.9,0.5-1.4,0.7c-1.3,0.5-2.8,0.4-4.1-0.3c-0.8-0.5-1.7,0.6-2.5,2.2
		c-2,4-3.8,11.9-3.8,11.9l-3.7,9.2c-0.1,0.1-0.2,0.2-0.3,0.2C120.5,75.6,119.6,76.9,121.9,77.6z"/>
	<path class="st6" d="M136.2,78.1c-0.1,1.2-0.2,2.3-0.1,3.5c0.1,1.7,0.3,3.3,0.6,4.9c0,0.1,0,0.2,0.1,0.3c1.6-0.7,2.9-1.2,2.9-1.2
		l-1.1-3.9c0.5-1.9,1.4-9,1.4-9l0.3-13.8l-3.2-6.9c2.1-0.5,3.4-1.1,2.6-1.6c-1.3-0.7-1.9-2-2.2-3.1c-0.5,0.8-1.2,1.4-1.9,2
		c0,0,0,0,0,0l-0.2,2.3l-0.1,0.7l-0.2,1.5c0,0,0.7,17.5,1.3,18.5c0.5,1,0.3,2.9-0.2,5.2C136.3,77.8,136.3,77.9,136.2,78.1z"/>
	<path class="st28" d="M136.6,77.4c-0.5,2.3-0.1,6,0.5,8.9s6.2,1,7.3,0c1.1-1,4.2-1.5,4.2-1.5s0.1-13,1.1-14.7
		c0.5-0.8,0.6-3.4,0.6-5.9c0-2.2-0.1-4.4-0.2-5.1c0-0.2,0-0.3,0-0.3s4.3-7.3,4.3-7.9c-0.1-0.5-1.3-0.6-1.3-0.6s-4.8-3.7-5.6-3.3
		c-0.8,0.5-3-0.7-3-0.7s-2.8,0.3-3.4-0.2c-0.1-0.1-0.1-0.2-0.1-0.2c0.1-0.9-2.8-2.7-2.9-2.7c2.4,2.2-1.5,5.6-2,6c0,0,0,0,0,0
		l-0.5,4.5c0,0,0.7,17.5,1.3,18.5S137,75.2,136.6,77.4z"/>
	<circle class="st26" cx="136.8" cy="58.4" r="0.3"/>
	<path class="st6" d="M136.1,49.4l2,2l3-4.9c-0.1-0.1-0.1-0.2-0.1-0.2c0.1-0.9-2.8-2.7-2.9-2.7C140.5,45.7,136.6,49.1,136.1,49.4z"
		/>
	<circle class="st6" cx="137.5" cy="69" r="0.3"/>
	<circle class="st26" cx="137.5" cy="68.9" r="0.3"/>
	<path class="st28" d="M136,49.2l2,2l3-4.9c-0.1-0.1-0.1-0.2-0.1-0.2c0.1-0.9-2.8-2.7-2.9-2.7C140.4,45.4,136.5,48.8,136,49.2z"/>
	<path class="st9" d="M138,67.9l-3.6-0.1c-0.3,0-0.5-0.2-0.5-0.5l0.2-8.7c0-0.3,0.2-0.5,0.5-0.5l3.6,0.1c0.3,0,0.5,0.2,0.5,0.5
		l-0.2,8.7C138.5,67.7,138.3,67.9,138,67.9z"/>
	<path class="st6" d="M138,67.9l-3.6-0.1c-0.3,0-0.5-0.2-0.5-0.5l0.2-8.7c0-0.3,0.2-0.5,0.5-0.5l3.6,0.1c0.3,0,0.5,0.2,0.5,0.5
		l-0.2,8.7C138.5,67.7,138.3,67.9,138,67.9z"/>
	<path class="st9" d="M138,68.1l-3.6-0.1c-0.3,0-0.5-0.2-0.5-0.5l0.2-8.7c0-0.3,0.2-0.5,0.5-0.5l3.6,0.1c0.3,0,0.5,0.2,0.5,0.5
		l-0.2,8.7C138.6,67.9,138.3,68.1,138,68.1z"/>
	<circle class="st28" cx="136.5" cy="61.2" r="0.7"/>
	<path class="st6" d="M111.4,76.8c1.7,0.7,12.6-1.2,14.2-1.7c1.6-0.5,3.9-4.1,2.8-6.7s0.4-5.1,0.4-5.1s2.4-5.1,2.9-6.1
		s1.6-3.9,1.8-4.4c0-0.1,0-0.2-0.1-0.3c-0.4-0.7-2.1-1.8-2.1-1.8c-0.5,0.2-0.5-1.2-0.5-2.2c0-0.6,0-1,0-1s-0.2,0.2-0.6,0.5
		c-0.1,0.1-0.3,0.2-0.4,0.4c-0.6,0.5-1.3,0.9-2.1,1.1c-1.6,0.5-3.9,2.7-3.9,2.7l0.7,10.2c0,0-1.5,9.6-3.1,11.5s-6.4,1.8-8,1.8
		S111.4,76.8,111.4,76.8z"/>
	<path class="st28" d="M111.3,76.4c1.7,0.7,12.6-1.2,14.2-1.7c1.6-0.5,3.9-4.1,2.8-6.7c-1.1-2.6,0.4-5.1,0.4-5.1s2.4-5.1,2.9-6.1
		s1.6-3.9,1.8-4.4c0-0.1,0-0.2-0.1-0.3c-0.4-0.7-2.1-1.8-2.1-1.8c-0.5,0.2-0.5-1.2-0.5-2.2c0-0.6,0-1,0-1s-0.2,0.2-0.6,0.5
		c-0.1,0.1-0.3,0.2-0.4,0.4c-0.6,0.5-1.3,0.9-2.1,1.1c-1.6,0.5-3.9,2.7-3.9,2.7l0.7,10.2c0,0-1.5,9.6-3.1,11.5
		c-1.6,1.9-6.4,1.8-8,1.8S111.3,76.4,111.3,76.4z"/>
	<path class="st6" d="M129.4,47.4c0,0,0.1,0.4,0.2,0.9c0.4,1.8,1.2,5.8,1.8,5.7c0.4-0.1,1.2-0.9,1.8-1.6c-0.4-0.7-2.1-1.8-2.1-1.8
		c-0.5,0.2-0.5-1.2-0.5-2.2L130,48L129.4,47.4z"/>
	<path class="st28" d="M129.5,47.2c0,0,0.1,0.4,0.2,0.9c0.4,1.8,1.2,5.8,1.8,5.7c0.4-0.1,1.2-0.9,1.8-1.6c-0.4-0.7-2.1-1.8-2.1-1.8
		c-0.5,0.2-0.5-1.2-0.5-2.2l-0.5-0.5L129.5,47.2z"/>
	<path class="st23" d="M125.3,66.8c0,0,3.3-0.7,4.3-2.1s7.3-2.7,6.5-1.2c-0.8,1.5-6.5,6.5-6.5,6.5l-2.5,3.6l-3.3-0.8l-1.4-2.7
		L125.3,66.8z"/>
	<path class="st6" d="M133.1,70.6c0,0-3.2,1.2-3.7,2.8C128.9,75,133.1,70.6,133.1,70.6z"/>
	<path class="st6" d="M135.1,72.4c0,0,0.3,1.7-3.7,1.5L135.1,72.4z"/>
	<path class="st6" d="M152.5,51.1L154,51c0,0,1.6,1.2,2.8,1.2s1.9,1.5,1.9,1.5s2,0.9,2.7,1.1c0.7,0.1,1.8,0.8,1.5,1.1
		c-0.3,0.3,0.1,0.9,0.7,1.3s1.5,2.9,0.7,3.2c-0.8,0.3-3,1-3.6,1.3c-0.4,0.2-0.9,0.2-1.3,0c0,0-3.5-4.6-5.3-3.7
		c-1.8,0.9-4.3,0.9-4.3,0.9l-1.9-4.1L152.5,51.1z"/>
	<path class="st28" d="M121.9,73c0.3,0.5,0.7,0.8,1.2,0.9c1.3,0.2,2.6,0,3.9-0.4c0,0-6.7-2.1-0.2-7.3h-1.7l-0.6-0.2l0.3-1.4
		l0.4-12.4l-1.4-0.3c0,0-1.1,8.2-1.4,9.2c-0.3,1-0.5,4.9-0.5,4.9s-0.3,1.6-0.7,2.4C120.9,68.9,121,71.6,121.9,73z"/>
	<path class="st6" d="M122.2,73c0.3,0.5,0.7,0.8,1.2,0.9c1.3,0.2,2.6,0,3.9-0.4c0,0-6.7-2.1-0.2-7.3h-1.7l-0.6-0.2
		C123.8,67.7,122.3,70.7,122.2,73z"/>
	<path class="st29" d="M121.9,73c0.3,0.5,0.7,0.8,1.2,0.9c1.3,0.2,2.6,0,3.9-0.4c0,0-6.7-2.1-0.2-7.3h-1.7l-0.6-0.2
		C123.5,67.7,122,70.7,121.9,73z"/>
	<path class="st28" d="M121.9,73c0.3,0.5,0.7,0.8,1.2,0.9c1.3,0.2,2.6,0,3.9-0.4c0,0-6.7-2.1-0.2-7.3h-1.7l-0.6-0.2
		C123.5,67.7,122,70.7,121.9,73z"/>
	<path class="st6" d="M130.9,49c2.3,1.1,5.1,0.5,6.9-1.3c0-0.1-0.1-0.2-0.1-0.3c-0.1-0.5-0.2-1-0.3-1.5c0,0-7.5-2.7-6.1,0
		C132,47.2,131.5,48.2,130.9,49z"/>
	<path class="st23" d="M127.3,43.2L127.3,43.2c0,0.3,0,0.4,0,0.6c0,0.2,0,0.4,0.1,0.5c0.7,3.3,3.8,5.4,7.1,4.8
		c2.1-0.4,3.8-1.9,4.5-4c0-0.1,0.1-0.2,0.1-0.4c0.1-0.5,0.2-1.1,0.2-1.6c0-0.1,0-0.3,0-0.4c-0.2-3.3-3.1-5.9-6.5-5.6
		C129.8,37.4,127.3,40,127.3,43.2z"/>
	<path class="st6" d="M127.3,43.3c0,0.2,0,0.4,0,0.6c0,0.1,0,0.2,0,0.3c0,0.1,0,0.2,0.1,0.2c0.2,0.6,1,0.9,1.6,0.6
		c0.2-0.2,0.4-0.4,0.5-0.6c0.6-1,1.3-2.2,2.6-2.3c0.5,0,1,0.2,1.5,0.3c0.5,0.1,1.1,0.1,1.5-0.2c0.3-0.3,0.4-0.7,0.8-0.8
		c0.4-0.1,0.7,0.3,0.9,0.6c0.2,0.3,0.3,0.8,0.7,0.9c0.2,0.1,0.3,0.1,0.5,0.2c0.7,0.4,0.4,1.8,1.1,2c0,0,0,0,0.1,0c0-0.1,0-0.2,0-0.4
		c0.1-0.7,0.1-1.4,0.2-2c-0.2-3.3-3.1-5.9-6.5-5.6C129.8,37.4,127.3,40,127.3,43.3L127.3,43.3z"/>
	<path class="st9" d="M138.1,34.2c0.7,0.3,1.5,0.8,1.6,1.5c0,0.3,0,0.6,0,1c0,0.7,0.3,1.3,0.5,1.9c0.2,0.6,0.3,1.4-0.1,1.9
		c-0.1,0.2-0.3,0.3-0.4,0.5c-0.1,0.3-0.2,0.6-0.2,0.9l-0.3,3.3c-0.8-0.2-0.5-1.6-1.2-2c-0.2-0.1-0.3-0.1-0.5-0.2
		c-0.4-0.2-0.5-0.6-0.7-0.9c-0.2-0.3-0.5-0.7-0.9-0.6c-0.4,0.1-0.5,0.5-0.8,0.8c-0.4,0.3-1,0.3-1.5,0.2s-1-0.3-1.5-0.3
		c-1.2,0-2,1.2-2.6,2.3c-0.1,0.2-0.3,0.5-0.5,0.6c-0.6,0.4-1.5-0.1-1.6-0.8c-0.1-0.4,0.1-0.8-0.2-1.2c-0.2-0.3-0.7-0.4-1.1-0.6
		c-1-0.4-1.3-1.7-1.1-2.7c0.1-0.7,0.4-1.5,0.2-2.2c-0.1-0.2-0.2-0.5-0.3-0.7c-0.2-0.7,0.1-1.4,0.7-1.9c0.6-0.5,1.3-0.8,2-1
		c1.8-0.6,3.7-1.2,5.7-1.3c0.8-0.1,2-0.3,2.6,0.2C136.6,33.3,137.1,33.8,138.1,34.2z"/>
	<circle class="st6" cx="136.5" cy="53.1" r="0.3"/>
	<circle class="st26" cx="136.5" cy="53" r="0.3"/>
	<circle class="st6" cx="138.6" cy="74" r="0.3"/>
	<circle class="st26" cx="138.6" cy="73.9" r="0.3"/>
	<circle class="st6" cx="137.5" cy="79.6" r="0.3"/>
	<circle class="st26" cx="137.5" cy="79.4" r="0.3"/>
	<path class="st6" d="M126.1,58.4c0,0-0.7,5,0,5.8S126.1,58.4,126.1,58.4z"/>
	<path class="st6" d="M147.8,67.6c0,0,1.4,3,0,5.9s-2.3,4.1-1.8,5.9C146.5,81.3,147.8,67.6,147.8,67.6z"/>
	<path class="st6" d="M81.7,122.9c2.1,1.4,5.2,0.7,5.2,0.7s4.7-2.3,6.1-2.3c1.4,0,4.8-1.4,4.8-1.4l-0.1-0.9
		c-1.4,0.3-4.5,0.9-4.9,1.2c-0.5,0.4-6.2,2.3-6.2,2.3s-3.9-0.5-5-2.1C81,121.2,80.7,122.1,81.7,122.9z"/>
	<g class="st19">
		<path d="M139.7,36.1c0-0.1,0-0.1,0-0.2C139.7,36,139.7,36.1,139.7,36.1C139.7,36.1,139.7,36.1,139.7,36.1z"/>
		<path d="M126.1,41.8c0.4,0.2,0.9,0.2,1.1,0.6c0.2,0.3,0.1,0.8,0.2,1.2c0.1,0.7,1,1.2,1.6,0.8c0.2-0.2,0.4-0.4,0.5-0.6
			c0.6-1,1.3-2.2,2.6-2.3c0.5,0,1,0.2,1.5,0.3s1.1,0.1,1.5-0.2c0.3-0.3,0.4-0.7,0.8-0.8c0.4-0.1,0.7,0.3,0.9,0.6
			c0.2,0.3,0.3,0.8,0.7,0.9c0.2,0.1,0.3,0.1,0.5,0.2c0.7,0.4,0.4,1.9,1.2,2c0.1-1.1,0.2-2.2,0.3-3.3c0-0.3,0.1-0.6,0.2-0.9
			c0.1-0.2,0.3-0.3,0.4-0.5c0.2-0.2,0.2-0.4,0.3-0.7c0.1,0.4,0,0.9-0.3,1.2c-0.1,0.2-0.3,0.3-0.4,0.5c-0.1,0.3-0.2,0.6-0.2,0.9
			c-0.1,1.1-0.2,2.2-0.3,3.3c-0.8-0.2-0.5-1.6-1.2-2c-0.2-0.1-0.3-0.1-0.5-0.2c-0.4-0.2-0.5-0.6-0.7-0.9c-0.2-0.3-0.5-0.7-0.9-0.6
			c-0.4,0.1-0.5,0.5-0.8,0.8c-0.4,0.3-1,0.3-1.5,0.2c-0.5-0.1-1-0.3-1.5-0.3c-1.2,0-2,1.2-2.6,2.3c-0.1,0.2-0.3,0.5-0.5,0.6
			c-0.6,0.4-1.5-0.1-1.6-0.8c-0.1-0.4,0.1-0.8-0.2-1.2c-0.2-0.3-0.7-0.4-1.1-0.6c-0.9-0.4-1.2-1.5-1.1-2.4
			C125,40.7,125.4,41.4,126.1,41.8z"/>
		<path d="M124.9,36.2c0.1,0.2,0.2,0.5,0.3,0.7c0.1,0.3,0.1,0.6,0.1,0.9c0-0.1,0-0.2-0.1-0.3c-0.1-0.2-0.2-0.5-0.3-0.7
			c-0.1-0.2-0.1-0.5,0-0.7C124.8,36.1,124.9,36.1,124.9,36.2z"/>
	</g>
	<path class="st6" d="M144.4,65.8c1.5-0.3,5.1-1.4,5.1-1.4s0.2,0,0.6-0.1c0-2.2-0.1-4.4-0.2-5.1l0,0c0,0-3.1,1-3.8,1.5s-3,0.4-3,0.4
		s-3.5,0.2-6.5,3.5C133.8,67.8,142.9,66.1,144.4,65.8z"/>
	<path class="st23" d="M159.4,59.8c0.4,0.2,0.6,0.7,0.4,1.2c-0.1,0.1-0.1,0.2-0.2,0.3c-0.8,0.7-2,1.5-3.1,1.6
		c-1.9,0.2-6.4,1.1-6.9,1.2c0,0,0,0-0.1,0c-0.4,0.1-3.6,1.1-5.1,1.4c-1.5,0.3-10.6,2-7.7-1.3c1.6-1.9,3.9-3.1,6.4-3.5
		c0,0,0.1,0,0.1,0c0.3,0,2.3,0.1,2.9-0.4c0.3-0.2,0.7-0.4,1.1-0.5c1.4-0.6,3-1,4.5-1.3l3.1-0.5c0.2,0,0.4,0,0.5,0.1L159.4,59.8z"/>
	<path class="st28" d="M152.8,51.1l1.5-0.1c0,0,1.6,1.2,2.8,1.2s1.9,1.5,1.9,1.5s2,0.9,2.7,1.1c0.7,0.1,1.8,0.8,1.5,1.1
		c-0.3,0.3,0.1,0.9,0.7,1.3s1.5,2.9,0.7,3.2c-0.8,0.3-3,1-3.6,1.3c-0.4,0.2-0.9,0.2-1.3,0c0,0-3.5-4.6-5.3-3.7
		c-1.8,0.9-4.3,0.9-4.3,0.9l-1.9-4.1L152.8,51.1z"/>
</g>
</svg>
