<?xml version="1.0" encoding="utf-8"?>
<!-- Generator: Adobe Illustrator 25.0.1, SVG Export Plug-In . SVG Version: 6.00 Build 0)  -->
<svg version="1.1" id="Layer_1" xmlns="http://www.w3.org/2000/svg" xmlns:xlink="http://www.w3.org/1999/xlink" x="0px" y="0px"
	 viewBox="0 0 621 457" style="enable-background:new 0 0 621 457;" xml:space="preserve">
<style type="text/css">
	.st0{opacity:0.1;fill:#48BA13;}
	.st1{fill:#D0D2D5;}
	.st2{opacity:0.1;enable-background:new    ;}
	.st3{fill:#444053;}
	.st4{fill:#46543C;}
	.st5{fill:#FFFFFF;}
	.st6{fill:#48BA13;}
	.st7{opacity:0.3;fill:#48BA13;enable-background:new    ;}
	.st8{opacity:0.1;fill:#48BA13;enable-background:new    ;}
	.st9{opacity:0.2;fill:#3F3D56;enable-background:new    ;}
	.st10{fill:#EE8E9E;}
	.st11{fill:#454B69;}
	.st12{opacity:0.1;}
	.st13{opacity:0.6;fill:#444053;enable-background:new    ;}
	.st14{fill:#3F3D56;}
	.st15{opacity:0.1;fill:#6C63FF;enable-background:new    ;}
	.st16{fill:url(#SVGID_1_);}
	.st17{fill:#6C63FF;}
	.st18{fill:#FFC914;}
	.st19{fill:#A26565;}
	.st20{fill:#EFB7B9;}
</style>
<g>
	<path class="st0" d="M360.3,70.4c-39.8-1.4-77.6-14.2-113.8-28.3s-72-29.6-110.8-37c-25-4.8-53.5-5.5-73.6,7.9
		c-19.4,12.9-25.6,35.1-29,55.7c-2.5,15.5-4,31.8,2.9,46.4c4.8,10.1,13.4,18.6,19.3,28.2c20.6,33.6,6,75.1-16.3,107.9
		c-10.4,15.4-22.6,30.1-30.6,46.5c-8.1,16.4-11.8,35.2-4.7,51.9c7,16.6,23.7,29,41.7,37.8c36.7,17.8,79.9,22.9,122,25.8
		c93.3,6.4,187.1,3.6,280.6,0.9c34.6-1,69.4-2.1,103.4-7.4c18.9-3,38.4-7.7,52.1-19.1c17.4-14.5,21.7-38.9,10.1-57.1
		c-19.6-30.4-73.7-38-87.4-70.6c-7.5-18,0.2-38,11.2-54.6c23.5-35.7,62.9-67.1,64.9-107.9c1.4-28.1-17.5-56.2-46.8-69.4
		c-30.7-13.9-73.2-12.2-95.9,10.9C436.4,62.5,395.4,71.6,360.3,70.4z"/>
	<polygon class="st1" points="364.5,416.8 257.5,415.4 257.8,412.7 263,367.4 357,367.4 363.9,412.7 364.4,416.1 	"/>
	<polygon class="st2" points="364.4,416.1 311,416.1 257.5,415.4 257.8,412.7 363.9,412.7 	"/>
	<rect x="239.6" y="413.4" class="st1" width="142" height="3.4"/>
	<path class="st3" d="M517.2,95.4c0-4.9-4-8.9-8.9-9c0,0,0,0,0,0H111.6c-4.9,0-8.9,4-8.9,9c0,0,0,0,0,0v240.4h414.4V95.4z"/>
	<path class="st1" d="M102.8,333.5v28.2c0,4.9,4,8.9,8.9,8.9l0,0h396.6c4.9,0,8.9-4,8.9-8.9v-28.2H102.8z"/>
	<rect x="119.9" y="101.6" class="st4" width="382.2" height="216.1"/>
	<path class="st4" d="M312,359.8c2.8,0,5.5-1.3,7.3-3.5l0,0c0.3-0.3,0.5-0.7,0.7-1.1l-5.1-0.8l5.5,0c1.1-2.3,1.1-5,0.2-7.3l-7.4,3.8
		l6.8-5c-2.6-4.4-8.2-5.9-12.7-3.3c-4.4,2.6-5.9,8.2-3.3,12.7c0.2,0.4,0.4,0.7,0.7,1l0,0C306.5,358.5,309.2,359.8,312,359.8z"/>
	<polygon class="st2" points="321.3,370.5 364,413.4 357.4,370.5 	"/>
	<path class="st5" d="M132.6,140.5h248c0.8,0,1.4,0.6,1.4,1.4v147.5c0,0.8-0.6,1.4-1.4,1.4h-248c-0.8,0-1.4-0.6-1.4-1.4V142
		C131.1,141.2,131.8,140.5,132.6,140.5z"/>
	<rect x="120.2" y="101.6" class="st5" width="382" height="12.6"/>
	<path class="st6" d="M122.2,103.8h10.1c0.2,0,0.4,0.2,0.4,0.4v6.8c0,0.2-0.2,0.4-0.4,0.4h-10.1c-0.2,0-0.4-0.2-0.4-0.4v-6.8
		C121.8,104,122,103.8,122.2,103.8z"/>
	<path class="st7" d="M252.8,103.8h114.6c0.2,0,0.3,0.1,0.3,0.3v7c0,0.2-0.1,0.3-0.3,0.3H252.8c-0.2,0-0.3-0.1-0.3-0.3v-7
		C252.4,103.9,252.6,103.8,252.8,103.8z"/>
	<path class="st3" d="M364.3,108.4H364l-0.1-0.1c0.4-0.4,0.5-0.9,0.5-1.5c0-1.3-1-2.3-2.3-2.3c-1.3,0-2.3,1-2.3,2.3
		c0,1.3,1,2.3,2.3,2.3c0.5,0,1.1-0.2,1.5-0.5l0.1,0.1v0.3l1.8,1.8l0.5-0.5L364.3,108.4z M362.2,108.4c-0.9,0-1.6-0.7-1.6-1.6
		c0-0.9,0.7-1.6,1.6-1.6c0.9,0,1.6,0.7,1.6,1.6c0,0,0,0,0,0C363.8,107.7,363.1,108.4,362.2,108.4
		C362.2,108.4,362.2,108.4,362.2,108.4z"/>
	<circle class="st6" cx="496.7" cy="107.6" r="3.8"/>
	<path class="st5" d="M401.4,127.9h33c0.7,0,1.3,0.6,1.3,1.3v21.5c0,0.7-0.6,1.3-1.3,1.3h-33c-0.7,0-1.3-0.6-1.3-1.3v-21.5
		C400.1,128.5,400.7,127.9,401.4,127.9z"/>
	<path class="st5" d="M445.4,127.9h45.4c0.2,0,0.3,0.1,0.3,0.3v3.2c0,0.2-0.1,0.3-0.3,0.3h-45.4c-0.2,0-0.3-0.1-0.3-0.3v-3.2
		C445.1,128.1,445.2,127.9,445.4,127.9z"/>
	<path class="st5" d="M445.4,136.2h45.4c0.2,0,0.3,0.1,0.3,0.3v3.2c0,0.2-0.1,0.3-0.3,0.3h-45.4c-0.2,0-0.3-0.1-0.3-0.3v-3.2
		C445.1,136.3,445.2,136.2,445.4,136.2z"/>
	<path class="st5" d="M445.4,144.4h45.4c0.2,0,0.3,0.1,0.3,0.3v3.2c0,0.2-0.1,0.3-0.3,0.3h-45.4c-0.2,0-0.3-0.1-0.3-0.3v-3.2
		C445.1,144.5,445.2,144.4,445.4,144.4z"/>
	<path class="st5" d="M401.4,165.8h33c0.7,0,1.3,0.6,1.3,1.3v21.5c0,0.7-0.6,1.3-1.3,1.3h-33c-0.7,0-1.3-0.6-1.3-1.3v-21.5
		C400.1,166.4,400.7,165.8,401.4,165.8z"/>
	<path class="st5" d="M445.4,165.8h45.4c0.2,0,0.3,0.1,0.3,0.3v3.2c0,0.2-0.1,0.3-0.3,0.3h-45.4c-0.2,0-0.3-0.1-0.3-0.3v-3.2
		C445.1,165.9,445.2,165.8,445.4,165.8z"/>
	<path class="st5" d="M445.4,174h45.4c0.2,0,0.3,0.1,0.3,0.3v3.2c0,0.2-0.1,0.3-0.3,0.3h-45.4c-0.2,0-0.3-0.1-0.3-0.3v-3.2
		C445.1,174.2,445.2,174,445.4,174z"/>
	<path class="st5" d="M445.5,182.3h45.4c0.2,0,0.4,0.2,0.4,0.4v3.1c0,0.2-0.2,0.4-0.4,0.4h-45.4c-0.2,0-0.4-0.2-0.4-0.4v-3.1
		C445.1,182.4,445.3,182.3,445.5,182.3z"/>
	<path class="st5" d="M401.4,203.7h33c0.7,0,1.3,0.6,1.3,1.3v21.5c0,0.7-0.6,1.3-1.3,1.3h-33c-0.7,0-1.3-0.6-1.3-1.3V205
		C400.1,204.3,400.7,203.7,401.4,203.7z"/>
	<path class="st5" d="M445.5,203.7h45.4c0.2,0,0.4,0.2,0.4,0.4v3.1c0,0.2-0.2,0.4-0.4,0.4h-45.4c-0.2,0-0.4-0.2-0.4-0.4V204
		C445.1,203.8,445.3,203.7,445.5,203.7z"/>
	<path class="st5" d="M445.5,211.9h45.4c0.2,0,0.4,0.2,0.4,0.4v3.1c0,0.2-0.2,0.4-0.4,0.4h-45.4c-0.2,0-0.4-0.2-0.4-0.4v-3.1
		C445.1,212.1,445.3,211.9,445.5,211.9z"/>
	<path class="st5" d="M445.5,220.1h45.4c0.2,0,0.4,0.2,0.4,0.4v3.1c0,0.2-0.2,0.4-0.4,0.4h-45.4c-0.2,0-0.4-0.2-0.4-0.4v-3.1
		C445.1,220.3,445.3,220.1,445.5,220.1z"/>
	<path class="st5" d="M401.4,241.5h33c0.7,0,1.3,0.6,1.3,1.3v21.5c0,0.7-0.6,1.3-1.3,1.3h-33c-0.7,0-1.3-0.6-1.3-1.3v-21.5
		C400.1,242.1,400.7,241.5,401.4,241.5z"/>
	<path class="st5" d="M445.5,241.5h45.4c0.2,0,0.4,0.2,0.4,0.4v3.1c0,0.2-0.2,0.4-0.4,0.4h-45.4c-0.2,0-0.4-0.2-0.4-0.4v-3.1
		C445.1,241.7,445.3,241.5,445.5,241.5z"/>
	<path class="st5" d="M445.5,249.8h45.4c0.2,0,0.4,0.2,0.4,0.4v3.1c0,0.2-0.2,0.4-0.4,0.4h-45.4c-0.2,0-0.4-0.2-0.4-0.4v-3.1
		C445.1,249.9,445.3,249.8,445.5,249.8z"/>
	<path class="st5" d="M445.5,258h45.4c0.2,0,0.4,0.2,0.4,0.4v3.1c0,0.2-0.2,0.4-0.4,0.4h-45.4c-0.2,0-0.4-0.2-0.4-0.4v-3.1
		C445.1,258.2,445.3,258,445.5,258z"/>
	<path class="st5" d="M401.4,279.4h33c0.7,0,1.3,0.6,1.3,1.3v21.5c0,0.7-0.6,1.3-1.3,1.3h-33c-0.7,0-1.3-0.6-1.3-1.3v-21.5
		C400.1,280,400.7,279.4,401.4,279.4z"/>
	<path class="st5" d="M445.5,279.4h45.4c0.2,0,0.4,0.2,0.4,0.4v3.1c0,0.2-0.2,0.4-0.4,0.4h-45.4c-0.2,0-0.4-0.2-0.4-0.4v-3.1
		C445.1,279.6,445.3,279.4,445.5,279.4z"/>
	<path class="st5" d="M445.5,287.6h45.4c0.2,0,0.4,0.2,0.4,0.4v3.1c0,0.2-0.2,0.4-0.4,0.4h-45.4c-0.2,0-0.4-0.2-0.4-0.4V288
		C445.1,287.8,445.3,287.6,445.5,287.6z"/>
	<path class="st5" d="M445.5,295.9h45.4c0.2,0,0.4,0.2,0.4,0.4v3.1c0,0.2-0.2,0.4-0.4,0.4h-45.4c-0.2,0-0.4-0.2-0.4-0.4v-3.1
		C445.1,296,445.3,295.9,445.5,295.9z"/>
	<rect x="167.3" y="180.4" class="st8" width="56.4" height="2.9"/>
	<rect x="172.3" y="164.9" class="st8" width="5.4" height="15.5"/>
	<rect x="180.3" y="164.9" class="st8" width="5.4" height="15.5"/>
	<rect x="188.2" y="164.9" class="st8" width="5.4" height="15.5"/>
	<rect x="196.2" y="164.9" class="st8" width="5.4" height="15.5"/>
	<rect x="204.1" y="164.9" class="st8" width="5.4" height="15.5"/>
	<rect x="212" y="164.9" class="st8" width="5.4" height="15.5"/>
	<rect x="172.3" y="167.9" class="st8" width="5.4" height="1.7"/>
	<rect x="180.3" y="167.9" class="st8" width="5.4" height="1.7"/>
	<rect x="188.2" y="167.9" class="st8" width="5.4" height="1.7"/>
	<rect x="196.2" y="167.9" class="st8" width="5.4" height="1.7"/>
	<rect x="204.1" y="167.9" class="st8" width="5.4" height="1.7"/>
	<rect x="212" y="167.9" class="st8" width="5.4" height="1.7"/>
	<rect x="172.3" y="175.4" class="st8" width="5.4" height="1.7"/>
	<rect x="180.3" y="175.4" class="st8" width="5.4" height="1.7"/>
	<rect x="188.2" y="175.4" class="st8" width="5.4" height="1.7"/>
	<rect x="196.2" y="175.4" class="st8" width="5.4" height="1.7"/>
	<rect x="204.1" y="175.4" class="st8" width="5.4" height="1.7"/>
	<rect x="212" y="175.4" class="st8" width="5.4" height="1.7"/>
	<rect x="291.1" y="187.9" class="st8" width="56.4" height="2.9"/>
	<rect x="296.1" y="172.5" class="st8" width="5.4" height="15.5"/>
	<rect x="304" y="172.5" class="st8" width="5.4" height="15.5"/>
	<rect x="312" y="172.5" class="st8" width="5.4" height="15.5"/>
	<rect x="319.9" y="172.5" class="st8" width="5.4" height="15.5"/>
	<rect x="327.9" y="172.5" class="st8" width="5.4" height="15.5"/>
	<rect x="335.8" y="172.5" class="st8" width="5.4" height="15.5"/>
	<rect x="296.1" y="175.4" class="st8" width="5.4" height="1.7"/>
	<rect x="304" y="175.4" class="st8" width="5.4" height="1.7"/>
	<rect x="312" y="175.4" class="st8" width="5.4" height="1.7"/>
	<rect x="319.9" y="175.4" class="st8" width="5.4" height="1.7"/>
	<rect x="327.9" y="175.4" class="st8" width="5.4" height="1.7"/>
	<rect x="335.8" y="175.4" class="st8" width="5.4" height="1.7"/>
	<rect x="296.1" y="182.9" class="st8" width="5.4" height="1.7"/>
	<rect x="304" y="182.9" class="st8" width="5.4" height="1.7"/>
	<rect x="312" y="182.9" class="st8" width="5.4" height="1.7"/>
	<rect x="319.9" y="182.9" class="st8" width="5.4" height="1.7"/>
	<rect x="327.9" y="182.9" class="st8" width="5.4" height="1.7"/>
	<rect x="335.8" y="182.9" class="st8" width="5.4" height="1.7"/>
	<rect x="291.1" y="209.2" class="st8" width="56.4" height="2.9"/>
	<rect x="296.1" y="193.8" class="st8" width="5.4" height="15.5"/>
	<rect x="304" y="193.8" class="st8" width="5.4" height="15.5"/>
	<rect x="312" y="193.8" class="st8" width="5.4" height="15.5"/>
	<rect x="319.9" y="193.8" class="st8" width="5.4" height="15.5"/>
	<rect x="327.9" y="193.8" class="st8" width="5.4" height="15.5"/>
	<rect x="335.8" y="193.8" class="st8" width="5.4" height="15.5"/>
	<rect x="296.1" y="196.7" class="st8" width="5.4" height="1.7"/>
	<rect x="304" y="196.7" class="st8" width="5.4" height="1.7"/>
	<rect x="312" y="196.7" class="st8" width="5.4" height="1.7"/>
	<rect x="319.9" y="196.7" class="st8" width="5.4" height="1.7"/>
	<rect x="327.9" y="196.7" class="st8" width="5.4" height="1.7"/>
	<rect x="335.8" y="196.7" class="st8" width="5.4" height="1.7"/>
	<rect x="296.1" y="204.2" class="st8" width="5.4" height="1.7"/>
	<rect x="304" y="204.2" class="st8" width="5.4" height="1.7"/>
	<rect x="312" y="204.2" class="st8" width="5.4" height="1.7"/>
	<rect x="319.9" y="204.2" class="st8" width="5.4" height="1.7"/>
	<rect x="327.9" y="204.2" class="st8" width="5.4" height="1.7"/>
	<rect x="335.8" y="204.2" class="st8" width="5.4" height="1.7"/>
	<path class="st8" d="M201.9,213.5c-0.4-0.5-0.8-1.1-1.2-1.7l8.1-1.3l-8.8,0.1c-1.7-3.7-1.8-8-0.3-11.7l11.8,6.1l-10.9-8
		c4.1-7.1,13.1-9.6,20.2-5.5s9.6,13.1,5.5,20.2c-0.4,0.7-0.8,1.3-1.3,1.9c0.7,0.8,1.2,1.7,1.7,2.7l-10.5,5.5l11.2-3.8
		c1.6,4.7,0.7,10-2.4,13.9c5.1,6.4,4,15.7-2.5,20.8c-6.4,5.1-15.7,4-20.8-2.5c-4.2-5.4-4.2-13,0-18.4
		C197.7,226.4,197.7,218.8,201.9,213.5L201.9,213.5z"/>
	<path class="st8" d="M228.4,222.6c0,3.3-1.1,6.5-3.2,9.1c5.1,6.4,4,15.7-2.5,20.8c-6.4,5.1-15.7,4-20.8-2.5c-4.2-5.4-4.2-13,0-18.4
		C199.9,229.3,228.4,221,228.4,222.6z"/>
	<path class="st9" d="M215.9,259.7c0,0,0,0.1,0.1,0.1h-5c0,0,0-0.1,0.1-0.1c-0.4-0.8-0.7-1.6-0.6-2.5c0-0.6,0.1-1.2,0.3-1.7l0,0
		c0.3,0,0.6,0.1,1,0.1c1.2,0.1,2.3,0.1,3.5,0c0.3,0,0.7-0.1,1-0.1c0,0,0,0,0,0c0.2,0.6,0.3,1.1,0.3,1.7
		C216.6,258.1,216.4,259,215.9,259.7z"/>
	<path class="st8" d="M197.9,259.8h-28c-0.1-0.2-0.1-0.3-0.2-0.5c-1-3.2-0.9-6.6,0.3-9.7c-5.6-3.9-7.9-11.1-5.4-17.5
		c-0.6-0.4-1.1-0.8-1.6-1.3l7.4-3.7l-8.4,2.7c-2.7-3-4.1-7.1-3.7-11.1l13.1,2.4l-12.7-4.4c1.8-8,9.7-13,17.7-11.3
		c8,1.8,13,9.7,11.3,17.7c-0.2,0.8-0.4,1.5-0.7,2.2c0.9,0.6,1.7,1.3,2.4,2.1l-8.5,8.3l9.6-6.9c2.9,4.1,3.6,9.3,1.8,14
		C197.8,246.6,200,253.5,197.9,259.8z"/>
	<path class="st8" d="M197.9,259.8h-28c-0.1-0.2-0.1-0.3-0.2-0.5c-1-3.2-0.9-6.6,0.3-9.7c-2.6-1.8,22.1-18.2,22.6-16.6
		c1,3.2,0.9,6.6-0.3,9.7C197.8,246.6,200.1,253.5,197.9,259.8z"/>
	<path class="st8" d="M324.5,239.8c-1.7,2.9-4.3,5.1-7.4,6.2c0.1,1.1,0.2,2.1,0.1,3.2l-11.9-0.7l11.6,2.5c-0.3,1.6-0.9,3.1-1.8,4.5
		c-1,1.7-2.4,3.2-4,4.3H295v0.4h-16.5c0-0.1,0.1-0.3,0.1-0.4c1.2-4.6,4.6-8.3,9-10c-0.9-6.8,3-13.3,9.4-15.7c-0.1-0.7-0.1-1.4-0.1-2
		l7.7,3l-7.6-4.5c0.5-4.1,2.6-7.7,5.8-10.2l7,11.3l-5.2-12.4c7.2-4,16.2-1.4,20.1,5.8C327.3,229.6,327.2,235.2,324.5,239.8
		L324.5,239.8z"/>
	<path class="st8" d="M315.1,255.5c-1,1.7-2.4,3.2-4,4.3H295v0.4h-16.5c0-0.1,0.1-0.3,0.1-0.4c1.2-4.6,4.6-8.3,9-10
		c-0.1-1.1,3.1-0.9,7.3-0.2C303.3,251,315.7,254.6,315.1,255.5z"/>
	<path class="st10" d="M245.1,216c0,0,2,11-2.5,14.6c-4.5,3.6,3.8,25.1,17.7,22.6c13.8-2.5,19.5-20.5,19.5-20.5s-13.8-2.9-8.7-17.4
		L245.1,216z"/>
	<path class="st2" d="M245.1,216c0,0,2,11-2.5,14.6c-4.5,3.6,3.8,25.1,17.7,22.6c13.8-2.5,19.5-20.5,19.5-20.5s-13.8-2.9-8.7-17.4
		L245.1,216z"/>
	<circle class="st10" cx="257.4" cy="201.1" r="22.9"/>
	<path class="st6" d="M295,244.7v15.6h-75.7v-14.9c0-3.9,2.3-7.3,5.9-8.8l2.2-0.9c5.5-2.3,12.2-5.2,14.3-6.4
		c0.2-0.1,0.5-0.3,0.7-0.4c1.2-1.2,1,0.4,1,0.4s0,0.3-0.1,0.8c-0.1,3.5,0.4,17.3,16.5,16.1c15.8-1.1,16.5-11.8,16.3-14.9
		c0-0.3,0-0.6-0.1-0.9c1.1,0.3,2.2,0.6,3.2,1c3.3,1.2,8.2,3.2,9.5,4.1c0.4,0.3,0.9,0.6,1.4,0.9c0.6,0.3,1.2,0.7,1.7,1.2
		C293.9,239.3,295,241.9,295,244.7z"/>
	<path class="st2" d="M279.2,231.3c-1.3,6.2-5.5,17.8-20.6,18.1c-16.1,0.3-17-15.7-16.9-20.2c0.2-0.1,0.5-0.3,0.7-0.4
		c1.2-1.2,1,0.4,1,0.4s-2,18.3,16.5,16.9s16.2-15.8,16.2-15.8C276,230.2,277.4,230.7,279.2,231.3z"/>
	<path class="st11" d="M230.3,202.3c1.6-0.4,3.2,0.2,4.1,1.5c0.8,1.2,1,2.6,1.1,3.9c1,0.2,1.6-0.9,1.6-1.8c0.4-3.5,0.4-7,1.6-10.3
		c1.2-3.3,3.7-6.6,7.6-7.9c1.3-0.5,2.8-0.6,4.2-0.4c0.8,0.1,1.6,0.4,2.4,0.5c2.9,0.5,6-0.9,8.6,0.1c1.7,0.6,2.7,2,3.5,3.3
		c0.3,0.7,0.8,1.4,1.4,2c1.1,1,2.9,1.3,4.5,1.6s3.4,0.9,4.1,2.1c0.6,1.1,0.2,2.4,0,3.7c-0.3,1.9,0,3.9,0.9,5.7
		c0.3,0.5,0.9,1.2,1.6,1c0.3-0.1,0.6-0.3,0.8-0.6c1.9-2.6,1.8-6,4.2-8.4c0.8-0.8,1.8-1.4,2.6-2.2c1.2-1.2,1.7-2.9,1.3-4.5
		c-0.4-1.8-1.9-3.3-3-4.9c-1.5-2-2.6-4.3-3.3-6.8c-0.1-0.3-0.1-0.6,0-0.9c0.2-0.3,0.5-0.5,0.8-0.7c1.3-0.9,1.8-2.6,1.1-4
		c-0.7-1.4-2.1-2.4-3.8-3c-1.7-0.5-3.4-0.9-5.1-1.1c-1.2,0.2-2.5-0.5-2.9-1.4c-0.2-0.4-0.2-0.9-0.3-1.3c-0.4-0.8-1.3-1.4-2.2-1.5
		c-1-0.2-2-0.1-2.9,0.2c-1.1,0.3-2.3,0.8-3.3,0.2c-0.5-0.3-0.8-0.8-1.3-1c-1.1-0.5-2.2,0.5-3,1.2c-0.8,0.8-1.7,1.4-2.7,1.8
		c-1.1,0.4-2.3,0.3-3.4-0.2c-0.8-0.5-1.1-1.2-1.7-1.9c-1.1-1-2.6-1.6-4.1-1.6c-1.6-0.1-3.1,0.1-4.6,0.5c-2.9,0.7-5.6,1.8-8.1,3.4
		c-1.3,0.7-2.3,1.7-3.1,2.9c-0.5,0.9-0.7,1.9-0.7,3c-0.1,3.2,1,6.7,3.8,8.9c-1.7,0.7-2.3,2.5-2.7,4c-0.6,2.5-1.3,5-1,7.5
		c0.1,1.3,0.5,2.6,0.3,3.9c-0.2,0.6-0.2,1.2-0.3,1.9C228.9,201.6,229.5,202.1,230.3,202.3z"/>
	<g class="st12">
		<path d="M286,190.6c-0.2,0.5-0.6,1-1,1.5c-0.8,0.8-1.8,1.4-2.6,2.2c-2.3,2.3-2.3,5.8-4.2,8.4c-0.2,0.3-0.5,0.5-0.8,0.6
			c-0.7,0.2-1.3-0.5-1.6-1c-0.4-0.7-0.6-1.4-0.8-2.2c0,0.2-0.1,0.4-0.1,0.5c-0.3,1.9,0,3.9,0.9,5.7c0.3,0.5,0.9,1.2,1.6,1
			c0.3-0.1,0.6-0.3,0.8-0.6c1.9-2.6,1.8-6,4.2-8.4c0.8-0.8,1.8-1.4,2.6-2.2c1.2-1.2,1.7-2.9,1.3-4.5
			C286.3,191.3,286.2,190.9,286,190.6z"/>
		<path d="M280.9,174.4c-0.3,0.2-0.6,0.4-0.8,0.7c-0.1,0.3-0.1,0.6,0,0.9c0.2,0.9,0.5,1.7,0.8,2.5l0,0c1.3-0.9,1.8-2.6,1.1-4
			c-0.1-0.2-0.2-0.4-0.4-0.6C281.4,174,281.2,174.2,280.9,174.4z"/>
		<path d="M232.5,179.5c-1.9-1.6-3.2-3.9-3.6-6.4c-0.1,0.5-0.2,1-0.2,1.5c-0.1,2.4,0.5,4.8,1.8,6.8
			C231,180.5,231.7,179.8,232.5,179.5z"/>
		<path d="M275,196.6c0.2-1.2,0.7-2.5,0-3.7c-0.7-1.3-2.5-1.8-4.1-2.1s-3.4-0.6-4.5-1.6c-0.6-0.6-1-1.3-1.4-2
			c-0.8-1.4-1.8-2.7-3.5-3.3c-2.7-0.9-5.8,0.4-8.6-0.1c-0.8-0.1-1.6-0.4-2.4-0.5c-1.4-0.2-2.8-0.1-4.2,0.4c-3.9,1.3-6.4,4.5-7.6,7.9
			s-1.2,6.9-1.6,10.3c-0.1,0.8-0.7,2-1.6,1.8c-0.1-1.4-0.2-2.7-1.1-3.9c-0.9-1.3-2.6-1.9-4.1-1.5c-0.5-0.1-0.9-0.4-1.2-0.7
			c0.1,0.5,0.1,1,0,1.5c-0.2,0.6-0.2,1.2-0.3,1.9c0.1,0.7,0.7,1.3,1.4,1.4c1.6-0.4,3.2,0.2,4.1,1.5c0.8,1.2,1,2.6,1.1,3.9
			c1,0.2,1.6-0.9,1.6-1.8c0.4-3.5,0.4-7,1.6-10.3c1.2-3.3,3.7-6.6,7.6-7.9c1.3-0.5,2.8-0.6,4.2-0.4c0.8,0.1,1.6,0.4,2.4,0.5
			c2.9,0.5,6-0.9,8.6,0.1c1.7,0.6,2.7,2,3.5,3.3c0.3,0.7,0.8,1.4,1.4,2c1.1,1,2.9,1.3,4.5,1.6s3.3,0.8,4,2
			C274.9,196.8,275,196.7,275,196.6z"/>
		<path d="M229.1,194.9c0.1-1,0-2.1-0.2-3.1c-0.2,1.1-0.2,2.1-0.1,3.2c0,0.3,0.1,0.5,0.1,0.8C228.9,195.6,229,195.2,229.1,194.9z"/>
	</g>
	<path class="st3" d="M202.2,282.4v-9.9c0-0.2,0.1-0.3,0.3-0.3h0h1.1c0.2,0,0.3,0.1,0.3,0.3l0,0v4.1l4.6-4.2
		c0.3-0.3,0.8-0.2,1.1,0.1c0.1,0.1,0.2,0.3,0.2,0.5v9c0,0.4-0.4,0.7-0.8,0.7c-0.2,0-0.3-0.1-0.5-0.2l-4.6-4.2v4.1
		c0,0.2-0.1,0.3-0.3,0.3h0h-1.1C202.4,282.6,202.2,282.5,202.2,282.4z"/>
	<path class="st3" d="M312.5,272.5v9.9c0,0.2-0.1,0.3-0.3,0.3c0,0,0,0,0,0h-1.1c-0.2,0-0.3-0.1-0.3-0.3l0,0v-4.1l-4.6,4.2
		c-0.3,0.3-0.8,0.2-1.1-0.1c-0.1-0.1-0.2-0.3-0.2-0.4v-9c0-0.4,0.4-0.7,0.8-0.7c0.2,0,0.3,0.1,0.4,0.2l4.6,4.2v-4.1
		c0-0.2,0.1-0.3,0.3-0.3l0,0h1.1C312.4,272.2,312.5,272.3,312.5,272.5z"/>
	<path class="st3" d="M255.5,282.8h-2.2c-0.6,0-1.1-0.5-1.1-1.1v-8.2c0-0.6,0.5-1.1,1.1-1.1h2.2c0.6,0,1.1,0.5,1.1,1.1v8.2
		C256.6,282.3,256.1,282.8,255.5,282.8z M262.6,281.7v-8.2c0-0.6-0.5-1.1-1.1-1.1h-2.3c-0.6,0-1.1,0.5-1.1,1.1v8.2
		c0,0.6,0.5,1.1,1.1,1.1h2.2C262.1,282.8,262.6,282.4,262.6,281.7C262.6,281.7,262.6,281.7,262.6,281.7z"/>
	<rect x="191.5" y="259.1" class="st13" width="131.7" height="1.5"/>
	<circle class="st3" cx="232.2" cy="259.9" r="3.5"/>
	<rect x="191.5" y="259.1" class="st3" width="40.7" height="1.5"/>
	<ellipse class="st6" cx="525.3" cy="418.3" rx="32.6" ry="6.3"/>
	<ellipse class="st4" cx="524.7" cy="415.6" rx="3.8" ry="5"/>
	<ellipse class="st4" cx="524.7" cy="409.5" rx="3.8" ry="5"/>
	<ellipse class="st4" cx="524.7" cy="403.4" rx="3.8" ry="5"/>
	<ellipse class="st4" cx="524.7" cy="397.4" rx="3.8" ry="5"/>
	<ellipse class="st4" cx="524.7" cy="391.3" rx="3.8" ry="5"/>
	<ellipse class="st4" cx="524.7" cy="385.2" rx="3.8" ry="5"/>
	<ellipse class="st14" cx="524.7" cy="379.1" rx="3.8" ry="5"/>
	<path class="st6" d="M538.9,337.5c0.5-0.7,1-1.4,1.4-2.1l-10-1.6l10.8,0.1c2.1-4.6,2.2-9.8,0.3-14.4L527,327l13.4-9.8
		c-5-8.7-16.2-11.7-24.9-6.6c-8.7,5-11.7,16.2-6.6,24.9c0.4,0.7,0.9,1.5,1.5,2.1c-0.8,1-1.5,2.1-2.1,3.3l13,6.7l-13.8-4.6
		c-2,5.8-0.9,12.3,2.9,17.1c-6.2,7.9-4.8,19.3,3.1,25.6c7.9,6.2,19.3,4.8,25.6-3.1c5.2-6.6,5.2-15.9,0-22.5
		C544.1,353.4,544.1,344.1,538.9,337.5L538.9,337.5z"/>
	<path class="st2" d="M506.4,348.8c0,4.1,1.4,8,3.9,11.3c-6.2,7.9-4.8,19.3,3.1,25.6c7.9,6.2,19.3,4.8,25.6-3.1
		c5.2-6.6,5.2-15.9,0-22.5C541.4,356.9,506.4,346.7,506.4,348.8z"/>
	<ellipse class="st15" cx="159.1" cy="446.8" rx="54.3" ry="11.5"/>
	
		<linearGradient id="SVGID_1_" gradientUnits="userSpaceOnUse" x1="192.2858" y1="-29.8294" x2="192.2858" y2="195.192" gradientTransform="matrix(1 0 0 -1 -35 423.78)">
		<stop  offset="0" style="stop-color:#808080;stop-opacity:0.25"/>
		<stop  offset="0.54" style="stop-color:#808080;stop-opacity:0.12"/>
		<stop  offset="1" style="stop-color:#808080;stop-opacity:0.1"/>
	</linearGradient>
	<path class="st16" d="M177.3,445.5c-1.1-0.4-2.3-0.3-3.4-0.5c-2.4-0.3-4.6-1.4-6.3-3.1c-1.1-1.1-1.9-2.4-2.5-3.8
		c0.4,0.1,0.7,0.3,1.1,0.4c-1.1-2.6,0.1-5.4,1.1-8c1.7-4.4,3.3-8.8,4.9-13.2c3.8-11.2,7.1-22.9,7.1-34.9c0-4.3-0.8-8.4-0.9-12.7
		c-0.1-3.2,0.4-6.4,0.4-9.6c0-0.5,0-0.9,0-1.3c2-1.7,3.1-4.3,2.9-6.9c-0.1-0.7-0.2-1.4-0.3-2c-0.2-1.2-0.5-2.3-0.8-3.4
		c-0.4-1.2-0.9-2.3-1.3-3.5c-0.8-2.3-1.4-4.6-2.1-6.9c0.3,0,0.5,0.1,0.7,0.2c-0.2-0.2-0.3-0.5-0.4-0.7c-0.4-1.5-0.6-3-0.7-4.5
		l0.5-0.2c0.2-1.5,0.1-3-0.2-4.4c0.3-2.4,0.7-4.7,0.9-7.1c0.1-0.9,0.1-2-0.8-2.2c-0.2-1.3-0.2-2.5-0.3-3.8
		c-0.2-4.4-0.5-8.8-0.7-13.3c-0.2-4.4-0.5-8.9-0.5-13.3c-0.1-2.8-0.1-5.7-0.8-8.4c0.1-1.3,0-2.6-0.4-3.8c-1-3.2-4.2-5.8-7.4-5.6
		c-1-1.4-2.1-2.6-3.5-3.5c0.6-1.4,1.4-2.9,2-4.1c5.1-1.7,8.9-6.8,8.9-12.8c0-2.2-0.5-4.4-1.5-6.4c0.1-0.2,0.2-0.5,0.2-0.7
		c0.3-1.2,0.2-2.4-0.2-3.6c-0.2-0.4-0.3-0.9-0.5-1.3c-0.1-0.3-0.3-0.5-0.5-0.8l-0.3-0.4c-0.2-0.3-0.3-0.5-0.5-0.7
		c-0.4-0.5-0.8-1-1.3-1.5c-0.5-0.6-1.1-1.1-1.8-1.6c-0.9-0.7-1.9-1.1-3-1.4c-0.6-0.1-1.3-0.2-1.9-0.2c-0.4,0-0.8,0-1.1,0
		c-0.8,0-1.5,0.1-2.3,0.1c-0.3,0-0.5,0-0.8,0c-1.3-0.2-2.7-0.5-4-0.8l-0.7-0.1c-0.2,0-0.4-0.1-0.7-0.1c-0.6-0.1-1.2-0.1-1.8-0.1
		h-0.6c-0.6,0-1.2,0.1-1.8,0.2l-0.6,0.1c-1.5,0.2-3,0.7-4.4,1.3c-0.2,0.1-0.4,0.2-0.5,0.3l-0.1,0.1c-0.1,0.1-0.3,0.2-0.4,0.2l-0.1,0
		l-0.5,0.3l0,0c-4.4,2.9-6.9,8.5-7.6,14c-0.7,6.2,0.5,12.4,1.8,18.5l1.2,5.5c0,0.2,0.1,0.5,0.2,0.7c-1.6,1.3-2.9,3.1-3.6,5
		c-1.1,2.7-1.1,5.7-1,8.7c0,0.6,0,1.2,0.1,1.8c-0.1,1.1-0.3,2.3-0.3,3.4c-0.3,5.3,0.3,10.7,0.1,16c-0.1,4.1-0.8,8.2-0.5,12.3
		c0.3,3.6,1.2,7.1,2.2,10.6l1.4,5c0,0.3,0.2,0.5,0.3,0.7c0.2,0.2,0.5,0.2,0.8,0.2c-0.9,2-1.7,4.1-2.3,6.3c-0.4,1.3-0.7,2.7-0.8,4.1
		c-0.2,2.5,0.4,5,1,7.5c0.9,3.7,1.8,7.3,2.6,11c0.6,2.6,1.2,5.2,1.8,7.7c1.2,5.1,2.4,10.2,2.6,15.4c0.1,2.6-0.1,5.3-0.5,7.8
		c-1.6,7.7-1.8,15.7-0.7,23.5c0.9,6.6,2.4,13.1,4.4,19.4c0.4-0.2,0.9-0.5,1.4-0.7l-0.2,0.4c-0.6,1.1-1.2,2.2-1.8,3.4
		c-0.4,0.7-0.7,1.5-0.9,2.3c-0.7,2.2-0.8,4.5-0.9,6.8c-0.1,0.4,0,0.9,0.1,1.3c0.3,0.8,1.2,1.3,2,1.5c2.4,0.7,4.8,0.4,7.3,0.1
		c0,0.1,0,0.1,0,0.2c0.3,0.8,1.2,1.3,2,1.5c3.4,1,7,0.1,10.5-0.3s6.9-0.1,10.3-0.9c0.5-0.1,1-0.3,1.4-0.5c0.9-0.6,1.5-1.5,1.8-2.5
		c0.1-0.3,0.2-0.5,0.2-0.8C179.4,446.9,178.4,445.9,177.3,445.5z M165.7,394.7c-0.2,1.3-0.6,2.5-1.1,3.7c-2.6,5.6-4.5,11.6-5.6,17.7
		c-0.7,4-1.1,8.1-1.2,12.2c-0.1,3,0.1,6.2-1.2,8.9l0.5-0.1c-0.1,0.3-0.3,0.5-0.4,0.8l-0.1,0.1c-0.8-1.3-1.3-2.7-1.5-4.2
		c0,0-0.2-0.1-0.6-0.1c-1.6-8.7-2.1-17.5-1.6-26.3c0-1.1,0.2-2.1,0.4-3.2c0.3-0.9,0.8-1.7,1.1-2.5c0.5-1.4,0.9-2.9,1.1-4.5
		c0.6-3.9,0.8-7.9,0.7-11.8c-0.1-3.7,0.7-7.4,1.5-11.1c0.4-1.8,0.7-3.5,0.9-5.3l0-0.4c3.3,5.4,5.5,11.3,6.7,17.5
		C165.9,388.9,166,391.8,165.7,394.7z M142.2,315.3l0.2,0.2c0.5,0.5,1,1,1.5,1.5c0.2,0.2,0.4,0.5,0.5,0.8c0.2,0.8-0.5,1.5-1,2.1
		c-0.2,0.3-0.5,0.5-0.7,0.8C142.5,318.9,142.4,317.1,142.2,315.3L142.2,315.3z"/>
	<path class="st17" d="M134.6,280.9l-0.6,4.7c-0.2,1.6-0.4,3.2-0.5,4.7c-0.4,5.3,0.3,10.6,0.1,15.9c-0.1,4.1-0.8,8.1-0.5,12.2
		c0.3,3.6,1.3,7.1,2.3,10.5l1.4,4.9c0,0.3,0.2,0.5,0.4,0.7c0.3,0.2,0.6,0.2,0.9,0.1l6.4-0.6c-0.4-1.9-0.9-3.8-1.1-5.8
		c-0.2-1.5-0.3-3-0.4-4.6c-0.3-4.8-0.7-9.5-1.1-14.3l-0.7-8.3c-0.3-3.6-0.6-7.3-1.5-10.8C139,286.8,137.2,283.6,134.6,280.9z"/>
	<path class="st18" d="M134.6,280.9l-0.6,4.7c-0.2,1.6-0.4,3.2-0.5,4.7c-0.4,5.3,0.3,10.6,0.1,15.9c-0.1,4.1-0.8,8.1-0.5,12.2
		c0.3,3.6,1.3,7.1,2.3,10.5l1.4,4.9c0,0.3,0.2,0.5,0.4,0.7c0.3,0.2,0.6,0.2,0.9,0.1l6.4-0.6c-0.4-1.9-0.9-3.8-1.1-5.8
		c-0.2-1.5-0.3-3-0.4-4.6c-0.3-4.8-0.7-9.5-1.1-14.3l-0.7-8.3c-0.3-3.6-0.6-7.3-1.5-10.8C139,286.8,137.2,283.6,134.6,280.9z"/>
	<path class="st19" d="M146.1,439.6c-0.4,0.7-0.7,1.5-1,2.3c-0.7,2.2-0.8,4.5-1,6.8c0,0.4,0,0.9,0.1,1.3c0.3,0.8,1.2,1.2,2.1,1.5
		c3.6,1,7.3,0.1,11-0.3s7.3-0.1,10.8-0.9c0.5-0.1,1-0.3,1.5-0.5c0.9-0.6,1.6-1.5,1.9-2.5c0.1-0.3,0.2-0.5,0.2-0.8
		c0.1-1.2-0.9-2.3-2.1-2.6c-1.1-0.4-2.4-0.3-3.6-0.5c-5.1-0.5-9.2-4.4-10-9.4c0-0.3-5.9-0.1-6.6,0.2c-0.7,0.4-1.2,1.4-1.6,2.1
		C147.3,437.3,146.6,438.4,146.1,439.6z"/>
	<path class="st2" d="M146.1,439.6c-0.4,0.7-0.7,1.5-1,2.3c-0.7,2.2-0.8,4.5-1,6.8c0,0.4,0,0.9,0.1,1.3c0.3,0.8,1.2,1.2,2.1,1.5
		c3.6,1,7.3,0.1,11-0.3s7.3-0.1,10.8-0.9c0.5-0.1,1-0.3,1.5-0.5c0.9-0.6,1.6-1.5,1.9-2.5c0.1-0.3,0.2-0.5,0.2-0.8
		c0.1-1.2-0.9-2.3-2.1-2.6c-1.1-0.4-2.4-0.3-3.6-0.5c-5.1-0.5-9.2-4.4-10-9.4c0-0.3-5.9-0.1-6.6,0.2c-0.7,0.4-1.2,1.4-1.6,2.1
		C147.3,437.3,146.6,438.4,146.1,439.6z"/>
	<path class="st19" d="M155.9,441.3c-0.4,0.7-0.7,1.5-1,2.3c-0.7,2.2-0.9,4.5-1,6.8c-0.1,0.4,0,0.9,0.1,1.3c0.3,0.8,1.2,1.2,2.1,1.5
		c3.6,1,7.3,0.1,11-0.3c3.7-0.3,7.3-0.1,10.8-0.9c0.5-0.1,1-0.3,1.5-0.5c0.9-0.6,1.6-1.5,1.9-2.5c0.1-0.3,0.2-0.5,0.2-0.8
		c0.1-1.2-0.9-2.3-2.1-2.6c-1.1-0.4-2.4-0.3-3.6-0.5c-5.1-0.5-9.2-4.4-10-9.4c0-0.3-5.9-0.1-6.6,0.2c-0.7,0.4-1.2,1.4-1.6,2.1
		C157.1,439,156.4,440.2,155.9,441.3z"/>
	<path class="st11" d="M181.4,383c0.1,11.9-3.4,23.5-7.4,34.6c-1.6,4.4-3.3,8.8-5.1,13.1c-1.1,2.6-2.3,5.4-1.1,8
		c-3.3-1.3-6.6-2-10.1-1.4c1.3-2.7,1.2-5.8,1.3-8.8c0.1-4.1,0.5-8.1,1.3-12.1c1.2-6.1,3.2-12,5.9-17.5c0.6-1.2,0.9-2.4,1.1-3.7
		c0.5-2.8,0.1-5.7-0.5-8.5c-1.3-6.2-3.7-12.1-7.1-17.3l0,0.4c-0.2,1.8-0.5,3.5-0.9,5.3c-0.8,3.7-1.7,7.3-1.5,11
		c0.1,3.9-0.1,7.8-0.7,11.7c-0.2,1.5-0.6,3-1.2,4.4c-0.4,0.9-0.9,1.6-1.2,2.5c-0.3,1-0.5,2.1-0.5,3.1c-0.4,8.9,0,18,1.8,26.8
		c-3.1-0.2-6.1,0.6-8.8,2c-2.1-6.3-3.7-12.7-4.7-19.3c-1.2-7.7-0.9-15.6,0.7-23.3c0.5-2.6,0.7-5.2,0.6-7.8
		c-0.2-5.2-1.5-10.3-2.8-15.3l-1.9-7.7c-0.9-3.7-1.8-7.3-2.7-10.9c-0.6-2.4-1.2-4.9-1-7.4c0.1-1.4,0.4-2.7,0.9-4
		c1.4-4.4,3.4-8.6,6.1-12.4c10.6,0.6,21.3-0.4,31.8-1.2c0.5-0.1,1,0,1.5,0.3c0.4,0.4,0.6,0.8,0.6,1.4l4,22.5c0.6,3.1,1,6.3,1.1,9.5
		c0,3.2-0.5,6.4-0.4,9.5C180.6,374.7,181.4,378.7,181.4,383z"/>
	<path class="st2" d="M159.7,369.7c-0.2,1.8-0.5,3.5-0.9,5.3c-2.3-4-4.8-7.9-6.9-11.9c-0.5-1-1.1-2.1-1.6-3.2l-1.6-3.2
		c-0.3-0.6-0.6-1.2-0.8-1.8c-0.4-0.9-0.8-1.8-1-2.7c0.8-0.1,2.7,1.9,3.2,2.5c1.2,1.2,2.3,2.4,3.3,3.6c1.3,1.4,2.4,2.9,3.4,4.5
		C158.2,364.8,159.2,367.2,159.7,369.7z"/>
	<path class="st20" d="M168.5,260.5c0,0-5.9,9.4-4.8,11.3c1.1,2-18.5-1.7-18.5-1.7s10.7-9.4,9.6-13.3
		C153.7,252.9,168.5,260.5,168.5,260.5z"/>
	<circle class="st20" cx="163.3" cy="250" r="13.3"/>
	<path class="st18" d="M168.7,270.3c-1.4-2-3.4-3.5-5.6-4.5c-1.3-0.5-2.6-0.8-4-1l-5.3-0.9c-1.3-0.2-2.7-0.4-3.9,0.1
		c-0.6,0.3-1.2,0.7-1.6,1.2c-1.8,1.7-3.6,3.6-5.9,4.6c-0.6,0.3-1.3,0.5-1.9,0.7c-2.6,1.1-4.5,3.4-5.6,6c-1.2,2.7-1.2,5.7-1.1,8.6
		c0,1,0.1,2,0.3,3c0.3,0.9,0.6,1.9,1,2.8c0.7,1.9,1.3,3.9,1.8,5.9c1.4,5.3,2.5,10.6,3.4,15.9c0.1,0.8,0.3,1.5,0.7,2.2
		c0.5,0.7,1.1,1.3,1.8,1.8c0.6,0.5,1.1,1,1.5,1.5c0.2,0.2,0.4,0.5,0.5,0.8c0.2,0.8-0.5,1.5-1.1,2c-1.2,1.2-2,2.7-2.5,4.3
		c-0.3,0.3-0.4,0.8-0.4,1.2c0.1,0.3,0.2,0.6,0.1,0.9c-0.1,0.3-0.3,0.6-0.5,0.8c-0.5,0.7-0.7,1.5-0.5,2.3c4.1,1.8,8.5,2.8,13,3
		c1.1,0.1,2.2,0.1,3.3,0.2c0.8,0.1,1.5,0.3,2.3,0.4c1.1,0.1,2.3,0.1,3.4,0.1c5.9-0.1,12-0.3,17.4-2.6c0.5-2.8-0.6-5.6-1.3-8.4
		c-1.1-4.4-1.4-8.9-2.2-13.3c-0.5-3-1.4-6-1.8-9.1c-0.5-3-0.5-6.2,0.3-9.2c0.7-2.6,1-5.3,1.7-7.9c0.8-2.6,1.3-5.5,0.4-8
		C175.4,272.7,172.1,270.1,168.7,270.3z"/>
	<path class="st19" d="M175.2,243c0.6-2.4-0.6-4.8-2.1-6.7c-1.6-2.1-3.7-3.9-6.3-4.4c-2.1-0.4-4.3,0.1-6.4-0.1
		c-1.9-0.1-3.7-0.8-5.6-1.1c-1.7-0.2-3.4-0.1-5.1,0.2c-1.6,0.2-3.2,0.7-4.6,1.3c-5.7,2.5-9,8.7-9.7,14.8c-0.8,6.1,0.6,12.3,1.9,18.3
		l1.2,5.5c1.3,5.7,2.5,11.4,2.9,17.2c0.3,5.8-0.3,11.8-2.7,17.1c7.7-4.1,13.7-10.9,16.9-19.1c0.9-2.2,1.5-4.6,2.4-6.8
		c0.8-1.9,1.9-3.7,2.6-5.6c0.8-2.2,1.2-4.5,1.2-6.8c0-1.8-0.3-3.5-0.3-5.3c0-1.8,0.5-3.6,1.7-4.9c1.1-1.1,2.6-1.6,4-2.4
		c2.2-1.1,4.1-2.7,5.6-4.7c0.9-1.1,0.9-1.6,1.1-2.9C174.1,245.3,174.9,244.2,175.2,243z"/>
	<path class="st20" d="M175.2,342.7c0.1,1.4-0.1,2.7,0.2,4.1c0.2,1,0.7,1.9,1.1,2.9c0.3,1.1,0.5,2.3,0.5,3.5c0,1,0,2.2-0.9,2.7
		c-0.4,0.2-0.8,0.2-1.2,0.4c-0.4,0.2-0.7,0.7-0.5,1s0.6,0.3,1,0.4s0.8,0.4,0.5,0.7c-0.1,0.1-0.2,0.2-0.3,0.2c-0.4,0.1-0.7,0.3-1,0.5
		c-0.3,0.2-0.5,0.6-0.4,1c0.1,0.3,0.4,0.5,0.7,0.5c0,0,0.1,0,0.1,0c-0.2,0.3-0.2,0.7-0.3,1.1c1.4,0.6,3-0.2,4.3-0.9
		c0.6-0.3,1.1-0.7,1.6-1.1c2.2-1.7,3.4-4.3,3.2-7c-0.1-0.7-0.2-1.3-0.3-2c-0.2-1.2-0.5-2.3-0.8-3.4c-0.4-1.2-0.9-2.3-1.3-3.5
		c-0.9-2.5-1.6-5-2.4-7.5c-0.1-0.3-0.2-0.5-0.4-0.7c-0.2-0.1-0.4-0.1-0.6-0.1c-1-0.1-1.9,0-2.9,0.3c-0.5,0.2-1.5,0.5-1.7,1.1
		c-0.3,0.5,0.2,1,0.4,1.5C174.5,339.6,175,341.2,175.2,342.7z"/>
	<path class="st2" d="M174.4,276c0.3,0.3,0.5,0.6,0.7,1c1.9,3.4,1.9,7.5,2,11.4c0.1,4.4,0.3,8.8,0.6,13.2l0.7,13.2
		c0.1,1.3,0.1,2.5,0.3,3.8c0.8,0.2,0.9,1.3,0.8,2.2c-0.6,5.4-2.1,10.9-0.5,16.1c0.1,0.3,0.2,0.5,0.4,0.7c-0.8-0.2-1.6-0.3-2.5,0
		c-0.8,0.2-1.5,0.5-2.3,0.6c-1,0.2-2.1,0.3-2.8,1.1c-0.8-2.3-1.4-4.7-1.8-7.1c-0.4-2.2-0.5-4.5-1.4-6.5c-0.4-0.8-0.8-1.6-1.3-2.4
		c-2.3-4.1-3.4-8.7-4.5-13.3c-0.5-2.2-0.6-4.4-0.4-6.6c0.2-1,0.3-2,0.3-3c-0.1-1.1-0.2-2.1-0.4-3.2c-0.5-3.1-0.2-6.3,0.6-9.3
		c0.8-2.8,1.5-5.7,3.3-8.1S171.4,276.1,174.4,276z"/>
	<path class="st18" d="M175,275.6c0.3,0.3,0.5,0.6,0.7,1c1.9,3.4,1.9,7.5,2,11.4c0.1,4.4,0.3,8.8,0.6,13.2l0.7,13.2
		c0.1,1.3,0.1,2.5,0.3,3.8c0.8,0.2,0.9,1.3,0.8,2.2c-0.6,5.4-2.1,10.9-0.5,16.1c0.1,0.3,0.2,0.5,0.4,0.7c-0.8-0.2-1.6-0.3-2.5,0
		c-0.8,0.2-1.5,0.5-2.3,0.6c-1,0.2-2.1,0.3-2.8,1.1c-0.8-2.3-1.4-4.7-1.8-7.1c-0.4-2.2-0.5-4.5-1.4-6.5c-0.4-0.8-0.8-1.6-1.3-2.4
		c-2.3-4.1-3.4-8.7-4.5-13.3c-0.5-2.2-0.6-4.4-0.4-6.6c0.4-2.1,0.4-4.2-0.1-6.3c-0.5-3.1-0.2-6.3,0.6-9.3c0.8-2.8,1.5-5.7,3.3-8.1
		C168.5,276.9,172.1,275.6,175,275.6z"/>
	<g class="st12">
		<path d="M173.1,236.3c-1.6-2.1-3.7-3.9-6.3-4.4c-2.1-0.4-4.3,0.1-6.4-0.1c-1.9-0.1-3.7-0.8-5.6-1.1c-1.7-0.2-3.4-0.1-5.1,0.2
			c-1.6,0.2-3.2,0.7-4.6,1.3c-0.8,0.4-1.6,0.8-2.3,1.3c1.3-0.5,2.7-0.9,4.1-1.1c1.7-0.3,3.4-0.4,5.1-0.2c1.9,0.2,3.7,0.9,5.6,1.1
			c2.1,0.2,4.3-0.3,6.4,0.1c2.6,0.5,4.7,2.4,6.3,4.4c1.5,1.9,2.8,4.4,2.1,6.7c-0.3,1.2-1.1,2.3-1.3,3.6c-0.2,1.3-0.3,1.8-1.1,2.9
			c-1.1,1.5-2.5,2.7-4,3.7c0.4-0.2,0.9-0.4,1.3-0.6c2.2-1.1,4.1-2.7,5.6-4.7c0.9-1.1,0.9-1.6,1.1-2.9c0.2-1.3,1-2.4,1.3-3.6
			C175.9,240.6,174.6,238.2,173.1,236.3z"/>
		<path d="M163.2,256.6c0.2-0.2,0.5-0.5,0.7-0.6c-1.3,0.6-2.6,1.2-3.6,2.2c-1.2,1.3-1.6,3.1-1.7,4.9c-0.1,1.8,0.2,3.5,0.3,5.3
			c0.1,2.3-0.3,4.7-1.2,6.8c-0.7,1.9-1.8,3.7-2.6,5.6c-0.9,2.2-1.6,4.5-2.4,6.8c-2.7,7.1-7.6,13.2-13.9,17.4c0,0.1-0.1,0.1-0.1,0.2
			c7.7-4.1,13.7-10.9,16.9-19.1c0.9-2.2,1.5-4.6,2.4-6.8c0.8-1.9,1.9-3.7,2.6-5.6c0.8-2.2,1.2-4.5,1.2-6.8c0-1.8-0.3-3.5-0.3-5.3
			C161.5,259.7,161.9,257.9,163.2,256.6z"/>
	</g>
</g>
</svg>
