<?xml version="1.0" encoding="utf-8"?>
<!-- Generator: Adobe Illustrator 25.0.1, SVG Export Plug-In . SVG Version: 6.00 Build 0)  -->
<svg version="1.1" id="Layer_1" xmlns="http://www.w3.org/2000/svg" xmlns:xlink="http://www.w3.org/1999/xlink" x="0px" y="0px"
	 viewBox="0 0 474 298" style="enable-background:new 0 0 474 298;" xml:space="preserve">
<style type="text/css">
	.st0{opacity:0.1;fill:#48BA13;}
	.st1{fill:#2F2E41;}
	.st2{fill:#FFB9B9;}
	.st3{opacity:0.1;enable-background:new    ;}
	.st4{fill:#46543C;}
	.st5{opacity:0.2;enable-background:new    ;}
	.st6{fill:#48BA13;}
	.st7{opacity:0.2;fill:none;stroke:#000000;stroke-width:2;stroke-miterlimit:10;enable-background:new    ;}
	.st8{fill:none;stroke:#3F3D56;stroke-width:2;stroke-miterlimit:10;}
	.st9{fill:#3F3D56;}
	.st10{fill:#9F616A;}
	.st11{fill:#FFC914;}
	.st12{fill:#CEE0D5;}
	.st13{fill:none;stroke:#3F3D56;stroke-width:4;stroke-miterlimit:10;}
	.st14{fill:#3ACC6C;}
	.st15{fill:#333333;}
	.st16{fill:#FFFFFF;}
	.st17{opacity:0.4;}
	.st18{fill:#3A3768;}
	.st19{fill:url(#SVGID_1_);}
	.st20{fill:#E6E8EC;}
	.st21{opacity:0.7;fill:#48BA13;enable-background:new    ;}
	.st22{opacity:0.9;fill:#48BA13;enable-background:new    ;}
	.st23{fill:#F2F2F2;}
	.st24{opacity:0.2;}
	.st25{fill:url(#SVGID_2_);}
	.st26{fill:url(#SVGID_3_);}
</style>
<g>
	<circle class="st0" cx="228.7" cy="104.3" r="104.1"/>
	<ellipse class="st0" cx="82.8" cy="284.8" rx="82.9" ry="13.3"/>
	<ellipse class="st0" cx="376.9" cy="271.6" rx="97" ry="15.5"/>
	<path class="st1" d="M353.9,148.5c0,0,0.7,2.3-3.3,4.4c-4,2.1-5.1,10.1-0.5,12.4c4.7,2.3,6.1,5.4,3.7,7.5c-2.3,2.1-6.5,7.7-0.9,9.1
		c5.6,1.4,6.3,4.2,4.7,5.4c-1.6,1.2,3.7-2.1,3.7-2.1s0.9,5.6,5.8,4.2c4.9-1.4,18.7-28.1,11.7-31.8
		C371.9,153.9,353.9,148.5,353.9,148.5z"/>
	<path class="st2" d="M362.4,171.1c0,0,2.4,8.5-1.8,9.1c-2.6,0.4-5.1,1.5-7.3,3l7.9,10.3h14.6l9.1-9.1c0,0-12.1-9.1-9.7-14.6
		C377.6,164.4,362.4,171.1,362.4,171.1z"/>
	<path class="st3" d="M362.4,171.1c0,0,2.4,8.5-1.8,9.1c-2.6,0.4-5.1,1.5-7.3,3l7.9,10.3h14.6l9.1-9.1c0,0-12.1-9.1-9.7-14.6
		C377.6,164.4,362.4,171.1,362.4,171.1z"/>
	<polygon class="st2" points="366,276.6 380,281.4 389.7,282.1 389.1,273.6 369.1,267.6 	"/>
	<path class="st4" d="M383.9,274.8c0,0,0,8.5,1.2,8.5c1.2,0,17.6-1.8,22.4,0c4.9,1.8,12.1-4.9,8.5-8.5c-3.6-3.6-9.6-9.1-13.3-7.9
		c-3.7,1.2-18.9,4.2-18.9,4.2V274.8z"/>
	<path class="st4" d="M339.4,266.9c0,0-7.3,14.6-2.4,15.8c4.9,1.2,10.3-0.6,10.9-1.2s9.1-3,10.3-1.8c1.2,1.2,1.2-4.9,1.2-4.9
		L339.4,266.9z"/>
	<path class="st1" d="M345.4,246.9c0,0-11.5,15.8-3,20c8.5,4.2,49.1,4.2,52.1,0c3-4.2,4.2-17.6,0-18.8
		C390.3,246.9,345.4,246.9,345.4,246.9z"/>
	<path class="st5" d="M345.4,246.9c0,0-11.5,15.8-3,20c8.5,4.2,49.1,4.2,52.1,0c3-4.2,4.2-17.6,0-18.8
		C390.3,246.9,345.4,246.9,345.4,246.9z"/>
	<circle class="st2" cx="367.2" cy="161.4" r="13.9"/>
	<path class="st6" d="M345.4,183.2l12.1-2.4c0,0,3,9.7,12.7,7.9c9.7-1.8,12.1-7.9,12.1-7.9s7.3,3,7.9,3c0.6,0,8.5,3,8.5,4.9
		c0,1.8-9.1,20-9.1,20l1.2,32.7l-44.9-1.2l3-32.1L345.4,183.2z"/>
	<path class="st2" d="M338.7,199c0,0-3.6,32.1-1.2,34.6s12.1,9.1,12.1,9.1v-7.3l-4.9-9.1l4.9-21.2L338.7,199z"/>
	<path class="st2" d="M401.5,198.1c0,0-2.1,33-2.1,34.3s-5.5,5.5-7.3,5.5c-1.8,0-3-3-3-3l4.2-4.9l-3-24.9L401.5,198.1z"/>
	<path class="st1" d="M395.7,244.5c0,0,27.3-15.2,27.9,0c0.6,15.2-13.9,21.2-13.9,21.2s-37.6,11.3-39.1,7.2
		c-1.5-4.1-4.5-10.8-2.1-11.4s5.5-1.8,6.7-0.6c1.2,1.2,16.4-9.1,16.4-9.1L395.7,244.5z"/>
	<path class="st7" d="M408.5,242.6c0,0-5.5,2.4-7.3,4.2s-9.7,4.9-9.7,4.9"/>
	<path class="st6" d="M349.1,184.4l-3.6-1.2c0,0-13.3,13.9-9.1,17.6c4.2,3.6,6.7,4.9,7.9,6.1s7.3,1.8,7.3,1.8L349.1,184.4z"/>
	<path class="st6" d="M393.3,187.5l5.5,1.2c0,0,4.2,9.1,5.5,10.3c1.2,1.2-1.8,0.6-3.6,3c-1.8,2.4-3.6,6.7-7.3,6.7
		c-3.6,0-8.5-6.1-8.5-6.1L393.3,187.5z"/>
	<path class="st1" d="M346.6,249.9c0,0-23-16.4-30.9-4.2c-7.9,12.1,34,28.5,40,30.9s11.5,4.9,11.5,4.9s5.5-13.3,5.5-15.8
		c0-2.4-4.2-2.4-5.5-2.4c-1.2,0-6.7-1.2-7.9-3C358.1,258.4,346.6,249.9,346.6,249.9z"/>
	<path class="st7" d="M333.9,245.7c0,0,6.1,4.9,11.5,6.1c5.5,1.2,7.3,4.2,7.3,4.2"/>
	<path class="st4" d="M342.4,222.9l0.5,25.7c0,1.8,1.5,3.2,3.2,3.2l47.8-0.5c1.7,0,3.1-1.3,3.2-3l1.5-25.1c0.1-1.8-1.3-3.3-3-3.4
		c-0.1,0-0.1,0-0.2,0h-49.7C343.9,219.6,342.4,221,342.4,222.9C342.4,222.8,342.4,222.9,342.4,222.9z"/>
	<path class="st1" d="M368,143.9c0,0,0.8,2.6-3.6,4.9c-4.4,2.3-5.7,11.1-0.5,13.7s6.7,6,4.1,8.3c-2.6,2.3-7.3,8.5-1,10.1
		c6.2,1.6,7,4.7,5.2,6c-1.8,1.3,4.1-2.3,4.1-2.3s1,6.2,6.5,4.7c5.4-1.6,10.9-29.8,4.8-37.1C381.9,145.4,368,143.9,368,143.9z"/>
	<path class="st1" d="M366.3,141.2c0-3.8,11.4-1.1,16.2,4.2c3.4,3.7,8.5,9.2,4.2,13.1c-4.3,3.9,7.4,9,10.5,10.5s9.3,6.3,3.7,9.4
		s-5.5,6.4-3.4,7.1c2.1,0.8-4.6-1.1-4.6-1.1s0.7,6.3-5,6.2s-21.9-31.1-18-39.8C373.6,142.9,366.3,141.2,366.3,141.2z"/>
	<path class="st1" d="M368.8,140.4c-15.2-0.9-16.7,10.5-16.7,10.5c0.1,6.6,10.6,3.4,13.5,4.4c3.5-2.5,10.3-7.3,15.2-10.7
		C377.2,142,373.1,140.6,368.8,140.4z"/>
	<path class="st8" d="M364.5,213.3c0,0-10.1-47.2-67.2-89.9"/>
	<polygon class="st9" points="300.1,121.8 300.3,122.5 296.8,123.3 297.9,126.7 297.2,126.9 295.9,122.8 	"/>
	<path d="M135,276.4l2.3-1.7c0,0,1.5,8.5-0.2,9.8c-1.7,1.3-8.1,3.4-8.1,5.9c0,2.5-14.4,5.9-14.8,2.1c-0.4-3.8,1.3-5.9,1.3-5.9
		s6.8-6.8,7.6-8.1c0.8-1.3,3-3.8,3-3.8L135,276.4z"/>
	<path class="st1" d="M101.1,170.8c0,0,0.1,0.4,0.2,1.1c0.1,0.6,0.2,1.5,0.4,2.5c1.8,10.9,7,42.9,6.6,43.9c-0.4,1.3-3.4,5.9,0,7.2
		c0.3,0.1,0.7,0.5,1.1,1.1c0.7,1.4,1.3,2.8,1.8,4.2c2,5.9,4.2,15.3,5.4,21.8c0.5,2.9,0.9,5.2,1,6.4c0,0.3,0,0.6,0,0.8
		c-0.4,1.7,2.5,7.6,3.8,9.3c1.3,1.7,3.4,3.4,3,5.1s10.6,6.4,11.9,3.4c1.3-3,1.3-4.7,1.7-5.5c0.4-0.8,0.8-6.8-1.3-7.6
		c-2.1-0.8-0.8-15.7-3-18.7c-0.7-1-1.8-4.3-2.9-8.4c-0.4-1.6-0.9-3.3-1.3-4.9c-1.8-6.9-3.4-13.8-3.4-13.8l0.4-49.6l-23.3-3l-0.6,1.3
		l-1.2,2.6L101.1,170.8z"/>
	<path d="M99.8,252.3c0,0-3.4-3.4-5.1,0s-3.4,16.5-6.4,19.5c-3,3-6.8,17.8-2.5,18.7c4.2,0.8,8.9-1.3,9.3-3.8s9.3-15.7,9.3-17
		c0-1.3-5.9-5.9-5.9-5.9L99.8,252.3z"/>
	<path class="st1" d="M152,147.5c0,0-5.5,49.6-6.8,54.3c-1.3,4.7-8.1,22.5-10.2,25.4c-2.1,3-15.7,27.1-17.4,28.4s-5.1,4.7-5.1,4.7
		s-6.4,6.4-7.2,7.6c-0.8,1.3-8.1-2.5-8.5-5.1c-0.4-2.5,0.4-6.8,0.8-8.5c0.4-1.7-0.8-4.2,0.4-5.5c1.3-1.3,7.6-7.6,7.6-10.6
		c0-3,11-20.4,15.3-24.2s3.4-10.2,3.4-10.2v-25.9l-23.3-7.2c0,0,1.3-20.4,4.2-20.4C108.3,150.5,147.3,143.7,152,147.5z"/>
	<circle class="st10" cx="117.7" cy="62.7" r="14"/>
	<path class="st10" d="M122.3,73.7c0,0,1.7,6.4,3.8,8.1c2.1,1.7-5.5,8.9-5.5,8.9l-14.4,0.8l-2.5-8.1c0,0,4.7-9.3,3.4-15.3
		C105.8,62.3,122.3,73.7,122.3,73.7z"/>
	<path class="st11" d="M128.3,81c0,0-3.8,0.4-4.7,1.7c-0.8,1.3-6.8,5.1-11.4,4.2s-7.6-2.1-8.5-1.7c-0.8,0.4-2.5,9.3-2.5,9.3
		l4.7,13.6l-0.8,37.3l-1.3,10.2c0,0-2.5-3.4,7.6-1.3c10.2,2.1,23.3-1.7,27.6-2.1c4.2-0.4,11.4-1.7,11.9-4.2
		c0.4-2.5-1.3-11.9-1.3-11.9l-6.8-28.4l-4.2-15.3L128.3,81z"/>
	<path class="st12" d="M124.2,79c0,0,3.6-1.9,4.9-0.2c1.3,1.7,17.4,4.2,17.4,5.5c0,1.3,3.4,35.6,2.5,38.6s1.7,6.4,1.7,6.4l3,12.7
		c0,0,8.1,24.2,4.7,25s-6.4,0-7.6,0c-1.3,0-0.8-16.1-4.2-20.4s-8.1-14.8-8.9-17c-0.8-2.1-11.4-31.4-11-34.8
		C127,91.6,124.2,79,124.2,79z"/>
	<path class="st12" d="M106.6,81c0,0-3.4,0-3.8,0.8s-4.7,6.4-6.4,7.6s-7.6,6.8-7.6,8.1s12.3,10.6,12.3,10.6s5.1,25,2.5,33.5
		c-2.5,8.5-6.4,28.8-4.7,30.1s5.5,1.7,5.5,0c0-1.7,2.5-19.9,4.7-23.7s8.5-28,5.9-34.8C112.6,106.4,106.6,81,106.6,81z"/>
	<path class="st10" d="M162.6,122.9c0,0,0.4,13.1-4.2,19.9c-4.7,6.8-7.6,14.4-7.6,14.4s-7.6-2.1-8.9-4.7c-1.3-2.5-9.3-0.4-9.3-1.3
		c0-0.8,9.8-5.1,10.6-5.9c0.8-0.8,3.8-0.8,5.5-2.5c1.7-1.7,2.1-5.5,2.1-5.5l1.7-11L162.6,122.9z"/>
	<path class="st1" d="M127.3,54.1c1.1-0.1,2.2-0.2,3.1-0.7c2.1-1.1,2.7-4.4,1.1-6.2c-0.4-0.5-0.9-0.9-1.5-1.2l-3.2-2.2
		c-1.4-1-2.9-2-4.5-2.4c-1.5-0.4-3.1-0.4-4.6-0.3c-3,0.2-6.1,0.6-8.9,1.6c-2.8,1-5.5,2.8-7.2,5.3c-2.7,3.9-2.8,9.3-1.3,13.8
		c1.5,4.6,4.4,8.5,7.2,12.4l1.5-7.1c0.1-0.6,0.3-1.3,0.8-1.7c1.3-0.9,2.9,1,4.5,1c1,0,1.9-0.9,2.3-1.8c0.4-1,0.4-2,0.5-3
		c0.2-2.2,1-5.2,3-6.4C121.9,54,125.1,54.3,127.3,54.1z"/>
	<path class="st3" d="M126.5,171.2c0,0-1.4,41.4-2.3,42.7c-0.8,1.3,0-42.8,0-42.8L126.5,171.2z"/>
	<path class="st12" d="M143.1,84.3h3.4c0,0,14.4,19.5,12.7,20.8c-1.7,1.3,0,4.7,0,4.7l3.4,6.4c0,0,4.2,3.8,3,4.7
		c-1.3,0.8-3,4.2-3,4.2s-8.5-1.3-11,3.8l-5.5-6.9L143.1,84.3z"/>
	
		<rect x="136.7" y="92.1" transform="matrix(0.9243 -0.3817 0.3817 0.9243 -28.8229 62.4256)" class="st1" width="12.6" height="23.5"/>
	<ellipse transform="matrix(0.9243 -0.3817 0.3817 0.9243 -27.8742 61.878)" class="st11" cx="142" cy="101.2" rx="2.5" ry="2.3"/>
	<path class="st10" d="M134.6,118.3c0,0-30.5,25.4-35.6,17.4c-5.1-8.1,5.5-14.8,5.5-14.8s9.3,0.4,19.9-6.4l10.6-4.7
		c0,0,9.7-13.8,13-8.6C151.3,106.5,142.4,115.7,134.6,118.3z"/>
	<path class="st12" d="M93.5,95.8l-4.7,1.7v12.7l-1.7,2.5c0,0,0.4,5.1,1.7,6.4c1.3,1.3,3.8,0.8,3,3.8c-0.5,1.9-0.7,3.9-0.4,5.9
		c0,0,7.6,9.8,8.1,8.5s6.4-17,7.2-17c0.8,0-8.5-24.6-8.5-24.6H93.5z"/>
	<path class="st1" d="M149.2,160c0,0,4.4-4.2,2.2-4.5c-2.2-0.2-9.8-4.5-11.1-2.3C139.1,155.4,149.2,160,149.2,160z"/>
	<path class="st8" d="M199.7,86.5c-9.4-0.1-24.5,0.9-36.5,8"/>
	<polygon class="st9" points="163.8,90.8 164.5,91 163.4,94.4 166.9,95.3 166.7,96 162.5,94.9 	"/>
	<g>
		<path class="st13" d="M56.7,279.6c-2.1-3.9,0.3-8.8,3.1-12.3c2.8-3.5,6.2-7.2,6.1-11.6c-0.1-6.4-6.9-10.2-12.4-13.7
			c-4.1-2.5-7.8-5.5-11.1-9c-1.4-1.3-2.5-2.9-3.4-4.6c-1.1-2.5-1.1-5.4-1-8.1c0.2-9.2,0.7-18.4,1.4-27.5"/>
		<path class="st14" d="M28.9,192.2c0.2-3.4,2-6.5,5-8.3l2.3,4.5l-0.1-5.4c5.3-1.6,10.9,1.5,12.5,6.8c1.6,5.3-1.5,10.9-6.8,12.5
			c-5.3,1.6-10.9-1.5-12.5-6.8C28.9,194.4,28.8,193.3,28.9,192.2L28.9,192.2z"/>
		<path class="st14" d="M46.8,260.2c2.5,4.9,8.6,6.9,13.5,4.3c4.9-2.5,6.9-8.6,4.3-13.5c-2.5-4.9-8.6-6.9-13.5-4.3
			c-2.2,1.1-3.9,3.1-4.8,5.4l6.3,5.1l-6.9-1.6C45.7,257.2,46,258.8,46.8,260.2z"/>
		<path class="st14" d="M51.7,240.7c5.5,0.3,10.2-4,10.5-9.6c0.2-4.7-2.8-8.9-7.3-10.1l0.1,4.1l-2.3-4.5h0
			c-5.5-0.3-10.3,3.9-10.7,9.4c-0.3,5.5,3.9,10.3,9.4,10.7C51.5,240.7,51.6,240.7,51.7,240.7z"/>
		<path class="st14" d="M27.4,224.5c5.5,0.3,10.2-4,10.5-9.6c0.1-1.6-0.3-3.3-1-4.8c-2.4-5-8.3-7.2-13.4-4.8
			c-0.2,0.1-0.4,0.2-0.6,0.3l1.8,4.9L21,207c-4.1,3.8-4.4,10.1-0.6,14.2C22.2,223.2,24.7,224.3,27.4,224.5L27.4,224.5z"/>
		<path class="st3" d="M30.2,194.9c2.3,0.3,4.6,1,6.9,1.1s4.9-0.4,6.4-2.2c0.8-1,1.2-2.2,1.9-3.3c0.6-1,1.5-1.8,2.5-2.4
			c2.5,4.9,0.5,11-4.4,13.5c-4.9,2.5-11,0.5-13.5-4.4c-0.4-0.8-0.7-1.6-0.9-2.4C29.5,194.8,29.8,194.9,30.2,194.9z"/>
		<path class="st3" d="M27.4,224.5c5.5,0.3,10.2-4,10.5-9.6c0.1-1.6-0.3-3.3-1-4.8c-0.8,0.5-1.5,1.2-2,2c-0.7,1.1-1.2,2.3-2,3.3
			c-1.6,1.8-4.2,2.4-6.7,2.3c-2.4-0.1-4.8-0.8-7.2-1c-0.3,0-0.7-0.1-1-0.1C19,221.1,22.9,224.3,27.4,224.5z"/>
		<path class="st3" d="M51.7,240.7c5.5,0.3,10.2-4,10.5-9.6c0.1-1.6-0.2-3.1-0.9-4.6c-0.8,0.5-1.5,1.2-2.1,2
			c-0.8,1.1-1.3,2.4-2.2,3.4c-1.7,1.9-4.5,2.6-7.1,2.5c-2.5-0.1-4.9-0.7-7.4-0.9C43.9,237.7,47.5,240.5,51.7,240.7z"/>
		<path class="st3" d="M46.8,260.2c2.5,4.9,8.6,6.9,13.5,4.3c4.6-2.3,6.6-7.7,4.8-12.5c-0.8,0.5-1.6,1.2-2.2,1.9
			c-1,1.2-1.6,2.5-2.7,3.6c-2.1,2-5.4,2.8-8.3,2.9C50.2,260.5,48.5,260.4,46.8,260.2z"/>
		<path class="st15" d="M71.9,275c0,0-7.9-0.2-10.3-1.9c-2.4-1.7-12.2-3.7-12.8-1s-11.9,13.6-3,13.6c9,0.1,20.8-1.4,23.2-2.8
			S71.9,275,71.9,275z"/>
		<path class="st5" d="M45.7,284.8c9,0.1,20.8-1.4,23.2-2.8c1.8-1.1,2.5-5.1,2.8-6.9h0.3c0,0-0.5,6.4-2.9,7.8
			c-2.4,1.5-14.2,2.9-23.2,2.8c-2.6,0-3.5-0.9-3.4-2.3C42.7,284.2,43.7,284.8,45.7,284.8z"/>
	</g>
	<path class="st14" d="M83.8,278.5c0,8.1-4.8,10.9-10.7,10.9c-0.1,0-0.3,0-0.4,0c-0.3,0-0.5,0-0.8,0c-5.4-0.4-9.5-3.3-9.5-10.9
		c0-7.8,9.9-17.6,10.7-18.3l0,0c0,0,0,0,0,0S83.8,270.4,83.8,278.5z"/>
	<path class="st16" d="M72.7,288.2l3.9-5.5l-3.9,6.1l0,0.6c-0.3,0-0.5,0-0.8,0l0.4-8.1l0-0.1l0,0l0-0.8l-3.9-6.1l4,5.5l0,0.2
		l0.3-6.1l-3.4-6.3l3.4,5.2l0.3-12.7l0,0v0l-0.1,10l3.4-4L73,271l-0.1,5.5l3.1-5.3l-3.2,6.1l0,3l4.6-7.3l-4.6,8.4L72.7,288.2z"/>
	<path class="st6" d="M431.8,252.7l-9.7-5.7c1.3-2.2,3-4.2,4.9-5.9l18.2,5.7l-14.3-8.4c11.2-6.2,25.3-2,31.5,9.2
		c1.9,3.4,2.9,7.3,2.9,11.1c0,12.8-10.4,13.3-23.2,13.3c-12.8,0-23.2-0.4-23.2-13.3c0-3.2,0.7-6.4,2-9.4L431.8,252.7z"/>
	<path class="st3" d="M429.4,265.1c1-1,2.2-1.9,3.4-2.7c1.8-1.2,3.6-2.4,5.6-2.7c1.8-0.3,3.7-0.1,5.5-0.2c3.2-0.2,6.2-1.6,8.5-3.9
		c1.3-1.4,2.4-3,3.9-4.1c1.7-1.1,3.9-1.4,5.9-1.1c0.6,0.1,1.2,0.2,1.7,0.4c0.9,2.5,1.4,5.2,1.4,7.9c0,12.8-10.4,13.3-23.2,13.3
		c-6.2,0-11.9-0.1-16-1.7l0.7-1.3C427.6,267.6,428.3,266.3,429.4,265.1z"/>
	<g class="st17">
		<path class="st18" d="M253.8,59.9h0.7c0.2,0,0.4,0.2,0.4,0.4v11.3c0,0.2-0.2,0.4-0.4,0.4h-0.7c-0.2,0-0.4-0.2-0.4-0.4V60.3
			C253.4,60.1,253.6,59.9,253.8,59.9z"/>
		<path class="st18" d="M211.7,37.3h36.1c3.6,0,6.4,2.9,6.4,6.4v86.6c0,3.6-2.9,6.4-6.4,6.4h-36.1c-3.6,0-6.4-2.9-6.4-6.4V43.8
			C205.3,40.2,208.2,37.3,211.7,37.3z"/>
		
			<radialGradient id="SVGID_1_" cx="229.7773" cy="87.0571" r="38.7429" gradientTransform="matrix(1 0 0 1.863 0 -75.1266)" gradientUnits="userSpaceOnUse">
			<stop  offset="0" style="stop-color:#FFFFFF"/>
			<stop  offset="0.1222" style="stop-color:#FCFEFB"/>
			<stop  offset="0.2519" style="stop-color:#F2FAEE"/>
			<stop  offset="0.3851" style="stop-color:#E1F4D9"/>
			<stop  offset="0.5208" style="stop-color:#CAEBBB"/>
			<stop  offset="0.6585" style="stop-color:#ACE095"/>
			<stop  offset="0.7976" style="stop-color:#88D266"/>
			<stop  offset="0.9354" style="stop-color:#5EC22F"/>
			<stop  offset="1" style="stop-color:#48BA13"/>
		</radialGradient>
		<path class="st19" d="M247.3,39.9h-5.6v0.7c0,1.8-1.4,3.2-3.2,3.2c0,0,0,0,0,0h-17.8c-1.8,0-3.2-1.4-3.2-3.2c0,0,0,0,0,0v-0.7
			h-5.3c-2.1,0-3.9,1.7-3.9,3.9v0v86.5c0,2.1,1.7,3.9,3.9,3.9h35.1c2.1,0,3.9-1.7,3.9-3.9V43.8C251.2,41.7,249.5,39.9,247.3,39.9
			C247.3,39.9,247.3,39.9,247.3,39.9z"/>
		<path class="st20" d="M225.7,40.3h5.6c0.4,0,0.6,0.3,0.6,0.6v0.1c0,0.4-0.3,0.6-0.6,0.6h-5.6c-0.4,0-0.6-0.3-0.6-0.6V41
			C225.1,40.6,225.3,40.3,225.7,40.3z"/>
		<circle class="st20" cx="233.7" cy="41" r="0.8"/>
		<path class="st21" d="M244.7,86.7c0,8.3-6.7,15-15,15c-8.3,0-15-6.7-15-15c0-0.2,0-0.4,0-0.6c0.3-8.3,7.3-14.7,15.5-14.4
			C238.3,72,244.7,78.7,244.7,86.7z"/>
		<path class="st22" d="M243.3,92.6c0,0.2,0,0.4,0,0.6c-3.5,7.5-12.5,10.7-19.9,7.2c-5.2-2.5-8.6-7.8-8.6-13.6c0-0.2,0-0.4,0-0.6
			c3.5-7.5,12.5-10.7,19.9-7.2C239.9,81.5,243.3,86.8,243.3,92.6L243.3,92.6z"/>
		<polygon class="st23" points="226.7,90.8 221.3,83.7 222.6,82.8 226.9,88.6 244,74.6 245,75.8 		"/>
	</g>
	<g class="st24">
		<path class="st18" d="M290.8,87.9h0.7c0.2,0,0.4,0.2,0.4,0.4v11.3c0,0.2-0.2,0.4-0.4,0.4h-0.7c-0.2,0-0.4-0.2-0.4-0.4V88.3
			C290.4,88.1,290.6,87.9,290.8,87.9z"/>
		<path class="st18" d="M248.7,65.3h36.1c3.6,0,6.4,2.9,6.4,6.4v86.6c0,3.6-2.9,6.4-6.4,6.4h-36.1c-3.6,0-6.4-2.9-6.4-6.4V71.8
			C242.3,68.2,245.2,65.3,248.7,65.3z"/>
		
			<radialGradient id="SVGID_2_" cx="266.7773" cy="115.0571" r="38.7429" gradientTransform="matrix(1 0 0 1.863 0 -99.2895)" gradientUnits="userSpaceOnUse">
			<stop  offset="0" style="stop-color:#FFFFFF"/>
			<stop  offset="0.1222" style="stop-color:#FCFEFB"/>
			<stop  offset="0.2519" style="stop-color:#F2FAEE"/>
			<stop  offset="0.3851" style="stop-color:#E1F4D9"/>
			<stop  offset="0.5208" style="stop-color:#CAEBBB"/>
			<stop  offset="0.6585" style="stop-color:#ACE095"/>
			<stop  offset="0.7976" style="stop-color:#88D266"/>
			<stop  offset="0.9354" style="stop-color:#5EC22F"/>
			<stop  offset="1" style="stop-color:#48BA13"/>
		</radialGradient>
		<path class="st25" d="M284.3,67.9h-5.6v0.7c0,1.8-1.4,3.2-3.2,3.2c0,0,0,0,0,0h-17.8c-1.8,0-3.2-1.4-3.2-3.2c0,0,0,0,0,0v-0.7
			h-5.3c-2.1,0-3.9,1.7-3.9,3.9l0,0v86.5c0,2.1,1.7,3.9,3.9,3.9h35.1c2.1,0,3.9-1.7,3.9-3.9V71.8C288.2,69.7,286.5,67.9,284.3,67.9
			C284.3,67.9,284.3,67.9,284.3,67.9z"/>
		<path class="st20" d="M262.7,68.3h5.6c0.4,0,0.6,0.3,0.6,0.6v0.1c0,0.4-0.3,0.6-0.6,0.6h-5.6c-0.4,0-0.6-0.3-0.6-0.6V69
			C262.1,68.6,262.3,68.3,262.7,68.3z"/>
		<circle class="st20" cx="270.7" cy="69" r="0.8"/>
		<path class="st21" d="M281.7,114.7c0,8.3-6.7,15-15,15c-8.3,0-15-6.7-15-15c0-0.2,0-0.4,0-0.6c0.3-8.3,7.3-14.7,15.5-14.4
			C275.3,100,281.7,106.7,281.7,114.7z"/>
		<path class="st22" d="M280.3,120.6c0,0.2,0,0.4,0,0.6c-3.5,7.5-12.5,10.7-19.9,7.2c-5.2-2.5-8.6-7.8-8.6-13.6c0-0.2,0-0.4,0-0.6
			c3.5-7.5,12.5-10.7,19.9-7.2C276.9,109.5,280.3,114.8,280.3,120.6L280.3,120.6z"/>
		<polygon class="st23" points="263.7,118.8 258.3,111.7 259.6,110.8 263.9,116.6 281,102.6 282,103.8 		"/>
	</g>
	<g>
		<path class="st18" d="M273.8,74.9h0.7c0.2,0,0.4,0.2,0.4,0.4v11.3c0,0.2-0.2,0.4-0.4,0.4h-0.7c-0.2,0-0.4-0.2-0.4-0.4V75.3
			C273.4,75.1,273.6,74.9,273.8,74.9z"/>
		<path class="st18" d="M231.7,52.3h36.1c3.6,0,6.4,2.9,6.4,6.4v86.6c0,3.6-2.9,6.4-6.4,6.4h-36.1c-3.6,0-6.4-2.9-6.4-6.4V58.8
			C225.3,55.2,228.2,52.3,231.7,52.3z"/>
		
			<radialGradient id="SVGID_3_" cx="249.7773" cy="102.0571" r="38.7429" gradientTransform="matrix(1 0 0 1.863 0 -88.071)" gradientUnits="userSpaceOnUse">
			<stop  offset="0" style="stop-color:#FFFFFF"/>
			<stop  offset="0.1222" style="stop-color:#FCFEFB"/>
			<stop  offset="0.2519" style="stop-color:#F2FAEE"/>
			<stop  offset="0.3851" style="stop-color:#E1F4D9"/>
			<stop  offset="0.5208" style="stop-color:#CAEBBB"/>
			<stop  offset="0.6585" style="stop-color:#ACE095"/>
			<stop  offset="0.7976" style="stop-color:#88D266"/>
			<stop  offset="0.9354" style="stop-color:#5EC22F"/>
			<stop  offset="1" style="stop-color:#48BA13"/>
		</radialGradient>
		<path class="st26" d="M267.3,54.9h-5.6v0.7c0,1.8-1.4,3.2-3.2,3.2c0,0,0,0,0,0h-17.8c-1.8,0-3.2-1.4-3.2-3.2c0,0,0,0,0,0v-0.7
			h-5.3c-2.1,0-3.9,1.7-3.9,3.9v0v86.5c0,2.1,1.7,3.9,3.9,3.9h35.1c2.1,0,3.9-1.7,3.9-3.9V58.8C271.2,56.7,269.5,54.9,267.3,54.9
			C267.3,54.9,267.3,54.9,267.3,54.9z"/>
		<path class="st20" d="M245.7,55.3h5.6c0.4,0,0.6,0.3,0.6,0.6v0.1c0,0.4-0.3,0.6-0.6,0.6h-5.6c-0.4,0-0.6-0.3-0.6-0.6V56
			C245.1,55.6,245.3,55.3,245.7,55.3z"/>
		<circle class="st20" cx="253.7" cy="56" r="0.8"/>
		<path class="st21" d="M264.7,101.7c0,8.3-6.7,15-15,15c-8.3,0-15-6.7-15-15c0-0.2,0-0.4,0-0.6c0.3-8.3,7.3-14.7,15.5-14.4
			C258.3,87,264.7,93.7,264.7,101.7z"/>
		<path class="st22" d="M263.3,107.6c0,0.2,0,0.4,0,0.6c-3.5,7.5-12.5,10.7-19.9,7.2c-5.2-2.5-8.6-7.8-8.6-13.6c0-0.2,0-0.4,0-0.6
			c3.5-7.5,12.5-10.7,19.9-7.2C259.9,96.5,263.3,101.8,263.3,107.6L263.3,107.6z"/>
		<polygon class="st23" points="246.7,105.8 241.3,98.7 242.6,97.8 246.9,103.6 264,89.6 265,90.8 		"/>
	</g>
</g>
</svg>
