<?xml version="1.0" encoding="utf-8"?>
<!-- Generator: Adobe Illustrator 25.0.1, SVG Export Plug-In . SVG Version: 6.00 Build 0)  -->
<svg version="1.1" id="Layer_1" xmlns="http://www.w3.org/2000/svg" xmlns:xlink="http://www.w3.org/1999/xlink" x="0px" y="0px"
	 viewBox="0 0 327 236" style="enable-background:new 0 0 327 236;" xml:space="preserve">
<style type="text/css">
	.st0{opacity:0.1;fill:#48BA13;enable-background:new    ;}
	.st1{fill:#425142;}
	.st2{opacity:0.1;fill:#FFFFFF;stroke:#FFFFFF;stroke-miterlimit:10;enable-background:new    ;}
	.st3{fill:#FFFFFF;}
	.st4{fill:#48BA13;}
	.st5{fill:#3F3D56;}
	.st6{opacity:0.1;enable-background:new    ;}
	.st7{fill:url(#SVGID_1_);}
	.st8{fill:#A26565;}
	.st9{fill:#46543C;}
	.st10{fill:#EE8E9E;}
	.st11{fill:#1A1A1A;}
	.st12{opacity:0.1;}
	.st13{fill:#FFC914;}
</style>
<g>
	<path class="st0" d="M189.8,36.7C168.9,36,149,29.3,130,21.9S92.1,6.3,71.7,2.4C58.6-0.1,43.6-0.5,33.1,6.6
		C22.9,13.3,19.6,25,17.8,35.9c-1.3,8.2-2.1,16.7,1.5,24.4c2.5,5.3,7,9.8,10.1,14.8c10.8,17.7,3.2,39.5-8.5,56.7
		c-5.5,8.1-11.9,15.8-16.1,24.4s-6.2,18.5-2.5,27.3c3.7,8.7,12.4,15.2,21.9,19.9c19.3,9.3,42,12,64.1,13.5
		c49,3.4,98.3,1.9,147.5,0.4c18.2-0.5,36.5-1.1,54.4-3.9c9.9-1.6,20.2-4,27.4-10c9.2-7.6,11.4-20.5,5.3-30c-10.3-16-38.8-20-46-37.1
		c-4-9.4,0.1-20,5.9-28.7c12.3-18.8,33-35.3,34.1-56.7c0.8-14.7-9.2-29.5-24.6-36.5C276.3,7.1,253.9,8,242,20.1
		C229.8,32.6,208.3,37.4,189.8,36.7z"/>
	<path class="st1" d="M102,39.5h136.9c3.2,0,5.7,2.6,5.7,5.7v167.2c0,3.2-2.6,5.7-5.7,5.7H102c-3.2,0-5.7-2.6-5.7-5.7V45.2
		C96.3,42,98.8,39.5,102,39.5z"/>
	<rect x="109.1" y="56.4" class="st2" width="122.7" height="142.6"/>
	<circle class="st3" cx="170.4" cy="209.4" r="5.2"/>
	<path class="st3" d="M170.4,52.4c-1.4,0-2.5-1.1-2.5-2.5c0-1.4,1.1-2.5,2.5-2.5c1.4,0,2.5,1.1,2.5,2.5
		C172.9,51.3,171.8,52.4,170.4,52.4C170.4,52.4,170.4,52.4,170.4,52.4z"/>
	<path class="st3" d="M170.4,47.6c1.3,0,2.3,1,2.3,2.3c0,1.3-1,2.3-2.3,2.3c-1.3,0-2.3-1-2.3-2.3c0,0,0,0,0,0
		C168.1,48.6,169.2,47.6,170.4,47.6 M170.4,47.3c-1.4,0-2.6,1.2-2.6,2.6c0,1.4,1.2,2.6,2.6,2.6c1.4,0,2.6-1.2,2.6-2.6c0,0,0,0,0,0
		C173,48.4,171.9,47.3,170.4,47.3z"/>
	<ellipse class="st4" cx="99.7" cy="226" rx="17.2" ry="3.3"/>
	<ellipse class="st5" cx="99.4" cy="224.6" rx="2" ry="2.6"/>
	<ellipse class="st5" cx="99.4" cy="221.4" rx="2" ry="2.6"/>
	<ellipse class="st5" cx="99.4" cy="218.2" rx="2" ry="2.6"/>
	<ellipse class="st5" cx="99.4" cy="215" rx="2" ry="2.6"/>
	<ellipse class="st5" cx="99.4" cy="211.8" rx="2" ry="2.6"/>
	<ellipse class="st5" cx="99.4" cy="208.6" rx="2" ry="2.6"/>
	<ellipse class="st5" cx="99.4" cy="205.4" rx="2" ry="2.6"/>
	<path class="st4" d="M106.8,183.5c0.3-0.3,0.5-0.7,0.7-1.1l-5.3-0.9l5.7,0c1.1-2.4,1.2-5.1,0.2-7.6l-7.6,4l7-5.2
		c-2.6-4.6-8.5-6.1-13.1-3.5s-6.1,8.5-3.5,13.1c0.2,0.4,0.5,0.8,0.8,1.1c-0.4,0.5-0.8,1.1-1.1,1.7l6.8,3.5l-7.3-2.4
		c-1,3.1-0.5,6.4,1.5,9c-3.3,4.2-2.5,10.2,1.6,13.4c4.2,3.3,10.2,2.5,13.4-1.6c2.7-3.5,2.7-8.4,0-11.8
		C109.6,191.9,109.6,187,106.8,183.5L106.8,183.5z"/>
	<path class="st6" d="M89.8,189.4c0,2.1,0.7,4.2,2,5.9c-3.3,4.2-2.5,10.2,1.6,13.4c4.2,3.3,10.2,2.5,13.4-1.6
		c2.7-3.5,2.7-8.4,0-11.8C108.1,193.7,89.8,188.4,89.8,189.4z"/>
	<ellipse class="st4" cx="62.1" cy="197.3" rx="26.5" ry="5.1"/>
	<ellipse class="st5" cx="62.5" cy="195.2" rx="3.1" ry="4"/>
	<ellipse class="st5" cx="62.5" cy="190.2" rx="3.1" ry="4"/>
	<ellipse class="st5" cx="62.5" cy="185.3" rx="3.1" ry="4"/>
	<ellipse class="st5" cx="62.5" cy="180.3" rx="3.1" ry="4"/>
	<ellipse class="st5" cx="62.5" cy="175.4" rx="3.1" ry="4"/>
	<ellipse class="st5" cx="62.5" cy="170.4" rx="3.1" ry="4"/>
	<ellipse class="st5" cx="62.5" cy="165.5" rx="3.1" ry="4"/>
	<path class="st4" d="M51,131.7c-0.4-0.5-0.8-1.1-1.2-1.7l8.1-1.3l-8.8,0.1c-1.7-3.7-1.8-7.9-0.3-11.7l11.8,6.1l-10.9-8
		c4.1-7.1,13.2-9.5,20.2-5.4c7.1,4.1,9.5,13.2,5.4,20.2c-0.3,0.6-0.7,1.2-1.2,1.7c0.7,0.8,1.2,1.7,1.7,2.7l-10.5,5.5l11.2-3.8
		c1.6,4.7,0.7,10-2.4,13.9c5.1,6.4,3.9,15.7-2.5,20.8c-6.4,5.1-15.7,3.9-20.8-2.5c-4.2-5.4-4.2-12.9,0-18.3
		C46.8,144.6,46.8,137.1,51,131.7L51,131.7z"/>
	<path class="st6" d="M77.4,140.8c0,3.3-1.1,6.5-3.2,9.1c5.1,6.4,3.9,15.7-2.5,20.8c-6.4,5.1-15.7,3.9-20.8-2.5
		c-4.2-5.4-4.2-12.9,0-18.3C49,147.5,77.4,139.2,77.4,140.8z"/>
	<ellipse class="st0" cx="254.8" cy="229.7" rx="28.6" ry="6.1"/>
	
		<linearGradient id="SVGID_1_" gradientUnits="userSpaceOnUse" x1="521.1964" y1="-38.0135" x2="521.1964" y2="80.2402" gradientTransform="matrix(-1 0 0 -1 777 195.28)">
		<stop  offset="0" style="stop-color:#808080;stop-opacity:0.25"/>
		<stop  offset="0.54" style="stop-color:#808080;stop-opacity:0.12"/>
		<stop  offset="1" style="stop-color:#808080;stop-opacity:0.1"/>
	</linearGradient>
	<path class="st7" d="M244.2,230.4c0,0.1,0.1,0.3,0.1,0.4c0.2,0.5,0.5,1,0.9,1.3c0.2,0.1,0.5,0.2,0.8,0.3c1.8,0.4,3.6,0.3,5.4,0.5
		s3.7,0.7,5.5,0.1c0.4-0.1,0.9-0.3,1-0.8c0,0,0-0.1,0-0.1c1.3,0.2,2.6,0.3,3.8-0.1c0.4-0.1,0.9-0.3,1-0.8c0.1-0.2,0.1-0.5,0.1-0.7
		c-0.1-1.2-0.1-2.4-0.5-3.6c-0.1-0.4-0.3-0.8-0.5-1.2c-0.3-0.6-0.6-1.2-0.9-1.8l-0.1-0.2c0.2,0.1,0.5,0.2,0.7,0.3
		c1.1-3.3,1.9-6.7,2.3-10.2c0.6-4.1,0.5-8.3-0.4-12.4c-0.3-1.4-0.4-2.7-0.3-4.1c0.1-2.7,0.8-5.4,1.4-8.1c0.3-1.3,0.6-2.7,1-4.1
		c0.5-1.9,0.9-3.9,1.4-5.8c0.3-1.3,0.6-2.6,0.5-3.9c-0.1-0.7-0.2-1.4-0.4-2.1c-0.3-1.1-0.7-2.2-1.2-3.3c0.1,0,0.3,0,0.4-0.1
		c0.1-0.1,0.2-0.2,0.2-0.4l0.7-2.6c0.5-1.8,1-3.7,1.2-5.6c0.2-2.2-0.2-4.3-0.2-6.5c-0.1-2.8,0.3-5.6,0.1-8.4c0-0.6-0.1-1.2-0.2-1.8
		c0-0.3,0-0.6,0-1c0-1.6,0-3.1-0.5-4.6c-0.4-1-1-1.9-1.9-2.6c0-0.1,0.1-0.3,0.1-0.4l0.6-2.9c0.7-3.2,1.3-6.5,1-9.7
		c-0.3-2.9-1.7-5.8-4-7.4l0,0l-0.2-0.2l0,0c-0.1,0-0.2-0.1-0.2-0.1l-0.1,0c-0.1-0.1-0.2-0.1-0.3-0.1c-0.7-0.3-1.5-0.6-2.3-0.7
		l-0.3,0c-0.3,0-0.6-0.1-1-0.1h-0.3c-0.3,0-0.6,0-1,0.1c-0.1,0-0.2,0-0.4,0.1l-0.3,0.1c-0.7,0.2-1.4,0.3-2.1,0.4c-0.1,0-0.3,0-0.4,0
		c-0.4,0-0.8,0-1.2,0c-0.2,0-0.4,0-0.6,0c-0.3,0-0.7,0-1,0.1c-0.6,0.1-1.1,0.4-1.6,0.7c-0.3,0.2-0.7,0.5-0.9,0.8
		c-0.2,0.3-0.5,0.5-0.7,0.8c-0.1,0.1-0.2,0.3-0.3,0.4l-0.1,0.2c-0.1,0.1-0.2,0.3-0.2,0.4c-0.1,0.2-0.2,0.4-0.3,0.7
		c-0.2,0.6-0.3,1.2-0.1,1.9c0,0.1,0.1,0.3,0.1,0.4c-0.5,1-0.8,2.2-0.8,3.3c0,3.2,2,5.9,4.7,6.7c0.3,0.6,0.7,1.4,1.1,2.1
		c-0.7,0.5-1.3,1.1-1.8,1.9c-1.7-0.1-3.4,1.3-3.9,3c-0.2,0.7-0.3,1.3-0.2,2c-0.4,1.4-0.4,3-0.4,4.4c0,2.3-0.2,4.7-0.3,7
		c-0.1,2.3-0.2,4.6-0.4,7c0,0.7-0.1,1.3-0.2,2c-0.4,0.1-0.4,0.7-0.4,1.2c0.1,1.2,0.3,2.5,0.5,3.7c-0.2,0.8-0.2,1.6-0.1,2.3l0.2,0.1
		c0,0.8-0.1,1.6-0.3,2.4c0,0.1-0.1,0.3-0.2,0.4c0.1-0.1,0.3-0.1,0.4-0.1c-0.4,1.2-0.7,2.4-1.1,3.6c-0.2,0.6-0.5,1.2-0.7,1.8
		c-0.2,0.6-0.3,1.2-0.4,1.8c-0.1,0.4-0.1,0.7-0.2,1.1c-0.1,1.4,0.5,2.7,1.5,3.7c0,0.2,0,0.5,0,0.7c0,1.7,0.2,3.4,0.2,5.1
		c-0.1,2.3-0.5,4.4-0.5,6.7c0,6.3,1.7,12.4,3.7,18.3c0.8,2.3,1.7,4.7,2.6,7c0.5,1.4,1.1,2.9,0.6,4.2c0.2-0.1,0.4-0.2,0.6-0.2
		c-0.3,0.8-0.7,1.4-1.3,2c-0.9,0.9-2.1,1.4-3.3,1.6c-0.6,0.1-1.2,0-1.8,0.2C244.7,229.2,244.2,229.8,244.2,230.4z M251.6,197.8
		c0.6-3.3,1.8-6.4,3.5-9.2l0,0.2c0.1,0.9,0.3,1.9,0.4,2.8c0.4,2,0.8,3.9,0.8,5.9c-0.1,2.1,0,4.2,0.4,6.2c0.1,0.8,0.3,1.6,0.6,2.3
		c0.2,0.5,0.4,0.9,0.6,1.3c0.1,0.5,0.2,1.1,0.2,1.7c0.3,4.6,0,9.3-0.8,13.8c-0.2,0-0.3,0-0.3,0.1c-0.1,0.8-0.4,1.5-0.8,2.2l0-0.1
		c-0.1-0.1-0.1-0.3-0.2-0.4l0.2,0c-0.7-1.4-0.6-3.1-0.6-4.7c-0.1-2.2-0.3-4.3-0.7-6.4c-0.6-3.2-1.6-6.3-2.9-9.3
		c-0.3-0.6-0.5-1.3-0.6-2C251.2,200.8,251.3,199.3,251.6,197.8z M263.5,163.4c-0.1-0.1-0.2-0.3-0.3-0.4c-0.3-0.3-0.6-0.7-0.5-1.1
		c0-0.2,0.1-0.3,0.2-0.4c0.2-0.3,0.5-0.6,0.8-0.8l0.1-0.1C263.7,161.6,263.6,162.5,263.5,163.4L263.5,163.4z"/>
	<path class="st4" d="M267.7,142.5l0.3,2.4c0.1,0.8,0.2,1.7,0.3,2.5c0.2,2.8-0.2,5.6-0.1,8.3c0.1,2.1,0.4,4.3,0.3,6.4
		c-0.1,1.9-0.7,3.7-1.2,5.5l-0.8,2.6c0,0.1-0.1,0.3-0.2,0.4c-0.1,0.1-0.3,0.1-0.5,0.1l-3.4-0.3c0.2-1,0.5-2,0.6-3
		c0.1-0.8,0.1-1.6,0.2-2.4c0.2-2.5,0.4-5,0.6-7.5l0.4-4.4c0.2-1.9,0.3-3.8,0.8-5.7C265.4,145.6,266.4,143.9,267.7,142.5z"/>
	<path class="st6" d="M267.7,142.5l0.3,2.4c0.1,0.8,0.2,1.7,0.3,2.5c0.2,2.8-0.2,5.6-0.1,8.3c0.1,2.1,0.4,4.3,0.3,6.4
		c-0.1,1.9-0.7,3.7-1.2,5.5l-0.8,2.6c0,0.1-0.1,0.3-0.2,0.4c-0.1,0.1-0.3,0.1-0.5,0.1l-3.4-0.3c0.2-1,0.5-2,0.6-3
		c0.1-0.8,0.1-1.6,0.2-2.4c0.2-2.5,0.4-5,0.6-7.5l0.4-4.4c0.2-1.9,0.3-3.8,0.8-5.7C265.4,145.6,266.4,143.9,267.7,142.5z"/>
	<path class="st8" d="M261.7,225.9c0.2,0.4,0.4,0.8,0.5,1.2c0.4,1.1,0.4,2.4,0.5,3.6c0,0.2,0,0.5-0.1,0.7c-0.2,0.4-0.6,0.7-1.1,0.8
		c-1.9,0.5-3.8,0-5.8-0.1c-1.9-0.2-3.8,0-5.7-0.5c-0.3-0.1-0.5-0.1-0.8-0.3c-0.5-0.3-0.8-0.8-1-1.3c-0.1-0.1-0.1-0.3-0.1-0.4
		c-0.1-0.6,0.5-1.2,1.1-1.4c0.6-0.2,1.3-0.2,1.9-0.2c2.7-0.3,4.8-2.3,5.3-5c0-0.1,3.1-0.1,3.5,0.1c0.4,0.2,0.6,0.7,0.8,1.1
		C261.1,224.7,261.4,225.3,261.7,225.9z"/>
	<path class="st6" d="M261.7,225.9c0.2,0.4,0.4,0.8,0.5,1.2c0.4,1.1,0.4,2.4,0.5,3.6c0,0.2,0,0.5-0.1,0.7c-0.2,0.4-0.6,0.7-1.1,0.8
		c-1.9,0.5-3.8,0-5.8-0.1c-1.9-0.2-3.8,0-5.7-0.5c-0.3-0.1-0.5-0.1-0.8-0.3c-0.5-0.3-0.8-0.8-1-1.3c-0.1-0.1-0.1-0.3-0.1-0.4
		c-0.1-0.6,0.5-1.2,1.1-1.4c0.6-0.2,1.3-0.2,1.9-0.2c2.7-0.3,4.8-2.3,5.3-5c0-0.1,3.1-0.1,3.5,0.1c0.4,0.2,0.6,0.7,0.8,1.1
		C261.1,224.7,261.4,225.3,261.7,225.9z"/>
	<path class="st8" d="M256.6,226.8c0.2,0.4,0.4,0.8,0.5,1.2c0.4,1.2,0.4,2.4,0.5,3.6c0,0.2,0,0.5-0.1,0.7c-0.2,0.4-0.6,0.7-1.1,0.8
		c-1.9,0.5-3.8,0-5.8-0.1c-1.9-0.2-3.8,0-5.7-0.5c-0.3-0.1-0.5-0.2-0.8-0.3c-0.5-0.3-0.8-0.8-1-1.3c-0.1-0.1-0.1-0.3-0.1-0.4
		c-0.1-0.6,0.5-1.2,1.1-1.4c0.6-0.2,1.3-0.2,1.9-0.2c2.7-0.3,4.8-2.3,5.3-5c0-0.1,3.1-0.1,3.5,0.1c0.4,0.2,0.6,0.7,0.8,1.1
		C255.9,225.6,256.3,226.2,256.6,226.8z"/>
	<path class="st9" d="M243.1,196.2c0,6.2,1.8,12.3,3.9,18.2c0.8,2.3,1.7,4.6,2.7,6.9c0.6,1.4,1.2,2.9,0.6,4.2c1.7-0.7,3.5-1,5.3-0.7
		c-0.7-1.4-0.6-3.1-0.7-4.6c-0.1-2.1-0.3-4.3-0.7-6.4c-0.6-3.2-1.7-6.3-3.1-9.2c-0.3-0.6-0.5-1.3-0.6-1.9c-0.2-1.5-0.1-3,0.3-4.5
		c0.7-3.2,1.9-6.3,3.7-9.1l0,0.2c0.1,0.9,0.3,1.8,0.5,2.8c0.4,1.9,0.9,3.9,0.8,5.8c-0.1,2.1,0.1,4.1,0.4,6.2
		c0.1,0.8,0.3,1.6,0.6,2.3c0.2,0.4,0.5,0.9,0.6,1.3c0.2,0.5,0.2,1.1,0.2,1.6c0.2,4.7,0,9.5-1,14.1c1.6-0.1,3.2,0.3,4.7,1.1
		c1.1-3.3,1.9-6.7,2.5-10.1c0.6-4.1,0.5-8.2-0.4-12.3c-0.3-1.3-0.4-2.7-0.3-4.1c0.1-2.7,0.8-5.4,1.5-8l1-4c0.5-1.9,1-3.8,1.4-5.7
		c0.3-1.3,0.6-2.6,0.5-3.9c-0.1-0.7-0.2-1.4-0.5-2.1c-0.7-2.3-1.8-4.5-3.2-6.5c-5.6,0.3-11.2-0.2-16.7-0.6c-0.3-0.1-0.5,0-0.8,0.1
		c-0.2,0.2-0.3,0.4-0.3,0.7l-2.1,11.8c-0.3,1.6-0.5,3.3-0.6,5c0,1.7,0.3,3.3,0.2,5C243.6,191.8,243.1,193.9,243.1,196.2z"/>
	<path class="st6" d="M254.6,189.2c0.1,0.9,0.3,1.8,0.5,2.8c1.2-2.1,2.5-4.1,3.6-6.3c0.3-0.6,0.6-1.1,0.8-1.7l0.8-1.7
		c0.2-0.3,0.3-0.6,0.4-0.9c0.2-0.5,0.4-0.9,0.5-1.4c-0.4-0.1-1.4,1-1.7,1.3c-0.6,0.6-1.2,1.2-1.7,1.9c-0.7,0.7-1.3,1.5-1.8,2.4
		C255.3,186.6,254.8,187.9,254.6,189.2z"/>
	<path class="st10" d="M249.9,131.8c0,0,3.1,4.9,2.5,5.9c-0.6,1,9.7-0.9,9.7-0.9s-5.6-4.9-5-7C257.7,127.8,249.9,131.8,249.9,131.8z
		"/>
	<circle class="st10" cx="252.7" cy="126.3" r="7"/>
	<path class="st4" d="M249.8,136.9c0.7-1,1.8-1.9,2.9-2.4c0.7-0.2,1.4-0.4,2.1-0.5l2.8-0.5c0.7-0.1,1.4-0.2,2,0
		c0.3,0.2,0.6,0.4,0.9,0.6c1,0.9,1.9,1.9,3.1,2.4c0.3,0.1,0.7,0.2,1,0.4c1.4,0.6,2.4,1.8,2.9,3.2c0.6,1.4,0.6,3,0.6,4.5
		c0,0.5-0.1,1.1-0.2,1.6c-0.1,0.5-0.3,1-0.5,1.5c-0.4,1-0.7,2-1,3.1c-0.7,2.8-1.3,5.5-1.8,8.4c0,0.4-0.2,0.8-0.3,1.2
		c-0.3,0.4-0.6,0.7-1,0.9c-0.3,0.2-0.6,0.5-0.8,0.8c-0.1,0.1-0.2,0.3-0.3,0.4c-0.1,0.4,0.3,0.8,0.6,1.1c0.6,0.6,1.1,1.4,1.3,2.3
		c0.1,0.2,0.2,0.4,0.2,0.6c-0.1,0.2-0.1,0.3-0.1,0.5c0.1,0.2,0.1,0.3,0.3,0.4c0.3,0.4,0.4,0.8,0.3,1.2c-2.2,0.9-4.5,1.5-6.8,1.6
		c-0.6,0-1.2,0-1.7,0.1c-0.4,0.1-0.8,0.1-1.2,0.2c-0.6,0.1-1.2,0.1-1.8,0c-3.1-0.1-6.3-0.1-9.2-1.4c-0.3-1.5,0.3-3,0.7-4.4
		c0.6-2.3,0.7-4.7,1.2-7c0.3-1.6,0.7-3.2,1-4.8c0.2-1.6,0.3-3.3-0.1-4.8c-0.4-1.4-0.5-2.8-0.9-4.2c-0.4-1.4-0.7-2.9-0.2-4.2
		C246.3,138.2,248,136.8,249.8,136.9z"/>
	<path class="st11" d="M246.4,122.6c-0.3-1.2,0.3-2.5,1.1-3.5c0.9-1.1,2-2.1,3.3-2.3c1.1-0.2,2.2,0,3.4,0c1-0.1,1.9-0.4,2.9-0.6
		c0.9-0.1,1.8-0.1,2.7,0.1c0.8,0.1,1.7,0.4,2.4,0.7c3,1.3,4.7,4.6,5.1,7.8s-0.3,6.5-1,9.6l-0.6,2.9c-0.7,3-1.3,6-1.5,9
		c-0.2,3.1,0.2,6.2,1.4,9c-4.1-2.2-7.2-5.7-8.9-10c-0.5-1.2-0.8-2.4-1.3-3.6c-0.4-1-1-1.9-1.4-3c-0.4-1.1-0.6-2.4-0.6-3.6
		c0-0.9,0.2-1.8,0.2-2.8s-0.3-1.9-0.9-2.6c-0.6-0.6-1.4-0.9-2.1-1.2c-1.1-0.6-2.2-1.4-2.9-2.5c-0.5-0.6-0.5-0.9-0.6-1.5
		C247,123.8,246.6,123.2,246.4,122.6z"/>
	<path class="st10" d="M246.4,175c-0.1,0.7,0.1,1.4-0.1,2.2c-0.1,0.5-0.4,1-0.6,1.5c-0.2,0.6-0.2,1.2-0.2,1.8c0,0.5,0,1.2,0.5,1.4
		c0.2,0.1,0.4,0.1,0.7,0.2c0.2,0.1,0.4,0.3,0.3,0.5s-0.3,0.2-0.5,0.2c-0.2,0-0.4,0.2-0.3,0.4c0,0.1,0.1,0.1,0.2,0.1
		c0.2,0.1,0.4,0.1,0.5,0.3c0.2,0.1,0.3,0.3,0.2,0.5c0,0.2-0.2,0.3-0.4,0.2c0,0,0,0-0.1,0c0.1,0.2,0.1,0.4,0.1,0.6
		c-0.7,0.3-1.6-0.1-2.3-0.5c-0.3-0.2-0.6-0.4-0.9-0.6c-1.1-0.9-1.8-2.3-1.7-3.7c0-0.4,0.1-0.7,0.2-1.1c0.1-0.6,0.2-1.2,0.4-1.8
		c0.2-0.6,0.5-1.2,0.7-1.8c0.5-1.3,0.8-2.7,1.3-4c0-0.1,0.1-0.3,0.2-0.3c0.1,0,0.2-0.1,0.3-0.1c0.5,0,1,0,1.5,0.1
		c0.3,0.1,0.8,0.3,0.9,0.6c0.1,0.3-0.1,0.5-0.2,0.8C246.8,173.4,246.5,174.2,246.4,175z"/>
	<path class="st6" d="M246.8,140c-0.1,0.2-0.3,0.3-0.4,0.5c-1,1.8-1,4-1.1,6c-0.1,2.3-0.2,4.6-0.3,6.9l-0.4,6.9c0,0.7-0.1,1.3-0.2,2
		c-0.4,0.1-0.5,0.7-0.4,1.2c0.3,2.8,1.1,5.7,0.3,8.4c0,0.1-0.1,0.3-0.2,0.4c0.4-0.1,0.9-0.1,1.3,0c0.4,0.1,0.8,0.2,1.2,0.3
		c0.5,0.1,1.1,0.2,1.5,0.6c0.4-1.2,0.7-2.5,1-3.7c0.2-1.2,0.3-2.3,0.7-3.4c0.2-0.4,0.4-0.8,0.7-1.2c1.2-2.2,1.8-4.6,2.4-7
		c0.3-1.1,0.3-2.3,0.2-3.5c-0.1-0.5-0.1-1.1-0.1-1.6c0-0.6,0.1-1.1,0.2-1.7c0.2-1.6,0.1-3.3-0.3-4.9c-0.4-1.5-0.8-3-1.7-4.2
		S248.4,140,246.8,140z"/>
	<path class="st4" d="M246.5,139.7c-0.1,0.2-0.3,0.3-0.4,0.5c-1,1.8-1,4-1.1,6c-0.1,2.3-0.2,4.6-0.3,6.9l-0.4,6.9
		c0,0.7-0.1,1.3-0.2,2c-0.4,0.1-0.5,0.7-0.4,1.2c0.3,2.8,1.1,5.7,0.3,8.4c0,0.1-0.1,0.3-0.2,0.4c0.4-0.1,0.9-0.1,1.3,0
		c0.4,0.1,0.8,0.2,1.2,0.3c0.5,0.1,1.1,0.2,1.5,0.6c0.4-1.2,0.7-2.5,1-3.7c0.2-1.2,0.3-2.3,0.7-3.4c0.2-0.4,0.4-0.8,0.7-1.2
		c1.2-2.2,1.8-4.6,2.4-7c0.3-1.1,0.3-2.3,0.2-3.5c-0.2-1.1-0.2-2.2,0.1-3.3c0.2-1.6,0.1-3.3-0.3-4.9c-0.4-1.5-0.8-3-1.7-4.2
		C249.9,140.4,248,139.7,246.5,139.7z"/>
	<g class="st12">
		<path d="M247.5,119.1c0.9-1.1,2-2.1,3.3-2.3c1.1-0.2,2.2,0,3.4,0c1-0.1,1.9-0.4,2.9-0.6c0.9-0.1,1.8-0.1,2.7,0.1
			c0.8,0.1,1.7,0.4,2.4,0.7c0.4,0.2,0.8,0.4,1.2,0.7c-0.7-0.3-1.4-0.5-2.2-0.6c-0.9-0.2-1.8-0.2-2.7-0.1c-1,0.1-1.9,0.5-2.9,0.6
			c-1.1,0.1-2.3-0.2-3.4,0c-1.4,0.3-2.5,1.2-3.3,2.3c-0.8,1-1.5,2.3-1.1,3.5c0.2,0.7,0.6,1.2,0.7,1.9c0.1,0.7,0.1,0.9,0.6,1.5
			c0.6,0.8,1.3,1.4,2.1,2c-0.2-0.1-0.5-0.2-0.7-0.3c-1.1-0.6-2.2-1.4-2.9-2.5c-0.5-0.6-0.5-0.9-0.6-1.5c-0.1-0.7-0.5-1.2-0.7-1.9
			C246,121.3,246.7,120.1,247.5,119.1z"/>
		<path d="M252.7,129.7c-0.1-0.1-0.2-0.2-0.4-0.3c0.7,0.3,1.4,0.6,1.9,1.2c0.6,0.7,0.9,1.6,0.9,2.6c0,0.9-0.1,1.8-0.2,2.8
			c0,1.2,0.2,2.5,0.6,3.6c0.4,1,0.9,2,1.4,3c0.5,1.2,0.8,2.4,1.3,3.6c1.4,3.7,4,6.9,7.3,9.1c0,0,0,0.1,0,0.1
			c-4.1-2.2-7.2-5.7-8.9-10c-0.5-1.2-0.8-2.4-1.3-3.6c-0.4-1-1-1.9-1.4-3c-0.4-1.1-0.6-2.4-0.6-3.6c0-0.9,0.2-1.8,0.2-2.8
			S253.4,130.4,252.7,129.7z"/>
	</g>
	<path class="st0" d="M38.5,35.9h18.4c1.5,0,2.6,1.2,2.6,2.6V50c0,1.5-1.2,2.6-2.6,2.6H38.5c-1.5,0-2.6-1.2-2.6-2.6V38.5
		C35.9,37.1,37,35.9,38.5,35.9z"/>
	<path class="st0" d="M62.2,65.3h18.4c1.5,0,2.6,1.2,2.6,2.6v11.5c0,1.5-1.2,2.6-2.6,2.6H62.2c-1.5,0-2.6-1.2-2.6-2.6V68
		C59.5,66.5,60.7,65.3,62.2,65.3z"/>
	<path class="st0" d="M258.9,38.8h18.4c1.5,0,2.6,1.2,2.6,2.6v11.5c0,1.5-1.2,2.6-2.6,2.6h-18.4c-1.5,0-2.6-1.2-2.6-2.6V41.4
		C256.3,40,257.5,38.8,258.9,38.8z"/>
	<g>
		<g>
			<g>
				<path class="st3" d="M139.6,90.7h-12.3c-1.7,0-3.1,1.4-3.1,3.1v12.3c0,1.7,1.4,3.1,3.1,3.1s3.1-1.4,3.1-3.1v-9.2h9.2
					c1.7,0,3.1-1.4,3.1-3.1C142.7,92,141.3,90.7,139.6,90.7z"/>
			</g>
		</g>
		<g>
			<g>
				<path class="st3" d="M213.6,146.2c-1.7,0-3.1,1.4-3.1,3.1v9.2h-9.2c-1.7,0-3.1,1.4-3.1,3.1c0,1.7,1.4,3.1,3.1,3.1h12.3
					c1.7,0,3.1-1.4,3.1-3.1v-12.3C216.7,147.5,215.3,146.2,213.6,146.2z"/>
			</g>
		</g>
		<g>
			<g>
				<path class="st3" d="M213.6,90.7h-12.3c-1.7,0-3.1,1.4-3.1,3.1c0,1.7,1.4,3.1,3.1,3.1h9.2v9.2c0,1.7,1.4,3.1,3.1,3.1
					c1.7,0,3.1-1.4,3.1-3.1V93.7C216.7,92,215.3,90.7,213.6,90.7z"/>
			</g>
		</g>
		<g>
			<g>
				<path class="st3" d="M139.6,158.5h-9.2v-9.2c0-1.7-1.4-3.1-3.1-3.1s-3.1,1.4-3.1,3.1v12.3c0,1.7,1.4,3.1,3.1,3.1h12.3
					c1.7,0,3.1-1.4,3.1-3.1C142.7,159.9,141.3,158.5,139.6,158.5z"/>
			</g>
		</g>
		<g>
			<g>
				<rect x="136.5" y="103" class="st13" width="6.2" height="49.3"/>
			</g>
		</g>
		<g>
			<g>
				<rect x="148.8" y="103" class="st13" width="6.2" height="37"/>
			</g>
		</g>
		<g>
			<g>
				<rect x="161.2" y="103" class="st13" width="6.2" height="37"/>
			</g>
		</g>
		<g>
			<g>
				<rect x="173.5" y="103" class="st13" width="6.2" height="49.3"/>
			</g>
		</g>
		<g>
			<g>
				<rect x="185.8" y="103" class="st13" width="6.2" height="37"/>
			</g>
		</g>
		<g>
			<g>
				<rect x="198.2" y="103" class="st13" width="6.2" height="49.3"/>
			</g>
		</g>
		<g>
			<g>
				<rect x="148.8" y="146.2" class="st13" width="6.2" height="6.2"/>
			</g>
		</g>
		<g>
			<g>
				<rect x="161.2" y="146.2" class="st13" width="6.2" height="6.2"/>
			</g>
		</g>
		<g>
			<g>
				<rect x="185.8" y="146.2" class="st13" width="6.2" height="6.2"/>
			</g>
		</g>
	</g>
</g>
</svg>
