<?xml version="1.0" encoding="utf-8"?>
<!-- Generator: Adobe Illustrator 25.0.1, SVG Export Plug-In . SVG Version: 6.00 Build 0)  -->
<svg version="1.1" id="Layer_1" xmlns="http://www.w3.org/2000/svg" xmlns:xlink="http://www.w3.org/1999/xlink" x="0px" y="0px"
	 viewBox="0 0 346 240" style="enable-background:new 0 0 346 240;" xml:space="preserve">
<style type="text/css">
	.st0{opacity:0.1;fill:#48BA13;}
	.st1{fill:none;stroke:#3F3D56;stroke-width:4;stroke-miterlimit:10;}
	.st2{fill:#48BA13;}
	.st3{opacity:0.1;enable-background:new    ;}
	.st4{fill:#A67C52;}
	.st5{opacity:5.000000e-02;enable-background:new    ;}
	.st6{fill:#8CC63F;}
	.st7{fill:#22B573;}
	.st8{fill:#C69C6D;}
	.st9{fill:#FFC0C6;}
	.st10{fill:#333333;}
	.st11{fill:#3F3D56;}
	.st12{fill:#C1272D;}
	.st13{fill:none;stroke:#FFFFFF;stroke-miterlimit:10;}
</style>
<g>
	<path class="st0" d="M340.5,62.8c-2.9-6.6-6.7-12.8-11.5-18.3L169.9,43l131-18.4c-8.5-3.4-17.5-5.2-26.6-5.3
		c-25.7-20.6-61.9-21.8-89-3c-10.5-5.4-22.2-8.2-34.1-8.2c-35.4,0-64.8,24.5-71.4,57L340.5,62.8z"/>
	<path class="st0" d="M346.1,90c0-8.8-1.7-17.5-5-25.7L65.4,93.3c-2.8,5.1-5,10.6-6.5,16.3l85.4,12.7L57,131.6
		c2.6,36.8,34.1,65.8,72.6,65.8c19.4,0,37-7.4,50-19.3c13.1,12.2,30.9,19.7,50.5,19.7c29.1,0,54.1-16.5,65.8-40.5
		c23.4-7.4,41.6-26.1,47.9-49.5l-108-16.7h110.3C346.1,90.7,346.1,90.4,346.1,90z"/>
	<ellipse class="st0" cx="173" cy="234.4" rx="165" ry="7.6"/>
	<path class="st1" d="M48.4,200.4c-2.6-4.9,0.4-10.8,3.8-15.2s7.6-8.9,7.5-14.4c-0.1-7.9-8.6-12.6-15.3-16.9c-5-3.1-9.6-6.8-13.7-11
		c-1.7-1.7-3.3-3.5-4.2-5.7c-1.4-3.1-1.4-6.6-1.3-10c0.3-11.4,0.9-22.7,1.7-34"/>
	<path class="st2" d="M14.1,92.6c0.2-4.2,2.5-8,6.2-10.1L23,88l-0.1-6.6c6.6-1.9,13.5,1.8,15.4,8.4c1.9,6.6-1.8,13.5-8.4,15.4
		c-6.6,1.9-13.5-1.8-15.4-8.4C14.2,95.4,14,94,14.1,92.6L14.1,92.6z"/>
	<path class="st2" d="M36.2,176.5c3.1,6.1,10.6,8.5,16.7,5.4c3.9-2,6.5-6,6.7-10.4c0.1-1.7-0.2-3.4-0.8-5c-2.5-6.4-9.6-9.6-16-7.1
		c-3.3,1.3-5.9,3.9-7.2,7.2l7.7,6.3l-8.5-2C34.8,172.8,35.3,174.8,36.2,176.5z"/>
	<path class="st2" d="M42.3,152.4c6.8,0.3,12.6-5,12.9-11.8c0.3-5.8-3.5-10.9-9-12.5l0.1,5.1l-2.8-5.6h0c-6.8-0.3-12.6,5-13,11.8
		C30.2,146.3,35.5,152.1,42.3,152.4L42.3,152.4L42.3,152.4z"/>
	<path class="st2" d="M12.2,132.4c6.8,0.3,12.7-4.9,13-11.8c0.3-6.8-4.9-12.7-11.8-13c-2.3-0.1-4.6,0.4-6.7,1.6l2.2,6l-4.5-4.3
		c-2.4,2.2-3.9,5.3-4,8.6c-0.1,1.1,0,2.3,0.3,3.4C2,128.3,6.6,132.2,12.2,132.4z"/>
	<path class="st3" d="M15.7,95.9c2.9,0.3,5.6,1.2,8.5,1.4c2.9,0.2,6-0.5,7.8-2.7c1-1.2,1.5-2.7,2.3-4c0.8-1.2,1.9-2.2,3.1-2.9
		c3.1,6.1,0.6,13.6-5.5,16.6c-6.1,3.1-13.6,0.6-16.6-5.5c-0.5-0.9-0.8-1.9-1-2.9C14.8,95.9,15.3,95.9,15.7,95.9z"/>
	<path class="st3" d="M12.2,132.4c6.8,0.3,12.6-5,13-11.8c0.1-2-0.3-4-1.2-5.9c-1,0.7-1.8,1.5-2.5,2.5c-0.9,1.3-1.4,2.9-2.5,4.1
		c-1.9,2.3-5.2,3-8.2,2.9c-3-0.1-5.9-1-8.9-1.3c-0.4,0-0.8-0.1-1.2-0.1C2,128.3,6.7,132.2,12.2,132.4z"/>
	<path class="st3" d="M42.3,152.4c6.8,0.3,12.6-5,13-11.8c0.1-1.9-0.3-3.9-1.1-5.7c-1,0.7-1.9,1.5-2.6,2.5c-1,1.4-1.6,2.9-2.7,4.2
		c-2.1,2.3-5.6,3.2-8.8,3.1c-3.1-0.1-6-0.8-9.1-1.1C32.6,148.7,37.1,152.2,42.3,152.4z"/>
	<path class="st3" d="M36.2,176.5c3.1,6.1,10.6,8.5,16.7,5.4c3.9-2,6.5-6,6.7-10.4c0.1-1.7-0.2-3.4-0.8-5c-1,0.7-1.9,1.5-2.7,2.4
		c-1.2,1.4-2,3.1-3.3,4.4c-2.5,2.5-6.6,3.5-10.3,3.6C40.3,176.9,38.2,176.8,36.2,176.5z"/>
	<polygon class="st4" points="115.8,233 77.7,240.8 76.8,240.8 43.3,237.4 43.3,194.9 84.3,188 114.1,191.4 114.1,191.6 
		114.1,191.7 	"/>
	<polygon class="st3" points="115.8,233 77.7,240.8 76.8,240.8 76.8,197.2 114.1,191.6 	"/>
	<polygon class="st5" points="114.1,191.7 114.1,191.7 76.8,197.2 43.3,194.9 84.3,188 114.1,191.4 114.1,191.6 	"/>
	<polygon class="st6" points="185.7,231.8 147.6,239.6 146.7,239.5 113.2,236.1 113.2,193.6 154.2,186.7 184,190.2 184,190.3 
		184,190.4 	"/>
	<polygon class="st3" points="185.7,231.8 147.6,239.6 146.7,239.5 146.7,195.9 184,190.3 	"/>
	<polygon class="st5" points="184,190.4 184,190.4 146.7,195.9 113.2,193.6 154.2,186.7 184,190.2 184,190.3 	"/>
	<polygon class="st7" points="161.4,190.2 123.3,198 122.4,197.9 88.9,194.5 88.9,152 129.9,145.1 159.7,148.5 159.7,148.7 
		159.7,148.8 	"/>
	<polygon class="st3" points="161.4,190.2 123.3,198 122.4,197.9 122.4,154.3 159.7,148.7 	"/>
	<polygon class="st5" points="159.7,148.8 159.7,148.8 122.4,154.3 88.9,152 129.9,145.1 159.7,148.5 159.7,148.7 	"/>
	<polygon class="st8" points="183.1,191.9 163.2,196 162.7,196 145.2,194.2 145.2,172 166.7,168.4 182.2,170.2 182.2,170.3 
		182.2,170.4 	"/>
	<polygon class="st3" points="183.1,191.9 163.2,196 162.7,196 162.7,173.2 182.2,170.3 	"/>
	<polygon class="st5" points="182.2,170.4 182.2,170.4 162.7,173.2 145.2,172 166.7,168.4 182.2,170.2 182.2,170.3 	"/>
	<polygon class="st8" points="129.6,148.9 109.7,152.9 109.3,152.9 91.8,151.1 91.8,129 113.2,125.3 128.7,127.2 128.7,127.3 
		128.7,127.3 	"/>
	<polygon class="st3" points="129.6,148.9 109.7,152.9 109.3,152.9 109.3,130.2 128.7,127.3 	"/>
	<polygon class="st5" points="128.7,127.3 128.7,127.3 109.3,130.2 91.8,129 113.2,125.3 128.7,127.2 128.7,127.3 	"/>
	<polygon class="st4" points="164.6,148 144.7,152.1 144.2,152 126.7,150.3 126.7,128.1 148.2,124.5 163.7,126.3 163.7,126.4 
		163.7,126.4 	"/>
	<polygon class="st3" points="164.6,148 144.7,152.1 144.2,152 144.2,129.3 163.7,126.4 	"/>
	<polygon class="st5" points="163.7,126.4 163.7,126.4 144.2,129.3 126.7,128.1 148.2,124.5 163.7,126.3 163.7,126.4 	"/>
	<polygon class="st6" points="175,125.8 155.1,129.8 154.6,129.8 137.1,128 137.1,105.8 158.6,102.2 174.1,104 174.1,104.1 
		174.1,104.2 	"/>
	<polygon class="st3" points="175,125.8 155.1,129.8 154.6,129.8 154.6,107.1 174.1,104.1 	"/>
	<polygon class="st5" points="174.1,104.2 174.1,104.2 154.6,107.1 137.1,105.8 158.6,102.2 174.1,104 174.1,104.1 	"/>
	<path class="st9" d="M188.6,80.4c-0.2,1.9-1.6,3.4-2.2,5.2c-0.8,2.7,0.6,5.7,2.5,7.8c3.1,3.4,7.4,5.5,12,5.7c0.7,0.1,1.3,0,2-0.2
		c0.6-0.2,1.1-0.6,1.5-1c1.4-1.4,2.2-3.4,2.5-5.4s0.2-4,0.1-6c0-0.4-0.1-0.8-0.2-1.2c-0.2-0.4-0.5-0.7-0.8-1c-1-0.9-2.2-1.8-3.4-2.4
		c-0.5-0.3-1.1-0.6-1.4-1.1c-0.2-0.4-0.4-0.8-0.4-1.3l-0.4-1.9c-0.1-0.5-0.3-1.1-0.5-1.5c-0.7-0.9-1.9-1-3-1l-4-0.2
		c-1.3,0-2.9-0.4-4.1-0.2c-1.2,0.2-0.8,1.3-0.6,2.2C188.4,78,188.5,79.2,188.6,80.4z"/>
	<path class="st3" d="M188.6,80.4c-0.2,1.9-1.6,3.4-2.2,5.2c-0.8,2.7,0.6,5.7,2.5,7.8c3.1,3.4,7.4,5.5,12,5.7c0.7,0.1,1.3,0,2-0.2
		c0.6-0.2,1.1-0.6,1.5-1c1.4-1.4,2.2-3.4,2.5-5.4s0.2-4,0.1-6c0-0.4-0.1-0.8-0.2-1.2c-0.2-0.4-0.5-0.7-0.8-1c-1-0.9-2.2-1.8-3.4-2.4
		c-0.5-0.3-1.1-0.6-1.4-1.1c-0.2-0.4-0.4-0.8-0.4-1.3l-0.4-1.9c-0.1-0.5-0.3-1.1-0.5-1.5c-0.7-0.9-1.9-1-3-1l-4-0.2
		c-1.3,0-2.9-0.4-4.1-0.2c-1.2,0.2-0.8,1.3-0.6,2.2C188.4,78,188.5,79.2,188.6,80.4z"/>
	<path class="st10" d="M214.3,165l-1.7,18.8c-0.4,4.9-0.9,9.9-1.8,14.8c-0.3,1.7-0.7,3.3-1.1,5c-1.2,4.6-2.9,9.1-3.4,13.8
		c0,0.1,0,0.3,0,0.4c-0.1,1-0.2,2.1-0.6,3.1c-0.3,0.7-0.7,1.4-1,2.1c-0.6,1.4-0.7,3-0.7,4.5c-2.1-1.2-4.4-2-6.7-2.3
		c-1.2-0.2-2.4-0.3-3.2-1.2c-0.9-0.9-0.8-2.4-0.6-3.7c0.5-3.9,0.9-7.9,1.4-11.8c0.2-1.7,0.4-3.4,0.9-5c0.2-0.5,0.3-1.1,0.5-1.6
		c0.3-0.7,0.5-1.5,0.7-2.2c0.3-1.2,0.5-2.5,0.6-3.7c0.5-4,1-7.9,1.5-11.8l0-0.2c0.7-6,1.3-12,1.1-18c0-0.9-0.1-1.8-0.1-2.7
		c-0.1-1.3-0.2-2,0.9-2.8c1.2-0.9,2.8-1.5,4.1-2.1c0.7-0.3,8.8-3.2,9-2.5c0.4,1.3,0.6,2.7,0.6,4.1
		C214.5,161.6,214.4,163.3,214.3,165z"/>
	<path class="st3" d="M210.8,198.6c-0.3,1.7-0.7,3.3-1.1,5c-1.2,4.6-2.9,9.1-3.4,13.8c0,0.1,0,0.3,0,0.4
		c-3.6-5.1-6.6-10.6-10.1-15.8c0.3-0.7,0.5-1.5,0.7-2.2c0.3-1.2,0.5-2.5,0.6-3.7c0.5-4,1-7.9,1.5-11.8l0-0.2
		c0.2,0.8,0.5,1.7,0.9,2.4c2.4,4.8,7.9,7.2,10.7,11.8C210.6,198.3,210.7,198.5,210.8,198.6z"/>
	<path class="st10" d="M181.6,156.6c0.1,3.8,0.7,7.6,1.3,11.4l1.3,7.8c0.7,4.3,1.4,8.6,3.4,12.5c1.5,2.9,3.7,5.3,5.7,7.9
		c4.8,6.3,8.5,13.5,13.1,20c1.3,1.9,3.2,3.9,5.5,3.5c1.5-0.3,2.6-1.5,3.8-2.5c1.4-1.1,3.1-2,4.2-3.4s1.3-3.8-0.2-4.8
		c-0.5-0.3-1.1-0.5-1.7-0.7c-2.3-0.9-3.8-3.1-4.7-5.4c-0.9-2.3-1.5-4.7-2.8-6.8c-2.7-4.6-8.3-7-10.7-11.8c-1.3-2.7-1.4-5.8-1.5-8.7
		L198,168c0-0.8,0-1.7,0.3-2.5c0.9-2,3.6-2.2,5.8-2.5c2.5-0.3,4.9-1.1,7.1-2.2c1.3-0.7,2.5-1.6,3.2-2.8c0.6-1.2,0.7-2.5,0.8-3.8
		l0.8-13.8c0.1-1.2,0.1-2.4-0.3-3.5c-1-2.8-4.6-3.7-7.6-3.6c-5.5,0.2-10.7,2.6-15.9,4.2c-1.3,0.4-2.6,0.8-3.9,1
		c-1.2,0.2-2.6,0.1-3.7,0.5c-2,0.7-1.9,5-2.2,6.8C181.8,149.5,181.5,153,181.6,156.6z"/>
	<path d="M211.2,220.3c0.5,0.5,0.6,1.2,0.8,1.9c0.7,3.8,1.1,7.6,1.1,11.5c0,0.4,0,0.7,0.2,1c0.1,0.2,0.3,0.3,0.5,0.4
		c1.4,0.7,3.1-0.3,4.2-1.3c2.2-1.9,4-4.5,4.2-7.4c0-0.7-0.1-1.5,0.1-2.2c0.2-1.1,0.8-2,1.4-3c1-1.6,1.7-3.4,2.3-5.2
		c0.2-0.7,0.4-1.5-0.2-2c-0.2-0.1-0.4-0.3-0.6-0.3l-6.4-2.4c-0.6-0.2-1.9,3.3-2.1,3.7c-0.5,0.9-1.1,1.5-2.1,1.7
		c-1.1,0.2-2.4-0.1-3.4,0.4C209.4,218.2,210.2,219.3,211.2,220.3z"/>
	<path d="M201.4,222.4c-0.1-0.2-0.3-0.4-0.5-0.6c-0.3-0.2-0.6-0.3-1-0.3c-1.2-0.2-2.7-0.3-3.5,0.6c-0.8,0.8-0.7,2.2-1.3,3.2
		c-0.2,0.3-0.5,0.5-0.7,0.9c-0.2,0.5-0.3,1-0.3,1.6c0,1.5-0.1,2.9,0,4.4c0.1,1.2,0.3,2.5,1.1,3.5c1.2,1.5,3.5,1.8,5.4,1.9l1.6,0.1
		c0.4,0.1,0.9,0,1.3-0.1c0.5-0.2,0.9-0.7,1.1-1.2c0.8-2.1-0.5-4.3-1.3-6.4C202.5,227.4,202.7,224.7,201.4,222.4z"/>
	<path class="st11" d="M188.1,69.8c0-0.2,0-0.4,0.1-0.6c0.2-0.4,0.8-0.3,1.3-0.2c1.9,0.5,3.8,0,5.7,0.2c1.9,0.1,4.1,1.1,4.5,2.9
		c1.4-1,2.6-2.2,3.5-3.6c0.5-0.8,1-1.7,0.9-2.7c-0.1-1.4-1.3-2.4-2.3-3.3l-3.2-2.6c-0.4-0.4-0.9-0.7-1.4-0.9
		c-0.7-0.3-1.5-0.1-2.3-0.1c-2.3,0-4.8-1.1-6.9,0c-0.9,0.4-1.5,1.2-2.1,1.9l-2.8,3.4c-0.2,0.2-0.4,0.5-0.5,0.8
		c-0.1,0.4,0.1,0.8,0.2,1.2c0.1,0.8-0.2,1.6,0.1,2.3c0.4,1.2,1.9,1.4,2.8,2.1c0.3,0.3,0.8,1.1,1.2,1.1
		C187.6,71.7,188.1,70.4,188.1,69.8z"/>
	<circle class="st9" cx="192.9" cy="70.7" r="9.1"/>
	<path class="st12" d="M195.1,90.6c-0.6-1.8-2.4-3-4.3-3c-0.3,0.1-0.5,0-0.8-0.1c-0.1-0.1-0.3-0.2-0.3-0.4c-0.6-1-1-2-1.3-3.1
		c-0.1-0.5-0.3-1.1-0.8-1.2c-0.4-0.1-0.8,0.2-1.1,0.5c-0.2,0.3-0.5,0.6-0.8,1c-1.2,1-3.2,0.1-4.4,1c-0.2,0.2-0.4,0.3-0.6,0.5
		c-0.2,0.1-0.4,0.2-0.7,0.3c-2.4,0.8-4.7,1.7-6.9,2.7c0.8,4.9,1.6,9.8,3.5,14.4c0.9,2.2,1.9,4.3,2.6,6.5c1.6,5,1.7,10.2,1.7,15.5
		c0,3.6,0,7.2-1.2,10.6c-0.3,0.8-0.6,1.5-0.7,2.3s0.2,1.7,0.8,2.2c0.4,0.2,0.8,0.4,1.3,0.4c2,0.3,4-0.2,6-0.7
		c5.3-1.2,10.6-1.9,16-2.6l9-1.2c0.6,0,1.3-0.2,1.9-0.5c1.6-0.9,1.8-3.4,0.8-4.9c-0.5-0.8-1.2-1.4-1.6-2.2c-0.4-0.8-0.4-1.9,0.3-2.5
		c1.4-1.1,1-3.2,1.1-5c0.2-5.1,0.2-10.2-0.1-15.3c-0.1-1.1-0.1-2.1-0.1-3.2c0.1-1.8,0.5-3.6,1-5.3l2.7-10.8
		c-0.7-1.1-2.1-1.8-3.4-2.2c-1.3-0.3-2.6-0.4-3.9-0.8c-2.6-0.8-4.9-2.9-7.7-2.7c-0.2,0-0.4,0.1-0.6,0.1c-0.6,0.3-0.5,1.2-0.6,1.9
		c-0.1,1.6-1.2,2.9-2.5,3.8c-1.3,0.9-2.7,1.6-3.9,2.6C195.3,89.6,195.1,90.1,195.1,90.6z"/>
	<path class="st9" d="M159,100.8c-0.6,0.4-1.2,0.7-1.9,1c-0.6,0.3-1.3,0.5-1.8,0.9c-0.3,0.2-0.5,0.5-0.6,0.8c-1,1.7-0.4,3.8,1.3,4.8
		c0.6,0.3,1.2,0.5,1.9,0.4c0.8,0,1.6-0.4,2.4-0.7l6.4-2.8c1.1-0.5,2.3-1,2.8-2.1c0.1-0.1,0.1-0.2,0.1-0.3c0-0.1-0.1-0.2-0.3-0.3
		c-1.4-0.9-2.7-2.1-3.7-3.5c-0.3-0.4-0.6-1.2-1-1.4C163.2,96.7,160.1,100.1,159,100.8z"/>
	<path class="st9" d="M227.6,98.5l2.4,2.7c0.5,0.6,1,1.2,1.5,1.8c1.1,1.6,2.1,3.3,2.7,5.1c0.5,1.3,0.9,2.8,0.8,4.2
		c-0.1,0.7-0.3,1.5-0.6,2.1c-0.4,1.3-1,2.6-1.6,3.9c-0.5,0.9-1.1,1.9-1.8,2.7c-1.8,2.4-3.8,4.7-6,6.9c-0.8,0.8-1.2,2.1-1.5,3.2
		c-0.7,2-2.2,3.6-3.7,5c-0.5,0.5-1,1-1.6,1.4c-0.9,0.6-1.9,0.8-2.9,0.8c-0.4,0-0.9-0.1-1.3-0.3c-1-0.5-1.5-1.7-1.7-2.8
		c-0.1-1,0.1-2.1,0.5-3c1.4-3,4.8-4.3,7.3-6.5c1.4-1.3,2.6-2.9,3.6-4.5c0.7-1,1.4-2.1,1.8-3.2c0.5-1.5,0.3-3.2,0.8-4.7
		c0.2-0.6,0.6-1.2,0.8-1.8c0.2-0.6,0.3-1.4-0.1-1.9c-0.3-0.3-0.7-0.6-1.1-0.8c-1.6-0.8-3.3-1.8-3.6-3.6c-0.1-1,0.1-1.9,0.7-2.7
		c0.6-0.8,1.2-1.5,2-2.1C225.8,99.8,226.9,99.1,227.6,98.5z"/>
	<path class="st9" d="M157.5,104.5c-0.4-0.8-0.9-1.7-1.8-2.1c-0.8-0.4-1.8-0.4-2.6,0c-0.8,0.4-1.6,0.8-2.3,1.4l-2,1.5
		c-0.5,0.3-0.9,0.7-1.2,1.1c-0.3,0.5-0.5,1.1-0.6,1.7c-0.3,1.4-0.5,2.9-0.3,4.3c0.3,2.3,1.7,4.3,3.2,6.1c1,1.1,2.1,2.2,3.6,2.2
		c0.6,0,1.3-0.2,1.6-0.8c0.1-0.2,0.1-0.5,0.1-0.7c0.2-2.6-0.8-5.1-1.8-7.4c-0.3-0.6-0.6-1.3-0.6-2c0-0.1,0-0.2,0.1-0.3
		c0.1-0.1,0.2-0.2,0.3-0.2c1.5-0.3,4,0.8,5-0.8C158.9,107.5,157.9,105.5,157.5,104.5z"/>
	<path d="M187.6,67c0-0.2,0-0.4,0.1-0.6c0.2-0.4,0.8-0.3,1.3-0.2c1.9,0.5,3.8,0,5.7,0.2c1.9,0.1,4.1,1.1,4.5,2.9
		c1.4-1,2.6-2.2,3.5-3.6c0.5-0.8,1-1.7,0.9-2.7c-0.1-1.4-1.3-2.4-2.3-3.3l-3.2-2.6c-0.4-0.4-0.9-0.7-1.4-0.9
		c-0.7-0.3-1.5-0.1-2.3-0.1c-2.3,0-4.8-1.1-6.9,0c-0.9,0.4-1.5,1.2-2.1,1.9l-2.8,3.4c-0.2,0.2-0.4,0.5-0.5,0.8
		c-0.1,0.4,0.1,0.8,0.2,1.2c0.1,0.8-0.2,1.6,0.1,2.3c0.4,1.2,1.9,1.4,2.8,2.1c0.3,0.3,0.8,1.1,1.2,1.1
		C187.1,68.8,187.6,67.5,187.6,67z"/>
	<path class="st12" d="M168.3,91.9c-0.4,0.2-0.7,0.5-1,0.9c-0.3,0.5-0.4,1.2-0.7,1.7c-0.6,1.1-2,1.5-2.9,2.5
		c-0.1,0.1-0.2,0.3-0.3,0.5c0,0.3,0.1,0.5,0.2,0.7l4.3,6.8c1.4,0.1,2.8-0.8,4.3-0.7c0.5,0,1.1,0.2,1.6,0.1c0.4-0.2,0.7-0.4,1-0.6
		c0.9-0.5,2-0.6,2.7-1.3s0.8-1.8,0.8-2.7c0-0.8-0.1-1.7-0.3-2.5c-0.6-2.6-2.6-4.6-3.9-6.9c-0.6-1.1-0.9-1.8-2.2-1
		C170.7,90,169.5,91,168.3,91.9z"/>
	<path class="st12" d="M220.7,88.5c0.8,0.5,1.5,1.2,2.2,1.9c0.7,0.8,1,1.9,1.7,2.8c0.6,0.9,1.4,1.5,2.1,2.3c1.1,1.2,1.8,2.6,2.5,4
		c-1.7,2.2-3.6,4.3-5.6,6.3c-0.2,0.3-0.5,0.5-0.8,0.6c-0.5,0-0.9-0.1-1.2-0.5c-0.3-0.3-0.5-0.7-0.8-1.1c-0.7-0.7-1.6-1.2-2.6-1.3
		c-1-0.1-2-0.1-3,0c-0.2,0-0.4,0-0.6-0.1c-0.1-0.1-0.3-0.2-0.3-0.4c-1.2-2-0.8-4.5-0.4-6.8l0.9-5.2c0.1-1,0.4-2,0.8-2.9
		c0.4-0.8,1.2-2.1,2.1-1.8C218.6,86.5,219.9,87.9,220.7,88.5z"/>
	<polygon class="st4" points="138.3,126.6 118.4,130.7 117.9,130.7 100.4,128.9 100.4,106.7 121.9,103.1 137.4,104.9 137.4,105 
		137.4,105 	"/>
	<polygon class="st3" points="138.3,126.6 118.4,130.7 117.9,130.7 117.9,107.9 137.4,105 	"/>
	<polygon class="st5" points="137.4,105 137.4,105.1 117.9,107.9 100.4,106.7 121.9,103.1 137.4,104.9 137.4,105 	"/>
	<polygon class="st7" points="148.7,104.7 128.8,108.7 128.3,108.7 110.8,106.9 110.8,84.7 132.3,81.1 147.8,82.9 147.8,83 
		147.8,83.1 	"/>
	<polygon class="st3" points="148.7,104.7 128.8,108.7 128.3,108.7 128.3,86 147.8,83 	"/>
	<polygon class="st5" points="147.8,83.1 147.8,83.1 128.3,86 110.8,84.7 132.3,81.1 147.8,82.9 147.8,83 	"/>
	<g>
		<ellipse class="st0" cx="267.9" cy="223.3" rx="12.2" ry="1.7"/>
		<ellipse class="st0" cx="297.7" cy="235.6" rx="8.7" ry="1.2"/>
		<path class="st6" d="M268.2,222.9c0,0-17.1-56,2.7-78.5c14.8-16.8,31.6-14.8,39.1-12.7c3.9,1,7.2,3.8,9,7.5
			c2.6,5.7,2.2,14.9-16.4,25.6c-31.1,18-33,42.6-33,42.6L268.2,222.9z"/>
		<path class="st13" d="M307.3,139.7c0,0-50.4,15.8-39.1,83.2"/>
		<path class="st13" d="M277.8,145.4c0,0,6.9,4.7,4.7,11.7"/>
		<path class="st13" d="M302.2,149.5c0,0-4.2-4.3-9.4-1.9"/>
		<path class="st13" d="M282.3,171.2c0,0-7.4-3.8-9.4,0.9"/>
		<path class="st13" d="M263.9,179.1c0,0,5.6-0.4,5.7,2.2"/>
		<path class="st6" d="M267.5,223.4c0,0,20-40.7,25.5-39.8c2.6,0.4,3.8,3,4.4,5.6c0.7,3.3,0.3,6.8-1.1,9.9
			C293.5,205.6,285.8,218,267.5,223.4z"/>
		<path class="st13" d="M292.9,191.3c0,0-21,30.5-25.1,31.8"/>
		<line class="st13" x1="294.8" y1="196" x2="289.9" y2="196"/>
		<line class="st13" x1="288.9" y1="207.2" x2="281.2" y2="207.5"/>
		<line class="st13" x1="284.2" y1="198.3" x2="285.1" y2="202.3"/>
		<line class="st13" x1="276.1" y1="210.5" x2="276.2" y2="214.1"/>
		<path class="st6" d="M268.1,223.4c0,0-20-40.7-25.5-39.8c-2.6,0.4-3.8,3-4.4,5.6c-0.7,3.3-0.3,6.8,1.1,9.9
			C242.1,205.6,249.8,218,268.1,223.4z"/>
		<path class="st13" d="M242.7,191.3c0,0,21,30.5,25.1,31.8"/>
		<line class="st13" x1="240.8" y1="196" x2="245.7" y2="196"/>
		<line class="st13" x1="246.7" y1="207.2" x2="254.4" y2="207.5"/>
		<line class="st13" x1="251.3" y1="198.3" x2="250.5" y2="202.3"/>
		<line class="st13" x1="259.5" y1="210.5" x2="259.4" y2="214.1"/>
		<path class="st6" d="M302.5,232.9c0.5-0.4,0.9-1,1.1-1.7c0.2-0.7-0.2-1.4-0.8-1.8c-0.7-0.3-1.5,0.2-2.1,0.7c-0.6,0.5-1.3,1.1-2,1
			c0.8-0.7,1.2-1.8,0.9-2.9c0-0.2-0.1-0.4-0.3-0.6c-0.4-0.4-1.1-0.2-1.6,0.1c-1.5,1.1-2,3.2-2,5.1c-0.1-0.7-0.1-1.4,0-2.1
			c0-0.7-0.2-1.5-0.8-1.8c-0.4-0.2-0.8-0.3-1.2-0.3c-0.7,0-1.5,0-1.9,0.6c-0.6,0.6-0.4,1.7,0.1,2.4c0.6,0.6,1.3,1.2,2,1.6
			c0.6,0.3,1.1,0.8,1.4,1.4c0,0.1,0.1,0.2,0.1,0.2h4.4C300.7,234.3,301.6,233.6,302.5,232.9z"/>
	</g>
</g>
</svg>
