<?xml version="1.0" encoding="utf-8"?>
<!-- Generator: Adobe Illustrator 25.0.1, SVG Export Plug-In . SVG Version: 6.00 Build 0)  -->
<svg version="1.1" id="Layer_1" xmlns="http://www.w3.org/2000/svg" xmlns:xlink="http://www.w3.org/1999/xlink" x="0px" y="0px"
	 viewBox="0 0 276 223" style="enable-background:new 0 0 276 223;" xml:space="preserve">
<style type="text/css">
	.st0{opacity:0.1;fill:#48BA13;enable-background:new    ;}
	.st1{fill:#3C543F;}
	.st2{opacity:0.3;fill:#48BA13;enable-background:new    ;}
	.st3{fill:#FFC914;}
	.st4{opacity:0.4;fill:#48BA13;enable-background:new    ;}
	.st5{fill:#48BA13;}
	.st6{fill:#2F2E41;}
	.st7{fill:#FFB8B8;}
	.st8{fill:#CFE0CE;}
</style>
<g>
	<polygon class="st0" points="44,0.3 25.8,35.8 29.5,35.8 29.5,64.8 11,64.8 0.3,85.6 132.5,153.4 176.2,68.1 	"/>
	<rect x="40.2" y="23.4" class="st1" width="202.7" height="101.7"/>
	<rect x="68.6" y="60" class="st2" width="149.6" height="0.3"/>
	<rect x="68.8" y="68.6" class="st2" width="149.6" height="0.3"/>
	<rect x="68.8" y="85.8" class="st2" width="149.6" height="0.3"/>
	<rect x="68.8" y="93.4" class="st2" width="149.6" height="0.3"/>
	<rect x="68.8" y="77.2" class="st2" width="149.6" height="0.3"/>
	<ellipse class="st0" cx="195.6" cy="217.5" rx="64.1" ry="5.9"/>
	<polygon class="st3" points="72.9,93.7 72.4,93.2 94.7,71.9 114.3,86 130.2,68.5 137.2,74.4 156.1,63 177.1,77.1 210.1,58.4 
		210.5,59 177.1,78 156.1,63.8 137.1,75.2 130.3,69.4 114.4,87 94.8,72.8 	"/>
	<path class="st4" d="M137,205.7c1.6,6,7.2,9.7,7.2,9.7s2.9-6,1.3-12c-1.6-6-7.2-9.7-7.2-9.7S135.4,199.7,137,205.7z"/>
	<path class="st5" d="M139.4,204.4c4.4,4.3,5,11,5,11s-6.7-0.4-11.1-4.7c-4.4-4.3-5-11-5-11S135,200.1,139.4,204.4z"/>
	<circle class="st4" cx="264" cy="18.8" r="11.5"/>
	<circle class="st4" cx="242.7" cy="24.3" r="8.1"/>
	<circle class="st4" cx="232.7" cy="172.8" r="4.3"/>
	<circle class="st4" cx="159.2" cy="195.2" r="3.3"/>
	<circle class="st4" cx="148.2" cy="151.8" r="4.3"/>
	<circle class="st3" cx="209.9" cy="60.1" r="4.5"/>
	<path class="st6" d="M180.8,141.3l-3.8,0.4c0,0-1.7,7.6,0,17.7c1.7,10.1,3.8,20.3,3.8,20.3s1.7,32.9,2.5,33.3
		c0.8,0.4,8.4,3,8.9,0.4c0.4-2.5,0.4-60.4,0.4-60.4l5.9,27.9c0,0,0.8,35,2.5,35c1.7,0,7.2-0.4,7.2-3.4s1.3-41.8,1.3-41.8
		s-0.4-28.7-2.1-29.5C205.7,140.5,180.8,141.3,180.8,141.3z"/>
	<path class="st6" d="M184.2,211.8c0,0-3.8-0.4-4.6,0c-0.8,0.4-2.1,3.4,0,5.1c2.1,1.7,7.6,4.2,9.3,4.2c1.2-0.1,2.3-0.3,3.4-0.8
		l-0.8-7.2L184.2,211.8z"/>
	<path class="st6" d="M201.1,213.9l0.4,5.9c0,0,5.5,0.8,5.9,0c0.4-0.8,4.6-3,5.1-3.4c0.4-0.4,0.8-5.1-1.7-5.5
		c-2.5-0.4-3.4,0.8-3.4,0.8L201.1,213.9z"/>
	<path class="st7" d="M165.6,105.8c0,0-10.1,9.7-8.9,14.8c1.3,5.1,11.4,19.8,11.4,19.8s9.7,5.1,11,0c1.3-5.1-6.8-3.8-6.8-3.8
		l-6.3-15.2l7.2-10.1L165.6,105.8z"/>
	<path class="st7" d="M210.9,91.1c0,0,9.2-5.9,9-10c-0.2-4.1-5.8-16.9-5.8-16.9s-4.4-9-6.1-5.3s2.3,7.6,2.3,7.6l2.6,12.6l-7,6.7
		L210.9,91.1z"/>
	<circle class="st7" cx="188" cy="75" r="7.6"/>
	<path class="st7" d="M184.2,79.7l1.3,8l9.3-1.7c0,0-0.4-8-0.4-8.9S184.2,79.7,184.2,79.7z"/>
	<path class="st8" d="M183.8,87.7c0,0,10.6-2.5,11.8-1.7c1.3,0.8,7.6,1.7,7.6,1.7l7.2,11l-2.1,13.9c0,0-0.4,22.4,0.4,26.2
		c0.8,3.8,5.5,4.2-4.2,5.1s-11.4-0.4-18.1,1.3c-6.8,1.7-12.2-0.8-10.6-2.5c1.7-1.7,4.6-28.7,1.3-31.2s-4.6-15.6-4.6-15.6
		S183.8,89.8,183.8,87.7z"/>
	<path class="st8" d="M201.9,89l1.3-1.3l2.5-2.5c0,0,8.2,3.6,7.8,4.9c-0.4,1.3-3.2,8.7-3.2,8.7l-3.8,1.3L201.9,89z"/>
	<path class="st8" d="M177.4,96.6l-5.1-0.8c0,0-3.8,4.2-5.1,5.9s-3.8,5.9-3.8,5.9l8.9,6.3l6.8-7.2L177.4,96.6z"/>
	<path class="st6" d="M190.6,65.8l-0.1-0.6c-0.5,0-1,0.1-1.5,0.2c-0.1-0.4,0-0.7,0.1-1.1c-0.5,0.1-1,0.3-1.4,0.6l-0.3-1.1l-4.2,2.1
		c-1.5,0.7-3.1,1.6-4,3c-1,1.6-0.8,3.7-0.1,5.5c0.7,1.8,1.8,3.3,2.6,5c0.3,0.7,0.7,1.4,1.2,2c1.6,2,4.7,2.4,6.9,1.2
		c0.9-0.4,1.5-1.1,1.9-2c0.2-0.5,0.3-1.1,0.4-1.6c0.3-1.1,0.6-3.5,1.5-4.2c0.4-0.3,1.2,0.7,1.5,0.3c0.9-1,0.7-2.5,0.1-3.7
		c-0.5-1.2-1.1-2.4-1.8-3.5C193.3,67.5,190.6,65.8,190.6,65.8z"/>
	<rect x="4.7" y="40" class="st3" width="22.1" height="22.1"/>
</g>
</svg>
