<?xml version="1.0" encoding="utf-8"?>
<!-- Generator: Adobe Illustrator 25.0.1, SVG Export Plug-In . SVG Version: 6.00 Build 0)  -->
<svg version="1.1" id="Layer_1" xmlns="http://www.w3.org/2000/svg" xmlns:xlink="http://www.w3.org/1999/xlink" x="0px" y="0px"
	 viewBox="0 0 194 135" style="enable-background:new 0 0 194 135;" xml:space="preserve">
<style type="text/css">
	.st0{fill:url(#SVGID_1_);}
	.st1{fill:url(#SVGID_2_);}
	.st2{opacity:0.3;fill:url(#SVGID_3_);}
</style>
<g>
	<g>
		
			<linearGradient id="SVGID_1_" gradientUnits="userSpaceOnUse" x1="-2661.427" y1="5100.4766" x2="-2661.427" y2="4936.6675" gradientTransform="matrix(-0.9477 0.319 -0.319 -0.9477 -812.4437 5679.2793)">
			<stop  offset="0" style="stop-color:#7FB439"/>
			<stop  offset="1" style="stop-color:#BED630"/>
		</linearGradient>
		<path class="st0" d="M134.1,98.4l-19.5,7l57.8,33.4l21.1-62l-17.1,6.2C138.3,15.7,88.7-3.9,50.2,7.3c-30,8.8-39.5,23.3-39.5,23.3
			C49,8.8,98.9,37.4,134.1,98.4z"/>
		
			<linearGradient id="SVGID_2_" gradientUnits="userSpaceOnUse" x1="-2591.1899" y1="5092.021" x2="-2591.1899" y2="5067.5747" gradientTransform="matrix(-0.9477 0.319 -0.319 -0.9477 -812.4437 5679.2793)">
			<stop  offset="0" style="stop-color:#66952E"/>
			<stop  offset="1" style="stop-color:#A4BA29"/>
		</linearGradient>
		<path class="st1" d="M41,45.1c0,0,2.5-11,6.1-20.7c-11.6-2.4-23.9-0.8-36.4,6.3c-11.2,12.7-10,28-10,28L41,45.1z"/>
	</g>
	
		<linearGradient id="SVGID_3_" gradientUnits="userSpaceOnUse" x1="-3523.4226" y1="5018.3076" x2="-3523.4226" y2="4936.6675" gradientTransform="matrix(-0.9477 0.319 -0.319 -0.9477 -1593.8744 5942.3145)">
		<stop  offset="0" style="stop-color:#FFFFFF"/>
		<stop  offset="8.962709e-02" style="stop-color:#FFFFFF;stop-opacity:0.9104"/>
		<stop  offset="1" style="stop-color:#FFFFFF;stop-opacity:0"/>
	</linearGradient>
	<path class="st2" d="M134.3,98.4l-19.5,7l57.8,33.4l21.1-62L176.7,83c-5-9.3-11.2-18-18.1-25.6c-9,9.5-20.4,17.9-34.6,24.6
		C127.7,87.2,131.2,92.7,134.3,98.4z"/>
</g>
</svg>
