<?xml version="1.0" encoding="utf-8"?>
<!-- Generator: Adobe Illustrator 25.0.1, SVG Export Plug-In . SVG Version: 6.00 Build 0)  -->
<svg version="1.1" id="Layer_1" xmlns="http://www.w3.org/2000/svg" xmlns:xlink="http://www.w3.org/1999/xlink" x="0px" y="0px"
	 viewBox="0 0 552 492" style="enable-background:new 0 0 552 492;" xml:space="preserve">
<style type="text/css">
	.st0{fill:#2F2E41;}
	.st1{fill:#48BA13;}
	.st2{fill:#D0CDE1;}
	.st3{fill:#3F3D56;}
	.st4{fill:#FFFFFF;}
	.st5{opacity:0.1;enable-background:new    ;}
	.st6{fill:#FFB8B8;}
	.st7{fill:#FFC914;}
	.st8{opacity:0.2;enable-background:new    ;}
	.st9{fill:#F2F2F2;}
</style>
<g>
	<path class="st0" d="M91.7,58.4c0,0,4.3,37-15.2,65.6s-55.6,37.9-55.6,37.9s-4.3-37,15.2-65.6C55.7,67.7,91.7,58.4,91.7,58.4z"/>
	<path class="st1" d="M29.9,37.6c0,0-26.3,26.4-28.6,60.9s20.3,64.2,20.3,64.2s26.3-26.4,28.6-60.9C52.5,67.2,29.9,37.6,29.9,37.6z"
		/>
	<path class="st2" d="M277.5,0.9c3.7-0.2,6.8,2.6,7.1,6.3l14,235.3L26.7,381.1c-0.7,0.4-1.6,0.6-2.4,0.7c-3.4,0.2-6.4-2.4-6.6-5.8
		L2.3,147.3c-0.3-5,2.4-9.8,6.9-12.1L274.9,1.6C275.7,1.2,276.6,0.9,277.5,0.9z"/>
	<path class="st3" d="M274.4,5.5c3.6-0.2,6.7,2.5,6.9,6.1l13.6,229.5L29.8,376.5c-0.7,0.4-1.5,0.6-2.3,0.6c-3.3,0.2-6.2-2.3-6.5-5.7
		L5.9,148.3c-0.3-4.9,2.3-9.6,6.7-11.8L271.9,6.2C272.7,5.8,273.5,5.6,274.4,5.5z"/>
	<path class="st4" d="M262.8,22.9c3.3-0.2,6.1,2.3,6.2,5.5l12.3,208L41,359.1c-0.7,0.3-1.4,0.5-2.1,0.6c-3,0.2-5.7-2.1-5.9-5.1
		L19.4,152.4c-0.3-4.5,2.1-8.7,6.1-10.7l235-118.1C261.2,23.2,262,23,262.8,22.9z"/>
	<path class="st2" d="M506.2,351.7c1.9-3.6,0.5-8.1-3.2-9.9l-189.8-98.6c-7.3-3.8-15.9-3.7-23.2,0.1l-13.5,7.2L51.1,363l-26.8,14.1
		c-0.6,1.1-1.1,2.3-1.5,3.6c-0.7,2.6-1.1,6,1.2,8.3l196.9,99.9c5,2.5,10.9,2.5,16,0l266.1-134C504.4,354.2,505.5,353.1,506.2,351.7z
		"/>
	<path class="st5" d="M507,347.2L234.6,482.8c-4.9,2.4-10.7,2.4-15.5-0.1l-196.3-102c-0.7,2.6-1.1,6,1.2,8.3l196.9,99.9
		c5,2.5,10.9,2.5,16,0l266.1-134C505.9,353.5,507.5,350.3,507,347.2z"/>
	<path class="st5" d="M249.1,396.3c-0.8,1.5-0.3,3.4,1.2,4.2l50.2,28.3c2.9,1.6,6.4,1.7,9.4,0.2l87.9-44.3c0.7-0.3,1.2-0.9,1.5-1.5
		c0.9-1.7,0.3-3.9-1.5-4.8l-50-26.7c-3.5-1.9-7.6-1.9-11.2-0.1l-86.2,43.5C249.8,395.4,249.4,395.8,249.1,396.3z"/>
	<path class="st5" d="M46.5,386.9c-0.5-1-0.1-2.3,0.9-2.9l262.3-132.2c2.8-1.4,6-1.4,8.8,0l90.6,44.8c0.9,0.4,1.6,1.1,2,2
		c1.1,2.2,0.2,4.9-2,6l-262,132.5c-2.2,1.1-4.8,1.1-6.9-0.1l-92.7-49.3C47,387.6,46.7,387.3,46.5,386.9z"/>
	
		<rect x="105.3" y="163.4" transform="matrix(0.8944 -0.4472 0.4472 0.8944 -57.1397 85.7177)" class="st1" width="95.3" height="1"/>
	
		<rect x="105.1" y="176.4" transform="matrix(0.8903 -0.4554 0.4554 0.8903 -63.7673 89.0755)" class="st1" width="95.8" height="1"/>
	<rect x="128.1" y="190.9" transform="matrix(0.8905 -0.455 0.455 0.8905 -70.0671 91.7561)" class="st1" width="54.9" height="1"/>
	<path class="st3" d="M477.3,231.1c-9.8-9.6-30.6-0.5-30.6-0.5C451.1,237.5,487.1,240.6,477.3,231.1z"/>
	<path class="st0" d="M486.2,222.7c0.6,6.7-17.2,5.9-35.8,6.5c-2.5,0.1-5,0.1-7.4-0.1l-1.9-10.5l-3.1,9.8
		c-17.4-3.9-6.3-20.1,1.8-36.9c8.6-18,22.1-16.3,22.1-16.3s13.8,0.6,20.8,12.4C489.4,198.9,485.5,213.8,486.2,222.7z"/>
	<path class="st6" d="M507.5,409.8c0,0-4.4,10.1-9.5,13.9c-5,3.8-10.1,19.5-9.5,29.6c0,0.1,0,0.2,0,0.3c0.4,9-12.2,11.6-15.4,3.1
		c-1.2-3-1.5-6.3,0.3-9.1c5-8.2,1.9-13.9,0.6-16.4c-1.3-2.5-1.9-13.2,3.8-13.2c5.7,0,14.5-16.4,14.5-16.4L507.5,409.8z"/>
	<path class="st6" d="M416.8,406c0,0,4.4,10.1,9.5,13.9s10.1,19.5,9.5,29.6c0,0.1,0,0.2,0,0.3c-0.4,9,12.2,11.6,15.4,3.1
		c1.2-3,1.5-6.3-0.3-9.1c-5-8.2-1.9-13.9-0.6-16.4c1.3-2.5,1.9-13.2-3.8-13.2c-5.7,0-14.5-16.4-14.5-16.4L416.8,406z"/>
	<path class="st0" d="M440.7,310.2l46.6,2.5l12,17c0,0,44.7,18.9,49.1,23.9c4.4,5-23.9,61.1-26.5,64.9c-2.5,3.8-20.2-2.5-32.1-12
		c-12-9.5,15.1-33.4,15.1-33.4l-25.8-19.5l-30.3,0.6l-20.8,18.9c0,0,15.1,18.9,14.5,29.6c-0.6,10.7-20.8,14.5-24.6,15.8
		s-28.4-32.1-33.4-53.6s50.4-39.7,50.4-39.7l3.8-8.2L440.7,310.2z"/>
	<path class="st6" d="M474.8,213.2c-3.8,10.7,2.5,22.1,2.5,22.1l-6.9,14.5h-10.7c0,0-18.9-10.7-12.6-13.2s3.2-23.3,3.2-23.3
		S478.6,202.5,474.8,213.2z"/>
	<path class="st5" d="M474.8,213.2c-3.8,10.7,2.5,22.1,2.5,22.1l-6.9,14.5h-10.7c0,0-18.9-10.7-12.6-13.2s3.2-23.3,3.2-23.3
		S478.6,202.5,474.8,213.2z"/>
	<path class="st7" d="M439.5,235.9l3.2,78.1c0,0,17,5.7,25.2,1.3c8.2-4.4,18.3,0,18.3,0v-75.6c0,0-1.3-12-13.2-1.9
		c-12,10.1-17.6,3.2-18.9,1.9c-1.3-1.3-8.2-8.8-8.2-8.8L439.5,235.9z"/>
	<path class="st3" d="M458.4,303.9c1.9,8.2-19.5,21.4-19.5,21.4l-27.7,14.5c0,0,1.9-5,13.2-23.9s-5-58.6-6.3-64.3
		c-1.3-5.7,16.4-18.3,21.4-20.8c5-2.5,10.9,0,10.9,0S456.5,295.8,458.4,303.9z"/>
	<path class="st3" d="M469.7,304.6c-1.9,17,15.8,32.8,23.3,30.9c7.6-1.9,15.1,1.3,19.5,0c4.4-1.3-8.2-14.5-15.8-23.9
		c-7.6-9.5,9.8-60.2,11-65.8c1.3-5.7-18-11-18.6-12.3s-13.9-2.5-13.9-2.5C469.7,235.3,471.6,287.6,469.7,304.6z"/>
	<path class="st6" d="M454,348.1l0.6,5.7c0,0,6.3,17-3.8,17.6s-6.9-13.9-6.9-13.9v-6.3L454,348.1z"/>
	<path class="st6" d="M484.2,356.9c0,2.5-5,12-12,10.7s0-15.8,0-15.8S484.2,354.4,484.2,356.9z"/>
	<ellipse class="st6" cx="481.4" cy="204.7" rx="1.3" ry="2.5"/>
	<ellipse class="st6" cx="444.2" cy="204.7" rx="1.3" ry="2.5"/>
	<path class="st3" d="M469.7,353.7c7.6-1.9,16.4,6.3,16.4,6.3s20.8-108.4,21.4-114.7c0.6-6.3-15.1-6.3-15.1-6.3L469.7,353.7z"/>
	<path class="st3" d="M456.5,348.7c0,3.2-12,5-15.1,5c-3.2,0-25.8-90.7-25.8-100.2c0-9.5,15.8-12.6,15.8-12.6
		S456.5,345.5,456.5,348.7z"/>
	<path class="st8" d="M448.9,315l-14.2-55.4C442.3,266.5,448.9,315,448.9,315z"/>
	<path class="st8" d="M475.6,324.2l14.3-72.5C480.1,255.9,475.6,324.2,475.6,324.2z"/>
	<circle class="st6" cx="462.8" cy="205" r="18.3"/>
	<polygon class="st0" points="480.2,199.1 464.3,199.4 462.6,188.7 460,198.8 455.6,199 455.6,192.7 452.8,199.1 443.1,199.4 
		447,182.2 465.9,179.3 479.5,186.4 	"/>
	<polyline class="st9" points="197.3,69 218.7,131.6 282.3,98.3 274.8,80.4 	"/>
	<polygon class="st1" points="283.7,87.3 256.6,22.8 192.1,54.6 220.2,120.7 	"/>
	<rect x="206.5" y="60.5" transform="matrix(0.8905 -0.455 0.455 0.8905 -2.1476 113.1428)" class="st4" width="54.9" height="1"/>
	<rect x="210.2" y="69.3" transform="matrix(0.8905 -0.455 0.455 0.8905 -5.7466 115.7722)" class="st4" width="54.9" height="1"/>
</g>
</svg>
