<?xml version="1.0" encoding="utf-8"?>
<!-- Generator: Adobe Illustrator 25.0.1, SVG Export Plug-In . SVG Version: 6.00 Build 0)  -->
<svg version="1.1" id="Layer_1" xmlns="http://www.w3.org/2000/svg" xmlns:xlink="http://www.w3.org/1999/xlink" x="0px" y="0px"
	 viewBox="0 0 591 379" style="enable-background:new 0 0 591 379;" xml:space="preserve">
<style type="text/css">
	.st0{opacity:0.5;fill:url(#SVGID_1_);enable-background:new    ;}
	.st1{fill:#48BA13;}
	.st2{opacity:0.6;fill:#48BA13;enable-background:new    ;}
	.st3{opacity:0.6;fill:none;stroke:#535461;stroke-miterlimit:10;enable-background:new    ;}
	.st4{fill:url(#SVGID_2_);}
	.st5{fill:#FFFFFF;}
	.st6{fill:#EEEEEE;}
	.st7{fill:#FF5252;}
	.st8{fill:#FFFF00;}
	.st9{fill:#69F0AE;}
	.st10{opacity:0.5;fill:#48BA13;enable-background:new    ;}
	.st11{opacity:0.5;fill:url(#SVGID_3_);enable-background:new    ;}
	.st12{fill:#FDB797;}
	.st13{opacity:5.000000e-02;}
	.st14{fill:#F9CE43;}
	.st15{fill:#0D134D;}
	.st16{opacity:0.1;}
	.st17{fill:#E23553;}
	.st18{opacity:0.1;fill:none;stroke:#000000;stroke-miterlimit:10;enable-background:new    ;}
	.st19{fill:#1A1A1A;}
	.st20{fill:#F4F4F4;}
</style>
<g>
	
		<linearGradient id="SVGID_1_" gradientUnits="userSpaceOnUse" x1="398.6767" y1="-145.1319" x2="398.6767" y2="-2.6229" gradientTransform="matrix(1 0 0 -1 -124.06 234.08)">
		<stop  offset="0" style="stop-color:#808080;stop-opacity:0.25"/>
		<stop  offset="0.54" style="stop-color:#808080;stop-opacity:0.12"/>
		<stop  offset="1" style="stop-color:#808080;stop-opacity:0.1"/>
	</linearGradient>
	<path class="st0" d="M550.9,324.7c-1.1-4.4-4.6-7.7-7.2-11.4c-6.3-9.4-7-21.4-1.9-31.5c2.5-4.7,6.4-9.6,5-14.8
		c-0.9-3.5-4.1-5.8-7.2-7.7c-11.7-7-25.2-10.5-38.8-10c-16.7,0.7-33.4,7.4-49.7,4c-16-3.2-29.5-11.2-46.2-12.2
		c-12.5-0.7-24.8,0.1-37.3-1.3c-30.9-3.3-62-4.1-93-2.2c-31-1.9-62.1-1.1-93,2.2c-12.5,1.4-24.8,0.6-37.3,1.3
		c-16.7,0.9-30.2,9-46.2,12.2c-16.4,3.3-33-3.4-49.7-4c-13.6-0.5-27.1,2.9-38.8,10c-3.1,1.9-6.2,4.2-7.2,7.7c-1.4,5.1,2.5,10,5,14.8
		c5.1,10.1,4.4,22.1-1.9,31.5c-2.6,3.7-6.1,7-7.2,11.4c-2.1,8.9,6.5,16.7,14.9,20.2c23,9.6,50.9,5,71.9,18.3
		c9.4,6,17.7,15.6,28.8,16c7.5,0.2,14.4-4,21-7.6c9.9-5.5,20.2-10.2,30.8-14c9.3-3.3,19.2-6,29-4.9c15,1.7,79.8,33,109,14.5
		c20-12.7,35.6-12.8,50.6-14.5c9.8-1.1,19.7,1.6,29,4.9c10.7,3.8,21,8.5,30.8,14c6.6,3.7,13.5,7.9,21,7.6c11.2-0.4,19.4-10,28.8-16
		c21-13.4,48.9-8.7,71.9-18.3C544.4,341.3,553,333.5,550.9,324.7z"/>
	<path class="st1" d="M547.8,324.5c-1.1-4.3-4.5-7.6-7.1-11.3c-6.2-9.3-6.9-21.2-1.9-31.1c2.5-4.7,6.3-9.5,4.9-14.6
		c-0.9-3.4-4-5.8-7.1-7.6c-11.6-7-24.9-10.4-38.4-9.9c-16.5,0.7-33,7.3-49.2,4c-15.8-3.2-29.1-11.1-45.7-12.1
		c-12.3-0.7-24.6,0.1-36.9-1.2c-30.5-3.3-61.3-4-92-2.2c-30.7-1.9-61.4-1.1-92,2.2c-12.3,1.4-24.6,0.6-36.9,1.2
		c-16.5,0.9-29.9,8.9-45.7,12.1c-16.2,3.3-32.7-3.3-49.2-4c-13.5-0.5-26.8,2.9-38.4,9.9c-3,1.9-6.1,4.2-7.1,7.6
		c-1.4,5.1,2.5,9.9,4.9,14.6c5.1,9.9,4.4,21.9-1.9,31.1c-2.6,3.7-6,7-7.1,11.3c-2.2,8.8,6.3,16.5,14.7,19.9
		c22.7,9.5,50.4,4.9,71.1,18.1c9.3,5.9,17.5,15.5,28.5,15.8c7.4,0.2,14.3-3.9,20.8-7.6c9.8-5.5,20-10.1,30.5-13.8
		c9.2-3.3,18.9-5.9,28.7-4.8c14.9,1.7,79,32.6,107.8,14.3c19.8-12.5,35.2-12.6,50.1-14.3c9.7-1.1,19.5,1.5,28.7,4.8
		c10.5,3.8,20.7,8.4,30.5,13.8c6.5,3.6,13.3,7.8,20.8,7.6c11-0.4,19.2-9.9,28.5-15.8c20.8-13.2,48.4-8.6,71.1-18.1
		C541.5,341,550,333.3,547.8,324.5z"/>
	<path class="st2" d="M17.9,136.7c1.8-0.6,3.7-1.2,5.5-0.9c3.1,0.5,5.3,3.5,6.2,6.5c0.9,3,0.9,6.2,1.5,9.3c0.6,3.1,2,6.3,4.8,7.8
		s6.1,0.9,9.1,0.5c4-0.5,8.1-0.5,12.2-0.1c3.4,0.3,7.4,1.5,8.4,4.7c0.8,2.7-0.8,5.4-1.9,8c-2,4.8-2.2,10.5,0.1,15.2
		c2.3,4.7,7,8.2,9,13.1c0.6,1.2,0.7,2.6,0.5,4c-0.3,0.9-0.8,1.8-1.4,2.5c-1.5,2-3.4,3.7-4.8,5.8c-2.9,4.3-3.7,9.7-4.1,15
		c-0.3,5.1-0.3,10.3,0.1,15.4c-3.8-1.2-8-0.1-11.9-0.9c-8.4-1.7-13.6-11.6-22.1-12.2c-4-0.3-8.4,1.6-11.9-0.2
		c-1.7-1-3.1-2.5-3.8-4.3c-1.5-3.2-1.9-6.9-1-10.4c0.6-2.4,1.9-4.7,1.6-7.2c-0.2-2.1-1.5-4-2.9-5.5c-4.1-4.4-10.1-7.1-13.1-12.3
		c-2.8-5.1-2.1-11.4,1.7-15.8c1.1-1,2.1-2.1,3-3.3c1.4-2,1.9-4.5,2.1-7c0.4-5.9-0.6-12.1,1.3-17.9C7.7,141.2,13,138.5,17.9,136.7z"
		/>
	<path class="st3" d="M18,136.9c0,0,16.9,94.1,38.9,105.3"/>
	<path class="st3" d="M65.1,163c0,0-18.1,2.5-36.3,21.1"/>
	<path class="st3" d="M32,195c0,0-14-13.6-35.8-11.3"/>
	<path class="st3" d="M73.1,200.9c0,0-25.5,2.2-34.9,11.9"/>
	<path class="st3" d="M42,222c0,0-14.3-2.5-27.4,5.9"/>
	<path class="st2" d="M542.3,62.9c-2.8-1-5.9-1.9-8.8-1.4c-5,0.9-8.5,5.6-9.9,10.4c-1.5,4.8-1.4,10-2.4,14.9
		c-0.9,5-3.2,10.1-7.7,12.5c-4.5,2.4-9.7,1.4-14.7,0.9c-6.5-0.8-13-0.8-19.5-0.2c-5.5,0.5-11.8,2.4-13.4,7.6
		c-1.3,4.3,1.3,8.6,3,12.8c3.2,7.7,3.5,16.8-0.2,24.3c-3.8,7.6-11.2,13.1-14.4,21c-0.8,2-1.3,4.2-0.8,6.3c0.5,1.5,1.2,2.9,2.3,4.1
		c2.5,3.2,5.4,6,7.7,9.3c4.7,6.9,6,15.6,6.5,24c0.5,8.2,0.5,16.5-0.1,24.7c6.1-2,12.9-0.2,19.1-1.5c13.4-2.8,21.8-18.6,35.4-19.6
		c6.5-0.5,13.4,2.6,19.1-0.4c2.8-1.4,4.8-4.1,6.1-7c2.4-5.2,2.9-11,1.5-16.6c-1-3.8-3-7.6-2.6-11.5c0.3-3.4,2.4-6.4,4.7-8.8
		c6.6-7,16.3-11.3,21-19.8c4.5-7.9,3.3-18.6-2.7-25.3c-1.6-1.8-3.4-3.3-4.8-5.2c-2.3-3.2-3-7.3-3.3-11.2c-0.7-9.5,1-19.5-2.1-28.6
		C558.6,70,550.1,65.6,542.3,62.9z"/>
	<path class="st3" d="M542.1,63.1c0,0-27.1,150.8-62.4,168.8"/>
	<path class="st3" d="M466.6,104.8c0,0,29.1,4,58.1,33.9"/>
	<path class="st3" d="M519.6,156.2c0,0,22.4-21.9,57.3-18.2"/>
	<path class="st3" d="M453.8,165.7c0,0,40.8,3.5,56,19.2"/>
	<path class="st3" d="M503.6,199.5c0,0,22.9-4,44,9.5"/>
	
		<linearGradient id="SVGID_2_" gradientUnits="userSpaceOnUse" x1="268.1162" y1="71.0906" x2="268.1162" y2="378.2156" gradientTransform="matrix(1 0 0 -1 0 379)">
		<stop  offset="0" style="stop-color:#808080;stop-opacity:0.25"/>
		<stop  offset="0.54" style="stop-color:#808080;stop-opacity:0.12"/>
		<stop  offset="1" style="stop-color:#808080;stop-opacity:0.1"/>
	</linearGradient>
	<polygon class="st4" points="42.7,0.8 42.7,16.3 42.7,307.9 493.5,307.9 493.5,16.3 493.5,0.8 	"/>
	<rect x="49.4" y="14.7" class="st5" width="439.4" height="287.6"/>
	<rect x="49.4" y="1" class="st6" width="439.4" height="21.2"/>
	<circle class="st7" cx="66.1" cy="11.3" r="5.1"/>
	<circle class="st8" cx="80.2" cy="11.3" r="5.1"/>
	<circle class="st9" cx="94.3" cy="11.3" r="5.1"/>
	<rect x="66.2" y="56.1" class="st10" width="163.7" height="6.8"/>
	<rect x="66.2" y="69.7" class="st10" width="163.7" height="6.8"/>
	<rect x="66.2" y="83.4" class="st10" width="163.7" height="6.8"/>
	<rect x="122.7" y="97" class="st10" width="107.3" height="6.8"/>
	<rect x="66.2" y="110.7" class="st10" width="86.2" height="6.8"/>
	<rect x="112.7" y="124.3" class="st10" width="66.4" height="6.8"/>
	<rect x="251.7" y="103.8" class="st10" width="192.9" height="111"/>
	<rect x="274.6" y="114.4" class="st6" width="192.9" height="111"/>
	
		<linearGradient id="SVGID_3_" gradientUnits="userSpaceOnUse" x1="648.7686" y1="-116.5907" x2="648.7686" y2="133.9054" gradientTransform="matrix(1 0 0 -1 -124.06 234.08)">
		<stop  offset="0" style="stop-color:#808080;stop-opacity:0.25"/>
		<stop  offset="0.54" style="stop-color:#808080;stop-opacity:0.12"/>
		<stop  offset="1" style="stop-color:#808080;stop-opacity:0.1"/>
	</linearGradient>
	<path class="st11" d="M583.5,216.8c0.4-0.5,0.6-1.1,0.6-1.8c0,0,0,0,0,0c0,0,0-0.1,0.1-0.2v-0.1c0-0.1,0-0.1,0-0.2c0,0,0,0,0-0.1
		c0-0.1,0-0.1,0-0.2c-0.4-2.5-15.1-18.6-18.8-38.4c-0.4-2.1-1-4.2-1.8-6.3c0.1-1,0-2-0.2-3c-0.6-2.5-1.9-5.1-1.2-7.6
		c0.1-0.3,0.2-0.7,0.3-1c0.8-1.1,1.5-2.3,2.1-3.5c0.2-0.4,0.4-0.8,0.6-1.2c2.3-6-4.7-12.1-3.5-18.4c0.6-2.7,2.6-5.1,2.6-7.8
		c-0.1-3.1-3-5.6-6-6.7s-6.3-1.5-9.3-2.8c-6.5-2.9-10-9.8-15.9-13.6c-7.5-4.9-17.3-4-26.2-2.7c-0.6,0.1-1.1,0.5-1.4,1l0,0h-0.1
		c-0.1,0.2-0.1,0.4-0.2,0.6c-1.2,2.1-3.3,3.7-5.4,5.2c-2.5,1.8-5.2,3.5-6.8,6.2c-0.2,0.4-0.4,0.8-0.6,1.1c-3.3,6,0.7,8.6,5.6,10
		c-0.1,0.9-0.2,1.7-0.2,2.6c0,8.7,7.3,15.8,16.2,15.8c0.7,0,1.4,0,2.1-0.1l0.5,0.3h0.1c1.7,1.2,3.1,2.7,3.7,4.5l-5.2,4
		c0,0,0.2,0.5,0.5,1.4l-20.4,9.4c-7.7,0.4-20.3-24-20.3-24s-1.9-14-8.5-16.5c-2-0.8-2.8,0.8-2.9,3.4c-3,3.1,2,20.5,2,20.5l15.8,28
		c1.5,2.9,1.9,4.7,8.8,5.7c5.7,0.9,23.7-5.5,29.9-7.8l0.3,2.5c-0.7,1.9-1,3.9-0.9,5.9c0,4.6,2,11.2,12,16.5c0,0,10.3,13.3,9.1,25.8
		c0,0,0.5,0.5,1.3,1.2c-0.1,3.5-0.6,7.9-2.4,9.6c-0.2,0.2-0.3,0.6-0.3,0.9c-0.1,0.4,0.1,0.8,0.4,1l-13,22.7c-0.5,0.6-1,1.2-1.5,1.9
		c-2.4,3.1-5.1,5.9-8,8.5c-2.2,1.9-4.4,4-4.9,4.8c-0.7,1.2-2.4,5.2-1.7,8.5c0.9,4,1.3,8.1,1.2,12.2l-1.7,29.4
		c-0.6,3.3-1.3,6.5-2.3,9.7h-0.3c0,0-6.3,7.5-16.2,9.3s-9.6,6.8-6.6,7.5c2.9,0.7,38.7-0.7,38.7-0.7s1.4-2.6,1-5
		c11.4-1.1,27.2-3,27.2-3s2.2-5.2-1-7.5c-1.2-0.9-2.1-2.2-2.5-3.6c-0.2-0.8-0.4-1.7-0.6-2.6c0-0.5,0-0.8,0-0.8h-0.1
		c-0.6-2.8-1-5.7-0.7-7.3c0.9-4.1,3.3-28-2.6-34.8c-2.7-3.1-2.3-6.6-1.1-9.6c7.1-4.6,17-14.6,22.7-20.6c0.3,0.3,0.6,0.5,0.9,0.8
		l0.2,0.2c0,0,19.5-9.6,19.6-26.7C586.6,225,585.5,220.7,583.5,216.8z M521.1,336.9c0-0.6,0-1.2,0.1-1.9l-0.6-0.1
		c0.4-2.7,1.2-5.7,3.2-7.8c3.4-6.1,5.8-12.8,7.1-19.6l3.6,13.5c0,0,0.4,2.8,0.5,5.8h-0.1C534.8,326.8,529.8,333.9,521.1,336.9z"/>
	<path class="st12" d="M537.2,161.6c0,0-8.8,3.2-13.6,8.4c0,0-23.8,9.5-30.5,8.4c-6.7-1-7-2.8-8.4-5.6l-15.1-27.3
		c0,0-6.3-22.8,0-20.3c6.3,2.4,8.1,16.1,8.1,16.1s11.9,23.8,19.3,23.5l19.9-9.5c0,0,4.6-6.7,6.7-6.3S537.2,161.6,537.2,161.6z"/>
	<g class="st13">
		<path d="M537.2,161.6c0,0-8.8,3.2-13.6,8.4c0,0-23.8,9.5-30.5,8.4c-6.7-1-7-2.8-8.4-5.6l-15.1-27.3c0,0-6.3-22.8,0-20.3
			c6.3,2.4,8.1,16.1,8.1,16.1s11.9,23.8,19.3,23.5l19.9-9.5c0,0,4.6-6.7,6.7-6.3S537.2,161.6,537.2,161.6z"/>
	</g>
	<path class="st14" d="M522.9,148.6l-7,5.5c0,0,3.5,9.1,2.6,12.3c-0.9,3.2,14-5,14-5l-6.1-13.7L522.9,148.6z"/>
	<g class="st13">
		<path d="M522.9,148.6l-7,5.5c0,0,3.5,9.1,2.6,12.3c-0.9,3.2,14-5,14-5l-6.1-13.7L522.9,148.6z"/>
	</g>
	<path class="st12" d="M510.8,142.5c0,0,15.6,5.1,8.4,14l22.4-10.9c0,0-9.5,0.7-15.4-13.6L510.8,142.5z"/>
	<path class="st12" d="M540.2,233.9L521,268.6l13,50.4c0,0,1.4,11.2-0.7,12.3h14.7c0,0-2.8-9.9-2.1-13.3c0.9-4,3.2-27.3-2.5-34
		s2.8-15.4,2.8-15.4l16.8-26.6L540.2,233.9z"/>
	<g class="st13">
		<path d="M540.2,233.9L521,268.6l13,50.4c0,0,1.4,11.2-0.7,12.3h14.7c0,0-2.6-10-2.1-13.3s3.2-27.3-2.5-34s2.8-15.4,2.8-15.4
			l16.8-26.6L540.2,233.9z"/>
	</g>
	<path class="st15" d="M534.3,324.7c0,0-5.3,7.9-14.6,10.4c-9.3,2.5-8.5,7.4-5.7,7.8c2.8,0.5,36.6-3.6,36.6-3.6s2.1-5.1-0.9-7.3
		c-3-2.2-3-6.8-3-6.8L534.3,324.7z"/>
	<g class="st16">
		<path d="M541.3,219.9c0,0,0.8,11.4-2.2,14.4c-0.4,0.3-0.4,0.9,0,1.3c0.1,0.1,0.1,0.1,0.2,0.2l9,4.8l8.1-15.4L541.3,219.9z"/>
	</g>
	<path class="st17" d="M541.3,219.6c0,0,0.8,11.4-2.2,14.4c-0.4,0.3-0.4,0.9,0,1.3c0.1,0.1,0.1,0.1,0.2,0.2l9,4.8l8.1-15.4
		L541.3,219.6z"/>
	<g class="st16">
		<path d="M541.3,220.2c0,0,0.8,11.4-2.2,14.4c-0.4,0.3-0.4,0.9,0,1.3c0.1,0.1,0.1,0.1,0.2,0.2l9,4.8l8.1-15.4L541.3,220.2z"/>
	</g>
	<path class="st12" d="M541.6,242c0,0-5.2,3.5-16.1,17.8c-2.3,3-4.8,5.8-7.6,8.3c-2.1,1.9-4.2,3.9-4.6,4.7c-0.7,1.2-2.3,5.1-1.6,8.3
		c0.9,3.9,1.3,7.9,1.1,12l-1.6,28.7c0,0-2.1,13-4.9,14.4l14.4,2.5c0,0-1-9.1,3.2-13.6c0,0,9.8-16.8,7.4-35.7c0,0-1-8.4,8.4-13
		c9.5-4.6,28.7-26.6,28.7-26.6L541.6,242z"/>
	<path class="st15" d="M508.7,331.3c0,0-6,7.4-15.4,9.1s-9.1,6.7-6.3,7.4c2.8,0.7,36.8-0.7,36.8-0.7s2.5-4.9-0.3-7.4s-2.1-7-2.1-7
		L508.7,331.3z"/>
	<g class="st16">
		<path d="M550.4,223.4c0,0-4.3,14.4-9.7,18.5c-0.3,0.2-0.4,0.7-0.1,1c0.1,0.1,0.2,0.2,0.3,0.2c4.5,1.6,18.9,7.1,23.9,12.1l0.2,0.2
			c0,0,29.9-15.2,13.8-41.1L550.4,223.4z"/>
	</g>
	<path class="st17" d="M550.4,223.1c0,0-4.3,14.4-9.7,18.5c-0.3,0.2-0.4,0.7-0.1,1c0.1,0.1,0.2,0.2,0.3,0.2
		c4.5,1.6,18.9,7.1,23.9,12.1l0.2,0.2c0,0,29.9-15.2,13.8-41.1L550.4,223.1z"/>
	<g class="st16">
		<path d="M525.8,151.9c-2.2,1.5-4.7,2.7-7.2,3.4l2.4,21.4c0,0-5.6,12.6,10.5,21.4c0,0,9.8,13,8.7,25.2c0,0,5.2,5.6,8.7,4.2
			c3.5-1.4,0.3,0.7,1,0.4c0.7-0.3,2.1,2.8,13,0c10.9-2.8,18.6-10.1,18.2-12.6c-0.4-2.5-14.3-18.2-17.8-37.5s-24.1-33-24.1-33
			s-0.7,0.4-1.9,0.9C533.4,147.6,529.5,149.6,525.8,151.9z"/>
	</g>
	<g class="st16">
		<path d="M540.4,242.1c0,0.3,0.2,0.6,0.5,0.7c3.9,1.4,15.1,5.7,21.3,10C556.8,248.5,545.3,244,540.4,242.1z"/>
		<path d="M578.7,214l-0.6,0.2c13.8,24.1-12.2,38.6-14.4,39.8c0.4,0.3,0.7,0.6,1.1,1l0.2,0.2C564.9,255.1,594.8,239.9,578.7,214z"/>
	</g>
	<path class="st14" d="M563,227.3c-10.9,2.8-12.3-0.3-13,0c-0.7,0.3,2.5-1.7-1-0.3c-3.5,1.4-8.8-4.2-8.8-4.2c0-0.6,0.1-1.2,0.1-1.8
		c0-11.7-8.9-23.4-8.9-23.4c-16.1-8.8-10.5-21.4-10.5-21.4l-0.7-5.7l-1.8-15.7c2.6-0.8,5-2,7.2-3.5c3.7-2.3,7.6-4.4,11.6-6.1
		c1.2-0.5,1.9-0.9,1.9-0.9s20.7,13.6,24.2,32.9s17.5,35,17.9,37.5S573.8,224.5,563,227.3z"/>
	<g class="st16">
		<path d="M526.6,132.4l-15.4,10.5c2.1,0.7,4.1,1.7,6,3c5.2-0.7,8.5-4.5,10.6-9.1C526.9,135.4,527.3,134.2,526.6,132.4z"/>
	</g>
	<circle class="st12" cx="514.7" cy="130.3" r="15.4"/>
	<g class="st16">
		<path d="M565.4,225.5c-10.9,2.8-12.3-0.3-13,0c-0.7,0.3,2.5-1.7-1-0.3c-3.5,1.4-8.8-4.2-8.8-4.2c0-0.6,0.1-1.2,0.1-1.8
			c0-11.7-8.8-23.4-8.8-23.4c-16.1-8.8-10.5-21.4-10.5-21.4l-0.7-5.7l-1.7-14.8c-0.8,0.4-1.7,0.7-2.5,0.9l1.8,15.7l0.7,5.7
			c0,0-5.6,12.6,10.5,21.4c0,0,8.9,11.7,8.8,23.4c0,0.6,0,1.2-0.1,1.8c0,0,5.3,5.6,8.8,4.2c3.5-1.4,0.3,0.7,1,0.3
			c0.7-0.4,2.1,2.8,13,0c4.9-1.3,9.5-3.5,13.6-6.6C573.1,222.9,569.4,224.5,565.4,225.5z"/>
	</g>
	<path class="st12" d="M536.4,164.6c0,0-8.8,3.2-13.6,8.4c0,0-23.8,9.5-30.5,8.4c-6.7-1-7-2.8-8.4-5.6l-15.1-27.3
		c0,0-6.3-22.8,0-20.3c6.3,2.4,8.1,16.1,8.1,16.1s11.9,23.8,19.3,23.5l19.9-9.5c0,0,4.6-6.7,6.7-6.3
		C524.8,152.4,536.4,164.6,536.4,164.6z"/>
	<g class="st16">
		<path d="M524.5,151.8c0,0-7.3-0.7-9.4,8.4c-2.1,9.1,16.1,14.7,16.1,14.7l9.8-13.6L524.5,151.8z"/>
	</g>
	<path class="st14" d="M524.9,151.8c0,0-7.3-0.7-9.4,8.4c-2.1,9.1,16.1,14.7,16.1,14.7l9.8-13.6L524.9,151.8z"/>
	<g class="st16">
		<path d="M521.9,153.4c-1.1,0.6-2.2,1-3.4,1.3l0.1,0.5C519.7,154.7,520.8,154.1,521.9,153.4z"/>
		<path d="M581.2,214.7c-0.3-2.5-14.4-18.2-17.9-37.5s-24.2-32.9-24.2-32.9s-0.7,0.4-1.9,0.9c-3.1,1.4-6.2,2.9-9.2,4.6
			c2-1,4-2,6-2.9c1.2-0.5,1.9-0.9,1.9-0.9s20.7,13.6,24.2,32.9s17.5,35,17.9,37.5c0.2,1.5-2.8,5-7.7,8.1
			C577.1,221.2,581.4,216.5,581.2,214.7z"/>
	</g>
	<path class="st18" d="M529.1,151.9c0,0,9.1,4.5,10.8,13.1"/>
	<g class="st16">
		<path d="M506.9,129.4c1.4,0.3,3.1,0.8,3.8,2.1c0.5,0.9,0.4,2.1,0.9,3.1c1.3,2.4,5.1,1.6,7.4,3c4.3,2.6,1.5,10.8,5.8,13.4
			c0.8,0.5,1.8,0.7,2.6,1.1c3.7,2,3.1,7.3,2.5,11.4c-0.7,4.1,0.1,9.7,4.2,10.3c2.3,0.3,4.8-1.2,6.7,0.1c1,0.7,1.5,1.9,2.3,2.7
			c1.2,1.2,2.9,1.5,4.5,0.9c1.4-0.6,2.4-1.9,3.9-2.3c2.3-0.7,5,1.2,7.2,0.3c2.3-0.9,2.8-4.1,2.2-6.6c-0.6-2.5-1.8-5-1.2-7.4
			c0.5-2,2.2-3.6,2.9-5.6c2.1-5.8-4.5-11.8-3.3-17.9c0.5-2.6,2.5-5,2.5-7.6c-0.1-3.1-2.8-5.5-5.7-6.6s-6-1.5-8.8-2.7
			c-6.1-2.8-9.5-9.5-15.1-13.3c-2.5-1.6-5.3-2.7-8.3-3.2c-7.7-1.2-15.6,0.9-21.7,5.9c-0.6,0.4-1.1,0.9-1.7,1.3c-2.4,1.7-5,3.4-6.4,6
			C489,127.1,501.2,128.1,506.9,129.4z"/>
	</g>
	<path class="st19" d="M507.3,128.6c1.4,0.3,3.1,0.8,3.8,2.1c0.5,0.9,0.4,2.1,0.9,3.1c1.3,2.4,5.1,1.6,7.4,3
		c4.3,2.6,1.5,10.8,5.8,13.4c0.8,0.5,1.8,0.7,2.6,1.1c3.7,2,3.1,7.3,2.5,11.4s0.1,9.7,4.2,10.3c2.3,0.3,4.8-1.2,6.7,0.1
		c1,0.7,1.5,1.9,2.3,2.7c1.2,1.2,2.9,1.5,4.5,0.9c1.4-0.6,2.4-1.9,3.9-2.3c2.3-0.7,5,1.2,7.2,0.3c2.3-0.9,2.8-4.1,2.2-6.6
		s-1.8-5-1.2-7.4c0.5-2,2.2-3.6,2.9-5.6c2.1-5.8-4.5-11.8-3.3-17.9c0.5-2.6,2.5-5,2.5-7.6c-0.1-3.1-2.8-5.5-5.7-6.6s-6-1.5-8.8-2.7
		c-6.1-2.8-9.5-9.5-15.1-13.3c-2.3-1.5-4.8-2.5-7.5-3c-8-1.5-16.2,0.6-22.5,5.8c-0.5,0.4-1.1,0.9-1.7,1.2c-2.4,1.7-5,3.4-6.4,6
		C489.4,126.2,501.7,127.3,507.3,128.6z"/>
	<path class="st1" d="M382.5,225.4H274.6v-20.3C301,192.7,341.5,185.8,382.5,225.4z"/>
	<g class="st16">
		<path d="M466.2,222.5v2.9H331.7v-0.6C331.7,224.8,397.9,160.3,466.2,222.5z"/>
	</g>
	<path class="st1" d="M467.5,222.5v2.9H332.9v-0.6C332.9,224.8,399.1,160.3,467.5,222.5z"/>
	<circle class="st1" cx="296.9" cy="134.2" r="9.9"/>
	<path class="st20" d="M381.4,126.7c-1.1,0-2.4,0-3.3,0.1c-0.4,0-0.8,0.1-1.1,0.2l-5.8,2.1c4.7,0.1,9.6,0.1,14.5,0l27.1-0.2
		c2.8,0,5.7,0,8-0.2c1.5-0.1,2.7-0.3,4.1-0.4c5.1-0.5,12.6-0.4,19.3-0.3c6.7,0,14.7-0.1,17.1-0.8h-14.3c-1.5,0-3.2,0-4.5-0.1
		c-1.6-0.1-2.6-0.3-4-0.4c-2.3-0.2-5.5-0.2-8.5-0.2C413.5,126.4,397.4,126.8,381.4,126.7z"/>
	<path class="st20" d="M397.5,138.8c-0.2,0-0.5,0-0.7,0c-0.1,0-0.2,0-0.2,0l-1.2,0.5c1,0,2.1,0,3.1,0l5.9,0c0.6,0,1.2,0,1.7,0
		c0.3,0,0.6-0.1,0.9-0.1c1.1-0.1,2.7-0.1,4.2-0.1c1.2,0,2.5,0,3.7-0.2h-3.1c-0.3,0-0.7,0-1,0c-0.3,0-0.6-0.1-0.9-0.1
		c-0.5,0-1.2,0-1.9,0C404.4,138.7,400.9,138.8,397.5,138.8z"/>
	<path class="st20" d="M355.9,156.1c-0.2,0-0.5,0-0.7,0c-0.1,0-0.2,0-0.2,0l-1.2,0.5c1,0,2.1,0,3.1,0l5.9,0c0.6,0,1.2,0,1.7,0
		c0.3,0,0.6-0.1,0.9-0.1c1.1-0.1,2.7-0.1,4.2-0.1c1.2,0,2.5,0,3.7-0.2h-3.1c-0.3,0-0.7,0-1,0c-0.3,0-0.6-0.1-0.9-0.1
		c-0.5,0-1.2,0-1.9,0C362.9,156.1,359.4,156.1,355.9,156.1z"/>
	<path class="st1" d="M332.6,219.9h-4.7c0,0-1.5-51,4.7-66.7h1.2C333.8,153.2,329.7,210.9,332.6,219.9z"/>
	<path class="st1" d="M329.4,150.5c0,0-3.8,10.5-2,15.2c0,0,2.6-9.6,5.7-11.1c3.1-1.5,6.3,11.1,6.3,11.1s1.7-7.9-1.5-14.3
		c0,0,6.4,3.5,9.6,10.2c0,0,0.6-4.3-7-13.4c0,0,6.7,1.7,11.1,5.8c0,0,1.5-3.2-7.6-8.5c0,0,1.2-3.8,8.2-2c0,0,0-5-11.1-4.1
		c0,0,0-3.2,7.3-2.6c0,0,0-4.1-8.5-2.6c0,0,1.7-2.6,2.9-3.2c-1.5-0.1-2.9,0.3-4.1,1.2c0,0,0.3-5.2-4.1-7.3l-0.6,7.3
		c0,0-4.9-5.8-3.8-4.7c0.3,0.3,1.2,3.8,0.9,5.5c0,0-5-4.1-11.1,0.3c0,0,7.6,0.6,8.7,3.2c0,0-6.4-1.2-7.9-0.3c0,0,5,1.7,4.7,2.9
		c0,0-8.7,0-9.9,3.2c0,0,9,1.2,9.6,2c0,0-10.5,7.6-11.1,9.6c0,0,10.8-6.4,12.5-6.4c1.7,0-7.9,9.3-7.3,11.7
		C319.5,159.3,327.4,150,329.4,150.5z"/>
	<path class="st1" d="M390.1,218h3.6c0,0,1.1-39-3.6-51h-0.9C389.2,167,392.4,211.1,390.1,218z"/>
	<path class="st1" d="M392.6,165c0,0,2.9,8,1.6,11.6c0,0-2-7.3-4.3-8.5c-2.3-1.1-4.8,8.5-4.8,8.5s-1.3-6,1.1-10.9
		c-3.1,1.9-5.7,4.6-7.3,7.8c0,0-0.4-3.3,5.3-10.2c0,0-5.1,1.3-8.5,4.5c0,0-1.1-2.4,5.8-6.5c0,0-0.9-2.9-6.2-1.6c0,0,0-3.8,8.5-3.1
		c0,0,0-2.4-5.6-2c0,0,0-3.1,6.5-2c0,0-1.3-2-2.2-2.4c1.1-0.1,2.2,0.2,3.1,0.9c0,0-0.2-4,3.1-5.6l0.4,5.6c0,0,3.7-4.4,2.9-3.6
		c-0.5,1.3-0.8,2.8-0.7,4.2c0,0,3.8-3.1,8.5,0.2c0,0-5.8,0.4-6.7,2.4c0,0,4.9-0.9,6-0.2c0,0-3.8,1.3-3.6,2.2c0,0,6.7,0,7.6,2.4
		c0,0-6.9,0.9-7.3,1.6c0,0,8,5.8,8.5,7.3c0,0-8.2-4.9-9.6-4.9s6,7.1,5.6,8.9C400.1,171.7,394.1,164.6,392.6,165z"/>
	<path class="st1" d="M432.8,210.4h2.2c0,0,0.7-24.1-2.2-31.6h-0.6C432.2,178.8,434.1,206.1,432.8,210.4z"/>
	<path class="st1" d="M434.3,177.6c0,0,1.8,5,1,7.2c0,0-1.2-4.6-2.7-5.2s-3,5.2-3,5.2s-0.8-3.7,0.7-6.8c-1.9,1.1-3.5,2.8-4.6,4.8
		c0,0-0.3-2.1,3.3-6.3c-1.9,0.5-3.7,1.5-5.2,2.8c0,0-0.7-1.5,3.6-4c0,0-0.6-1.8-3.9-1c0,0,0-2.3,5.2-1.9c0,0,0-1.5-3.4-1.2
		c0,0,0-1.9,4-1.2c-0.4-0.6-0.8-1.1-1.4-1.5c0.7-0.1,1.4,0.1,1.9,0.6c0,0-0.1-2.5,1.9-3.4l0.3,3.4c0,0,2.3-2.7,1.8-2.2
		c-0.3,0.8-0.5,1.7-0.4,2.6c1.6-1.1,3.7-1.1,5.2,0.1c0,0-3.6,0.3-4.1,1.5c0,0,3-0.6,3.7-0.1c0,0-2.3,0.8-2.2,1.4c0,0,4.1,0,4.7,1.5
		c0,0-4.3,0.6-4.6,1c0,0,5,3.6,5.2,4.6c0,0-5.1-3-5.9-3c-0.8,0,3.7,4.4,3.4,5.5C439,181.7,435.2,177.3,434.3,177.6z"/>
</g>
</svg>
