<?xml version="1.0" encoding="utf-8"?>
<!-- Generator: Adobe Illustrator 25.0.1, SVG Export Plug-In . SVG Version: 6.00 Build 0)  -->
<svg version="1.1" id="Layer_1" xmlns="http://www.w3.org/2000/svg" xmlns:xlink="http://www.w3.org/1999/xlink" x="0px" y="0px"
	 viewBox="0 0 586 518" style="enable-background:new 0 0 586 518;" xml:space="preserve">
<style type="text/css">
	.st0{opacity:0.1;fill:#48BA13;enable-background:new    ;}
	.st1{fill:url(#SVGID_1_);}
	.st2{fill:#F8BDC5;}
	.st3{fill:#4D4D4D;}
	.st4{fill:url(#SVGID_2_);}
	.st5{fill:#48BA13;}
	.st6{fill:url(#SVGID_3_);}
	.st7{fill:#F0F5FA;}
	.st8{fill:#DEDFF7;}
	.st9{opacity:0.1;enable-background:new    ;}
	.st10{fill:#575988;}
	.st11{fill:#FFC914;}
	.st12{fill:none;stroke:#535461;stroke-width:2;stroke-miterlimit:10;}
	.st13{fill:none;stroke:#FFFFFF;stroke-miterlimit:10;}
	.st14{fill:#A8A8A8;}
	.st15{opacity:0.2;enable-background:new    ;}
</style>
<g>
	<path class="st0" d="M-0.1,275.6c1.7,19.6,12.9,37.4,19.7,56.1c9.6,26.6,10.5,55.5,2.6,82.6c-1.6,5.6-3.6,11.2-3.6,16.9
		c0,19.7,22.4,32.7,42.8,41.4c51.7,22,105.7,38.3,161,48.6c18.1,3.4,40.6,4.9,52.1-7.9c5.5-6.2,6.8-14.2,10.8-21.1
		c10.3-17.6,35.3-24.5,57.7-28.4c27.1-4.7,54.4-7.9,81.8-9.4c27.6-1.6,59-2.9,77.3-21c11.6-11.5,15-27.4,15.5-42.5
		c1.5-49.3-22-102.6,8.2-145.3c12.7-17.9,33.4-31,45.9-48.9c18.2-26,16.6-59,4.3-86.8s-34.2-51.3-55.7-74.4
		c-7.2-7.6-14.7-15.6-25.4-19.1c-11.1-3.7-23.7-2-35.7-0.3C404.8,24,348.5,32.6,303,59.8c-22.6,13.5-41.5,31-61.6,47.1
		c-43.5,34.8-94,67-151.5,80.7C43.1,198.8-4.4,229-0.1,275.6z"/>
	
		<linearGradient id="SVGID_1_" gradientUnits="userSpaceOnUse" x1="293.9976" y1="29.031" x2="293.9976" y2="355.1099" gradientTransform="matrix(1 0 0 -1 -96.51 513.57)">
		<stop  offset="0" style="stop-color:#808080;stop-opacity:0.25"/>
		<stop  offset="0.54" style="stop-color:#808080;stop-opacity:0.12"/>
		<stop  offset="1" style="stop-color:#808080;stop-opacity:0.1"/>
	</linearGradient>
	<path class="st1" d="M257.9,278.4c0.3-0.1,0.6-0.3,0.8-0.4c0,0-24-13.5-30.7-17.3c-2.4-1.4-4.7-3.1-6.9-4.8c8.3-3,20-8.4,26.2-16.5
		c0,0-1.7-1.5-4-3.6l2.4-2.8c0,0,12.6-10.1,3.9-15.4c-7-4.3-11.5,7.1-12.9,11.5l-0.5-0.6c0,0-13.5,20.7-31.8,10.4
		c-1.1-1.6-2.1-3.3-2.8-5.1c-1.4-3.5-3.6-6.5-6.4-9l-1.9-7.2l-3.3-2.7c0-3.9,0.1-8.6,0.6-12.8c0-0.3,0.1-0.5,0.1-0.8
		c6.4-2.5,10.9-8.6,10.9-15.6c0-2.5-0.6-4.9-1.7-7.1c2.6-3,4.5-7,3.9-10.5c-0.4-2.7-2.7-4.5-5.5-5.7c-2.7-1.3-5.9-2.1-8.4-2.8
		c-4.5-1.2-9.4-1.8-13.7-0.2c-7.2,2.6-11.7,5.6-17.3,10.6c-4.4,4-9.3,11-14.5,14c-5.2,3-10.4,6.9-12.4,12.4c-2.9,7.7,1.1,16,2.8,24
		c2,9,1.2,18.4-2.2,27c-3.4,8.6-9.6,17-8.1,26c1.2,6.9,6.6,12.2,13.3,15.3c3,1.5,6.2,2.5,9.4,3c5.6,0.9,11.7,0.6,16.9-1.5
		c-2.2,6.3-5.4,12.2-9.4,17.4c-3.9,4.9-3.5,7.6-0.1,7.9c-0.1,0.5-0.2,1-0.3,1.5c-1.1,5.4-1.5,14.4,0.4,28.9c4.7,36.8-5.5,48-5.5,48
		s1.1,0.4,3.1,1c-0.1,0.2-0.2,0.4-0.2,0.7c-2.2,6.1-4.2,17-0.1,31.4c4.5,15.5,5.8,22.7,6.1,25.8v0.2c-0.4,0.2-2.1,0.9-3.3,3.4
		c-1.7,3.5-1.1,7.6,1.4,10.5V481h2v-12c1.7,2,3.2,4.3,4.4,6.7c2.3,4.6,6.7,7.7,11.7,8.3c5.1,0.7,10.6,0.9,13-0.7
		c0,0,1.7-3.3-6.6-7.3l-0.1-0.1c-2.7-4-7-10.9-7.6-16.4c-0.4-3.3-1.1-6.6-2.2-9.8l0,0c-0.8-2.4-1.4-4.9-1.5-7.4
		c-0.6-7.7-1.6-24.7-0.1-28.4c1-2.5,1.6-8.8,1.9-14.4c0-0.3,0-0.5,0-0.7c8.7,1.1,17.6,1.2,26.3,0.2v3.7c0,0-3.5,11.3,3.5,27.4
		c0,0,9.6,14.6,11.8,23.3c0.1,0.2,0.1,0.5,0.2,0.7c-1.3,0.2-6.9,1.5-4.8,13.5l-0.4,15.8h2l0.4-13.9c0,0,2-3.4,8.6,3.8
		c1,1.1,1.9,2.1,2.7,3c4.8,5.4,11.8,8.3,19.1,8c4.3-0.2,8.4-0.6,10-1.7c0,0,3.9-3-5.9-4.5l-4.5-1.3h-0.2l-0.6-0.7
		c-3.4-3.9-8.4-10.5-9.7-17.2c-0.5-2.3-1.2-4.6-2.1-6.7l-3.7-8.3l-8.6-44.2c0,0,0.5-1.9,0.9-4.3c0-0.3,0.1-0.5,0.1-0.8l1.3-0.5
		c0,0,7.9-5.6-3.9-39.8c0,0-4.6-19-6.9-34.2l5.7-1.1c0,0-0.9-13.4-2.6-22.7c1.2-4.4,1.8-8.1,1.1-10c-0.6-1.7-0.9-3.4-1-5.2
		c-0.2-4-0.7-8.1-1.3-12l7.4,5.2l37.3,18c-1.4-2.9-1.7-5.4-1.2-7.3c2.7,3.9,9.9,12.6,16.2,5.4C275,283.2,262.8,279.5,257.9,278.4z"
		/>
	<path class="st2" d="M252.6,278.6c0,0,19.2,3.3,11.8,12.2c-7.4,8.9-16.3-7-16.3-7L252.6,278.6z"/>
	<path class="st3" d="M188.6,221.2c0,0,9.6,4.4,13,13.7c3.3,9.2,18.5,22.9,24.8,26.6s28.9,17,28.9,17s-9.6,3.7-4.8,14.1l-35.2-17.8
		L199.3,263L188.6,221.2z"/>
	
		<linearGradient id="SVGID_2_" gradientUnits="userSpaceOnUse" x1="334.3529" y1="340.8568" x2="334.3529" y2="623.8832" gradientTransform="matrix(0.8224 -0.5688 -0.5688 -0.8224 319.1411 755.2924)">
		<stop  offset="0" style="stop-color:#808080;stop-opacity:0.25"/>
		<stop  offset="0.54" style="stop-color:#808080;stop-opacity:0.12"/>
		<stop  offset="1" style="stop-color:#808080;stop-opacity:0.1"/>
	</linearGradient>
	<path class="st4" d="M337.9,7.9c0,0-42.4-15.5-87.5,55.4c0,0-18.9,39.5-61.3,39.4l-4.5-10.3l-8.5,3.4l114.6,261.7l8.6-2.8
		l-54-123.9c17.9-1.4,57.8-14.3,94.2-94.6c0,0,32.7-61,80.5-53.8L337.9,7.9z"/>
	<path class="st5" d="M182.2,103.8l55.5,125.6c0,0,53.8,13.1,101.5-92.1c0,0,32-59.7,78.8-52.6l-80.3-72.7c0,0-41.5-15.1-85.5,54.2
		C252.1,66,230.6,111,182.2,103.8z"/>
	
		<linearGradient id="SVGID_3_" gradientUnits="userSpaceOnUse" x1="347.6109" y1="528.4717" x2="347.6109" y2="567.5829" gradientTransform="matrix(0.8224 -0.5688 -0.5688 -0.8224 319.1411 755.2924)">
		<stop  offset="0" style="stop-color:#808080;stop-opacity:0.25"/>
		<stop  offset="0.54" style="stop-color:#808080;stop-opacity:0.12"/>
		<stop  offset="1" style="stop-color:#808080;stop-opacity:0.1"/>
	</linearGradient>
	<path class="st6" d="M313.7,109.8l-12.8-14.2c-0.8-0.9-2.2-1-3.1-0.2c0,0,0,0,0,0l-1,0.9l-5.4-6c-2.1-2.3-5.7-2.5-8-0.4
		c0,0,0,0,0,0l-7,6.3c-2.3,2.1-2.5,5.7-0.4,8c0,0,0,0,0,0l5.4,6l-1,0.9c-0.9,0.8-1,2.2-0.2,3.1c0,0,0,0,0,0l12.8,14.2
		c0.8,0.9,2.2,1,3.1,0.2c0,0,0,0,0,0l17.5-15.7C314.4,112.2,314.5,110.8,313.7,109.8C313.7,109.8,313.7,109.8,313.7,109.8z
		 M278.4,103.9c-2.1-2.3-1.9-5.9,0.4-8c0,0,0,0,0,0l3.9-3.5c2.3-2.1,5.9-1.9,8,0.4c0,0,0,0,0,0l4.4,4.9l-12.4,11.1L278.4,103.9z
		 M298.3,112l2.1,2.3c0.5,0.5,0.4,1.3-0.1,1.8c-0.5,0.5-1.3,0.4-1.8-0.1l0,0l-2.2-2.4c-1.6,0.4-3.3-0.6-3.6-2.2
		c-0.4-1.6,0.6-3.3,2.2-3.6c1.6-0.4,3.3,0.6,3.6,2.2C298.7,110.6,298.6,111.4,298.3,112L298.3,112z"/>
	<path class="st7" d="M283.8,90.8l-6.6,5.9c-2.2,2-2.4,5.4-0.4,7.6c0,0,0,0,0,0l5.6,6.3l1.4-1.3l-4.7-5.2c-2-2.2-1.8-5.6,0.4-7.6
		c0,0,0,0,0,0l3.7-3.3c2.2-2,5.6-1.8,7.6,0.4c0,0,0,0,0,0l4.7,5.2l1.4-1.3l-5.6-6.3C289.4,89,286,88.8,283.8,90.8
		C283.8,90.8,283.8,90.8,283.8,90.8z"/>
	<path class="st7" d="M297.5,96l-16.6,14.9c-0.9,0.8-0.9,2.1-0.2,3l12.1,13.5c0.8,0.9,2.1,0.9,3,0.2l16.6-14.9
		c0.9-0.8,0.9-2.1,0.2-3l-12.1-13.5C299.7,95.3,298.4,95.2,297.5,96C297.5,96,297.5,96,297.5,96z M298,111.7l2,2.2
		c0.4,0.5,0.4,1.2-0.1,1.7s-1.2,0.4-1.7-0.1l-2.1-2.3c-1.5,0.4-3.1-0.6-3.5-2.1s0.6-3.1,2.1-3.5c1.5-0.4,3.1,0.6,3.5,2.1
		C298.4,110.4,298.3,111.1,298,111.7L298,111.7z"/>
	<polygon class="st7" points="179.4,97.7 291,352.8 299.5,350.1 187.8,94.5 	"/>
	<path class="st2" d="M234.1,231.9c0,0,4.4-18.1,12.6-13s-3.7,15.2-3.7,15.2l-3.3,4.1L234.1,231.9z"/>
	<polygon class="st8" points="189.5,215.3 193.8,219 195.5,226.2 192.7,224.5 192.7,219 189.5,218.6 	"/>
	<polygon class="st9" points="189.5,215.3 193.8,219 195.5,226.2 192.7,224.5 192.7,219 189.5,218.6 	"/>
	<path class="st3" d="M202.1,288.5l2.5,31.8l7.4-1.5c0,0-1.6-25.9-4.9-30.3C203.7,284.1,202.1,288.5,202.1,288.5z"/>
	<path class="st9" d="M188.6,221.2c0,0,9.6,4.4,13,13.7c3.3,9.2,18.5,22.9,24.8,26.6s28.9,17,28.9,17s-9.6,3.7-4.8,14.1l-35.2-17.8
		L199.3,263L188.6,221.2z"/>
	<path class="st9" d="M202.1,288.5l2.5,31.8l7.4-1.5c0,0-1.6-25.9-4.9-30.3C203.7,284.1,202.1,288.5,202.1,288.5z"/>
	<path class="st2" d="M184.1,476.9l-11.8,1.8l-6.7-5.2l-4.8-15.2v-5.6c0-0.7,0-1.3-0.1-2c-0.4-3-1.6-10.1-5.8-25.4
		c-3.9-14.2-2-24.9,0.1-30.9c0.6-2,1.5-3.9,2.5-5.7h15.9c0,0-0.1,4.4-0.4,9.5c-0.3,5.4-0.9,11.7-1.8,14.2c-1.4,3.7-0.4,20.4,0.1,28
		c0.2,2.5,0.7,4.9,1.4,7.3l0,0c1,3.1,1.7,6.4,2,9.7c0.6,5.4,4.6,12.2,7.2,16.2C183.2,475.7,184.1,476.9,184.1,476.9z"/>
	<path class="st2" d="M240.4,477.3l-5.2,1.5l-10-4.1l-12.6-13.3V454c-0.1-0.9-0.2-1.7-0.4-2.5c-2-8.5-11-23-11-23
		c-6.7-15.9-3.3-27-3.3-27v-11.5c0,0,17.4-5.9,18.1-3.7c0.4,1.2-0.1,4.9-0.6,7.9c-0.4,2.3-0.8,4.3-0.8,4.3l8.1,43.7l3.5,8.1
		c0.9,2.1,1.6,4.3,2,6.6c1.2,6.6,5.9,13.1,9.1,16.9C239,476,240.4,477.3,240.4,477.3z"/>
	<path class="st9" d="M184.1,476.9l-11.8,1.8l-6.7-5.2l-4.8-15.2v-5.6c0-0.7,0-1.3-0.1-2c0.2-0.1,0.3-0.2,0.5-0.2
		c0,0,1.5,5.6,0.7,8.1c-0.6,2.1,4.5,9.8,6.5,12.8c1,1.6,2.5,2.7,4.3,3.4c4,1.4,7.9-0.5,9.2-1.2C183.2,475.7,184.1,476.9,184.1,476.9
		z"/>
	<path class="st10" d="M182,473.8c0,0-4.7,3.3-9.6,1.5c-1.7-0.6-3.2-1.8-4.3-3.4c-2.1-3-7.1-10.8-6.5-12.8c0.7-2.6-0.7-8.1-0.7-8.1
		s-1.9,0.6-3.2,3.4c-1.6,3.4-1.1,7.4,1.3,10.3v14h1.8v-11.8c1.6,2,3,4.2,4.1,6.6c2.1,4.4,6.2,7.5,11,8.2c4.8,0.7,10,0.9,12.2-0.7
		C188.2,481,189.8,477.7,182,473.8z"/>
	<path class="st9" d="M240.4,477.3l-5.2,1.5l-10-4.1l-12.6-13.3V454c-0.1-0.9-0.2-1.7-0.4-2.5c0.1,0,0.3,0,0.4,0
		c0,1.9,3.3,6.5,5.6,9.5c1.2,1.6,2.3,3.2,3.4,4.9c4.8,7.7,13.1,8.1,15.6,8.1C239,476,240.4,477.3,240.4,477.3z"/>
	<path class="st10" d="M212.6,452.1c0,0-7,0-4.8,13.3l-0.4,15.5h1.8l0.4-13.7c0,0,1.8-3.3,8.1,3.7c1,1.1,1.8,2.1,2.6,3
		c4.5,5.3,11.1,8.2,18,7.9c4-0.2,7.9-0.6,9.4-1.7c0,0,3.7-3-5.6-4.4l-4.3-1.3c0,0-10.7,1.2-16.4-8.1c-1-1.7-2.2-3.3-3.4-4.9
		C215.9,458.6,212.6,454,212.6,452.1z"/>
	<path class="st9" d="M157.5,388.8h15.9c0,0-0.1,4.4-0.4,9.5c-6.1-0.8-12.1-2.1-18-3.8C155.6,392.5,156.5,390.6,157.5,388.8z"/>
	<path class="st9" d="M215.3,394.2c-5.6,2.2-11.5,3.6-17.5,4.3v-8.6c0,0,17.4-5.9,18.1-3.7C216.4,387.5,215.9,391.2,215.3,394.2z"/>
	<path class="st3" d="M216.7,392.9c-30.3,12.6-64.4,0-64.4,0s9.6-11.1,5.2-47.4c-1.7-14.4-1.4-23.2-0.4-28.6
		c1.6-8.2,4.8-8.4,4.8-8.4l43.7-5.2c-0.4,1.5-0.4,4-0.2,7.1c1,14.7,7.6,43.2,7.6,43.2C224.1,387.4,216.7,392.9,216.7,392.9z"/>
	<path class="st2" d="M193.4,194.6c-1.1,1.7-1.8,5.1-2.2,9.1c-0.9,9.1-0.4,20.8-0.4,20.8s-22.6,12.2-17.4-3.7
		c3-9.8,2.1-20.4-2.6-29.6C170.8,191.2,197.1,189,193.4,194.6z"/>
	<path class="st9" d="M193.4,194.6c-1.1,1.7-1.8,5.1-2.2,9.1c-5.7,2.3-12.1,1.3-16.9-2.6c-0.7-3.4-1.9-6.8-3.5-9.9
		C170.8,191.2,197.1,189,193.4,194.6z"/>
	<circle class="st2" cx="184.9" cy="187.5" r="16.7"/>
	<path class="st9" d="M205.4,310.4c-2,5.6-3.9,9.9-3.9,9.9s-17.4-14.8-30.7-7.8c-6.3,3.3-11.1,4.7-13.7,4.4c1.6-8.2,4.8-8.4,4.8-8.4
		l43.7-5.2C205.2,304.8,205.2,307.3,205.4,310.4z"/>
	<path class="st3" d="M201.5,318.9c0,0-17.4-14.8-30.7-7.8c-13.3,7-20,5.6-13.3-3.3c6.7-8.9,15.5-27.8,8.9-41.8
		c-6.7-14.1-9.3-36.3-4.1-42.2c5.2-5.9,10-12.6,10-14.1c0,0,18.9,13.7,22.6,19.2c1.1,1.6,2.8,5.7,4.7,10.7c1,2.7,2.1,5.7,3.2,8.7
		c1.7,4.7,3.1,9.5,4.1,14.4c1.3,6.2,2.2,12.5,2.5,18.9c0.1,1.8,0.4,3.5,0.9,5.2C212.6,292.6,201.5,318.9,201.5,318.9z"/>
	<path class="st8" d="M193.8,219.4l-0.4,7.7L172,210.8c0,0-0.4-3.3,5.1,0.1C182.7,214.2,193.8,219.4,193.8,219.4z"/>
	<path class="st9" d="M207,262.6c-19.5,0.4-41.7-21.5-41.7-21.5c-7.8-20.7,18.5-16.3,18.5-16.3s2.2,5.6,15.8,14.7
		c1,2.7,2.1,5.7,3.2,8.7C204.5,253,205.9,257.8,207,262.6z"/>
	<path class="st3" d="M165.3,238.6c0,0,25.2,24.8,45.5,21.1c0,0,24.1-5.9,33.7-19.2c0,0-6.3-5.6-10.4-10.7c0,0-13,20.7-30.3,10
		s-20-17.4-20-17.4S157.5,217.9,165.3,238.6z"/>
	<path class="st9" d="M191.3,162.2c-4.2-1.2-8.8-1.7-12.9-0.2c-6.8,2.6-11,5.5-16.3,10.5c-4.2,3.9-8.8,10.8-13.7,13.8
		s-9.7,6.8-11.6,12.2c-2.7,7.6,1,15.8,2.7,23.7c1.9,8.9,1.1,18.1-2.1,26.6c-3.2,8.5-9,16.7-7.6,25.7c1.5,9.6,11.1,16.1,20.7,17.7
		c6.5,1.1,13.5,0.4,19.1-3.2c1.6-0.9,2.9-2.2,3.8-3.8c2.4-4.1,0.8-9.2-0.6-13.7c-3-9.2-5.3-18.5-7.7-27.9
		c-1.4-5.5-2.7-11.3-0.8-16.6c1.9-5.2,6.6-8.8,11.6-11.2c1.9-0.9,4-1.8,5.5-3.4c0.8-0.9,1.4-2,1.8-3.1c2.5-6.6-0.3-15.2,4.5-20.4
		c2.4-2.7,6.2-3.6,9.2-5.6c3.8-2.5,7.6-8.4,6.8-13.2C202.9,165.1,195.7,163.4,191.3,162.2z"/>
	<path class="st11" d="M190.6,161.8c-4.2-1.2-8.8-1.7-12.9-0.2c-6.8,2.6-11,5.5-16.3,10.5c-4.2,3.9-8.8,10.8-13.7,13.8
		c-4.9,3-9.7,6.8-11.6,12.2c-2.7,7.6,1,15.8,2.7,23.7c1.9,8.9,1.1,18.1-2.1,26.6c-3.2,8.5-9,16.7-7.6,25.7
		c1.5,9.6,11.1,16.1,20.7,17.7c6.5,1.1,13.5,0.4,19.1-3.2c1.6-0.9,2.9-2.2,3.8-3.8c2.4-4.1,0.8-9.2-0.6-13.7
		c-3-9.2-5.3-18.5-7.7-27.9c-1.4-5.5-2.7-11.3-0.8-16.6c1.9-5.2,6.6-8.8,11.6-11.2c1.9-0.9,4-1.8,5.5-3.4c0.8-0.9,1.4-2,1.8-3.1
		c2.5-6.6-0.3-15.2,4.5-20.4c2.4-2.7,6.2-3.6,9.2-5.6c3.8-2.5,7.6-8.4,6.8-13.2C202.1,164.7,195,163,190.6,161.8z"/>
	<path class="st12" d="M65.1,402.5c0,0-7.7-26.2,1.4-45.4c3.9-8.1,5.1-17.2,3.3-25.9c-0.8-4.2-2.1-8.2-3.7-12.2"/>
	<path class="st5" d="M71.9,306.7c0,3.2-5.8,12.5-5.8,12.5s-5.8-9.3-5.8-12.5c0-3.2,2.6-5.8,5.8-5.8
		C69.3,300.9,71.9,303.5,71.9,306.7z"/>
	<path class="st5" d="M81.5,324.5c-1.7,2.7-11.7,7.3-11.7,7.3s0.2-11,1.9-13.7c1.9-2.6,5.5-3.2,8.1-1.4
		C82.3,318.6,83,321.9,81.5,324.5z"/>
	<path class="st5" d="M81.1,354.9c-2.9,1.4-13.8,0.4-13.8,0.4s5.7-9.4,8.6-10.8c2.9-1.3,6.4,0,7.7,2.9
		C84.8,350.1,83.7,353.4,81.1,354.9L81.1,354.9z"/>
	<path class="st5" d="M75.6,377.8c-2.6,1.9-13.5,2.8-13.5,2.8s4-10.2,6.6-12.1c2.7-1.8,6.3-1.1,8.1,1.6
		C78.4,372.5,77.9,375.9,75.6,377.8z"/>
	<path class="st5" d="M57.6,332.5c2.3,2.2,13,4.6,13,4.6s-2.6-10.6-4.9-12.9c-2.2-2.4-5.9-2.5-8.2-0.3c-2.4,2.2-2.5,5.9-0.3,8.2
		C57.3,332.2,57.5,332.3,57.6,332.5z"/>
	<path class="st5" d="M51.6,359.3c2.9,1.4,13.8,0.4,13.8,0.4s-5.7-9.4-8.6-10.8c-2.8-1.6-6.3-0.6-7.9,2.2c-1.6,2.8-0.6,6.3,2.2,7.9
		C51.3,359.2,51.4,359.3,51.6,359.3L51.6,359.3z"/>
	<path class="st5" d="M49.2,386.3c2.6,1.9,13.5,2.8,13.5,2.8s-4-10.2-6.6-12.1c-2.7-1.8-6.3-1.1-8.1,1.6
		C46.4,381,46.9,384.4,49.2,386.3z"/>
	<path class="st5" d="M279.4,477.1c1.1-0.9,1.8-2,2.2-3.4c0.3-1.3-0.3-2.9-1.6-3.4c-1.4-0.5-3,0.4-4.1,1.4c-1.2,1-2.5,2.1-4,1.9
		c1.6-1.4,2.3-3.6,1.9-5.7c-0.1-0.4-0.2-0.8-0.5-1.2c-0.8-0.8-2.2-0.5-3.2,0.2c-3,2.1-3.9,6.2-3.9,9.9c-0.3-1.3,0-2.7-0.1-4.1
		c0-1.3-0.4-2.9-1.5-3.6c-0.7-0.4-1.5-0.6-2.3-0.6c-1.4-0.1-2.9,0.1-3.8,1.1c-1.2,1.2-0.9,3.3,0.2,4.7c1,1.3,2.5,2.2,3.9,3.2
		c1.1,0.7,2.1,1.6,2.8,2.7c0.1,0.2,0.2,0.3,0.2,0.5h8.5C276,479.8,277.8,478.6,279.4,477.1z"/>
	<path class="st5" d="M393.8,255.6c0,0-24.3,24.3-10.6,60.4s-23.5,96.1-23.5,96.1s0.4-0.1,1.2-0.2c50-8.8,74.8-66,47-108.4
		C397.5,287.8,389,269.3,393.8,255.6z"/>
	<path class="st13" d="M393.8,255.6c0,0-13.7,29.8,0,54.2s2.3,92.6-34.1,102.4"/>
	<path class="st5" d="M437.1,354c0,0-27.8-4.4-30.3,20.5c-2.5,24.9-53.4,28.3-53.4,28.3l1,0.6c42,27.6,82.1,17.6,76.1-19
		C428.2,370.8,428.4,357.1,437.1,354z"/>
	<path class="st13" d="M437.1,354c0,0-21.6,4.7-19.8,24.3s-32,43.1-63.9,24.5"/>
	<path class="st14" d="M47.7,401c0,0,13-0.4,17-3.2c3.9-2.8,20-6.1,21-1.7s19.6,22.3,4.8,22.4s-34.2-2.3-38.1-4.7
		C48.6,411.5,47.7,401,47.7,401z"/>
	<path class="st15" d="M90.9,417c-14.7,0.1-34.2-2.3-38.1-4.7c-3-1.8-4.2-8.3-4.6-11.4h-0.4c0,0,0.8,10.5,4.7,12.9
		c3.9,2.4,23.4,4.8,38.1,4.7c4.2,0,5.7-1.5,5.6-3.8C95.6,416.1,94,417,90.9,417z"/>
	<path class="st9" d="M393.8,256c0,0-24.3,24.3-10.6,60.4s-23.5,96.1-23.5,96.1s0.4-0.1,1.2-0.2c49.9-8.8,74.8-66,47-108.4
		C397.5,288.2,389,269.7,393.8,256z"/>
	<path class="st14" d="M412.7,403.7c0,0-21.9-4.4-27.7-10.2s-32.1-16-35-8.7c-2.9,7.3-39.4,32-14.6,36.4c24.8,4.4,58.3,5.8,65.6,2.9
		S412.7,403.7,412.7,403.7z"/>
	<path class="st15" d="M335.4,418.5c24.8,4.4,58.3,5.8,65.6,2.9c5.6-2.2,9.4-12.9,10.9-17.9l0.7,0.2c0,0-4.4,17.5-11.7,20.4
		c-7.3,2.9-40.8,1.5-65.6-2.9c-7.2-1.3-9.2-4.2-8.4-8C327.6,415.7,330.1,417.6,335.4,418.5z"/>
</g>
</svg>
