<?xml version="1.0" encoding="utf-8"?>
<!-- Generator: Adobe Illustrator 25.0.1, SVG Export Plug-In . SVG Version: 6.00 Build 0)  -->
<svg version="1.1" id="Layer_1" xmlns="http://www.w3.org/2000/svg" xmlns:xlink="http://www.w3.org/1999/xlink" x="0px" y="0px"
	 viewBox="0 0 500 300" style="enable-background:new 0 0 500 300;" xml:space="preserve">
<style type="text/css">
	.st0{opacity:0.1;fill:#48BA13;}
	.st1{fill:#FFC914;}
	.st2{opacity:0.1;enable-background:new    ;}
	.st3{opacity:0.5;}
	.st4{fill:#D0D2D5;}
	.st5{fill:#3F3D56;}
	.st6{fill:url(#SVGID_1_);}
	.st7{fill:#FBBEBE;}
	.st8{fill:#F86D70;}
	.st9{fill:#434175;}
	.st10{fill:#46543C;}
	.st11{fill:none;stroke:#333F2A;stroke-width:12;stroke-miterlimit:10;}
	.st12{fill:#333F2A;}
	.st13{fill:#10160C;}
	.st14{fill:#999999;}
	.st15{fill:url(#SVGID_2_);}
	.st16{fill:#333333;}
	.st17{opacity:0.1;}
	.st18{fill:#48BA13;}
</style>
<g>
	<path class="st0" d="M213.2,42.2c-23.3-0.8-45.6-8.3-66.8-16.6c-21.2-8.2-42.2-17.4-65-21.7C66.7,1.1,49.9,0.7,38.1,8.6
		c-11.4,7.6-15,20.6-17,32.7c-1.5,9.1-2.4,18.7,1.7,27.2c2.8,5.9,7.8,10.9,11.3,16.6c12.1,19.7,3.5,44.1-9.5,63.3
		c-6.1,9-13.3,17.7-18,27.3c-4.7,9.6-6.9,20.6-2.8,30.5c4.1,9.7,13.9,17,24.5,22.2c21.5,10.4,46.9,13.4,71.6,15.1
		c54.8,3.7,109.8,2.1,164.7,0.5c20.3-0.6,40.7-1.2,60.7-4.4c11.1-1.7,22.6-4.5,30.6-11.2c10.2-8.5,12.8-22.9,5.9-33.5
		c-11.5-17.8-43.3-22.3-51.3-41.4c-4.4-10.5,0.1-22.3,6.5-32.1c13.8-21,36.9-39.4,38.1-63.3c0.8-16.5-10.3-33-27.5-40.7
		c-18-8.2-43-7.1-56.3,6.4C257.8,37.6,233.8,43,213.2,42.2z"/>
	<path class="st1" d="M365,20.3c1.2,1.1,2.1,2.4,2.9,3.8c1.3,2.3,2.2,5.1,4.2,6.8c0.5,0.5,1.1,0.9,1.7,1.2c0.5,0.3,1,0.6,1.5,0.8
		c1.8,0.4,3.8-0.2,5.6-0.8c1.7-0.6,3.4-1.4,5.1-2.3c0,0.7,0.2,1.5,0.6,2.1c0.4,0.6,1.3,0.9,1.9,0.6c-1.6,0.7-3,1.6-4.4,2.7
		c-0.5,0.4-1,0.9-1.6,1.3c-2,1.4-4.8,1.6-6.6,3.2c-0.6,0.5-1.4,0.6-2.1,0.2c-0.6-0.4-1.1-1-1.6-1.6c-1-1-2.5-1.7-3.5-2.7
		c-0.5-0.5-0.9-1.1-1.3-1.6c-0.7-0.7-1.6-1.1-2.2-1.9c-0.5-0.6-0.8-1.2-1.2-1.8c-0.4-0.5-0.8-1-1.2-1.5c-0.8-1.3-0.8-3-0.3-4.5
		C363,23,364.1,21.6,365,20.3z"/>
	<path class="st1" d="M419.4,187.4c-0.8,1.2-1.6,2.5-2.3,3.8c-0.5,0.9-0.9,1.8-1.2,2.7c-0.4,1.5-0.4,3.1-0.8,4.7
		c-0.4,1.8-1.3,3.6-1.3,5.4c0.1,1.6,0.6,3.2,1.6,4.5c1,1.3,2.1,2.4,3.4,3.5c2.9-7.4,4.5-15.3,4.7-23.3c0-1.1,0-2.2-0.4-3.3
		c-0.3-0.6-1.4-2.4-2.2-1.7c-0.3,0.3-0.3,1.4-0.5,1.8C420.2,186.2,419.9,186.8,419.4,187.4z"/>
	<path class="st2" d="M365,20.3c1.2,1.1,2.1,2.4,2.9,3.8c1.3,2.3,2.2,5.1,4.2,6.8c0.5,0.5,1.1,0.9,1.7,1.2c0.5,0.3,1,0.6,1.5,0.8
		c1.8,0.4,3.8-0.2,5.6-0.8c1.7-0.6,3.4-1.4,5.1-2.3c0,0.7,0.2,1.5,0.6,2.1c0.4,0.6,1.3,0.9,1.9,0.6c-1.6,0.7-3,1.6-4.4,2.7
		c-0.5,0.4-1,0.9-1.6,1.3c-2,1.4-4.8,1.6-6.6,3.2c-0.6,0.5-1.4,0.6-2.1,0.2c-0.6-0.4-1.1-1-1.6-1.6c-1-1-2.5-1.7-3.5-2.7
		c-0.5-0.5-0.9-1.1-1.3-1.6c-0.7-0.7-1.6-1.1-2.2-1.9c-0.5-0.6-0.8-1.2-1.2-1.8c-0.4-0.5-0.8-1-1.2-1.5c-0.8-1.3-0.8-3-0.3-4.5
		C363,23,364.1,21.6,365,20.3z"/>
	<path class="st2" d="M419.4,187.4c-0.8,1.2-1.6,2.5-2.3,3.8c-0.5,0.9-0.9,1.8-1.2,2.7c-0.4,1.5-0.4,3.1-0.8,4.7
		c-0.4,1.8-1.3,3.6-1.3,5.4c0.1,1.6,0.6,3.2,1.6,4.5c1,1.3,2.1,2.4,3.4,3.5c2.9-7.4,4.5-15.3,4.7-23.3c0-1.1,0-2.2-0.4-3.3
		c-0.3-0.6-1.4-2.4-2.2-1.7c-0.3,0.3-0.3,1.4-0.5,1.8C420.2,186.2,419.9,186.8,419.4,187.4z"/>
	<g class="st3">
		<path class="st4" d="M454.3,139.4h40.2c3,0,5.4,2.4,5.4,5.4V185c0,3-2.4,5.4-5.4,5.4h-40.2c-3,0-5.4-2.4-5.4-5.4v-40.2
			C449,141.8,451.4,139.4,454.3,139.4z"/>
		<path class="st2" d="M467.2,154.1h14.5c0,0,12.2,10.6,0,21.7h-14.5C467.2,175.7,455.1,165.9,467.2,154.1z"/>
		<rect x="468.7" y="160.2" class="st5" width="1.9" height="5.7"/>
		<rect x="478.3" y="159.4" class="st5" width="1.9" height="6.8"/>
		<path class="st5" d="M474.4,169.3L474.4,169.3c1.3,0,2.3,1,2.3,2.3v1.9l0,0h-4.6l0,0v-1.9C472.2,170.3,473.2,169.3,474.4,169.3z"
			/>
	</g>
	
		<linearGradient id="SVGID_1_" gradientUnits="userSpaceOnUse" x1="2685.7771" y1="418.3432" x2="2685.7771" y2="535.2389" gradientTransform="matrix(0.51 0.86 0.86 -0.51 -1437.49 -2017.4199)">
		<stop  offset="0" style="stop-color:#808080;stop-opacity:0.25"/>
		<stop  offset="0.54" style="stop-color:#808080;stop-opacity:0.12"/>
		<stop  offset="1" style="stop-color:#808080;stop-opacity:0.1"/>
	</linearGradient>
	<path class="st6" d="M320,90.3c1.2,0,2.4,0.1,3.6,0c1.1-0.1,2.2-0.2,3.3-0.3c1.9-0.2,3.8-0.2,5.7-0.3c1.2-0.1,2.5-0.2,3.6-0.9
		c0.9-0.7,1.5-1.8,2.3-2.6c3.4-3.3,5.8-7.7,8.8-11.3c0.8-0.9,1.6-1.9,2.2-2.8c1.3-1.9,2.3-4.1,3.2-6.2c0.4-0.8,0.7-1.6,0.9-2.4
		c0.2-0.7,0.3-1.4,0.5-2c0.5-1.3,1.6-2.5,1.7-3.9l-0.2,0c1.4-1.8,1.2-4.8,1.9-7.1c0.4-1.3,1-2.6,1.6-3.9l2.5-5.5
		c0.4-1,0.9-1.9,1.7-2.7c0.9-0.9,2.2-1.3,3.1-2.2c0.5-0.5,1-1.2,1.2-1.9l0.1,0.1c0.5,0.5,0.9,1.1,1.3,1.5c1,1.1,2.4,1.7,3.5,2.7
		c0.5,0.5,1,1.2,1.6,1.6c0.7,0.4,1.5,0.3,2.1-0.3c1.9-1.6,4.7-1.8,6.7-3.2c0.6-0.4,1-0.9,1.6-1.3c1.3-1,2.6-1.9,4.1-2.5
		c0.8,0,1.7,0.1,2.5,0.4c1.2,0.3,2.3,0.9,3.5,0.8c1.1-0.1,2.1-0.5,3-1.1c0.6-0.5,1.2-1.1,1.3-1.9c0-0.8-0.3-1.6-0.9-2.1
		c-0.1-0.1-0.2-0.1-0.3-0.2c-0.1-0.7-0.4-1.3-0.9-1.8c-0.6-0.5-1.3-0.8-2.1-1.1c-0.4-0.2-0.9-0.3-1.3-0.3c-0.7,0-1.4,0.2-2,0.5
		c-1.3,0.4-2.6,0.7-4,0.8c-0.2,0-0.7,0-1.1,0l-0.1-0.4c-1.6,0.7-3.4,0.1-5.2,0.1c-0.8,0-1.7,0.1-2.5,0.2c-0.9,0-1.9,0-2.8-0.1
		l-2.8-0.2c-1.2-0.1-2.4-0.2-3.6-0.4c-0.3-0.6-0.6-1.3-1-1.9c-0.6-1-1.3-2-2.1-2.9c0.3-0.3,0.7-0.5,1-0.8l0.1,0
		c0.1,0,0.2-0.1,0.3-0.2c3.6,1.7,7.9,0.2,9.6-3.4c0.5-1,0.7-2,0.7-3.1c0.2-0.1,0.4-0.2,0.6-0.3c0.1-0.1,0.2-0.1,0.3-0.2l0.2-0.1
		c0.1-0.1,0.2-0.2,0.3-0.3c0,0,0.1-0.1,0.1-0.1c0.1-0.1,0.2-0.2,0.2-0.3l0,0c0,0,0-0.1,0.1-0.1c0,0,0,0,0-0.1c0,0,0-0.1,0-0.1
		c0,0,0,0,0-0.1l0-0.1c0,0,0,0,0-0.1c0,0,0-0.1,0-0.1v-0.1c0,0,0-0.1,0-0.1c0,0,0-0.1,0-0.1c0,0,0-0.1,0-0.1c0,0,0-0.1,0-0.1v-0.1
		c0,0,0-0.1,0-0.1c0,0,0-0.1,0-0.1V11v-0.1c0,0,0-0.1,0-0.1c0,0,0,0,0-0.1c0,0,0-0.1,0-0.1c0,0,0,0,0-0.1c0,0,0-0.1,0-0.1v-0.1
		l0-0.1v0c0,0,0-0.1,0-0.1v0l0-0.1v0c0-0.1,0-0.1-0.1-0.2c-0.3-0.8-0.6-1.6-0.9-2.4c-0.2-0.7-0.6-1.3-1.1-1.8
		c-0.7-0.7-1.6-1.1-2.4-1.6c-1-0.7-1.7-1.6-2.5-2.5s-1.8-1.6-2.9-1.7c-0.9-0.1-1.8,0.1-2.7,0.5c-7,2.6-12.7,7.7-19,11.7
		c-2.4,1.6-5.2,3-8.1,2.8l2.5,4c0.1,0.2,0.2,0.4,0.4,0.6c0.1,0.2,0.3,0.4,0.4,0.6c0.4,0.5,0.8,0.9,1.3,1.2c0.1,0.1,0.3,0.1,0.4,0.2
		c0.1,0,0.3,0.1,0.4,0.1c0.9,0.2,1.9,0,2.8-0.1c0.3-0.1,0.6-0.1,0.9-0.2l0.4-0.1h0.1c0,0,0,0,0,0.1c-0.2,0.4-0.4,0.7-0.6,1.1
		c-0.6,1.4-1,2.8-1.4,4.2c-0.7,2.9-1.4,5.8-1.3,8.7c0.1,1,0.2,2-0.1,3c-0.1,0.5-0.4,0.9-0.3,1.4c0.1,0.3,0.3,0.5,0.3,0.8
		c0.1,0.4-0.3,0.8-0.5,1.2c-0.3,0.4-0.4,0.9,0,1.2c-0.7,0.3-1.3,0.9-1.4,1.7c0,0.2,0,0.4-0.1,0.7c-0.1,0.1-0.2,0.3-0.4,0.4
		c-0.4,0.3-0.6,0.8-0.7,1.3c-0.7,0-1.4,0.7-2,1.1c-0.6,0.3-1.2,0.5-1.8,0.7c-1.8,0.6-3.4,1.8-4.9,3.1c-0.8,0.7-1.6,1.5-2,2.5
		c-0.1,0.3-0.2,0.7-0.3,1c-0.2,0.6-0.5,1.2-0.9,1.8c-0.7,1.1-1.6,2.1-2.7,3c-0.5,0.4-1,0.9-1.4,1.5c-0.6,0.8-1.8,1.1-2.4,1.9
		c-0.2,0.4-0.5,0.8-0.8,1.1c-0.5,0.5-1.2,0.5-1.8,0.8c-1.4,0.6-2.1,2.3-3.4,3.2c-0.1,0.1-0.2,0.1-0.3,0.1c-0.1,0-0.2-0.1-0.3-0.2
		c-0.2-0.1-0.4,0-0.7,0c-0.2,0.1-0.5,0-0.6-0.2c-3.1-1.9-6.1-3.9-9.3-5.8l-1.4-0.9l-7.6-4.6c-0.2-0.1-0.4-0.1-0.6,0l-0.2,0.2
		c-0.4-0.4-0.8-0.8-1.1-1.1c-0.1-0.1-0.2-0.2-0.3-0.3c0.1,0,0.1,0,0.2,0c0.2-0.1,0.2-0.3,0.2-0.5c-0.1-0.2-0.2-0.3-0.3-0.4
		c-0.3-0.3-0.6-0.7-0.9-1c-0.3-0.5-0.6-0.9-1-1.3c-0.4-0.4-0.9-0.6-1.5-0.6c-0.3,0.1-0.6,0.2-0.9,0.3c-1,0.6-2,1.3-2.9,2.2
		c-0.1,0.1-0.1,0.1-0.1,0.2c0,0.1,0.1,0.1,0.1,0.2c0,0.1,0,0.1-0.1,0.2c-0.5,0.6-1.1,1.2-1.8,1.6c-1,0.7-1.9,1.5-2.8,2.3
		c-0.6,0.4-1,1-1.3,1.6c-0.2,0.8-0.1,1.6,0.2,2.2c0.6,1.5,1.7,2.7,2.8,3.9c0.2,0.2,0.4,0.4,0.7,0.5c0.2,0,0.5,0,0.7-0.2
		c0.7-0.4,0.8-1.4,0.8-2.2c0-0.4,0-0.7,0.1-1.1c0-0.1,0-0.1,0-0.2c0.1-0.1,0.1-0.1,0.2-0.2l1-0.6c0,0-0.1-0.1-0.1-0.1
		c0.8-0.3,1.6-0.4,2.5-0.2c0.6,0.2,1.1,0.5,1.6,0.7c-0.1,0.7,0,1.4,0.4,2.1c2,0.2,3.7,1.1,5.5,1.9c1.4,0.7,2.8,1.5,4.1,2.3
		c1.1,0.7,2.1,1.4,3.2,2.2c1.5,1.1,2.9,2.2,4.3,3.4c0.9,0.8,1.9,1.5,2.9,2.1c2.7,1.5,6.4,1.6,8.9-0.3c3.2-2.4,7.2-3.7,10.6-5.8
		c1-0.6,1.9-1.3,2.8-2.1c0,0.1,0,0.2,0,0.3c-0.2,0.9-1,1.6-1.3,2.6c-0.2,0.8-0.2,1.6-0.6,2.3c-0.4,0.5-1,0.8-1,1.4
		c0,0.2,0,0.3,0,0.5c0,0.2-0.1,0.4-0.2,0.6c-0.4,0.9-0.8,1.8-1.6,2.3c-0.3,0.2-0.7,0.4-0.8,0.8c0,0.1,0,0.2-0.1,0.3
		c-0.1,0.2-0.4,0.1-0.6,0.2c-0.3,0.1-0.3,0.5-0.4,0.8c-0.2,0.5-0.7,0.8-1.2,0.7c-2.6-0.3-5.1,0.9-7.8,0.8c-0.9,0-1.8-0.1-2.7-0.1
		c-2.8,0-5.5,0.8-8.2,1.5c-0.3,0.5-0.5,1.1-0.5,1.7c-0.9,0.2-1.9,0.3-2.8,0.1c-0.2,0-0.5-0.1-0.7-0.1c0.1-0.2,0.1-0.4,0.1-0.5
		c-1.1,0.3-2.1,0.8-3.1,1.4c-0.7,0.4-1.3,0.9-1.4,1.7c0,0.3,0,0.6,0.1,0.9l0.4,1.3c0,0.2,0.2,0.5,0.3,0.7c0.1,0.1,0.3,0.2,0.4,0.3
		c0.1,0.1,0.2,0.3,0.2,0.5l0.3,1.2c0.1,0.4,0.2,0.8,0.2,1.2c0,0.4,0,0.7,0,1.1c0,0.6,0.1,1.2,0.3,1.8l0.4,2.1
		c0.1,0.6,0.3,1.2,0.5,1.7c0.2,0.4,0.4,0.7,0.6,1.1c0.1,0.3,0.2,0.6,0.3,0.9c0.2,0.5,0.6,0.8,1.1,1c0.2,0.1,0.3,0.2,0.5,0.2
		c0.5,0,0.9-0.5,1.2-1c0.5-0.9,0.8-1.9,0.8-2.9c0-0.4-0.1-0.8-0.1-1.2c-0.1-1.1,0.2-2.3,0.2-3.4c0-0.3-0.2-0.6-0.5-0.7
		c0-1,0-2,0.5-2.8c0.3-0.4,0.6-0.7,0.9-1c0.1,0.4,0.3,0.9,0.5,1.3C314,91.2,317,90.3,320,90.3z M381.9,31.9
		c-0.2,0.1-0.4,0.2-0.6,0.2c-1.8,0.6-3.8,1.2-5.6,0.8c-0.6-0.2-1.1-0.4-1.5-0.8l-0.1-0.1C376.5,31.5,379.2,31.7,381.9,31.9z"/>
	<path class="st7" d="M392.2,27.9c0.6-0.3,1.3-0.4,2-0.5c0.4,0,0.9,0.1,1.3,0.3c0.8,0.2,1.5,0.6,2.1,1.1c0.6,0.5,1,1.3,0.9,2.1
		c-0.1,0.8-0.7,1.4-1.3,1.9c-0.8,0.7-1.9,1.1-3,1.1c-1.2,0-2.4-0.5-3.5-0.8c-0.8-0.2-1.7-0.4-2.6-0.4c-0.4,0-0.9,0-1.3-0.1
		c-0.4-0.1-0.8-0.4-1-0.8c-0.1-0.4-0.1-0.8,0-1.1c0.1-0.5,0.1-1.6,0.5-1.9c0.3-0.2,1.5,0,1.9-0.1C389.6,28.6,390.9,28.4,392.2,27.9z
		"/>
	<path class="st7" d="M297.4,55.4c-0.3-0.4-0.7-0.7-1.1-1c-0.6-0.3-1.3-0.4-2-0.2c-1.7,0.3-3.3,1-4.8,1.9c-1.2,0.7-2.4,1.5-3.3,2.5
		c-0.3,0.3-0.5,0.7-0.6,1.1c0,0.3,0,0.7,0.1,1c0.2,0.8,0.7,1.4,1.4,1.8c0.8,0.3,1.7,0,2.5-0.3c1.1-0.4,2.3-0.8,3.4-0.5
		c0.8,0.2,1.5,0.9,2.4,0.9c1,0,1.8-0.8,2.5-1.6c0.6-0.7,1.8-1.9,1.7-2.9C299.5,57.3,298,56.1,297.4,55.4z"/>
	<path class="st7" d="M310.2,85c-0.9,0.2-1.9,0.3-2.9,0.1c-0.6-0.1-1.3-0.2-1.7,0.2c-0.1,0.2-0.2,0.4-0.2,0.6
		c-0.9,3.9-0.1,8,1.5,11.7c0,0.1,0.1,0.1,0.1,0.2c0.1,0.1,0.2,0,0.4,0c0.4-0.2,0.8-0.4,1.1-0.6c0.7-0.7,0.9-1.7,0.9-2.7
		c0-1,0-2,0.5-2.9c0.6-1,2-1.6,2.5-2.7c0.4-0.9,0.2-2-0.2-2.9c-0.1-0.3-0.2-1.1-0.5-1.3S310.6,84.9,310.2,85z"/>
	<path class="st8" d="M297.3,55c0.2-0.1,0.2-0.3,0.2-0.5c-0.1-0.2-0.2-0.3-0.3-0.4c-0.3-0.3-0.6-0.7-0.9-1c-0.3-0.5-0.6-0.9-1-1.3
		c-0.4-0.4-0.9-0.6-1.5-0.6c-0.3,0.1-0.6,0.2-0.9,0.3c-1,0.6-2,1.3-2.8,2.2c-0.1,0.1-0.1,0.1-0.1,0.2c0,0.1,0.1,0.1,0.1,0.2
		c0,0.1,0,0.1-0.1,0.2c-0.5,0.6-1.1,1.2-1.8,1.6c-1,0.7-1.9,1.5-2.8,2.2c-0.6,0.4-1,1-1.3,1.6c-0.2,0.8-0.1,1.5,0.2,2.2
		c0.6,1.5,1.7,2.7,2.8,3.9c0.2,0.2,0.4,0.4,0.7,0.5c0.2,0,0.5,0,0.7-0.2c0.7-0.4,0.8-1.4,0.8-2.1l0.1-1.1c0-0.1,0-0.1,0-0.2
		c0.1-0.1,0.1-0.1,0.2-0.2l1-0.5c-0.6-1-1.8-1.7-3-1.6c-0.3,0.1-0.6,0-0.8-0.1c-0.2-0.3-0.2-0.7,0-0.9c0.3-0.2,0.6-0.4,0.9-0.5
		c2.7-1,5.2-2.6,7.8-3.8c0.3-0.1,0.6-0.2,0.9-0.2C296.8,55,297.1,55.1,297.3,55z"/>
	<path class="st8" d="M308.1,94.9c-0.1,0.2-0.2,0.5-0.3,0.7c-0.1,0.2-0.4,0.4-0.6,0.3c-0.1-0.1-0.2-0.2-0.3-0.3
		c-1.2-2.6-1.5-5.6-0.9-8.4c0.1-0.5,0.2-0.9,0.4-1.3c0.2-0.4,0.5-0.8,0.4-1.3c-1.1,0.3-2.1,0.8-3.1,1.4c-0.6,0.4-1.3,0.9-1.4,1.7
		c0,0.3,0,0.6,0.1,0.9l0.4,1.3c0,0.2,0.2,0.5,0.3,0.7c0.1,0.1,0.3,0.2,0.4,0.3c0.1,0.1,0.2,0.3,0.2,0.5l0.3,1.2
		c0.1,0.4,0.2,0.8,0.2,1.2c0,0.4,0,0.7,0,1.1c0,0.6,0.1,1.2,0.3,1.8l0.4,2.1c0.1,0.6,0.3,1.2,0.5,1.7c0.2,0.4,0.4,0.7,0.6,1.1
		c0.1,0.3,0.2,0.6,0.3,0.9c0.2,0.5,0.6,0.8,1.1,1c0.2,0.1,0.3,0.2,0.5,0.2c0.5,0,0.9-0.5,1.2-1c0.5-0.9,0.8-1.9,0.8-2.9
		c0-0.4-0.1-0.8-0.1-1.2c-0.1-1.1,0.2-2.2,0.2-3.4C310,93.9,308.5,94.1,308.1,94.9z"/>
	<path class="st7" d="M363.9,28.6c-1.2-0.5-2.2-1.4-3-2.4c-0.4-0.5-0.8-1.1-1.1-1.7c-1.4-2.4-2.7-5-3.7-7.6c1.6,0.3,3.3,0.6,4.9,0.2
		c0.8-0.3,1.6-0.7,2.3-1.2c0.9-0.7,1.7-1.5,2.4-2.3c0.6,1.1,1.2,2.1,1.9,3c0.4,0.5,1.8,1.7,1.7,2.4c-0.1,0.7-1.6,1.1-2.2,1.5l-0.1,0
		c-0.9,0.6-1.7,1.3-2.3,2.2C363.3,24.3,362.9,26.7,363.9,28.6z"/>
	<path class="st2" d="M366.9,20.4c-1.8-0.9-3.2-2.6-3.7-4.6c0.9-0.7,1.7-1.5,2.4-2.3c0.6,1.1,1.2,2.1,1.9,3c0.4,0.5,1.8,1.7,1.7,2.4
		C369.1,19.7,367.6,20.1,366.9,20.4z"/>
	<circle class="st7" cx="370.4" cy="13.8" r="7.1"/>
	<path class="st1" d="M354.8,58.2c-1,0.6-2.2,0.6-3.3,0.1c-0.5-0.3-1-0.7-1.4-1.2c-2.3-2.4-4.6-4.9-6.1-7.9c-0.4-0.6-0.6-1.3-0.7-2
		c-0.1-0.7,0.2-1.5,0.7-1.9c0.1-0.1,0.3-0.2,0.4-0.4c0.1-0.2,0.1-0.4,0.1-0.6c0.1-0.8,0.6-1.4,1.3-1.7c-0.4-0.3-0.2-0.8,0-1.2
		c0.2-0.4,0.6-0.8,0.5-1.2c-0.1-0.3-0.2-0.6-0.3-0.8c-0.1-0.5,0.1-0.9,0.2-1.4c0.3-1,0.1-2,0-3c-0.2-2.9,0.5-5.8,1.2-8.7
		c0.3-1.4,0.8-2.9,1.3-4.2c0.2-0.4,0.4-0.8,0.6-1.1c0.7-1.2,1.5-2.3,2.4-3.3c0.4-0.6,1-1.1,1.6-1.5c0.1,0,0.1,0,0.2-0.1
		c0.5-0.1,1-0.2,1.5-0.1c1.3,0.1,2.6,0.4,3.6,1.3s1.2,2.2,1.6,3.4c0.1,0.4,0.3,0.8,0.5,1.2c0.6,1.2,1.6,2.2,2.6,3.1l1.1,1
		c0.5,0.5,1.4,0.4,1.9,0.9c0.2,0.3,0.4,0.5,0.4,0.9c0.6,1.4,0.9,2.8,1,4.3c0,0.3,0,0.7-0.1,1c-0.1,1.1-0.6,2.2-1.4,3
		c-0.9,0.9-2.2,1.3-3.1,2.2c-0.8,0.7-1.2,1.7-1.6,2.7c-0.8,1.8-1.7,3.7-2.5,5.5c-0.6,1.3-1.1,2.6-1.6,3.9
		C356.7,53,357.1,56.8,354.8,58.2z"/>
	<path class="st9" d="M332.8,89.6c-1.9,0.1-3.8,0.1-5.6,0.2c-1.1,0.1-2.2,0.3-3.3,0.3c-1.2,0.1-2.4,0-3.6,0c-3,0.1-6,0.9-8.9,1.7
		c-0.8-2-1.2-4.1-1.3-6.3c0-0.1,0-0.3,0-0.4c0.1-0.6,0.2-1.2,0.5-1.7c2.7-0.8,5.4-1.5,8.1-1.5c0.9,0,1.8,0.1,2.7,0.1
		c2.6,0.1,5.1-1.1,7.7-0.8c0.5,0.1,1-0.2,1.2-0.7c0.1-0.3,0.2-0.7,0.4-0.8c0.2-0.1,0.5,0,0.6-0.2c0-0.1,0.1-0.2,0.1-0.3
		c0.1-0.4,0.5-0.6,0.8-0.8c0.8-0.5,1.2-1.4,1.6-2.3c0.1-0.2,0.2-0.4,0.2-0.6c0-0.2-0.1-0.3,0-0.5c0-0.6,0.7-0.9,1-1.4
		c0.5-0.6,0.4-1.5,0.6-2.3c0.3-1,1.1-1.6,1.3-2.6c0-0.1,0-0.2,0-0.3c-0.8,0.8-1.7,1.5-2.7,2.1c-3.4,2.1-7.4,3.3-10.6,5.7
		c-2.5,1.9-6.2,1.8-8.9,0.3c-1-0.6-2-1.4-2.9-2.2c-1.4-1.1-2.8-2.3-4.3-3.4c-1-0.8-2.1-1.5-3.2-2.2c-1.3-0.9-2.7-1.7-4.1-2.4
		c-1.7-0.9-3.5-1.8-5.4-2c-0.5-1-0.5-2.2-0.1-3.3c0.4-1,1-2,1.8-2.9c0.6-0.8,1.2-1.5,2-2.1c0.2-0.1,0.4-0.1,0.6,0l7.5,4.6l1.4,0.9
		c3.1,1.9,6.1,3.9,9.2,5.8c0.1,0.2,0.4,0.2,0.6,0.2s0.5-0.1,0.7,0c0.1,0.1,0.2,0.2,0.3,0.2c0.1,0,0.2,0,0.3-0.1
		c1.3-0.9,1.9-2.6,3.4-3.2c0.6-0.3,1.3-0.3,1.8-0.8c0.3-0.4,0.5-0.7,0.8-1.1c0.6-0.8,1.8-1.1,2.4-1.9c0.4-0.5,0.8-1,1.4-1.5
		c1-0.8,1.9-1.8,2.7-3c0.4-0.6,0.7-1.2,0.9-1.8c0.1-0.3,0.2-0.7,0.3-1c0.3-1,1.1-1.8,1.9-2.5c1.4-1.3,3-2.5,4.8-3
		c0.6-0.1,1.3-0.4,1.8-0.7c0.7-0.4,1.4-1.3,2.2-1.1c0.3,0.1,0.6,0.3,0.8,0.5c1,1,2,2.1,2.8,3.2c1.4,1.7,2.7,3.5,4.1,5.2
		c0.4,0.6,1,1.2,1.6,1.6c0.9,0.5,2,0.6,2.9,0.4c-0.1,1.4-1.3,2.6-1.7,3.9c-0.2,0.7-0.3,1.3-0.5,2c-0.2,0.8-0.5,1.7-0.9,2.4
		c-0.9,2.1-1.8,4.3-3.1,6.2c-0.7,1-1.5,1.9-2.2,2.8c-3,3.6-5.3,8-8.7,11.3c-0.8,0.8-1.4,1.9-2.3,2.6C335.3,89.4,334,89.5,332.8,89.6
		z"/>
	<path class="st2" d="M347.2,41.3c-0.3,0-0.7,0.1-1,0.3c0.7-0.2,1.5,0.4,2.2,0.1c0.3-0.1,0.3-0.2,0-0.3
		C348,41.3,347.5,41.4,347.2,41.3z"/>
	
		<rect x="439.3" y="171.8" transform="matrix(0.9423 -0.3346 0.3346 0.9423 -32.2001 162.0278)" class="st4" width="29.7" height="5.3"/>
	<path class="st4" d="M448.6,187.3l25.4-9c1.4-0.5,2.9,0.2,3.4,1.6l0,0c0.5,1.4-0.2,2.9-1.6,3.4l-25.4,9l0,0L448.6,187.3
		L448.6,187.3z"/>
	<path class="st10" d="M424.4,171.7l6.2-2.2c11.5-4.1,24.1,1.9,28.2,13.4l2.2,6.2c1.6,4.5-0.8,9.4-5.2,11l-18.9,6.7
		c-4.5,1.6-9.4-0.8-11-5.2l-6.7-18.9C417.5,178.2,419.9,173.3,424.4,171.7z"/>
	<path class="st2" d="M346.8,45c-0.3-0.1-0.5-0.1-0.8,0c-0.4,0-0.8,0.2-1,0.5c0.1,0.1,0.3,0.1,0.5,0c0.2-0.1,0.5-0.1,0.8-0.1
		c0.2,0,0.9,0.2,1,0.1C347.5,45.4,347,45.1,346.8,45z"/>
	<path class="st2" d="M367.7,33c-0.6-0.2-1.1-0.5-1.6-0.8c-1.3-0.8-2.5-2-3.8-2.9c-0.7-0.4-1.4-0.8-2.1-1.1l-4.5-2.3
		c-0.3-0.2-0.7-0.3-1.1-0.4c-0.7-0.2-1.5,0.3-2.3,0.2c-0.8-0.1-1.4-0.6-1.9-1.3c-0.4-0.7-0.7-1.4-0.8-2.2c-0.1-0.4-0.2-0.9-0.3-1.4
		c-0.1-0.5-0.1-1,0-1.4c0.1-1,0.5-1.8,1.3-2.5c0.5-0.4,1.1-0.6,1.8-0.8c0.4-0.1,0.8-0.2,1.2-0.2c0.2,0,0.5,0,0.7,0
		c1.7,0.1,3.1,1.3,4.2,2.5c0.6,0.7,1.1,1.4,1.7,2c0.1,0.4,0.3,0.8,0.5,1.2c0.6,1.2,1.6,2.2,2.6,3.1l1.1,1c0.5,0.5,1.4,0.4,1.9,0.9
		c0.2,0.3,0.4,0.5,0.4,0.9c0.6,1.4,0.9,2.8,1,4.3C367.8,32.4,367.8,32.7,367.7,33z"/>
	<path class="st2" d="M333.1,81.7l-22.9,3.4c0.1-0.6,0.2-1.2,0.5-1.7c2.7-0.8,5.4-1.5,8.1-1.5c0.9,0,1.8,0.1,2.7,0.1
		c2.6,0.1,5.1-1.1,7.7-0.8c0.5,0.1,1-0.2,1.2-0.7c0.1-0.3,0.2-0.7,0.4-0.8c0.2-0.1,0.5,0,0.6-0.2c0-0.1,0.1-0.2,0.1-0.3
		c0.1-0.4,0.5-0.6,0.8-0.8c0.8-0.5,1.2-1.4,1.6-2.3c0.1-0.2,0.2-0.4,0.2-0.6c0-0.2-0.1-0.3,0-0.5c0-0.6,0.7-0.9,1-1.4
		c0.5-0.6,0.4-1.5,0.6-2.3c0.3-1,1.1-1.6,1.3-2.6l0.1-0.1l3.9-1.5L333.1,81.7z"/>
	<ellipse class="st0" cx="245.2" cy="263.9" rx="161.6" ry="12.6"/>
	<ellipse class="st0" cx="388.1" cy="285.9" rx="104.6" ry="13.6"/>
	<path class="st11" d="M264.3,243.7l0.1-5.4c5.1-0.3,10.1-0.5,15.2-0.6c2.9-0.1,5.9-0.1,8.8,0.7c2,0.5,3.8,1.4,5.8,2
		c3.9,1.2,8,1.4,12.1,1.5c4,0.1,8.1,0.1,11.6-1.6c6.1-3,8.7-10.5,9-17.4c0.3-6.8-1.1-13.7-0.1-20.5"/>
	<polygon class="st4" points="278.2,254.3 210.4,253.4 210.6,251.7 213.9,223 273.4,223 277.8,251.7 278.2,253.8 	"/>
	<polygon class="st2" points="278.2,253.8 244.3,253.8 210.4,253.4 210.6,251.7 277.8,251.7 	"/>
	<rect x="199.2" y="252.1" class="st4" width="89.9" height="2.2"/>
	<path class="st12" d="M374.9,50.8c0-3.1-2.5-5.7-5.6-5.7c0,0,0,0,0,0H118.1c-3.1,0-5.6,2.6-5.6,5.7c0,0,0,0,0,0V203h262.4V50.8z"/>
	<path class="st4" d="M112.5,201.5v17.8c0,3.1,2.5,5.6,5.6,5.6h251.2c3.1,0,5.6-2.5,5.6-5.6v-17.8H112.5z"/>
	<rect x="123.3" y="54.6" class="st13" width="242" height="136.9"/>
	<path class="st14" d="M245,218.2c1.8,0,3.5-0.8,4.6-2.2l0,0c0.2-0.2,0.3-0.4,0.5-0.7l-3.2-0.5l3.5,0c0.7-1.5,0.7-3.1,0.1-4.6
		l-4.7,2.4l4.3-3.2c-1.6-2.8-5.2-3.8-8-2.2c-2.8,1.6-3.8,5.2-2.2,8c0.2,0.3,0.3,0.6,0.6,0.8l0,0C241.5,217.4,243.2,218.2,245,218.2z
		"/>
	<polygon class="st2" points="250.9,225 277.9,252.1 273.7,225 	"/>
	<path class="st11" d="M367,53.5l14.5-19.2c0.9-1.1,1.8-2.3,3-3.2c3.4-2.4,8.4-1,11.3,2.1c2.9,3,4.1,7.2,4.9,11.3
		c2,9.4,3,19,2.7,28.6c-0.1,5.1-0.6,10.2-2.2,15c-2.4,7.3-7.4,13.4-11.1,20.2c-6,10.8-8.5,25.3-0.9,35c2.5,3.2,5.9,5.6,8.2,8.9
		c2.6,3.8,3.6,8.3,4.6,12.8c1.4,6.7,2.9,13.5,3.2,20.4c0.9,22.2-11.8,44.5-31.4,55.1c-13.6,7.3-30,9.5-41.9,19.4
		c-4.2,3.5-7.8,8.7-6.8,14c0.8,4.3,4.6,7.6,8.8,9.1c4.2,1.4,8.7,1.3,13.1,1.1c10.6-0.6,21.1-1.9,31.6-3.9c8.8-1.7,17.7-3.1,25.4-7.8
		c0.8-0.4,1.4-1,1.9-1.7c0.5-0.8,0.6-1.8,0.7-2.8c0.2-2.9,0.4-5.8-0.6-8.5c-1.2-3.1-3.9-5.5-5.1-8.6s-1.1-6.6-0.2-9.9
		c1-4,2.9-7.7,4.8-11.4c1.8-3.6,3.7-7.2,5.8-10.6c6.1-9.6,14.3-17.5,22.5-25.3"/>
	<path class="st7" d="M391,25.9c0.6-0.3,1.3-0.4,2-0.5c0.4,0,0.9,0.1,1.3,0.3c0.8,0.2,1.5,0.6,2.1,1.1c0.6,0.5,1,1.3,0.9,2.1
		c-0.1,0.8-0.7,1.4-1.3,1.9c-0.8,0.7-1.9,1.1-3,1.1c-1.2,0-2.4-0.5-3.5-0.9c-0.8-0.2-1.7-0.4-2.6-0.4c-0.4,0-0.9,0-1.3-0.1
		c-0.4-0.1-0.8-0.4-1-0.8c-0.1-0.4-0.1-0.8,0-1.1c0.1-0.5,0.1-1.6,0.5-1.9c0.3-0.2,1.5,0,1.9-0.1C388.4,26.6,389.7,26.4,391,25.9z"
		/>
	<path class="st1" d="M385.7,26.3c-1.6,0.7-3.4,0.1-5.1,0.1c-0.8,0-1.7,0.1-2.5,0.2c-0.9,0-1.9,0-2.8-0.1l-2.8-0.2
		c-1.6-0.1-3.3-0.3-4.9-0.7c-1.4-1.6-3.6-2.3-5.2-3.6c-1.3-1-2.3-2.5-3.4-3.7c-1.1-1.3-2.5-2.4-4.2-2.5c-0.6,0-1.3,0-1.9,0.2
		c-0.6,0.1-1.2,0.4-1.8,0.8c-0.7,0.6-1.2,1.5-1.3,2.5c-0.1,0.9,0,1.9,0.3,2.8c0.2,0.8,0.4,1.5,0.8,2.2c0.4,0.7,1.1,1.1,1.9,1.3
		c0.7,0.1,1.5-0.4,2.3-0.2c0.4,0.1,0.7,0.2,1.1,0.4l4.5,2.3c0.7,0.3,1.4,0.7,2.1,1.1c1.3,0.9,2.4,2,3.8,2.9c1.3,0.8,3,1.4,4.5,0.8
		c4.6-1.7,9.7-0.9,14.5-0.5c0-0.1,0.2-0.2,0.2-0.3c0.6-0.8,0.9-1.8,0.8-2.8C386.5,28.2,386.1,27.3,385.7,26.3z"/>
	<path d="M378.1,13.5c0.5-0.2,0.9-0.6,1.1-1c0.4-0.8,0.2-1.8-0.1-2.7c-0.3-0.9-0.6-1.6-0.9-2.4c-0.2-0.7-0.6-1.3-1.1-1.9
		c-0.7-0.7-1.6-1.1-2.4-1.6c-1-0.7-1.7-1.6-2.5-2.5c-0.8-0.8-1.8-1.6-2.9-1.8c-0.9,0-1.8,0.1-2.6,0.5c-6.9,2.6-12.6,7.6-18.8,11.6
		c-2.4,1.6-5.1,3-8,2.8l2.6,4.1c0.7,1,1.4,2.1,2.5,2.6c1,0.4,2.1,0.2,3.2,0c0.8-0.1,1.7-0.4,2.4-0.7c1.5-0.8,2.5-2.5,4.1-3.1
		c1.2-0.4,2.6-0.2,3.8,0.3c1.2,0.4,2.4,1,3.7,1.2c2.3,0.3,4.6-0.7,6.5-2.1c1.1-0.8,2.2-1.7,3.4-2.3c0.9-0.5,2-0.7,3-0.5
		C376.3,14.1,376.9,14.1,378.1,13.5z"/>
	<path class="st2" d="M379.2,12.5c0.4-0.8,0.2-1.8-0.1-2.6c0.1,0.5,0,1-0.2,1.4c-0.3,0.4-0.7,0.8-1.1,1c-1.1,0.6-1.8,0.5-3,0.4
		c-1-0.1-2.1,0.1-3,0.5c-1.2,0.6-2.3,1.5-3.4,2.3c-1.9,1.3-4.2,2.4-6.5,2.1c-1.3-0.2-2.5-0.8-3.7-1.2c-1.2-0.4-2.6-0.7-3.8-0.3
		c-1.6,0.6-2.6,2.3-4.1,3.1c-0.8,0.4-1.6,0.6-2.4,0.7c-1.1,0.2-2.2,0.4-3.2,0c-1.1-0.4-1.9-1.5-2.5-2.6l-1.8-2.9c-0.1,0-0.3,0-0.4,0
		l2.6,4.1c0.7,1,1.4,2.1,2.5,2.6c1,0.4,2.1,0.2,3.2,0c0.8-0.1,1.7-0.4,2.4-0.7c1.5-0.8,2.5-2.5,4.1-3.1c1.2-0.4,2.6-0.2,3.8,0.3
		c1.2,0.4,2.4,1,3.7,1.2c2.3,0.3,4.6-0.7,6.5-2.1c1.1-0.8,2.2-1.7,3.4-2.3c0.9-0.5,2-0.7,3-0.5c1.2,0.2,1.9,0.2,3-0.4
		C378.6,13.3,379,12.9,379.2,12.5z"/>
	
		<linearGradient id="SVGID_2_" gradientUnits="userSpaceOnUse" x1="982.6679" y1="-61.5757" x2="982.6679" y2="63.3276" gradientTransform="matrix(-1 -4.000000e-02 4.000000e-02 -1 1411.2 258.72)">
		<stop  offset="0" style="stop-color:#808080;stop-opacity:0.25"/>
		<stop  offset="0.54" style="stop-color:#808080;stop-opacity:0.12"/>
		<stop  offset="1" style="stop-color:#808080;stop-opacity:0.1"/>
	</linearGradient>
	<path class="st15" d="M398.9,272.7c0.2-0.4,0.5-0.7,0.8-0.9c1.7-1.6,2.4-3.9,2.8-6.1c0.4-2.3,0.5-4.6,1.2-6.8
		c0.4-1.1,0.8-2.2,1.3-3.3c0.4-0.8,0.9-2.4,1.6-3c0.1-0.1,0.3-0.2,0.5-0.2c0.3-0.7,0.8-1.3,1.4-1.8c1.1-1,2.4-1.8,3.1-3
		c0.2-0.4,0.4-0.9,0.7-1.3c0.5-0.5,1.3-0.8,1.7-1.3c0.6-0.7,0.5-1.8,0.4-2.7c-0.1-0.9,0-2.1,0.8-2.6c0.5-0.3,1.1-0.3,1.6-0.5
		c0.8-0.4,1.1-1.3,1-2.2s-0.3-1.7-0.3-2.5c-0.2-2.7,1.6-5.4,0.9-8.1c-0.3-1-0.9-1.9-1.3-2.8c-0.2-0.3-0.3-0.6-0.4-1
		c-1.2,0.5-2.4,0.8-3.7,0.9c2.1-4.7,1.6-10.2,2.5-15.2l-0.1-0.2c-1-1.3-1.6-2.9-1.6-4.5c0-1.9,0.9-3.6,1.3-5.5
		c0.3-1.6,0.3-3.2,0.8-4.7c0.3-1,0.7-1.9,1.2-2.7c0.5-0.9,1-1.7,1.5-2.6c0.5-1.6,1-3.2,1.5-4.8c0.7-2.3,1.4-4.6,2.7-6.5
		c0.5-0.7,0.6-2.2,1.4-2.6c0.6-0.3,1.3-0.4,2-0.3c1.1-0.6,2-1.4,2.1-2.6c0-0.3,0-0.5-0.1-0.8h-0.1c-1.7-0.2-2.5-1.6-3.4-2.9
		c-1.4-2.1-0.9-4.9,0-7.3c0.2-0.8,0.6-1.4,1.1-2c1.2-1.1,3.2-0.9,4.7-1.4c0.5-0.2,1-0.4,1.6-0.6c1-0.2,2.1,0.1,3.1,0.6
		s1.9,1.1,2.9,1.5c1,0.4,2.2,0.7,2.5,1.7c0.1,0.3,0,0.7-0.1,1c-0.2,0.7-0.6,1.2-1.2,1.7c1.6,3.4,0.2,7.4-3.1,9.1
		c-0.3,0.2-0.7,0.3-1,0.4c-0.3,0.5-0.6,0.9-0.8,1.4c-0.4,0.9-0.8,1.9-0.7,2.8c0.3,0.3,0.5,0.6,0.8,0.9c1.1,1.5,1.7,3.3,2.3,5.1
		c0.8,2.3,1.4,4.6,1.8,6.9c0.9,2,2.1,3.9,2.7,5.9c1.2,0,2.4-0.2,3.6-0.5l3.2-0.7c1.1-0.3,2.3-0.5,3.2-1.3c0.5-0.4,0.8-0.9,1.3-1.3
		c0.5-0.4,1.4-0.8,1.9-0.5c0.1,0.1,0.2,0.1,0.3,0.2c0.5-1,3.5,2.9,1.4,3.3l0.1,0.4c0.3,0.8,0.8,1.7,0.7,2.6l-14.3,4.9
		c-0.9,0.4-1.9,0.6-2.9,0.6c-0.4,0-0.8-0.1-1.1-0.2v0.7v0c0,5,0.8,10,0.9,15c0,0.9,0,1.9-0.6,2.6c-0.6,0.8-1.8,0.9-2.8,0.8
		c-0.2,0-0.5-0.1-0.7-0.2c-0.3,1.3-0.6,2.5-0.7,3.8l-0.9,6.8c-0.1,0.7-0.2,1.4-0.1,2.1c0.1,1.6,1,3,1.6,4.5s1,3.2,0.2,4.6
		c-0.2,0.4-0.6,0.8-0.8,1.2c-0.3,0.7-0.4,1.4-0.4,2.2c-0.1,2.1-0.1,4.1-0.2,6.2c0.2,0,0.3,0,0.5,0.1c0.8,0.6,0.7,3.5,0.8,4.5
		c0.1,1.5,0,3.1,0.1,4.6c0.1,2.1,0.4,4.1,1,6.1c0.1,0.6,0.4,1.3,0.9,1.8c0.4,0.4,1,0.7,1.5,0.8c1.9,0.6,3.9,0.9,5.9,0.8
		c0.8,0,1.6-0.1,2.4,0.2c0.7,0.3,1.3,1.1,1.1,1.9c-0.2,0.6-0.9,0.9-1.6,1.2c-1.5,0.5-2.9,1.2-4.2,1.9c-0.5,0.4-1.1,0.7-1.6,0.9
		c-0.5,0.2-1.1,0.3-1.7,0.4l-6.7,1.1c-1.4,0.2-3,0.4-3.9-0.8c-0.5-0.6-0.5-1.5-0.5-2.2c0-1.5,0.3-3.1,0.1-4.6
		c-0.1-0.9-0.4-1.8-0.7-2.6l-2-6c-0.7-2-1.4-4-1.6-6.1c-0.1-0.8-0.1-1.6,0.5-2.1c0.1-0.1,0.3-0.2,0.5-0.3c0-1.8,0.3-3.7,0.2-5.5
		c0-0.5-0.1-0.9-0.1-1.4c-0.4,0.3-0.7,0.7-0.9,1.1c-0.6,1-0.9,2.4-1.9,3c-0.8,0.6-2.1,0.5-2.7,1.4c-0.2,0.3-0.3,0.7-0.4,1
		c-0.3,0.9-0.9,1.7-1.5,2.4c-0.2,0.8-0.5,1.6-0.9,2.4c-0.6,1.2-1.1,2.4-1.7,3.5c-0.6,1.3-1.2,2.5-1.9,3.7c-0.5,0.8-1,1.6-1.3,2.5
		c-0.5,1.9,0.3,3.9,1.7,5.3s3.2,2.2,5,2.9c0.2,0.1,0.4,0.2,0.5,0.3c0.2,0.2,0.2,0.4,0.2,0.7c0,0.9-0.7,1.6-1.5,1.9
		c-0.8,0.2-1.7,0.3-2.6,0.1c-4.9-0.6-9.7-1.8-14-4.1c-0.6-0.3-1.2-0.7-1.7-1.3C398.7,274.1,398.6,273.3,398.9,272.7z"/>
	<path class="st7" d="M460.3,191.5c1.5-0.2,3.1-0.1,4.3,0.8c0.7,0.6,1.1,1.4,1.2,2.3c0.1,1.1-0.5,2.3-1.6,2.4c-0.3,0-0.5,0-0.8,0
		c-0.7,0-1.3,0.1-2,0.2c-2.6,0.2-5.2-0.8-6.9-2.8c-0.9-1.1,0.3-1.6,1.4-1.9C457.4,192.2,458.8,191.8,460.3,191.5z"/>
	<path class="st5" d="M434.8,225.9l-0.9,6.7c-0.1,0.7-0.2,1.4-0.1,2.1c0.1,1.6,0.9,3,1.6,4.5c0.6,1.5,1,3.2,0.2,4.6
		c-0.2,0.4-0.6,0.8-0.8,1.2c-0.3,0.7-0.4,1.4-0.4,2.1l-0.3,9.5c-2.9,0.2-5.9,0.2-8.8,0c-0.1,0-0.2,0-0.3-0.1
		c-0.1-0.1-0.1-0.2-0.1-0.3c-0.1-2.2,0.3-4.5,0.1-6.7c0-0.8-0.2-1.6-0.2-2.4c0-3.3,1.6-6.6,1.1-9.8c-0.2-0.8-0.4-1.6-0.6-2.4
		c-1.6-5.7-1.2-11.7-0.9-17.6c0-0.1,0-0.2,0.1-0.3c0.1-0.1,0.1-0.1,0.2-0.1c3.4-1,7-0.3,9.8,1.9c0.4,0.3,1.5,0.7,1.7,1.1
		c0.4,0.6-0.1,1.1-0.3,1.7C435.3,222.8,435,224.3,434.8,225.9z"/>
	<path class="st2" d="M434.8,225.9l-0.9,6.7c-0.1,0.7-0.2,1.4-0.1,2.1c0.1,1.6,0.9,3,1.6,4.5c0.6,1.5,1,3.2,0.2,4.6
		c-0.2,0.4-0.6,0.8-0.8,1.2c-0.3,0.7-0.4,1.4-0.4,2.1l-0.3,9.5c-2.9,0.2-5.9,0.2-8.8,0c-0.1,0-0.2,0-0.3-0.1
		c-0.1-0.1-0.1-0.2-0.1-0.3c-0.1-2.2,0.3-4.5,0.1-6.7c0-0.8-0.2-1.6-0.2-2.4c0-3.3,1.6-6.6,1.1-9.8c-0.2-0.8-0.4-1.6-0.6-2.4
		c-1.6-5.7-1.2-11.7-0.9-17.6c0-0.1,0-0.2,0.1-0.3c0.1-0.1,0.1-0.1,0.2-0.1c3.4-1,7-0.3,9.8,1.9c0.4,0.3,1.5,0.7,1.7,1.1
		c0.4,0.6-0.1,1.1-0.3,1.7C435.3,222.8,435,224.3,434.8,225.9z"/>
	<path class="st5" d="M417.2,223.9c0.4,0.9,1,1.8,1.3,2.8c0.7,2.6-1.1,5.3-0.9,8c0.1,0.8,0.3,1.7,0.3,2.5s-0.3,1.8-1,2.2
		c-0.5,0.3-1.1,0.2-1.6,0.5c-0.8,0.5-0.9,1.6-0.8,2.5c0.1,0.9,0.2,2-0.4,2.7c-0.5,0.6-1.2,0.8-1.7,1.3c-0.3,0.4-0.5,0.8-0.7,1.2
		c-0.7,1.3-2.1,2-3.1,3s-2,2.5-1.5,3.8c0.4,1,1.4,1.6,2.3,2.1c1.8,0.9,3.6,1.5,5.5,2c0.2,0.1,0.4,0.1,0.6,0c0.2-0.1,0.4-0.2,0.6-0.4
		c1.1-1.1,2.3-2.3,2.8-3.7c0.1-0.4,0.2-0.7,0.4-1c0.6-0.8,1.8-0.8,2.7-1.4c1-0.7,1.2-2,1.9-3c0.6-1,1.6-1.6,2.3-2.5
		c1.1-1.5,1.4-3.4,2.3-5.1c0.4-0.7,0.8-1.4,1.1-2.1c0.3-0.9,0.5-1.8,0.5-2.7c0.5-4.4,1.9-8.9,1-13.3c-0.2-1-0.5-1.9-0.6-2.9
		c-0.2-1.7,0.1-3.5-0.1-5.2c0-0.4-0.2-0.8-0.6-1.1c-0.2-0.1-0.4-0.1-0.7-0.1c-2.3-0.1-4.5-0.1-6.8,0.2c-1.1,0.1-2.4,0.3-3.1,1.3
		c-0.6,0.8-0.6,1.9-0.8,2.8c-0.2,1.2-0.8,1.8-1.5,2.8C416.4,222,416.7,222.9,417.2,223.9z"/>
	<path class="st16" d="M426,254.8c-0.6,0-1.3,0-1.7,0.3c-0.6,0.5-0.6,1.3-0.5,2.1c0.3,2.1,0.9,4.1,1.6,6.1l2,5.9
		c0.3,0.8,0.6,1.7,0.7,2.6c0.2,1.5-0.1,3-0.1,4.6c0,0.8,0,1.6,0.5,2.2c0.9,1.1,2.5,1,3.9,0.7l6.7-1.1c0.6-0.1,1.1-0.2,1.7-0.4
		c0.6-0.3,1.1-0.6,1.6-0.9c1.3-0.8,2.7-1.4,4.2-1.9c0.6-0.2,1.3-0.5,1.6-1.2c0.3-0.8-0.3-1.6-1.1-1.9c-0.7-0.3-1.6-0.2-2.4-0.2
		c-2,0.1-4-0.2-5.9-0.8c-0.6-0.1-1.1-0.4-1.5-0.8c-0.4-0.5-0.7-1.1-0.9-1.7c-0.6-2-0.9-4-1-6.1c-0.1-1.5,0-3-0.1-4.6
		c0-0.9,0-3.8-0.8-4.4c-0.6-0.5-3.1,0.8-3.9,1C429.1,254.7,427.5,254.8,426,254.8z"/>
	<path class="st16" d="M403.8,259c-0.7,2.2-0.8,4.5-1.2,6.7c-0.4,2.2-1.2,4.5-2.8,6.1c-0.3,0.3-0.6,0.6-0.8,0.9
		c-0.3,0.7-0.2,1.4,0.3,2c0.5,0.5,1,1,1.7,1.3c4.3,2.3,9.1,3.5,14,4.1c0.9,0.2,1.7,0.1,2.6-0.1c0.8-0.3,1.6-1,1.5-1.9
		c0-0.2-0.1-0.5-0.2-0.7c-0.1-0.1-0.3-0.2-0.5-0.3c-1.8-0.7-3.6-1.5-5-2.9s-2.3-3.4-1.7-5.3c0.3-0.9,0.7-1.7,1.3-2.4
		c0.7-1.2,1.3-2.4,1.9-3.7l1.7-3.5c0.5-1,1-2.1,1.1-3.2c-2.1,0.1-4.2-0.2-6.2-1c-0.9-0.4-1.8-0.9-2.5-1.5c-0.6-0.5-1.2-1.5-2.1-0.8
		c-0.7,0.6-1.1,2.1-1.6,3C404.6,256.8,404.1,257.9,403.8,259z"/>
	<path class="st7" d="M428.3,171.8c-0.2,1.5-1.6,2.4-2.9,3l8.5,2.7c-0.6-1.1-0.1-2.4,0.4-3.4c0.4-0.8,1-1.7,1.5-2.4
		c0.1-0.1,0.2-0.3,0.1-0.4c-0.1-0.1-0.1-0.2-0.2-0.2c-1.8-0.8-3.6-1.6-5.5-1.9c-0.6-0.1-1.6-0.3-2,0.3
		C427.8,170.1,428.4,171.2,428.3,171.8z"/>
	<path class="st2" d="M428.3,171.8c-0.2,1.5-1.6,2.4-2.9,3l8.5,2.7c-0.6-1.1-0.1-2.4,0.4-3.4c0.4-0.8,1-1.7,1.5-2.4
		c0.1-0.1,0.2-0.3,0.1-0.4c-0.1-0.1-0.1-0.2-0.2-0.2c-1.8-0.8-3.6-1.6-5.5-1.9c-0.6-0.1-1.6-0.3-2,0.3
		C427.8,170.1,428.4,171.2,428.3,171.8z"/>
	<circle class="st7" cx="433.3" cy="166.3" r="6.7"/>
	<path class="st1" d="M439.1,221.4c-0.6,0.8-1.8,0.9-2.8,0.8c-2.3-0.4-4.3-2.1-6.5-2.7c-2.8-0.8-5.8,0.2-8.4,1.4
		c-2.6,1.2-5.3,2.6-8.2,2.9c2.6-5.8,1.1-12.9,3.6-18.8c0.6-1.4,1.5-2.8,1.6-4.4c0.2-1.9-0.8-3.8-0.9-5.7c-0.1-1.7,0.4-3.4,0.9-5.1
		l1.8-6c0.7-2.2,1.4-4.5,2.7-6.5c0.5-0.7,0.6-2.1,1.4-2.6c1.6-0.9,4.1,0.2,5.9,0.3s3.4,1.3,4.4,2.7c1.1,1.5,1.7,3.3,2.3,5
		c0.9,2.6,1.6,5.3,2,8.1c0.1,0.4,0.1,0.8,0.1,1.2c0.4,3.9-0.2,7.8-0.2,11.8c0,0,0,0,0,0c0,5,0.8,9.9,0.9,14.9
		C439.7,219.8,439.6,220.8,439.1,221.4z"/>
	<path class="st2" d="M438.7,204c-1.3-0.3-2.5-1.2-3.5-2.1c-0.9-0.8-1.7-1.7-2.3-2.6c-0.8-1.3-1.5-2.8-2-4.2
		c-1.4-4-2.3-8.1-2.7-12.3c-0.1-1.1-0.1-2.4,0.6-3.3c0.8-1,2.2-1.3,3.3-0.8c0.9,0.4,1.5,1.3,2,2.2c1.1,1.7,2.1,3.4,2.8,5.3
		c0.3,0.8,0.5,1.7,0.8,2.5c0.3,0.8,0.6,1.6,1,2.4c0.1,0.4,0.1,0.8,0.1,1.2C439.3,196.1,438.8,200,438.7,204z"/>
	<path class="st1" d="M428.8,178.7c-0.7,0.9-0.6,2.1-0.6,3.3c0.4,4.2,1.3,8.3,2.7,12.3c0.5,1.5,1.2,2.9,2,4.2c0.7,1,1.5,1.9,2.3,2.6
		c1.3,1.2,2.9,2.2,4.6,2.3c1,0,2-0.3,2.9-0.6l14.3-4.8c0.1-0.8-0.4-1.8-0.7-2.5l-0.8-2.3c-0.2-0.6-0.5-1.3-1-1.6
		c-0.6-0.3-1.5,0.1-1.9,0.5c-0.5,0.4-0.8,0.9-1.3,1.3c-0.9,0.7-2,1-3.2,1.3l-3.2,0.7c-1.2,0.3-2.4,0.5-3.6,0.5
		c-0.9-2.7-2.6-5.1-3.6-7.8c-0.3-0.8-0.5-1.7-0.8-2.5c-0.7-1.9-1.8-3.6-2.8-5.3c-0.5-0.8-1.1-1.7-2-2.2
		C430.9,177.3,429.6,177.7,428.8,178.7z"/>
	<path d="M431.1,167.8c0.1-0.4,0.2-0.9,0.4-1.3c0.2-0.4,0.7-0.6,1.1-0.5c0.7,0.2,0.9,1.2,1.6,1.3c0.5,0,0.8-0.5,1-0.9
		c0.1-0.5,0.2-1,0.6-1.3c0.2-0.2,0.5-0.3,0.8-0.4c1.6-0.5,3.3-1.5,3.8-3.1c0.1-0.3,0.2-0.7,0.1-1c-0.2-1-1.5-1.3-2.5-1.7
		c-1-0.4-1.9-1-2.9-1.5c-1-0.5-2.1-0.8-3.1-0.6c-0.5,0.2-1.1,0.4-1.6,0.6c-1.6,0.5-3.5,0.3-4.7,1.4c-0.5,0.6-0.9,1.3-1.1,2
		c-0.9,2.4-1.4,5.2,0,7.2c0.9,1.3,1.7,2.7,3.4,2.9C430,171.2,430.8,169.5,431.1,167.8z"/>
	<g class="st17">
		<path d="M434.1,165.6c0.1-0.4,0.2-1,0.6-1.3c0.2-0.2,0.5-0.3,0.8-0.4c1.6-0.5,3.3-1.5,3.8-3.1c0.1-0.3,0.2-0.7,0.1-1
			c0-0.2-0.1-0.3-0.2-0.5c0.6,0.3,1.2,0.6,1.3,1.3c0.1,0.3,0,0.7-0.1,1c-0.5,1.6-2.2,2.6-3.8,3.1c-0.3,0.1-0.6,0.2-0.8,0.4
			c-0.4,0.3-0.4,0.8-0.6,1.3c-0.1,0.4-0.5,0.9-1,0.9c-0.5,0-0.7-0.5-1-0.8C433.7,166.5,434,166,434.1,165.6z"/>
		<path d="M427,170.3c2,0.2,2.7-1.6,3-3.2c0.1-0.4,0.2-0.9,0.4-1.3c0.2-0.4,0.7-0.6,1.1-0.5c0.4,0.1,0.6,0.5,0.8,0.8
			c-0.4,0-0.7,0.2-0.9,0.5c-0.2,0.4-0.4,0.8-0.4,1.3c-0.3,1.6-1.1,3.4-3,3.2c-0.8-0.1-1.5-0.5-2-1
			C426.4,170.1,426.7,170.2,427,170.3z"/>
	</g>
	<path class="st18" d="M148.5,246.9l7.3-4.3c-1-1.7-2.2-3.2-3.7-4.5l-13.7,4.3l10.8-6.3c-8.5-4.6-19.1-1.5-23.8,6.9
		c-1.4,2.6-2.2,5.5-2.2,8.4c0,9.7,7.8,10,17.5,10c9.7,0,17.5-0.3,17.5-10c0-2.4-0.5-4.9-1.5-7.1L148.5,246.9z"/>
	<path class="st2" d="M150.4,256.3c-0.8-0.8-1.6-1.5-2.6-2c-1.3-0.9-2.7-1.8-4.2-2.1c-1.4-0.3-2.8,0-4.2-0.1
		c-2.4-0.1-4.7-1.2-6.4-2.9c-1-1-1.8-2.3-3-3.1c-1.3-0.8-2.9-1-4.5-0.8c-0.4,0.1-0.9,0.2-1.3,0.3c-0.7,1.9-1,3.9-1,5.9
		c0,9.7,7.8,10,17.5,10c4.7,0,8.9-0.1,12.1-1.3l-0.5-1C151.7,258.2,151.1,257.2,150.4,256.3z"/>
	<path class="st18" d="M305.7,271.4l-9.7-5.7c1.3-2.2,3-4.2,4.9-5.9l18.2,5.7l-14.3-8.4c11.2-6.2,25.3-2,31.5,9.2
		c1.9,3.4,2.9,7.3,2.9,11.1c0,12.8-10.4,13.3-23.2,13.3s-23.2-0.4-23.2-13.3c0-3.2,0.7-6.4,2-9.4L305.7,271.4z"/>
	<path class="st2" d="M303.2,283.8c1-1,2.2-1.9,3.4-2.7c1.8-1.2,3.6-2.4,5.6-2.7c1.8-0.3,3.7-0.1,5.5-0.2c3.2-0.2,6.2-1.6,8.5-3.9
		c1.3-1.4,2.4-3,3.9-4.1c1.7-1.1,3.9-1.4,5.9-1.1c0.6,0.1,1.2,0.2,1.7,0.4c0.9,2.5,1.4,5.2,1.4,7.9c0,12.8-10.4,13.3-23.2,13.3
		c-6.2,0-11.9-0.1-16-1.7l0.7-1.3C301.4,286.3,302.2,285,303.2,283.8z"/>
</g>
</svg>
