<?xml version="1.0" encoding="utf-8"?>
<!-- Generator: Adobe Illustrator 25.0.1, SVG Export Plug-In . SVG Version: 6.00 Build 0)  -->
<svg version="1.1" id="Layer_1" xmlns="http://www.w3.org/2000/svg" xmlns:xlink="http://www.w3.org/1999/xlink" x="0px" y="0px"
	 viewBox="0 0 176 163" style="enable-background:new 0 0 176 163;" xml:space="preserve">
<style type="text/css">
	.st0{fill:url(#SVGID_1_);}
	.st1{fill:url(#SVGID_2_);}
	.st2{opacity:0.3;fill:url(#SVGID_3_);}
</style>
<g>
	<g>
		
			<linearGradient id="SVGID_1_" gradientUnits="userSpaceOnUse" x1="-1540.5844" y1="-185.0589" x2="-1540.5844" y2="-348.868" gradientTransform="matrix(0.1559 -0.9878 0.9878 0.1559 589.5413 -1391.4084)">
			<stop  offset="0" style="stop-color:#7FB439"/>
			<stop  offset="1" style="stop-color:#BED630"/>
		</linearGradient>
		<path class="st0" d="M52.2,99.7L55,79.2l-56.4,35.8l45.2,47.4l2.4-18c77.5-2.7,117.8-37.6,125.6-76.9c6.1-30.7-2.4-45.8-2.4-45.8
			C171,65.8,122.6,96.7,52.2,99.7z"/>
		
			<linearGradient id="SVGID_2_" gradientUnits="userSpaceOnUse" x1="-1470.3474" y1="-193.5149" x2="-1470.3474" y2="-217.9608" gradientTransform="matrix(0.1559 -0.9878 0.9878 0.1559 589.5413 -1391.4084)">
			<stop  offset="0" style="stop-color:#66952E"/>
			<stop  offset="1" style="stop-color:#A4BA29"/>
		</linearGradient>
		<path class="st1" d="M142.6,41.8c0,0,8.6,7.3,15.6,15c7.5-9.2,11.8-20.8,11.2-35.2c-6.1-15.8-20.2-21.8-20.2-21.8L142.6,41.8z"/>
	</g>
	
		<linearGradient id="SVGID_3_" gradientUnits="userSpaceOnUse" x1="-2402.5801" y1="-267.2283" x2="-2402.5801" y2="-348.868" gradientTransform="matrix(0.1559 -0.9878 0.9878 0.1559 718.1205 -2205.8337)">
		<stop  offset="0" style="stop-color:#FFFFFF"/>
		<stop  offset="8.962709e-02" style="stop-color:#FFFFFF;stop-opacity:0.9104"/>
		<stop  offset="1" style="stop-color:#FFFFFF;stop-opacity:0"/>
	</linearGradient>
	<path class="st2" d="M52.2,99.8l2.8-20.5l-56.4,35.8l45.2,47.4l2.4-18c10.6-0.1,21.1-1.6,31.1-4.2c-4.2-12.3-6.4-26.3-5.8-42
		C65.1,99.2,58.6,99.7,52.2,99.8z"/>
</g>
</svg>
