<?xml version="1.0" encoding="utf-8"?>
<!-- Generator: Adobe Illustrator 25.0.1, SVG Export Plug-In . SVG Version: 6.00 Build 0)  -->
<svg version="1.1" id="Layer_1" xmlns="http://www.w3.org/2000/svg" xmlns:xlink="http://www.w3.org/1999/xlink" x="0px" y="0px"
	 viewBox="0 0 492 295" style="enable-background:new 0 0 492 295;" xml:space="preserve">
<style type="text/css">
	.st0{opacity:0.1;fill:#48BA13;}
	.st1{fill:#F2F2F2;}
	.st2{fill:#CCCCCC;}
	.st3{fill:#8CC63F;}
	.st4{opacity:0.5;}
	.st5{fill:url(#SVGID_1_);}
	.st6{fill:#FFFFFF;}
	.st7{fill:#F5F5F5;}
	.st8{fill:#E4572E;}
	.st9{fill:#FFC914;}
	.st10{opacity:0.5;fill:#8CC63F;enable-background:new    ;}
	.st11{fill:#E0E0E0;}
	.st12{fill:url(#SVGID_2_);}
	.st13{fill:url(#SVGID_3_);}
	.st14{fill:url(#SVGID_4_);}
	.st15{fill:#FDA57D;}
	.st16{opacity:5.000000e-02;enable-background:new    ;}
	.st17{opacity:0.1;enable-background:new    ;}
	.st18{fill:url(#SVGID_5_);}
</style>
<g>
	<path class="st0" d="M337,40.7c-23.3-0.8-45.6-8.3-66.8-16.6S228,6.7,205.2,2.3C190.6-0.5,173.8-0.9,162,7
		c-11.4,7.6-15,20.6-17,32.7c-1.5,9.1-2.4,18.7,1.7,27.2c2.8,5.9,7.8,10.9,11.3,16.6c12.1,19.7,3.5,44.1-9.5,63.3
		c-6.1,9-13.3,17.7-18,27.3c-4.7,9.6-6.9,20.6-2.8,30.5c4.1,9.7,13.9,17,24.5,22.2c21.5,10.4,46.9,13.4,71.6,15.1
		c54.8,3.7,109.8,2.1,164.7,0.5c20.3-0.6,40.7-1.2,60.7-4.4c11.1-1.7,22.6-4.5,30.6-11.2c10.2-8.5,12.8-22.9,5.9-33.5
		c-11.5-17.8-43.3-22.3-51.3-41.4c-4.4-10.5,0.1-22.3,6.5-32.1c13.8-21,36.9-39.4,38.1-63.3c0.8-16.5-10.3-33-27.5-40.7
		c-18-8.2-43-7.1-56.3,6.4C381.7,36,357.7,41.4,337,40.7z"/>
	<circle class="st1" cx="93.2" cy="220.1" r="73.9"/>
	<rect x="-0.5" y="294.1" class="st2" width="491.4" height="1.1"/>
	<path class="st3" d="M90.1,259.1c0,26.7-15.9,36-35.4,36c-0.5,0-0.9,0-1.4,0c-0.9,0-1.8-0.1-2.7-0.1c-17.7-1.2-31.4-11-31.4-35.8
		c0-25.7,32.8-58.1,35.3-60.5c0,0,0,0,0,0c0.1-0.1,0.1-0.1,0.1-0.1S90.1,232.4,90.1,259.1z"/>
	<g class="st4">
		
			<linearGradient id="SVGID_1_" gradientUnits="userSpaceOnUse" x1="244.4965" y1="17.4903" x2="244.4965" y2="238.4903" gradientTransform="matrix(1 0 0 -1 0 296)">
			<stop  offset="0" style="stop-color:#808080;stop-opacity:0.25"/>
			<stop  offset="0.54" style="stop-color:#808080;stop-opacity:0.12"/>
			<stop  offset="1" style="stop-color:#808080;stop-opacity:0.1"/>
		</linearGradient>
		<polygon class="st5" points="85.2,57.5 85.2,68.7 85.2,278.5 403.8,278.5 403.8,68.7 403.8,57.5 		"/>
	</g>
	<rect x="89.9" y="71.3" class="st6" width="310.6" height="203.3"/>
	<rect x="89.9" y="61.6" class="st7" width="310.6" height="15"/>
	<circle class="st8" cx="101.7" cy="68.8" r="3.6"/>
	<circle class="st9" cx="111.7" cy="68.8" r="3.6"/>
	<circle class="st3" cx="121.6" cy="68.8" r="3.6"/>
	<rect x="216" y="125.6" class="st10" width="57.1" height="6.1"/>
	<rect x="174.8" y="151.9" class="st11" width="62.6" height="6.1"/>
	<rect x="251.9" y="151.9" class="st3" width="62.6" height="6.1"/>
	<rect x="174.6" y="165.1" class="st11" width="139.6" height="6.1"/>
	<rect x="174.6" y="178.2" class="st11" width="139.6" height="6.1"/>
	
		<linearGradient id="SVGID_2_" gradientUnits="userSpaceOnUse" x1="244.3838" y1="78.3525" x2="244.3838" y2="89.6853" gradientTransform="matrix(1 0 0 -1 0 296)">
		<stop  offset="0" style="stop-color:#808080;stop-opacity:0.25"/>
		<stop  offset="0.54" style="stop-color:#808080;stop-opacity:0.12"/>
		<stop  offset="1" style="stop-color:#808080;stop-opacity:0.1"/>
	</linearGradient>
	<rect x="215.4" y="206.3" class="st12" width="58" height="11.3"/>
	<rect x="215.8" y="207.3" class="st3" width="57.1" height="9.3"/>
	<g class="st4">
		
			<linearGradient id="SVGID_3_" gradientUnits="userSpaceOnUse" x1="399.9091" y1="64.9987" x2="399.9091" y2="173.4256" gradientTransform="matrix(1 0 0 -1 0 296)">
			<stop  offset="0" style="stop-color:#808080;stop-opacity:0.25"/>
			<stop  offset="0.54" style="stop-color:#808080;stop-opacity:0.12"/>
			<stop  offset="1" style="stop-color:#808080;stop-opacity:0.1"/>
		</linearGradient>
		<circle class="st13" cx="399.9" cy="176.8" r="54.2"/>
	</g>
	<circle class="st7" cx="399.9" cy="176.8" r="50.7"/>
	<g class="st4">
		
			<linearGradient id="SVGID_4_" gradientUnits="userSpaceOnUse" x1="538.7689" y1="-72.7701" x2="588.2115" y2="-72.7701" gradientTransform="matrix(1 0 0 -1 -163.13 100.78)">
			<stop  offset="0" style="stop-color:#808080;stop-opacity:0.25"/>
			<stop  offset="0.54" style="stop-color:#808080;stop-opacity:0.12"/>
			<stop  offset="1" style="stop-color:#808080;stop-opacity:0.1"/>
		</linearGradient>
		<path class="st14" d="M407,164.6l-1-0.3l-0.1,0.1h-0.1v-2.6c0-0.3,0-0.6-0.1-1c1.6-1.2,2.8-2.8,3.5-4.6c4-5.2,3.1-12.7-2.2-16.7
			c-5.2-4-12.7-3.1-16.7,2.2c-3.3,4.3-3.3,10.3,0,14.6c0.7,1.8,1.9,3.4,3.5,4.6c0,0.3-0.1,0.6-0.1,1v2.9l0,0
			c-10.7,3-18.2,12.7-18.2,23.9v21.7h49.4v-21.7C425.1,177.3,417.7,167.6,407,164.6z"/>
	</g>
	<path class="st9" d="M400.3,164.1L400.3,164.1c13.1,0,23.8,10.7,23.8,23.8v20.9l0,0h-47.6l0,0v-20.9
		C376.5,174.7,387.2,164.1,400.3,164.1z"/>
	<path class="st15" d="M399.9,156.3L399.9,156.3c3.2,0,5.8,2.6,5.8,5.8v2.9c0,3.2-2.6,5.8-5.8,5.8l0,0c-3.2,0-5.8-2.6-5.8-5.8v-2.9
		C394,158.9,396.6,156.3,399.9,156.3z"/>
	<polygon class="st16" points="390,166.7 393.9,175 397.8,171.1 393.9,165.2 	"/>
	<path class="st6" d="M390.1,166.2l3.9,8.4l3.9-3.9l-3.9-6l-1.8,0.5c-0.2,0.1-0.3,0.1-0.5,0.2L390.1,166.2z"/>
	<polygon class="st16" points="409.7,166.2 405.8,175 401.9,171.1 405.9,164.9 	"/>
	<path class="st6" d="M409.6,165.8l-3.9,8.8l-3.9-3.9l4-6.3l0.7,0.2c0.8,0.2,1.6,0.5,2.3,0.8L409.6,165.8z"/>
	<polygon class="st15" points="397.6,170.4 399.8,173.6 402.1,170.4 	"/>
	<path class="st17" d="M385.5,181.9c0,0-2.3,23-0.8,24.5"/>
	<path class="st17" d="M414.1,181.9c0,0,2.3,23,0.8,24.5"/>
	<path class="st16" d="M399.9,163.4c2.1,0,4.1-0.7,5.7-1.9c-0.5-2.8-2.9-4.9-5.8-4.9l0,0c-2.9,0-5.3,2.1-5.7,4.9
		C395.8,162.7,397.8,163.4,399.9,163.4z"/>
	<circle cx="399.9" cy="149.8" r="11.5"/>
	<circle class="st15" cx="399.9" cy="153.4" r="9.7"/>
	<path class="st16" d="M392,143.8l2.5,3c0,0,10.8,1,12-1.5c1.2-2.5-7.1-4.2-7.1-4.2L392,143.8z"/>
	<path d="M392,143.5l2.5,3c0,0,10.8,1,12-1.5c1.2-2.5-7.1-4.2-7.1-4.2L392,143.5z"/>
	<ellipse class="st15" cx="390.1" cy="152.8" rx="0.7" ry="1.2"/>
	<ellipse class="st15" cx="409.6" cy="152.8" rx="0.7" ry="1.2"/>
	<g class="st4">
		
			<linearGradient id="SVGID_5_" gradientUnits="userSpaceOnUse" x1="446.7495" y1="127.0188" x2="446.7495" y2="161.7111" gradientTransform="matrix(1 0 0 -1 0 296)">
			<stop  offset="0" style="stop-color:#808080;stop-opacity:0.25"/>
			<stop  offset="0.54" style="stop-color:#808080;stop-opacity:0.12"/>
			<stop  offset="1" style="stop-color:#808080;stop-opacity:0.1"/>
		</linearGradient>
		<polygon class="st18" points="464.1,147.8 450.6,147.8 450.6,134.3 442.9,134.3 442.9,147.8 429.4,147.8 429.4,155.5 442.9,155.5 
			442.9,169 450.6,169 450.6,155.5 464.1,155.5 		"/>
	</g>
	<rect x="443.5" y="136.9" class="st3" width="6.6" height="29.5"/>
	<rect x="432" y="148.3" class="st3" width="29.5" height="6.6"/>
	<path class="st1" d="M53.4,291l13-18.1l-13,20.1l0,2.1c-0.9,0-1.8-0.1-2.7-0.1l1.4-26.7l0-0.2l0,0l0.1-2.5l-13-20.1l13.1,18.2
		l0,0.5l1.1-20.2l-11.1-20.8l11.3,17.3l1.1-41.8l0-0.1v0.1l-0.2,33l11.1-13.1l-11.1,15.9L54,252.5l10.4-17.3l-10.4,20l-0.2,10
		l15-24.1l-15.1,27.6L53.4,291z"/>
</g>
</svg>
