<?xml version="1.0" encoding="utf-8"?>
<!-- Generator: Adobe Illustrator 25.0.1, SVG Export Plug-In . SVG Version: 6.00 Build 0)  -->
<svg version="1.1" id="Layer_1" xmlns="http://www.w3.org/2000/svg" xmlns:xlink="http://www.w3.org/1999/xlink" x="0px" y="0px"
	 viewBox="0 0 716 763" style="enable-background:new 0 0 716 763;" xml:space="preserve">
<style type="text/css">
	.st0{opacity:0.1;fill:#48BA13;}
	.st1{fill:#F2F2F2;}
	.st2{fill:#CCCCCC;}
	.st3{fill:#8CC63F;}
	.st4{fill:#F4D09A;}
	.st5{fill:#2F2E41;}
	.st6{fill:#006837;}
	.st7{fill:#1A1A1A;}
	.st8{fill:#3F3D56;}
	.st9{fill:#48BA13;}
	.st10{opacity:0.1;enable-background:new    ;}
</style>
<path class="st0" d="M468.5,645.7c43-74-43-219,125-245s30-234-100-235s-254-130-363-150C76,5.7-37.8,371.8,55,541
	S447,682.7,468.5,645.7z"/>
<g>
	<circle class="st1" cx="213.6" cy="489.3" r="73.9"/>
	<rect x="76.1" y="563.3" class="st2" width="491.4" height="1.1"/>
	<path class="st3" d="M210.4,489.7c0,55.3-32.9,74.6-73.4,74.6c-0.9,0-1.9,0-2.8,0c-1.9,0-3.7-0.1-5.6-0.3
		c-36.6-2.6-65-22.9-65-74.3c0-53.2,68-120.3,73.1-125.3c0,0,0,0,0,0c0.2-0.2,0.3-0.3,0.3-0.3S210.4,434.5,210.4,489.7z"/>
	<path class="st1" d="M134.4,555.8l26.8-37.5l-26.9,41.6l-0.1,4.3c-1.9,0-3.7-0.1-5.6-0.3l2.9-55.3l0-0.4l0.1-0.1l0.3-5.2l-27-41.7
		l27.1,37.8l0.1,1.1l2.2-41.8l-23.1-43.1l23.4,35.8l2.3-86.6l0-0.3v0.3l-0.4,68.3l23-27.1l-23.1,33l-0.6,37.4l21.5-35.9l-21.6,41.4
		l-0.3,20.8l31.2-50l-31.3,57.2L134.4,555.8z"/>
	<path class="st4" d="M473.4,339.6l-10.2-10.7c0,0-11.2-16.8-19.4-12.2c-8.2,4.6,11.7,15.3,11.7,15.3l10.2,16.8L473.4,339.6z"/>
	<path d="M505.5,547.1c0,0,7.6,14.8,2,15.8c-5.6,1-33.1,2.5-33.7,1c-0.5-1.5-4.6-6.6-1.5-8.7c3.1-2,15.3-3.6,15.3-3.6l4.1-4.1
		L505.5,547.1z"/>
	<path class="st5" d="M509.6,402.8c0,0,16.3,20.4,3.1,41.3l-3.1,35.2c0,0,5.6,48.4-1.5,64.8l-1,5.6h-17.8l4.6-42.8
		c0,0-0.5-5.1-2-6.1c-1.5-1-26.5-56.1-26.5-56.1s4.1-7.6,2.5-9.2s1.5-32.1,3.1-33.1C472.4,401.3,509.6,402.8,509.6,402.8z"/>
	<polygon class="st4" points="480.5,542.6 478.5,554.3 498.4,553.3 495.8,540.5 	"/>
	<circle class="st4" cx="484.1" cy="319.2" r="15.3"/>
	<path class="st4" d="M497.9,321.7l1.5,18.4l-16.3,7.6c0,0,2.8-17.1,0.8-21.7L497.9,321.7z"/>
	<path class="st6" d="M481.1,346.7l1.5-6.1l20.9-7.6c0,0,2,0,1.5,3.6c-0.5,3.6-0.5,3.1-0.5,3.1s7.1,3.1,7.6,8.2
		c0.5,5.1,8.7,6.6,8.2,14.3c-0.5,7.6-3.1,11.7-3.1,11.7s2.5,6.1-1.5,9.7c0,0-4.1,7.1-2,12.2c2,5.1,4.6,13.8-1,12.2
		c-5.6-1.5-44.4-4.1-44.4-4.1s-5.6-20.9,0.5-28.6c0,0,0-4.6,4.6-13.8C478,352.3,481.1,346.7,481.1,346.7z"/>
	<path class="st4" d="M508.1,404.3c0,0-6.6,28-14.8,31.1c0,0-1.5,20.4-10.2,19.4c-8.7-1,0-19.4,0-19.4l9.7-35.2L508.1,404.3z"/>
	<path class="st6" d="M482.1,348.2c0,0-7.6-12.2-9.7-10.2c-2,2-12.2,8.2-11.7,12.2c0.5,4.1,5.1,4.1,5.1,4.1l10.7,8.2L482.1,348.2z"
		/>
	<path class="st5" d="M471.4,439.5l-6.1,4.4l-4.1,43.5c0,0,14.8,59.2,18.9,59.7c4.1,0.5,20.9,0.5,20.4-1c-0.5-1.5-3.1-7.6-3.1-9.2
		s-5.3-13.8-5.3-13.8l-6.9-28.6l1.5-22.4L471.4,439.5z"/>
	<path class="st7" d="M479,550.2c0,0,21.4-6.6,22.4-5.1c1,1.5,7.8,17-1.7,18.7c-9.5,1.7-43.7,4.8-43.7,0.2s1-7.6,4.1-7.6
		s16.8-6.6,17.8-8.2S479,550.2,479,550.2z"/>
	<path class="st5" d="M498.6,320.2c0.4-0.7,0.1-1.7-0.7-2c-0.4-0.2-0.9-0.2-1.4,0l0,0c-0.9,0.6-1.4,1.6-1.2,2.6
		c-1.8-1.8-0.5-5.5-2.5-7.2c-0.9-0.8-2.4-0.9-2.9-2.1c-0.3-0.6-0.1-1.4-0.3-2.1c-0.4-1-1.5-1.4-2.5-1.5c-3.2-0.5-6.5,0.3-9.7,1.2
		c-1.2,0.3-2.4,0.6-3.2,1.5c-0.9,0.9-1.2,2.2-1.8,3.3c-0.5,1.1-4.1,1-5.4,0.9c-0.4-1.2,2.8-1.3,3.1-2.6c0.7-3.5-1.8-7.3-0.6-10.6
		c0.7-2,2.7-3.4,4.6-4.3c5.4-2.6,11.6-3.1,17.4-1.5c0.6,0.1,1.1,0.4,1.6,0.8c0.7,0.7,0.9,1.8,1.4,2.7c1.1,2,3.8,2.5,5.6,3.9
		c2.7,2.2,3,6.2,3.1,9.7c0,1.8,0.1,3.6-0.6,5.2c-0.7,1.6-2.4,2.9-4.2,2.6C498.5,320.5,498.5,320.3,498.6,320.2z"/>
	<path class="st6" d="M496,353.2c4.1-2.8,9.5-2.5,13.3,0.7c3.5,3,7.3,7.3,7,11.7c-0.5,8.2-3.6,41.8-7.6,42.3
		c-4.1,0.5-18.9-3.6-18.9-6.1s3.6-5.6,3.6-5.6l-4.3-26c-1.1-6.4,1.5-12.9,6.8-16.8C495.8,353.3,495.9,353.3,496,353.2z"/>
	<path class="st8" d="M439.1,236.7H316.4c-12.2,0-22.8,8.5-25.4,20.3l-62,275c-2.6,11.4,4.6,22.6,15.9,25.2c1.2,0.3,2.4,0.4,3.6,0.5
		l126.1,6.2c14,0.7,26.3-9.1,28.8-22.9l35.2-194.4l2.6,0.7l6.7-36.9l-2.7-0.7l9.8-54.3c1.6-8.7-4.2-17.1-12.9-18.7
		C441.1,236.8,440.1,236.7,439.1,236.7z"/>
	<path class="st9" d="M332.5,242.6h-14.3c-8.5,0-15.8,5.9-17.6,14.2l-59.5,272.8c-1.3,6,2.5,12,8.5,13.3c0.5,0.1,1.1,0.2,1.7,0.2
		l125.7,8.2c7.3,0.5,13.9-4.6,15.2-11.9L443,257.5c1.2-6.9-3.3-13.5-10.2-14.7c-0.7-0.1-1.5-0.2-2.2-0.2h-13.6
		c-2.7,0-5.1,1.8-5.8,4.4l0,0c-0.6,2.3-2.7,3.9-5.1,3.9h-64.5C336.8,251,332.9,247.3,332.5,242.6L332.5,242.6z"/>
	<rect x="292.5" y="313.1" class="st5" width="130.1" height="0.6"/>
	<rect x="287.4" y="334" class="st5" width="131.4" height="0.6"/>
	<polygon class="st5" points="414.4,312.1 411.4,308.2 411.9,307.8 414.5,311.2 424.3,303.1 424.7,303.6 	"/>
	<polygon class="st5" points="397.4,405.1 394.4,401.1 395,400.7 397.5,404.1 407.4,396.1 407.8,396.6 	"/>
	
		<rect x="340.7" y="338.8" transform="matrix(2.117175e-02 -0.9998 0.9998 2.117175e-02 -72.9577 739.217)" class="st5" width="0.6" height="136.2"/>
	
		<rect x="337.8" y="356.5" transform="matrix(2.308849e-02 -0.9997 0.9997 2.308849e-02 -95.4748 754.167)" class="st5" width="0.6" height="138.8"/>
	<path class="st10" d="M353.9,478.7c0,16.8-13.6,30.4-30.5,30.4c-16.8,0-30.4-13.6-30.4-30.4c0-0.4,0-0.8,0-1.1
		c0.6-16.8,14.8-29.9,31.6-29.3C340.9,448.8,353.9,462.3,353.9,478.7z"/>
	<path class="st10" d="M351,490.5c0,0.4,0,0.8,0,1.1c-7.2,15.2-25.3,21.7-40.5,14.5c-10.7-5-17.4-15.8-17.4-27.5c0-0.4,0-0.8,0-1.1
		c7.2-15.2,25.3-21.7,40.5-14.5C344.2,468,351,478.7,351,490.5L351,490.5z"/>
	<polygon class="st1" points="317.3,487 306.4,472.6 309,470.7 317.8,482.4 352.5,454 354.6,456.5 	"/>
</g>
</svg>
