<?xml version="1.0" encoding="utf-8"?>
<!-- Generator: Adobe Illustrator 25.0.1, SVG Export Plug-In . SVG Version: 6.00 Build 0)  -->
<svg version="1.1" id="Layer_1" xmlns="http://www.w3.org/2000/svg" xmlns:xlink="http://www.w3.org/1999/xlink" x="0px" y="0px"
	 viewBox="0 0 654 569" style="enable-background:new 0 0 654 569;" xml:space="preserve">
<style type="text/css">
	.st0{opacity:0.1;fill:#48BA13;enable-background:new    ;}
	.st1{fill:#FFBEC7;}
	.st2{fill:url(#SVGID_1_);}
	.st3{fill:url(#SVGID_2_);}
	.st4{fill:url(#SVGID_3_);}
	.st5{fill:url(#SVGID_4_);}
	.st6{fill:url(#SVGID_5_);}
	.st7{fill:#DFE5EE;}
	.st8{opacity:5.000000e-02;enable-background:new    ;}
	.st9{fill:#48BA13;}
	.st10{opacity:0.5;fill:#EFF4F8;enable-background:new    ;}
	.st11{fill:url(#SVGID_6_);}
	.st12{fill:#535461;}
	.st13{fill:#F1F1F4;}
	.st14{fill:#FFFFFF;}
	.st15{fill:url(#SVGID_7_);}
	.st16{fill:url(#SVGID_8_);}
	.st17{fill:#FF1D25;}
	.st18{fill:url(#SVGID_9_);}
</style>
<g>
	<path class="st0" d="M-0.1,291.7c2,21.9,14.4,41.7,21.9,62.6c10.7,29.6,11.7,61.9,2.9,92.1c-1.8,6.2-4,12.4-4,18.8
		c0,21.9,25,36.5,47.7,46.2c57.7,24.5,117.9,42.7,179.6,54.3c20.2,3.8,45.3,5.5,58.1-8.9c6.1-6.9,7.6-15.9,12.1-23.6
		c11.5-19.7,39.4-27.3,64.4-31.7c30.2-5.3,60.7-8.8,91.3-10.5c30.8-1.7,65.8-3.2,86.2-23.5c13-12.9,16.8-30.6,17.3-47.4
		c1.7-55-24.6-114.5,9.1-162.1c14.1-20,37.2-34.6,51.2-54.6c20.3-29,18.6-65.9,4.8-96.8c-13.8-30.9-38.1-57.2-62.1-83
		c-7.9-8.5-16.4-17.4-28.3-21.3c-12.4-4.1-26.5-2.2-39.8-0.3c-60.5,8.8-123.4,18.5-174.1,48.8C313,66,291.9,85.5,269.4,103.5
		c-48.6,38.8-104.9,74.7-169,90.1C48.3,206-4.7,239.6-0.1,291.7z"/>
	<path class="st1" d="M198,135.8c0,0-41.9-7.4,0,49.3V135.8z"/>
	
		<linearGradient id="SVGID_1_" gradientUnits="userSpaceOnUse" x1="500.8089" y1="-24.8253" x2="500.8089" y2="370.2098" gradientTransform="matrix(1 0 0 -1 -147.3 512.83)">
		<stop  offset="0" style="stop-color:#808080;stop-opacity:0.25"/>
		<stop  offset="0.54" style="stop-color:#808080;stop-opacity:0.12"/>
		<stop  offset="1" style="stop-color:#808080;stop-opacity:0.1"/>
	</linearGradient>
	<path class="st2" d="M485.4,422.6c0,0-6.1-6.9-22.8-2.7c-8.2-7.8-18.4-19.1-18.8-27.3c-3.4,1.1-6.7,2.4-10,3.8
		c-14.2-15.8-32.3-41-31.6-65.1c1.3-39.5-25.8-107.7-25.8-107.7s2.2-27.8-2-50.8c-2.8-15.6-8.7-29-20.1-30c-1.8-0.2-3.5,0-5.2,0.6
		c-21.1,7.2-8,74.6-8,74.6l-18.3,56.4l-107.1,57c0,0,64.9,85.2,96.4,88.3c0,0,23.2,24.3,39.9,45.7c-5.9,7.9-9.1,13.2-9.1,13.2
		l16.2,23c-6.6,8.9-16,26.4,4.6,34.6c28.3,11.3,90.7-40.1,90.7-40.1S508.7,460.2,485.4,422.6z"/>
	
		<linearGradient id="SVGID_2_" gradientUnits="userSpaceOnUse" x1="334.4054" y1="327.2661" x2="334.4054" y2="377.695" gradientTransform="matrix(1 0 0 -1 -147.3 512.83)">
		<stop  offset="0" style="stop-color:#808080;stop-opacity:0.25"/>
		<stop  offset="0.54" style="stop-color:#808080;stop-opacity:0.12"/>
		<stop  offset="1" style="stop-color:#808080;stop-opacity:0.1"/>
	</linearGradient>
	<path class="st3" d="M196.6,135.5c0,0-42.8-7.5,0,50.1V135.5z"/>
	
		<linearGradient id="SVGID_3_" gradientUnits="userSpaceOnUse" x1="334.19" y1="289.16" x2="334.19" y2="323.8096" gradientTransform="matrix(1 0 0 -1 -147.3 512.83)">
		<stop  offset="0" style="stop-color:#808080;stop-opacity:0.25"/>
		<stop  offset="0.54" style="stop-color:#808080;stop-opacity:0.12"/>
		<stop  offset="1" style="stop-color:#808080;stop-opacity:0.1"/>
	</linearGradient>
	<path class="st4" d="M186.9,189c0,0-15.7,0-15.3,19.4c0.1,6.7,4.4,12.5,10.7,14.6c3.3,1.1,7,0.8,10.1-0.7
		c8.7-4.2,12.4-14.8,8.2-23.5c-0.8-1.6-1.7-3-2.9-4.3C194.7,191.5,190.9,189.6,186.9,189z"/>
	
		<linearGradient id="SVGID_4_" gradientUnits="userSpaceOnUse" x1="336.7855" y1="252.2241" x2="336.7855" y2="285.6016" gradientTransform="matrix(1 0 0 -1 -147.3 512.83)">
		<stop  offset="0" style="stop-color:#808080;stop-opacity:0.25"/>
		<stop  offset="0.54" style="stop-color:#808080;stop-opacity:0.12"/>
		<stop  offset="1" style="stop-color:#808080;stop-opacity:0.1"/>
	</linearGradient>
	<path class="st5" d="M194.4,228.3c-1.4-0.7-2.9-1.1-4.4-1.1c0,0-15.1,3.8-12.6,21.9c0,0,1.3,13.2,14.5,11.3
		c9.1-1.3,10.1-13.2,9.9-20.5C201.7,235,198.9,230.5,194.4,228.3z"/>
	
		<linearGradient id="SVGID_5_" gradientUnits="userSpaceOnUse" x1="336.4193" y1="194.1478" x2="336.4193" y2="237.3708" gradientTransform="matrix(1 0 0 -1 -147.3 512.83)">
		<stop  offset="0" style="stop-color:#808080;stop-opacity:0.25"/>
		<stop  offset="0.54" style="stop-color:#808080;stop-opacity:0.12"/>
		<stop  offset="1" style="stop-color:#808080;stop-opacity:0.1"/>
	</linearGradient>
	<path class="st6" d="M195.1,276.5c-1.2-0.7-2.5-1-3.8-1.1c-1.6,1-3.2,2.2-4.7,3.4c-2.5,2.1-4.6,4.4-6.5,7
		c-5.7,8.3-7.6,20.4,13.7,32.7v-16.3c2.6-2.5,4.9-5.3,6.6-8.5C203.7,287.6,201.3,279.9,195.1,276.5z"/>
	<path class="st7" d="M341.2,472.9c0,0,38.8-64.7,98.5-84.4l-3.1,35.1l-49.5,49.3L341.2,472.9z"/>
	<path class="st8" d="M341.2,472.9c0,0,38.8-64.7,98.5-84.4l-3.1,35.1l-49.5,49.3L341.2,472.9z"/>
	<path class="st9" d="M361.5,490.2c0,0-27.7,28.3,0,39.4s88.7-39.4,88.7-39.4s53-35.1,30.2-72.1
		C480.4,418.1,454.5,388.6,361.5,490.2z"/>
	<path class="st1" d="M445.9,408.3c0,0-80.7,93.6-79.4,80c0.4-3.9-4.2-11.8-10.8-20.9c-16.1-22.3-44.6-52.3-44.6-52.3
		c-30.8-3.1-94.2-86.8-94.2-86.8l104.7-56l17.9-55.4c0,0-12.8-66.3,7.8-73.3c1.6-0.6,3.4-0.7,5.1-0.6c0.8,0.1,1.5,0.2,2.2,0.4
		c9.7,2.4,14.8,14.7,17.3,28.9c0,0.1,0,0.2,0.1,0.2c4.1,22.6,1.9,50,1.9,50s26.5,67.1,25.3,105.9c-0.8,26,20.4,53.1,34.6,68.1
		C440.7,403.8,445.9,408.3,445.9,408.3z"/>
	<path class="st8" d="M334.4,358.4c0,0,1.2-58.5-9.2-73.3c-10.5-14.8-94.9,46.8-94.9,46.8S317.8,342.4,334.4,358.4z"/>
	<path class="st8" d="M361.5,379.4c0,0,38-22.5,37.5-58.7"/>
	<path class="st8" d="M341.2,400.9c0,0-10.5,14.8-30.2,14.2"/>
	<path class="st8" d="M445.9,408.3c0,0-80.7,93.6-79.4,80c0.4-3.9-4.2-11.8-10.8-20.9c44.7-15.3,68.9-53.6,78-71.1
		C440.7,403.8,445.9,408.3,445.9,408.3z"/>
	<path class="st7" d="M467.8,425.3c0,0.2,0,0.4-0.1,0.5c-1.2,6.2-2.2,12.5-3.2,18.8c-0.3,2-0.8,4-1.4,5.9c-1.8,5.1-4.4,9.9-7.8,14.1
		c-24.5,31.1-87,47.1-87,47.1l-0.2-0.3l-26.9-38.5c70.8-13.5,98.5-84.4,98.5-84.4c0.5,11.8,21.7,30.2,27.1,34.7
		C467.5,423.8,467.8,424.5,467.8,425.3L467.8,425.3z"/>
	<path class="st10" d="M371.9,172.1c-17.9-2.3-19.3-17.6-17.9-28.7c0.2-0.1,0.4-0.1,0.6-0.2C364.2,145.7,369.3,157.9,371.9,172.1z"
		/>
	<path class="st8" d="M467.8,425.3c0,0.2,0,0.4-0.1,0.5c-1.2,6.2-2.2,12.5-3.2,18.8c-0.3,2-0.8,4-1.4,5.9l-1.5,4.2l-3.7,6.1
		l-2.6,3.7c-24.5,31.1-87,47.1-87,47.1l-0.2-0.3c2-0.8,44.1-18.2,60.9-33.8c16-14.8,35.6-48.7,38.5-53.6
		C467.7,424.3,467.8,424.8,467.8,425.3z"/>
	<path d="M459.1,457.9"/>
	
		<linearGradient id="SVGID_6_" gradientUnits="userSpaceOnUse" x1="416.3408" y1="174.4989" x2="416.3408" y2="474.3759" gradientTransform="matrix(1 0 0 -1 -147.3 512.83)">
		<stop  offset="0" style="stop-color:#808080;stop-opacity:0.25"/>
		<stop  offset="0.54" style="stop-color:#808080;stop-opacity:0.12"/>
		<stop  offset="1" style="stop-color:#808080;stop-opacity:0.1"/>
	</linearGradient>
	<path class="st11" d="M331.8,38.5H206.2c-6.9,0-12.4,5.5-12.4,12.4c0,0,0,0,0,0v275.1c0,6.9,5.6,12.4,12.4,12.4c0,0,0,0,0,0h125.6
		c6.9,0,12.4-5.5,12.4-12.4c0,0,0,0,0,0V50.9C344.3,44,338.7,38.4,331.8,38.5z"/>
	<path class="st12" d="M202.9,40.7h132.3c4.4,0,7.9,3.6,7.9,7.9v280.5c0,4.4-3.6,7.9-7.9,7.9H202.9c-4.4,0-7.9-3.6-7.9-7.9V48.7
		C194.9,44.3,198.5,40.7,202.9,40.7z"/>
	<rect x="205.9" y="68.3" class="st13" width="126.4" height="241.3"/>
	<circle class="st14" cx="254.1" cy="54.5" r="1.1"/>
	<path class="st14" d="M260.6,53.4h23.8c0.4,0,0.7,0.3,0.7,0.7V55c0,0.4-0.3,0.7-0.7,0.7h-23.8c-0.4,0-0.7-0.3-0.7-0.7v-0.9
		C259.8,53.7,260.2,53.4,260.6,53.4z"/>
	<circle class="st14" cx="268.5" cy="321.1" r="8"/>
	<path class="st1" d="M188.5,188.4c0,0-15.3,0-15,19c0.1,6.5,4.2,12.3,10.4,14.4c3.3,1.1,6.8,0.8,9.9-0.7
		c8.6-4.2,12.1-14.6,7.9-23.2C199.1,192.8,194.2,189.2,188.5,188.4z"/>
	<path class="st10" d="M188.5,198.2c0,0-14.2,9.9-1.8,18.5C186.6,216.7,185.4,199.5,188.5,198.2z"/>
	<path class="st1" d="M191.6,226c0,0-14.8,3.7-12.3,21.6c0,0,1.2,12.9,14.2,11.1c8.9-1.3,9.9-13,9.7-20.2c-0.1-4.8-2.9-9.2-7.2-11.4
		C194.6,226.3,193.1,226,191.6,226z"/>
	<path class="st10" d="M190.9,234c0,0-14.2,5.5,0,20.9C190.9,254.9,184.2,240.1,190.9,234z"/>
	<path class="st1" d="M195.3,299.9v16c-20.8-12.1-19-24.1-13.4-32.2c1.8-2.6,4-4.9,6.4-6.9c1.4-1.2,3-2.4,4.6-3.4
		c1.3,0.1,2.6,0.4,3.7,1.1c6.1,3.3,8.4,10.9,5.2,17.1C200,294.7,197.8,297.5,195.3,299.9z"/>
	<path class="st10" d="M184.8,291.9c0,0-1.6-3.9-2.9-8.2c1.8-2.6,4-4.9,6.4-6.9C192.3,283.5,184.8,291.9,184.8,291.9z"/>
	<path class="st8" d="M371.7,222.6c0,0-16,17.9-20.9,19.7"/>
	
		<linearGradient id="SVGID_7_" gradientUnits="userSpaceOnUse" x1="414.4474" y1="338.4821" x2="414.4474" y2="372.1605" gradientTransform="matrix(1 0 0 -1 -147.3 512.83)">
		<stop  offset="0" style="stop-color:#808080;stop-opacity:0.25"/>
		<stop  offset="0.54" style="stop-color:#808080;stop-opacity:0.12"/>
		<stop  offset="1" style="stop-color:#808080;stop-opacity:0.1"/>
	</linearGradient>
	<path class="st15" d="M310.1,151.6h-60.6v0.7c-2.9-8.8-12.4-13.7-21.2-10.8c-8.8,2.9-13.7,12.4-10.8,21.2
		c2.9,8.8,12.4,13.7,21.2,10.8c5.1-1.7,9.1-5.7,10.8-10.8v0.7h60.6l7.6-5.9L310.1,151.6z M233.5,171.1c-7.5,0-13.6-6.1-13.6-13.6
		c0-7.5,6.1-13.6,13.6-13.6c7.5,0,13.6,6.1,13.6,13.6C247.1,165,241,171.1,233.5,171.1L233.5,171.1L233.5,171.1z"/>
	<path class="st9" d="M234,140.9c-9.2,0-16.6,7.4-16.6,16.6s7.4,16.6,16.6,16.6s16.6-7.4,16.6-16.6l0,0
		C250.6,148.4,243.2,140.9,234,140.9z M234,144.1c7.4,0,13.4,6,13.4,13.4c0,7.4-6,13.4-13.4,13.4c-7.4,0-13.4-6-13.4-13.4
		C220.6,150.1,226.6,144.1,234,144.1C234,144.1,234,144.1,234,144.1"/>
	<polygon class="st9" points="309.4,163.3 249.8,163.3 249.8,151.7 309.4,151.7 316.8,157.5 	"/>
	
		<linearGradient id="SVGID_8_" gradientUnits="userSpaceOnUse" x1="414.4474" y1="294.5953" x2="414.4474" y2="328.2736" gradientTransform="matrix(1 0 0 -1 -147.3 512.83)">
		<stop  offset="0" style="stop-color:#808080;stop-opacity:0.25"/>
		<stop  offset="0.54" style="stop-color:#808080;stop-opacity:0.12"/>
		<stop  offset="1" style="stop-color:#808080;stop-opacity:0.1"/>
	</linearGradient>
	<path class="st16" d="M310.1,195.5h-60.6v0.7c-2.9-8.8-12.4-13.7-21.2-10.8c-8.8,2.9-13.7,12.4-10.8,21.2
		c2.9,8.8,12.4,13.7,21.2,10.8c5.1-1.7,9.1-5.7,10.8-10.8v0.7h60.6l7.6-5.9L310.1,195.5z M233.5,215c-7.5,0-13.6-6.1-13.6-13.6
		c0-7.5,6.1-13.6,13.6-13.6c7.5,0,13.6,6.1,13.6,13.6C247.1,208.9,241,215,233.5,215C233.5,215,233.5,215,233.5,215L233.5,215z"/>
	<path class="st17" d="M234,184.8c-9.2,0-16.6,7.4-16.6,16.6S224.9,218,234,218s16.6-7.4,16.6-16.6l0,0
		C250.6,192.3,243.2,184.8,234,184.8z M234,188c7.4,0,13.4,6,13.4,13.4c0,7.4-6,13.4-13.4,13.4c-7.4,0-13.4-6-13.4-13.4
		C220.7,194,226.6,188,234,188C234,188,234,188,234,188"/>
	<polygon class="st17" points="309.4,207.2 249.8,207.2 249.8,195.6 309.4,195.6 316.8,201.4 	"/>
	
		<linearGradient id="SVGID_9_" gradientUnits="userSpaceOnUse" x1="384.8688" y1="346.7957" x2="384.8688" y2="369.7782" gradientTransform="matrix(1 0 0 -1 -147.3 512.83)">
		<stop  offset="0" style="stop-color:#808080;stop-opacity:0.25"/>
		<stop  offset="0.54" style="stop-color:#808080;stop-opacity:0.12"/>
		<stop  offset="1" style="stop-color:#808080;stop-opacity:0.1"/>
	</linearGradient>
	<path class="st18" d="M252.4,145.8l-2.4-2.4c-0.5-0.5-1.3-0.5-1.8,0c0,0,0,0,0,0l-14.9,14.8l-6.3-6.4c-0.5-0.5-1.3-0.5-1.8,0
		c0,0,0,0,0,0l-2.4,2.4c-0.5,0.5-0.5,1.3,0,1.8c0,0,0,0,0,0l9.6,9.7c0.5,0.5,1.3,0.5,1.8,0c0,0,0,0,0,0l18.2-18
		C252.8,147.1,252.8,146.3,252.4,145.8C252.4,145.8,252.4,145.8,252.4,145.8L252.4,145.8z"/>
	<path class="st9" d="M251.6,145.5l-2.3-2.3c-0.5-0.5-1.2-0.5-1.7,0l-14.2,14.1l-6-6.1c-0.5-0.5-1.2-0.5-1.7,0l-2.3,2.3
		c-0.5,0.5-0.5,1.2,0,1.7l9.1,9.2c0.5,0.5,1.2,0.5,1.7,0l17.3-17.2C252.1,146.7,252.1,146,251.6,145.5L251.6,145.5z"/>
</g>
</svg>
