<?xml version="1.0" encoding="utf-8"?>
<!-- Generator: Adobe Illustrator 25.0.1, SVG Export Plug-In . SVG Version: 6.00 Build 0)  -->
<svg version="1.1" id="Layer_1" xmlns="http://www.w3.org/2000/svg" xmlns:xlink="http://www.w3.org/1999/xlink" x="0px" y="0px"
	 viewBox="0 0 572 251" style="enable-background:new 0 0 572 251;" xml:space="preserve">
<style type="text/css">
	.st0{fill:url(#SVGID_1_);}
	.st1{opacity:0.1;fill:#48BA13;}
	.st2{fill:#F2F2F2;}
	.st3{fill:#FFFFFF;}
	.st4{fill:#E4572E;}
	.st5{fill:#FFC914;}
	.st6{fill:#8CC63F;}
	.st7{fill:none;stroke:#F2F2F2;stroke-width:2;stroke-miterlimit:10;}
	.st8{fill:#006837;}
	.st9{opacity:0.5;fill:#8CC63F;enable-background:new    ;}
	.st10{fill:#3ACC6C;}
	.st11{fill:none;stroke:#3F3D56;stroke-width:4;stroke-miterlimit:10;}
	.st12{opacity:0.1;enable-background:new    ;}
	.st13{fill:#656380;}
	.st14{opacity:0.2;enable-background:new    ;}
	.st15{fill:#FFC1C7;}
	.st16{fill:#333333;}
	.st17{fill:#3C354C;}
	.st18{opacity:0.1;fill:none;stroke:#000000;stroke-miterlimit:10;enable-background:new    ;}
	.st19{opacity:0.9;fill:#8CC63F;enable-background:new    ;}
</style>
<g>
	<linearGradient id="SVGID_1_" gradientUnits="userSpaceOnUse" x1="79.887" y1="125.5131" x2="492.6965" y2="125.5131">
		<stop  offset="0" style="stop-color:#808080;stop-opacity:0.25"/>
		<stop  offset="0.54" style="stop-color:#808080;stop-opacity:0.12"/>
		<stop  offset="1" style="stop-color:#808080;stop-opacity:0.1"/>
	</linearGradient>
	<path class="st0" d="M93.8,240.2c-7.7,0-13.9-6.2-13.9-13.9V24.8c0-7.7,6.2-13.9,13.9-13.9h385c7.7,0,13.9,6.2,13.9,13.9v201.5
		c0,7.7-6.2,13.9-13.9,13.9H93.8z"/>
	<ellipse class="st1" cx="286.3" cy="241.2" rx="285.6" ry="10.2"/>
	<path class="st2" d="M93.8,14.8h385c5.5,0,9.9,4.4,9.9,9.9v201.5c0,5.5-4.4,9.9-9.9,9.9h-385c-5.5,0-9.9-4.4-9.9-9.9V24.8
		C83.9,19.3,88.3,14.8,93.8,14.8z"/>
	<path class="st3" d="M488.7,24.8v5.6H83.9v-5.6c0-5.5,4.4-9.9,9.9-9.9c0,0,0,0,0,0h385C484.3,14.8,488.7,19.3,488.7,24.8z"/>
	<circle class="st4" cx="94.3" cy="22.9" r="2.9"/>
	<circle class="st5" cx="101.6" cy="22.9" r="2.9"/>
	<circle class="st6" cx="108.9" cy="22.9" r="2.9"/>
	<path class="st7" d="M163.7,121.4"/>
	<path class="st7" d="M156.9,120.9"/>
	<path class="st3" d="M150,56.1h37.6c2.5,0,4.5,2,4.5,4.5v28.8c0,2.5-2,4.5-4.5,4.5H150c-2.5,0-4.5-2-4.5-4.5V60.6
		C145.5,58.1,147.5,56.1,150,56.1z"/>
	<path class="st8" d="M204.4,56.1H242c2.5,0,4.5,2,4.5,4.5v28.8c0,2.5-2,4.5-4.5,4.5h-37.6c-2.5,0-4.5-2-4.5-4.5V60.6
		C199.9,58.1,201.9,56.1,204.4,56.1z"/>
	<path class="st3" d="M258.8,56.1h37.6c2.5,0,4.5,2,4.5,4.5v28.8c0,2.5-2,4.5-4.5,4.5h-37.6c-2.5,0-4.5-2-4.5-4.5V60.6
		C254.3,58.1,256.3,56.1,258.8,56.1z"/>
	<path class="st3" d="M313.1,56.1h37.6c2.5,0,4.5,2,4.5,4.5v28.8c0,2.5-2,4.5-4.5,4.5h-37.6c-2.5,0-4.5-2-4.5-4.5V60.6
		C308.6,58.1,310.6,56.1,313.1,56.1z"/>
	<path class="st8" d="M367.5,56.1h37.6c2.5,0,4.5,2,4.5,4.5v28.8c0,2.5-2,4.5-4.5,4.5h-37.6c-2.5,0-4.5-2-4.5-4.5V60.6
		C363,58.1,365,56.1,367.5,56.1z"/>
	<path class="st3" d="M150,119.7h37.6c2.5,0,4.5,2,4.5,4.5V153c0,2.5-2,4.5-4.5,4.5H150c-2.5,0-4.5-2-4.5-4.5v-28.8
		C145.5,121.7,147.5,119.7,150,119.7z"/>
	<path class="st3" d="M204.4,119.7H242c2.5,0,4.5,2,4.5,4.5V153c0,2.5-2,4.5-4.5,4.5h-37.6c-2.5,0-4.5-2-4.5-4.5v-28.8
		C199.9,121.7,201.9,119.7,204.4,119.7z"/>
	<path class="st8" d="M258.8,119.7h37.6c2.5,0,4.5,2,4.5,4.5V153c0,2.5-2,4.5-4.5,4.5h-37.6c-2.5,0-4.5-2-4.5-4.5v-28.8
		C254.3,121.7,256.3,119.7,258.8,119.7z"/>
	<path class="st3" d="M313.1,119.7h37.6c2.5,0,4.5,2,4.5,4.5V153c0,2.5-2,4.5-4.5,4.5h-37.6c-2.5,0-4.5-2-4.5-4.5v-28.8
		C308.6,121.7,310.6,119.7,313.1,119.7z"/>
	<path class="st3" d="M367.5,119.7h37.6c2.5,0,4.5,2,4.5,4.5V153c0,2.5-2,4.5-4.5,4.5h-37.6c-2.5,0-4.5-2-4.5-4.5v-28.8
		C363,121.7,365,119.7,367.5,119.7z"/>
	<path class="st3" d="M150,183.3h37.6c2.5,0,4.5,2,4.5,4.5v28.8c0,2.5-2,4.5-4.5,4.5H150c-2.5,0-4.5-2-4.5-4.5v-28.8
		C145.5,185.3,147.5,183.3,150,183.3z"/>
	<path class="st3" d="M204.4,183.3H242c2.5,0,4.5,2,4.5,4.5v28.8c0,2.5-2,4.5-4.5,4.5h-37.6c-2.5,0-4.5-2-4.5-4.5v-28.8
		C199.9,185.3,201.9,183.3,204.4,183.3z"/>
	<path class="st3" d="M258.8,183.3h37.6c2.5,0,4.5,2,4.5,4.5v28.8c0,2.5-2,4.5-4.5,4.5h-37.6c-2.5,0-4.5-2-4.5-4.5v-28.8
		C254.3,185.3,256.3,183.3,258.8,183.3z"/>
	<path class="st9" d="M313.1,183.3h37.6c2.5,0,4.5,2,4.5,4.5v28.8c0,2.5-2,4.5-4.5,4.5h-37.6c-2.5,0-4.5-2-4.5-4.5v-28.8
		C308.6,185.3,310.6,183.3,313.1,183.3z"/>
	<path class="st3" d="M367.5,183.3h37.6c2.5,0,4.5,2,4.5,4.5v28.8c0,2.5-2,4.5-4.5,4.5h-37.6c-2.5,0-4.5-2-4.5-4.5v-28.8
		C363,185.3,365,183.3,367.5,183.3z"/>
	<path class="st10" d="M257.3,49.1l-2.5-2.5c-0.5-0.5-1.3-0.5-1.8,0c0,0,0,0,0,0l-15.4,15.3l-6.5-6.6c-0.5-0.5-1.3-0.5-1.8,0
		c0,0,0,0,0,0l-2.5,2.5c-0.5,0.5-0.5,1.3,0,1.9l9.9,10c0.5,0.5,1.3,0.5,1.9,0L257.3,51C257.8,50.5,257.8,49.7,257.3,49.1
		C257.3,49.1,257.3,49.1,257.3,49.1z"/>
	<path class="st10" d="M422.3,49.1l-2.5-2.5c-0.5-0.5-1.3-0.5-1.8,0c0,0,0,0,0,0l-15.4,15.3l-6.5-6.6c-0.5-0.5-1.3-0.5-1.8,0
		c0,0,0,0,0,0l-2.5,2.5c-0.5,0.5-0.5,1.3,0,1.9l9.9,10c0.5,0.5,1.3,0.5,1.9,0L422.3,51C422.8,50.5,422.8,49.7,422.3,49.1
		C422.3,49.1,422.3,49.1,422.3,49.1z"/>
	<path class="st10" d="M311.6,112.2l-2.5-2.5c-0.5-0.5-1.3-0.5-1.8,0c0,0,0,0,0,0L291.9,125l-6.5-6.6c-0.5-0.5-1.3-0.5-1.8,0
		c0,0,0,0,0,0l-2.5,2.5c-0.5,0.5-0.5,1.3,0,1.9l9.9,10c0.5,0.5,1.3,0.5,1.9,0l18.8-18.7C312.2,113.6,312.2,112.8,311.6,112.2
		C311.6,112.2,311.6,112.2,311.6,112.2z"/>
	<path class="st10" d="M365.5,178.2l-2.5-2.5c-0.5-0.5-1.3-0.5-1.8,0c0,0,0,0,0,0l-15.4,15.3l-6.5-6.6c-0.5-0.5-1.3-0.5-1.8,0
		c0,0,0,0,0,0l-2.5,2.4c-0.5,0.5-0.5,1.3,0,1.9l9.9,10c0.5,0.5,1.3,0.5,1.9,0l18.8-18.7C366,179.6,366,178.8,365.5,178.2z"/>
	<path class="st11" d="M90.1,236.9c-2.1-3.9,0.3-8.8,3.1-12.3c2.8-3.5,6.2-7.2,6.1-11.6c-0.1-6.4-6.9-10.2-12.4-13.7
		c-4.1-2.5-7.8-5.5-11.1-9c-1.4-1.3-2.5-2.9-3.4-4.6c-1.1-2.5-1.1-5.4-1-8.1c0.2-9.2,0.7-18.4,1.4-27.5"/>
	<path class="st10" d="M62.2,149.6c0.2-3.4,2-6.5,5-8.3l2.3,4.5l-0.1-5.4c5.3-1.6,10.9,1.5,12.5,6.8s-1.5,10.9-6.8,12.5
		c-5.3,1.6-10.9-1.5-12.5-6.8C62.3,151.8,62.2,150.7,62.2,149.6L62.2,149.6z"/>
	<path class="st10" d="M80.2,217.6c2.5,4.9,8.6,6.9,13.5,4.3s6.9-8.6,4.3-13.5c-2.5-4.9-8.6-6.9-13.5-4.3c-2.2,1.1-3.9,3.1-4.8,5.4
		l6.3,5.1L79,213C79,214.6,79.4,216.1,80.2,217.6z"/>
	<path class="st10" d="M85.1,198.1c5.5,0.3,10.2-4,10.5-9.6c0.2-4.7-2.8-8.9-7.3-10.1l0.1,4.1l-2.3-4.5h0
		c-5.5-0.3-10.3,3.9-10.7,9.4c-0.3,5.5,3.9,10.3,9.4,10.7C84.9,198.1,85,198.1,85.1,198.1z"/>
	<path class="st10" d="M60.7,181.8c5.5,0.3,10.2-4,10.5-9.6c0.1-1.6-0.3-3.3-1-4.8c-2.4-5-8.3-7.2-13.4-4.8
		c-0.2,0.1-0.4,0.2-0.6,0.3l1.8,4.9l-3.7-3.5c-4.1,3.8-4.4,10.1-0.6,14.2C55.6,180.5,58.1,181.7,60.7,181.8L60.7,181.8z"/>
	<path class="st12" d="M63.6,152.2c2.3,0.3,4.6,1,6.9,1.1s4.9-0.4,6.4-2.2c0.8-1,1.2-2.2,1.9-3.3c0.6-1,1.5-1.8,2.5-2.4
		c2.5,4.9,0.5,11-4.4,13.5c-4.9,2.5-11,0.5-13.5-4.4c-0.4-0.8-0.7-1.6-0.9-2.4C62.8,152.2,63.2,152.2,63.6,152.2z"/>
	<path class="st12" d="M60.7,181.8c5.5,0.3,10.2-4,10.5-9.6c0.1-1.6-0.3-3.3-1-4.8c-0.8,0.5-1.5,1.2-2,2c-0.7,1.1-1.2,2.3-2,3.3
		c-1.6,1.8-4.2,2.4-6.7,2.3c-2.4-0.1-4.8-0.8-7.2-1c-0.3,0-0.7-0.1-1-0.1C52.4,178.5,56.2,181.6,60.7,181.8z"/>
	<path class="st12" d="M85.1,198.1c5.5,0.3,10.2-4,10.5-9.6c0.1-1.6-0.2-3.1-0.9-4.6c-0.8,0.5-1.5,1.2-2.1,2
		c-0.8,1.1-1.3,2.4-2.2,3.4c-1.7,1.9-4.5,2.6-7.1,2.5c-2.5-0.1-4.9-0.7-7.4-0.9C77.2,195,80.9,197.9,85.1,198.1z"/>
	<path class="st12" d="M80.2,217.6c2.5,4.9,8.6,6.9,13.5,4.3c4.6-2.3,6.6-7.7,4.8-12.5c-0.8,0.5-1.6,1.2-2.2,1.9
		c-1,1.2-1.6,2.5-2.7,3.6c-2.1,2-5.4,2.8-8.3,2.9C83.6,217.8,81.9,217.7,80.2,217.6z"/>
	<path class="st13" d="M105.2,232.4c0,0-7.9-0.2-10.3-1.9c-2.4-1.7-12.2-3.7-12.8-1c-0.6,2.7-11.9,13.6-3,13.6
		c9,0.1,20.8-1.4,23.2-2.8S105.2,232.4,105.2,232.4z"/>
	<path class="st14" d="M79,242.1c9,0.1,20.8-1.4,23.2-2.8c1.8-1.1,2.5-5.1,2.8-6.9h0.3c0,0-0.5,6.4-2.9,7.8
		c-2.4,1.5-14.2,2.9-23.2,2.8c-2.6,0-3.5-0.9-3.4-2.3C76.1,241.6,77.1,242.1,79,242.1z"/>
	<path class="st15" d="M418.7,212.7c-0.1,0.2-0.1,0.4-0.2,0.6c-0.8,5.1-5.2,8.8-6.8,13.7c-1,3.2-0.8,6.6,0.6,9.6
		c0.3,0.4,0.4,0.9,0.4,1.4c0,0.5-0.4,1-0.9,1c-1.2-0.1-2.1-1-3.1-1.6c-1.2-0.8-2.3-1.7-3.1-2.9c-0.8-1.2-1.2-2.7-0.9-4.1
		c0.6-2.7,2.6-5,3.2-7.7l1.7-6.8c0.2-1.3,0.7-2.5,1.4-3.7c0.3-0.4,0.7-0.8,1.1-1c0.3-0.1,0.6-0.1,0.9-0.1
		C414.9,211.3,416.9,212.1,418.7,212.7z"/>
	<path class="st16" d="M411.9,235.9c0.2,0,0.4,0,0.5,0c0.2,0.2,0.4,0.4,0.5,0.6c0.5,1,1.3,1.8,2.3,2.3c0.4,0.2,0.8,0.4,1.1,0.6
		c0.4,0.3,0.6,0.7,0.5,1.1c-0.1,0.6-0.8,1-1.4,1.2c-1.3,0.4-2.7,0.5-4,0.4c-0.5,0-1-0.2-1.5-0.4c-0.4-0.3-0.8-0.7-1.1-1.1
		c-1.1-1.5-2.3-2.8-3.6-4.1c-0.7-0.5-1.3-1.1-1.9-1.8c-0.6-0.6-0.9-1.5-0.8-2.4c0.2-1.3,1.4-2.1,2.1-3.1c1.2,1.6,2.4,3.1,3.2,5
		c0.2,0.7,0.5,1.4,0.9,2.1c0.3,0.6,0.8,1.2,1.5,0.9S411,236,411.9,235.9z"/>
	<path class="st17" d="M426.5,175.5c0.4,0.9,0.5,1.9,0.4,2.9l0,7.2c0,1.4,0,2.8-0.2,4.2c-0.4,2.5-1.4,4.9-1.9,7.4
		c-0.4,2.4-0.3,4.8-1,7.1c-1.1,3.5-3.9,6.4-4.9,9.9c0,0.2-0.1,0.4-0.3,0.6c-0.1,0.1-0.3,0.2-0.4,0.2c-0.8,0.1-1.6-0.1-2.3-0.4
		l-5.2-2c-0.4,0.2-0.6-0.3-0.6-0.7c0.1-0.4,0.2-0.8,0.5-1c0.6-0.8,1.2-1.7,1.7-2.6c1.5-2.9,2.3-6.1,2.4-9.4c0.1-3.2,0-6.5-0.3-9.7
		c-0.2-2.3-0.4-4.7-0.5-7c-0.1-1.1-0.1-2.3,0.5-3.2c0.6-0.9,1.7-1.3,2.7-1.6C420.1,176.3,423.3,175.7,426.5,175.5z"/>
	<path class="st12" d="M426.5,175.5c0.4,0.9,0.5,1.9,0.4,2.9l0,7.2c0,1.4,0,2.8-0.2,4.2c-0.4,2.5-1.4,4.9-1.9,7.4
		c-0.4,2.4-0.3,4.8-1,7.1c-1.1,3.5-3.9,6.4-4.9,9.9c0,0.2-0.1,0.4-0.3,0.6c-0.1,0.1-0.3,0.2-0.4,0.2c-0.8,0.1-1.6-0.1-2.3-0.4
		l-5.2-2c-0.4,0.2-0.6-0.3-0.6-0.7c0.1-0.4,0.2-0.8,0.5-1c0.6-0.8,1.2-1.7,1.7-2.6c1.5-2.9,2.3-6.1,2.4-9.4c0.1-3.2,0-6.5-0.3-9.7
		c-0.2-2.3-0.4-4.7-0.5-7c-0.1-1.1-0.1-2.3,0.5-3.2c0.6-0.9,1.7-1.3,2.7-1.6C420.1,176.3,423.3,175.7,426.5,175.5z"/>
	<path class="st15" d="M437.9,186.4c-0.7,1-1.3,2.2-1.7,3.4c-0.3,0.9-0.5,1.8-0.6,2.7c-0.7,4.3-1.4,8.6-1.1,12.9
		c-0.9,0.2-1.8,0-2.4-0.6c-0.7-0.6-1.2-1.3-1.6-2.1c-0.5-0.8-0.9-1.7-1.3-2.6c-0.8-2-1.3-4.2-1.2-6.4c0-0.2,0-0.4,0.1-0.5
		c0.1-0.1,0.2-0.2,0.3-0.3c2.8-2.7,4.5-6.4,6.1-10c0.6-1.2,1-2.4,1.3-3.7c0.3-1.3,0.3-2.7,1.1-3.7c0.7-0.9,1.9-1.3,3.1-1.5
		c0.8-0.1,1.7-0.1,2.5,0.1c0.9,0.3,3,1.3,3.1,2.3c0.1,1-1.7,2.4-2.3,3.1C441.1,181.8,439.4,184.1,437.9,186.4z"/>
	<path class="st16" d="M436.2,205.4c0.6,1,1.5,2.2,1,3.3c-0.4,1.1-2.1,1.4-3,0.7c-0.3-0.2-0.5-0.5-0.8-0.7c-2.7-3-5.1-6.2-7.3-9.6
		c-0.8-1.3-1.6-2.6-1.7-4.1c0-0.2,0-0.3,0.1-0.5c0.1-0.1,0.2-0.2,0.4-0.3c1.3-0.8,2.7-1.3,4.2-1.7c0,1.7,0.4,3.3,1.2,4.7
		c0.6,1,1.2,2.1,1.6,3.2c0.3,0.8,0.7,0.9,1.5,0.9c0.7,0,1.2-0.1,1.5,0.6C435.5,203.1,435.5,204.3,436.2,205.4z"/>
	<path class="st17" d="M418,163.2c6.2,0.1,12.5,0.5,18.7,1l4,0.3c1.2,0,2.4,0.2,3.5,0.5c1.1,0.4,2.1,0.9,3.1,1.5
		c0.3,0.2,0.6,0.4,0.9,0.7c0.2,0.3,0.3,0.6,0.4,1c0.2,0.7,0.3,1.5,0.2,2.2c-0.1,0.5-0.3,1.1-0.6,1.5l-2.8,5.6
		c-0.9-0.3-1.6-0.9-2.5-1.2c-1.1-0.4-2.2-0.6-3.3-0.6l-3-0.3c-0.1-0.2-0.1-0.4-0.1-0.6c-2.6,0.9-5.2,1.7-7.8,2.6
		c-4.8,1.7-9.5,3.3-14.1,5.4c-0.7,0.3-1.5,0.6-2.2,0.4c-0.3-0.1-0.5-0.3-0.7-0.4c-1.1-1.1-1.9-2.5-2.1-4.1c-0.2-1.5-0.2-3.1,0.1-4.6
		c0.4-3.2,1.4-6.5,3.8-8.5C414.9,164.4,416.3,163.2,418,163.2z"/>
	<path class="st18" d="M442.8,168.7c-1.4,0.7-2.7,1.5-4,2.3c-0.2,0.1-0.4,0.3-0.5,0.4c-0.1,0.1-0.2,0.3-0.3,0.4
		c-0.6,0.8-1.1,1.7-1.4,2.7"/>
	<path class="st15" d="M378.6,161.1c-0.9,0.7-1.4,1.8-2,2.8c-1.5,2.3-3.6,4.2-5.1,6.5c-0.6,1-1.1,2.1-2,2.9c-1.1,1-2.5,1.3-4,1.4
		c-1.3,0.1-2.6,0-3.8,0.6c-1,0.5-1.7,1.5-2.3,2.4v0c-0.3,0.5-0.2,1.2,0.3,1.5c0.3,0.2,0.7,0.2,1,0.1c1-0.4,2.1-0.7,3.2-0.9
		c1-0.1,1.9-0.4,2.9-0.7c0.9-0.4,1.8-0.8,2.6-1.4c0.7-0.4,1.4-0.9,2-1.4c0.8-0.7,1.5-1.5,2.2-2.2c1.1-0.9,2.2-1.7,3.4-2.5
		c3.1-2.2,5.7-5,7.6-8.3c0.2-0.3,0.3-0.7,0.3-1.1c-0.1-0.4-0.2-0.7-0.5-1c-0.9-1.1-1.6-2-2.8-1C380.7,159.9,379.5,160.3,378.6,161.1
		z"/>
	<path class="st15" d="M403,137.4c0,0.3,0.1,0.6,0.3,0.9c0.3,0.3,0.8,0.3,1.3,0.2c1.3-0.1,2.5,0.3,3.4,1.2c0.8,0.9,1.2,2.1,1.3,3.3
		c0.2,1,0.2,2-0.1,3c-0.5,1.1-1.3,2-2.5,2.5c-1.1,0.5-2.3,0.8-3.5,0.9c-1,0.2-2,0.2-3,0c-1.2-0.3-2.2-1-3.3-1.6
		c-0.7-0.4-1.5-0.8-2.2-1.2c-0.7-0.5-1.2-1.2-1.4-2c-0.1-0.4,0-0.9,0.4-1.1c0.2-0.1,0.4-0.1,0.5-0.2c0.8-0.2,1.4-0.8,1.7-1.6
		c0.3-1.3-0.5-2.5-0.5-3.8c0-0.4,0-0.8,0.2-1.1c0.3-0.4,0.7-0.6,1.1-0.8l2.4-1.1c0.7-0.4,1.5-0.7,2.3-1c0.8-0.2,0.8,0.3,1,1
		C402.7,135.7,402.9,136.6,403,137.4z"/>
	<path class="st12" d="M403,137.4c0,0.3,0.1,0.6,0.3,0.9c0.3,0.3,0.8,0.3,1.3,0.2c1.3-0.1,2.5,0.3,3.4,1.2c0.8,0.9,1.2,2.1,1.3,3.3
		c0.2,1,0.2,2-0.1,3c-0.5,1.1-1.3,2-2.5,2.5c-1.1,0.5-2.3,0.8-3.5,0.9c-1,0.2-2,0.2-3,0c-1.2-0.3-2.2-1-3.3-1.6
		c-0.7-0.4-1.5-0.8-2.2-1.2c-0.7-0.5-1.2-1.2-1.4-2c-0.1-0.4,0-0.9,0.4-1.1c0.2-0.1,0.4-0.1,0.5-0.2c0.8-0.2,1.4-0.8,1.7-1.6
		c0.3-1.3-0.5-2.5-0.5-3.8c0-0.4,0-0.8,0.2-1.1c0.3-0.4,0.7-0.6,1.1-0.8l2.4-1.1c0.7-0.4,1.5-0.7,2.3-1c0.8-0.2,0.8,0.3,1,1
		C402.7,135.7,402.9,136.6,403,137.4z"/>
	<circle class="st15" cx="396.7" cy="133.4" r="6.1"/>
	<path class="st5" d="M403.7,138.9c0.9-0.4,1.9-0.6,2.8-0.7c1-0.1,2,0.3,2.7,1c0.6,0.7,0.8,1.6,1.2,2.3c0.9,1.5,2.6,2.1,4,3.1
		c0.3,0.2,0.6,0.5,0.8,0.8c0.5,0.7,0.4,1.7,0.3,2.6c0,2.2,0.7,4.3,1.8,6.1c1.1,1.8,2.4,3.6,3.8,5.2c0.3,0.4,0.6,0.8,0.8,1.2
		c0.3,0.8,0.2,1.8,0.7,2.5c-1.2-0.2-2.4,0-3.6,0.5c-1.8,0.7-1.8,3.3-2.7,5c-1.5,3.2-3.6,6-5.7,8.9c-0.5,0.7-1,1.4-1.3,2.2
		c-0.4-0.8-0.1-1.7-0.2-2.5c-0.1-1.9-1.2-3.6-1.5-5.4c-0.1-0.9-0.2-1.9-0.2-2.8c-0.1-1.4-0.4-2.8-0.9-4.1c-0.6-1.4-1.3-2.8-2.2-4
		c-0.4-0.8-0.9-1.4-1.6-1.9c-0.8-0.5-1.9-0.7-2.4-1.5c-0.1-0.3-0.3-0.5-0.5-0.8c-0.2-0.1-0.4-0.2-0.6-0.3c-1-0.5-2-1-2.9-1.6
		c-1-0.5-2.1-0.9-3.1-0.7c-2,2.3-4.2,4.4-6.7,6.2c-0.8,0.6-1.6,1.1-2,2c-1.2-0.6-2.3-1.4-3.2-2.4c-0.1-0.1-0.3-0.3-0.3-0.5
		c-0.2-0.7,0.5-1.3,1.1-1.8c2.2-1.6,3.9-3.9,4.8-6.4c0.6-1.6,1-3.5,2.5-4.6c0.5-0.3,0.9-0.6,1.3-0.9c0.4-0.5,0.7-1,1-1.5
		c0.6-0.8,1.7-1.2,2.7-0.9c0.6,0.2,1.1,0.5,1.6,0.8c1.3,0.6,2.9,0.5,4.4,0.3l5.7-0.6c0.2-0.6,0-1.3-0.4-1.8
		c-0.2-0.2-0.5-0.4-0.8-0.6C404.4,140.7,403.9,139.9,403.7,138.9z"/>
	<path class="st17" d="M399.9,123c1.4,0.5,2.5,1.6,3,3c0.2,0.6,0.4,1.2,0.6,1.7c0.5,0.6,1,1.2,1.6,1.8c0.5,0.6,1,1.3,0.9,2.1
		c0,0.3-0.2,0.6-0.2,0.8c-0.2,1.3,1.3,2.1,1.7,3.3c0.6,1.6-0.7,3.4,0.1,4.9c0.3,0.6,0.8,1,1.1,1.5s0.4,1.4-0.2,1.7
		c-0.9,0.5-1.8-0.9-2.8-0.5c-0.2,0.1-0.4,0.3-0.6,0.4c-0.6,0.3-1.4-0.3-1.6-0.9c-0.1-0.7-0.1-1.4,0-2.1c0.2-0.7,0-1.4-0.4-2
		c-0.4-0.4-1-0.6-1.4-1c-0.7-0.7-0.6-1.8-0.5-2.8c0.2-2-0.2-4.2-1.6-5.6c-0.1-0.1-0.2-0.1-0.3-0.1c-0.1,0-0.2,0.1-0.3,0.2
		c-0.7,0.7-1.4,1.3-2.2,1.8c-0.2,0.2-0.5,0.3-0.8,0.3c-0.3,0-0.6-0.3-0.5-0.5c-0.7,0.3-1.3,0.8-1.8,1.3c-0.1-0.3-0.2-0.5-0.1-0.8
		c-0.3,0.5-0.6,1-1,1.5c-0.4,0.4-0.7,0.9-1.1,1.3c-0.3,0.5-0.4,1.1-0.3,1.6c0.5,1.6,3.3,1.2,3.9,2.7c0.1,0.3,0.1,0.7,0.3,1.1
		c0.3,0.7,1,1,1.6,1.4s1.1,1.2,0.7,1.8c-0.3,0.5-1,0.6-1.6,0.7c-1,0.3-1.9,0.9-2.4,1.8c-0.1,0.3-0.4,0.6-0.6,0.9
		c-0.2,0.1-0.5,0.2-0.8,0.2c-0.8,0.1-1.8,0.1-2.3-0.5c-0.8-0.8-0.4-2.3-1.2-3c-0.2-0.2-0.4-0.3-0.6-0.5c-0.4-0.5-0.5-1-0.4-1.6
		c0.1-1.6,0.7-3.2,0.6-4.8c-0.1-1.1-0.3-2.1-0.6-3.2c-0.5-2.5,0.2-5,1.7-7c1.3-1.5,3-2.2,5-2.4C396.4,122.9,398.1,122.3,399.9,123z"
		/>
	<path class="st19" d="M536.7,53.1c0,0-42.9-28.3-55.6,5.9c0,0-4.2,4.9-0.7,10.3c0,0,1.4-2.3,5.4,1.1c1.4,1.2,3,2.2,4.7,3
		c2.3,1.1,4.8,1.5,7.3,1l0,0c0,0,15.5,2,32.1-15.6c0,0,6.2-2.4,6.7-3.6l-9.4-1.1c0,0-0.6,6.9-5.2,10.2c0,0,5.4-9.9,3.8-10.5
		c-0.3-0.1-5-0.4-5-0.4s-1,12-8.3,16.9c0,0,8-10.9,6.5-17l-7.1,0c0,0-0.5,12.7-8.5,18.6c0,0,7.9-11.7,7-18.5l-6.9,1
		c0,0-0.7,12.4-7.4,17.3c0,0,7.8-14.4,5.9-16.9c0,0-6.3,1.3-7.8,2.4c0,0-0.7,8.9-4.9,11.4c0,0,4.2-10.2,3.2-10.8
		c0,0-7.8,3.9-10.7,7.9c0,0,3.9-6.3,10-9.1c0,0-4.4-1.6-8.3-0.4c0,0,3.2-4.1,10.2-0.5c0,0,6.2-2.8,7.3-2.5c0,0-6.4-4.4-11.5-5
		c0,0,6-2.1,13.4,4.7l7-1.1c0,0-8.2-6.3-12.7-7.1c0,0,6.5-1.2,14.5,7l6.9-0.1c0,0-6.6-6-11.4-8c0,0,6.2,0.2,13.4,8l4.6,0.5
		c0,0-4.9-4.3-6.4-5.4c-1.5-1.1-1.3-1.6-1.3-1.6c3.8,1.4,7.2,3.9,9.7,7.1C527.1,52.1,536.6,53.7,536.7,53.1z"/>
	<path class="st19" d="M485.6,1.1c0,0-23.2-1.4-20.5,14.9c0,0-0.5,2.9,2.1,4.2c0,0,0-1.2,2.4-0.8c0.8,0.1,1.7,0.2,2.5,0.1
		c1.1-0.1,2.2-0.5,3.1-1.3l0,0c0,0,6.5-2.7,9.1-13.3c0,0,1.9-2.3,1.8-2.9l-3.9,1.7c0,0,1.3,2.8,0.3,5.2c0,0-0.1-5.1-0.9-4.9
		c-0.2,0-2,1-2,1s2.3,4.9,0.6,8.5c0,0,0.7-6.1-1.3-8.1L476,6.8c0,0,2.7,5.1,0.9,9.2c0,0,0.5-6.4-1.4-8.8l-2.5,2c0,0,2.5,5,1,8.4
		c0,0-0.2-7.4-1.5-8c0,0-2.2,1.9-2.5,2.7c0,0,1.7,3.7,0.7,5.6c0,0-0.7-4.9-1.2-5c0,0-2.2,3.3-2.4,5.5c0.1-2.1,0.8-4.1,1.9-5.8
		c-1.3,0.2-2.4,0.8-3.3,1.7c0,0,0.3-2.3,3.9-2.5c0,0,1.8-2.5,2.3-2.6c0,0-3.5-0.3-5.6,0.7c0,0,1.9-2.2,6.3-1.2l2.4-2
		c0,0-4.6-0.6-6.6,0.1c0,0,2.3-1.9,7.2-0.5l2.7-1.6c0,0-3.9-0.8-6.3-0.5c0,0,2.5-1.3,7.1,0.1l1.9-0.9c0,0-2.9-0.6-3.7-0.7
		c-0.8-0.1-0.9-0.3-0.9-0.3c1.8-0.3,3.7-0.1,5.4,0.6C481.5,2.9,485.7,1.4,485.6,1.1z"/>
</g>
</svg>
