<?xml version="1.0" encoding="utf-8"?>
<!-- Generator: Adobe Illustrator 25.0.1, SVG Export Plug-In . SVG Version: 6.00 Build 0)  -->
<svg version="1.1" id="Layer_1" xmlns="http://www.w3.org/2000/svg" xmlns:xlink="http://www.w3.org/1999/xlink" x="0px" y="0px"
	 viewBox="0 0 538 488" style="enable-background:new 0 0 538 488;" xml:space="preserve">
<style type="text/css">
	.st0{opacity:0.1;fill:#48BA13;enable-background:new    ;}
	.st1{opacity:0.5;}
	.st2{fill:url(#SVGID_1_);}
	.st3{fill:#FFFFFF;stroke:#E6E6E6;stroke-miterlimit:10;}
	.st4{fill:url(#SVGID_2_);}
	.st5{fill:url(#SVGID_3_);}
	.st6{fill:#48BA13;}
	.st7{fill:#6C63FF;}
	.st8{fill:url(#SVGID_4_);}
	.st9{fill:url(#SVGID_5_);}
	.st10{fill:#E0E0E0;}
	.st11{fill:url(#SVGID_6_);}
	.st12{fill:#FFFFFF;}
	.st13{fill:url(#SVGID_7_);}
	.st14{fill:#BE7C5E;}
	.st15{fill:#FDA57D;}
	.st16{fill:#333333;}
	.st17{fill:#FFC914;}
</style>
<path class="st0" d="M-0.1,238.5c1.6,18,11.8,34.3,18,51.5c8.8,24.4,9.6,50.9,2.4,75.8c-1.5,5.1-3.3,10.2-3.3,15.5
	c0,18,20.6,30,39.2,38c47.5,20.2,97,35.1,147.7,44.6c16.6,3.1,37.3,4.5,47.8-7.3c5-5.7,6.3-13.1,10-19.4c9.4-16.2,32.4-22.5,53-26.1
	c24.8-4.3,49.9-7.2,75.1-8.6c25.3-1.4,54.1-2.7,70.9-19.3c10.7-10.6,13.8-25.2,14.2-38.9c1.4-45.2-20.2-94.1,7.5-133.3
	c11.6-16.4,30.6-28.4,42.1-44.9c16.7-23.9,15.3-54.2,4-79.6C517.1,61,497,39.3,477.3,18.2c-6.5-7-13.5-14.3-23.3-17.5
	c-10.2-3.4-21.8-1.8-32.7-0.2C371.5,7.6,319.8,15.6,278,40.5c-20.7,12.4-38,28.5-56.5,43.3c-40,31.9-86.2,61.5-139,74.1
	C39.6,168.1-4,195.7-0.1,238.5z"/>
<g>
	<g>
		<g class="st1">
			
				<linearGradient id="SVGID_1_" gradientUnits="userSpaceOnUse" x1="150.6996" y1="-314.5461" x2="150.6996" y2="60.699" gradientTransform="matrix(0.9731 -0.2305 -0.2305 -0.9731 113.6366 143.5281)">
				<stop  offset="0" style="stop-color:#808080;stop-opacity:0.25"/>
				<stop  offset="0.54" style="stop-color:#808080;stop-opacity:0.12"/>
				<stop  offset="1" style="stop-color:#808080;stop-opacity:0.1"/>
			</linearGradient>
			<polygon class="st2" points="114.2,81 378.4,18.4 464.9,383.6 200.6,446.2 			"/>
		</g>
		
			<rect x="156.9" y="47.5" transform="matrix(0.9731 -0.2305 0.2305 0.9731 -45.4478 72.886)" class="st3" width="264.7" height="367"/>
		
			<linearGradient id="SVGID_2_" gradientUnits="userSpaceOnUse" x1="151.0563" y1="35.8157" x2="151.0563" y2="67.6209" gradientTransform="matrix(0.9731 -0.2305 -0.2305 -0.9731 113.6258 143.5219)">
			<stop  offset="0" style="stop-color:#808080;stop-opacity:0.25"/>
			<stop  offset="0.54" style="stop-color:#808080;stop-opacity:0.12"/>
			<stop  offset="1" style="stop-color:#808080;stop-opacity:0.1"/>
		</linearGradient>
		<polygon class="st4" points="181.1,58 308.9,27.8 316.2,58.7 188.5,89 		"/>
		
			<linearGradient id="SVGID_3_" gradientUnits="userSpaceOnUse" x1="165.4179" y1="417.4379" x2="165.4179" y2="454.8831" gradientTransform="matrix(0.981 0.1941 -0.1941 0.981 164.5849 -429.0331)">
			<stop  offset="0" style="stop-color:#808080;stop-opacity:0.25"/>
			<stop  offset="0.54" style="stop-color:#808080;stop-opacity:0.12"/>
			<stop  offset="1" style="stop-color:#808080;stop-opacity:0.1"/>
		</linearGradient>
		<path class="st5" d="M237.9,12.7c-9.9,2.3-15.9,12.4-13.5,22.5s12.3,16.4,22.2,14.1c9.9-2.3,15.9-12.4,13.5-22.5
			C257.7,16.6,247.7,10.3,237.9,12.7z M244.7,41.5c-5.8,1.5-11.7-1.9-13.2-7.7c-1.5-5.8,1.9-11.7,7.7-13.2
			c5.8-1.5,11.7,1.9,13.2,7.7c0,0.1,0,0.2,0.1,0.3C253.9,34.2,250.4,40.1,244.7,41.5C244.7,41.5,244.7,41.5,244.7,41.5L244.7,41.5z"
			/>
		
			<rect x="184.3" y="42.5" transform="matrix(0.9731 -0.2305 0.2305 0.9731 -6.6116 58.8436)" class="st6" width="128.5" height="30.4"/>
		<path class="st7" d="M238.2,14c-9.7,2.3-15.6,12-13.3,21.6s12,15.6,21.6,13.3s15.6-12,13.3-21.6c0,0,0,0,0,0
			C257.5,17.7,247.8,11.7,238.2,14z M244.7,41.6c-5.6,1.3-11.2-2.1-12.5-7.7c-1.3-5.6,2.1-11.2,7.7-12.5c5.6-1.3,11.2,2.1,12.5,7.7
			C253.7,34.7,250.3,40.3,244.7,41.6L244.7,41.6z"/>
		
			<linearGradient id="SVGID_4_" gradientUnits="userSpaceOnUse" x1="59.1428" y1="-58.1648" x2="59.1428" y2="-1.4963" gradientTransform="matrix(0.9731 -0.2305 -0.2305 -0.9731 113.629 143.5304)">
			<stop  offset="0" style="stop-color:#808080;stop-opacity:0.25"/>
			<stop  offset="0.54" style="stop-color:#808080;stop-opacity:0.12"/>
			<stop  offset="1" style="stop-color:#808080;stop-opacity:0.1"/>
		</linearGradient>
		<polygon class="st8" points="144,137.9 199.1,124.8 212.2,180 157,193 		"/>
		
			<linearGradient id="SVGID_5_" gradientUnits="userSpaceOnUse" x1="60.7678" y1="-129.6957" x2="60.7678" y2="-73.0271" gradientTransform="matrix(0.9731 -0.2305 -0.2305 -0.9731 113.6327 143.5313)">
			<stop  offset="0" style="stop-color:#808080;stop-opacity:0.25"/>
			<stop  offset="0.54" style="stop-color:#808080;stop-opacity:0.12"/>
			<stop  offset="1" style="stop-color:#808080;stop-opacity:0.1"/>
		</linearGradient>
		<polygon class="st9" points="162,207.1 217.2,194.1 230.2,249.2 175.1,262.3 		"/>
		
			<rect x="151.8" y="132.7" transform="matrix(0.9731 -0.2305 0.2305 0.9731 -31.8383 45.3225)" class="st6" width="52.5" height="52.5"/>
		
			<rect x="169.4" y="200.9" transform="matrix(0.9731 -0.2305 0.2305 0.9731 -47.0978 51.2287)" class="st6" width="52.5" height="52.5"/>
		
			<rect x="234.5" y="126.8" transform="matrix(0.9731 -0.2305 0.2305 0.9731 -22.5146 65.8376)" class="st10" width="72" height="5"/>
		
			<rect x="235.6" y="128.7" transform="matrix(0.9731 -0.2305 0.2305 0.9731 -22.2984 71.548)" class="st10" width="118.9" height="5"/>
		
			<rect x="237.5" y="137" transform="matrix(0.9731 -0.2305 0.2305 0.9731 -24.2735 71.2316)" class="st10" width="110.5" height="5"/>
		<rect x="252.2" y="195" transform="matrix(0.9731 -0.2305 0.2305 0.9731 -37.7753 71.7443)" class="st10" width="72" height="5"/>
		
			<rect x="253.3" y="197" transform="matrix(0.9731 -0.2305 0.2305 0.9731 -37.5579 77.4542)" class="st10" width="118.9" height="5"/>
		
			<rect x="255.1" y="205.3" transform="matrix(0.9731 -0.2305 0.2305 0.9731 -39.5341 77.1383)" class="st10" width="110.5" height="5"/>
		
			<linearGradient id="SVGID_6_" gradientUnits="userSpaceOnUse" x1="59.1397" y1="-43.3902" x2="59.1397" y2="-15.5734" gradientTransform="matrix(0.9731 -0.2305 -0.2305 -0.9731 113.6345 143.5282)">
			<stop  offset="0" style="stop-color:#808080;stop-opacity:0.25"/>
			<stop  offset="0.54" style="stop-color:#808080;stop-opacity:0.12"/>
			<stop  offset="1" style="stop-color:#808080;stop-opacity:0.1"/>
		</linearGradient>
		<polygon class="st11" points="165.7,158.6 177,164.9 185.6,142.5 191.2,145.3 178.9,172.7 162.2,161.1 		"/>
		<polygon class="st12" points="167.3,158.6 177.2,164.1 184.6,144.6 189.4,147 178.7,170.8 164.3,160.8 		"/>
		<polygon class="st12" points="185.1,227.6 195,233 202.4,213.5 207.2,215.9 196.6,239.8 182.1,229.7 		"/>
		
			<rect x="217" y="251.4" transform="matrix(0.9731 -0.2305 0.2305 0.9731 -56.2913 76.8894)" class="st10" width="167.9" height="56"/>
		<path class="st6" d="M346.6,268.3c-5.4-2.8-11.4-3.6-14.5,2.6c-1.1,2.1-1.8,5.5-4.4,6.2c-3.8,1-7.4-3.2-10.2-5.2
			c-5.2-3.7-11.3-3.1-15.7,1.6c-2.2,2.4-3.5,5.4-4.7,8.4c-0.5,1.3-0.9,3-1.7,4.1c-1.6,2.2-4.9,1.3-7.1,0.8c-0.5-0.1-1-0.3-1.5-0.4
			c2.2-2.1,3.7-4.9,4.2-7.9c0.8-5-1.3-11-7-11.5c-5.1-0.5-9.6,3.7-10,8.7c-0.3,4.3,1.7,8,4.8,10.7c-1.9,0.4-3.8,0.6-5.6,1.1
			c-0.8,0.2-1.6,0.5-2.4,0.8c-4.4-3.3-10.7-5-15.6-3.5c-2.4,0.7-1.5,4.5,0.9,3.7c3.7-1.2,7.3,0,10.5,1.9l0.3,0.2
			c-0.4,0.4-0.8,0.8-1.2,1.2c-2.7,3.4-2,9.9,2.8,11.2c6.6,1.9,8.7-7,5.8-11.2c-0.1-0.2-0.3-0.4-0.4-0.5c1.7-0.4,3.4-0.7,5-1
			c1.4-0.3,2.7-0.7,4-1.3l0.2,0.1c4.9,2.2,12.9,4.1,16-1.7c2.7-5.1,5.1-16.6,13.5-13.8c3.4,1.1,5.8,4.4,8.9,6
			c2.8,1.5,6.2,2.2,9.1,0.5c2.4-1.4,3.4-4,4.5-6.4c0.6-1.2,1.2-2.7,2.4-3.4c2.2-1.3,5.2,0.3,7.2,1.3
			C346.7,272.7,348.8,269.4,346.6,268.3z M270.8,299c-1.4,0.9-2.4-0.2-2.8-1.5c-0.5-1.6,0.1-2.9,1.3-4c0.2-0.2,0.4-0.3,0.6-0.5
			C272,294.9,273.4,297.3,270.8,299L270.8,299z M280.4,271.7c2.8-1.7,5.9-0.6,6.7,2.7c0.8,3.3-0.6,7.3-3.1,9.6
			c-0.3,0.3-0.7,0.6-1,0.8c-1.3-0.7-2.4-1.7-3.3-2.8C277.4,278.9,276.7,274,280.4,271.7L280.4,271.7z"/>
	</g>
	<g>
		
			<linearGradient id="SVGID_7_" gradientUnits="userSpaceOnUse" x1="446.655" y1="-17.7806" x2="446.655" y2="250.529" gradientTransform="matrix(1 0 0 -1 -157.12 468.08)">
			<stop  offset="0" style="stop-color:#808080;stop-opacity:0.25"/>
			<stop  offset="0.54" style="stop-color:#808080;stop-opacity:0.12"/>
			<stop  offset="1" style="stop-color:#808080;stop-opacity:0.1"/>
		</linearGradient>
		<path class="st13" d="M423.6,292.7l-42.8,16.7c-8-0.6-25-2.8-41.8-10.7c-18.7-8.8-40.1-8.8-58.3,0.4c-41.9,1-64.9-4.4-77.2-9.4
			l3.2-6.7l-43.4-16.9L55.1,217.6v199.1L93,433.6l20.3-48.8l44.7,20.7l8.6-21.8l29.3,21.8l2,1.7l-2.8,2.9c-5.2,5.5-5.2,14.2,0,19.7
			l0,0c5,5.2,13.2,5.5,18.5,0.5c0.2-0.2,0.3-0.3,0.5-0.5l-1.5,1.6c-5.2,5.5-5.2,14.2,0,19.7l0,0c5,5.2,13.2,5.5,18.5,0.5
			c0.2-0.2,0.3-0.3,0.5-0.5l8.7-9l0,0l-6,6.2c-5.2,5.5-5.2,14.2,0,19.7l0,0c5,5.2,13.2,5.5,18.5,0.5c0.2-0.2,0.3-0.3,0.5-0.5
			l8.6-8.9l0,0l-3.6,3.8c-3.7,3.9-3.7,9.9,0,13.8c3.5,3.7,9.2,3.8,12.9,0.4c0.1-0.1,0.2-0.2,0.4-0.4l5.7-5.9
			c9.8,7.2,17.8,12.4,21.7,13.8c16.2,5.6,16.2-5.6,16.2-5.6c21.7,11.3,32.5-11.3,32.5-11.3c27.1,11.3,27.1-16.9,27.1-16.9
			c6.8,4.7,11.7,2.5,15.1-1.6c4.6-5.6,5.2-13.5,2-19.9l25.9-23.9L429,428l44.7-20.7l20.3,45.1l30-13.4V242L423.6,292.7z"/>
		<polygon class="st14" points="416.4,397 369.2,438.9 332.6,370.8 416.4,349.8 		"/>
		<path class="st15" d="M191,286.9c0,0,15.1,21,104.8,15.7l52.4,78.6l35.1,39.5c5.5,6.2,5.8,15.6,0.4,21.9c-3.3,3.8-8,5.8-14.6,1.5
			c0,0,0,26.2-26.2,15.7c0,0-10.5,21-31.4,10.5c0,0,0,10.5-15.7,5.2s-99.6-73.4-99.6-73.4L159.6,376L191,286.9z"/>
		<path class="st14" d="M379.7,313.1c0,0-22.6,0-45-10.2c-20.4-9.2-44.1-8.1-62.9,4.1c-15.3,9.9-28.6,26.2-28.3,53.3
			c0,0,20.4,21,41.9-21h15.7c0,0,15.1,52.4,57.7,47.2s52.4-10.5,52.4-10.5L379.7,313.1z"/>
		<path class="st14" d="M240.4,414.9l1.7,1.7c4.6,4.6,4.6,12,0,16.6l-12.2,12.2c-4.6,4.6-12,4.6-16.6,0l-1.7-1.7
			c-4.6-4.6-4.6-12,0-16.6l12.2-12.2C228.4,410.3,235.8,410.3,240.4,414.9z"/>
		<path class="st14" d="M223.5,395.1l1.7,1.7c4.6,4.6,4.6,12,0,16.6L213,425.6c-4.6,4.6-12,4.6-16.6,0l-1.7-1.7
			c-4.6-4.6-4.6-12,0-16.6l12.2-12.2C211.5,390.5,218.9,390.5,223.5,395.1z"/>
		<path class="st14" d="M264,428l1.7,1.7c4.6,4.6,4.6,12,0,16.6l-14.8,14.8c-4.6,4.6-12,4.6-16.6,0l-1.7-1.7c-4.6-4.6-4.6-12,0-16.6
			l14.8-14.8C252,423.4,259.4,423.4,264,428z"/>
		<path class="st14" d="M276.9,446.8l1.2,1.2c3.2,3.2,3.2,8.4,0,11.6l-9.3,9.3c-3.2,3.2-8.4,3.2-11.6,0l-1.2-1.2
			c-3.2-3.2-3.2-8.4,0-11.6l9.3-9.3C268.5,443.6,273.7,443.6,276.9,446.8z"/>
		<polygon class="st12" points="468.8,407.5 421.6,428.4 374.5,313.1 416.4,297.4 		"/>
		<polygon class="st12" points="112.4,381.3 159.6,402.2 206.8,286.9 164.8,271.2 		"/>
		<polygon class="st16" points="60,224 164.8,271.2 96.7,428.4 60,412.7 		"/>
		<polygon class="st17" points="521.2,250.2 416.4,297.4 484.5,454.6 521.2,438.9 		"/>
	</g>
	<path class="st6" d="M55.7,155.5c0,0,37.2-2.2,32.9,23.9c0,0,0.9,4.6-3.3,6.7c0,0-0.1-1.9-3.8-1.3c-1.3,0.2-2.7,0.3-4,0.2
		c-1.8-0.1-3.6-0.8-4.9-2l0,0c0,0-10.5-4.3-14.5-21.4c0,0-3-3.7-2.9-4.7l6.3,2.7c0,0-2.1,4.5-0.5,8.3c0,0,0.2-8.1,1.4-7.9
		c0.2,0,3.3,1.5,3.3,1.5s-3.7,7.9-0.9,13.6c0,0-1.1-9.7,2.1-13.1l4.4,2.6c0,0-4.3,8.2-1.4,14.8c0,0-0.8-10.2,2.3-14.2l4,3.1
		c0,0-4.1,8-1.6,13.6c0,0,0.3-11.9,2.4-12.8c0,0,3.5,3.1,4,4.4c0,0-2.8,5.8-1.1,8.9c0,0,1.1-7.9,1.9-8c0,0,3.5,5.2,3.9,8.8
		c0,0-0.2-5.3-3-9.3c0,0,3.4,0.6,5.4,2.8c0,0-0.5-3.7-6.2-4c0,0-2.9-4-3.7-4.2c0,0,5.6-0.5,9.1,1c0,0-3-3.5-10.1-1.9l-4-3.2
		c0,0,7.4-1,10.6,0.1c0,0-3.6-3.1-11.6-0.8l-4.3-2.6c0,0,6.3-1.4,10.1-0.9c0,0-4-2.1-11.4,0.2l-3.1-1.4c0,0,4.6-0.9,6-1.1
		c1.4-0.1,1.4-0.5,1.4-0.5c-2.9-0.5-6-0.2-8.7,1C62.1,158.3,55.6,155.9,55.7,155.5z"/>
	<path class="st6" d="M122.8,19.9c0,0,21-1.3,18.5,13.5c0.3,1.5-0.5,3.1-1.9,3.8c0,0,0-1.1-2.2-0.7c-0.8,0.1-1.5,0.2-2.3,0.1
		c-1-0.1-2-0.5-2.8-1.1l0,0c0,0-5.9-2.4-8.2-12.1c0,0-1.7-2.1-1.6-2.6l3.6,1.5c0,0-1.2,2.6-0.3,4.7c0,0,0.1-4.6,0.8-4.5
		c0.1,0,1.8,0.9,1.8,0.9s-2.1,4.5-0.5,7.7c0,0-0.6-5.5,1.2-7.4l2.5,1.5c0,0-2.4,4.6-0.8,8.4c0,0-0.4-5.8,1.3-8l2.3,1.8
		c0,0-2.3,4.5-0.9,7.6c0,0,0.2-6.7,1.4-7.2c0,0,2,1.7,2.3,2.5c0,0-1.5,3.3-0.6,5c0,0,0.6-4.5,1.1-4.5c0,0,2,3,2.2,5
		c-0.1-1.9-0.7-3.7-1.7-5.3c1.1,0.2,2.2,0.7,3,1.5c0,0-0.3-2.1-3.5-2.3c0,0-1.6-2.2-2.1-2.4c0,0,3.2-0.3,5.1,0.6c0,0-1.7-2-5.7-1.1
		l-2.2-1.8c0,0,4.2-0.6,6,0.1c0,0-2-1.7-6.6-0.5l-2.4-1.5c1.9-0.4,3.8-0.6,5.7-0.5c0,0-2.2-1.2-6.4,0.1l-1.7-0.8
		c0,0,2.6-0.5,3.4-0.6c0.8-0.1,0.8-0.3,0.8-0.3c-1.7-0.3-3.4-0.1-4.9,0.5C126.4,21.6,122.8,20.2,122.8,19.9z"/>
	<path class="st6" d="M488.5,180.1c0,0,25.4-1.5,22.4,16.2c0.3,1.8-0.6,3.7-2.3,4.6c0,0,0-1.3-2.6-0.9c-0.9,0.2-1.8,0.2-2.8,0.1
		c-1.2-0.1-2.4-0.6-3.4-1.4l0,0c0,0-7.1-2.9-9.9-14.6c0,0-2.1-2.5-2-3.2l4.3,1.8c0,0-1.5,3.1-0.3,5.7c0,0,0.1-5.5,1-5.4
		c0.2,0,2.2,1.1,2.2,1.1s-2.5,5.4-0.6,9.3c0,0-0.7-6.6,1.4-8.9l3,1.8c0,0-2.9,5.6-0.9,10.1c0,0-0.5-6.9,1.5-9.7l2.7,2.1
		c0,0-2.8,5.5-1.1,9.3c0,0,0.2-8.1,1.7-8.7c0,0,2.4,2.1,2.7,3c0,0-1.9,4-0.7,6.1c0,0,0.7-5.4,1.3-5.4c0,0,2.4,3.6,2.6,6
		c-0.1-2.3-0.8-4.5-2-6.4c1.4,0.3,2.6,0.9,3.6,1.9c0,0-0.4-2.5-4.2-2.7c0,0-2-2.7-2.5-2.9c0,0,3.9-0.3,6.2,0.7c0,0-2.1-2.4-6.9-1.3
		l-2.7-2.2c0,0,5.1-0.7,7.2,0.1c0,0-2.5-2.1-7.9-0.6l-2.9-1.8c0,0,4.3-0.9,6.9-0.6c0,0-2.7-1.5-7.7,0.1l-2.1-0.9
		c0,0,3.2-0.6,4.1-0.7c0.9-0.1,1-0.4,1-0.4c-2-0.3-4.1-0.1-5.9,0.7C492.9,182,488.4,180.4,488.5,180.1z"/>
</g>
</svg>
