<?xml version="1.0" encoding="utf-8"?>
<!-- Generator: Adobe Illustrator 25.0.1, SVG Export Plug-In . SVG Version: 6.00 Build 0)  -->
<svg version="1.1" id="Layer_1" xmlns="http://www.w3.org/2000/svg" xmlns:xlink="http://www.w3.org/1999/xlink" x="0px" y="0px"
	 viewBox="0 0 694 443" style="enable-background:new 0 0 694 443;" xml:space="preserve">
<style type="text/css">
	.st0{fill:none;}
	.st1{opacity:0.1;}
	.st2{fill:#3E543C;}
	.st3{fill:#3F3D56;}
	.st4{fill:#48BA13;}
	.st5{opacity:0.1;enable-background:new    ;}
	.st6{opacity:0.1;fill:#48BA13;enable-background:new    ;}
	.st7{fill:none;stroke:#3F3D56;stroke-width:4;stroke-miterlimit:10;}
	.st8{fill:#4C4C4C;}
	.st9{fill:url(#SVGID_1_);}
	.st10{fill:#BE6F72;}
	.st11{fill:#FF6F61;}
	.st12{fill:url(#SVGID_2_);}
	.st13{fill:url(#SVGID_3_);}
	.st14{opacity:0.1;fill:none;stroke:#000000;stroke-miterlimit:10;enable-background:new    ;}
	.st15{fill:url(#SVGID_4_);}
	.st16{fill:#2F2E41;}
	.st17{fill:#FBBEBE;}
	.st18{fill:#E8E8F0;}
	.st19{fill:#F86D70;}
</style>
<pattern  width="36.9" height="49.5" patternUnits="userSpaceOnUse" id="ad310e25-2b04-44c8-bb7b-9823891" viewBox="0 -49.5 36.9 49.5" style="overflow:visible;">
	<g>
		<rect x="0" y="-49.5" class="st0" width="36.9" height="49.5"/>
		<rect x="0" y="-49.5" class="st0" width="36.9" height="49.5"/>
		<path d="M4.3-13.2c4.5,0,4.5,7,0,7S-0.2-13.2,4.3-13.2z"/>
		<path d="M4.5-17.2c4.5,0,4.5,7,0,7S0-17.2,4.5-17.2z"/>
		<path d="M4.5-20.9c4.5,0,4.5,7,0,7S0-20.9,4.5-20.9z"/>
		<path d="M3.4-24.7c4.5,0,4.5,7,0,7S-1.1-24.7,3.4-24.7z"/>
		<path d="M1.1-28.3l0.2-0.4c1-1.7,3.1-2.2,4.8-1.2c1.6,1,2.2,3.1,1.3,4.8l-0.2,0.4c-1,1.7-3.1,2.2-4.8,1.3
			C0.7-24.5,0.2-26.6,1.1-28.3z"/>
		<path d="M1.5-30.1l0.2-0.6c0.3-0.9,0.8-1.6,1.6-2.1c0.8-0.5,1.8-0.6,2.7-0.3c1.9,0.5,2.9,2.4,2.4,4.3l-0.2,0.6
			c-0.3,0.9-0.8,1.6-1.6,2.1c-0.8,0.5-1.8,0.6-2.7,0.4C2.1-26.3,1-28.2,1.5-30.1z"/>
		<path d="M1.6-33.9v-0.4c0-1.9,1.6-3.5,3.5-3.5c1.9,0,3.5,1.6,3.5,3.5v0.4c0,1.9-1.6,3.5-3.5,3.5C3.2-30.4,1.6-32,1.6-33.9z"/>
		<path d="M4.9-42.3c4.5,0,4.5,7,0,7S0.4-42.3,4.9-42.3z"/>
		<path d="M1.8-42v-0.2c0-1.9,1.6-3.5,3.5-3.5c1.9,0,3.5,1.6,3.5,3.5v0.2c0,1.9-1.6,3.5-3.5,3.5C3.4-38.5,1.8-40.1,1.8-42z"/>
		<path d="M6-49.3c4.5,0,4.5,7,0,7S1.5-49.3,6-49.3z"/>
		<path d="M10-14.1c4.5,0,4.5,7,0,7S5.5-14.1,10-14.1z"/>
		<path d="M6.6-20.9c4.5,0,4.5,7,0,7S2.1-20.9,6.6-20.9z"/>
		<path d="M8.5-27c4.5,0,4.5,7,0,7S4-27,8.5-27z"/>
		<path d="M8.5-29.3c4.5,0,4.5,7,0,7S4-29.3,8.5-29.3z"/>
		<path d="M14.9-33.8c4.5,0,4.5,7,0,7S10.4-33.8,14.9-33.8z"/>
		<path d="M9.8-38.5c4.5,0,4.5,7,0,7S5.3-38.5,9.8-38.5z"/>
		<path d="M10.6-45.1c4.5,0,4.5,7,0,7S6.1-45.1,10.6-45.1z"/>
		<path d="M10.6-49.5c4.5,0,4.5,7,0,7S6.1-49.5,10.6-49.5z"/>
		<path d="M12.8-18.1c2.6,0,2.6,4,0,4S10.3-18.1,12.8-18.1z"/>
		<path d="M13-20.4c2.6,0,2.6,4,0,4S10.4-20.4,13-20.4z"/>
		<path d="M13.1-21v-0.2c0-1.1,0.9-2,2-2s2,0.9,2,2v0.2c0,1.1-0.9,2-2,2S13.1-19.9,13.1-21z"/>
		<path d="M15.1-25.9c2.6,0,2.6,4,0,4S12.5-25.9,15.1-25.9z"/>
		<path d="M16.6-11.1c0.6,0,1,0.4,1,1s-0.4,1-1,1s-1-0.4-1-1S16.1-11.1,16.6-11.1z"/>
		<path d="M21.7-16.5c0.6,0,1,0.4,1,1c0,0.6-0.4,1-1,1s-1-0.4-1-1C20.7-16.1,21.2-16.5,21.7-16.5z"/>
		<path d="M16.9-8.9v0.4c0,0.6-0.4,1-1,1c-0.6,0-1-0.4-1-1v-0.4c0-0.6,0.4-1,1-1C16.4-9.9,16.9-9.5,16.9-8.9z"/>
		<path d="M16.5-4.8v0.2c0,0.6-0.4,1-1,1c-0.6,0-1-0.4-1-1v-0.2c0-0.6,0.4-1,1-1C16-5.8,16.5-5.3,16.5-4.8z"/>
		<path d="M15.5-2c0.6,0,1,0.4,1,1s-0.4,1-1,1c-0.6,0-1-0.4-1-1S14.9-2,15.5-2z"/>
		<path d="M10.6-2c0.6,0,1,0.4,1,1s-0.4,1-1,1c-0.6,0-1-0.4-1-1S10-2,10.6-2z"/>
		<path d="M10.4-4.7c0.6,0,1,0.4,1,1s-0.4,1-1,1c-0.6,0-1-0.4-1-1S9.8-4.7,10.4-4.7z"/>
		<path d="M7.4-6.2c0.6,0,1,0.4,1,1s-0.4,1-1,1s-1-0.4-1-1S6.8-6.2,7.4-6.2z"/>
		<path d="M11.9-7.1h0.4c0.6,0,1,0.4,1,1s-0.4,1-1,1h-0.4c-0.6,0-1-0.4-1-1S11.3-7.1,11.9-7.1z"/>
		<path d="M13.3-11l0.6-1.3c0.3-0.5,0.9-0.6,1.4-0.4c0,0,0,0,0,0c0.5,0.3,0.6,0.9,0.4,1.4c0,0,0,0,0,0L15-10
			c-0.3,0.5-0.9,0.6-1.4,0.4c0,0,0,0,0,0C13.2-9.9,13-10.5,13.3-11z"/>
		<path d="M18.4-19.3v-0.2c0-0.6,0.4-1,1-1s1,0.4,1,1v0.2c0,0.6-0.4,1-1,1S18.4-18.8,18.4-19.3z"/>
		<path d="M20.7-24.9l0.2-0.4c0.6-1.1,2.3-0.1,1.7,1l-0.2,0.4C21.8-22.8,20.1-23.8,20.7-24.9z"/>
		<path d="M22.1-29.4c-0.5-0.5-0.8-1.1-0.8-1.9c0-0.6,0.4-1,1-1s1,0.4,1,1c0,0.2,0.1,0.3,0.2,0.4c0.4,0.4,0.4,1,0,1.4c0,0,0,0,0,0
			C23.2-29,22.5-29,22.1-29.4z"/>
		<path d="M20.3-33.4l-0.5-1.7c-0.4-1.2,1.5-1.8,1.9-0.5l0.5,1.7C22.6-32.7,20.7-32.2,20.3-33.4z"/>
		<path d="M19.4-37h-0.2c-0.6,0-1-0.4-1-1s0.4-1,1-1h0.2c0.6,0,1,0.4,1,1S20-37,19.4-37z"/>
		<path d="M17.6-41.5l-0.2-0.4c-0.6-1.2,1.1-2.2,1.7-1l0.2,0.4C19.9-41.3,18.2-40.3,17.6-41.5z"/>
		<path d="M15.8-47.9v-0.6c0-0.6,0.4-1,1-1c0.6,0,1,0.4,1,1v0.6c0,0.6-0.4,1-1,1S15.8-47.3,15.8-47.9z"/>
		<path d="M14.3-49.4c0.6,0,1,0.4,1,1s-0.4,1-1,1c-0.6,0-1-0.4-1-1S13.8-49.4,14.3-49.4z"/>
		<path d="M14.3-41.3c0.6,0,1,0.4,1,1s-0.4,1-1,1c-0.6,0-1-0.4-1-1S13.8-41.3,14.3-41.3z"/>
		<path d="M17.1-36.5c0.6,0.3,1,1,1,1.6c0,0.6-0.4,1-1,1s-1-0.4-1-1c0,0.1,0.2,0.2,0,0.1C15-35.3,16-37,17.1-36.5z"/>
		<path d="M17.4-31.3c0.6,0,1,0.4,1,1s-0.4,1-1,1s-1-0.4-1-1S16.8-31.3,17.4-31.3z"/>
		<path d="M18.1-28.5c0.6,0,1,0.4,1,1s-0.4,1-1,1s-1-0.4-1-1S17.6-28.5,18.1-28.5z"/>
		<path d="M19-24.9l0.2,0.4c0.6,1.1-1.1,2.2-1.7,1l-0.2-0.4C16.7-25.1,18.4-26.1,19-24.9z"/>
		<path d="M17.9-16c0.6,0,1,0.4,1,1s-0.4,1-1,1s-1-0.4-1-1S17.4-16,17.9-16z"/>
		<path d="M24.6-16l0.6-0.9c0.3-0.4,1-0.5,1.4-0.2c0.4,0.3,0.5,0.8,0.3,1.2l-0.6,1c-0.3,0.5-0.9,0.6-1.4,0.3
			C24.6-15,24.4-15.5,24.6-16L24.6-16z"/>
		<path d="M34.9-29.7v-0.2c0-0.6,0.4-1,1-1s1,0.4,1,1v0.2c0,0.6-0.4,1-1,1S34.9-29.2,34.9-29.7z"/>
		<path d="M24-39.2c0.6,0,1,0.4,1,1s-0.4,1-1,1s-1-0.4-1-1S23.5-39.2,24-39.2z"/>
		<path d="M22.9-29c0.6,0,1,0.4,1,1s-0.4,1-1,1s-1-0.4-1-1S22.3-29,22.9-29z"/>
		<path d="M18.2-21.9l0.6,0.6c0.9,0.9-0.5,2.3-1.4,1.4l-0.6-0.6C15.9-21.4,17.3-22.8,18.2-21.9z"/>
	</g>
</pattern>
<g>
	<g class="st1">
		<ellipse class="st2" cx="318.8" cy="280.1" rx="8.8" ry="11.5"/>
		<path class="st2" d="M325.8,231c1.2-2.1,1.9-4.6,1.8-7c0-6.3-3.9-11.5-8.8-11.5s-8.8,5.1-8.8,11.5c0,2.5,0.6,4.9,1.8,7
			c-2.4,4.4-2.4,9.7,0,14c-2.4,4.4-2.4,9.7,0,14c-1.2,2.1-1.9,4.6-1.8,7c0,6.3,3.9,11.5,8.8,11.5c4.8,0,8.8-5.1,8.8-11.5
			c0-2.5-0.6-4.9-1.8-7c2.4-4.4,2.4-9.7,0-14C328.2,240.7,328.2,235.4,325.8,231L325.8,231z"/>
		<ellipse class="st3" cx="318.8" cy="210" rx="8.8" ry="11.5"/>
		<ellipse class="st3" cx="318.8" cy="196" rx="8.8" ry="11.5"/>
		<path class="st4" d="M286.1,100.1c-1.2-1.5-2.3-3.1-3.3-4.8l23-3.8l-24.9,0.2c-4.8-10.5-5.1-22.5-0.8-33.2l33.4,17.3l-30.8-22.6
			C294.2,33,319.8,26,340,37.4c20.1,11.5,27.2,37.1,15.7,57.2c-1.1,1.9-2.3,3.7-3.7,5.4c1.9,2.4,3.5,4.9,4.8,7.6l-29.9,15.6
			l31.9-10.7c4.5,13.4,2,28.3-6.8,39.4c14.3,18.2,11.2,44.6-7,58.9c-18.2,14.3-44.6,11.2-58.9-7c-12-15.2-12-36.7,0-51.9
			C274.1,136.8,274.1,115.3,286.1,100.1L286.1,100.1z"/>
		<path class="st5" d="M361,126c0,9.4-3.1,18.6-9,25.9c14.3,18.2,11.2,44.6-7,58.9c-18.2,14.3-44.6,11.2-58.9-7
			c-12-15.2-12-36.7,0-51.9C280.4,144.8,361,121.3,361,126z"/>
	</g>
	<g class="st1">
		<ellipse class="st2" cx="421.1" cy="255.6" rx="6.5" ry="8.6"/>
		<path class="st2" d="M426.3,218.9c0.9-1.6,1.4-3.4,1.4-5.2c0-4.7-2.9-8.6-6.5-8.6s-6.5,3.8-6.5,8.6c0,1.8,0.5,3.6,1.4,5.2
			c-1.8,3.3-1.8,7.2,0,10.5c-1.8,3.3-1.8,7.2,0,10.5c-0.9,1.6-1.4,3.4-1.4,5.2c0,4.7,2.9,8.6,6.5,8.6s6.5-3.8,6.5-8.6
			c0-1.8-0.5-3.6-1.4-5.2c1.8-3.3,1.8-7.2,0-10.5C428.1,226.1,428.1,222.2,426.3,218.9z"/>
		<ellipse class="st3" cx="421.1" cy="203.2" rx="6.5" ry="8.6"/>
		<ellipse class="st3" cx="421.1" cy="192.7" rx="6.5" ry="8.6"/>
		<path class="st4" d="M396.6,121.1c-0.9-1.1-1.7-2.3-2.4-3.6l17.2-2.8l-18.6,0.1c-3.6-7.8-3.8-16.8-0.6-24.9l25,13l-23-16.9
			c8.7-15,27.8-20.2,42.8-11.5c15,8.7,20.2,27.8,11.5,42.8c-0.8,1.3-1.6,2.6-2.6,3.8c1.4,1.8,2.6,3.7,3.6,5.7l-22.3,11.6l23.8-8
			c3.4,10,1.5,21.1-5.1,29.4c10.7,13.6,8.4,33.3-5.2,44c-13.6,10.7-33.3,8.4-44-5.2c-9-11.4-9-27.4,0-38.8
			C387.7,148.5,387.7,132.4,396.6,121.1L396.6,121.1z"/>
		<path class="st5" d="M452.6,140.5c0,7-2.4,13.9-6.7,19.4c10.7,13.6,8.4,33.3-5.2,44c-13.6,10.7-33.3,8.4-44-5.2
			c-9-11.4-9-27.4,0-38.8C392.4,154.5,452.6,136.9,452.6,140.5z"/>
	</g>
	<g class="st1">
		<ellipse class="st2" cx="649.2" cy="249.3" rx="8.8" ry="11.5"/>
		<path class="st2" d="M642.2,200.3c-1.2-2.1-1.9-4.6-1.8-7c0-6.3,3.9-11.5,8.8-11.5s8.8,5.1,8.8,11.5c0,2.5-0.6,4.9-1.8,7
			c2.4,4.4,2.4,9.7,0,14c2.4,4.4,2.4,9.7,0,14c1.2,2.1,1.9,4.6,1.8,7c0,6.3-3.9,11.5-8.8,11.5s-8.8-5.1-8.8-11.5
			c0-2.5,0.6-4.9,1.8-7c-2.4-4.4-2.4-9.7,0-14C639.8,209.9,639.8,204.6,642.2,200.3z"/>
		<ellipse class="st3" cx="649.2" cy="179.3" rx="8.8" ry="11.5"/>
		<ellipse class="st3" cx="649.2" cy="165.2" rx="8.8" ry="11.5"/>
		<path class="st4" d="M682,69.3c1.2-1.5,2.3-3.1,3.3-4.8l-23-3.8l24.9,0.2c4.8-10.5,5.1-22.5,0.8-33.2L654.5,45l30.8-22.6
			C673.8,2.2,648.2-4.8,628,6.6c-20.1,11.5-27.2,37.1-15.7,57.2c1.1,1.9,2.3,3.7,3.7,5.4c-1.9,2.4-3.5,4.9-4.8,7.6l29.9,15.6
			l-31.9-10.7c-4.5,13.4-2,28.3,6.8,39.4c-14.3,18.2-11.2,44.6,7,58.9s44.6,11.2,58.9-7c12-15.2,12-36.7,0-51.9
			C693.9,106,693.9,84.6,682,69.3L682,69.3z"/>
		<path class="st5" d="M607,95.3c0,9.4,3.1,18.6,9,25.9c-14.3,18.2-11.2,44.6,7,58.9c18.2,14.3,44.6,11.2,58.9-7
			c12-15.2,12-36.7,0-51.9C687.6,114.1,607,90.6,607,95.3z"/>
	</g>
	<g class="st1">
		<ellipse class="st3" cx="564.6" cy="251" rx="6.5" ry="8.6"/>
		<path class="st3" d="M559.5,214.3c-0.9-1.6-1.4-3.4-1.4-5.2c0-4.7,2.9-8.6,6.5-8.6c3.6,0,6.5,3.8,6.5,8.6c0,1.8-0.5,3.6-1.4,5.2
			c1.8,3.3,1.8,7.2,0,10.5c1.8,3.3,1.8,7.2,0,10.5c0.9,1.6,1.4,3.4,1.4,5.2c0,4.7-2.9,8.6-6.5,8.6c-3.6,0-6.5-3.8-6.5-8.6
			c0-1.8,0.5-3.6,1.4-5.2c-1.8-3.3-1.8-7.2,0-10.5C557.6,221.5,557.6,217.6,559.5,214.3z"/>
		<ellipse class="st3" cx="664.6" cy="198.6" rx="6.5" ry="8.6"/>
		<ellipse class="st3" cx="664.6" cy="188.1" rx="6.5" ry="8.6"/>
		<path class="st4" d="M589.1,116.5c0.9-1.1,1.7-2.3,2.4-3.6l-17.2-2.8l18.6,0.1c3.6-7.8,3.8-16.8,0.6-24.9l-25,13l23-16.9
			c-8.7-15-27.8-20.2-42.8-11.5s-20.2,27.8-11.5,42.8c0.8,1.3,1.6,2.6,2.6,3.8c-1.4,1.8-2.6,3.7-3.6,5.7l22.3,11.6l-23.8-8
			c-3.4,10-1.5,21.1,5.1,29.4c-10.7,13.6-8.4,33.3,5.2,44c13.6,10.7,33.3,8.4,44-5.2c9-11.4,9-27.4,0-38.8
			C598.1,143.9,598.1,127.8,589.1,116.5L589.1,116.5z"/>
		<path class="st5" d="M533.1,135.8c0,7,2.4,13.9,6.7,19.4c-10.7,13.6-8.4,33.3,5.2,44c13.6,10.7,33.3,8.4,44-5.2
			c9-11.4,9-27.4,0-38.8C593.3,149.9,533.1,132.3,533.1,135.8z"/>
	</g>
	<g class="st1">
		<ellipse class="st3" cx="47.3" cy="249.3" rx="8.8" ry="11.5"/>
		<path class="st3" d="M54.2,200.3c1.2-2.1,1.9-4.6,1.8-7c0-6.3-3.9-11.5-8.8-11.5s-8.8,5.1-8.8,11.5c0,2.5,0.6,4.9,1.8,7
			c-2.4,4.4-2.4,9.7,0,14c-2.4,4.4-2.4,9.7,0,14c-1.2,2.1-1.9,4.6-1.8,7c0,6.3,3.9,11.5,8.8,11.5s8.8-5.1,8.8-11.5
			c0-2.5-0.6-4.9-1.8-7c2.4-4.4,2.4-9.7,0-14C56.7,209.9,56.7,204.6,54.2,200.3L54.2,200.3z"/>
		<ellipse class="st3" cx="47.3" cy="179.3" rx="8.8" ry="11.5"/>
		<ellipse class="st3" cx="47.3" cy="165.2" rx="8.8" ry="11.5"/>
		<path class="st4" d="M14.5,69.3c-1.2-1.5-2.3-3.1-3.3-4.8l23-3.8L9.3,61C4.5,50.5,4.2,38.4,8.6,27.7L42,45L11.2,22.4
			C22.7,2.3,48.3-4.7,68.4,6.8C88.6,18.3,95.5,43.9,84,64.1c-1.1,1.8-2.3,3.6-3.6,5.3c1.9,2.4,3.5,4.9,4.8,7.6L55.3,92.5l31.9-10.7
			c4.5,13.4,2,28.3-6.8,39.4c14.3,18.2,11.2,44.6-7,58.9s-44.6,11.2-58.9-7c-12-15.2-12-36.7,0-51.9C2.5,106,2.5,84.6,14.5,69.3
			L14.5,69.3z"/>
		<path class="st5" d="M89.4,95.3c0,9.4-3.1,18.6-9,25.9c14.3,18.2,11.2,44.6-7,58.9s-44.6,11.2-58.9-7c-12-15.2-12-36.7,0-51.9
			C8.9,114.1,89.4,90.6,89.4,95.3z"/>
	</g>
	<g class="st1">
		<ellipse class="st3" cx="121.8" cy="251" rx="6.5" ry="8.6"/>
		<path class="st3" d="M127,214.3c0.9-1.6,1.4-3.4,1.4-5.2c0-4.7-2.9-8.6-6.5-8.6c-3.6,0-6.5,3.8-6.5,8.6c0,1.8,0.5,3.6,1.4,5.2
			c-1.8,3.3-1.8,7.2,0,10.5c-1.8,3.3-1.8,7.2,0,10.5c-0.9,1.6-1.4,3.4-1.4,5.2c0,4.7,2.9,8.6,6.5,8.6c3.6,0,6.5-3.8,6.5-8.6
			c0-1.8-0.5-3.6-1.4-5.2c1.8-3.3,1.8-7.2,0-10.5C128.8,221.5,128.8,217.6,127,214.3z"/>
		<ellipse class="st3" cx="81.8" cy="198.6" rx="6.5" ry="8.6"/>
		<ellipse class="st3" cx="81.8" cy="188.1" rx="6.5" ry="8.6"/>
		<path class="st4" d="M97.3,116.5c-0.9-1.1-1.7-2.3-2.4-3.6l17.2-2.8l-18.6,0.1c-3.6-7.8-3.8-16.8-0.6-24.9l25,13l-23-16.9
			c8.7-15,27.8-20.2,42.8-11.5c15,8.7,20.2,27.8,11.5,42.8c-0.8,1.3-1.6,2.6-2.6,3.8c1.4,1.8,2.6,3.7,3.6,5.7l-22.3,11.6l23.8-8
			c3.4,10,1.5,21.1-5.1,29.4c10.7,13.6,8.4,33.3-5.2,44c-13.6,10.7-33.3,8.4-44-5.2c-9-11.4-9-27.4,0-38.8
			C88.4,143.8,88.4,127.8,97.3,116.5L97.3,116.5z"/>
		<path class="st5" d="M153.3,135.8c0,7-2.4,13.9-6.7,19.4c10.7,13.6,8.4,33.3-5.2,44c-13.6,10.7-33.3,8.4-44-5.2
			c-9-11.4-9-27.4,0-38.8C93.1,149.9,153.3,132.3,153.3,135.8z"/>
	</g>
	<path class="st6" d="M371.6,374.1c232.9,0,321.7,3.1,321.7,6.8s-88.8,6.8-321.7,6.8s-371.7-3.1-371.7-6.8S138.7,374.1,371.6,374.1z
		"/>
	<path class="st6" d="M371.6,430.1c232.9,0,321.7,3.1,321.7,6.8s-88.8,6.8-321.7,6.8s-371.7-3.1-371.7-6.8S138.7,430.1,371.6,430.1z
		"/>
	<path class="st6" d="M371.6,257.3c232.9,0,321.7,3.1,321.7,6.8s-88.8,6.8-321.7,6.8s-371.7-3.1-371.7-6.8S138.7,257.3,371.6,257.3z
		"/>
	<path class="st6" d="M371.6,315.7c232.9,0,321.7,3.1,321.7,6.8s-88.8,6.8-321.7,6.8s-371.7-3.1-371.7-6.8S138.7,315.7,371.6,315.7z
		"/>
	<path class="st6" d="M502.3,86.4c-2.7-0.5-5.6-0.2-8.2,0.9c-3.1,1.4-6.7,1.4-9.8,0c-3.7-1.6-7.9-1.5-11.5,0.2
		c-1,0.5-2.2,0.8-3.3,0.8c-4.7,0-8.6-4.7-9.4-10.9c0.9-0.7,1.7-1.5,2.3-2.5c2.7-4.4,7-7.3,11.8-7.3s9,2.8,11.7,7.2
		c1.7,2.7,4.6,4.3,7.8,4.3h0.1C497.5,79,500.8,82,502.3,86.4z"/>
	<path class="st6" d="M516.6,66.8l-7.6,4.8l4.6-8.3c-1.3-1-2.9-1.6-4.6-1.6h-0.1c-0.5,0-1,0-1.5-0.1l-2.6,1.6l1.1-2
		c-1.8-0.6-3.4-1.8-4.5-3.4l-4.6,2.9l2.9-5.3c-2.7-3.2-6.3-5.2-10.3-5.2c-4.8,0-9,2.8-11.8,7.2c-1.6,2.7-4.6,4.3-7.8,4.2h-0.3
		c-5.3,0-9.5,6-9.5,13.3c0,7.4,4.3,13.3,9.5,13.3c1.2,0,2.3-0.3,3.3-0.8c3.6-1.8,7.8-1.9,11.5-0.2c3.1,1.4,6.7,1.4,9.8,0
		c3.7-1.6,7.8-1.5,11.4,0.2c1,0.5,2.1,0.8,3.3,0.8c5.3,0,9.5-6,9.5-13.3C518.6,72.1,517.9,69.3,516.6,66.8z"/>
	<path class="st6" d="M251,82.2c-1.9-0.4-3.9-0.1-5.7,0.6c-2.2,1-4.7,1-6.9,0c-2.6-1.1-5.5-1.1-8.1,0.2c-0.7,0.4-1.5,0.6-2.3,0.6
		c-3.3,0-6-3.3-6.6-7.6c0.7-0.5,1.2-1.1,1.6-1.8c1.9-3.1,4.9-5.1,8.2-5.1c3.3,0,6.3,2,8.2,5c1.2,1.9,3.2,3,5.4,3h0.1
		C247.6,77.1,249.9,79.2,251,82.2z"/>
	<path class="st6" d="M261,68.5l-5.3,3.4l3.2-5.8c-0.9-0.7-2-1.1-3.2-1.1h-0.1c-0.4,0-0.7,0-1.1-0.1l-1.8,1.1l0.8-1.4
		c-1.3-0.4-2.4-1.3-3.1-2.4l-3.2,2l2-3.7c-1.7-2.2-4.4-3.6-7.2-3.6c-3.3,0-6.3,2-8.2,5.1c-1.2,1.9-3.2,3-5.4,2.9h-0.2
		c-3.7,0-6.7,4.2-6.7,9.3s3,9.3,6.7,9.3c0.8,0,1.6-0.2,2.3-0.6c2.5-1.2,5.5-1.3,8.1-0.2c1.1,0.5,2.3,0.8,3.5,0.8
		c1.2,0,2.3-0.2,3.4-0.7c2.6-1.1,5.5-1.1,8,0.2c0.7,0.4,1.5,0.6,2.3,0.6c3.7,0,6.7-4.2,6.7-9.3C262.4,72.3,261.9,70.3,261,68.5z"/>
	<path class="st6" d="M187.4,142.5c1.9-0.4,3.9-0.1,5.7,0.6c2.2,1,4.7,1,6.9,0c2.6-1.1,5.5-1.1,8.1,0.2c0.7,0.4,1.5,0.6,2.3,0.6
		c3.3,0,6-3.3,6.6-7.6c-0.7-0.5-1.2-1.1-1.6-1.8c-1.9-3.1-4.9-5.1-8.2-5.1s-6.3,2-8.2,5c-1.2,1.9-3.2,3-5.4,3h-0.1
		C190.7,137.4,188.4,139.5,187.4,142.5z"/>
	<path class="st6" d="M177.4,128.9l5.3,3.4l-3.2-5.8c0.9-0.7,2-1.1,3.2-1.1h0.1c0.4,0,0.7,0,1.1-0.1l1.8,1.1l-0.8-1.4
		c1.3-0.4,2.4-1.3,3.1-2.4l3.2,2l-2-3.7c1.7-2.2,4.4-3.6,7.2-3.6c3.3,0,6.3,2,8.2,5.1c1.2,1.9,3.2,3,5.4,2.9h0.2
		c3.7,0,6.7,4.2,6.7,9.3c0,5.1-3,9.3-6.7,9.3c-0.8,0-1.6-0.2-2.3-0.6c-2.5-1.2-5.5-1.3-8.1-0.2c-1.1,0.5-2.3,0.8-3.4,0.8
		c-1.2,0-2.3-0.2-3.4-0.7c-2.6-1.1-5.5-1.1-8,0.2c-0.7,0.4-1.5,0.6-2.3,0.6c-3.7,0-6.7-4.2-6.7-9.3
		C176,132.7,176.5,130.7,177.4,128.9z"/>
	<path class="st7" d="M461.1,378.7c2-3.7-0.3-8.3-2.9-11.6s-5.8-6.8-5.7-11c0.1-6.1,6.5-9.7,11.7-12.9c3.8-2.4,7.3-5.2,10.5-8.5
		c1.3-1.2,2.4-2.7,3.2-4.3c1.1-2.4,1-5.1,1-7.7c-0.2-8.7-0.6-17.3-1.3-26"/>
	<path class="st4" d="M487.4,296.3c-0.2-3.2-1.9-6.2-4.7-7.8l-2.1,4.2l0.1-5.1c-5-1.5-10.3,1.4-11.8,6.4c-1.5,5,1.4,10.3,6.4,11.8
		c5,1.5,10.3-1.4,11.8-6.4C487.3,298.5,487.5,297.4,487.4,296.3z"/>
	<path class="st4" d="M470.5,360.5c-2.4,4.7-8.1,6.5-12.8,4.1c-3-1.5-5-4.6-5.1-7.9c-0.1-1.3,0.1-2.6,0.6-3.8
		c1.9-4.9,7.4-7.3,12.3-5.4c2.5,1,4.5,3,5.4,5.5l-5.9,4.8l6.5-1.5C471.5,357.7,471.2,359.1,470.5,360.5z"/>
	<path class="st4" d="M465.8,342.1c-5.2,0.2-9.7-3.8-9.9-9c-0.2-4.4,2.7-8.4,6.9-9.6l-0.1,3.9l2.1-4.2l0,0c5.2-0.2,9.7,3.8,9.9,9
		C475.1,337.4,471,341.8,465.8,342.1L465.8,342.1z"/>
	<path class="st4" d="M488.8,326.8c-5.2,0.3-9.7-3.7-10-9c-0.3-5.2,3.7-9.7,9-10c1.8-0.1,3.6,0.3,5.2,1.2l-1.7,4.6l3.4-3.4
		c3.9,3.5,4.1,9.5,0.6,13.4C493.7,325.5,491.3,326.6,488.8,326.8L488.8,326.8z"/>
	<path class="st5" d="M486.1,298.9c-2.2,0.2-4.3,0.9-6.5,1.1c-2.2,0.1-4.6-0.4-6-2.1c-0.6-1-1.2-2-1.8-3.1c-0.6-0.9-1.4-1.7-2.4-2.2
		c-2.4,4.7-0.5,10.4,4.1,12.7c4.7,2.4,10.4,0.5,12.7-4.1c0.4-0.7,0.7-1.5,0.8-2.3C486.8,298.8,486.5,298.8,486.1,298.9z"/>
	<path class="st5" d="M488.8,326.8c-5.2,0.2-9.7-3.8-9.9-9c-0.1-1.6,0.2-3.1,0.9-4.5c0.8,0.5,1.4,1.2,1.9,1.9
		c0.6,1.1,1.2,2.1,1.9,3.1c1.5,1.7,4,2.3,6.3,2.2c2.3-0.1,4.5-0.8,6.8-1c0.3,0,0.6,0,1-0.1C496.6,323.6,493.1,326.6,488.8,326.8z"/>
	<path class="st5" d="M465.8,342.1c-5.2,0.2-9.7-3.8-9.9-9c-0.1-1.5,0.2-3,0.8-4.3c0.8,0.5,1.5,1.2,2,1.9c0.6,1.1,1.3,2.2,2.1,3.2
		c1.6,1.8,4.3,2.4,6.7,2.3s4.6-0.6,6.9-0.8C473.3,339.2,469.8,341.9,465.8,342.1z"/>
	<path class="st5" d="M470.5,360.5c-2.4,4.7-8.1,6.5-12.8,4.1c-3-1.5-5-4.6-5.1-7.9c-0.1-1.3,0.1-2.6,0.6-3.8
		c0.8,0.5,1.5,1.1,2.1,1.9c0.9,1.1,1.5,2.3,2.5,3.4c1.9,1.9,5.1,2.7,7.8,2.8C467.3,360.8,468.9,360.7,470.5,360.5z"/>
	<path class="st7" d="M41.7,323.3c2-3.7-0.3-8.3-2.9-11.6s-5.8-6.8-5.7-11c0.1-6.1,6.5-9.7,11.7-12.9c3.8-2.4,7.3-5.2,10.5-8.5
		c1.3-1.2,2.4-2.7,3.2-4.3c1.1-2.4,1-5.1,1-7.7c-0.2-8.7-0.7-17.3-1.3-26"/>
	<path class="st4" d="M67.9,240.9c-0.2-3.2-1.9-6.2-4.7-7.8l-2.1,4.2l0.1-5.1c-5-1.5-10.3,1.4-11.8,6.4c-1.5,5,1.4,10.3,6.4,11.8
		c5,1.5,10.3-1.4,11.8-6.4C67.9,243,68,242,67.9,240.9L67.9,240.9z"/>
	<path class="st4" d="M51,305.1c-2.4,4.7-8.1,6.5-12.8,4.1c-3-1.5-5-4.6-5.1-7.9c-0.1-1.3,0.1-2.6,0.6-3.8c1.9-4.9,7.4-7.3,12.3-5.4
		c2.5,1,4.5,3,5.4,5.5l-5.9,4.8l6.5-1.5C52.1,302.2,51.7,303.7,51,305.1z"/>
	<path class="st4" d="M46.4,286.7c-5.2,0.2-9.7-3.8-9.9-9c-0.2-4.4,2.7-8.4,6.9-9.6l-0.1,3.9l2.1-4.2l0,0c5.2-0.2,9.7,3.8,9.9,9
		C55.6,282,51.6,286.4,46.4,286.7L46.4,286.7z"/>
	<path class="st4" d="M69.4,271.4c-5.2,0.3-9.7-3.7-10-9c-0.3-5.2,3.7-9.7,9-10c1.8-0.1,3.6,0.3,5.2,1.2l-1.7,4.6l3.4-3.4
		c3.9,3.5,4.1,9.5,0.6,13.4C74.2,270.1,71.8,271.2,69.4,271.4L69.4,271.4z"/>
	<path class="st5" d="M66.7,243.5c-2.2,0.2-4.3,0.9-6.5,1.1c-2.2,0.1-4.6-0.4-6-2.1c-0.6-1-1.2-2-1.8-3.1c-0.6-0.9-1.4-1.7-2.4-2.2
		c-2.4,4.7-0.5,10.4,4.1,12.7c4.7,2.4,10.4,0.5,12.7-4.1c0.4-0.7,0.7-1.5,0.8-2.3C67.4,243.4,67,243.4,66.7,243.5z"/>
	<path class="st5" d="M69.4,271.4c-5.2,0.2-9.7-3.8-9.9-9c-0.1-1.6,0.2-3.1,0.9-4.5c0.8,0.5,1.4,1.2,1.9,1.9
		c0.6,1.1,1.2,2.1,1.9,3.1c1.5,1.7,4,2.3,6.3,2.2c2.3-0.1,4.5-0.8,6.8-1c0.3,0,0.6,0,1-0.1C77.2,268.2,73.6,271.2,69.4,271.4z"/>
	<path class="st5" d="M46.4,286.7c-5.2,0.2-9.7-3.8-9.9-9c-0.1-1.5,0.2-3,0.8-4.3c0.8,0.5,1.5,1.2,2,1.9c0.6,1.1,1.3,2.2,2.1,3.2
		c1.6,1.8,4.3,2.4,6.7,2.3c2.4-0.1,4.6-0.6,6.9-0.8C53.8,283.8,50.4,286.5,46.4,286.7z"/>
	<path class="st5" d="M51,305.1c-2.4,4.7-8.1,6.5-12.8,4.1c-3-1.5-5-4.6-5.1-7.9c-0.1-1.3,0.1-2.6,0.6-3.8c0.8,0.5,1.5,1.1,2.1,1.9
		c0.9,1.1,1.5,2.3,2.5,3.4c1.9,1.9,5.1,2.7,7.8,2.8C47.8,305.3,49.5,305.2,51,305.1z"/>
	<path class="st7" d="M304.3,259.9c-2-3.7,0.3-8.3,2.9-11.6c2.6-3.3,5.8-6.8,5.7-11c-0.1-6.1-6.5-9.7-11.7-12.9
		c-3.8-2.4-7.3-5.2-10.5-8.5c-1.3-1.2-2.4-2.7-3.2-4.3c-1.1-2.4-1-5.1-1-7.7c0.2-8.7,0.7-17.3,1.3-26"/>
	<path class="st4" d="M278,177.5c0.1-3.2,1.9-6.2,4.7-7.8l2.1,4.2l-0.1-5.1c1-0.3,2.1-0.4,3.1-0.4c5.2,0.2,9.3,4.7,9,9.9
		c-0.2,5.2-4.7,9.3-9.9,9C281.8,187.2,277.8,182.8,278,177.5L278,177.5z"/>
	<path class="st4" d="M294.9,241.7c2.4,4.7,8.1,6.5,12.8,4.1c4.7-2.4,6.5-8.1,4.1-12.8c-2.4-4.7-8.1-6.5-12.8-4.1
		c-2.1,1.1-3.7,2.9-4.6,5.1l5.9,4.8l-6.5-1.5C293.9,238.8,294.2,240.3,294.9,241.7z"/>
	<path class="st4" d="M299.6,223.3c5.2,0.3,9.7-3.8,9.9-9c0.2-4.4-2.7-8.4-6.9-9.6l0,3.9l-2.1-4.2l0,0c-5.2-0.3-9.7,3.8-9.9,9
		c-0.1,1.1,0.1,2.2,0.4,3.2C292.2,220.4,295.6,223.1,299.6,223.3z"/>
	<path class="st4" d="M276.6,208c5.2,0.3,9.7-3.8,9.9-9c0.3-5.2-3.8-9.7-9-9.9c-1.8-0.1-3.6,0.3-5.2,1.2l1.7,4.6l-3.4-3.3
		c-1.9,1.7-3,4-3.1,6.5c0,0.9,0,1.8,0.2,2.6C268.8,204.8,272.4,207.8,276.6,208z"/>
	<path class="st5" d="M279.3,180.1c2.2,0.2,4.3,0.9,6.5,1.1c2.2,0.1,4.6-0.4,6-2.1c0.6-1,1.2-2,1.7-3.1c0.6-0.9,1.4-1.7,2.4-2.2
		c2.4,4.7,0.5,10.4-4.1,12.7c-4.7,2.4-10.4,0.5-12.7-4.1c-0.4-0.7-0.7-1.5-0.8-2.3C278.6,180,278.9,180,279.3,180.1z"/>
	<path class="st5" d="M276.6,208c5.2,0.2,9.7-3.8,9.9-9c0.1-1.5-0.2-3.1-0.9-4.5c-0.8,0.5-1.4,1.2-1.9,1.9c-0.6,1.1-1.2,2.1-1.9,3.1
		c-1.5,1.7-4,2.3-6.3,2.2s-4.5-0.8-6.8-1c-0.3,0-0.6,0-1-0.1C268.8,204.8,272.4,207.8,276.6,208z"/>
	<path class="st5" d="M299.6,223.3c5.2,0.3,9.7-3.8,9.9-9c0.1-1.5-0.2-3-0.8-4.3c-0.8,0.5-1.5,1.2-2,1.9c-0.6,1.1-1.3,2.2-2.1,3.2
		c-1.6,1.8-4.3,2.4-6.7,2.3c-2.4-0.1-4.6-0.6-6.9-0.8C292.2,220.4,295.6,223.1,299.6,223.3z"/>
	<path class="st5" d="M294.9,241.7c2.4,4.6,8.1,6.5,12.8,4c4.3-2.2,6.2-7.3,4.5-11.7c-0.8,0.5-1.5,1.1-2.1,1.9
		c-0.9,1.1-1.5,2.3-2.5,3.4c-1.9,1.9-5.1,2.7-7.9,2.8C298.1,242,296.5,241.9,294.9,241.7z"/>
	<circle class="st8" cx="550" cy="184.7" r="76.9"/>
	<path class="st4" d="M583,204.6c-2.7-2.7-9.1-6.7-12.3-8.2c-3.7-1.8-5-1.7-7.6,0.1c-2.2,1.5-3.6,3-6.1,2.5s-7.4-4.3-12.2-9
		c-4.8-4.8-8.5-9.7-9-12.2c-0.5-2.5,0.9-3.9,2.5-6.1c1.9-2.6,1.9-4,0.1-7.6c-1.5-3.2-5.5-9.6-8.2-12.3c-2.7-2.7-3.3-2.1-4.8-1.5
		c-1.5,0.6-3,1.4-4.4,2.3c-2.7,1.8-4.2,3.3-5.2,5.5c-1.1,2.2-2.2,6.4,3.9,17.3c4.5,8.4,10.3,16,17,22.7l0,0l0,0
		c6.7,6.8,14.4,12.5,22.8,17c10.9,6.2,15.1,4.9,17.3,3.9c2.2-1,3.7-2.5,5.5-5.2c0.9-1.4,1.7-2.8,2.3-4.4
		C585.1,207.8,585.7,207.2,583,204.6z"/>
	<path class="st5" d="M550,107.8c-42.5,0-77,34.4-77,76.9c0,42.5,34.4,77,76.9,77c42.5,0,77-34.4,77-76.9c0,0,0-0.1,0-0.1
		C626.9,142.2,592.4,107.8,550,107.8z M550,251.4c-36.8,0-66.7-29.9-66.7-66.7c0-36.8,29.9-66.7,66.7-66.7s66.7,29.9,66.7,66.7v0
		C616.7,221.6,586.8,251.4,550,251.4L550,251.4L550,251.4z"/>
	<circle class="st8" cx="373.2" cy="301.6" r="76.9"/>
	<path class="st4" d="M417,278.3l-23,23.4c-0.2,0.2-0.2,0.4,0,0.6c0,0,0,0,0,0l16.2,17.2c1.1,1.1,1.1,2.9,0,3.9
		c-0.5,0.5-1.2,0.8-1.9,0.8c-0.7,0-1.4-0.3-2-0.8l-16.1-17.1c-0.2-0.2-0.4-0.2-0.6,0l-3.9,4c-3.2,3.3-7.7,5.2-12.3,5.2
		c-4.7,0-9.2-1.9-12.5-5.3l-3.8-3.8c-0.2-0.2-0.4-0.2-0.6,0l-16,17.1c-1.1,1.1-2.8,1.1-3.9,0c0,0,0,0,0,0c-1.1-1.1-1.1-2.8,0-3.9
		c0,0,0,0,0,0l16.1-17.1c0.1-0.2,0.1-0.4,0-0.6l-23-23.4c-0.2-0.2-0.4-0.2-0.6,0c-0.1,0.1-0.1,0.2-0.1,0.3v46.9
		c0,3.8,3.1,6.8,6.8,6.8h75.3c3.8,0,6.8-3.1,6.8-6.8v-46.9c0-0.2-0.2-0.4-0.4-0.4C417.2,278.2,417.1,278.2,417,278.3z"/>
	<path class="st4" d="M373.2,309.9c3.2,0,6.2-1.2,8.4-3.5l33.5-34.1c-1.2-1-2.7-1.5-4.2-1.5h-75.4c-1.5,0-3,0.5-4.2,1.5l33.6,34.1
		C367.1,308.7,370.1,309.9,373.2,309.9z"/>
	<path class="st5" d="M372.3,224.6c-42.5,0-77,34.4-77,76.9s34.4,77,76.9,77c42.5,0,77-34.4,77-76.9c0,0,0-0.1,0-0.1
		C449.2,259.1,414.7,224.7,372.3,224.6z M372.3,368.3c-36.8,0-66.7-29.9-66.7-66.7c0-36.8,29.9-66.7,66.7-66.7
		c36.8,0,66.7,29.9,66.7,66.7l0,0C439,338.4,409.1,368.3,372.3,368.3z"/>
	<circle class="st8" cx="190.6" cy="244.1" r="76.9"/>
	<path class="st4" d="M190.6,207.3L160,278.1l2.9,2.9l27.8-12.3l27.8,12.3l2.9-2.9L190.6,207.3z"/>
	<path class="st5" d="M190.6,167.2c-42.5,0-77,34.4-77,76.9c0,42.5,34.4,77,76.9,77c42.5,0,77-34.4,77-76.9c0,0,0,0,0,0
		C267.6,201.6,233.1,167.2,190.6,167.2z M190.6,310.8c-36.8,0-66.7-29.9-66.7-66.7s29.9-66.7,66.7-66.7s66.7,29.9,66.7,66.7
		c0,0,0,0,0,0C257.3,281,227.5,310.8,190.6,310.8L190.6,310.8z"/>
	
		<linearGradient id="SVGID_1_" gradientUnits="userSpaceOnUse" x1="592.2388" y1="-159.6535" x2="592.2388" y2="-27.2206" gradientTransform="matrix(1 0 0 -1 -52 280.37)">
		<stop  offset="0" style="stop-color:#808080;stop-opacity:0.25"/>
		<stop  offset="0.54" style="stop-color:#808080;stop-opacity:0.12"/>
		<stop  offset="1" style="stop-color:#808080;stop-opacity:0.1"/>
	</linearGradient>
	<path class="st9" d="M557,341c-0.7-1.7-1.4-3.4-2.1-5.1c-0.6-1.7-1.5-3.2-2.6-4.5c-0.4-0.5-1-0.9-1.5-1.2c-0.6-0.2-1.3-0.4-2-0.4
		c-1-0.1-2.1-0.2-3.2-0.1c-0.4-0.1-0.9-0.3-1.3-0.5c4.7-1.2,8-5.4,8.2-10.2c0-0.2,0-0.3,0-0.5c0-6.1-4.9-11-10.9-11c0,0,0,0,0,0
		c-2,0-4,0.6-5.7,1.6c-4.7-1.1-9.5,1.2-11.5,5.6c-2.6,2.5-4,5.9-3.9,9.5c0,0.2,0,0.3,0,0.5c0.2,6,4.1,10.8,8.9,11.3
		c-0.5,0.2-1,0.6-1.4,0.9c-1.5,1.4-1.7,3.7-1.9,5.8l-0.1,1.5l-2.6,0.9c-0.2,0.1-0.4,0.4-0.3,0.6c0,0.1,0.1,0.2,0.2,0.2l2.5,1.8
		c0,0.1,0,0.3,0,0.4c0,0.1,0,0.3,0,0.5c-0.4,0.4-0.7,0.8-1,1.4c-0.2,0.8-0.3,1.7-0.2,2.5l0.1,2.1c0,1.6,0.2,3.2,0.7,4.8
		c0.3,1,1.7,3.3,2.7,3.3c-0.9,4.2-1.2,13.2-1.2,13.2c-0.1,0.1,0.2,0.2,0.8,0.3c0.6,4.2,2.4,16.2,5.6,21.4c0.5,1.7,0.9,3.4,1.2,5.2
		c0,0,0.9,11.3,2.1,14.7c1,2.9,1.8,9.9,2.1,12c-0.4,0.1-0.8,0.4-0.9,0.9c-0.6,1.8-4.5,4.6-4.5,4.6c-1.2,0.6-2.3,1.3-3.4,2.2
		c-1.2,1.1-1.2,2.1,4.3,1.5c10.6-1.2,12.4-4.6,12.4-4.6s-0.2-0.6-0.4-1.3c-0.3-1.1-0.8-2.3-1.4-3.3c-0.2-0.1-0.3,0.1-0.5,0.5
		c-0.8-4.9-1-9.9-0.7-14.9c0,0,0.3-5.2-1.2-8.9c-0.3-1.9-0.3-3.9,0-5.8c0.6-2.4-2.4-14.4-2.4-14.4l-1.7-8.8c0.2,0.3,0.4,0.7,0.5,1
		l0,0.2l0,0.3c0,0.1,0.1,0.2,0.1,0.2c1.2,4.9,4.4,18.6,4.4,20.6c0,2.4,3,8.6,3,8.6s1.2,10.1,3.3,14.1c1.6,3,1.7,7.5,1.6,9.4l0,0
		c0,0-0.4,2.5-1,3.1c-0.5,0.6-0.9,1.3-1.1,2l-0.1,0.1c0,0-0.9,1.8-0.3,2.1c2.3,0.9,4.8,1.2,7.3,0.9c0,0,1.2-1.5,1.2-2.1
		c0-0.4-0.1-0.7-0.1-1.1c-0.2-1.4-0.6-3.7-0.6-3.7c0.3-1-0.8-3.7-0.8-3.7l-0.3-8.6c0.6-5.8-0.2-11.7-2.1-17.1c0,0-1.5-5.5-1.2-7
		s-0.6-17.7-0.6-17.7l-0.1-0.2c-0.1-1.1-0.1-2.3,0.1-3.4c0.3-3.7-0.9-11.3-1.2-11.6c-0.3-0.8-0.4-1.7-0.4-2.5
		c0.1-0.6,0.3-2.5,0.6-4.8c3-0.1,6-0.4,8.9-0.8c0.3,0,0.6-0.1,0.8-0.3c0.1-0.2,0.2-0.4,0.2-0.6C560.5,349.7,558.8,345.3,557,341z
		 M550.9,350.7c0.3-2.2,0.7-4.3,1-5.9l0,0.1c0.6,1.6,1.1,3.2,1.5,4.8C552.6,350.2,551.8,350.5,550.9,350.7z"/>
	<path class="st10" d="M527.4,375.5c0,0,1.8,16.3,5.7,22.7c0.5,1.7,0.9,3.4,1.2,5.1c0,0,0.9,11.2,2.1,14.5
		c1.2,3.3,2.1,12.4,2.1,12.4s4.2,4.8,5.7,0.9c-1-5.2-1.3-10.5-0.9-15.7c0,0,0.3-5.1-1.2-8.8c-0.3-1.9-0.3-3.8,0-5.7
		c0.6-2.4-2.4-14.2-2.4-14.2l-2.4-11.8L527.4,375.5z"/>
	<path class="st11" d="M546.4,434.2c0,0-1.8,3.3-12.4,4.5c-5.5,0.6-5.5-0.4-4.3-1.5c1.1-0.8,2.2-1.6,3.4-2.2c0,0,3.9-2.7,4.5-4.5
		c0.6-1.8,2.7-0.3,2.7-0.3c3,4.5,3.6-1.2,4.2-0.6c0.6,1,1.1,2.1,1.4,3.2C546.3,433.6,546.4,434.2,546.4,434.2z"/>
	<path class="st5" d="M546.4,434.2c0,0-1.8,3.3-12.4,4.5c-5.5,0.6-5.5-0.4-4.3-1.5c0.9,0.5,2.6,0.8,6.1-0.6c5-2.1,8.7-3.3,10.2-3.7
		C546.3,433.6,546.4,434.2,546.4,434.2z"/>
	<path class="st5" d="M543.4,415.4c0,0,0.3-5.1-1.2-8.8c-0.3-1.9-0.3-3.8,0-5.7c0.6-2.4-2.4-14.2-2.4-14.2l-2.4-11.8l-2.1,0.1
		l2.4,11.7c0,0,3,11.8,2.4,14.2c-0.3,1.9-0.3,3.8,0,5.7c1.5,3.6,1.2,8.8,1.2,8.8c-0.3,5.3,0,10.5,0.9,15.7c-0.2,0.5-0.5,0.9-0.9,1.2
		c1.1,0.5,2.3,0.5,3-1.2C543.4,426,543,420.7,543.4,415.4z"/>
	<path class="st3" d="M541.4,309.1c-2,0-4,0.6-5.7,1.6c-4.7-1.1-9.4,1.2-11.5,5.5c-2.6,2.4-4,5.8-3.9,9.4c0,6.4,4.3,11.6,9.7,11.6
		c3.8,0,7.2-2.7,8.8-6.7c0.9,0.2,1.8,0.4,2.7,0.4c6,0,10.9-4.9,10.9-10.9C552.3,314,547.4,309.1,541.4,309.1L541.4,309.1z"/>
	<path class="st10" d="M550.4,377l0.9,2.4c0,0,0.9,16,0.6,17.5c-0.3,1.5,1.2,6.9,1.2,6.9c2,5.4,2.7,11.2,2.1,16.9l0.3,8.5
		c0,0,1.2,3.3,0.6,3.9c-0.6,0.6-5.2-0.5-5.2-0.5s0.6-6.3-1.5-10.3c-2.1-3.9-3.3-13.9-3.3-13.9s-3-6-3-8.5s-4.8-22.1-4.8-22.1
		L550.4,377z"/>
	<path class="st3" d="M526.8,376.7c0,0,0.3-10.9,1.5-14.2c0.6-1.6,1.1-3.2,1.3-4.8c0,0,18.3,3.3,19.8,2.1c0,0,0.3,4.2,0.6,4.5
		c0.3,0.3,1.5,7.9,1.2,11.5c-0.3,3.6,0,3.6,0,3.6s-12.4,1.8-12.7,0c-0.3-1.8-1.2-1.8-1.2-1.8S526.2,377.3,526.8,376.7z"/>
	<g class="st1">
		<path d="M536.7,376.7c0,0-7.6-0.2-10-0.6c0,0.4,0,0.6,0,0.6c-0.6,0.6,10.6,0.9,10.6,0.9c0.2,0,0.3,0.1,0.4,0.2
			C537.4,376.7,536.7,376.7,536.7,376.7z"/>
		<path d="M550.1,364.3c-0.3-0.3-0.6-4.5-0.6-4.5c-0.2,0.1-0.3,0.2-0.5,0.2c0.1,1.3,0.3,3.2,0.5,3.4c0.2,0.2,1.5,7.9,1.2,11.5
			c-0.3,3.6,0,3.6,0,3.6s-9.8,1.4-12.2,0.5c0,0.1,0.1,0.3,0.1,0.4c0.3,1.8,12.7,0,12.7,0s-0.3,0,0-3.6
			C551.6,372.2,550.4,364.6,550.1,364.3z"/>
		
			<pattern  id="SVGID_2_" xlink:href="#ad310e25-2b04-44c8-bb7b-9823891" patternTransform="matrix(0.7696 0 0 -0.7696 -1876.1113 -12150.5488)"  class="st1">
		</pattern>
		<path class="st12" d="M536.7,376.7c0,0-7.6-0.2-10-0.6c0,0.4,0,0.6,0,0.6c-0.6,0.6,10.6,0.9,10.6,0.9c0.2,0,0.3,0.1,0.4,0.2
			C537.4,376.7,536.7,376.7,536.7,376.7z"/>
		
			<pattern  id="SVGID_3_" xlink:href="#ad310e25-2b04-44c8-bb7b-9823891" patternTransform="matrix(0.7696 0 0 -0.7696 -1876.1113 -12150.5488)"  class="st1">
		</pattern>
		<path class="st13" d="M550.1,364.3c-0.3-0.3-0.6-4.5-0.6-4.5c-0.2,0.1-0.3,0.2-0.5,0.2c0.1,1.3,0.3,3.2,0.5,3.4
			c0.2,0.2,1.5,7.9,1.2,11.5c-0.3,3.6,0,3.6,0,3.6s-9.8,1.4-12.2,0.5c0,0.1,0.1,0.3,0.1,0.4c0.3,1.8,12.7,0,12.7,0s-0.3,0,0-3.6
			C551.6,372.2,550.4,364.6,550.1,364.3z"/>
	</g>
	<path class="st10" d="M540.1,328.2c0.3,0.6,0.7,1.1,1.2,1.5c0.3,0.2,0.7,0.4,1.1,0.5c-0.7,0.4-1.4,0.7-2.1,1.1
		c-1.1,0.7-2.1,1.5-3.1,2.3c-1,0.8-2.2,1.3-3.5,1.4c0.9-1.2,1.1-2.9,0.5-4.3c-0.3-0.5-0.5-1-0.5-1.5c0-0.9,0.8-1.5,1.5-2
		c0.6-0.4,1.2-0.8,1.8-1.1c0.5-0.3,1.2-0.9,1.8-0.9c0.6,0,0.7,0.5,0.8,1.1C539.5,326.8,539.8,327.5,540.1,328.2z"/>
	<path class="st5" d="M540.1,328.2c0.3,0.6,0.7,1.1,1.2,1.5c0.3,0.2,0.7,0.4,1.1,0.5c-0.7,0.4-1.4,0.7-2.1,1.1
		c-1.1,0.7-2.1,1.5-3.1,2.3c-1,0.8-2.2,1.3-3.5,1.4c0.9-1.2,1.1-2.9,0.5-4.3c-0.3-0.5-0.5-1-0.5-1.5c0-0.9,0.8-1.5,1.5-2
		c0.6-0.4,1.2-0.8,1.8-1.1c0.5-0.3,1.2-0.9,1.8-0.9c0.6,0,0.7,0.5,0.8,1.1C539.5,326.8,539.8,327.5,540.1,328.2z"/>
	<circle class="st10" cx="547.2" cy="339" r="7"/>
	<path class="st11" d="M557,437.8c0,0.6-1.2,2.1-1.2,2.1c-2.5,0.3-5,0-7.3-0.9c-0.6-0.3,0.3-2.1,0.3-2.1l0.1-0.1
		c0.3-0.7,0.7-1.4,1.1-2c0.6-0.6,1-3.1,1-3.1c1.9-3.1,5.2,1.3,5.2,1.3s0.4,2.3,0.6,3.7C557,437.2,557,437.6,557,437.8z"/>
	<path class="st5" d="M557,437.8c0,0.6-1.2,2.1-1.2,2.1c-2.5,0.3-5,0-7.3-0.9c-0.6-0.3,0.3-2.1,0.3-2.1l0.1-0.1
		c2.1,1,4.3,1.4,6.6,1.4l1.4-1.4C557,437.2,557,437.6,557,437.8z"/>
	<circle class="st10" cx="533.3" cy="324.5" r="6.8"/>
	<path class="st10" d="M527.8,338.1c-1.5,1.4-1.7,3.7-1.9,5.7l-0.2,3c-0.1,0.8-0.1,1.6-0.1,2.4c0,0.5,0.1,1,0.2,1.5
		c0,0.5,0.1,1.2,0.1,1.8v4.4c-0.1,0.9,0.1,1.8,0.5,2.7c0.4,0.8,1.4,1.2,2.3,0.8c0.5-0.4,0.8-0.9,1-1.5c0.8-1.8,1.3-3.7,1.5-5.6
		c0.1-0.7,0.1-1.3,0.1-2s0.2-1.4,0.3-2c0.4-2.8,0.6-5.7,0.8-8.6c0.1-0.8,0.8-4.2-0.3-4.5c-0.5-0.2-1.7,0.4-2.2,0.6
		C529.1,337.2,528.4,337.6,527.8,338.1z"/>
	<path class="st5" d="M527.8,338.1c-1.5,1.4-1.7,3.7-1.9,5.7l-0.2,3c-0.1,0.8-0.1,1.6-0.1,2.4c0,0.5,0.1,1,0.2,1.5
		c0,0.5,0.1,1.2,0.1,1.8v4.4c-0.1,0.9,0.1,1.8,0.5,2.7c0.4,0.8,1.4,1.2,2.3,0.8c0.5-0.4,0.8-0.9,1-1.5c0.8-1.8,1.3-3.7,1.5-5.6
		c0.1-0.7,0.1-1.3,0.1-2s0.2-1.4,0.3-2c0.4-2.8,0.6-5.7,0.8-8.6c0.1-0.8,0.8-4.2-0.3-4.5c-0.5-0.2-1.7,0.4-2.2,0.6
		C529.1,337.2,528.4,337.6,527.8,338.1z"/>
	<path class="st11" d="M541.9,328.9c0,0-5.1,3.9-8.2,4.8c0,0-1.8,2-2.1,2.5c-0.3,0.5-0.9,5.9-1.5,7.1s-2.1,3.9,0,6.6
		c0,0,0.6,2.7,0.3,3.6c-0.3,0.9-1.4,4.2-0.4,4.4s4,2.3,6.7,1.7c2.7-0.6,12.9,2.3,12.9,2.3s1.7-15.6,2.9-18.3l-2.7-0.9
		c0,0-7.6-4.5-3-11.5C546.7,331.3,542.5,330.4,541.9,328.9z"/>
	<path class="st3" d="M523.1,347.1l6.2,4.4c0.2,0.1,0.4,0.1,0.5,0l1.7-1.3c0.2-0.2,0.2-0.5,0.1-0.7c0,0,0,0-0.1-0.1l-4.8-4.3
		c-0.1-0.1-0.3-0.2-0.5-0.1l-3.1,1.1c-0.2,0.1-0.4,0.4-0.3,0.6C523,347,523,347.1,523.1,347.1z"/>
	<path class="st10" d="M525.2,360.5c-0.4-1.5-0.7-3.1-0.7-4.7l-0.1-2.1c-0.1-0.8,0-1.7,0.2-2.5c0.5-1.1,1.4-1.9,2.6-2.3
		c1.1-0.3,2.3-0.4,3.5-0.3c0.2,0,0.3,0,0.5,0.1c0.1,0.1,0.2,0.3,0.2,0.4c0.4,0.7,0.4,1.5,0.1,2.2c-0.2,0.3-0.4,0.5-0.7,0.7
		c-0.8,0.6-1.8,1-2.6,1.7c-0.2,0.1-0.3,0.3-0.4,0.4c0,0.2,0,0.3,0,0.5c0.1,0.4,0.2,0.8,0.4,1.2c0.1,0.2,0.2,0.4,0.3,0.5
		c0.1,0.1,0.3,0.2,0.5,0.3c0.3,0.3,1,0.6,1,1c-0.1,1.5-1,3.3-1.4,4.8C528.1,365.6,525.7,361.8,525.2,360.5z"/>
	<g class="st1">
		<path d="M534.9,359.8h-0.2c0.7,0.1,1.3,0.1,2,0h0.2C536.3,359.7,535.6,359.7,534.9,359.8z"/>
		<path d="M550.8,343.3c-1.1,2.4-2.7,15.7-3,18.3c1.1,0.3,1.8,0.5,1.8,0.5s1.7-15.5,2.9-18.3L550.8,343.3z"/>
	</g>
	<path class="st10" d="M547.4,339.3c0.1,0.6,0.5,1.2,1,1.5c0.6,0.5,1.2,1.1,1.8,1.8c0.8,1.1,1.3,2.3,1.7,3.5
		c0.6,1.6,1.1,3.2,1.5,4.8c-3.8,1.8-8.2,1.7-12.3,2.9c-1.8,0.5-3.4,1.4-4.6,2.7c-1.3,1.3-1.9,3.2-1.7,5c0,0.1,0,0.2,0.1,0.3
		c0.1,0.2,0.3,0.2,0.5,0.2c1,0,2-0.3,2.8-1c0.8-0.6,1.5-1.3,2.2-2.1c0.4-0.5,0.9-0.9,1.5-1.1c2.2-0.7,4.6-0.6,6.9-0.7
		c3.5-0.1,6.9-0.3,10.3-0.8c0.5,0.1,0.9-0.3,0.9-0.7c0-0.1,0-0.1,0-0.2c0.3-4.5-1.3-9-3.1-13.2c-0.7-1.7-1.4-3.4-2.1-5
		c-0.6-1.6-1.5-3.2-2.6-4.5c-0.4-0.5-1-0.9-1.5-1.1c-0.7-0.2-1.4-0.4-2.1-0.4c-1.1-0.2-2.3-0.2-3.4-0.1c-0.2,0.6-0.3,1.2-0.3,1.7
		c0.1,2.1,1,4,1.9,5.9C546.9,339,547.2,339,547.4,339.3z"/>
	<path class="st14" d="M535.1,343.2c-0.5,0.9-0.8,1.9-0.8,2.9c0,0.4,0.1,0.8,0.2,1.2c0.4,1.1,1.3,2,2.5,2.3"/>
	<path class="st3" d="M539,317.9c-0.4,0-0.8,0.1-1.1,0.2c-1-1.5-3.4-2.6-6.2-2.6c-3.7,0-6.7,1.9-6.7,4.2c0,2.3,3,4.2,6.7,4.2
		c1.4,0,2.7-0.3,4-0.8c0.9,1.8,3,2.6,4.8,1.7c1.8-0.9,2.6-3,1.7-4.8C541.7,318.7,540.4,317.9,539,317.9L539,317.9z"/>
	<path class="st5" d="M539.3,324.2c-1.4,0-2.7-0.8-3.3-2.1c-1.3,0.6-2.6,0.9-4,0.8c-3.7,0-6.6-1.9-6.6-4.2c0-0.1,0-0.3,0-0.4
		c-0.2,0.4-0.3,0.9-0.3,1.3c0,2.3,3,4.2,6.7,4.2c1.4,0,2.7-0.3,4-0.8c0.9,1.8,3,2.6,4.8,1.7c1-0.5,1.8-1.5,2-2.6
		C541.9,323.4,540.7,324.2,539.3,324.2z"/>
	<path class="st5" d="M524.2,318c2.1-4.3,6.9-6.6,11.5-5.5c5.1-3.2,11.8-1.6,15,3.5c0.9,1.5,1.4,3.1,1.6,4.8c0-0.3,0-0.6,0-0.9
		c0-6-4.9-10.9-10.9-10.9c-2,0-4,0.6-5.7,1.6c-4.7-1.1-9.4,1.2-11.5,5.5c-2.6,2.4-4,5.8-3.9,9.4c0,0.3,0,0.6,0,0.9
		C520.4,323.3,521.8,320.2,524.2,318z"/>
	<path class="st7" d="M593.6,320.3c2-3.7-0.3-8.3-2.9-11.6c-2.6-3.3-5.8-6.8-5.7-11c0.1-6.1,6.5-9.7,11.7-12.9
		c3.8-2.4,7.3-5.2,10.5-8.5c1.3-1.2,2.4-2.7,3.2-4.3c1.1-2.4,1-5.1,1-7.7c-0.2-8.7-0.7-17.3-1.3-26"/>
	<path class="st4" d="M619.8,237.9c-0.1-3.2-1.9-6.1-4.7-7.8l-2.1,4.2l0.1-5.1c-1-0.3-2.1-0.4-3.1-0.4c-5.2,0.2-9.3,4.7-9,9.9
		c0.2,5.2,4.7,9.3,9.9,9C616,247.6,620.1,243.1,619.8,237.9C619.8,237.9,619.8,237.9,619.8,237.9L619.8,237.9z"/>
	<path class="st4" d="M602.9,302c-2.4,4.7-8.1,6.5-12.8,4.1c-4.7-2.4-6.5-8.1-4.1-12.8c2.4-4.7,8.1-6.5,12.8-4.1
		c2.1,1.1,3.7,2.9,4.5,5.1l-5.9,4.8l6.5-1.5C604,299.2,603.6,300.7,602.9,302z"/>
	<path class="st4" d="M598.3,283.6c-5.2,0.3-9.7-3.8-9.9-9c-0.2-4.4,2.7-8.4,6.9-9.6l0,3.9l2.1-4.2l0,0c5.2-0.2,9.7,3.8,9.9,9
		C607.5,279,603.5,283.4,598.3,283.6C598.2,283.7,598.2,283.7,598.3,283.6L598.3,283.6z"/>
	<path class="st4" d="M621.3,268.3c-5.2,0.3-9.7-3.8-9.9-9c-0.3-5.2,3.8-9.7,9-9.9c1.8-0.1,3.6,0.3,5.2,1.2l-1.7,4.6l3.4-3.3
		c1.9,1.7,3,4,3.1,6.5c0,0.9,0,1.8-0.2,2.6C629.1,265.2,625.5,268.2,621.3,268.3z"/>
	<path class="st5" d="M618.6,240.4c-2.2,0.2-4.3,0.9-6.5,1.1c-2.2,0.1-4.6-0.4-6-2.1c-0.6-1-1.2-2-1.7-3.1c-0.6-0.9-1.4-1.7-2.4-2.2
		c-2.4,4.7-0.5,10.4,4.1,12.7c4.7,2.4,10.4,0.5,12.7-4.1c0.4-0.7,0.7-1.5,0.8-2.3C619.3,240.4,618.9,240.4,618.6,240.4z"/>
	<path class="st5" d="M621.3,268.3c-5.2,0.2-9.7-3.8-9.9-9c-0.1-1.5,0.2-3.1,0.9-4.5c0.8,0.5,1.4,1.1,1.9,1.9
		c0.6,1.1,1.2,2.1,1.9,3.1c1.5,1.7,4,2.3,6.3,2.2s4.5-0.8,6.8-1c0.3,0,0.6-0.1,1-0.1C629.1,265.2,625.5,268.2,621.3,268.3z"/>
	<path class="st5" d="M598.3,283.6c-5.2,0.3-9.7-3.8-9.9-9c-0.1-1.5,0.2-3,0.8-4.4c0.8,0.5,1.5,1.2,2,1.9c0.8,1,1.2,2.2,2.1,3.2
		c1.6,1.8,4.3,2.4,6.7,2.4c2.4-0.1,4.6-0.6,6.9-0.8C605.7,280.8,602.3,283.5,598.3,283.6z"/>
	<path class="st5" d="M602.9,302c-2.5,4.6-8.2,6.4-12.8,3.9c-4.2-2.2-6-7.2-4.4-11.6c0.8,0.5,1.5,1.1,2.1,1.9
		c0.9,1.1,1.5,2.3,2.5,3.4c1.9,1.9,5.1,2.7,7.9,2.8C599.7,302.3,601.3,302.2,602.9,302z"/>
	<path class="st7" d="M615.9,437.3c2-3.7-0.3-8.3-2.9-11.6s-5.8-6.8-5.7-11c0.1-6.1,6.5-9.7,11.7-12.9c3.8-2.4,7.3-5.2,10.5-8.5
		c1.3-1.2,2.4-2.7,3.2-4.3c1.1-2.4,1-5.1,1-7.7c-0.2-8.7-0.6-17.3-1.3-26"/>
	<path class="st4" d="M642.2,354.9c-0.1-3.2-1.9-6.1-4.7-7.8l-2.1,4.2l0.1-5.1c-1-0.3-2-0.4-3.1-0.4c-5.2,0.2-9.3,4.7-9,9.9
		c0.2,5.2,4.7,9.3,9.9,9C638.4,364.6,642.5,360.1,642.2,354.9C642.2,354.9,642.2,354.9,642.2,354.9L642.2,354.9z"/>
	<path class="st4" d="M625.3,419c-2.4,4.7-8.1,6.5-12.8,4.1c-4.7-2.4-6.5-8.1-4.1-12.8s8.1-6.5,12.8-4.1c2.1,1.1,3.7,2.9,4.5,5.1
		l-5.9,4.8l6.5-1.5C626.4,416.2,626,417.7,625.3,419z"/>
	<path class="st4" d="M620.6,400.6c-5.2,0.3-9.7-3.8-9.9-9c-0.2-4.4,2.7-8.4,6.9-9.6l0,3.9l2.1-4.2l0,0c5.2-0.2,9.7,3.8,9.9,9
		C629.9,396,625.8,400.4,620.6,400.6C620.6,400.6,620.6,400.6,620.6,400.6L620.6,400.6z"/>
	<path class="st4" d="M643.6,385.3c-5.2,0.3-9.7-3.8-9.9-9c-0.3-5.2,3.8-9.7,9-9.9c1.8-0.1,3.6,0.3,5.2,1.2l-1.7,4.6l3.4-3.3
		c1.9,1.7,3,4,3.1,6.5c0,0.9,0,1.8-0.2,2.6C651.4,382.2,647.8,385.1,643.6,385.3z"/>
	<path class="st5" d="M640.9,357.4c-2.2,0.2-4.3,0.9-6.5,1.1c-2.2,0.1-4.6-0.4-6-2.1c-0.6-1-1.2-2-1.7-3.1c-0.6-0.9-1.4-1.7-2.4-2.2
		c-2.4,4.7-0.5,10.4,4.1,12.7c4.7,2.4,10.4,0.5,12.7-4.1c0.4-0.7,0.7-1.5,0.8-2.3C641.6,357.4,641.3,357.4,640.9,357.4z"/>
	<path class="st5" d="M643.6,385.3c-5.2,0.2-9.7-3.8-9.9-9c-0.1-1.5,0.2-3.1,0.9-4.5c0.8,0.5,1.4,1.1,1.9,1.9
		c0.6,1.1,1.2,2.1,1.9,3.1c1.5,1.7,4,2.3,6.3,2.2c2.3-0.1,4.5-0.8,6.8-1c0.3,0,0.6-0.1,1-0.1C651.4,382.1,647.9,385.1,643.6,385.3z"
		/>
	<path class="st5" d="M620.6,400.6c-5.2,0.3-9.7-3.8-9.9-9c-0.1-1.5,0.2-3,0.8-4.4c0.8,0.5,1.5,1.2,2,1.9c0.8,1,1.2,2.2,2.1,3.2
		c1.6,1.8,4.3,2.4,6.7,2.4c2.4-0.1,4.6-0.6,6.9-0.8C628.1,397.8,624.6,400.4,620.6,400.6z"/>
	<path class="st5" d="M625.3,419c-2.5,4.6-8.2,6.4-12.8,3.9c-4.2-2.2-6-7.2-4.4-11.6c0.8,0.5,1.5,1.1,2.1,1.9
		c0.9,1.1,1.5,2.3,2.5,3.4c1.9,1.9,5.1,2.7,7.8,2.8C622.1,419.3,623.7,419.2,625.3,419z"/>
	
		<linearGradient id="SVGID_4_" gradientUnits="userSpaceOnUse" x1="318.156" y1="-104.3609" x2="318.156" y2="-26.6379" gradientTransform="matrix(1 0 0 -1 -52 280.37)">
		<stop  offset="0" style="stop-color:#808080;stop-opacity:0.25"/>
		<stop  offset="0.54" style="stop-color:#808080;stop-opacity:0.12"/>
		<stop  offset="1" style="stop-color:#808080;stop-opacity:0.1"/>
	</linearGradient>
	<path class="st15" d="M317.7,328.7c0-2.4-1.1-4.7-3-6.1c0-4.3-3.1-8-7.4-8.7c-0.6-3.1-2.9-5.6-5.9-6.6l0,0
		c-0.4-0.1-0.7-0.2-1.1-0.3h-0.1h-0.2h-0.2h-0.2h-0.2h-0.5c-4.2,0.1-7.8,3.2-8.4,7.4c-2.7-0.6-5.2,0.2-5.6,1.9
		c-0.1,0.5-0.1,0.9,0.1,1.4c0.5,1.3,2,2.6,4,3.2l0.3,0.1l0.4,0.1h0.1l0,0c-0.4,0.9-0.6,1.9-0.6,2.9c0,2.5,1.4,4.8,3.6,6l-0.2,0.1
		c-0.3,0.2-0.4,0.5-0.6,0.8c-0.5,0.9-0.9,1.8-1.1,2.7c-0.2,0.8-0.2,1.7-0.5,2.5c-0.4,1.5-1.6,2.7-1.7,4.3c-0.1,0.7,0.1,1.5-0.4,2
		c-0.1,0.1-0.3,0.2-0.4,0.3c-0.3,0.2-0.6,0.5-0.9,0.9c-0.1,0.3-0.4,0.6-0.6,0.9c-0.4,0.3-1.2,0.3-1.4,0.8c-0.2,0.5,0.3,1.1,0.2,1.7
		c-0.1,0.6-0.6,0.7-1,1c-0.4,0.4-0.7,1-0.8,1.5c-1.5,0.3-3-0.1-4.2-1.1c0.2,0.5,0.3,1,0.4,1.5c-0.7-0.5-1.4-0.9-2.2-1.1
		c-0.9-0.4-1.7-1-2.4-1.8l1.3-0.2l-5.6-8.6l-1.7-0.3l1.5,2.9c-0.3,0.1-0.4,0.3-0.5,0.6c-0.1,0.3-0.1,0.7-0.1,1
		c0.1,0.8,0.2,1.5,0.4,2.3l0.4,2c0,0.2,0.1,0.4,0.1,0.6c-0.6,0-1.1,0-1.7,0.2c-1.1-0.4-2.3-0.7-3.5-0.8c-0.3-0.1-0.5-0.1-0.8,0
		c-0.3,0.1-0.5,0.3-0.7,0.6c-1,1.1-1.8,2.3-2.6,3.6c-3.1,5.3-7.1,9.9-10.9,14.7c-2.6,1.1-5.3,2.1-7.9,3.1l-5.7,2.2
		c-1.1,0.5-2.3,0.8-3.5,0.8c-0.5,0-1.2-0.1-1.5,0.3c-0.1,0.2-0.3,0.5-0.3,0.8l-0.6,0.1l0,0c-0.3-0.9-0.7-1.8-1.4-2.5
		c-0.3,0-0.5,0.2-0.6,0.5c-0.1,0.3-0.2,0.5-0.4,0.8c-0.3,0.4-0.8,0.7-1.2,1c-0.4,0.4-0.6,1-1,1.3c-0.6,0.4-1.2,0.7-1.9,0.8
		c-1.1,0.2-2.1,0.6-3,1.1c-0.3,0.2-0.7,0.4-1.1,0.5c-0.4,0.1-0.9,0.1-1.3,0l-3-0.2c-0.3,0-0.5,0-0.8,0c-0.6,0.3-1,0.9-1,1.5
		c0.1,0.7,0.4,1.3,1,1.7c0.5,0.4,1.1,0.7,1.7,0.9c2.6,1,5.3,1.8,8,2.4v0.6c1.9,1,4,1.5,6.2,1.5c0.2,0,0.3,0,0.5-0.1
		c0.2-0.1,0.3-0.4,0.4-0.6c0.6-1.9,1-3.9,1.2-5.9l0,0c0.4,0,0.7-0.1,1.1-0.3c1-0.3,2.1,0.4,3.1,0.5c1.3,0.1,2.5-0.6,3.8-1.1l0.5-0.2
		c-0.4,0.5-0.8,0.9-1.2,1.2c-0.5,0.4-1.1,0.6-1.6,1c-0.4,0.4-0.9,0.7-1.4,1c-0.3,0.2-0.7,0.3-1,0.4c-0.5,0.2-1,0.5-1.5,0.8
		c-0.4,0.2-0.8,0.6-1,1c-0.3,0.4-0.3,0.9-0.1,1.4c0.2,0.4,0.6,0.6,1,0.7c0.4,0.1,0.8,0.1,1.2,0c1.6-0.1,3.3-0.3,4.9-0.4
		c0.7,0,1.4-0.1,2-0.3c0.4-0.1,0.7-0.2,1.1-0.3c0.6-0.2,1.2-0.2,1.9-0.3c0.2,0,0.4,0,0.5,0.1c0.4,0.1,0.6,0.5,1,0.6
		c0.3,0,0.5,0,0.8-0.1c1.2-0.3,2.4-0.4,3.6-0.4c0.5,0,1.2-0.1,1.4-0.6c0.2-0.5-0.2-1.3-0.4-1.9c-0.1-0.4-0.2-0.8-0.2-1.3
		c-0.1-1.1-0.4-2.1-0.9-3c-0.3-0.4-0.5-0.9-0.7-1.4c2.3-0.9,4.6-2,6.6-3.4c1.1-0.8,2.4-1.4,3.8-1.8c1.6-0.2,3.2,0,4.8,0.6
		c3.7,1.1,7.3,2.3,10.9,3.8c1.7,0.7,3.4,1.4,5.1,2c0.5,0.7,1.1,1.3,1.8,1.8c1.2,0.7,2.6,1.1,4,1.1c1.9,0.2,3.7,0.2,5.6,0.2
		c1.4,0.1,2.8-0.2,4.2-0.8c0.3-0.2,0.6-0.4,0.9-0.6c1,0.1,2-0.3,2.7-1c1-0.9,1.7-2,2.1-3.3c0.5-1.8,0.1-3.8,1.2-5.2
		c0.3-0.4,0.7-0.7,0.9-1.1c0.3-0.5,0.5-1.1,0.5-1.8c0,0,0,0,0-0.1c0.2-0.6,0.4-1.2,0.5-1.8c0.1-0.5,0.3-0.9,0.5-1.4
		c0.5-1.4,1-2.7,1.4-4.1c0.3-0.9,0.5-1.9,0.7-2.8c0.1-0.8,0.2-1.5,0.2-2.3c0.1-1.2,0.3-2.4,0.7-3.6c1-2.7,1.5-5.6,1.6-8.5v-0.2
		c2.9-0.3,5.1-2.9,5.1-5.8c0-0.9-0.2-1.7-0.5-2.5C317.4,331.4,317.8,330.1,317.7,328.7z M290.2,362.2c0.1,0.3,0.2,0.6,0.3,0.9
		c-0.5-0.4-0.9-0.9-1.3-1.3c0.2,0.1,0.4,0.1,0.5,0.2C289.9,362,290,362.1,290.2,362.2L290.2,362.2z M288,360.7
		c-2.7-2.3-5.7-4.1-8.5-6.3c1.5,0.7,2.9,1.6,4.4,2.4c1.7,1,3.4,1.9,5.2,2.8C288.8,360,288.4,360.4,288,360.7L288,360.7z
		 M289.2,354.9l0.1-0.1c0,0.3,0,0.6,0,0.9l-0.7-0.2C288.8,355.2,289,355.1,289.2,354.9L289.2,354.9z M265.7,361.1
		c1.1-1.2,2-2.6,2.8-4c1.1,1.8,2.8,3.2,4.2,4.7C270.5,361.5,268.1,361.2,265.7,361.1z"/>
	<polygon class="st16" points="269.5,338.7 271.2,339 276.9,347.5 274.4,347.8 	"/>
	<path class="st17" d="M228.9,373c0.5,1.5,1,3,1.7,4.4c1.9-0.4,3.8-0.9,5.6-1.6c-0.4-0.5-0.7-1-1.2-1.5c-0.5-0.5-1-0.9-1.6-1.2
		c-0.6-0.1-1.3-0.1-1.9,0C230.6,373,229.7,373,228.9,373z"/>
	<path class="st16" d="M233.4,375.3c-0.9-0.4-1.6-1.2-1.9-2.2c-0.3-1-0.8-1.8-1.5-2.6c-0.3,0-0.5,0.2-0.6,0.5
		c-0.1,0.2-0.2,0.5-0.4,0.8c-0.3,0.4-0.8,0.7-1.2,1s-0.6,0.9-1,1.3c-0.6,0.4-1.2,0.7-1.9,0.8c-1.1,0.2-2.1,0.6-3.1,1.1
		c-0.4,0.2-0.7,0.4-1.1,0.5c-0.4,0.1-0.9,0.1-1.3,0l-3-0.2c-0.3,0-0.5,0-0.8,0c-0.6,0.2-1,0.9-1,1.5c0.1,0.7,0.4,1.3,1,1.6
		c0.5,0.4,1.1,0.7,1.7,0.9c2.6,1,5.4,1.8,8.1,2.3v0.6c1.9,0.9,4,1.4,6.2,1.4c0.2,0,0.3,0,0.5-0.1c0.2-0.1,0.3-0.4,0.4-0.6
		c0.7-2.1,1.2-4.3,1.3-6.6c0-0.6,0-1.1-0.1-1.7C233.3,375.2,233.9,375.4,233.4,375.3"/>
	<path class="st16" d="M291.5,363.8c-9,0.5-17.9-2.1-26.9-2.4c-1.1-0.1-2.2,0-3.3,0.2c-1.1,0.3-2.3,0.7-3.3,1.3
		c-4.8,2.2-9.8,4.1-14.8,6l-5.7,2.1c-1.1,0.5-2.3,0.8-3.5,0.8c-0.5,0-1.2-0.1-1.5,0.3c-0.9,1.4-0.5,3.4,0.1,5c0.2,0.5,0.5,1,1.1,1.1
		c0.4,0,0.7-0.1,1.1-0.3c1-0.3,2.1,0.4,3.2,0.5c1.3,0.1,2.6-0.6,3.8-1.1c2.1-0.8,4.3-0.8,6.5-1.1c3.7-0.6,7-2.3,10.2-4.2
		c1.2-0.8,2.4-1.4,3.8-1.8c1.6-0.2,3.3,0,4.8,0.5c3.7,1.1,7.4,2.3,11,3.7c1.9,0.8,3.8,1.5,5.7,2.1c4.3,1.1,8.8,0.8,12.9-0.8
		c1.4-0.6,3-1.5,3.1-3.1c0.1-0.9-0.6-1.7-1.1-2.4c-0.3-0.5-0.6-1-0.9-1.4C296.1,366.7,294.3,363.7,291.5,363.8z"/>
	<path class="st5" d="M291.5,363.8c-9,0.5-17.9-2.1-26.9-2.4c-1.1-0.1-2.2,0-3.3,0.2c-1.1,0.3-2.3,0.7-3.3,1.3
		c-4.8,2.2-9.8,4.1-14.8,6l-5.7,2.1c-1.1,0.5-2.3,0.8-3.5,0.8c-0.5,0-1.2-0.1-1.5,0.3c-0.9,1.4-0.5,3.4,0.1,5c0.2,0.5,0.5,1,1.1,1.1
		c0.4,0,0.7-0.1,1.1-0.3c1-0.3,2.1,0.4,3.2,0.5c1.3,0.1,2.6-0.6,3.8-1.1c2.1-0.8,4.3-0.8,6.5-1.1c3.7-0.6,7-2.3,10.2-4.2
		c1.2-0.8,2.4-1.4,3.8-1.8c1.6-0.2,3.3,0,4.8,0.5c3.7,1.1,7.4,2.3,11,3.7c1.9,0.8,3.8,1.5,5.7,2.1c4.3,1.1,8.8,0.8,12.9-0.8
		c1.4-0.6,3-1.5,3.1-3.1c0.1-0.9-0.6-1.7-1.1-2.4c-0.3-0.5-0.6-1-0.9-1.4C296.1,366.7,294.3,363.7,291.5,363.8z"/>
	<path class="st17" d="M246.1,373.4c1.4,0.5,2.8,0.9,4.3,1.3c0.8-1.3,2.3-2.2,2.6-3.7c0-0.1,0-0.1,0-0.2c0-0.1-0.1-0.1-0.2-0.1
		c-1-0.6-2.2-0.9-3.3-1c-0.9-0.1-1.3,0.9-1.8,1.6C247.6,371.6,246.5,373.6,246.1,373.4z"/>
	<path class="st16" d="M248.1,372.5c-0.9-0.1-1.6-0.6-2.1-1.4c-0.2-0.3-0.4-0.8-0.8-0.8c-0.4,0-0.5,0.5-0.6,0.8
		c-0.3,1.4-0.7,2.7-1.2,4c-0.5,1.3-1.4,2.4-2.5,3.3c-0.5,0.4-1.1,0.6-1.6,1c-0.4,0.4-0.9,0.7-1.4,1c-0.3,0.2-0.7,0.3-1,0.4
		c-0.5,0.2-1,0.5-1.5,0.8c-0.4,0.2-0.8,0.6-1,1c-0.3,0.4-0.3,0.9-0.1,1.4c0.2,0.4,0.6,0.6,1,0.7c0.4,0.1,0.8,0.1,1.2,0
		c1.6-0.1,3.3-0.3,4.9-0.4c0.7,0,1.4-0.1,2.1-0.3l1.1-0.3c0.6-0.2,1.2-0.3,1.9-0.3c0.2,0,0.4,0,0.5,0.1c0.4,0.1,0.6,0.5,1,0.6
		c0.3,0,0.5,0,0.8-0.1c1.2-0.3,2.4-0.4,3.6-0.4c0.5,0,1.2-0.1,1.4-0.6c0.3-0.6-0.2-1.3-0.4-1.9c-0.1-0.4-0.2-0.8-0.2-1.3
		c-0.1-1-0.4-2.1-0.9-3c-0.4-0.8-1-1.6-0.7-2.4c0.1-0.3,0.2-0.5,0.3-0.8C251.9,372.2,248.8,372.7,248.1,372.5z"/>
	<path class="st17" d="M278.1,349.4c-1.6-0.7-2.9-2-3.6-3.6c-0.1-0.3-0.3-0.7-0.4-1c-0.5-1.1-1.2-2.2-2.1-3
		c-0.2-0.2-0.5-0.3-0.8-0.3c-0.3,0.1-0.5,0.3-0.6,0.6c-0.1,0.3-0.1,0.6-0.1,1c0.1,0.8,0.2,1.5,0.4,2.2l0.4,2
		c0.1,0.3,0.1,0.6,0.3,0.9c0.2,0.3,0.4,0.6,0.7,0.9c0.4,0.4,0.8,0.7,1.2,1.1c0.2,0.2,0.5,0.4,0.8,0.5c0.4,0.2,0.9,0.3,1.4,0.4
		c1.8,0.2,3.6,0.9,5.1,2c0,0,0-1.3,0-1.5c0-0.4-0.2-0.8-0.4-1.1C279.7,350,278.9,349.6,278.1,349.4z"/>
	<path class="st5" d="M278.1,349.4c-1.6-0.7-2.9-2-3.6-3.6c-0.1-0.3-0.3-0.7-0.4-1c-0.5-1.1-1.2-2.2-2.1-3c-0.2-0.2-0.5-0.3-0.8-0.3
		c-0.3,0.1-0.5,0.3-0.6,0.6c-0.1,0.3-0.1,0.6-0.1,1c0.1,0.8,0.2,1.5,0.4,2.2l0.4,2c0.1,0.3,0.1,0.6,0.3,0.9c0.2,0.3,0.4,0.6,0.7,0.9
		c0.4,0.4,0.8,0.7,1.2,1.1c0.2,0.2,0.5,0.4,0.8,0.5c0.4,0.2,0.9,0.3,1.4,0.4c1.8,0.2,3.6,0.9,5.1,2c0,0,0-1.3,0-1.5
		c0-0.4-0.2-0.8-0.4-1.1C279.7,350,278.9,349.6,278.1,349.4z"/>
	<ellipse class="st16" cx="296.4" cy="332" rx="2.2" ry="2.2"/>
	<path class="st16" d="M295,330.7c-0.6-0.1-1.2-0.1-1.7,0.2c-0.3,0.2-0.5,0.5-0.6,0.8c-0.5,0.8-0.9,1.7-1.1,2.7
		c-0.2,0.8-0.2,1.6-0.5,2.4c-0.4,1.5-1.6,2.7-1.7,4.2c-0.1,0.7,0.1,1.5-0.4,1.9c-0.1,0.1-0.3,0.2-0.4,0.3c-0.3,0.2-0.6,0.5-0.9,0.9
		c-0.2,0.3-0.4,0.6-0.6,0.8c-0.4,0.3-1.2,0.3-1.4,0.8s0.3,1.1,0.2,1.7c-0.1,0.6-0.6,0.7-1,1c-0.4,0.4-0.7,1-0.8,1.5
		c-1.5,0.3-3-0.1-4.2-1c0.5,1.5,0.7,3.2,0.7,4.8c0.1,0.5-0.1,1.1-0.4,1.5c1.7,0.1,3.5,0.4,5.1,0.9c0.7,0.2,1.5,0.2,2.2,0
		c0.4-0.2,0.7-0.5,1-0.8c0.9-0.9,1.9-2,2.1-3.3c0.1-0.7,0.1-1.5,0-2.2c0.1-0.9,0.3-1.8,0.6-2.7c0.5-1.8,0.8-3.7,1-5.5
		c0.1-1.2,1.1-2.1,1.6-3.1c1-1.9,2-4,2.1-6.2C296,331.7,295.7,330.8,295,330.7z"/>
	<path class="st5" d="M295,330.7c-0.6-0.1-1.2-0.1-1.7,0.2c-0.3,0.2-0.5,0.5-0.6,0.8c-0.5,0.8-0.9,1.7-1.1,2.7
		c-0.2,0.8-0.2,1.6-0.5,2.4c-0.4,1.5-1.6,2.7-1.7,4.2c-0.1,0.7,0.1,1.5-0.4,1.9c-0.1,0.1-0.3,0.2-0.4,0.3c-0.3,0.2-0.6,0.5-0.9,0.9
		c-0.2,0.3-0.4,0.6-0.6,0.8c-0.4,0.3-1.2,0.3-1.4,0.8s0.3,1.1,0.2,1.7c-0.1,0.6-0.6,0.7-1,1c-0.4,0.4-0.7,1-0.8,1.5
		c-1.5,0.3-3-0.1-4.2-1c0.5,1.5,0.7,3.2,0.7,4.8c0.1,0.5-0.1,1.1-0.4,1.5c1.7,0.1,3.5,0.4,5.1,0.9c0.7,0.2,1.5,0.2,2.2,0
		c0.4-0.2,0.7-0.5,1-0.8c0.9-0.9,1.9-2,2.1-3.3c0.1-0.7,0.1-1.5,0-2.2c0.1-0.9,0.3-1.8,0.6-2.7c0.5-1.8,0.8-3.7,1-5.5
		c0.1-1.2,1.1-2.1,1.6-3.1c1-1.9,2-4,2.1-6.2C296,331.7,295.7,330.8,295,330.7z"/>
	<path class="st16" d="M293,365.7c-1.9-0.9-3.2-2.5-4.8-4c-2.9-2.7-6.4-4.6-9.5-7.2c-2-1.7-3.8-3.6-6-5.1c-2-1.2-4.2-2-6.5-2.3
		c-0.3-0.1-0.5-0.1-0.8,0c-0.3,0.1-0.5,0.3-0.7,0.6c-1,1.1-1.9,2.3-2.6,3.6c-3.8,6.5-9.3,12-13.9,18.1c-0.1,0.1-0.2,0.3-0.2,0.4
		c0,0.2,0,0.5,0.2,0.7l0.9,1.8c0.5,1,1.3,2.2,2.5,2c0.5-0.1,0.9-0.4,1.3-0.8l4.1-4l4.3-4.1c2.5-2.4,5.1-4.9,6.8-8
		c1.3,2.2,3.6,3.7,5.2,5.8c0.6,0.8,1.1,1.6,1.6,2.5c0.9,1.3,1.8,2.6,2.8,3.8l5,6.3c0.6,0.9,1.4,1.7,2.3,2.3c1.2,0.7,2.6,1,4,1.1
		c1.9,0.2,3.7,0.2,5.6,0.2c1.4,0.1,2.9-0.2,4.2-0.8c1.3-0.6,2.2-1.9,2.3-3.4c-0.1-0.7-0.3-1.5-0.7-2.1
		C298.6,370,296.3,367.3,293,365.7z"/>
	<ellipse class="st18" cx="297.7" cy="333.5" rx="1.7" ry="1.7"/>
	<path class="st17" d="M297.3,332.3c0.4,0.8,0.4,1.6,0.2,2.4c-0.3,0.8-0.6,1.5-1.1,2.2c-0.4,0.7-0.9,1.4-1.4,2
		c2.6,0.1,5.1-0.9,7.4-2.1c1.8-1,3.7-2.2,4.7-4.1c-0.6,0.1-1.2,0-1.7-0.3c-0.5-0.3-0.9-0.8-1.3-1.2l-1.3-1.5
		c-0.3-0.3-0.6-0.7-0.8-1.1c-0.3-0.5-0.4-1.1-0.3-1.7c-0.5,0.5-1.1,1-1.7,1.4c-0.9,0.6-2,1-2.9,1.6c-0.3,0.2-1.1,0.6-0.9,1
		S297.1,331.8,297.3,332.3z"/>
	<path class="st5" d="M297.3,332.3c0.4,0.8,0.4,1.6,0.2,2.4c-0.3,0.8-0.6,1.5-1.1,2.2c-0.4,0.7-0.9,1.4-1.4,2
		c2.6,0.1,5.1-0.9,7.4-2.1c1.8-1,3.7-2.2,4.7-4.1c-0.6,0.1-1.2,0-1.7-0.3c-0.5-0.3-0.9-0.8-1.3-1.2l-1.3-1.5
		c-0.3-0.3-0.6-0.7-0.8-1.1c-0.3-0.5-0.4-1.1-0.3-1.7c-0.5,0.5-1.1,1-1.7,1.4c-0.9,0.6-2,1-2.9,1.6c-0.3,0.2-1.1,0.6-0.9,1
		S297.1,331.8,297.3,332.3z"/>
	<path class="st18" d="M297.4,332.5c-0.5,0.8-0.5,1.8,0,2.5c0.1,0.1,0.4,0.7,0.5,0.7c0.1,0,0.2-0.1,0.3-0.2c0.6-0.6,1.1-1.3,1.6-2
		c0.5-0.7,1.3-1.2,2.1-1.4c1,0,2.1,0.3,2.9,0.9c0.4,0.2,0.7,0.4,1,0.8c0.2,0.3,0.3,0.7,0.3,1.1c0.3,2.3,0.3,4.7,0.3,7
		c0,1.7-0.1,3.4-0.3,5c-0.2,0.9-0.4,1.7-0.5,2.6c-0.1,0.8-0.1,1.5-0.1,2.3v3.2c0,0.6,0,1.2,0.1,1.8c0.2,0.7,0.5,1.4,0.7,2
		c0.2,0.8,0.4,1.6,0.5,2.4l0.4,3.3c0.1,1,0.2,2.2-0.4,3.1c-0.3,0.4-0.7,0.7-1,1.1c-1.1,1.4-0.8,3.4-1.2,5.2
		c-0.4,1.3-1.1,2.4-2.1,3.2c-0.7,0.7-1.8,1.1-2.8,1c-1.4-0.3-2.2-1.7-2.5-3s-0.5-2.8-1.3-3.9c-0.7-0.9-1.6-1.6-2.6-2.1
		c-1-0.6-1.7-1.5-2-2.6c-0.1-0.5,0-1-0.1-1.5c-0.1-1.3-1-2.3-2.1-2.8c-0.7-0.3-1.5-0.4-1.9-1c1-0.6,1.7-1.6,2-2.7
		c0.3-1.1,0.5-2.3,0.5-3.4l0.2-3.8c0.1-1.7,0.2-3.4,0.9-5c0.3-0.7,0.8-1.3,1.1-2c0.5-1,0.9-2,1.2-3c0.6-1.6,1.1-3.2,1.6-4.8
		c0.2-0.8,0.5-1.5,0.9-2.2C296,333.5,296.6,332.7,297.4,332.5z"/>
	<path class="st16" d="M288.8,357.6h1l0.2-1.5c0-0.3,0.1-0.6,0.2-0.9c0.2-0.3,0.4-0.6,0.6-0.9c1-1.4,0.9-3.3,1.2-5
		c0.4-2.3,1.2-4.5,2.2-6.6l2-4.4c0.2-0.4,0.3-0.7,0.4-1.1c0.1-0.4,0.1-0.9,0.1-1.3c0-0.7,0.2-3.2,0.2-3.8c0-0.3-0.6-0.1-0.7-0.3
		c-0.2-0.5-0.6,0.8-1.1,1.1c-0.4,0.3-0.8,0.8-0.9,1.3c-0.4,1.1-0.7,2.3-1.1,3.4c-0.3,1.1-1,2.2-1.9,3c-0.4,0.4-0.9,0.6-1.3,1
		c-1.2,1.2-1.4,3.1-1.4,4.9C288.7,347.5,288.5,357.6,288.8,357.6z"/>
	<path class="st16" d="M303.5,330.7c-1,0.5-1.6,1.4-1.8,2.5c-0.2,1.1-0.5,2.1-0.9,3.1c-1.2,2.2-4.4,2.8-5.3,5.1
		c-0.2,0.8-0.3,1.6-0.4,2.4c-0.2,1.7-0.7,3.3-0.9,5c-0.1,1.3-0.1,2.6,0.1,3.9l1.1,13.3c0.2,1.9,0.1,3.9-0.3,5.8
		c1.1,0.2,2.3,0,3.3-0.6c1-0.5,2-1.1,3-1.7c1.7-1,3.6-1.6,5.1-2.9c0.3-0.2,0.5-0.5,0.7-0.8c0.2-0.6,0.4-1.1,0.5-1.7
		c0.1-0.5,0.3-0.9,0.5-1.4c0.6-1.3,1-2.7,1.4-4.1c0.3-0.9,0.5-1.9,0.7-2.8c0.1-0.8,0.2-1.5,0.3-2.3c0.1-1.2,0.3-2.4,0.7-3.5
		c1-2.7,1.5-5.5,1.6-8.4c0-0.4,0-0.8-0.1-1.2c-0.2-0.5-0.4-1-0.7-1.4c-0.5-0.9-0.8-1.8-1.2-2.7c-1.1-1.9-2.7-3.6-4.5-4.8
		C305.6,331,304.5,330.3,303.5,330.7z"/>
	<path class="st17" d="M280.3,352.3c-0.8-0.4-1.5-1-2.1-1.6c-0.3-0.3-0.5-0.7-0.8-1c-0.7-0.8-1.6-1.3-2.7-1.5c-1-0.2-2-0.3-3.1-0.3
		c-0.7,0-1.4,0-2.1,0.2c-0.7,0.2-1.2,0.8-1.4,1.5c-0.1,0.9,0.3,1.7,1,2.2c0.6,0.5,1.3,0.8,2.1,1c0.6,0.1,1.2,0.2,1.9,0.2
		c3.7,0.4,7,2.4,10.2,4.2c2.8,1.6,5.7,3.1,8.7,4.5c0.1-0.9,0.2-1.8,0.1-2.7c0-0.7-0.1-1.7-0.7-2.1c-0.9-0.4-1.8-0.6-2.8-0.8
		c-1.9-0.6-3.8-1.4-5.5-2.2C282.2,353.4,281.2,352.9,280.3,352.3z"/>
	<ellipse class="st17" cx="296.4" cy="324.9" rx="6.6" ry="6.6"/>
	<path class="st16" d="M305.4,338.2c-0.5,0.7-1,1.5-1.3,2.4c-0.8,1.7-2.1,3.1-2.7,4.8c-0.6,1.8-0.6,4-2,5.5
		c-0.3,0.2-0.5,0.5-0.6,0.8c0,0.2,0,0.4-0.1,0.6c-0.2,0.5-1,0.5-1.2,1.1c0,0.2,0,0.3-0.1,0.5c-0.1,0.3-0.6,0.4-0.9,0.6
		c-0.6,0.4-0.5,1.4-1,2.1c-0.4,0.5-1,0.7-1.6,0.6c-0.6-0.1-1.2-0.3-1.7-0.6c-0.2-0.1-0.4-0.2-0.6-0.2c-0.3,0-0.5,0.1-0.7,0.2
		c-1.2,0.9-1.8,2.3-1.8,3.7c0.1,1.4,0.4,2.9,1,4.2c0.1,0.2,0.2,0.4,0.3,0.6c0.5,0.4,1.1,0.4,1.6,0.1c0.5-0.3,1-0.5,1.6-0.7
		c1-0.2,2,0.5,3,0.5c0.8-0.1,1.5-0.4,2-0.9c1-0.6,2-1.4,2.8-2.3c0.4-0.6,0.8-1.3,1.2-1.9c0.5-0.8,1.1-1.5,1.7-2.2l3.8-4.6
		c0.4-0.4,0.7-0.9,1-1.4c0.3-0.7,0.6-1.4,0.8-2.1c0.4-1.2,0.7-2.5,0.8-3.8c0-1.1-0.1-2.1-0.3-3.2c-0.1-1-0.4-2-0.8-3
		C308.9,337.8,306.9,336.4,305.4,338.2z"/>
	<path class="st19" d="M318.6,329.6c0-2.4-1.1-4.6-3-6c-0.1-4.3-3.2-7.9-7.5-8.6c-0.9-4.6-5.4-7.6-10-6.7c-3.5,0.7-6.2,3.6-6.8,7.1
		c-2.7-0.6-5.2,0.2-5.7,1.9c-0.5,1.7,1.5,3.8,4.3,4.6c0.9,0.3,1.8,0.3,2.8,0.3c1.4,2,3.5,3.3,5.9,3.7c0.7,3.2,3.2,5.8,6.4,6.6
		c0.4,1.1,1.1,2,2,2.7c0,0.2,0,0.4,0,0.6c0,3.1,2.5,5.6,5.5,5.6c3.1,0,5.6-2.5,5.6-5.5c0,0,0,0,0,0c0-0.8-0.2-1.7-0.5-2.5
		C318.2,332.2,318.6,330.9,318.6,329.6z"/>
	<path class="st5" d="M287.5,317.7c0.5-1.7,2.9-2.5,5.7-1.9c0.7-4.2,4.2-7.3,8.5-7.3h0.6c-0.8-0.2-1.6-0.4-2.4-0.4
		c-4.2,0-7.8,3.1-8.5,7.3c-2.7-0.6-5.2,0.2-5.7,1.9s1.5,3.8,4.3,4.6c0.5,0.1,1.1,0.2,1.6,0.3C288.8,321.4,287,319.4,287.5,317.7z"/>
	<path class="st5" d="M308.8,336.2c0-0.2,0-0.4,0-0.6c-0.9-0.7-1.5-1.7-2-2.7c-3.2-0.8-5.7-3.4-6.4-6.6c-2.4-0.3-4.5-1.7-5.9-3.6
		c-0.5,0-1.1,0-1.6,0c1.4,1.8,3.4,3,5.7,3.4c0.7,3.2,3.2,5.8,6.4,6.6c0.4,1.1,1.1,2,2,2.7c0,0.2,0,0.4,0,0.6
		c-0.1,3.1,2.4,5.7,5.5,5.7C310.2,340.7,308.8,338.6,308.8,336.2z"/>
	
		<ellipse transform="matrix(0.7963 -0.6049 0.6049 0.7963 -136.5456 247.0389)" class="st17" cx="298.5" cy="326.3" rx="1" ry="1.3"/>
</g>
</svg>
