<?xml version="1.0" encoding="utf-8"?>
<!-- Generator: Adobe Illustrator 25.0.1, SVG Export Plug-In . SVG Version: 6.00 Build 0)  -->
<svg version="1.1" id="Layer_1" xmlns="http://www.w3.org/2000/svg" xmlns:xlink="http://www.w3.org/1999/xlink" x="0px" y="0px"
	 viewBox="0 0 568 407" style="enable-background:new 0 0 568 407;" xml:space="preserve">
<style type="text/css">
	.st0{opacity:0.1;fill:#48BA13;enable-background:new    ;}
	.st1{fill:url(#SVGID_1_);}
	.st2{fill:#D38884;}
	.st3{fill:#333333;}
	.st4{fill:#B07473;}
	.st5{opacity:0.1;enable-background:new    ;}
	.st6{fill:#46543C;}
	.st7{fill:#67647E;}
	.st8{fill:#7C7C63;}
	.st9{fill:#585268;}
	.st10{fill:#E1E7EF;}
	.st11{fill:url(#SVGID_2_);}
	.st12{fill:#A27772;}
	.st13{fill:#CC818C;}
	.st14{fill:#3F5145;}
	.st15{opacity:0.1;}
	.st16{fill:#E6E6E6;}
	.st17{fill:#FFC914;}
	.st18{fill:#F6F8FB;}
	.st19{fill:#6C63FF;}
	.st20{fill:url(#SVGID_3_);}
	.st21{fill:#4D4D4D;}
	.st22{fill:#FBBEBE;}
	.st23{fill:#48BA13;}
	.st24{opacity:5.000000e-02;enable-background:new    ;}
	.st25{fill:#7C5C5C;}
	.st26{fill:url(#SVGID_4_);}
	.st27{fill:#FDC2CC;}
	.st28{fill:#D39999;}
	.st29{fill:#7E5659;}
	.st30{fill:#865A61;}
	.st31{fill:#7C7461;}
	.st32{fill:#65617D;}
	.st33{opacity:5.000000e-02;}
	.st34{opacity:0.1;fill:#6C63FF;enable-background:new    ;}
	.st35{fill:#A8A8A8;}
	.st36{opacity:0.2;enable-background:new    ;}
</style>
<g>
	<path class="st0" d="M6.7,205.4c9,35,28,65.2,58,79.8c62.4,30.4,203.1,14.7,308.1-3.3c54.3-9.3,102-35,136.7-71.3L6.7,205.4z"/>
	<path class="st0" d="M557.3,40.8h-57.6c-2.7,0-5-2-5-4.5c0-2.5,2.2-4.5,5-4.5h10c-2.7,0-5-2-5-4.5s2.2-4.5,5-4.5h-7.1
		c-2.7,0-5-2-5-4.5s2.2-4.5,5-4.5h30.1c-6.7-2.8-14.5-4.8-23.5-5.9c-82-9.6-111.3-3.3-121.6,3.3c-12.9,8.2-27.2,13.9-42.1,16.8
		c-50.6,9.5-145.2,21-230.9-3.7c-42.6-12.2-74.3,8.5-93.3,43h546.1c-0.7-10-2.8-19.3-6.8-27.4C559.7,40.4,558.5,40.8,557.3,40.8z"/>
	<path class="st0" d="M1.9,132.4c-2.2,20.3-1.5,40.9,2.2,61l505.8,16.9c13.9-14.6,25.8-31,35.1-48.8L1.9,132.4z M201.9,175.9h-10
		c2.7,0,5,2,5,4.5s-2.2,4.5-5,4.5h-57.6c-2.7,0-5-2-5-4.5s2.2-4.5,5-4.5h10c-2.7,0-5-2-5-4.5s2.2-4.5,5-4.5h-7.1c-2.7,0-5-2-5-4.5
		c0-2.5,2.2-4.5,5-4.5h57.6c2.7,0,5,2,5,4.5c0,2.5-2.2,4.5-5,4.5h7.1c2.7,0,5,2,5,4.5S204.6,175.9,201.9,175.9z"/>
	<path class="st0" d="M567.4,67.5L15.2,79.7C8.4,95.5,4,113.3,1.9,131.7h555.8c3.6-10.8,6.3-21.9,8-33.1
		C567.4,87.7,568,77.2,567.4,67.5z M114,107.6h-10c2.7,0,5,2,5,4.5c0,2.5-2.2,4.5-5,4.5H46.5c-2.7,0-5-2-5-4.5c0-2.5,2.2-4.5,5-4.5
		h10c-2.7,0-5-2-5-4.5s2.2-4.5,5-4.5h-7.1c-2.7,0-5-2-5-4.5c0-2.5,2.2-4.5,5-4.5h57.6c2.7,0,5,2,5,4.5c0,2.5-2.2,4.5-5,4.5h7.1
		c2.7,0,5,2,5,4.5S116.8,107.6,114,107.6z"/>
	<ellipse class="st0" cx="331.7" cy="376.5" rx="37.5" ry="8.4"/>
	<ellipse class="st0" cx="418.8" cy="403.3" rx="67.6" ry="5.6"/>
	<ellipse class="st0" cx="147.3" cy="394.9" rx="67.6" ry="8.4"/>
	<ellipse class="st0" cx="250.4" cy="352.7" rx="50.9" ry="8.4"/>
	
		<linearGradient id="SVGID_1_" gradientUnits="userSpaceOnUse" x1="271.8185" y1="31.0708" x2="271.8185" y2="325.6859" gradientTransform="matrix(1 0 0 -1 -31.16 387.86)">
		<stop  offset="0" style="stop-color:#808080;stop-opacity:0.25"/>
		<stop  offset="0.54" style="stop-color:#808080;stop-opacity:0.12"/>
		<stop  offset="1" style="stop-color:#808080;stop-opacity:0.1"/>
	</linearGradient>
	<path class="st1" d="M288.4,152.5c-1.1-7.2-7.7-24.2-7.7-24.2l0,0c-0.1-0.5-0.2-1-0.4-1.5c-4.7-16-11.1-17.4-11.1-17.4l-23.2-5
		c0.2,0.1,0.4,0.3,0.5,0.5c-0.1,0-0.2,0-0.4,0.1c-1.1-1.3-1.8-2.8-2-4.4c0-0.2-0.1-0.5-0.1-0.7c6.4-6.3,6.6-16.6,0.3-23
		c-0.5-0.5-1-1-1.6-1.5c-0.2-0.2-0.5-0.4-0.7-0.5c1.1-1.2,1.1-2.8,0.3-4.4c-1.8-3.8-5.8-6.2-9.9-7.4c-3.1-0.9-6.5-1.2-9.6-0.2
		c-1.8,0.6-3.4,1.5-5,2.3c-3.1,1.5-6.5,2.8-8.8,5.3c-0.5,0.6-1,1.3-0.9,2.1c0.1,0.6,0.6,1,0.9,1.5c0.7,1.2,0.5,2.6,0,3.9
		c-0.5,1.3-1.1,2.4-1.4,3.7c-0.3,1.3-0.2,2.8,0.8,3.7c0.5,0.4,0.9,0.7,1.4,1c0.5,0.5,1,1,1.4,1.5c0.9,1.2,1.8,2.5,2.7,3.7
		c1.3,1.6,2.4,3.4,3.4,5.2c0.7,1.3,1.2,2.8,2.1,4c0.3,0.4,0.6,0.7,0.9,1l-0.3-0.1c0.8,0.8,1.9,1.3,3,1.2l0,0c0,0,0.1,0,0.1,0
		c0.2,0,0.4-0.1,0.6-0.2c0,0.2,0,0.3,0,0.5c0.1,1.8,0,3.7-0.1,5.5l-0.2-0.1c-0.6-0.3-1.4-0.2-2,0.2l-21.3,17.1c0,0-4.6,6.3-4,17.3
		l-3.7,16.4c0,0-4.7,13.9-1.1,23.9c3.6,9.9,5.7,15.6,5.7,15.6s1.4,11.3,3.6,12.2c2.2,0.9,3.1,1.4,3.1,1.4l0.4,2.7l0,0
		c0,0,0.1,0.3,0.4,0.7c1.6,2.7,7.4,12.4,10.8,11.3c0.4,2.6,0.6,5.3,0.5,7.9l3.3,22.5c0,0,2.3,6.1,2.2,9.3c-0.1,3.2,2.7,7.8,2.7,7.8
		c-1.7,3.2-2.3,6.9-1.4,10.4c1.4,6,3.1,33.5,3.1,33.5l2.5,6.7l-0.1,7.8c-0.2,1.3-0.7,2.5-1.5,3.5c-1.6,1.8-1.5,3.8-5.4,6.2
		c-3.9,2.4-6.4,3.3-6.4,6.5c0,0.4,0,0.9-0.1,1.3c-0.4,2.3-1.1,3.6,6.1,4.3c8.4,0.8,14-4.7,14-4.7s1.2-2.2,7.1-3.1c0,0,2-0.1,2.1-1.9
		c0-0.6,0-1.8,0-3.1c-0.1-2.4-0.3-5.3-0.6-5.4c-0.4-0.2-1.1-2.6-1.3-3.5h1.6c0,0,1.5-11.3,0-18.6c-1.5-7.3-0.1-12.5-0.1-12.5
		l-0.3-19.3c0,0-2-2.1-0.4-5.9c1.6-3.8,0-22.4,0-22.4s0.6-6.7,2.2-8.2c1.6-1.6,0.1-9.8,0-10.2l2.9,9.9c0,0,1.3,19.6,4,23.2l0.8,8.9
		c0,0,5.6,8.2,4.5,12.6c-1.1,4.4,1.2,20.3,1.2,20.3v16.3c0,0-2.5,6.5,1,8.9l1.5-0.1c-0.5,0.5-0.9,1.2-1.5,1.8
		c-0.7,0.7-1.1,3.3-1.3,5.6c-0.2,1.9-0.2,3.6-0.2,3.6s1.5,2.4,4.3,2.6c2.8,0.2,12.1,7.2,12.1,7.2s9.2,0,11.5-0.5l0.1,0
		c0.8-0.2,1.4-0.8,1.8-1.5c0.5-0.8,0.6-1.8,0.4-2.7c-0.3-1.4-1.4-2.9-3.9-4.2c-6.1-3.2-7-6.3-7-6.3l-4-6h0.6c0,0-0.4-6.4,4-13.6
		l-0.3-31.6c0,0,1.8-10.9-1.3-16.8c0,0-0.3-6.2,1.8-8.2c2.1-1.9-2.7-21.3-2.7-21.3s-1-10.4-2.2-19.9l0,0c4.8,4.6,9.9-12,10.7-14.9
		h0.1l-0.1-0.2c0-0.1,0.1-0.2,0.1-0.2l0,0c0,0-1.1-3.8-0.3-3.1c0.8,0.8,2.7-2.1,2.7-2.1s-0.3-15.8,3.1-23.8
		C293.3,171.9,288.4,152.5,288.4,152.5z M274,162.5L274,162.5c0.5,9.6-0.1,30.3-0.1,30.3s-0.7,2.6-1.4,5.8L272,179l0,0l-0.5-18.5
		L274,162.5z M212.1,155.9c0,0,2.4,30.5,0,35c-0.7,1.3-1.3,3.5-1.8,6c-0.8-2.1-2.5-7.1-1.9-9.7c0.8-3.4-1.6-12.4-1.6-12.6
		c0-0.2-0.2-5,1.5-8.6s0.6-5.2,0.6-5.2S210.4,154.7,212.1,155.9z"/>
	<path class="st2" d="M218.1,224.7c-2.1,9.4-10.6-4.8-12.5-8.2c-0.2-0.4-0.4-0.7-0.4-0.7l0.9-4.3l4.8-2c0.8,0.4,1.5,0.9,2.2,1.4
		C215.8,213,219.7,217.4,218.1,224.7z"/>
	<path class="st2" d="M283.7,209.4c0,0,0,0.1-0.1,0.2c0,0.1,0,0.1-0.1,0.2c-0.8,2.9-5.8,19.4-10.5,14.8c-5.2-5-2.7-16.5-2.7-16.5h0
		l11-1.1l2.2,2.2l0,0L283.7,209.4z"/>
	<path class="st3" d="M277.4,290.3l0.3,31.4c-4.3,7.1-3.9,13.5-3.9,13.5l-14.2,0.6c-3.5-2.3-1-8.8-1-8.8v-16.2
		c0,0-2.2-15.8-1.1-20.2c1.1-4.4-4.4-12.5-4.4-12.5l-0.8-8.8c-2.7-3.5-4-23-4-23l-2.9-9.8c0.1,0.4,1.6,8.6,0,10.1
		c-1.6,1.5-2.2,8.2-2.2,8.2s1.5,18.5,0,22.2c-1.5,3.7,0.4,5.9,0.4,5.9l0.3,19.2c0,0-1.3,5.1,0.1,12.4c1.5,7.3,0,18.5,0,18.5h-15.2
		l0.1-7.8l-2.5-6.6c0,0-1.7-27.4-3-33.3c-0.8-3.5-0.3-7.2,1.4-10.4c0,0-2.8-4.5-2.7-7.7c0.1-3.2-2.2-9.2-2.2-9.2l-3.3-22.3
		c0.1-4.3-0.5-8.6-1.6-12.7c-1.9-6.3-4.7-14.7-4.7-14.7l3.2,0.3l16.1,1.4c0,0,39.1-2.6,40.8-0.4c0.4,0.7,0.6,1.5,0.7,2.3
		c1.8,7.9,4.1,32.6,4.1,32.6s4.7,19.3,2.7,21.2c-2,1.9-1.8,8.1-1.8,8.1C279.1,279.5,277.4,290.3,277.4,290.3z"/>
	<path class="st4" d="M244.3,344.8c-0.1,1.7-2.1,1.9-2.1,1.9c-5.7,0.9-6.9,3.1-6.9,3.1s-5.5,5.4-13.8,4.7c-7-0.7-6.3-1.9-6-4.2
		c0.1-0.4,0.1-0.9,0.1-1.3c0-3.2,2.4-4.1,6.2-6.5c3.8-2.4,3.7-4.4,5.3-6.1s1.7-5.1,1.7-5.1c1.8-3.1,6.3,0.5,6.3,0.5c0.2,1.1,7,1,7,1
		s0.9,3.6,1.4,3.8c0.3,0.1,0.5,3,0.6,5.4C244.4,343.1,244.4,344.2,244.3,344.8z"/>
	<path class="st5" d="M244.3,344.8c-0.1,1.7-2.1,1.9-2.1,1.9c-5.7,0.9-6.9,3.1-6.9,3.1s-5.5,5.4-13.8,4.7c-7-0.7-6.3-1.9-6-4.2
		c3.1,0.8,9.1,1.9,12.6,0c4.9-2.6,8.4-4.5,8.4-4.5l7.7-3.9C244.4,343.1,244.4,344.2,244.3,344.8z"/>
	<path class="st4" d="M287.4,354.2c-0.4,0.7-1,1.2-1.8,1.5l-0.1,0c-2.3,0.5-11.3,0.5-11.3,0.5s-9.1-7-11.8-7.2
		c-2.8-0.2-4.2-2.5-4.2-2.5s0.1-1.6,0.2-3.5c0.2-2.3,0.6-4.9,1.3-5.6c1.2-1.3,1.5-3,4.2-1.9c0,0,3.9-6.9,8.5-1.6l4.8,7.2
		c0,0,0.9,3,6.9,6.2c2.4,1.3,3.5,2.8,3.8,4.2C288,352.5,287.9,353.4,287.4,354.2z"/>
	<path class="st5" d="M287.4,354.2c-0.5,0.5-1.1,0.9-1.8,1.5l-0.1,0c-2.3,0.5-11.3,0.5-11.3,0.5s-9.1-7-11.8-7.2
		c-2.8-0.2-4.2-2.5-4.2-2.5s0.1-1.6,0.2-3.5c2.8,0.8,7,2.3,8.2,3.9c1.7,2.4,7,5.8,7,5.8s9.9-1,14.3-1.1
		C288,352.5,287.9,353.4,287.4,354.2z"/>
	<path class="st2" d="M248.9,108.1l-13,13.8c0,0-15.8-1.2-13-5.8c1.4-2.4,1.6-7.3,1.5-11.7c-0.1-4.2-0.5-7.7-0.5-7.7
		s22.1-11,20.4-0.7c-0.4,1.9-0.4,3.9-0.1,5.9C245.2,107,248.9,108.1,248.9,108.1z"/>
	<path class="st5" d="M244.3,96c-0.4,1.9-0.4,3.9-0.1,5.9c-3.1,3.1-7.2,4.8-11.6,4.8c-3,0-6.2-2.5-8.6-3.9c-0.1-4.2-0.1-6.1-0.1-6.1
		S246,85.7,244.3,96z"/>
	<path class="st2" d="M248.9,89.5c0,9-7.3,16.3-16.3,16.3c-9,0-16.3-7.3-16.3-16.3c0-9,7.3-16.3,16.3-16.3c3.7,0,7.3,1.3,10.2,3.6
		C246.7,79.9,248.9,84.6,248.9,89.5z"/>
	<path class="st5" d="M271.1,211.8c-4.1,9.7-30.2,9.9-30.2,9.9v-10.5l-1.6-0.1c0.7,3-1,10.4-1,10.4c-20.6,2.9-25.7-8.8-25.7-8.8
		l0.7-4l16.1,1.4c0,0,39.1-2.6,40.8-0.4C270.7,210.2,271,211,271.1,211.8z"/>
	<path class="st6" d="M241,220.4v-10.5l-1.6-0.1c0.7,3-1,10.4-1,10.4c-15.5,2.2-22.2-3.9-24.6-7.1c-0.4-0.5-0.8-1.1-1.1-1.8
		l6.3-35.4l1.5-52.2l2.3-9.2l0.5-4.4v0h0.1l1.6,0.7l9.6,4.2l10.9-8.2l0.2-0.1l0.5-0.4l0.9,0.7l2.2,1.8l7.2,46.4
		c0,0,12.5,35.8,14.8,50.2c0.1,0.6,0.2,1.1,0.2,1.6C273.1,220.1,241,220.4,241,220.4z"/>
	<circle class="st7" cx="235.8" cy="116" r="0.9"/>
	<circle class="st7" cx="236.2" cy="124.4" r="0.9"/>
	<circle class="st7" cx="237.1" cy="138.1" r="0.9"/>
	<circle class="st7" cx="238.7" cy="152.9" r="0.9"/>
	<circle class="st7" cx="239.6" cy="166.7" r="0.9"/>
	<circle class="st7" cx="240.5" cy="181.5" r="0.9"/>
	<circle class="st7" cx="240.1" cy="196.1" r="0.9"/>
	<path class="st5" d="M224,181c0,0-1,13.6-2.9,17.5c-1.9,3.9-2.8,15-2.8,15l-4.4-0.5c-0.4-0.5-0.8-1.1-1.1-1.8l6.3-35.4l1.5-52.2
		l2.3-9.2l0.5-4.4l0.1,0c0.5-0.2,1.1-0.2,1.6,0l0.2,0.1c-0.1,0.2-0.1,0.4-0.2,0.6c-1.7,5.4-2.4,15.3-2.4,15.3s2.5,18.2,2.8,26.7
		C225.7,161.3,224,181,224,181z"/>
	<path class="st5" d="M213.1,210.9c0,0.1-0.1,0.2-0.2,0.3c-1.7,2.9-6.1,4.7-7.4,5.2c-0.2-0.4-0.4-0.7-0.4-0.7l0.9-4.3l4.8-2
		C211.7,209.9,212.4,210.4,213.1,210.9z"/>
	<path class="st8" d="M201.3,141.7l-4,2.4l-3.7,16.3c0,0-4.6,13.8-1.1,23.7c3.5,9.9,5.6,15.5,5.6,15.5s1.4,11.2,3.5,12.1
		c2.1,0.9,3,1.4,3,1.4l0.4,2.7c0,0,5.7-1.9,7.8-5.4c2-3.4-1.5-12-1.5-12s-3-7.3-2.3-10.7s-1.6-12.3-1.6-12.5s-0.2-4.9,1.5-8.6
		c1.7-3.6,0.6-5.2,0.6-5.2l-1.1-10.4L201.3,141.7z"/>
	<path class="st5" d="M271.4,208.7c0,0-10.7,4-14,0.5c-3.4-3.5-3-20-3-20s-3.2-30.5-5.3-35.5s-1-41.1-1-41.1s-1.4-4.7-2.6-5.9
		c-0.1-0.1-0.2-0.1-0.3-0.2l0.4,0.1l1.4,0.3l2.2,1.8l7.2,46.4c0,0,12.5,35.8,14.8,50.2L271.4,208.7z"/>
	<path class="st5" d="M283.7,209.8h-0.1c-1.3,0.2-13.2,1.6-13.2-0.9c0-0.3,0-0.6,0-0.9l11-1.1l2.2,2.2l0,0c0,0.1,0.1,0.3,0.1,0.4
		L283.7,209.8z"/>
	<path class="st8" d="M272.4,125.3l7.8,4.1c0,0,6.5,16.8,7.5,24c0,0,4.8,19.3,1.5,27.2s-3,23.7-3,23.7s-1.9,2.9-2.7,2.1
		c-0.8-0.8,0.3,3,0.3,3s-13.3,1.8-13.3-0.8c-0.1-2.6,3.1-15.1,3.1-15.1s0.8-29.7-0.4-34.3C271.9,154.4,272.4,125.3,272.4,125.3z"/>
	<path class="st5" d="M249.2,157c0,0-4.4,10.7-5.8,11.4s0.3,3.5,0.3,3.5S251.6,160.8,249.2,157z"/>
	<path class="st5" d="M246.6,119.4c0-0.2-5.2,5.2-6.6,6C238.5,126.2,245.1,125.3,246.6,119.4z"/>
	<path class="st5" d="M231.9,156.1c0,0-8,5.2-7,7.3C226,165.4,231.9,156.1,231.9,156.1z"/>
	<path class="st5" d="M246.5,232c0,0,6.8,4.4,17.5,5.5L246.5,232z"/>
	<path class="st5" d="M230,242.6c0,0,6.3,8,9.2,8.2C242.2,251,230,242.6,230,242.6z"/>
	<path class="st5" d="M238.9,273.8c-0.3,0.1-3.6,7.2-7,7.4C228.6,281.5,238.9,273.8,238.9,273.8z"/>
	<path class="st5" d="M268.3,289.3c0,0,6.3-1.4,7.7,3.1C276,292.4,275.6,291,268.3,289.3z"/>
	<path class="st5" d="M264.1,315.1c0,0,7.6-1.6,9.2,0.6C275,317.8,264.1,315.1,264.1,315.1z"/>
	<path class="st5" d="M242.6,318.7c0,0.1-7.8,1.6-7.5,2.5c0.3,1,8.3,0.8,8.6-0.7C243.8,319.7,243.4,318.9,242.6,318.7
		C242.6,318.7,242.6,318.7,242.6,318.7z"/>
	<path class="st5" d="M261.6,325.4c0,0,12.7-1.6,12,1.1S261.6,325.4,261.6,325.4z"/>
	<path class="st5" d="M194.9,168.4c0.1,0.2,8.4,1.3,9.5,4c0,0-8.2-3.8-9.5-3.8"/>
	<path class="st5" d="M206.6,190.2c0,0-6.9,2.2-6.4,5.5C200.6,199,199.4,194.1,206.6,190.2z"/>
	<path class="st5" d="M203.3,207c0,0,2.5-3.5,4.9-2.8S203.3,207,203.3,207z"/>
	<path class="st5" d="M242.8,76.8c-0.2,0.2-0.5,0.4-0.8,0.6c-2,1.2-2.5,3-3.5,5c-0.9,1.9-1.9,3.9-3.6,5c-2.3,1.4-5.3,0.9-7.7,2.1
		c-2.2,1.1-3.4,3.5-3.2,5.9c0.2,0.9,0.4,1.8,0.7,2.7c0.5,1.9,0.8,3.9,0.7,5.9c0,0.1,0,0.1,0,0.2c-8-4-11.3-13.8-7.3-21.8
		c4-8,13.8-11.3,21.8-7.3C241,75.5,241.9,76.1,242.8,76.8L242.8,76.8z"/>
	<path class="st9" d="M242.4,71.9c-1.8-3.8-5.7-6.1-9.7-7.3c-3.1-0.9-6.4-1.2-9.4-0.2c-1.7,0.5-3.3,1.5-4.9,2.3
		c-3,1.5-6.3,2.7-8.6,5.2c-0.5,0.6-1,1.3-0.9,2.1c0.1,0.6,0.6,1,0.9,1.5c0.7,1.1,0.5,2.6,0,3.8s-1.1,2.4-1.4,3.7
		c-0.3,1.3-0.2,2.8,0.8,3.7c0.4,0.4,1,0.7,1.4,1c0.5,0.4,1,1,1.4,1.5l2.7,3.7c1.3,1.6,2.4,3.4,3.4,5.2c0.7,1.3,1.2,2.8,2.1,4
		c0.9,1.2,2.3,2.1,3.8,2c0.2,0,0.5-0.1,0.6-0.3c0.1-0.1,0.1-0.2,0.1-0.4c0.1-2-0.2-3.9-0.7-5.8c-0.3-0.9-0.5-1.8-0.7-2.7
		c-0.2-2.4,1-4.8,3.2-5.9c2.4-1.2,5.4-0.7,7.7-2.1c1.8-1.1,2.8-3.1,3.6-5c1-2.1,1.5-3.9,3.5-5C243.2,75.8,243.4,73.9,242.4,71.9z"/>
	<path class="st5" d="M235.1,338.2c0,0,2.5,3.2,1.8,5C236.3,344.9,235.1,338.2,235.1,338.2z"/>
	<path class="st5" d="M268.8,346.1c0,0,0.6-4.3,2.8-4.3s2.3-0.2,4,0.4s3.3,1.7,2.8,1.8s-2.9-2.4-5.4-1.1
		C271.5,343.8,270,344.8,268.8,346.1z"/>
	<path class="st5" d="M227.7,120.3l7-4.9c0,0-10.2-6-11.4-5.2s-2.1,8.5-2.1,8.5L227.7,120.3z"/>
	<path class="st10" d="M227.6,120l7-5c0,0-10.2-6-11.4-5.2c-1.2,0.8-2.1,8.9-2.1,8.9L227.6,120z"/>
	<path class="st6" d="M227.6,120l7-5c0,0-10.2-6-11.4-5.2c-1.2,0.8-2.1,8.9-2.1,8.9L227.6,120z"/>
	<path class="st8" d="M224.3,109.8l-0.2-0.1c-0.6-0.3-1.4-0.2-2,0.2l-20.9,17c0,0-4.6,6.3-3.9,17.2l12.3,17.5c0,0,1.4-5.9,3.1-4.8
		c0,0,2.4,30.3,0,34.7s-3.5,20.7-3.5,20.7l8.1,0.9c0,0,0.8-11.1,2.8-15c1.9-3.9,2.9-17.5,2.9-17.5s1.7-19.7,1.4-28.2
		s-2.8-26.7-2.8-26.7S222.5,115.1,224.3,109.8z"/>
	<path class="st5" d="M245.2,117.2l-8.7-3.2c0,0,11.1-12.1,12.5-5.4L245.2,117.2z"/>
	<path class="st10" d="M245.2,116.8l-8.7-3.2c0,0,11.1-12.1,12.5-5.4L245.2,116.8z"/>
	<path class="st6" d="M245.2,116.8l-8.7-3.2c0,0,11.1-12.1,12.5-5.4L245.2,116.8z"/>
	<path class="st5" d="M244.9,106.4c0.1,0,0.3,0,0.4,0.1L244.9,106.4z"/>
	<path class="st8" d="M245.7,105.6l23.1,5c0,0,6.3,1.4,10.9,17.3s-6.3,35.5-6.3,35.5l-2.4-2l1.2,46.5c0,0-10.7,4-14,0.5
		c-3.4-3.5-3-20-3-20s-3.2-30.5-5.3-35.5c-2-5-1-41.1-1-41.1S247,105.3,245.7,105.6z"/>
	<path class="st5" d="M266.9,135.3c-0.3,0.3-0.7,14.4,0.7,25.1c0.9,6.5,2.2,13,4,19.3l-2.1-42.9
		C269.5,136.7,267.8,134.3,266.9,135.3z"/>
	<path class="st5" d="M264,123.1c0.6,0.4,3,6.2,1.9,8.6S264,123.1,264,123.1z"/>
	<path class="st5" d="M242.3,71.9c-1.1-2.2-2.9-4.1-5.1-5.3c1.6,1.2,2.9,2.7,3.8,4.5c1,2,0.7,4-1.2,5.1c-1.9,1.1-2.5,3-3.5,5
		c-0.9,1.9-1.9,3.9-3.6,5c-2.3,1.4-5.3,0.9-7.7,2.1c-2.2,1.1-3.4,3.5-3.2,5.9c0.2,0.9,0.4,1.8,0.7,2.7c0.5,1.9,0.8,3.9,0.7,5.9
		c0,0.1,0,0.3-0.1,0.4c-0.1,0.2-0.4,0.3-0.6,0.3c-0.6,0-1.2-0.1-1.7-0.3c0.8,0.8,1.9,1.2,3,1.2c0.3,0,0.6-0.2,0.7-0.5
		c0-0.1,0-0.1,0-0.2c0.1-2-0.2-4-0.7-5.9c-0.3-0.9-0.5-1.8-0.7-2.7c-0.2-2.4,1-4.8,3.2-5.9c2.4-1.2,5.4-0.7,7.7-2.1
		c1.8-1.1,2.8-3.1,3.6-5c1-2.1,1.5-3.9,3.5-5S243.3,73.9,242.3,71.9z"/>
	
		<linearGradient id="SVGID_2_" gradientUnits="userSpaceOnUse" x1="366.8375" y1="5.417" x2="366.8375" y2="309.8349" gradientTransform="matrix(1 0 0 -1 -31.16 387.86)">
		<stop  offset="0" style="stop-color:#808080;stop-opacity:0.25"/>
		<stop  offset="0.54" style="stop-color:#808080;stop-opacity:0.12"/>
		<stop  offset="1" style="stop-color:#808080;stop-opacity:0.1"/>
	</linearGradient>
	<path class="st11" d="M384.2,134.5c-6.9-0.1-12.9-5-16.4-10.9c-0.9-1.4-1.5-3-1.7-4.7c0-0.4,0.1-0.8,0.2-1.1
		c0.2-0.6,0.4-1.1,0.5-1.7c0-0.2,0-0.5,0-0.7c0,0,0,0,0,0c0.2-1.3-0.6-2.5-1.5-3.4c-0.9-0.9-2.1-1.5-3-2.4c-3-2.6-3.8-6.7-3.9-10.7
		v-0.2c0-1.7,0.2-3.4,0.2-5.1c0-1,0-1.9-0.1-2.9c-0.3-2.4-1.2-4.8-3.1-6.4c-4.9-4-13.2,0.2-18.3-3.6c-1.2-0.9-2.2-2.3-3.7-2.6
		c-1.1-0.3-2.3,0.1-3.4,0.5c-3.7,1.2-7.9,2.9-9.4,6.5c-0.8,2.1-0.6,4.5-1.4,6.6c-0.5,1.4-1.5,2.6-2.1,4c-0.6,1-0.8,2.2-0.8,3.3
		c-0.1,0.6,0,1.2,0.2,1.8c0.3,0.7,0.7,1.3,1.2,1.7c-0.2,0.4-0.4,0.8-0.7,1.2c-1,1.2-2.4,2-3.4,3.2c-1.8,2.1-1.8,5-0.9,7.6
		c0.9,2.5,2.5,4.8,3.7,7.2c0.5,1.1,0.9,2.2,0.4,3.3c-0.4,0.7-1.1,1.3-1.7,1.9c-0.8,0.9-1.4,2.1-1.5,3.3
		c-11.2,2.6-11.2,11.6-11.2,11.6l0,0l-6.1,15.2c0,0-1,2.6-2.1,6l-7.2-1.3l5,8.3c-0.9,3.4-1.6,6.5-1.4,8.1c0,0-2.2,10.5,1.7,12.3
		l8.7,3.9c0.4,0.2,0.8,0.4,1.2,0.5l0.4,0.2c0.3,0.1,0.6,0.1,0.8,0h0h0.1c0.2,0,0.3,0,0.5-0.1c0.2-0.1,0.3-0.3,0.4-0.5c0,0,0,0,0,0
		l2.6-0.8l2.2,2.6c1,0.7,2,1.3,2.9,1.9l-3.4,34.1c0,0-0.6,45.4-2.2,55.7c-0.6,3.8-0.6,6.4-0.4,8.2l-0.1,0.1c0.4,2.9,1.5,3.5,1.5,3.5
		v0c0,0,0,0,0.1,0c0.5-1.3,1.1-2.6,1.8-3.8c0,0.2,0,0.5,0,0.7c0,3.8-0.2,9.2-0.6,12.7c-0.7,6,1.7,25.7,1.7,25.7l0.8,17.9
		c0.1,3-0.6,6.1-2,8.7c-2,3.6-4.5,8.6-4.7,10.9c0,0.1,0,0.2,0,0.4l0,0l-4.3,5.1c0,0-1.7,2.6,2.1,3.6c2,0.6,5.5,0,8.3-0.7
		c2.5-0.6,4.3-2.8,4.3-5.4c0.7-2.5,1.9-4.8,3.5-6.8l0.7,4.1l4.7,1.2l0.6-11.3c0.2-0.6,0.4-1.3,0.3-2l0,0c0.9-8.1-2.2-7.3-2.2-7.3
		c0.1,0.1,0.1,0.2,0.1,0.3l-0.1-0.3l0,0c-1.9-3.8-1-10-1-10s2.5-17.9,3.3-22.7c0.6-3.3,0.4-14.3,0.2-20.4c0-0.3,0-0.5,0-0.7
		c7.3-0.1,16.2-0.3,22.5-0.9v0.7l-1.2,42.4c-0.1,2.7-0.6,5.4-1.6,7.9c0,0,0,0.1-0.1,0.1c-1.4,3.6-2.2,7.3-2.3,11.1l-0.5,13.5v0.4
		l0,0c-0.9,0.4-2.4,1.4-2.5,4.4c-0.1,4.4,7.7,3,7.7,3c7.8,0,7.9-8.1,7.9-8.1s0.2-7.4,0.6-12.4c0.4-5-1.2-3.9-1.2-3.9l-0.1,14.2
		c0,0,0,0.1,0,0.1v-12.4l0.1-1.8v0l0,0v-0.4l1-14.6c0,0,7.2-24.3,8.3-29c0.8-3.3,0.5-13.3,0.2-18.8c0-0.3,0-0.5,0-0.7
		c2.2-0.2,4.2-0.2,5-0.2h0.4c0,0-0.4-39.1-1.3-53.8c-0.9-14.7-2.4-28.2-6.1-32.3c-2.2-2.5-5.4-10-7.5-15.6c4.4,1.9,9,3.4,13.7,4.5
		c11.8,2.5,10.1-7.7,10.1-7.7l-1.2-19.3h0.1c0-5.1-0.5-10.1-1.3-15.1c-0.6-3.8-1.6-7.8-3-11c1.3-0.5,2.5-1,3.8-1.6
		c3.2-1.4,6.8-3.4,7.3-6.9h-0.2C384.2,135,384.2,134.7,384.2,134.5z M311.4,162.4L311.4,162.4c0,2,0,5.5-0.2,9.3l-3.7-5l3.7-6.1
		L311.4,162.4z M362.9,180l-6.2-2c1.1-1.7,2.4-3.3,3.8-4.8l0.5-0.5l-0.2,0l0.3-0.3l0.2,0l-0.3,0.3l0.3-0.1c0.4,1.6,1.1,3,2.1,4.3
		C365.8,179.4,362.9,180,362.9,180L362.9,180z"/>
	<polygon class="st12" points="325.1,359.5 324.4,373.3 319.8,372.1 318.8,366.4 	"/>
	<polygon class="st5" points="325.1,359.5 324.4,373.3 319.8,372.1 318.8,366.4 	"/>
	<path class="st13" d="M342.2,375.1l7.1,1.5l5.2-4.6v-13.1l0.1-1.8V357l0,0v-0.4l1-14.5c0,0,7.1-24.2,8.2-28.8
		c0.8-3.3,0.5-13.2,0.2-18.7c-0.1-2.2-0.2-3.8-0.2-3.8l-15.6-3.8l-0.3,12l-1.1,42.1c-0.1,2.7-0.6,5.3-1.6,7.8l-0.1,0.1
		c-1.4,3.5-2.1,7.2-2.3,11l-0.5,13.4v0.4L342.2,375.1z"/>
	<path class="st5" d="M354.6,356.6v0.4l0,0V356.6L354.6,356.6z"/>
	<path class="st5" d="M342.2,375.1l7.1,1.5l5.2-4.6v-1.1c0,0.5-0.3,0.9-0.8,1.2l-0.1,0c-2.4,1.3-5.2,1.8-7.9,1.6l-2.8-0.2
		c-0.3,0-0.5,0.1-0.7,0.2v0.4L342.2,375.1z"/>
	<path class="st4" d="M353.7,372.4L353.7,372.4c0.5-0.3,0.8-0.8,0.8-1.3l0.1-14.1c0,0,1.5-1.1,1.2,3.9c-0.4,4.9-0.6,12.3-0.6,12.3
		s-0.1,8.1-7.7,8.1c0,0-7.7,1.5-7.6-2.9c0.1-4.4,3.2-4.6,3.2-4.6l2.8,0.2C348.5,374.2,351.2,373.7,353.7,372.4z"/>
	<path class="st13" d="M305.3,372.1c0.2,3.2,9.5,1.3,9.5,1.3l6.3-12.2c0,0,5.2-4,2.6-7.6c-0.1-0.2-0.3-0.4-0.4-0.6c0,0,0,0,0,0l0,0
		c-0.1-0.1-0.1-0.2-0.2-0.3l0,0c-1.9-3.7-1-9.9-1-9.9s2.4-17.8,3.3-22.5c0.6-3.3,0.4-14.2,0.2-20.3c-0.1-2.5-0.2-4.2-0.2-4.2
		l-15.5-4.2c0,0,0,1.9,0,4.6c0,3.8-0.2,9.2-0.5,12.6c-0.7,5.9,1.7,25.5,1.7,25.5l0.8,17.8c0.1,3-0.5,6-2,8.7
		c-1.9,3.6-4.5,8.6-4.7,10.8C305.3,371.9,305.3,372,305.3,372.1z"/>
	<path class="st5" d="M305.3,372.1c0.2,3.2,9.5,1.3,9.5,1.3l6.3-12.2c0,0,5.2-4,2.6-7.6c-0.1-0.2-0.3-0.4-0.4-0.6
		c-0.1,1.8-2.1,6.5-2.1,6.5s-5.2,10.4-6.8,12.8s-8.8-0.4-9.1-0.5C305.3,371.9,305.3,372,305.3,372.1z"/>
	<path class="st4" d="M323.2,352.7c0,0,3.1-0.7,2.2,7.3l0,0c0.1,1.8-0.9,3.6-2.4,4.6c-2.2,1.4-5.6,4.4-7.3,10.1l0,0
		c0,2.6-1.8,4.8-4.3,5.4c-2.8,0.6-6.2,1.2-8.2,0.7c-3.7-1-2.1-3.6-2.1-3.6l4.3-5.1c0,0,7.4,2.9,9.1,0.5c1.6-2.4,6.8-12.8,6.8-12.8
		S324.1,353.4,323.2,352.7z"/>
	<path class="st5" d="M348.2,288.5l-0.3,12c4.2-0.4,7.1-1,7.7-1.8c1.1-1.7,5.1-2.4,8.5-2.7c-0.1-2.2-0.2-3.8-0.2-3.8L348.2,288.5z"
		/>
	<path class="st5" d="M310,297.8c0.4-0.8,1-1.5,1.7-2.1c1.6-0.9,1.5,5.9,1.5,5.9s5.5,0,12.5,0c-0.1-2.5-0.2-4.2-0.2-4.2l-15.5-4.1
		C310,293.1,310,295.1,310,297.8z"/>
	<path class="st14" d="M308.2,299.4c0,0,1.8-5,3.5-5.9c1.7-0.9,1.5,5.9,1.5,5.9s40.3,0.4,42.3-2.7c2-3.1,13.7-2.9,13.7-2.9
		s-0.4-38.8-1.3-53.5s-2.4-28-6-32c-2.4-2.6-5.7-11-7.8-16.7c-1.1-3.1-1.9-5.3-1.9-5.3l-38.4,2.2l-0.3,3.1l-4.1,40.8
		c0,0-0.5,45-2.2,55.3C305.5,297.9,308.2,299.4,308.2,299.4z"/>
	<g class="st15">
		<path d="M352.4,296.6c2-3.1,13.7-2.9,13.7-2.9s-0.4-38.8-1.3-53.5s-2.4-28-6-32c-2.4-2.6-5.7-11-7.8-16.7c-1-2.6-1.6-4.6-1.8-5.1
			l3-0.2c0,0,0.8,2.2,1.9,5.3c2.1,5.6,5.4,14.1,7.8,16.7c3.7,4,5.1,17.4,6,32c0.9,14.6,1.3,53.5,1.3,53.5s-11.7-0.2-13.7,2.9
			c-1.7,2.7-31.4,2.8-40,2.8C326.5,299.3,350.8,299,352.4,296.6z"/>
		<path d="M308.6,293.5c0.7-0.4,1.1,0.7,1.3,2.1c-0.7,1.2-1.2,2.5-1.7,3.7c0,0-1.1-0.6-1.5-3.5C307.3,294.8,308,293.8,308.6,293.5z"
			/>
	</g>
	<path class="st9" d="M320.1,92.3c-2.7,3.6,0,8.8-2.8,12.3c-0.9,1.2-2.4,2-3.4,3.1c-1.8,2.1-1.7,5-0.9,7.5c0.9,2.5,2.5,4.8,3.6,7.2
		c0.5,1.1,0.9,2.2,0.4,3.3c-0.3,0.7-1.1,1.3-1.6,1.9c-1.8,2-1.9,4.9-0.9,7.3c1,2.4,2.9,4.5,4.7,6.5c0.7,0.8,1.7,1.7,2.9,1.7
		c0.6,0,1.3-0.3,1.8-0.6c8.8-4.5,12.5-15.1,8.4-24.1c-1.5-3.7-4.1-7.3-4.1-11.2c0-3.1,1.6-6.1,1.9-9.2c0.3-3.8-1.9-9.7-6.4-11.4
		C324,89.2,321.5,90.4,320.1,92.3z"/>
	<path class="st5" d="M320.1,92.3c-2.7,3.6,0,8.8-2.8,12.3c-0.9,1.2-2.4,2-3.4,3.1c-1.8,2.1-1.7,5-0.9,7.5c0.9,2.5,2.5,4.8,3.6,7.2
		c0.5,1.1,0.9,2.2,0.4,3.3c-0.3,0.7-1.1,1.3-1.6,1.9c-1.8,2-1.9,4.9-0.9,7.3c1,2.4,2.9,4.5,4.7,6.5c0.7,0.8,1.7,1.7,2.9,1.7
		c0.6,0,1.3-0.3,1.8-0.6c8.8-4.5,12.5-15.1,8.4-24.1c-1.5-3.7-4.1-7.3-4.1-11.2c0-3.1,1.6-6.1,1.9-9.2c0.3-3.8-1.9-9.7-6.4-11.4
		C324,89.2,321.5,90.4,320.1,92.3z"/>
	<path class="st5" d="M349.6,224.3c-5.3,0.3-10.3,2.6-15,5.2c-4.7,2.6-9.2,5.5-14.2,7.4"/>
	<path class="st5" d="M346.3,236.8c-5.3,0.5-10.2,2.9-13.8,6.7c-1.3,1.4-2.4,2.9-3.8,4.2c-2.1,2-4.6,3.5-7.4,4.2"/>
	<path class="st5" d="M347.4,246.4c-4.3,1.2-8.1,3.5-11.1,6.7c-0.8,0.9-1.6,1.8-2.4,2.7c-4.4,4.7-10.6,7.2-16.7,9.6"/>
	<path class="st13" d="M347,113.9c0.1,4.3,0.5,8.5,1.1,12.7c0.5,3,1.2,5.7,2.2,6.9c2.9,3.5-14.3,8.1-14.3,8.1l-10.2-7.9
		c0,0,8.1-7.4,4.3-14.6C326.4,111.9,347,113.9,347,113.9z"/>
	<path class="st5" d="M313.4,191.5h40.6c-1.1-3.1-1.9-5.3-1.9-5.3l-38.4,2.2L313.4,191.5z"/>
	<path class="st16" d="M310.8,190.8h43.5c-1.2-4.4,0-8.4,1.7-11.5c1.2-2.2,2.8-4.2,4.6-5.9l0.3-0.3l15.2-3.4l0.8-0.2
		c0,0,0.1-27.6-9.6-31.4c-9.8-3.8-15.6-8.9-15.6-8.9l-13.4,4.1l-9.9-5c-3.2,3.4-11.6,2.1-11.6,2.1c-13.8,1.6-13.8,12-13.8,12
		s8.1,18.8,8.7,18.8S310.8,190.8,310.8,190.8z"/>
	<path class="st5" d="M325.8,173.2c0,0-8.9-2-11.9-5.4"/>
	<path class="st5" d="M370.5,162.9l-10.3,8.4c0.1,0.7,0.2,1.3,0.3,2l0.3-0.3l15.2-3.4L370.5,162.9z"/>
	<path class="st5" d="M342.7,187.8c0,0,2.2,1.3,5.7,2.9h5.9c-1.2-4.4,0-8.4,1.7-11.5l-10.4-3.4C349.1,179.2,342.7,187.8,342.7,187.8
		z"/>
	<path class="st16" d="M309,139.1l-6.1,3.3l-6,15.1c0,0-6.2,16.6-5.6,21c0,0-2.2,10.4,1.7,12.2l10.2,4.6c0.5,0.2,1,0,1.2-0.5
		c0.1-0.3,0.1-0.6,0-0.8c-1.5-2.7-3-7-0.5-9.4l-2.9-6.1l10.6-17.3l3.5-6L309,139.1z"/>
	<path class="st5" d="M322.5,169.8c0.5,2.2,2.3,5.5,8.2,6.7l6.5,5.3l6.9,3.1l2.8,1.3l1.2-8.6l-2.7-1.5l-3.2-1.7
		c0,0-7.1-12.9-18.4-7.5C322.8,167.4,322.2,168.6,322.5,169.8z"/>
	<path class="st13" d="M322.9,169c0.5,2.2,2.3,5.5,8.2,6.7l6.5,5.3l6.9,3.1l2.8,1.3l1.2-8.6l-2.7-1.5l-3.1-1.7
		c0,0-7.1-12.9-18.4-7.5C323.2,166.7,322.6,167.9,322.9,169z"/>
	<circle class="st5" cx="335.6" cy="109.3" r="15.7"/>
	<circle class="st13" cx="335.6" cy="108.9" r="15.7"/>
	<path class="st5" d="M345.4,142.6l-4.7-9.2c0,0,6.9-2.8,7.4-6c0.5-3.2,6.6,3.8,5.3,6.1C352,135.8,345.4,142.6,345.4,142.6z"/>
	<path class="st17" d="M345.4,141.8l-4.7-9.2c0,0,6.9-2.8,7.4-6s6.6,3.8,5.3,6.1C352,135.1,345.4,141.8,345.4,141.8z"/>
	<path class="st18" d="M306.6,165.6l26.2,35.2c0,0-9.6,5.2-22.9-4.1l-5.7-6.8l-16.4-27.6L306.6,165.6z"/>
	<path class="st13" d="M301.5,184.7l2.4-0.1c0,0,14.6-14.1,18.1-7c3.6,7.1-9.1,13.8-9.1,13.8l-3.8,2.1l-5,1.5l-3.2-4.3L301.5,184.7z
		"/>
	<path class="st5" d="M305,192.4c0.2,0.8,0.4,1.7,0.1,2.5c-0.1,0.2-0.2,0.4-0.4,0.5c-0.2,0.1-0.3,0.1-0.5,0.1
		c-1.3-0.1-2.4-0.7-3.3-1.6c-0.8-0.9-1.6-2-2.1-3.1c-0.6-1.1-1.3-2.4-1.1-3.7c0.3-1.4,1.5-2.4,2.7-3.2c2.4-1.6,2.5,0.3,3,2.3
		S304.4,190.3,305,192.4z"/>
	<path class="st19" d="M304.6,192.4c0.2,0.8,0.4,1.7,0.1,2.5c-0.1,0.2-0.2,0.4-0.4,0.5c-0.2,0.1-0.3,0.1-0.5,0.1
		c-1.3-0.1-2.4-0.7-3.3-1.6c-0.8-0.9-1.6-2-2.1-3.1c-0.6-1.1-1.3-2.4-1.1-3.7c0.3-1.4,1.5-2.4,2.7-3.2c2.4-1.6,2.5,0.3,3,2.3
		C303.5,188.2,304.1,190.3,304.6,192.4z"/>
	<polygon class="st5" points="311.5,161.2 312.8,159.2 311.7,163 	"/>
	<path class="st5" d="M344.5,184.2l2.8,1.3l1.2-8.6l-2.7-1.5C347.7,177.5,346,181.5,344.5,184.2z"/>
	<path class="st5" d="M355.8,174.2c0,0-9.1,0.6-12.9-1.9"/>
	<g class="st15">
		<path d="M354.7,180c1.2-2.2,2.8-4.2,4.6-5.9c0.4-0.3,0.9-0.5,1.3-0.7l14.1-2.9l0.8-0.2c0,0,0.1-27.6-9.6-31.4
			c-5.5-2.1-10.6-5-15.2-8.6l1.1-0.3c0,0,5.9,5.1,15.6,8.9s9.6,31.4,9.6,31.4h-1.5L361,173c0,0-0.6,0.6-0.8,0.8
			c-1.8,1.8-3.4,3.9-4.6,6.1c-1.9,3.6-2.3,7.7-1.2,11.6h-1.5C351.7,187.1,352.9,183.1,354.7,180z"/>
		<path d="M316.1,131.3c0.2,0,0.5-0.1,0.7-0.1c1,0.1,2,0.2,3,0.2C318.5,131.5,317.3,131.4,316.1,131.3z"/>
		<path d="M336.8,134.1l-8.9-4.5c0.2-0.1,0.3-0.3,0.5-0.5l9.3,4.7L336.8,134.1z"/>
	</g>
	<path class="st16" d="M370.8,162.2l6,7.3l1.2,19.9c0,0,1.6,10.1-10,7.7c-11.6-2.4-25-10-25-10s6.5-8.7,2.9-12l16.6,5.4
		c0,0,2.8-0.6,0.6-3.1c-2.2-2.4-2.6-6.8-2.6-6.8L370.8,162.2z"/>
	<path class="st5" d="M373.5,183.2l3.3,3.8C375.1,186.5,373.8,185,373.5,183.2z"/>
	<polygon class="st5" points="367.9,182.6 373.1,189.2 370.5,189.8 	"/>
	<path class="st5" d="M316.8,101.7c-0.6-1.4-0.1-3,0.5-4.3c0.7-1.3,1.6-2.5,2.1-3.9c0.8-2.1,0.5-4.4,1.3-6.5
		c1.5-3.6,5.6-5.2,9.3-6.5c1.1-0.4,2.3-0.7,3.4-0.5c1.5,0.4,2.5,1.7,3.7,2.6c5,3.7,13.2-0.4,18,3.6c1.9,1.5,2.8,3.9,3,6.3
		c0.3,2.4,0,4.8,0,7.2c-0.1,4.2,0.7,8.8,3.8,11.6c0.9,0.8,2.1,1.5,3,2.3c0.9,0.9,1.7,2.1,1.5,3.3c-0.1,0.6-0.3,1.1-0.5,1.7
		c-0.6,2.2,0.3,4.5,1.4,6.5c3.4,5.9,9.4,10.7,16.1,10.8c-0.5,3.4-4,5.4-7.2,6.8c-4,1.8-8.2,3.5-12.6,3.3c-4.4-0.2-9-3-9.7-7.4
		c-0.3-1.5-0.2-3.3-1.5-4.1c-0.8-0.5-1.8-0.4-2.6-0.7c-1.2-0.5-1.8-1.9-2.2-3.1c-0.8-2.6-1.3-5.3-1.3-8c-0.1-3.2,0.4-6.7-1.5-9.4
		c-1.7-2.4-4.7-3.7-6.6-5.9c-1.8-2.1-3.7-4.6-6.7-5C327.6,102.1,319.2,107.6,316.8,101.7z"/>
	<path class="st9" d="M316.8,101c-0.6-1.4-0.1-3,0.5-4.3c0.7-1.3,1.6-2.5,2.1-3.9c0.8-2.1,0.5-4.4,1.3-6.5c1.5-3.6,5.6-5.2,9.3-6.5
		c1.1-0.4,2.3-0.7,3.4-0.5c1.5,0.4,2.5,1.7,3.7,2.6c5,3.7,13.2-0.4,18,3.6c1.9,1.5,2.8,3.9,3,6.3c0.3,2.4,0,4.8,0,7.2
		c-0.1,4.2,0.7,8.8,3.8,11.6c0.9,0.8,2.1,1.5,3,2.3c0.9,0.9,1.7,2.1,1.5,3.3c-0.1,0.6-0.3,1.1-0.5,1.7c-0.6,2.2,0.3,4.5,1.4,6.5
		c3.4,5.8,9.3,10.7,16.1,10.8c-0.5,3.4-4,5.4-7.2,6.8c-4,1.8-8.2,3.5-12.6,3.3c-4.4-0.2-9-3-9.7-7.4c-0.3-1.5-0.2-3.3-1.5-4.1
		c-0.8-0.5-1.8-0.4-2.6-0.7c-1.2-0.5-1.8-1.9-2.2-3.1c-0.8-2.6-1.3-5.3-1.3-8c-0.1-3.2,0.4-6.7-1.5-9.4c-1.7-2.4-4.7-3.7-6.6-5.9
		c-1.8-2.1-3.7-4.6-6.7-5C327.6,101.3,319.2,106.9,316.8,101z"/>
	<path class="st5" d="M328,141.4l9-7.3c0,0-6.2-3.3-6.9-6.2c-0.7-2.9-5.7,1.4-5.2,3.9C325.4,134.4,328,141.4,328,141.4z"/>
	<path class="st17" d="M328.3,140.3l9-7.3c0,0-6.2-3.3-6.9-6.2s-5.7,1.4-5.2,3.9C325.8,133.3,328.3,140.3,328.3,140.3z"/>
	<circle class="st5" cx="337.7" cy="139.1" r="0.7"/>
	<circle class="st5" cx="337.7" cy="143.1" r="0.7"/>
	<circle class="st5" cx="337.7" cy="147.1" r="0.7"/>
	<g class="st15">
		<path d="M320.5,90.8c0.7-2,0.6-4.2,1.2-6.1c-0.3,0.4-0.6,0.9-0.8,1.4c-0.8,2.1-0.6,4.4-1.4,6.5l0,0.1
			C319.9,92.1,320.2,91.5,320.5,90.8z"/>
		<path d="M377.4,140.1c-4,1.8-8.2,3.5-12.6,3.3c-4.4-0.2-9-3-9.7-7.4c-0.3-1.5-0.2-3.3-1.5-4.1c-0.8-0.5-1.8-0.4-2.6-0.7
			c-1.2-0.5-1.8-1.9-2.2-3.1c-0.8-2.6-1.3-5.3-1.3-8c-0.1-3.2,0.4-6.7-1.4-9.4c-1.7-2.4-4.7-3.7-6.6-5.9c-1.8-2.1-3.7-4.6-6.7-5
			c-4-0.5-12.5,5-14.8-0.9c-0.4-1.1-0.3-2.3,0.2-3.4c-0.2,0.3-0.3,0.6-0.5,0.9c-0.7,1.3-1.1,2.9-0.5,4.3c2.4,5.9,10.8,0.4,14.8,0.9
			c2.9,0.4,4.9,2.9,6.7,5c1.9,2.3,4.9,3.5,6.6,5.9c1.8,2.6,1.4,6.1,1.5,9.3c0,2.7,0.5,5.4,1.3,8c0.4,1.3,1,2.6,2.2,3.1
			c0.8,0.4,1.8,0.2,2.6,0.7c1.3,0.8,1.3,2.6,1.5,4.1c0.8,4.3,5.4,7.1,9.7,7.4c4.4,0.2,8.6-1.5,12.6-3.3c2.9-1.3,6.1-3.1,7-6
			C382.1,137.8,379.6,139.1,377.4,140.1z"/>
	</g>
	
		<linearGradient id="SVGID_3_" gradientUnits="userSpaceOnUse" x1="452.8422" y1="-17.2763" x2="452.8422" y2="275.5862" gradientTransform="matrix(1 0 0 -1 -31.16 387.86)">
		<stop  offset="0" style="stop-color:#808080;stop-opacity:0.25"/>
		<stop  offset="0.54" style="stop-color:#808080;stop-opacity:0.12"/>
		<stop  offset="1" style="stop-color:#808080;stop-opacity:0.1"/>
	</linearGradient>
	<path class="st20" d="M465.5,168.3c-10.6-6.1-14.5-7.6-14.6-7.6l-0.2-0.2c-1.1-0.9-2.1-2-2.7-3.4c0-0.2,0-0.5,0-0.7c0,0,0,0,0,0.1
		c0.2-3.2,2.5-6.1,4.6-8.7l5.5-6.5c0.6-0.6,1.1-1.4,1.4-2.3c0.1-0.5,0.2-0.9,0.1-1.4c0-0.2,0-0.4,0-0.6c0-1.6-0.1-3.2-0.1-4.9
		c0-1.4-0.4-3.2-1.8-3.5c-0.7-0.1-1.7,0.1-2.1-0.5c-0.1-0.3-0.2-0.6-0.1-0.8c0,0,0,0,0,0.1v-0.1c0.3-1.1,0.4-2.2,0.5-3.3
		c0-0.6,0-1.1-0.2-1.7c-0.8-2.3-3.6-3.3-6.1-3.8c-2.5-0.4-5.3-0.8-6.9-2.8c-0.4-0.7-0.9-1.3-1.4-1.9c-0.7-0.6-1.6-1.1-2.6-1.3
		c-3.1-0.8-6.4-0.5-9.3,0.8c-1.2,0.5-2.4,1.3-3.7,1.2c-1.3-0.1-2.6-1-3.9-1.3c-2.2-0.4-4.3,1.2-5.4,3.1c-0.6,1.1-1,2.4-1,3.7v0.2
		l0,0c0,1.4,0.5,2.8,1.4,3.8c0.9,1,2.4,1.7,2.7,2.9c0.2,0.5,0.1,1.1,0.3,1.6c0,0.1,0,0.1,0.1,0.2l-0.1,0.1
		c-2.3,2.9-3.5,6.5-3.5,10.1c0.1,7.3,4.8,13.8,11.8,15.9c0,0.2,0,0.3,0,0.5c0,2-0.6,4.1-2.3,5.6l-14.9,6c0,0-9-1.1-12.3,12.1
		c-0.5,2.2-0.7,4.4-0.6,6.7c0.1,2-0.2,5.5-2.5,10c-3.7,7.2-2.9,23.8,4.7,25.5c7.1,1.6,9.9,0.9,10.2,0.8v0.3
		c-0.1,3.1-1.3,30-5.4,33.3c-1.1,0.9-0.9,1.5,0,1.9c0,0,0,0.2,0,0.5c-0.1,2-0.8,9.5-3.5,13.7c-3.2,4.9-2.9,33.4-2.9,33.4l-2.2,16.8
		c0,0,1.3,10.4,0,12.2c-1.2,1.6-2.8,39.9-3.1,48.3h-0.1c-1.3,0.1-2.6,0.8-3.2,2c-1.8,2.9-7.9,8.2-7.9,8.2c-1.3,1.9-6.3,3.7-8.9,4.6
		c-0.3,0.1-0.7,0.3-1,0.4c-1,0.5-1.8,1.4-2.3,2.4c-0.3,0.6-0.4,1.3-0.2,2c0.7,1.6,14.6,2.8,18.1,1.1c2.8-1.3,13.8-3,18.3-3.7
		c1.7-0.2,3-1.6,3.3-3.3c0.1-0.6-0.1-1.2-0.4-1.6l0,0c-0.9-1.1-1.3-4-1.5-6c0.4-0.2,0.7-0.4,1-0.6c-0.4-6,0.5-12,2.5-17.6
		c3.4-8.9,4.4-25.3,3.5-36c0,0,10.2-44.1,18.3-48.2l0,0c0.1,0.2,4,5.2,4.5,20.7c0.5,15.8,6.2,26.2,6.2,26.2s-2.5,26.8,0,36.8
		l-3.3,15.8c-0.2-0.2-0.4-0.4-0.4-0.4s0.1,0.4,0.2,1.1l-0.1,0.3l0.1,0c0.4,2,0.9,5.4,0.7,7.5c-0.1,1.2-0.5,2.7-0.7,4.3
		c-0.3,2.4-0.4,4.8,0.8,5.3c2.1,0.8,14.5,2,16.5-0.7c1-1.1,1.2-2.7,0.6-4.1c-0.2-0.4-0.4-0.7-0.6-1c0,0-3.3-5.4-2.4-9.1
		c0.2-0.7,0-1.5-0.4-2.2c0.1-1.9,0.9-10.4,2.8-17.7c2.1-7.9,6.5-25.3,3.3-36.7l0,0c-0.1-0.4-0.3-0.9-0.4-1.3
		c-1.9-6.2-2.5-12.8-1.8-19.2c-1.2-5.5-1.2-11.2,0-16.8c2-9.2,3.4-18.3,3.4-18.3s1.1-12.2,0.1-19.6c0-0.2,0-0.3-0.1-0.5l0.5-0.1
		c0,0-2.9-12.7-3.9-20.7c-0.2-1.9-0.5-4.3-0.9-6.9c0.9-0.2,1.8-0.4,2.7-0.7c9.1-3.1,11.9-31.4,11.9-31.4v-9
		C473,188.1,476.1,174.3,465.5,168.3z M397.9,386.7c-0.3-0.1-0.4-0.2-0.4-0.2l0,0L397.9,386.7z"/>
	<path class="st21" d="M460,331.5c3.9,11.3-0.7,29.7-2.8,37.9s-2.8,18-2.8,18c-8.4,1.3-14.4-0.3-14.4-0.3l3.4-16.9
		c-2.5-10,0-36.7,0-36.7s-5.6-10.3-6.1-26.1c-0.5-15.5-4.3-20.5-4.4-20.6l0,0c-7.9,4.1-17.9,48-17.9,48c0.8,10.7-0.2,27-3.4,35.9
		c-2,5.6-2.8,11.6-2.5,17.5c-1.1,1-2.7,1.1-4.5,0.9c-4.7-0.8-10.3-4.8-10.3-4.8s1.8-47.8,3.1-49.7c1.3-1.8,0-12.1,0-12.1l2.1-16.7
		c0,0-0.3-28.4,2.8-33.3c2.7-4.2,3.3-11.7,3.4-13.7c0-0.3,0-0.5,0-0.5l4.7-5.7c0,0,45.9-3.4,49.3,0c0.8,0.8,1.4,2.8,1.7,5.2
		c0.9,7.4-0.1,19.6-0.1,19.6s-1.4,9-3.3,18.2c-1.2,5.5-1.2,11.2,0,16.7C457.5,318.8,458.1,325.3,460,331.5z"/>
	<path class="st12" d="M457.1,403.4c-2,2.7-14.1,1.6-16.1,0.7c-1.3-0.5-1.2-2.9-0.8-5.3c0.2-1.5,0.5-3.1,0.7-4.3c0.3-3-1-8.9-1-8.9
		s2.7,2.9,3.4,0c0.3-1.3,1.3-1.9,2.3-2.2c1.4-0.4,2.9-0.3,4.3,0.3c2.1,0.9,5.7,2.9,5,5.6c-0.9,3.8,2.3,9.1,2.3,9.1
		c0.2,0.3,0.4,0.7,0.6,1C458.3,400.7,458.1,402.2,457.1,403.4z"/>
	<path class="st5" d="M457.1,403.4c-2,2.7-14.1,1.6-16.1,0.7c-1.3-0.5-1.2-2.9-0.8-5.3c1.3,0.6,3.5,1.1,7.2,0.8
		c0.9-0.1,1.7-0.1,2.6-0.1c2.6,0.1,5.2,0.1,7.8-0.2C458.3,400.7,458.1,402.2,457.1,403.4z"/>
	<path class="st5" d="M415.1,334.8c0.8,10.7-0.2,27-3.4,35.9c-2,5.6-2.8,11.6-2.5,17.5c-1.1,1-2.7,1.1-4.5,0.9
		c1-6.9,5.2-36.7,7.9-60.2c3.1-26.8,17.4-45.2,17.4-45.2l2.9,3.2C425.1,290.9,415.1,334.8,415.1,334.8z"/>
	<path class="st22" d="M452.2,162.5l-2,9.8l-9.8,16.5l-12.1-5.2c0,0-16.4-17.2-6.1-19.7c1.2-0.3,2.4-0.8,3.4-1.5
		c2-1.5,2.7-3.8,2.7-5.9c-0.1-2.4-0.6-4.8-1.7-7l21.1-6.6c-0.9,2.8-1.4,5.7-1.5,8.6c-0.2,5.8,2,8.6,3.7,10
		C450.7,161.9,451.4,162.3,452.2,162.5z"/>
	<path class="st5" d="M447.8,142.9c-0.9,2.8-1.4,5.7-1.5,8.6c-0.4,0.5-0.8,0.9-1.2,1.3c-4.4,4.2-10.9,5.7-16.7,3.8
		c-0.1-2.4-0.7-4.8-1.7-7L447.8,142.9z"/>
	<path class="st22" d="M450.2,140.1c0,9.2-7.5,16.7-16.7,16.7c-9.2,0-16.7-7.5-16.7-16.7c0-9.2,7.5-16.7,16.7-16.7c0,0,0,0,0,0
		c9.2,0,16.7,7.4,16.7,16.6C450.2,140,450.2,140.1,450.2,140.1z"/>
	<path class="st5" d="M452.2,162.5l-2,9.8l-9.8,16.5l-12.1-5.2c0,0-16.4-17.2-6.1-19.7c1.2-0.3,2.4-0.8,3.4-1.5
		c-1.9,5.1,5.8,15.8,5.8,15.8c0.9,1.3,3,0.5,3,0.5c5-0.8,14.1-15,15.6-17.4C450.7,161.9,451.4,162.3,452.2,162.5z"/>
	<path class="st5" d="M461.7,257.8c-2.9,0.7-19,4.2-25.1,3.3c-6.7-1-19.8-1.6-19.8-1.6s-8.3,0.4-10.9-0.7c0-0.3,0-0.5,0-0.5l4.7-5.7
		c0,0,45.9-3.4,49.3,0C460.8,253.5,461.4,255.4,461.7,257.8z"/>
	<path class="st23" d="M431.5,178.7c0,0-8.6-12-5.4-16.6l-14.6,6c0,0-8.8-1.1-12,12.1c-0.5,2.2-0.7,4.4-0.5,6.7
		c0.1,2-0.1,5.5-2.4,10c-3.6,7.2-2.8,23.8,4.6,25.4c7.4,1.6,10,0.8,10,0.8s-1,30-5.2,33.4c-4.2,3.4,10.9,2.6,10.9,2.6
		s13.1,0.7,19.8,1.6c6.7,1,25.6-3.4,25.6-3.4s-2.8-12.6-3.8-20.6c-1-8-3.3-25.1-3.3-25.1l16.7-22.6c0,0,3-13.7-7.4-19.8
		c-10.3-6.1-14.2-7.6-14.2-7.6s-10.4,16.9-15.8,17.7C434.4,179.2,432.4,180.1,431.5,178.7z"/>
	<path class="st5" d="M412.3,183.5c0,0-0.2,5.4,0.8,7.5s4.6,14,4.6,14h-8.2c0,0,4.4-4.8,4.1-7.1
		C413.3,195.6,412.3,183.5,412.3,183.5z"/>
	<path class="st22" d="M436.6,224.3c0,0-18.1-4.4-19.8-8.2c-1.7-3.8-6.3-12.2-6.3-12.2l1.9-2.6l8.8,6.9c0,0,10.5,8.4,15.4,9.2
		C441.5,218.2,436.6,224.3,436.6,224.3z"/>
	<path class="st24" d="M436.6,224.3c0,0-18.1-4.4-19.8-8.2c-1.7-3.8-6.3-12.2-6.3-12.2l1.9-2.6l8.8,6.9c0,0,10.5,8.4,15.4,9.2
		C441.5,218.2,436.6,224.3,436.6,224.3z"/>
	<path class="st22" d="M452.2,203v9.8h-1.6c-7.8,0-15.5,2-22.3,5.8l-3,1.6l-0.8,0.4l-5.1-11.5l4.8-4.3h0.2c1.2,0.1,6.2,0.5,8.3-0.2
		c2-0.7,4.5-2.9,10.5-1.3c2.9,0.8,5.4,4,8.3,3L452.2,203z"/>
	<path class="st5" d="M468,185.1l3.3,3.7v8.9c0,0-2.8,28.2-11.6,31.3s-24.7-1.8-24.7-1.8s-4.1-10.8-2.2-11.5
		c1.9-0.6,16.9-4.6,16.9-4.6s-0.2-16.5,3.1-21.5c0,0-2.1-15.4,5.2-15.7C465.4,173.7,468,185.1,468,185.1z"/>
	<path class="st23" d="M468.5,185.1l3.3,3.7v8.9c0,0-2.8,28.2-11.6,31.3s-24.7-1.8-24.7-1.8s-4.1-10.8-2.2-11.5
		c1.9-0.6,16.9-4.6,16.9-4.6s-0.2-16.5,3.1-21.5c0,0-2.1-15.4,5.2-15.7C465.9,173.7,468.5,185.1,468.5,185.1z"/>
	<path class="st5" d="M445.6,147.2c0.1-1.1,0-2.2-0.4-3.2c-0.5-1-1.5-1.7-2.6-1.5c-1.4,0.3-2,2.2-3.4,2.6c-1.2,0.4-2.4-0.5-3-1.5
		s-0.6-2.4-0.6-3.6c0-1.4,0-2.7,0-4.1c0-1.5,0-3.1-1-4.3c-1.1-1.5-3.8-2.1-5.6-2c-1.2,0-2.3,0.5-3.2,1.3c-1,0.8-2.1,1.4-3.4,1.2
		c-1.1-0.2-2-1-2.4-2v0c5.5-7.4,16-8.9,23.4-3.3c7.4,5.5,8.9,16,3.3,23.4c-0.6,0.7-1.2,1.4-1.9,2.1
		C445.3,150.6,445.5,148.9,445.6,147.2z"/>
	<path class="st25" d="M422.5,131.6c-1.1-0.2-2-1-2.4-2c-0.1-0.5-0.1-1.1-0.3-1.6c-0.4-1.3-1.8-2-2.7-2.9c-1.8-2-1.7-5.2-0.4-7.5
		c1.1-1.9,3.1-3.5,5.2-3.1c1.3,0.2,2.5,1.2,3.8,1.3c1.3,0.1,2.5-0.6,3.7-1.2c2.8-1.3,6-1.6,9.1-0.8c0.9,0.2,1.8,0.6,2.5,1.3
		c0.5,0.6,0.9,1.2,1.3,1.9c1.5,1.9,4.3,2.3,6.7,2.8s5.2,1.4,6,3.7c0.5,1.6,0,3.2-0.3,4.9c-0.1,0.3-0.1,0.7,0.1,1
		c0.4,0.6,1.3,0.4,2.1,0.5c1.4,0.3,1.7,2.1,1.8,3.5c0.1,1.6,0.1,3.2,0.1,4.8c0,0.6,0,1.2-0.1,1.8c-0.3,0.8-0.8,1.6-1.4,2.3l-5.4,6.5
		c-2.4,2.9-4.9,6.2-4.5,10c-1.1,0.5-2.5-0.5-2.9-1.7s-0.1-2.5,0.2-3.7c0.4-2.1,0.7-4.3,0.9-6.4c0.1-1.1,0-2.2-0.4-3.2
		c-0.5-1-1.5-1.7-2.6-1.5c-1.4,0.3-2,2.2-3.4,2.6c-1.2,0.4-2.4-0.5-3-1.5c-0.6-1.1-0.6-2.3-0.6-3.6v-4.1c0-1.5,0-3.1-1-4.3
		c-1.1-1.5-3.8-2.1-5.6-2c-1.2,0-2.3,0.5-3.2,1.3C425,131.2,423.8,131.9,422.5,131.6z"/>
	<path class="st5" d="M426.3,183.1l5.1,21.1C431.4,204.2,435.5,204.1,426.3,183.1z"/>
	<path class="st5" d="M443.9,179.6c0,0-6.7,11-4.1,22.4l1.3,0.1C441,202,438.8,196.8,443.9,179.6z"/>
	<path class="st5" d="M448.1,241.8c0,0,8.3-2.7,8.9,3.6C457,245.4,455.4,241.1,448.1,241.8z"/>
	<path class="st5" d="M424.3,205.5c0,0-1.6,11.5,1.3,16.1c0,0-6,2.5-14.4,2l-1-18L424.3,205.5z"/>
	<path class="st5" d="M425.4,220.2l-0.8,0.4l-5.1-11.5l4.8-4.3h0.2l0,0C424.4,205.5,423.1,215.4,425.4,220.2z"/>
	<path class="st23" d="M424.3,205c0,0-1.6,11.5,1.3,16.1c0,0-6,2.5-14.4,2l-5.7-18L424.3,205z"/>
	<path class="st12" d="M410.1,396.4c-0.2,1.7-1.5,3-3.2,3.2c-4.5,0.7-15.2,2.4-17.9,3.6c-3.4,1.6-17,0.5-17.7-1.1
		c-0.2-0.7-0.1-1.4,0.2-2c0.5-1,1.2-1.8,2.2-2.4c0.3-0.2,0.7-0.3,1-0.4c2.6-0.9,7.4-2.7,8.7-4.6c0,0,6-5.3,7.8-8.1
		c0.7-1.1,1.8-1.9,3.1-2c1.4-0.1,3,0.7,3.7,3.8c0,0,7.9,4.5,10,0.6c0,0,0.3,6,1.6,7.7l0,0C410,395.2,410.2,395.8,410.1,396.4z"/>
	<path class="st5" d="M410.1,396.4c-0.2,1.7-1.5,3-3.2,3.2c-4.5,0.7-15.2,2.4-17.9,3.6c-3.4,1.6-17,0.5-17.7-1.1
		c-0.2-0.7-0.1-1.4,0.2-2c0.5-1,1.2-1.8,2.2-2.4c2.2,1.5,7.1,2.9,18,1.2c10.3-1.6,15.5-3.2,17.9-4.3l0,0
		C410,395.2,410.2,395.8,410.1,396.4z"/>
	<g class="st15">
		<path d="M454.8,128.4L454.8,128.4c0.2-1.3,0.6-2.6,0.5-3.8c-0.1,1-0.3,2-0.5,3C454.8,127.8,454.8,128.1,454.8,128.4z"/>
		<path d="M445.2,143.7c0.3,0.6,0.4,1.2,0.4,1.9c0.1-0.9-0.1-1.8-0.4-2.6c-0.5-1-1.5-1.7-2.6-1.5c-1.4,0.3-2,2.2-3.4,2.6
			c-1.2,0.4-2.4-0.5-3-1.5c-0.6-1.1-0.6-2.4-0.6-3.6c0-1.4,0-2.7,0-4.1c0-1.5,0-3.1-1-4.3c-1.1-1.5-3.8-2.1-5.6-2
			c-1.2,0-2.3,0.5-3.2,1.3c-1,0.8-2.1,1.4-3.4,1.2c-1.1-0.2-2-1-2.4-2c-0.1-0.5-0.1-1.1-0.3-1.6c-0.4-1.3-1.8-2-2.7-2.9
			c-0.9-1-1.4-2.2-1.4-3.5c-0.1,1.5,0.4,3.1,1.4,4.2c0.9,1,2.3,1.6,2.7,2.9c0.2,0.5,0.1,1.1,0.3,1.6c0.3,1.1,1.2,1.9,2.4,2
			c1.3,0.2,2.4-0.4,3.4-1.2c0.9-0.8,2-1.3,3.2-1.3c1.8-0.1,4.5,0.6,5.6,2c0.9,1.2,1,2.8,1,4.3c0,1.4,0,2.7,0,4.1
			c0,1.2,0,2.5,0.6,3.6c0.6,1.1,1.8,1.9,3,1.5c1.4-0.4,2-2.3,3.4-2.6C443.7,142,444.8,142.8,445.2,143.7z"/>
		<path d="M458.7,139.2c-0.3,0.8-0.8,1.6-1.4,2.3l-5.4,6.5c-2.3,2.7-4.7,5.9-4.5,9.4c0.2-3.2,2.4-6.1,4.5-8.7l5.4-6.5
			c0.6-0.6,1.1-1.4,1.4-2.3c0.1-0.6,0.2-1.2,0.1-1.8C458.9,138.5,458.8,138.9,458.7,139.2z"/>
		<path d="M444.6,156.3c-0.1-0.3-0.1-0.6-0.2-0.9c0,0.5,0,1.1,0.2,1.6c0.4,1.2,1.7,2.2,2.9,1.7c0-0.2-0.1-0.5-0.1-0.7
			C446.3,158.4,445,157.4,444.6,156.3z"/>
	</g>
	<path class="st5" d="M390.1,386.1c0,0,1.7,3,7.9,0.4"/>
	<path class="st5" d="M442.6,386.9c0,0,5.4,6.3,12.1,2.1"/>
	<path class="st5" d="M458.2,312.3c0,0-3.8,2.4-3.9,3.7c-0.1,1.4,2-1,2-1L458.2,312.3z"/>
	<path class="st5" d="M459.7,330.4c-1.3,1.1-3,1.7-4.7,1.8c-2.8,0.1-2.6,3.8-0.7,2.7S459.7,330.4,459.7,330.4z"/>
	<path class="st5" d="M460.4,332.8c0,0-1.8,8.9-3.3,7.2"/>
	
		<linearGradient id="SVGID_4_" gradientUnits="userSpaceOnUse" x1="488.6347" y1="-12.9027" x2="488.6347" y2="280.5416" gradientTransform="matrix(-1 0 0 -1 647.71 387.86)">
		<stop  offset="0" style="stop-color:#808080;stop-opacity:0.25"/>
		<stop  offset="0.54" style="stop-color:#808080;stop-opacity:0.12"/>
		<stop  offset="1" style="stop-color:#808080;stop-opacity:0.1"/>
	</linearGradient>
	<path class="st26" d="M109.9,399.6c0,0,11.4,3.1,16.9-1c5.5-4.2,7.9-2.8,7.9-2.8s13.1-0.7,14.1-3.8c1.1-3.1-5-14.3-5-14.3
		c-0.4-1-1.1-2.3-1.4-2.3l0.1-4.7l0,0l1.9-19.8c4.4-11.2,0.1-25.7,0.1-25.7l-0.8-3.6c-0.4-2-0.2-4.1,0.7-6l7.9-15.9
		c0.4-1.1,0.9-2.1,1.5-3.1c0.5-0.9,1.2-2,2-3.4c0.2-0.4,0.5-0.8,0.8-1.2c1-1.5,2.1-3.2,3.5-5.1c3.5-4.9,5.4-11,6.3-15.5l0.4,1.4h0
		h0.1l0,0l0.1,0l0,0h0.2h0l0.2,0h0.1l2.4,31.1c0.1,12.1,4.6,18.8,4.6,18.8l-0.6,26.8c0.8,6.4-1,15-1.8,18.5l-1.9,4.3
		c-1.5,0.8-2.6,2.2-2.8,3.9c-0.4,3.2-3.8,10.1-3.8,10.1c-1.3,1.7-4.1,6.1-4.1,6.1s-1.3,4.3-0.5,5.9c0.8,1.6,7.7,1.5,7.7,1.5
		c7.9,1.7,14-2.5,13.6-5.4c-0.4-2.9,1.2-3.7,1.2-3.7c3.1-1,2.8-3.1,2.8-3.1c0.7-4.4-0.2-8.9-2.4-12.7l-0.5,1.2
		c-0.1-2.3,0.2-4.6,0.9-6.8l-0.3,0.2l-0.1,0.1h0c0.5-4.4,5.1-12.5,5.1-12.5c8.4-14.8,5.4-34.8,5.4-34.8l-1.3-6.2l-0.1-2.4
		c-0.2-5.6,0.2-11.3,1.3-16.8c0.5-2.5,0.9-5.4,1.3-8.7c0.8-6.9,3.2-14,4.3-17l0.3-0.1h0c0.5-0.1,0.9-0.2,1.4-0.2h0.1
		c0,0,0.3-1.5,0.5-3.9c0.1-1.6,0.2-3.6,0.2-5.9c0-7-1-13.9-3.1-20.5l0.3-0.4c0,0,0.6-0.8,1.7-2.2l0,0c2-2.6,5.2-6.5,9.1-10.9
		c7-7.9,4.9-15.9,4.9-15.9s-5-18.4-7.3-29.5c-1.3-6.3-3.7-10.6-5.5-13.1c0.4-1.7,0.6-3.5,0.7-5.3c0.1-3.3,0-6.7-1.4-9.6
		c-1.5-2.9-4.6-5.3-7.9-4.9c-0.5,0.1-1,0.1-1.4,0c-0.4-0.2-0.7-0.5-0.9-0.8c-1.9-2.6-2-6.2-1.4-9.4c0.6-3.2,1.8-6.3,2.4-9.5
		c0.5-3.2,0.3-6.8-1.7-9.3c-2.4-3-6.6-3.8-9.7-6.1c-2.2-1.6-3.8-3.8-6.2-5.2c-2.3-1.4-4.5-0.9-7-0.3c-4.2,0.9-8.3,1.3-12.3,3.1
		c-4.1,1.8-7.7,4.5-10.7,7.8c-1.1,1.1-1.9,2.3-2.4,3.8c-1,3.3,1,6.8,0.5,10.2c-0.3,2.4-1.7,4.5-2.8,6.7s-2,4.7-1.1,7
		c1.4,3.5,5.9,4.3,9.3,6.2c0.4,0.2,0.8,0.5,1.1,1c0.8,1.4-0.9,2.9-1.9,4.2c-0.6,0.7-1,1.6-1.2,2.5c-2.8,1.1-4.8,3.6-5.4,6.5
		c-1.1,5,0.6,11.4,2.1,15.5c-1.7,9.3,0.5,13,2.1,14.4c1.6,1.4,2.6,3.3,2.8,5.5v0.2c0.1,1.7,0.3,3.4,0.5,5.1l0,0
		c-0.1-0.4-0.1-0.8-0.1-1c-1.3,2.4-3.8,8.6-5.2,18.9c-0.3,2.2-0.7,4.4-1.3,6.6c-1,3.8-1.4,7.8-1.1,11.8l0.2,3.4
		c-0.2,0-0.5-0.1-0.7-0.2l1.7,3.2v5.4c0,2.4-0.5,4.9-1.3,7.1c-0.1,0.3-0.3,0.7-0.4,1c-0.4,0.9-0.7,1.9-0.6,2.9
		c-3.8,5.8-12.4,38.1-12.4,38.1c-4.7,10.6,0.4,17.4,0.4,17.4s2.5,29.5,2.9,31c0.5,1.5,1.5,19.5,1.5,19.5l0,0c0,0.5,0,1,0,1.4
		c-0.3-0.1-0.6-0.2-0.9-0.2c-4.1-0.2-5.2,6.2-5.2,6.2l-8.4,8c0,0-3.8-0.6-9.5,3.6C100.6,395.8,109.9,399.6,109.9,399.6z
		 M193.7,229.1L193.7,229.1l-0.3,0l0,0l-0.1,0.1l0,0l0,0l-3.9-13.7c-1-3.7-1.1-7.5-0.3-11.2l3-13.1l0,0v-3.1l9.5,25.3
		C202.3,216.9,196.6,225.2,193.7,229.1z"/>
	<path class="st27" d="M197.9,270.3c0,0-3.8,9.3-4.8,18.3c-0.4,3.2-0.8,6.2-1.3,8.6c-1,5.5-1.4,11-1.2,16.6l0.1,2.3l1.2,6.2
		c0,0,3,19.8-5.3,34.4c0,0-4.9,8.7-5,12.9l-3.3,1.3l-6.7-1.9c0,0,3.2-11.6,2.2-19.7l0.6-26.4c0,0-4.4-6.6-4.5-18.6l-2.6-32.8
		L197.9,270.3z"/>
	<path class="st27" d="M167.3,265.7c0,0-0.8,12.8-7.2,21.6c-6.3,8.8-7.7,12.6-7.7,12.6l-7.8,15.8c-0.9,1.8-1.2,3.9-0.7,5.9l0.8,3.5
		c0,0,4.2,14.3-0.1,25.4l-2,21.4h-11.9c0,0-1-17.8-1.4-19.3c-0.4-1.5-2.9-30.6-2.9-30.6s-5-6.8-0.4-17.2c0,0,10.4-39.1,13.2-38.5
		C142,266.9,167.3,265.7,167.3,265.7z"/>
	<g class="st15">
		<path d="M143.5,325.2l-0.8-3.5c-0.4-2-0.2-4.1,0.7-5.9l7.8-15.8c0,0,1.4-3.8,7.7-12.6c6.1-8.5,7.1-20.6,7.1-21.5l1.2-0.1
			c0,0-0.8,12.8-7.2,21.6c-6.3,8.8-7.7,12.6-7.7,12.6l-7.8,15.8c-0.9,1.8-1.2,3.9-0.7,5.9l0.8,3.5c0,0,4.2,14.3-0.1,25.4l-2,21.4
			h-1.2l2-21.4C147.8,339.4,143.5,325.2,143.5,325.2z"/>
	</g>
	<path class="st5" d="M180.4,369.6c0.1-4.1,5-12.9,5-12.9c8.3-14.6,5.3-34.4,5.3-34.4l-1.3-6.2l-0.1-2.3c-0.2-5.6,0.2-11.1,1.2-16.6
		c0.4-2.4,0.9-5.3,1.3-8.6c0.9-8.6,4.5-17.6,4.8-18.3l1.2,0c0,0-3.8,9.3-4.8,18.3c-0.4,3.2-0.8,6.2-1.3,8.6c-1,5.5-1.4,11-1.2,16.6
		l0.1,2.3l1.2,6.2c0,0,3,19.8-5.3,34.4c0,0-4.9,8.7-5,12.9l-3.3,1.3l-0.7-0.2L180.4,369.6z"/>
	<path class="st28" d="M176.6,369.4c1.8,0.7,3.9,0.5,5.5-0.7c-1.1,3.2-1.3,6.7-0.4,9.9c1.4,5.4-12.6-4.4-12.6-4.4l3-6.8
		C172,367.5,173.1,369.6,176.6,369.4z"/>
	<path class="st5" d="M177.6,369.7c1.6,0.3,3.2,0,4.5-1c-1.1,3.2-1.3,6.7-0.4,9.9c1.4,5.4-12.6-4.4-12.6-4.4l3-6.8
		c0,0,0.9,1.7,3.4,1.9C176.2,369.5,176.9,369.6,177.6,369.7z"/>
	<polygon class="st27" points="144.8,242.8 150.7,242.8 150.7,209.6 146.3,208.8 	"/>
	<polygon class="st24" points="144.8,242.8 150.7,242.8 150.7,209.6 146.3,208.8 	"/>
	<path class="st29" d="M173.3,372c0,0,3.7-0.2,5.3,3.1l2,1.6l1-2.3c2.2,3.8,3,8.2,2.3,12.6c0,0,0.3,2.1-2.8,3.1c0,0-1.6,0.8-1.2,3.6
		s-5.6,7.1-13.3,5.3c0,0-6.8,0.2-7.6-1.4c-0.8-1.6,0.5-5.8,0.5-5.8s2.8-4.4,4.1-6c0,0,3.3-6.8,3.7-10
		C167.7,372.5,171.3,370.2,173.3,372z"/>
	<path class="st28" d="M142.7,374.8l0.1-4.7c0,0-6.7,1.9-12.2-0.3c0,0,0.5,4.7-0.3,5.3c-0.8,0.6,2.5,6.7,2.5,6.7l3.7,3.8l6.3-2.3
		l1.7-5.4C144.5,378,143.2,374.8,142.7,374.8z"/>
	<path class="st5" d="M142.7,374.8l0.1-4.7c0,0-6.7,1.9-12.2-0.3c0,0,0.5,4.7-0.3,5.3c-0.8,0.6,2.5,6.7,2.5,6.7l3.7,3.8l6.3-2.3
		l1.7-5.4C144.5,378,143.2,374.8,142.7,374.8z"/>
	<path class="st29" d="M129.9,373.1c0,0,3.6,0.4,3.1,5s0.2,0,0.2,0s3.8,1.5,5.2,3.7s3.8-1.9,4-3.1c0.2-1.2,1.7-1.6,1.7-1.6
		s6,11.1,4.9,14.1c-1.1,3.1-13.9,3.8-13.9,3.8s-2.3-1.3-7.7,2.8c-5.4,4.1-16.6,1-16.6,1s-9.1-3.8-3.6-8c5.5-4.2,9.3-3.5,9.3-3.5
		l8.2-7.9C124.8,379.2,125.9,372.8,129.9,373.1z"/>
	<path class="st30" d="M172.6,110.9c2.3,1.4,3.9,3.6,6.1,5.2c3.1,2.2,7.2,3,9.6,6c2,2.5,2.3,6,1.7,9.2s-1.7,6.2-2.3,9.4
		c-0.6,3.2-0.5,6.7,1.4,9.3c0.2,0.4,0.5,0.6,0.9,0.8c0.5,0.1,0.9,0.1,1.4,0c3.2-0.4,6.3,1.9,7.8,4.8c1.4,2.9,1.6,6.3,1.4,9.5
		c-0.1,2.7-0.4,5.4-1.6,7.8c-2,4.1-6.1,6.6-10.2,8.5c-2.7,1.3-5.4,2.4-8.2,3.3c-1.9,0.6-3.9,1.2-5.9,0.9c-3.4-0.6-5.8-3.7-9-4.9
		c-2.6-1-5.6-0.6-8.4-0.4c-2.4,0.2-5.1,0.2-6.8-1.5c-2.1-2.3-1.2-5.9-0.1-8.8c-3.4-0.2-6.1-3.2-5.8-6.6c0.1-1.3,0.6-2.6,1.4-3.6
		c1-1.3,2.7-2.7,1.9-4.1c-0.3-0.4-0.6-0.7-1.1-0.9c-3.2-1.9-7.7-2.6-9.1-6.1c-0.9-2.2,0-4.8,1.1-6.9c1.1-2.1,2.5-4.2,2.8-6.6
		c0.4-3.4-1.5-6.8-0.5-10.1c0.5-1.4,1.3-2.7,2.3-3.7c2.9-3.2,6.5-5.9,10.5-7.7c3.9-1.8,7.9-2.2,12-3.1
		C168.2,110,170.3,109.5,172.6,110.9z"/>
	<path class="st27" d="M150.7,161.1c0,0-9.5-0.5-11.3,7.6c-1.8,8.1,3.9,19.8,3.9,19.8L150.7,161.1z"/>
	<path class="st24" d="M150.7,161.1c0,0-9.5-0.5-11.3,7.6c-1.8,8.1,3.9,19.8,3.9,19.8L150.7,161.1z"/>
	<path class="st27" d="M144.6,185.3l3.6,2.9l16.9,0.8l10.5-7.2l10.7-18.4c-6.5-1.7-9.2-6.2-10.2-10.4c-0.6-2.9-0.7-5.8-0.2-8.7
		c0,0-17.2-8.9-15.1,5c0.3,1.7,0.3,3.4,0.2,5.2c-1,8.1-8.9,6.6-8.9,6.6l-3,4.7l-3.5,11.5L144.6,185.3z"/>
	<path class="st5" d="M160.9,149.1c0.3,1.7,0.3,3.4,0.2,5.2c4.9,2.3,10.7,1.7,15.1-1.4c-0.6-2.9-0.7-5.8-0.2-8.7
		C175.9,144.2,158.7,135.3,160.9,149.1z"/>
	<circle class="st27" cx="167.3" cy="139.9" r="15.2"/>
	<path class="st17" d="M156.6,182.4c0.4,0,0.7,0.1,1.1,0.1c2,0.2,10.3,0.6,15.1-5c5.3-6.3,12.4-14.2,12.7-14.5l0,0l7.2,2.2
		c0,0-5.7-2-9.5,8.6c-1.7,4.6-0.2,9.7,3.7,12.6c1.4,1,3,1.7,4.7,2c0,0,0,0,0,0v4.6l0,0l-2.9,13c-0.8,3.7-0.7,7.5,0.3,11.1l4.5,15.9
		l0,0c-0.7,0.5-28.5,19.4-47.1,6.3l0,0c0.1-0.6,2.4-19.2,0.8-28.3c-0.4-2.3-0.7-4.7-0.8-7c0-0.1,0-0.1,0-0.2c-0.2-2.1-1.1-4-2.7-5.4
		c-1.7-1.5-3.9-5.5-1.7-16c0.6-2.6,1.4-5.2,2.5-7.6l6.2-14.1l0,0l5.7,0.1 M156.3,160.8c-0.5,0.6-7.2,8.9-7.9,14.3
		c-0.7,5.1-1.6,6.7,8.2,7.3L156.3,160.8z"/>
	<path class="st27" d="M197.4,167.6c0,0,5.6,4.8,7.8,15.8c2.2,10.9,7.1,29.1,7.1,29.1s2,7.9-4.8,15.8s-11.3,14-11.3,14l-4.5,6.6
		c-0.8,1.1-1.9,1.9-3.2,2.3c-2,0.5-5.2,0.9-7.9-0.6c-2.1-1.1-2.9-3.7-2-5.8l1-2.3c0,0-9.2,5.8-10,2.6c-0.8-3.2,10.7-6.4,10.7-6.4
		s9.5-1.6,11.5-6.1c0,0,10.2-13.2,9.4-17.7l-9.9-26.5c0,0-12.4-1.6-8.1-15.5C187.4,158.9,197.4,167.6,197.4,167.6z"/>
	<path class="st31" d="M138.3,267.6c0,0,22.6,4.5,27.9,3.9l0.6,1.9c0,0,8.6,1.9,28-1.2c1.3-0.2,2.6-0.4,3.9-0.7l0.5-0.1
		c0,0,0.3-1.4,0.5-3.9c0.5-5.6,0.6-16.3-3.3-27.3l-3.3-10c0,0-20.1,12.1-33.5,11c-1.2-0.1-2.4-0.2-3.6-0.2c-2.7-0.1-7,0-9.7-2.2
		l-5.8,1v16.4c0,2.4-0.4,4.8-1.3,7c-0.1,0.3-0.3,0.7-0.4,1C138.3,265.3,138.1,266.4,138.3,267.6z"/>
	<path class="st5" d="M166.8,268.3v5.1c0,0,9.9,2.2,32.4-1.9c0,0,0.3-1.4,0.5-3.9C192.7,268.7,173.7,271.4,166.8,268.3z"/>
	<path class="st5" d="M138.3,267.6c0,0,22.6,4.5,27.9,3.9l0.6,1.9v-5.1c-2.6,1.1-20.9-3.4-27.6-5c-0.1,0.3-0.3,0.7-0.4,1
		C138.3,265.3,138.1,266.4,138.3,267.6z"/>
	<path class="st32" d="M193.1,261.9l1.7,10.4c1.3-0.2,2.6-0.4,3.9-0.7c-0.5-3-1.7-10-1.4-11.1l-2.1-1.8L193.1,261.9z"/>
	<path class="st5" d="M193.3,261.6L195,272c1.3-0.2,2.6-0.4,3.9-0.7c-0.5-3-1.7-10-1.4-11.1l-2.1-1.8L193.3,261.6z"/>
	<g class="st33">
		<path d="M158.4,241.2c-1.2-0.1-2.4-0.2-3.6-0.2c-2.7-0.1-6.7,0-9.5-2l1-0.2c2.8,2.2,7,2.1,9.7,2.2c1.2,0,2.4,0.1,3.6,0.2
			c0.4,0,0.8,0.1,1.2,0.1C160,241.3,159.2,241.3,158.4,241.2z"/>
		<path d="M193.5,272.2c1.3-0.2,2.6-0.4,3.9-0.7l0.5-0.1c0,0,0.3-1.4,0.5-3.9c0.5-5.6,0.6-16.3-3.3-27.3l-3.1-9.5
			c0.7-0.4,1-0.6,1-0.6l3.3,10c3.9,11,3.7,21.8,3.3,27.3c-0.2,2.4-0.5,3.9-0.5,3.9l-0.5,0.1c-1.4,0.2-2.7,0.5-3.9,0.7
			c-9.1,1.4-15.7,1.8-20.3,1.7C180.8,273.9,187.2,273.3,193.5,272.2z"/>
		<path d="M165,271.5L165,271.5l-0.6,0.1C164.6,271.5,164.8,271.5,165,271.5z"/>
	</g>
	<ellipse class="st28" cx="195.9" cy="262.1" rx="0.9" ry="1.8"/>
	<path class="st27" d="M141.5,226.5c1.4-10.2,3.8-16.3,5.1-18.7c0,0.3,0.2,1.4,0.2,1.7c0.3,1.5,0,3.4,0.1,5.3l-1.3,23.1l1.7,7.2
		c1.6,5.7-4.3,1.2-4.3,1.2c-1.2,2.7-3.5,2.4-3.5,2.4l-0.3-4.1c-0.3-3.9,0.1-7.8,1-11.6C140.8,230.9,141.2,228.7,141.5,226.5z"/>
	<path class="st24" d="M141.5,226.5c1.4-10.2,3.8-16.3,5.1-18.7c0,0.3,0.2,1.4,0.2,1.7c0.3,1.5,0,3.4,0.1,5.3l-1.3,23.1l1.7,7.2
		c1.6,5.7-4.3,1.2-4.3,1.2c-1.2,2.7-3.5,2.4-3.5,2.4l-0.3-4.1c-0.3-3.9,0.1-7.8,1-11.6C140.8,230.9,141.2,228.7,141.5,226.5z"/>
	<path class="st27" d="M198.7,239c-1.1,1.4-1.7,2.2-1.7,2.2l-4.5,6.6c-0.8,1.1-1.9,1.9-3.2,2.3c-2,0.5-5.2,0.9-7.9-0.6
		c-2.1-1.1-2.9-3.6-2-5.8l1-2.3c0,0-9.2,5.8-10,2.6c-0.8-3.2,10.7-6.4,10.7-6.4s9.5-1.6,11.5-6.1c0,0,0.8-1.1,2-2.7"/>
	<path class="st32" d="M193.1,250.1c0,0-10.9-1.1-14.4-7.3l-1.6,5.2c0,0,11.5,7.9,14.1,6.9L193.1,250.1z"/>
	<path class="st5" d="M192.7,250c0,0-10.9-1.1-14.4-7.3l-1.6,5.1c0,0,11.5,7.9,14.1,6.9L192.7,250z"/>
	<path class="st32" d="M143.4,247.1c0,0-3.8,1.4-4.6,0.6l1.7,3.2l3.2-2.5L143.4,247.1z"/>
	<path class="st5" d="M143.4,247.1c0,0-3.8,1.4-4.6,0.6l1.7,3.2l3.2-2.5L143.4,247.1z"/>
	<polygon class="st5" points="166.8,268.3 166.8,261.7 165.2,268.4 	"/>
	<path class="st5" d="M182.3,131.8c-0.9,1.3-2.5,2-4.1,2.2c-1.6,0.2-3.2,0-4.8,0c-2.5,0-5.1,0.3-7.2,1.8c-1.3,0.9-2.3,2.2-3.3,3.5
		c-3.1,3.8-7.4,7.3-12.2,6.9c-0.9,0-1.7-0.3-2.3-1c-0.4-0.6-0.6-1.3-0.6-2.1c-0.2-3.1-0.1-6.2,0.3-9.3c0.2-1.9,0.7-3.8,1.4-5.5
		c0.9-1.8,2-3.4,3.4-4.8c1.7-1.9,3.7-3.5,5.9-4.7c2.3-1.2,4.9-1.5,7.4-1c2.9,0.8,5.2,3.1,7.9,4.2
		C177.3,123.4,185.7,126.9,182.3,131.8z"/>
	<path class="st30" d="M182.3,131.2c-0.9,1.3-2.5,2-4.1,2.2s-3.2,0-4.8,0c-2.5,0-5.1,0.3-7.2,1.8c-1.3,0.9-2.3,2.2-3.3,3.5
		c-3.1,3.8-7.4,7.3-12.2,6.9c-0.9,0-1.7-0.3-2.3-1c-0.4-0.6-0.6-1.3-0.6-2.1c-0.2-3.1-0.1-6.2,0.3-9.3c0.2-1.9,0.7-3.8,1.4-5.5
		c0.9-1.8,2-3.4,3.4-4.8c1.7-1.9,3.7-3.5,5.9-4.7c2.3-1.2,4.9-1.5,7.4-1c2.9,0.8,5.2,3.1,7.9,4.2
		C177.3,122.8,185.7,126.3,182.3,131.2z"/>
	<polygon class="st27" points="146.3,238.8 146.3,240.6 145.9,238.8 	"/>
	<polygon class="st24" points="146.3,238.8 146.3,240.6 145.9,238.8 	"/>
	<g class="st33">
		<path d="M184.7,171.8c-4.2,13.9,8.1,15.5,8.1,15.5l9.9,26.5c0.8,4.5-9.4,17.7-9.4,17.7c-0.7,1.7-2.5,3-4.4,3.9
			c1.1-0.7,2-1.7,2.6-2.9c0,0,10.2-13.1,9.4-17.7l-9.9-26.5c0,0-12.3-1.6-8.1-15.5c1.4-4.6,3.5-6.8,5.6-7.5
			C187.1,166.5,185.7,168.5,184.7,171.8z"/>
	</g>
	<g class="st15">
		<path d="M184.9,184.4c0.6,0.7,1.2,1.4,2,1.9c1.4,1,3,1.7,4.7,2c0,0,0,0,0,0v0.5c-1.5-0.3-3-1-4.3-1.9
			C186.4,186.2,185.6,185.4,184.9,184.4z"/>
		<path d="M146.7,204.3c0,0.1,0,0.1,0,0.2c0.2,2.4,0.4,4.7,0.9,7.1c1.5,8.6-0.5,25.7-0.7,28c-0.2-0.1-0.3-0.2-0.5-0.3l0,0
			c0.1-0.6,2.4-19.2,0.8-28.3c-0.4-2.3-0.7-4.7-0.8-7c0-0.1,0-0.1,0-0.2c-0.1-1.4-0.6-2.7-1.3-3.8
			C146,201.2,146.6,202.7,146.7,204.3z"/>
		<path d="M155.9,161.3l-4.9-0.1c0,0,0,0,0,0l-6.2,14.1c-1.1,2.4-1.9,5-2.5,7.6c-1.8,8.5-0.7,12.8,0.7,14.9c-1.6-1.8-3.2-6-1.2-15.5
			c0.6-2.6,1.4-5.2,2.5-7.6l6.3-14.1l0,0l5.7,0.1 M156.3,160.8c0,0.1-0.2,0.2-0.4,0.5L156.3,160.8z"/>
		<path d="M192.6,165.1L192.6,165.1L192.6,165.1z"/>
		<path d="M190.8,165l-4.9-1.5 M185.9,163.6c-0.3,0.3-7.4,8.1-12.7,14.5c-4.7,5.7-13.1,5.2-15.1,5c-0.4,0-0.7-0.1-1.1-0.1
			c-5.4-0.3-7.6-1-8.3-2.4c1,1,3.3,1.5,7.9,1.8c0.4,0,0.7,0.1,1.1,0.1c2,0.2,10.3,0.6,15.1-5c5.3-6.3,12.4-14.2,12.7-14.5l0,0
			l7.1,2.2c-0.6-0.1-1.2-0.2-1.7-0.1L185.9,163.6z"/>
	</g>
	<path class="st5" d="M133,380.3c0,0-6.9,1.9-8.2-1.1"/>
	<path class="st5" d="M176.7,378.9c0,0-8,2.1-9.8-1.1"/>
	<ellipse class="st0" cx="96.6" cy="359.7" rx="13.4" ry="2.3"/>
	<ellipse class="st0" cx="43.7" cy="391.8" rx="13.4" ry="2.3"/>
	<ellipse class="st23" cx="29.8" cy="363" rx="20" ry="3.4"/>
	<path class="st23" d="M21.5,357.5c-0.9-0.7-1.6-1.7-1.9-2.9c-0.2-1.1,0.2-2.5,1.3-2.9c1.2-0.5,2.5,0.4,3.5,1.2s2.1,1.8,3.4,1.7
		c-1.4-1.2-2-3.1-1.6-4.9c0.1-0.4,0.2-0.7,0.4-1c0.7-0.7,1.9-0.4,2.7,0.2c2.6,1.8,3.3,5.3,3.3,8.5c0.3-1.1,0-2.3,0-3.5
		c0-1.2,0.3-2.5,1.3-3.1c0.6-0.3,1.3-0.5,2-0.5c1.2,0,2.5,0.1,3.3,0.9c1,1.1,0.7,2.8-0.1,4s-2.2,1.9-3.4,2.7c-1,0.6-1.8,1.4-2.4,2.3
		c-0.1,0.1-0.1,0.3-0.2,0.4H26C24.4,359.8,22.8,358.7,21.5,357.5z"/>
	<ellipse class="st34" cx="513.9" cy="378.6" rx="13.4" ry="2.3"/>
	<path class="st35" d="M504.9,368.1c0,0,7.7-0.2,10-1.9c2.3-1.6,11.8-3.6,12.3-1c0.6,2.6,11.5,13.1,2.9,13.2
		c-8.6,0.1-20.1-1.3-22.4-2.8S504.9,368.1,504.9,368.1z"/>
	<path class="st36" d="M530.2,377.5c-8.6,0.1-20.1-1.3-22.4-2.8c-1.8-1.1-2.5-4.9-2.7-6.7h-0.3c0,0,0.5,6.2,2.8,7.6
		c2.3,1.4,13.7,2.8,22.4,2.8c2.5,0,3.4-0.9,3.3-2.2C533,377,532,377.5,530.2,377.5z"/>
</g>
</svg>
