<?xml version="1.0" encoding="utf-8"?>
<!-- Generator: Adobe Illustrator 25.0.1, SVG Export Plug-In . SVG Version: 6.00 Build 0)  -->
<svg version="1.1" id="Layer_1" xmlns="http://www.w3.org/2000/svg" xmlns:xlink="http://www.w3.org/1999/xlink" x="0px" y="0px"
	 viewBox="0 0 586 575" style="enable-background:new 0 0 586 575;" xml:space="preserve">
<style type="text/css">
	.st0{opacity:0.1;fill:#48BA13;enable-background:new    ;}
	.st1{fill:#FFFFFF;stroke:#E6E6E6;stroke-miterlimit:10;}
	.st2{fill:#3F3D56;}
	.st3{fill:#7AC943;}
	.st4{fill:#A0616A;}
	.st5{fill:#2F2E41;}
	.st6{fill:#FFC914;}
</style>
<g>
	<path class="st0" d="M0.1,261.7c1.7,19.6,12.9,37.4,19.7,56.1c9.6,26.6,10.5,55.5,2.6,82.6c-1.6,5.6-3.6,11.2-3.6,16.9
		c0,19.7,22.4,32.7,42.8,41.4c51.7,22,105.7,38.3,161,48.6c18.1,3.4,40.6,4.9,52.1-7.9c5.5-6.2,6.8-14.2,10.8-21.1
		c10.3-17.6,35.3-24.5,57.7-28.4c27.1-4.7,54.4-7.9,81.8-9.4c27.6-1.6,59-2.9,77.3-21c11.6-11.5,15-27.4,15.5-42.5
		c1.5-49.3-22-102.6,8.2-145.3c12.7-17.9,33.4-31,45.9-48.9c18.2-26,16.6-59,4.3-86.8c-12.3-27.7-34.2-51.3-55.7-74.4
		c-7.2-7.6-14.7-15.6-25.4-19.1c-11.1-3.7-23.7-2-35.7-0.3C405,10.1,348.7,18.7,303.2,45.9c-22.6,13.5-41.5,31-61.6,47.1
		c-43.5,34.8-94,67-151.5,80.7C43.4,184.9-4.2,215,0.1,261.7z"/>
	<path class="st1" d="M495.7,555.6H135.5V95.1c0,0,382.4-35.2,360.2,0C473.5,130.3,495.7,555.6,495.7,555.6z"/>
	<polygon class="st2" points="496.5,556.4 134.8,556.4 134.8,94.3 350.2,94.3 350.2,95.8 136.3,95.8 136.3,554.8 494.9,554.8 
		494.9,189.7 496.5,189.7 	"/>
	<path class="st2" d="M398.6,214.3c-10,0-20.8-2.1-30.5-8.2c-28.4-17.9-55.6-0.2-55.9,0l-0.1,0.1c-0.3,0.1-17.1,8.2-36.9,8.2
		c-10,0-20.8-2.1-30.5-8.2c-28.4-17.9-55.6-0.2-55.9,0l-0.9-1.3c0.3-0.2,28.3-18.5,57.5,0c28,17.7,64.5,0.7,65.9,0
		c1.3-0.9,28.9-18.1,57.5,0c28.4,18,65.6,0.1,65.9,0l0.7,1.4C435.3,206.2,418.4,214.3,398.6,214.3z"/>
	<path class="st2" d="M398.6,251.1c-10,0-20.8-2.1-30.5-8.2c-28.4-17.9-55.6-0.2-55.9,0l-0.1,0.1c-0.3,0.1-17.1,8.2-36.9,8.2
		c-10,0-20.8-2.1-30.5-8.2c-28.4-17.9-55.6-0.2-55.9,0l-0.9-1.3c0.3-0.2,28.3-18.5,57.5,0c28,17.7,64.5,0.7,65.9,0
		c1.3-0.9,28.9-18.1,57.5,0c28.4,18,65.6,0.1,65.9,0l0.7,1.4C435.3,243,418.4,251.1,398.6,251.1z"/>
	<path class="st2" d="M398.6,287.9c-10,0-20.8-2.1-30.5-8.2c-28.4-17.9-55.6-0.2-55.9,0l-0.1,0.1c-0.3,0.1-17.1,8.2-36.9,8.2
		c-10,0-20.8-2.1-30.5-8.2c-28.4-17.9-55.6-0.2-55.9,0l-0.9-1.3c0.3-0.2,28.3-18.5,57.5,0c28,17.7,64.5,0.7,65.9,0
		c1.3-0.9,28.9-18.1,57.5,0c28.4,18,65.6,0.1,65.9,0l0.7,1.4C435.3,279.8,418.4,287.9,398.6,287.9z"/>
	<path class="st2" d="M282.5,324.7c-0.3,0-0.6,0-0.9,0c-5-0.3-9.5-3.2-13.2-8.5c-3.7-5.3-7.7-7.9-11.9-7.8c-7,0.1-12.2,7.8-12.2,7.8
		l-0.1,0.1c-0.3,0.4-8.3,9-17.8,8.4c-5-0.3-9.5-3.2-13.2-8.5c-3.7-5.3-7.7-7.9-11.9-7.8c-7,0.1-12.2,7.8-12.2,7.8l-1.3-0.9
		c0.2-0.3,5.7-8.4,13.5-8.5c4.7-0.1,9.1,2.8,13.1,8.5c3.5,4.9,7.5,7.5,12.1,7.8c8.4,0.5,16-7.2,16.5-7.9c0.5-0.8,5.9-8.4,13.5-8.5
		c0,0,0.1,0,0.1,0c4.6,0,9,2.9,13,8.5c3.5,4.9,7.5,7.5,12.1,7.8c8.7,0.6,16.5-7.8,16.6-7.9l1.1,1C299,316.6,291.5,324.7,282.5,324.7
		z"/>
	<polygon class="st2" points="351.6,470.6 279.6,470.6 279.6,421.5 334.8,421.5 334.8,423 281.1,423 281.1,469 350.1,469 350.1,446 
		351.6,446 	"/>
	<path class="st3" d="M180,147.2c-5.1,0-9.2-4.1-9.2-9.2c0-5.1,4.1-9.2,9.2-9.2c5.1,0,9.2,4.1,9.2,9.2l0,0
		C189.2,143.1,185.1,147.2,180,147.2z M180,130.3c-4.2,0-7.7,3.4-7.7,7.7c0,4.2,3.4,7.7,7.7,7.7c4.2,0,7.7-3.4,7.7-7.7v0
		C187.6,133.7,184.2,130.3,180,130.3L180,130.3z"/>
	<polygon class="st3" points="334.4,453.8 316.2,428.7 321.2,425.1 335.1,444.3 388.5,389.5 392.9,393.8 	"/>
	<path class="st4" d="M402.6,254.1c0,0,9.2,23.8-7.7,23.8c-16.9,0,26.1,23.8,42.9,10c16.9-13.8,6.9-14.6,6.9-14.6
		s-22.2,2.3-21.5-17.6L402.6,254.1z"/>
	<circle class="st5" cx="413" cy="231.7" r="29.9"/>
	<path class="st5" d="M398,352.9L368.9,428c0,0-14.6,23-9.2,46c5.4,23,17.6,64.4,17.6,64.4s13.8-5.4,13-15.3s6.1-45.2-5.4-58.2
		l40.6-57.5l1.5,60.5c0,0-3.1,27.6-2.3,39.8c0.8,12.3,2.3,33,2.3,33l9.2-1.5c0,0,16.1-56.7,14.6-75.1c0,0,29.1-89.7,0-111.1
		L398,352.9z"/>
	<path class="st5" d="M379.6,534.5c0,0-6.9,0-6.1,6.1c0.8,6.1-6.1,36,8.4,33.7c14.6-2.3,16.1-16.9,16.1-26.8c0-10,0.8-10.7,2.3-13
		c1.5-2.3,6.1-22.2,0-21.5c-6.1,0.8-13,4.6-13,4.6S389.6,534.5,379.6,534.5z"/>
	<path class="st5" d="M431.7,534.5c0,0-10.7-1.5-10,2.3s-1.5,19.9,0,21.5s4.6,4.6,4.6,6.9c0,2.3,0.8,10,13.8,7.7s10-13.8,9.2-15.3
		c-0.8-1.5-10-9.2-9.2-13.8C440.9,539.1,436.3,531.5,431.7,534.5z"/>
	<circle class="st4" cx="413.3" cy="244.1" r="20.7"/>
	<path class="st6" d="M432.9,271.3c0,0,6.6,13.1-13.5,13.3c-6.3,0.1-12.4-5.4-16.4-10.3c-1.4-1.7-2,1.8-4.6,1.5
		c-6.9-0.8-25.7,0.4-25.7,12.6c0,12.3,21.5,59,19.9,63.6c-1.5,4.6-9.2,3.8,0,6.9c9.2,3.1,27.6-4.6,39.8,1.5
		c12.3,6.1,23.8-9.2,23.8-9.2l18.4-65.9C474.6,285.5,446.7,268.3,432.9,271.3z"/>
	<path class="st4" d="M379.6,395.1c0,0-19.2,15.3-10.7,20.7s18.4-20.7,18.4-20.7H379.6z"/>
	<path class="st4" d="M453.2,339.9c0,0-25.3,10-16.9,15.3c8.4,5.4,16.9-9.2,16.9-9.2V339.9z"/>
	<path class="st6" d="M380.4,280.9L380.4,280.9c-5.8,2.1-9.6,7.5-9.7,13.6l-1,58.4c0,0-4.6,47.5,6.9,47.5s19.9,3.8,21.5,0
		c1.5-3.8-5.4-38.3-5.4-38.3L380.4,280.9z"/>
	<path class="st6" d="M460.1,283.2l14.6,2.3c0,0,40.6,19.9,31.4,33.7c-9.2,13.8-48.3,33.7-48.3,33.7s-14.6-6.9-10-11.5
		c4.6-4.6,25.3-20.7,25.3-20.7l-17.6-16.1L460.1,283.2z"/>
	<polygon class="st5" points="432.7,228.2 417.5,220.3 396.6,223.5 392.3,242.6 403,242.2 406,235.2 406,242.1 411,241.9 
		413.9,230.7 415.7,242.6 433.4,242.3 	"/>
	<circle class="st5" cx="414.5" cy="197.6" r="12.1"/>
	<path class="st5" d="M399.3,193.9c0-5.9,4.3-11,10.2-11.9c-6.6-1-12.7,3.5-13.7,10.1s3.5,12.7,10.1,13.7c1.2,0.2,2.4,0.2,3.6,0
		C403.7,204.9,399.3,199.9,399.3,193.9z"/>
	<path class="st2" d="M179.8,529.8c4.3,16.1,19.2,26,19.2,26s7.8-16.1,3.5-32.2c-4.3-16.1-19.2-26-19.2-26S175.5,513.8,179.8,529.8z
		"/>
	<path class="st3" d="M186.2,526.4c11.9,11.6,13.4,29.5,13.4,29.5s-17.9-1-29.8-12.6s-13.4-29.5-13.4-29.5S174.3,514.8,186.2,526.4z
		"/>
</g>
</svg>
