<?xml version="1.0" encoding="utf-8"?>
<!-- Generator: Adobe Illustrator 25.0.1, SVG Export Plug-In . SVG Version: 6.00 Build 0)  -->
<svg version="1.1" id="Layer_1" xmlns="http://www.w3.org/2000/svg" xmlns:xlink="http://www.w3.org/1999/xlink" x="0px" y="0px"
	 viewBox="0 0 616 512" style="enable-background:new 0 0 616 512;" xml:space="preserve">
<style type="text/css">
	.st0{opacity:0.1;fill:#48BA13;}
	.st1{fill:#3A3768;}
	.st2{fill:url(#SVGID_1_);}
	.st3{fill:#E6E8EC;}
	.st4{opacity:0.9;fill:#8CC63F;enable-background:new    ;}
	.st5{opacity:0.9;fill:#48BA13;enable-background:new    ;}
	.st6{fill:#FFD037;}
	.st7{fill:#A8A8A8;}
	.st8{opacity:0.2;enable-background:new    ;}
	.st9{fill:url(#SVGID_2_);}
	.st10{fill:url(#SVGID_3_);}
	.st11{fill:#FFBDC6;}
	.st12{opacity:0.1;enable-background:new    ;}
	.st13{fill:#474463;}
	.st14{fill:#1A1A1A;}
	.st15{fill:#F2F1F2;}
	.st16{fill:#FFC914;}
	.st17{opacity:0.1;}
	.st18{opacity:0.7;fill:#48BA13;enable-background:new    ;}
	.st19{fill:#F2F2F2;}
</style>
<g>
	<path class="st0" d="M357.4,69.1c-39.4-1.4-77-14.1-112.9-28S173.1,11.7,134.6,4.4c-24.8-4.7-53.1-5.4-73,7.9
		C42.4,25,36.2,47.1,32.8,67.5c-2.5,15.4-4,31.6,2.9,46c4.8,10,13.2,18.4,19.1,28c20.4,33.3,6,74.5-16.1,107
		c-10.4,15.3-22.4,29.9-30.4,46.1s-11.7,34.9-4.7,51.5c6.9,16.5,23.5,28.8,41.4,37.5c36.4,17.6,79.2,22.7,121,25.5
		c92.5,6.3,185.6,3.6,278.3,0.8c34.3-1,68.8-2,102.6-7.4c18.8-2.9,38.1-7.6,51.7-18.9c17.3-14.3,21.6-38.6,10-56.6
		c-19.4-30.2-73.1-37.7-86.7-70c-7.5-17.8,0.2-37.7,11.1-54.2c23.3-35.4,62.4-66.5,64.4-107.1C598.8,68,580.1,40.2,551,27
		c-30.4-13.8-72.6-12.1-95.1,10.8C432.8,61.3,392.2,70.4,357.4,69.1z"/>
	<ellipse class="st0" cx="294.6" cy="477.2" rx="185.3" ry="25.1"/>
	<path class="st1" d="M393.1,177.9h2.6c0.8,0,1.4,0.6,1.4,1.4V221c0,0.8-0.6,1.4-1.4,1.4h-2.6c-0.8,0-1.4-0.6-1.4-1.4v-41.7
		C391.7,178.5,392.3,177.9,393.1,177.9z"/>
	<path class="st1" d="M213.6,143h0.2c0.8,0,1.4,0.6,1.4,1.4v11.9c0,0.8-0.6,1.4-1.4,1.4h-0.2c-0.8,0-1.4-0.6-1.4-1.4v-11.9
		C212.2,143.6,212.8,143,213.6,143z"/>
	<path class="st1" d="M213.5,169.8h0.6c0.8,0,1.4,0.6,1.4,1.4V194c0,0.8-0.6,1.4-1.4,1.4h-0.6c-0.8,0-1.4-0.6-1.4-1.4v-22.7
		C212.1,170.5,212.7,169.8,213.5,169.8z"/>
	<path class="st1" d="M213.6,204.3h0.5c0.8,0,1.4,0.6,1.4,1.4v22.9c0,0.8-0.6,1.4-1.4,1.4h-0.5c-0.8,0-1.4-0.6-1.4-1.4v-22.9
		C212.2,204.9,212.8,204.3,213.6,204.3z"/>
	<path class="st1" d="M237.7,94.6h133.1c13.1,0,23.8,10.6,23.8,23.8V438c0,13.1-10.6,23.8-23.8,23.8H237.7
		c-13.1,0-23.8-10.6-23.8-23.8V118.4C213.9,105.2,224.6,94.6,237.7,94.6z"/>
	
		<radialGradient id="SVGID_1_" cx="304.2625" cy="278.154" r="143.046" gradientTransform="matrix(1 0 0 1.863 0 -240.0351)" gradientUnits="userSpaceOnUse">
		<stop  offset="0" style="stop-color:#FFFFFF"/>
		<stop  offset="0.1222" style="stop-color:#FCFEFB"/>
		<stop  offset="0.2519" style="stop-color:#F2FAEE"/>
		<stop  offset="0.3851" style="stop-color:#E1F4D9"/>
		<stop  offset="0.5208" style="stop-color:#CAEBBB"/>
		<stop  offset="0.6585" style="stop-color:#ACE095"/>
		<stop  offset="0.7976" style="stop-color:#88D266"/>
		<stop  offset="0.9354" style="stop-color:#5EC22F"/>
		<stop  offset="1" style="stop-color:#48BA13"/>
	</radialGradient>
	<path class="st2" d="M369.1,104.1h-20.7v2.5c0,6.5-5.3,11.8-11.8,11.8c0,0,0,0,0,0h-65.9c-6.5,0-11.8-5.3-11.8-11.8c0,0,0,0,0,0
		v-2.5h-19.4c-7.9,0-14.3,6.4-14.3,14.3v0v319.3c0,7.9,6.4,14.3,14.3,14.3h129.7c7.9,0,14.3-6.4,14.3-14.3V118.5
		C383.4,110.6,377,104.2,369.1,104.1C369.1,104.1,369.1,104.1,369.1,104.1z"/>
	<path class="st3" d="M289.2,105.6h20.5c1.3,0,2.4,1.1,2.4,2.4v0.4c0,1.3-1.1,2.4-2.4,2.4h-20.5c-1.3,0-2.4-1.1-2.4-2.4v-0.4
		C286.8,106.6,287.9,105.6,289.2,105.6z"/>
	<circle class="st3" cx="318.8" cy="108.1" r="2.9"/>
	<path class="st4" d="M457.1,78.5c0,0-51.3-3.1-45.3,32.9c0,0-1.2,6.4,4.6,9.2c0,0,0.1-2.7,5.3-1.8c1.8,0.3,3.7,0.4,5.6,0.3
		c2.5-0.2,4.9-1.1,6.8-2.8l0,0c0,0,14.4-6,20-29.5c0,0,4.2-5.1,4-6.5l-8.7,3.7c0,0,3,6.2,0.6,11.4c0,0-0.3-11.2-1.9-11
		c-0.3,0-4.5,2.2-4.5,2.2s5.1,10.9,1.2,18.8c0,0,1.5-13.4-2.8-18l-6.1,3.6c0,0,5.9,11.2,1.9,20.4c0,0,1-14.1-3.2-19.5l-5.5,4.3
		c0,0,5.6,11.1,2.2,18.7c0,0-0.4-16.4-3.4-17.6c0,0-4.8,4.3-5.6,6c0,0,3.8,8,1.5,12.3c0,0-1.5-10.9-2.7-11c0,0-4.8,7.2-5.3,12.2
		c0,0,0.2-7.4,4.2-12.9c0,0-4.7,0.8-7.4,3.8c0,0,0.7-5.1,8.6-5.6c0,0,4-5.5,5-5.8c0,0-7.8-0.7-12.5,1.4c0,0,4.1-4.8,13.9-2.6
		l5.5-4.5c0,0-10.2-1.4-14.6,0.1c0,0,5-4.3,16-1.2l5.9-3.5c0,0-8.7-1.9-13.9-1.2c0,0,5.5-3,15.7,0.2l4.3-1.9c0,0-6.4-1.3-8.3-1.5
		c-1.9-0.2-2-0.7-2-0.7c4-0.7,8.2-0.2,12,1.3C448.3,82.4,457.3,79.1,457.1,78.5z"/>
	<path class="st4" d="M404.5,62.5c0,0-23.2-1.4-20.5,14.9c0,0-0.5,2.9,2.1,4.2c0,0,0-1.2,2.4-0.8c0.8,0.1,1.7,0.2,2.5,0.1
		c1.1-0.1,2.2-0.5,3.1-1.3l0,0c0,0,6.5-2.7,9.1-13.3c0,0,1.9-2.3,1.8-2.9L401,65c0,0,1.3,2.8,0.3,5.2c0,0-0.1-5.1-0.9-4.9
		c-0.2,0-2,1-2,1s2.3,4.9,0.6,8.5c0,0,0.7-6.1-1.3-8.1l-2.8,1.6c0,0,2.7,5.1,0.9,9.2c0,0,0.5-6.4-1.4-8.8l-2.5,2c0,0,2.5,5,1,8.4
		c0,0-0.2-7.4-1.5-8c0,0-2.2,1.9-2.5,2.7c0,0,1.7,3.7,0.7,5.6c0,0-0.7-4.9-1.2-5c0,0-2.2,3.3-2.4,5.5c0.1-2.1,0.8-4.1,1.9-5.8
		c-1.3,0.2-2.4,0.8-3.3,1.7c0,0,0.3-2.3,3.9-2.5c0,0,1.8-2.5,2.3-2.6c0,0-3.5-0.3-5.6,0.7c0,0,1.9-2.2,6.3-1.2l2.4-2
		c0,0-4.6-0.6-6.6,0.1c0,0,2.3-1.9,7.2-0.5l2.7-1.6c0,0-3.9-0.8-6.3-0.5c0,0,2.5-1.3,7.1,0.1l1.9-0.9c0,0-2.9-0.6-3.7-0.7
		c-0.8-0.1-0.9-0.3-0.9-0.3c1.8-0.3,3.7-0.1,5.4,0.6C400.4,64.3,404.5,62.8,404.5,62.5z"/>
	<ellipse class="st0" cx="526.6" cy="472.6" rx="16.4" ry="2.8"/>
	<ellipse class="st0" cx="55.4" cy="495.3" rx="16.4" ry="2.8"/>
	<ellipse class="st0" cx="118.9" cy="510.2" rx="16.4" ry="2.8"/>
	<ellipse class="st5" cx="490.6" cy="502.3" rx="24.5" ry="4.1"/>
	<path class="st5" d="M500.8,495.5c1.1-0.9,1.9-2.1,2.3-3.5c0.3-1.4-0.3-3-1.6-3.6c-1.5-0.6-3.1,0.5-4.3,1.5c-1.2,1-2.6,2.2-4.2,2
		c1.7-1.5,2.4-3.8,2-6c-0.1-0.4-0.3-0.9-0.6-1.2c-0.8-0.9-2.3-0.5-3.3,0.2c-3.2,2.2-4.1,6.5-4.1,10.4c-0.3-1.4,0-2.9-0.1-4.3
		s-0.4-3-1.6-3.8c-0.7-0.4-1.6-0.6-2.4-0.6c-1.4-0.1-3,0.1-4,1.1c-1.2,1.3-0.9,3.5,0.2,4.9c1,1.4,2.7,2.3,4.1,3.3
		c1.2,0.7,2.2,1.7,2.9,2.8c0.1,0.2,0.2,0.3,0.2,0.5h8.9C497.3,498.3,499.1,497,500.8,495.5z"/>
	<path class="st5" d="M119.8,442c0,0,3.4,4.4-1.5,11c-4.9,6.6-8.9,12.2-7.3,16.3c0,0,7.4-12.3,13.4-12.5
		C130.3,456.7,126.4,449.4,119.8,442z"/>
	<path class="st6" d="M126,447.6c0,1.5-0.2,2.8-0.4,2.8c-0.2,0-0.4-1.2-0.4-2.8c0-1.5,0.2-0.8,0.4-0.8S126,446.1,126,447.6z"/>
	<path class="st6" d="M128.1,449.5c-1.4,0.7-2.5,1.2-2.6,1c-0.1-0.2,0.9-0.9,2.3-1.7c1.4-0.7,0.8-0.2,0.9,0
		C128.8,449,129.5,448.7,128.1,449.5z"/>
	<path class="st5" d="M102.1,442c0,0-3.4,4.4,1.5,11c4.9,6.6,8.9,12.2,7.3,16.3c0,0-7.4-12.3-13.4-12.5
		C91.5,456.7,95.4,449.4,102.1,442z"/>
	<path class="st6" d="M95.8,447.6c0,1.5,0.2,2.8,0.4,2.8c0.2,0,0.4-1.2,0.4-2.8c0-1.5-0.2-0.8-0.4-0.8
		C96,446.8,95.8,446.1,95.8,447.6z"/>
	<path class="st6" d="M93.7,449.5c1.4,0.7,2.5,1.2,2.6,1c0.1-0.2-0.9-0.9-2.3-1.7c-1.4-0.7-0.8-0.2-0.9,0
		C93.1,449,92.4,448.7,93.7,449.5z"/>
	<path class="st7" d="M96.9,468.8c0,0,9.4-0.3,12.2-2.3s14.4-4.4,15.1-1.2s14.1,16,3.5,16.1s-24.6-1.6-27.4-3.4
		S96.9,468.8,96.9,468.8z"/>
	<path class="st8" d="M127.9,480.3c-10.6,0.1-24.6-1.6-27.4-3.4c-2.1-1.3-3-6-3.3-8.2h-0.3c0,0,0.6,7.5,3.4,9.3
		c2.8,1.7,16.8,3.4,27.4,3.4c3,0,4.1-1.1,4-2.7C131.3,479.7,130.2,480.3,127.9,480.3z"/>
	
		<linearGradient id="SVGID_2_" gradientUnits="userSpaceOnUse" x1="267.4721" y1="211.3856" x2="267.4721" y2="211.5441" gradientTransform="matrix(1 0 0 -1 -95.23 483.82)">
		<stop  offset="0" style="stop-color:#808080;stop-opacity:0.25"/>
		<stop  offset="0.54" style="stop-color:#808080;stop-opacity:0.12"/>
		<stop  offset="1" style="stop-color:#808080;stop-opacity:0.1"/>
	</linearGradient>
	<path class="st9" d="M171.9,272.3c0.2,0.2,0.4,0.2,0.7,0.1C172.3,272.4,172.1,272.3,171.9,272.3z"/>
	
		<linearGradient id="SVGID_3_" gradientUnits="userSpaceOnUse" x1="258.0165" y1="127.4462" x2="258.0165" y2="369.1759" gradientTransform="matrix(1 0 0 -1 -95.23 483.82)">
		<stop  offset="0" style="stop-color:#808080;stop-opacity:0.25"/>
		<stop  offset="0.54" style="stop-color:#808080;stop-opacity:0.12"/>
		<stop  offset="1" style="stop-color:#808080;stop-opacity:0.1"/>
	</linearGradient>
	<path class="st10" d="M244.9,151c-1.3-0.4-3.1-1-5.3-1.8c2.3-3,4-6.4,4.9-10.1l-0.2,0.1c0.1-0.2,0.1-0.4,0.2-0.7
		c-4.2,1.7-8.9-1.2-11.9-5s-5-8.5-8.3-12c-1.4-1.4-2.8-2.7-4.4-3.8c-1-0.8-2-1.5-3.2-1.6c-1.9-0.1-3.4,1.8-5.2,2.4
		c-1.2,0.3-2.5,0.2-3.7-0.1c-4.7-1.1-9.3-3.1-14.1-3.7c-2.6-0.3-5.2,0-7.7,0.9c-2.4,0.9-3.5,2.8-5.5,4.3c-2.1,1.6-6.3,1.6-8.8,1.8
		c-3,0.3-6.1,0.5-9.1,0.4c-1.7-0.2-3.5-0.1-5.2,0.2c-3.6,0.8-6.5,3.7-9.2,6.5c-0.7,0.6-1.3,1.5-1.5,2.4c0,0.3,0,0.5,0,0.8
		c0,0.7,0.1,1.5,0.4,2.1c0.8,2.5,2,4.9,3.5,7.1c1.1,1.6,2.4,3.1,3,5c0.3,0.9,0.5,1.9,0.5,2.9c0,1-0.1,2.1-0.3,3.1
		c-0.5,2.8-1.3,5.6-2.3,8.3c-0.6,1.4-1.2,2.8-1.4,4.4c0,0.3,0,0.6,0,0.9c-0.2,4.8,4.6,8.2,5.5,13c0.1,0.4,0.1,0.8,0.1,1.2
		c-0.1,3-1.8,5.9-4.2,7c0.2,0.1,0.4,0.2,0.7,0.2c-0.2,0.1-0.4,0.3-0.7,0.4c0.4,0.2,0.9,0.3,1.4,0.5c-2.8,2.5-5.2,5.4-7,8.6
		c-8.2,15.6-64.1,46.1-64.1,46.1s0.3,0.2,0.8,0.5c-0.2,0.1-0.4,0.3-0.7,0.4c-4.8,3.3-16.2,12.8-5.9,24.8c0,0,8-12.8,13.6-18.3
		c0.3-0.2,0.5-0.5,0.7-0.7c0.3,0.4,0.3,0.9,0.2,1.3l36.8-20.9c0,0,13.1-9.3,16.7-11.4c1.3-0.7,4.5-2.7,8.3-3.6l-0.4,0.2
		c1.4-0.4,2.8-0.6,4.2-0.6c6.5,0.1,13.6,4.9,15.9,24.1c3.1,25.6,1.7,30.3,0.7,30.9c-0.1,0-0.2,0-0.4-0.1c0,0,0.1,0.1,0.1,0.1
		c-0.1,0-0.3,0-0.4-0.1c0.1,0.1,0.3,0.2,0.5,0.1c0.1,0,0.3,0,0.4,0l0,0l0,0c0.1,0,0.3,0,0.5,0c0,0.2,0,0.5-0.1,0.7
		c0,0-0.3,0.1,0,0.2l0,0c-0.1,1.4-0.1,3,0,4.7c-3.2,0.2-6.5,0.4-9.3,0.6l0.3-1.4l0.1-0.6c2.5-0.2,4.8-0.9,5.1-3
		c0.6-4.5-5.5-6.9-10.6-7.2c-5.1-0.3-36.2,1.8-36.2,1.8s-4.7,6.1,10.1,8c0.4,0.2,0.9,0.5,1.4,0.8c5.8,3.3,13.6,9.5,17.4,12.5
		l0.5,0.4l-1.7,1.4c9.1,2.1,17.9,37.4,22.8,53.6s15.5,15.6,24.3,13.2c8.3-2.2,9.3-26.6,9.4-29.6c0-0.2,0-0.3,0-0.3l14.7,18.4
		l1.1,1.4c0.4,0.2,0.9,0.4,1.3,0.6c11.1,5.4,23.4-4.9,19.9-16.6c-3.5-11.8-9-29.3-12.7-36.7c-3-6.2-7-16.5-9.4-22.9
		c0.3-0.1,0.6-0.3,0.9-0.4c0,0-0.1-0.3-0.2-0.8l0.2-0.1c0,0-3.5-18.6-3.7-31.8c0-0.2,0-0.5,0-0.7c0-0.2,0-0.3,0-0.4
		c2.7-0.6,4.3-0.9,4.3-0.9l0-0.6l-0.3,0.1l1.5-17.1c0,0,5.4-11.7,1.3-16.6c-1.3-1.4-2.1-3.2-2.4-5.1c-0.7-4.5,0-12,9.7-18.2
		c14.9-9.6,20.7-17.4,20.7-17.4S254.1,153.7,244.9,151z M215.4,162.9V155c2.8-0.1,5.6,0.2,8.4,0c1.4-0.1,2.7-0.3,4-0.7l0.7,0.5
		C224.4,157.9,220,160.6,215.4,162.9z M173.2,287.1c1.1,0.8,2.2,1.6,3.3,2.4c0.7,3.9,1.3,6.7,1.3,6.9
		C176.5,293.1,175,290,173.2,287.1z"/>
	<path class="st11" d="M197,282.1l-0.7,3.6l-0.5,2.7l-0.9,5l-8.9,6.2c0,0-0.8-0.7-2.1-1.8c-3.7-3-11.3-9.1-17-12.4
		c-1.5-0.9-3-1.6-4.7-2.2L197,282.1z"/>
	<path class="st12" d="M197,282.1l-0.7,3.6c-2,0.1-3.9,0-5.9-0.3l-20.8,0.3c-1-0.1-1.9-0.1-2.8-0.2c-1.5-0.9-3-1.6-4.7-2.2
		L197,282.1z"/>
	<path class="st13" d="M190.5,284.8c0,0,10.4,1.8,11-2.7c0.6-4.4-5.4-6.8-10.4-7.1c-5.1-0.3-35.4,1.8-35.4,1.8s-5.4,7.1,14,8.3
		L190.5,284.8z"/>
	<path class="st12" d="M197,282.1l-0.7,3.6l-0.5,2.7l-0.9,5l-8.9,6.2c0,0-0.8-0.7-2.1-1.8c-3.7-3-11.3-9.1-17-12.4
		c-1.5-0.9-3-1.6-4.7-2.2L197,282.1z"/>
	<path class="st12" d="M197,282.1l-0.7,3.6c-2,0.1-3.9,0-5.9-0.3l-20.8,0.3c-1-0.1-1.9-0.1-2.8-0.2c-1.5-0.9-3-1.6-4.7-2.2
		L197,282.1z"/>
	<path class="st12" d="M190.5,284.7c0,0,10.4,1.8,11-2.7s-5.4-6.8-10.4-7.1c-5.1-0.3-35.4,1.8-35.4,1.8s-5.4,7.1,14,8.3L190.5,284.7
		z"/>
	<rect x="158.8" y="138.1" class="st13" width="54.4" height="64.5"/>
	<rect x="158.8" y="138.4" class="st12" width="54.4" height="64.5"/>
	<path class="st11" d="M95,248.6c-0.9,0.2-2,1.1-3.3,2.3c-5.5,5.4-13.3,18.2-13.3,18.2c-10-12,1.1-21.4,5.8-24.7
		c1.2-0.8,1.9-1.2,1.9-1.2L95,248.6z"/>
	<path class="st11" d="M196.4,158.5c0,0,2.7,18.7,11.9,23.2c9.2,4.5-11.9,12.8-11.9,12.8l-28.8-10.7c0,0,16.4-5.4,13.1-21.1
		L196.4,158.5z"/>
	<path class="st11" d="M165.5,271.2l-0.7,3.6l-0.5,2.7l-0.9,5l-8.9,6.2c0,0-0.8-0.7-2.1-1.8c-3.7-3-11.3-9.1-17-12.4
		c-1.5-0.9-3-1.7-4.7-2.2L165.5,271.2z"/>
	<path class="st12" d="M165.5,271.2l-0.7,3.6c-2,0.1-3.9,0-5.9-0.3l-20.8,0.3c-1-0.1-1.9-0.1-2.8-0.2c-1.5-0.9-3-1.7-4.7-2.2
		L165.5,271.2z"/>
	<path class="st14" d="M159,273.9c0,0,10.4,1.8,11-2.7c0.6-4.5-5.4-6.8-10.4-7.1c-5.1-0.3-35.4,1.8-35.4,1.8s-5.4,7.1,14,8.3
		L159,273.9z"/>
	<path class="st12" d="M164.3,277.5l-0.9,5l-8.9,6.2c0,0-0.8-0.7-2.1-1.8l11.8-9.7L164.3,277.5z"/>
	<path class="st13" d="M223.2,345.6c-0.4-0.2-0.8-0.4-1.2-0.6l-1.1-1.4l-14.4-18.2c0,0,0,0.1,0,0.3c-0.1,3-1.1,27.2-9.2,29.4
		c-8.6,2.4-19,3-23.8-13.1c-4.7-16.1-13.4-51.2-22.3-53.2l13.2-10.9c0,0,8.8,10.3,12.3,20.1c-0.1-0.6-6.2-28.9-1.2-33.9H219
		c0,0,6.7,19.1,11.3,28.6c3.6,7.3,8.9,24.7,12.4,36.5C246.2,340.7,234.1,351,223.2,345.6z"/>
	<path class="st12" d="M222,269.4c-6.7,4-36.1,2.4-45.7,1.7l-2.6-0.2c-0.3,0,0-0.2,0-0.2l0.3-2.7l7.1-18.1l38.2-22.2
		c-0.8,2.3-1,5.9-1,10C218.6,250.9,222,269.4,222,269.4z"/>
	<path class="st15" d="M222,268.5c-6.7,4-36.1,2.4-45.7,1.7l-2.6-0.2l-0.4,0l0.5-0.1l2.4-0.6l5.1-20.2l38.2-22.2
		c-0.8,2.3-1,5.9-1,10C218.6,250,222,268.5,222,268.5z"/>
	<path class="st12" d="M218.4,236.9c-7.8,1.8-24.9,7.1-31.4,19.7c-4.4,8.5-8.1,12.1-10.6,13.6l-2.6-0.2c0-0.1,0-0.1,0-0.2l2.4-0.6
		l5.1-20.2l38.2-22.2C218.6,229.2,218.3,232.8,218.4,236.9z"/>
	<path class="st12" d="M86.1,243.3l8.9,5.4c-0.9,0.2-2,1.1-3.3,2.3c-0.7-2.2-5.4-5.2-7.5-6.5C85.3,243.7,86.1,243.3,86.1,243.3z"/>
	<path class="st12" d="M172.1,270.4c-0.2,0.1-0.4,0.1-0.6-0.1C171.7,270.4,171.9,270.4,172.1,270.4z"/>
	<path class="st16" d="M192.3,180.5c0,0-8,0.9-13.7-5.1c0,0-23.8,6.8-31.8,22.3c-8.1,15.5-62.8,45.8-62.8,45.8s9.5,5.4,8.6,8
		l36-20.8c0,0,12.8-9.2,16.4-11.3c3.6-2.1,23.2-14.9,27.4,19.9c4.2,34.8,0,30.6,0,30.6s5.9,2.1,14.6-14.6
		c8.6-16.7,35.4-20.5,35.4-20.5l1.5-17.5c0,0,5.3-11.6,1.2-16.5c-1.2-1.4-2.1-3.2-2.4-5c-0.7-4.5,0-11.9,9.5-18
		c14.6-9.5,20.2-17.2,20.2-17.2s0.3-5.7-8.6-8.3S198.5,135,198.5,135l-1.2,5.1l28.6,20.2c0,0-14.3,11.6-25.6,11.3
		C200.3,171.6,202.4,180.2,192.3,180.5z"/>
	<path class="st12" d="M197.8,166.7c-0.7-2.4-1.3-4.8-1.6-7.3l-15.8,4.2c0.7,3,0.6,6.1-0.4,9.1C186.6,174.4,193.6,172.1,197.8,166.7
		L197.8,166.7z"/>
	<circle class="st11" cx="184.7" cy="155.4" r="16.9"/>
	<path class="st12" d="M193.7,116.8c4.7,0.5,9.2,2.6,13.8,3.7c1.2,0.4,2.4,0.4,3.6,0.1c1.8-0.6,3.3-2.4,5.1-2.4
		c1.1,0,2.2,0.8,3.1,1.6c1.5,1.2,2.9,2.4,4.3,3.8c3.2,3.5,5.2,8.1,8.1,11.9c2.9,3.8,7.5,6.7,11.6,5c-2.8,11-12,19.3-22,20
		c-4,0.3-8.1-0.6-11.9,0.6c-1,0.4-2,0.6-3,0.7c-2.2,0-4-2-5.4-4c-3.2-4.7-5.8-9.9-9.5-14.2c-1.2-1.4-2.6-2.7-4.3-3
		c-1.7-0.3-3.3,0.6-4.8,1.3c-2.5,1.3-5.1,2.6-7,4.9s-3.2,5.5-2.4,8.5c0.4,1.6,1.4,3.1,1.4,4.8c0,2.7-2.4,4.7-2.8,7.3
		c-0.1,1.1-0.1,2.2-0.1,3.3c-0.2,3.6-2.6,6.6-5,8.8c-1,0.9-2,1.8-2.3,3.2c-0.2,0.9,0,1.9-0.1,2.9c-0.4,2.3-2.7,3.5-4.8,3.8
		c-2.4,0.4-4.9,0.1-7.1-0.8c2.9-1.4,4.7-5.3,4-8.7c-0.9-4.8-5.8-8.3-5.4-13.2c0.2-1.5,0.7-3,1.3-4.3c1.1-2.7,1.8-5.4,2.3-8.2
		c0.4-2.2,0.5-4.5-0.1-6.6c-0.6-1.9-1.9-3.4-3-5c-1.5-2.2-2.6-4.5-3.4-7c-0.3-0.7-0.4-1.5-0.3-2.3c0.2-0.9,0.8-1.8,1.5-2.4
		c2.7-2.8,5.5-5.7,9-6.5c1.7-0.3,3.4-0.4,5.1-0.2c3,0.1,6,0,8.9-0.4c2.4-0.3,6.6-0.2,8.6-1.8c1.9-1.5,3-3.3,5.4-4.3
		C188.6,116.8,191.2,116.5,193.7,116.8z"/>
	<path class="st12" d="M203.1,291.9c0,0,9.8,19.3,6.8,25.3"/>
	<path class="st12" d="M220.9,343.6l-14.4-18.2c0,0,0,0.1,0,0.3c0,0-0.8-5.9,1.9-3.9c6,4.3,15.6,11.5,15.8,12.7
		C224.5,335.7,222.3,340.6,220.9,343.6z"/>
	<g class="st17">
		<path d="M200.6,171.6c0,0,1.2,5-2.7,7.5c6-1,6.3-5.7,6.1-7.8C202.9,171.5,201.7,171.6,200.6,171.6z"/>
		<path d="M87.6,242.4c0,0,54.7-30.3,62.8-45.8c5.8-11.1,19.6-17.8,27-20.6c-5.4,1.8-23.5,8.7-30.3,21.8
			c-8,15.5-62.8,45.8-62.8,45.8L87.6,242.4z"/>
		<path d="M211.2,169.2c9.3-2.9,18.2-10.1,18.2-10.1l-28.6-20.2l0.7-2.8l-2.7-1.1l-1.2,5.1l28.6,20.2
			C221.6,163.9,216.6,166.9,211.2,169.2z"/>
		<path d="M211.4,237.8c3.6-1.2,7.4-2.2,11.2-2.8l0-0.6C218.8,235.2,215.1,236.3,211.4,237.8z"/>
		<path d="M176.8,268.9h-0.3c-0.2,0.1-0.4,0.1-0.6-0.1c0.2,0.1,0.4,0.1,0.6,0.1c1-0.6,2.4-5-0.6-30.7c-3.3-27.4-16.2-25.3-23.2-22.1
			c7.2-2,17.1-0.3,20,23.3c3.1,25.7,1.6,30.1,0.6,30.7C174.5,270.1,175.8,269.7,176.8,268.9z"/>
		<path d="M173.3,270.1c-0.2,0-0.4,0-0.6-0.1C172.8,270.2,173.1,270.2,173.3,270.1z"/>
	</g>
	<path class="st13" d="M193.7,116.3c4.7,0.5,9.2,2.6,13.8,3.7c1.2,0.4,2.4,0.4,3.6,0.1c1.8-0.6,3.3-2.4,5.1-2.4
		c1.1,0,2.2,0.8,3.1,1.6c1.5,1.2,2.9,2.4,4.3,3.8c3.2,3.5,5.2,8.1,8.1,11.9c2.9,3.8,7.5,6.7,11.6,5c-2.8,11-12,19.3-22,20
		c-4,0.3-8.1-0.6-11.9,0.6c-1,0.4-2,0.6-3,0.7c-2.2,0-4-2-5.4-4c-3.2-4.7-5.8-9.9-9.5-14.2c-1.2-1.4-2.6-2.7-4.3-3
		c-1.7-0.3-3.3,0.6-4.8,1.3c-2.5,1.3-5.1,2.6-7,4.9s-3.2,5.5-2.4,8.5c0.4,1.6,1.4,3.1,1.4,4.8c0,2.7-2.4,4.7-2.8,7.3
		c-0.1,1.1-0.1,2.2-0.1,3.3c-0.2,3.6-2.6,6.6-5,8.8c-1,0.9-2,1.8-2.3,3.2c-0.2,0.9,0,1.9-0.1,2.9c-0.4,2.3-2.7,3.5-4.8,3.8
		c-2.4,0.4-4.9,0.1-7.1-0.8c2.9-1.4,4.7-5.3,4-8.7c-0.9-4.8-5.8-8.3-5.4-13.2c0.2-1.5,0.7-3,1.3-4.3c1.1-2.7,1.8-5.4,2.3-8.2
		c0.4-2.2,0.5-4.5-0.1-6.6c-0.6-1.9-1.9-3.4-3-5c-1.5-2.2-2.6-4.5-3.4-7c-0.3-0.7-0.4-1.5-0.3-2.3c0.2-0.9,0.8-1.8,1.5-2.4
		c2.7-2.8,5.5-5.7,9-6.5c1.7-0.3,3.4-0.3,5.1-0.2c3,0.1,6,0,8.9-0.4c2.4-0.3,6.6-0.2,8.6-1.8c1.9-1.5,3-3.3,5.4-4.3
		C188.6,116.2,191.2,115.9,193.7,116.3z"/>
	<path class="st18" d="M359.3,276.9c0,30.6-24.8,55.3-55.3,55.3c-30.5,0-55.3-24.8-55.3-55.3c0-0.7,0-1.4,0-2.1
		c1.1-30.5,26.8-54.4,57.4-53.2C335.7,222.7,359.3,247.2,359.3,276.9z"/>
	<path class="st5" d="M354,298.5c0,0.7,0,1.4,0,2.1c-13,27.6-46,39.5-73.7,26.4c-19.4-9.1-31.7-28.6-31.7-50c0-0.7,0-1.4,0-2.1
		c13-27.6,46-39.5,73.7-26.4C341.7,257.6,354,277.1,354,298.5L354,298.5z"/>
	<polygon class="st19" points="292.7,292.1 273.1,265.9 277.7,262.4 293.8,283.8 356.8,232.2 360.5,236.7 	"/>
</g>
</svg>
